<svg viewBox="0 0 120.5 119.93" xmlns="http://www.w3.org/2000/svg"><path d="m37.5 94.4h-19.1a1.5 1.5 0 0 1 0-3h16.1v-1.6a4.8 4.8 0 0 0 -4.1-4.73l-11.56-1.7a1.5 1.5 0 1 1 .43-3l11.57 1.7a7.82 7.82 0 0 1 6.66 7.73zm65.36 25.53h-4.12a8.9 8.9 0 0 1 -8.88-8.93v-2.62h-59.23v2.62a8.9 8.9 0 0 1 -8.88 8.88h-4.12a8.9 8.9 0 0 1 -8.88-8.88v-33.13l-6.6-2.4a3.3 3.3 0 0 1 -2.15-3.11v-6a3.3 3.3 0 0 1 3.3-3.3h8.55a5.15 5.15 0 0 0 4.53-2.7l8.53-15.64a11 11 0 0 1 9.69-5.72h51.3a11 11 0 0 1 9.7 5.8l8.5 15.67a5.15 5.15 0 0 0 4.54 2.7h8.57a3.3 3.3 0 0 1 3.3 3.3v6a3.32 3.32 0 0 1 -2.17 3.08l-6.58 2.4v33.05a8.9 8.9 0 0 1 -8.9 8.93zm-75.23-14.53h65.23v5.6a5.9 5.9 0 0 0 5.88 5.88h4.12a5.9 5.9 0 0 0 5.88-5.88v-35.2l8.55-3.13a.3.3 0 0 0 .2-.28v-6a.3.3 0 0 0 -.3-.3h-8.57a8.15 8.15 0 0 1 -7.16-4.26l-8.46-15.66a8 8 0 0 0 -7-4.22h-51.4a8 8 0 0 0 -7 4.2l-8.6 15.67a8.15 8.15 0 0 1 -7.16 4.26h-8.54a.3.3 0 0 0 -.3.3v6a.3.3 0 0 0 .2.28l8.55 3.13v35.21a5.9 5.9 0 0 0 5.88 5.88h4.12a5.9 5.9 0 0 0 5.88-5.88zm69.37-39.2h-73.53l9.23-16.8a4.1 4.1 0 0 1 3.58-2.14h47.9a4.1 4.1 0 0 1 3.62 2.14zm-68.48-3h63.43l-6.78-12.38a1.1 1.1 0 0 0 -1-.58h-47.9a1.1 1.1 0 0 0 -1 .58zm73.58 31.2h-19.1v-4.6a7.82 7.82 0 0 1 6.65-7.7l11.58-1.68a1.5 1.5 0 0 1 .43 3l-11.58 1.65a4.8 4.8 0 0 0 -4.08 4.73v1.6h16.12a1.5 1.5 0 0 1 0 3zm-28.97.28h-25.76a1.5 1.5 0 0 1 0-3h25.76a1.5 1.5 0 0 1 0 3zm0 0h-.13a1.5 1.5 0 0 1 -1.36-1.68l1-8.53h-24.76l1 8.53a1.5 1.5 0 1 1 -3 .34l-1.36-11.86h31.48l-1.38 11.87a1.5 1.5 0 0 1 -1.5 1.33zm-43.99 13.75h-7.72a1.5 1.5 0 0 1 0-3h7.72a1.5 1.5 0 0 1 0 3zm69.94 0h-7.72a1.5 1.5 0 0 1 0-3h7.72a1.5 1.5 0 0 1 0 3zm-31.38-76.1h-14.9a4.52 4.52 0 0 1 -4.52-4.5v-23.33a4.52 4.52 0 0 1 4.5-4.5h14.93a4.52 4.52 0 0 1 4.52 4.5v23.32a4.52 4.52 0 0 1 -4.5 4.5zm-14.9-29.33a1.5 1.5 0 0 0 -1.52 1.5v23.32a1.5 1.5 0 0 0 1.5 1.5h14.93a1.5 1.5 0 0 0 1.52-1.5v-23.3a1.5 1.5 0 0 0 -1.51-1.52zm2.64 13.08h3v3h-3zm6.62 0h3v3h-3zm-6.62 5.46h3v3h-3zm6.62 0h3v3h-3zm8.66-8.84h-20.94a1.5 1.5 0 0 1 0-3h20.94a1.5 1.5 0 0 1 0 3zm35.78 30.98h-3a14.37 14.37 0 0 0 -14.32-14.36v-3a17.37 17.37 0 0 1 17.32 17.36zm6.08 0h-1.5a22 22 0 0 0 -21.94-22v-3a25 25 0 0 1 24.94 24.93zm-98.58 0a17.37 17.37 0 0 1 17.3-17.36v3a14.37 14.37 0 0 0 -14.3 14.36zm-7.58 0a24.94 24.94 0 0 1 24.94-25v3a22 22 0 0 0 -21.94 21.98z" fill="#344154"/></svg>