<svg enable-background="new 0 0 111 100.8" viewBox="0 0 111 100.8" xmlns="http://www.w3.org/2000/svg"><path d="m111 23.7h-111v-13.3h111zm-108-3h105v-7.4h-105zm108 80.1h-111v-13.4h111zm-108-3h105v-7.4h-105zm100.8-7.4h-96.6v-69.7h96.5v69.7zm-93.6-3h90.5v-63.7h-90.5zm27.4-74h-21.2v-9.5c0-2.1 1.7-3.9 3.9-3.9h13.5c2.1 0 3.9 1.7 3.9 3.9v9.5zm-18.2-3h15.2v-6.5c0-.5-.4-.9-.9-.9h-13.5c-.5 0-.9.4-.9.9v6.5zm75.3 3h-21.3v-9.5c0-2.1 1.7-3.9 3.9-3.9h13.4c2.1 0 3.9 1.7 3.9 3.9v9.5zm-18.3-3h15.2v-6.5c0-.5-.4-.9-.9-.9h-13.4c-.5 0-.9.4-.9.9zm-50.9 17.1h3v11.7h-3zm-4.4 4.4h11.7v3h-11.7zm57.1 0h11.7v3h-11.7zm-30.3 47.3c-.2 0-.5-.1-.7-.2-.6-.3-.9-1.1-.7-1.8l5.7-16.7-9.2-.1c-.6 0-1.1-.3-1.3-.8s-.2-1.1.2-1.6l19.9-25.7c.4-.6 1.3-.7 1.9-.4s.9 1.1.7 1.8l-5.7 16.7 9.2.1c.6 0 1.1.3 1.3.8s.2 1.1-.2 1.6l-19.9 25.8c-.3.3-.7.5-1.2.5zm-1.7-21.6 8.2.1c.5 0 .9.2 1.2.6s.4.9.2 1.4l-3.5 10.1 12.5-16.1-8.2-.1c-.5 0-.9-.2-1.2-.6s-.4-.9-.2-1.4l3.5-10.1z" fill="#344154"/></svg>