<svg enable-background="new 0 0 82.9 106.8" viewBox="0 0 82.9 106.8" xmlns="http://www.w3.org/2000/svg"><path d="m78.3 95.6h-73.6c-2.6 0-4.7-2.1-4.7-4.7v-75.1c0-2.6 2.1-4.7 4.7-4.7h73.6c2.6 0 4.7 2.1 4.7 4.7v75.1c0 2.6-2.1 4.7-4.7 4.7zm-73.6-81.5c-.9 0-1.7.8-1.7 1.7v75.1c0 .9.8 1.7 1.7 1.7h73.6c.9 0 1.7-.8 1.7-1.7v-75.1c0-.9-.8-1.7-1.7-1.7zm76.8 7h-80c-.8 0-1.5-.7-1.5-1.5s.7-1.5 1.5-1.5h80c.8 0 1.5.7 1.5 1.5s-.7 1.5-1.5 1.5zm0 67.5h-80c-.8 0-1.5-.7-1.5-1.5s.7-1.5 1.5-1.5h80c.8 0 1.5.7 1.5 1.5s-.7 1.5-1.5 1.5zm-60.6-74.4c-.4 0-.8-.1-1.1-.4-.6-.6-.6-1.5 0-2.1l6.3-6.3h30.8l6.2 6.2c.6.6.6 1.5 0 2.1s-1.5.6-2.1 0l-5.4-5.4h-28.3l-5.4 5.4c-.3.4-.7.5-1 .5zm34.8-11.2h-28.5c-.8 0-1.5-.7-1.5-1.5s.7-1.5 1.5-1.5h28.4c.8 0 1.5.7 1.5 1.5s-.6 1.5-1.4 1.5zm1.2 98.4h-30.8l-6.3-6.3c-.6-.6-.6-1.5 0-2.1s1.5-.6 2.1 0l5.4 5.4h28.3l5.4-5.4c.6-.6 1.5-.6 2.1 0s.6 1.5 0 2.1zm-1.2 5.4h-28.5c-.8 0-1.5-.7-1.5-1.5s.7-1.5 1.5-1.5h28.4c.8 0 1.5.7 1.5 1.5s-.6 1.5-1.4 1.5zm-14.2-28.5c-.8 0-1.5-.7-1.5-1.5v-46.9c0-.8.7-1.5 1.5-1.5s1.5.7 1.5 1.5v46.9c0 .8-.7 1.5-1.5 1.5zm12.2-.5c-.8 0-1.5-.7-1.5-1.5v-47c0-.8.7-1.5 1.5-1.5s1.5.7 1.5 1.5v46.9c0 .9-.7 1.6-1.5 1.6zm12.3-.6c-.8 0-1.5-.7-1.5-1.5v-46.9c0-.8.7-1.5 1.5-1.5s1.5.7 1.5 1.5v46.9c0 .8-.7 1.5-1.5 1.5zm-49 1.1c-.8 0-1.5-.7-1.5-1.5v-46.9c0-.8.7-1.5 1.5-1.5s1.5.7 1.5 1.5v46.9c0 .8-.7 1.5-1.5 1.5zm12.2-.5c-.8 0-1.5-.7-1.5-1.5v-47c0-.8.7-1.5 1.5-1.5s1.5.7 1.5 1.5v46.9c0 .9-.7 1.6-1.5 1.6z" fill="#344154"/></svg>