<svg enable-background="new 0 0 133.2 90.4" viewBox="0 0 133.2 90.4" xmlns="http://www.w3.org/2000/svg"><g fill="#344154"><path d="m70.7 44.2h-10.7c-.8 0-1.5-.7-1.5-1.5s.7-1.5 1.5-1.5h7.7v-.1c0-.9-.7-1.6-1.5-1.8l-6-.8c-.8-.1-1.4-.9-1.3-1.7s.9-1.4 1.7-1.3l6.1.9c2.3.3 4.1 2.4 4.1 4.7v3.1zm33.5 15.7h-2.2c-3 0-5.4-2.4-5.4-5.4v-3h-29.4v3c0 3-2.4 5.4-5.4 5.4h-2.2c-3 0-5.4-2.4-5.4-5.4v-19.1l-3-1.1c-1-.3-1.6-1.3-1.6-2.3v-3.2c0-1.3 1.1-2.4 2.4-2.4h4.5c.7 0 1.4-.4 1.7-1l4.5-8.2c1.1-2.1 3.3-3.4 5.7-3.4h26.9c2.4 0 4.6 1.3 5.7 3.4l4.5 8.2c.3.6 1 1 1.7 1h4.5c1.3 0 2.4 1.1 2.4 2.4v3.2c0 1-.7 1.9-1.6 2.3l-3 1.1v19.2c.1 2.9-2.3 5.3-5.3 5.3zm-40-11.3h35.5v6c0 1.3 1.1 2.4 2.4 2.4h2.2c1.3 0 2.4-1.1 2.4-2.4v-21.3l4.6-1.7v-2.2h-3.9c-1.8 0-3.5-1-4.4-2.6l-4.5-8.2c-.6-1.1-1.8-1.8-3.1-1.8h-26.9c-1.3 0-2.5.7-3.1 1.8l-4.4 8.2c-.9 1.6-2.5 2.6-4.4 2.6h-3.9v2.2l4.6 1.7v21.3c0 1.3 1.1 2.4 2.4 2.4h2.2c1.3 0 2.4-1.1 2.4-2.4v-6zm35.6-19.1h-35.8c-.8 0-1.5-.7-1.5-1.5s.7-1.5 1.5-1.5h35.8c.8 0 1.5.7 1.5 1.5s-.6 1.5-1.5 1.5zm4 14.7h-10.7v-3.1c0-2.4 1.7-4.4 4.1-4.7l6.1-.9c.8-.1 1.6.4 1.7 1.3s-.4 1.6-1.3 1.7l-6.1.9c-.9.1-1.5.9-1.5 1.8v.1h7.7c.8 0 1.5.7 1.5 1.5s-.7 1.4-1.5 1.4zm-15.1.2h-13.5c-.8 0-1.5-.7-1.5-1.5s.7-1.5 1.5-1.5h13.5c.8 0 1.5.7 1.5 1.5s-.7 1.5-1.5 1.5zm0 0c-.1 0-.1 0-.2 0-.8-.1-1.4-.8-1.3-1.7l.4-3.7h-11.4l.4 3.7c.1.8-.5 1.6-1.3 1.7s-1.6-.5-1.7-1.3l-.8-7h18.2l-.8 7c-.1.7-.8 1.3-1.5 1.3zm-23.1 7.2h-4c-.8 0-1.5-.7-1.5-1.5s.7-1.5 1.5-1.5h4c.8 0 1.5.7 1.5 1.5s-.6 1.5-1.5 1.5zm37.8 0h-5.2c-.8 0-1.5-.7-1.5-1.5s.7-1.5 1.5-1.5h5.2c.8 0 1.5.7 1.5 1.5s-.7 1.5-1.5 1.5zm-37.8 0h-5.2c-.8 0-1.5-.7-1.5-1.5s.7-1.5 1.5-1.5h5.2c.8 0 1.5.7 1.5 1.5s-.6 1.5-1.5 1.5z"/><path d="m38 42.2h-17.4c-.8 0-1.5-.7-1.5-1.5s.7-1.5 1.5-1.5h17.4c.8 0 1.5.7 1.5 1.5s-.7 1.5-1.5 1.5z"/><path d="m38 49.6h-17.4c-.8 0-1.5-.7-1.5-1.5s.7-1.5 1.5-1.5h17.4c.8 0 1.5.7 1.5 1.5s-.7 1.5-1.5 1.5z"/><path d="m38 57h-17.4c-.8 0-1.5-.7-1.5-1.5s.7-1.5 1.5-1.5h17.4c.8 0 1.5.7 1.5 1.5s-.7 1.5-1.5 1.5z"/><path d="m127.1 90.3h-121c-3.3 0-6.1-2.7-6.1-6.1v-5.5c0-.8.7-1.5 1.5-1.5h130.2c.8 0 1.5.7 1.5 1.5v5.5c0 3.4-2.8 6.1-6.1 6.1zm-124.1-10v4c0 1.7 1.4 3.1 3.1 3.1h121c1.7 0 3.1-1.4 3.1-3.1v-4z"/><path d="m123.2 80.3h-113.2c-.8 0-1.5-.7-1.5-1.5v-73c0-3.2 2.6-5.8 5.8-5.8h104.6c3.2 0 5.8 2.6 5.8 5.8v73c0 .8-.7 1.5-1.5 1.5zm-111.7-3h110.2v-71.5c0-1.6-1.3-2.8-2.8-2.8h-104.6c-1.5 0-2.8 1.3-2.8 2.8z"/><path d="m39.9 34.5h-21.2v-20.7h21.2zm-18.2-3h15.2v-14.7h-15.2z"/></g></svg>