<svg enable-background="new 0 0 100.7 100.7" viewBox="0 0 100.7 100.7" xmlns="http://www.w3.org/2000/svg"><path d="m96.2 97.7c-.4 0-.8-.1-1.1-.4l-31.3-31.4c-.6-.6-.6-1.5 0-2.1s1.5-.6 2.1 0l31.4 31.4c.6.6.6 1.5 0 2.1-.3.3-.7.4-1.1.4zm-7.2 3c-3 0-6-1.1-8.3-3.4l-46-46.1c-4.2 1.4-8.6 1.7-13 .9-6.9-1.2-12.9-5.1-16.9-10.9-4-5.8-5.5-12.7-4.3-19.7l.5-2.8 13.7 13.7 14.1-3.8 3.8-14.1-13.8-13.6 2.8-.5c8.5-1.5 17.2 1.2 23.2 7.3 7.1 7 9.5 17.5 6.4 26.9l46.1 46c4.6 4.6 4.6 12.1 0 16.7-2.3 2.3-5.3 3.4-8.3 3.4zm-53.6-53 47.4 47.4c3.4 3.4 9 3.4 12.4 0s3.4-9 0-12.4l-47.5-47.3.3-.9c3.2-8.5 1.1-18.2-5.3-24.7-4.6-4.7-11-7.1-17.5-6.8l10.7 10.7-4.7 17.5-17.5 4.7-10.7-10.7c-.3 5.1 1.2 10.1 4.1 14.4 3.5 5.1 8.9 8.5 15 9.6 4.1.7 8.4.4 12.3-1.1zm-19.6-20.1-6.8-6.8 2.5-9.3 9.3-2.5 6.8 6.8-2.5 9.2zm-3.5-7.8 4.4 4.4 6-1.6 1.6-6-4.4-4.4-6 1.6zm6 80.9c-8.7 0-13.8-3.1-14-3.2-.4-.2-.7-.7-.7-1.1 0-.5.1-.9.5-1.2l8.1-7.4c.6-.6 1.6-.5 2.1.1.6.6.5 1.6-.1 2.1l-6.5 5.9c2 .8 5.7 1.9 10.5 1.9 4.9 0 8.5-1.1 10.5-1.9l-6.5-5.9c-.6-.6-.7-1.5-.1-2.1s1.5-.7 2.1-.1l8.1 7.4c.3.3.5.8.5 1.2 0 .5-.3.9-.7 1.1 0 .1-5.1 3.2-13.8 3.2zm5-10.4h-10.1c-.8 0-1.5-.7-1.5-1.5v-16.2c0-2 1.6-3.6 3.6-3.6h5.9c2 0 3.6 1.6 3.6 3.6v16.3c0 .8-.6 1.4-1.5 1.4zm-8.5-3h7.1v-14.7c0-.3-.3-.6-.6-.6h-5.9c-.3 0-.6.3-.6.6zm-1.5-6.8c-.5 0-1-.3-1.3-.7-.4-.7-.2-1.6.5-2.1l10.1-6c.7-.4 1.6-.2 2.1.5.4.7.2 1.6-.5 2.1l-10.1 6c-.3.1-.6.2-.8.2zm0 7.3c-.5 0-1-.3-1.3-.7-.4-.7-.2-1.6.5-2.1l10.1-6c.7-.4 1.6-.2 2.1.5.4.7.2 1.6-.5 2.1l-10.1 6c-.3.1-.6.2-.8.2z" fill="#344154"/></svg>