<svg enable-background="new 0 0 100.5 100.5" viewBox="0 0 100.5 100.5" xmlns="http://www.w3.org/2000/svg"><path d="m4 98.1c-.4 0-.8-.1-1.1-.4-.6-.6-.6-1.5 0-2.1l20.9-20.9c.6-.6 1.5-.6 2.1 0s.6 1.5 0 2.1l-20.9 20.8c-.3.3-.7.5-1 .5zm6.1 2.2c-2.4 0-4.8-.9-6.7-2.6-1.9-1.8-3.1-4.2-3.2-6.9s.8-5.2 2.6-7.1l33.7-33.7c.6-.6 1.5-.6 2.1 0s.6 1.5 0 2.1l-33.5 33.7c-1.2 1.3-1.9 3.1-1.8 4.9s.9 3.5 2.2 4.8c2.6 2.4 6.7 2.4 9.3 0l33.7-33.7c.6-.6 1.5-.6 2.1 0s.6 1.5 0 2.1l-33.7 33.7c-1.9 1.8-4.3 2.7-6.8 2.7zm49.4-52c-.4 0-.8-.1-1.1-.4-.6-.6-.6-1.5 0-2.1l24.9-24.9-3.7-3.7-24.8 24.8c-.6.6-1.5.6-2.1 0s-.6-1.5 0-2.1l25.9-25.9c.3-.3.7-.4 1.1-.4s.8.2 1.1.4l5.8 5.8c.6.6.6 1.5 0 2.1l-26 26c-.3.3-.7.4-1.1.4zm25.6-25.7-7.2-7.2 3.4-8.6 10.8-6.8 8.4 8.4-6.8 10.8zm-3.7-7.9 4.4 4.4 5.9-2.3 5-7.9-5-5-7.9 5zm7.5 85.3c-2.4 0-4.9-.8-6.9-2.5l-.1-.1-56.8-56.8c-2.9.7-6 .7-9 0-10.9-2.4-17.8-13.2-15.4-24.2l.6-2.7 12.5 12.5 9.6-2.6 2.6-9.6-12.5-12.4 2.6-.6c6.8-1.5 13.8.5 18.7 5.5 5 5 7 12.2 5.4 19l56.9 56.9c3.3 4 3.3 9.8 0 13.7-2.1 2.5-5.1 3.9-8.2 3.9zm-4.9-4.8c3.3 2.7 8.1 2.2 10.8-1 2.4-2.9 2.4-7 0-9.9l-58-58 .2-.8c1.7-6 0-12.5-4.4-16.9-3.5-3.5-8.3-5.3-13.1-5l9.7 9.7-3.4 12.9-12.9 3.4-9.7-9.6c-.4 8.3 5.2 15.9 13.5 17.8 2.8.6 5.7.5 8.4-.2l.8-.2zm12 2.6c-.4 0-.8-.1-1.1-.4l-16.3-16.3c-.6-.6-.6-1.5 0-2.1s1.5-.6 2.1 0l16.3 16.3c.6.6.6 1.5 0 2.1-.2.3-.6.4-1 .4z" fill="#344154"/></svg>