<svg enable-background="new 0 0 85.5 107" viewBox="0 0 85.5 107" xmlns="http://www.w3.org/2000/svg"><path d="m77.5 39.8h-69.3l19.6-31.8h49.7zm-63.9-3h60.9v-25.8h-45zm34-10.6c-.3 0-.5-.1-.8-.2-.7-.4-.9-1.4-.5-2.1l3.8-6.2c.4-.7 1.4-.9 2.1-.5s.9 1.4.5 2.1l-3.8 6.2c-.3.5-.8.7-1.3.7zm4.5 4.6c-.3 0-.5-.1-.8-.2-.7-.4-.9-1.4-.5-2.1l6.6-10.7c.4-.7 1.4-.9 2.1-.5s.9 1.4.5 2.1l-6.6 10.6c-.3.5-.8.8-1.3.8zm33.4 76.2h-52.9v-2.3c0-17.9-13.5-32.6-31.3-34.3l-1.3-.2v-32.3l23.3-37.9h62.2zm-49.9-3h46.9v-101h-57.5l-22 35.8v28.8c18.5 2.3 32.3 17.7 32.6 36.4zm4.2-5.4c-.8 0-1.4-.6-1.5-1.4-1.6-15.9-13.2-28.8-28.9-32-.8-.2-1.3-1-1.2-1.8s1-1.3 1.8-1.2c17 3.6 29.6 17.5 31.3 34.8.1.8-.5 1.6-1.3 1.6-.1 0-.2 0-.2 0zm37.7-40.4h-21v-4.8c0-.8.7-1.5 1.5-1.5s1.5.7 1.5 1.5v1.8h15v-6.8c0-.8.7-1.5 1.5-1.5s1.5.7 1.5 1.5zm-10.5 7.1h-9c-.8 0-1.5-.7-1.5-1.5s.7-1.5 1.5-1.5h9c.8 0 1.5.7 1.5 1.5s-.7 1.5-1.5 1.5z" fill="#344154"/></svg>