<svg enable-background="new 0 0 79.4 114.3" viewBox="0 0 79.4 114.3" xmlns="http://www.w3.org/2000/svg"><path d="m2.3 98.1c-.8 0-1.5-.7-1.5-1.5s.7-1.5 1.5-1.5c3.5 0 6.7-2.1 8.1-5.4l1.4-3.2 1.4 3.2c.9 2.1 2.5 3.7 4.6 4.6 4.5 1.9 9.7-.1 11.7-4.6l1.4-3.2 1.4 3.2c.9 2.1 2.5 3.7 4.6 4.6 2.2.9 4.6 1 6.8.1s3.9-2.5 4.9-4.7l1.4-3.2 1.4 3.2c.9 2.1 2.5 3.7 4.6 4.6 2.2.9 4.6 1 6.8.1s3.9-2.5 4.9-4.7l1.4-3.2 1.4 3.2c1.3 3.1 4.4 5.2 7.7 5.4.8 0 1.5.7 1.4 1.6 0 .8-.7 1.5-1.6 1.4-3.6-.2-6.9-2-9-4.8-3.2 4.3-9.1 6-14.2 3.8-1.9-.8-3.5-2.1-4.8-3.8-1.3 1.8-3.1 3.1-5.2 3.9-2.9 1.2-6.2 1.1-9.1-.2-1.9-.8-3.5-2.1-4.8-3.8-3.2 4.3-9.1 6-14.2 3.8-1.9-.8-3.5-2.1-4.8-3.8-2.2 3.1-5.8 4.9-9.6 4.9zm77.1 16.2h-79.4v-101.4c0-.8.7-1.5 1.5-1.5s1.5.7 1.5 1.5v98.4h73.4v-71.8c0-5.4-4.4-9.7-9.7-9.7h-51.5c-.8 0-1.5-.7-1.5-1.5s.7-1.5 1.5-1.5h51.4c7 0 12.7 5.7 12.7 12.7v74.8zm-57.1-84.5c-.8 0-1.5-.7-1.5-1.5v-16.2c0-1.1-.9-2-2-2h-15.8v2.8c0 .8-.7 1.5-1.5 1.5s-1.5-.7-1.5-1.5v-5.8h18.8c2.8 0 5 2.2 5 5v16.2c0 .8-.7 1.5-1.5 1.5zm-5.5-19.7h-16.8v-6.3c0-2.1 1.7-3.8 3.8-3.8h9.1c2.1 0 3.8 1.7 3.8 3.8v6.3zm-13.8-3h10.8v-3.3c0-.4-.4-.8-.8-.8h-9.2c-.4 0-.8.4-.8.8zm36.7 71.8c-.2 0-.5 0-.7 0-2.7-.2-5.1-1.4-6.9-3.4-1.7-2-2.6-4.6-2.4-7.2.1-5.1 7.9-16 8.8-17.2l1.2-1.7 1.2 1.7c.9 1.2 8.8 12.2 8.8 17.2v1.5h-.1c-.2 2.6-1.4 4.9-3.4 6.6-1.8 1.7-4.1 2.5-6.5 2.5zm0-24.3c-3.1 4.5-7 11.1-7 13.8v.1c-.1 1.9.5 3.7 1.7 5.1s2.9 2.3 4.8 2.4 3.7-.5 5.1-1.7 2.3-2.9 2.4-4.8c0-.3 0-.6 0-1l-.1-1c-.6-3.1-4.1-8.9-6.9-12.9zm38.2-9.7c-.8 0-1.5-.7-1.5-1.5v-19.6c0-4.2-3.4-7.7-7.7-7.7h-20.7v6.8c0 .8-.7 1.5-1.5 1.5s-1.5-.7-1.5-1.5v-9.8h23.7c5.9 0 10.7 4.8 10.7 10.7v19.6c0 .8-.7 1.5-1.5 1.5z" fill="#344154"/></svg>