<svg enable-background="new 0 0 99.8 117" viewBox="0 0 99.8 117" xmlns="http://www.w3.org/2000/svg"><g fill="#344154"><path d="m75.6 80c-1.9 0-3.8-.4-5.6-1.2-2.5-1.1-4.5-2.8-6-4.9-1.6 2.3-3.8 4-6.4 5.1-3.5 1.4-7.4 1.4-10.8-.1-2.5-1.1-4.5-2.8-6-4.9-1.6 2.3-3.8 4-6.4 5.1-3.5 1.4-7.4 1.4-10.8-.1-2.5-1.1-4.5-2.8-6-4.9-2.6 3.6-6.9 5.9-11.6 5.9-.4 0-.8 0-1.3-.1l.4-3h.8c4.4 0 8.4-2.7 10.2-6.8l1.4-3.2 1.4 3.2c1.1 2.6 3.2 4.7 5.8 5.8 2.7 1.2 5.8 1.2 8.5.1 2.8-1.1 4.9-3.2 6.1-6l1.4-3.2 1.4 3.2c1.1 2.6 3.2 4.7 5.8 5.8 5.6 2.4 12.2-.2 14.6-5.8l1.5-3 1.4 3.2c1.1 2.6 3.2 4.7 5.8 5.8 2.7 1.2 5.8 1.2 8.5.1s4.9-3.2 6.1-6l1.4-3.2 1.4 3.2c1.7 3.9 5.5 6.5 9.7 6.7l-.1 3c-4.4-.2-8.5-2.5-11-6.1-1.6 2.3-3.8 4-6.4 5.1-1.6.9-3.4 1.2-5.2 1.2zm24.2-63.8h-3v-9.8c0-1.8-1.5-3.4-3.4-3.4h-31.7c-1.8 0-3.4 1.5-3.4 3.4v9.9h-3v-9.9c0-3.5 2.8-6.4 6.4-6.4h31.8c3.5 0 6.4 2.8 6.4 6.4v9.8zm-5.7 1.6h-33v-9.6c0-1.4 1.1-2.5 2.5-2.5h28c1.4 0 2.5 1.1 2.5 2.5zm-30-3h27v-6h-27zm-50.7 27.3-10.3-10.3 14.5-14.5 10.4 10.4zm-6.1-10.3 6.1 6.1 10.2-10.2-6.1-6.1zm-7.3-5.2 12.38-12.36 2.12 2.12-12.38 12.38z"/><path d="m99.8 117h-96.4v-68.9l33.4-33.3h21.7v3h-20.5l-31.6 31.6v64.6h90.4v-97.8h3z"/></g></svg>