<svg enable-background="new 0 0 46.7 129.2" viewBox="0 0 46.7 129.2" xmlns="http://www.w3.org/2000/svg"><path d="m43.7 47.8h-40.7c-1.7 0-3-1.4-3-3v-20.4c0-1.6 1.3-3 3-3h40.7c1.7 0 3 1.4 3 3v20.3c.1 1.7-1.3 3.1-3 3.1zm-40.7-23.4v20.4h40.7v-20.4zm40.7-10.2h-40.7c-1.7 0-3-1.4-3-3v-8.2c0-1.7 1.4-3 3-3h40.7c1.7 0 3 1.4 3 3v8.2c0 1.7-1.3 3-3 3zm-40.7-11.2v8.2h40.7v-8.2zm38.1 21.4h-35.5v-13.2h35.5zm-32.5-3h29.5v-7.2h-29.5zm14.8 20.6c-4.1 0-7.4-3.3-7.4-7.4s3.3-7.4 7.4-7.4 7.4 3.3 7.4 7.4-3.4 7.4-7.4 7.4zm0-11.8c-2.4 0-4.4 2-4.4 4.4s2 4.4 4.4 4.4 4.4-2 4.4-4.4-2-4.4-4.4-4.4zm0 99c-9.8 0-17.7-8-17.7-17.7s8-17.7 17.7-17.7 17.7 8 17.7 17.7-8 17.7-17.7 17.7zm0-32.5c-8.1 0-14.7 6.6-14.7 14.7s6.6 14.7 14.7 14.7 14.7-6.6 14.7-14.7-6.6-14.7-14.7-14.7zm0 22.1c-4.1 0-7.4-3.3-7.4-7.3s3.3-7.4 7.4-7.4 7.3 3.3 7.3 7.4-3.3 7.3-7.3 7.3zm0-11.7c-2.4 0-4.4 2-4.4 4.4s2 4.3 4.4 4.3 4.3-2 4.3-4.3-1.9-4.4-4.3-4.4zm-10.9-98.5h-11c-.8 0-1.5-.7-1.5-1.5s.7-1.5 1.5-1.5h11c.8 0 1.5.7 1.5 1.5s-.7 1.5-1.5 1.5zm32.7 0h-11c-.8 0-1.5-.7-1.5-1.5s.7-1.5 1.5-1.5h11c.8 0 1.5.7 1.5 1.5s-.6 1.5-1.5 1.5zm-10.2 85.2-2.4-1.2c-2.9-1.4-6.1-2.2-9.2-2.2-3.2 0-6.4.8-9.2 2.2l-2.4 1.2 4.4-49h14.6zm-11.6-6.4c2.8 0 5.6.5 8.2 1.5l-3.7-41.1h-9.1l-3.7 41.1c2.7-1 5.5-1.5 8.3-1.5z" fill="#344154"/></svg>