<svg enable-background="new 0 0 124.4 85.9" viewBox="0 0 124.4 85.9" xmlns="http://www.w3.org/2000/svg"><g fill="#344154"><path d="m106.4 33.1-21.2-2.4v-28.2l21.2-2.5zm-18.2-5.1 15.2 1.8v-26.4l-15.2 1.7zm16.7-9.7h-10.7c-.8 0-1.5-.7-1.5-1.5s.7-1.5 1.5-1.5h10.8c.8 0 1.5.7 1.5 1.5s-.8 1.5-1.6 1.5zm0-7.7h-7.1c-.8 0-1.5-.7-1.5-1.5s.7-1.5 1.5-1.5h7.1c.8 0 1.5.7 1.5 1.5s-.7 1.5-1.5 1.5zm0 14.5h-6.8c-.8 0-1.5-.7-1.5-1.5s.7-1.5 1.5-1.5h6.8c.8 0 1.5.7 1.5 1.5s-.7 1.5-1.5 1.5zm-18.2 5.7h-7c-4.8 0-8.7-3.9-8.7-8.7v-11.1c0-4.8 3.9-8.7 8.7-8.7h7v3h-7c-3.1 0-5.7 2.5-5.7 5.7v11.1c0 3.1 2.6 5.7 5.7 5.7h7zm-65.2-2.4c-1.6 0-3.2-.3-4.7-1-2.9-1.3-5.2-3.6-6.3-6.6-1.2-3-1.1-6.2.2-9.1s3.6-5.2 6.6-6.3c3-1.2 6.2-1.1 9.1.2 5.6 2.4 11.9 5.2 18.2 5.2h29.4v11.5h-28.8c-5.5 0-11.6 1.6-18.5 5-1.7.7-3.5 1.1-5.2 1.1zm0-20.8c-1.1 0-2.2.2-3.3.6-2.2.9-4 2.6-4.9 4.7-.9 2.2-1 4.6-.1 6.8s2.6 4 4.7 4.9c2.4 1 5.1 1 7.4-.1 7.3-3.5 13.8-5.2 19.8-5.2h25.9v-5.5h-26.6c-6.9 0-13.5-2.9-19.4-5.4-1.1-.5-2.3-.8-3.5-.8zm0 14.1c-2.9 0-5.2-2.3-5.2-5.2s2.3-5.2 5.2-5.2 5.2 2.3 5.2 5.2-2.3 5.2-5.2 5.2zm0-7.4c-1.2 0-2.2 1-2.2 2.2s1 2.2 2.2 2.2 2.2-1 2.2-2.2-1-2.2-2.2-2.2z"/><path d="m104 85.9c-4.2 0-7.6-3.4-7.6-7.6s3.4-7.6 7.6-7.6 7.6 3.4 7.6 7.6-3.4 7.6-7.6 7.6zm0-12.2c-2.5 0-4.6 2.1-4.6 4.6s2.1 4.6 4.6 4.6 4.6-2.1 4.6-4.6c0-2.6-2.1-4.6-4.6-4.6z"/><path d="m26.7 85.9c-4.2 0-7.6-3.4-7.6-7.6s3.4-7.6 7.6-7.6 7.6 3.4 7.6 7.6-3.4 7.6-7.6 7.6zm0-12.2c-2.5 0-4.6 2.1-4.6 4.6s2.1 4.6 4.6 4.6 4.6-2.1 4.6-4.6c0-2.6-2.1-4.6-4.6-4.6z"/><path d="m121.4 82.6h-8.2l.5-1.9c.4-1.6.4-3.3 0-4.9-1.3-5.3-6.8-8.6-12.1-7.2-2.6.6-4.8 2.3-6.1 4.5s-1.8 5-1.1 7.5l.5 1.9h-59l.5-1.9c.4-1.6.4-3.3 0-4.9-1.3-5.3-6.8-8.6-12.1-7.2-2.6.6-4.8 2.3-6.1 4.5-1.4 2.3-1.8 5-1.1 7.5l.5 1.9h-8.5c-7.2.2-9.1-7.2-9.1-11.1 0-3 .9-5.8 2.5-8.3v-4.2c0-.1 0-.1 0-.2.1-1.5 1.4-2.7 3-2.6 5.1.2 10.1-1.2 14.4-3.8 7.7-4.4 16.5-6.7 25.3-6.6h13.3c4.8 0 9.6 1.1 13.9 3.3l10.4 5.1c4 2 8.3 3.1 12.8 3.4 12.9.7 20 3.2 23 4.6 1.4.6 2.2 2.1 2.1 3.6v2.7l2 1.3c1.1.8 1.8 2.1 1.7 3.4l.1 6.6c0 .8-.3 1.6-.9 2.2-.6.4-1.4.8-2.2.8zm-4.5-3h4.5l-.1-6.8v-.1c0-.3-.1-.6-.4-.8l-3.3-2.1v-4.5c0-.3-.1-.5-.4-.7-2.9-1.3-9.6-3.6-22-4.3-4.9-.3-9.6-1.5-13.9-3.7l-10.3-5.1c-3.9-1.9-8.2-3-12.5-3h-13.3c-8.3 0-16.5 2.1-23.8 6.2-4.8 2.9-10.3 4.4-16 4.3v4.9l-.3.4c-1.4 2.1-2.2 4.5-2.2 7 0 .3.1 8.3 6.1 8.3h4.7c-.3-2.8.3-5.5 1.8-7.9 1.8-3 4.6-5.1 8-5.9 6.9-1.7 14 2.5 15.7 9.4.4 1.5.5 3 .3 4.4h51.5c-.3-2.8.3-5.5 1.8-7.9 1.8-3 4.6-5.1 8-5.9 6.9-1.7 14 2.5 15.7 9.4.4 1.4.5 2.9.4 4.4z"/><path d="m15.7 57.3c-.4 0-.8-.1-1.1-.4l-4.2-4.2h-6.3c-.8 0-1.5-.7-1.5-1.5s.7-1.5 1.5-1.5h7.6l5 5c.6.6.6 1.5 0 2.1-.2.3-.6.5-1 .5zm37.8-10.3h3v34.1h-3z"/></g></svg>