<svg enable-background="new 0 0 96.9 107" viewBox="0 0 96.9 107" xmlns="http://www.w3.org/2000/svg"><path d="m85.8 107h-23.7c-6.1 0-11.1-5-11.1-11.1v-78.2c0-6.1 5-11.1 11.1-11.1h23.7c6.1 0 11.1 5 11.1 11.1v78.2c0 6.1-4.9 11.1-11.1 11.1zm-23.7-97.5c-4.5 0-8.1 3.6-8.1 8.1v78.2c0 4.5 3.6 8.1 8.1 8.1h23.7c4.5 0 8.1-3.6 8.1-8.1v-78.1c0-4.5-3.6-8.1-8.1-8.1h-23.7zm12 29.6-6.6-6.6c-.5-.5-.5-1.5 0-2.1s1.5-.6 2.1 0l4.5 4.5 4.2-4.2c.6-.6 1.5-.6 2.1 0s.6 1.5 0 2.1zm0 9-6.6-6.6c-.5-.5-.5-1.5 0-2.1s1.5-.6 2.1 0l4.5 4.5 4.2-4.2c.6-.6 1.5-.6 2.1 0s.6 1.5 0 2.1zm0 9-6.6-6.6c-.5-.5-.5-1.5 0-2.1s1.5-.6 2.1 0l4.5 4.5 4.2-4.2c.6-.6 1.5-.6 2.1 0s.6 1.5 0 2.1zm0 9-6.6-6.6c-.5-.5-.5-1.5 0-2.1s1.5-.6 2.1 0l4.5 4.5 4.2-4.2c.6-.6 1.5-.6 2.1 0s.6 1.5 0 2.1zm0 9-6.6-6.6c-.5-.5-.5-1.5 0-2.1s1.5-.6 2.1 0l4.5 4.5 4.2-4.2c.6-.6 1.5-.6 2.1 0s.6 1.5 0 2.1zm0-54-6.6-6.6c-.5-.5-.5-1.5 0-2.1s1.5-.6 2.1 0l4.5 4.5 4.2-4.2c.6-.6 1.5-.6 2.1 0s.6 1.5 0 2.1zm0 9-6.6-6.6c-.5-.5-.5-1.5 0-2.1s1.5-.6 2.1 0l4.5 4.5 4.2-4.2c.6-.6 1.5-.6 2.1 0s.6 1.5 0 2.1zm0 9-6.6-6.6c-.5-.5-.5-1.5 0-2.1s1.5-.6 2.1 0l4.5 4.5 4.2-4.2c.6-.6 1.5-.6 2.1 0s.6 1.5 0 2.1zm0 54-6.6-6.6c-.5-.5-.5-1.5 0-2.1s1.5-.6 2.1 0l4.5 4.5 4.2-4.2c.6-.6 1.5-.6 2.1 0s.6 1.5 0 2.1zm0 9-6.6-6.6c-.5-.5-.5-1.5 0-2.1s1.5-.6 2.1 0l4.5 4.5 4.2-4.2c.6-.6 1.5-.6 2.1 0s.6 1.5 0 2.1zm0-18-6.6-6.6c-.5-.5-.5-1.5 0-2.1s1.5-.6 2.1 0l4.5 4.5 4.2-4.2c.6-.6 1.5-.6 2.1 0s.6 1.5 0 2.1zm0 9-6.6-6.6c-.5-.5-.5-1.5 0-2.1s1.5-.6 2.1 0l4.5 4.5 4.2-4.2c.6-.6 1.5-.6 2.1 0s.6 1.5 0 2.1zm-21.6-32.8h-19.9c-7.1 0-13-5.8-13-13v-13c0-.8.7-1.5 1.5-1.5s1.5.7 1.5 1.5v13c0 5.5 4.5 10 10 10h19.9c.8 0 1.5.7 1.5 1.5s-.7 1.5-1.5 1.5zm-31.3-24.5c-8.1 0-14.6-6.6-14.6-14.6s6.5-14.6 14.6-14.6 14.6 6.6 14.6 14.6-6.5 14.6-14.6 14.6zm0-26.2c-6.4 0-11.6 5.2-11.6 11.6s5.2 11.6 11.6 11.6 11.6-5.2 11.6-11.6-5.2-11.6-11.6-11.6zm19.7 13.1c-.8 0-1.5-.7-1.5-1.5 0-10-8.2-18.2-18.2-18.2s-18.2 8.2-18.2 18.2c0 .8-.7 1.5-1.5 1.5s-1.5-.7-1.5-1.5c0-11.7 9.5-21.2 21.2-21.2s21.2 9.5 21.2 21.2c0 .8-.7 1.5-1.5 1.5zm-19.7 0c-.8 0-1.5-.7-1.5-1.5v-6.2c0-.8.7-1.5 1.5-1.5s1.5.7 1.5 1.5v6.2c0 .8-.7 1.5-1.5 1.5zm64.6 4.1c-.8 0-1.5-.7-1.5-1.5v-17.3c0-.8.7-1.5 1.5-1.5s1.5.7 1.5 1.5v17.2c0 .9-.7 1.6-1.5 1.6zm-23.7 80.2c-.8 0-1.5-.7-1.5-1.5v-17.2c0-.8.7-1.5 1.5-1.5s1.5.7 1.5 1.5v17.2c0 .8-.6 1.5-1.5 1.5z" fill="#344154"/></svg>