<svg enable-background="new 0 0 112.3 112.3" viewBox="0 0 112.3 112.3" xmlns="http://www.w3.org/2000/svg"><path d="m56.2 112.3c-15 0-29.1-5.8-39.7-16.5-10.7-10.5-16.5-24.6-16.5-39.6s5.8-29.1 16.5-39.7c10.6-10.7 24.7-16.5 39.7-16.5s29.1 5.8 39.7 16.5c21.9 21.9 21.9 57.5 0 79.4-10.6 10.6-24.7 16.4-39.7 16.4zm0-109.3c-14.2 0-27.6 5.5-37.6 15.6-10.1 10-15.6 23.4-15.6 37.6s5.5 27.6 15.6 37.6c10 10 23.4 15.6 37.6 15.6s27.6-5.5 37.6-15.6c20.7-20.7 20.7-54.5 0-75.2-10.1-10.1-23.4-15.6-37.6-15.6zm0 90.2c-9.5 0-18.9-3.6-26.2-10.8-14.4-14.5-14.4-38 0-52.4 7-7 16.3-10.8 26.2-10.8s19.1 3.8 26.1 10.8c14.4 14.4 14.4 37.9 0 52.3-7.2 7.2-16.7 10.9-26.1 10.9zm0-71c-9.1 0-17.6 3.5-24 10-13.3 13.3-13.3 34.8 0 48.1s34.8 13.3 48.1 0 13.3-34.8 0-48.1c-6.5-6.5-15.1-10-24.1-10zm0 44.2c-2.6 0-5.2-1-7.2-3-4-4-4-10.4 0-14.4s10.4-4 14.4 0 4 10.4 0 14.4c-2 2-4.6 3-7.2 3zm0-17.4c-1.8 0-3.7.7-5.1 2.1-2.8 2.8-2.8 7.4 0 10.2s7.4 2.8 10.2 0 2.8-7.4 0-10.2c-1.4-1.4-3.3-2.1-5.1-2.1zm5.4 43.7c-.8 0-1.5-.7-1.5-1.5v-14.8c0-9 7.3-16.2 16.2-16.2h14.8c.8 0 1.5.7 1.5 1.5s-.7 1.5-1.5 1.5h-14.7c-7.3 0-13.2 5.9-13.2 13.2v14.8c-.1.8-.8 1.5-1.6 1.5zm-10.9 0c-.8 0-1.5-.7-1.5-1.5v-14.8c0-7.3-5.9-13.2-13.2-13.2h-14.9c-.8 0-1.5-.7-1.5-1.5s.7-1.5 1.5-1.5h14.9c8.9 0 16.2 7.3 16.2 16.2v14.8c0 .8-.7 1.5-1.5 1.5zm-29.6-40.5c-.8 0-1.5-.7-1.5-1.5s.7-1.5 1.5-1.5h14.9c7.3 0 13.2-5.9 13.2-13.2v-14.9c0-.8.7-1.5 1.5-1.5s1.5.7 1.5 1.5v14.9c0 8.9-7.3 16.2-16.2 16.2zm70.1 0h-14.8c-8.9 0-16.2-7.3-16.2-16.2v-14.9c0-.8.7-1.5 1.5-1.5s1.5.7 1.5 1.5v14.9c0 7.3 6 13.2 13.2 13.2h14.8c.8 0 1.5.7 1.5 1.5s-.7 1.5-1.5 1.5zm10.2 4.9c-.8 0-1.5-.7-1.5-1.5-.3-23.8-19.9-43.1-43.6-43.2-.8 0-1.5-.7-1.5-1.5s.7-1.5 1.5-1.5c25.4.1 46.3 20.8 46.6 46.1 0 .9-.7 1.6-1.5 1.6z" fill="#344154"/></svg>