<svg enable-background="new 0 0 107.7 107.7" viewBox="0 0 107.7 107.7" xmlns="http://www.w3.org/2000/svg"><path d="m60.7 107.7c-25.9 0-47-21.1-47-47h3c0 24.3 19.7 44 44 44s44-19.7 44-44-19.7-44-44-44v-3c25.9 0 47 21.1 47 47s-21.1 47-47 47zm-34.4-45.5h-26.3v-1.5c0-33.5 27.2-60.7 60.7-60.7h1.5v26.3h-1.5c-18.9 0-34.3 15.4-34.3 34.3v1.6zm-23.3-3h20.4c.8-19.4 16.4-35 35.8-35.8v-20.4c-30.6.8-55.4 25.6-56.2 56.2zm57.7 27c-14.1 0-25.5-11.4-25.5-25.5s11.4-25.5 25.5-25.5 25.5 11.4 25.5 25.5-11.5 25.5-25.5 25.5zm0-48c-12.4 0-22.5 10.1-22.5 22.5s10.1 22.5 22.5 22.5 22.5-10.1 22.5-22.5-10.1-22.5-22.5-22.5zm0 32.5c-5.5 0-10-4.5-10-10s4.5-10 10-10 10 4.5 10 10-4.5 10-10 10zm0-17c-3.9 0-7 3.1-7 7s3.1 7 7 7 7-3.1 7-7-3.2-7-7-7zm0-6c-.8 0-1.5-.7-1.5-1.5v-3c0-.8.7-1.5 1.5-1.5s1.5.7 1.5 1.5v3c0 .8-.7 1.5-1.5 1.5zm-10.3 4.2c-.4 0-.8-.1-1.1-.4l-2.1-2.1c-.6-.6-.6-1.5 0-2.1s1.5-.6 2.1 0l2.1 2.1c.6.6.6 1.5 0 2.1-.2.3-.6.4-1 .4zm-4.2 10.3h-3c-.8 0-1.5-.7-1.5-1.5s.7-1.5 1.5-1.5h3c.8 0 1.5.7 1.5 1.5s-.7 1.5-1.5 1.5zm2.1 12.3c-.4 0-.8-.1-1.1-.4-.6-.6-.6-1.5 0-2.1l2.1-2.1c.6-.6 1.5-.6 2.1 0s.6 1.5 0 2.1l-2.1 2.1c-.2.3-.6.4-1 .4zm12.4 5.2c-.8 0-1.5-.7-1.5-1.5v-3c0-.8.7-1.5 1.5-1.5s1.5.7 1.5 1.5v3c0 .8-.7 1.5-1.5 1.5zm12.3-5.2c-.4 0-.8-.1-1.1-.4l-2-2.1c-.6-.6-.6-1.5 0-2.1s1.5-.6 2.1 0l2.1 2.1c.6.6.6 1.5 0 2.1-.3.3-.7.4-1.1.4zm5.2-12.3h-3c-.8 0-1.5-.7-1.5-1.5s.7-1.5 1.5-1.5h3c.8 0 1.5.7 1.5 1.5s-.7 1.5-1.5 1.5zm-7.3-10.3c-.4 0-.8-.1-1.1-.4-.6-.6-.6-1.5 0-2.1l2.1-2.1c.6-.6 1.5-.6 2.1 0s.6 1.5 0 2.1l-2 2.1c-.3.3-.7.4-1.1.4zm-56.02-1.92.77-2.9 2.9.77-.77 2.9zm4.32-11.55 1.52-2.6 2.6 1.5-1.5 2.6zm7.18-9.93 2.12-2.12 2.12 2.12-2.12 2.12zm9.49-7.74 2.6-1.5 1.5 2.6-2.6 1.5zm11.19-5.12 2.9-.77.77 2.9-2.9.77z" fill="#344154"/></svg>