<svg height="198.484" width="198.484" xmlns="http://www.w3.org/2000/svg"><path d="m146.2 88.34c10.13-8.68 16.1-20.22 17.3-33.36 2.78-30.53-11.6-52.55-12.22-53.47-.63-.94-1.68-1.5-2.8-1.5h-98.48c-1.12 0-2.17.56-2.8 1.5-.6.93-15 22.95-12.22 53.48 1.2 13.14 7.17 24.68 17.3 33.36 8.78 7.55 20.26 12.65 33.3 14.86v66.33c-11.86.58-22.64 1.9-30.63 3.8-10.9 2.54-15.96 5.9-15.96 10.5 0 5.1 6.17 8.67 19.46 11.3 10.9 2.14 25.3 3.33 40.63 3.35h.3c15.3-.02 29.72-1.2 40.63-3.36 13.28-2.62 19.47-6.2 19.47-11.28 0-4.62-5.08-7.97-15.97-10.52-7.98-1.88-18.77-3.2-30.64-3.8v-66.33c13.04-2.2 24.52-7.3 33.3-14.86zm-6.18 91.1c8.6 1.82 11.52 3.63 12.43 4.4-1.25 1.07-5.52 3.22-15.9 5.06-10.24 1.8-23.48 2.82-37.3 2.83-13.83 0-27.07-1.02-37.3-2.83-10.4-1.84-14.66-4-15.92-5.05.92-.78 3.84-2.6 12.44-4.4 7.28-1.54 16.8-2.64 27.13-3.16v4.67c0 1.87 1.5 3.38 3.37 3.38s3.38-1.5 3.38-3.38v-80.73c0-1.86-1.5-3.37-3.37-3.37-.05 0-.1 0-.14 0-21.2-2.98-44.7-15.7-47.14-42.5-2.16-23.77 7.2-42.35 10.22-47.62h94.64c3 5.27 12.38 23.85 10.22 47.62-2.44 26.8-25.94 39.52-47.12 42.5-.06 0-.1 0-.16 0-1.86 0-3.37 1.5-3.37 3.37v81.18c0 1.87 1.52 3.38 3.4 3.38 1.85 0 3.36-1.52 3.36-3.38v-5.13c10.3.5 19.84 1.6 27.12 3.15zm2.38-106.82c6.5-9.95 6.6-19.86 6.6-20.27 0-1.85-1.5-3.46-3.34-3.48h-7.46c-1.87-.03-3.4 1.48-3.4 3.34-.03 1.87 1.46 3.4 3.32 3.42l3.8.07c-1.33 8.36-8.1 29.4-42.68 30.14-34.58-.74-41.34-21.78-42.67-30.14l64.3-.07h.05c1.84 0 3.35-1.5 3.37-3.35 0-1.86-1.5-3.4-3.35-3.4l-68.1.1c-1.86 0-3.35 1.52-3.35 3.37 0 .42.07 10.32 6.57 20.27 5.8 8.87 23.52 19.52 43.02 19.52s37.5-10.65 43.3-19.52z"/></svg>