<svg xmlns="http://www.w3.org/2000/svg" width="104" height="91" viewBox="0 0 104 91"><defs><style>rect:not(.b){width: 5px; height: 5px; fill:#e9c46a;}</style></defs><g transform="translate(-52 -167)"><rect transform="translate(52 167)"/><rect transform="translate(65 167)"/><rect transform="translate(78 167)"/><rect transform="translate(91 167)"/><rect transform="translate(104 167)"/><rect transform="translate(117 167)"/><rect transform="translate(130 167)"/><rect transform="translate(143 167)"/><rect transform="translate(52 180)"/><rect transform="translate(65 180)"/><rect transform="translate(78 180)"/><rect transform="translate(91 180)"/><rect transform="translate(104 180)"/><rect transform="translate(117 180)"/><rect transform="translate(130 180)"/><rect transform="translate(143 180)"/><rect transform="translate(52 193)"/><rect transform="translate(65 193)"/><rect transform="translate(78 193)"/><rect transform="translate(91 193)"/><rect transform="translate(104 193)"/><rect transform="translate(117 193)"/><rect transform="translate(130 193)"/><rect transform="translate(143 193)"/><rect transform="translate(52 206)"/><rect transform="translate(65 206)"/><rect transform="translate(78 206)"/><rect transform="translate(91 206)"/><rect transform="translate(104 206)"/><rect transform="translate(117 206)"/><rect transform="translate(130 206)"/><rect transform="translate(143 206)"/><rect transform="translate(52 219)"/><rect transform="translate(65 219)"/><rect transform="translate(78 219)"/><rect transform="translate(91 219)"/><rect transform="translate(104 219)"/><rect transform="translate(117 219)"/><rect transform="translate(130 219)"/><rect transform="translate(143 219)"/><rect transform="translate(52 232)"/><rect transform="translate(65 232)"/><rect transform="translate(78 232)"/><rect transform="translate(91 232)"/><rect transform="translate(104 232)"/><rect transform="translate(117 232)"/><rect transform="translate(130 232)"/><rect transform="translate(143 232)"/><rect transform="translate(52 245)"/><rect transform="translate(65 245)"/><rect transform="translate(78 245)"/><rect transform="translate(91 245)"/><rect transform="translate(104 245)"/><rect transform="translate(117 245)"/><rect transform="translate(130 245)"/><rect transform="translate(143 245)"/><rect class="b" width="104" height="91" fill="none" transform="translate(52 167)"/></g></svg>