<svg xmlns="http://www.w3.org/2000/svg" height="60" viewBox="0 0 40.193 40.193"><path fill="#EEE" d="M13.33 35.88c1.6.52 3.26.8 4.93.87.95.15 1.92.24 2.92.24.3 0 .6-.02.9-.03.65.18 1.3.37 1.96.55.95.27 1.93.42 2.92.47a11.53 11.53 0 004.68.1 13.2 13.2 0 003.83-1.51 10.42 10.42 0 003.9-4.46 9.3 9.3 0 00-.12-7.98c-.34-.69-.6-1.76-.54-2.47a14.55 14.55 0 00-1.3-7.55 16.45 16.45 0 00-5.38-6.4c-.09-.25.48.03-.78-1.18a16.6 16.6 0 00-6.01-3.09c-2.25-.57-4.5-.74-6.8-.65h-.07l-1.01.14-.27.04h-.04a19 19 0 01-2.26-.6l-.08-.03c-1.02-.21-2-.34-3.01-.4-1.04-.06-2.05.06-3.03.26-.87-.1-2.86.28-4.6 1.44A9.55 9.55 0 001.8 5.71C1.22 6.47.85 7.26.67 7.85c.07.14.53-.77 1.14-1.53C2.41 5.54 3.16 4.9 3.2 5c-.44.58-1.05 1.3-1.62 2.21a10.6 10.6 0 00-1.34 3.13 8.35 8.35 0 00-.14 3.14c0 .03 0 .07.01.11 0 .03.02.06.02.09.08.6.22 1.19.43 1.75.23.65.51 1.28.78 1.9.06.16.12.31.17.46l.03.1c0 .01 0 0 0 .05 0 .01-.02.15-.03.22l-.13 1.02v.04c-.01 1.8.2 3.6.68 5.36a15.43 15.43 0 002.42 4.93c2.17 3 5.35 5.21 8.86 6.37zm10.72 1.32c-.35-.1-.7-.2-1.04-.3.08 0 .17 0 .26-.01.25-.03.99.26 1.92.58-.39-.07-.77-.16-1.14-.27zM18.45 4.1h.02-.01c1.27-.02 2.56.05 3.84.22-.37-.02-.74-.05-1.12-.05a24.35 24.35 0 00-2.09.11c-.24.03-.67-.08-1.13-.23zm-5.25 8.6a6.92 6.92 0 013.16-2c1.3-.45 2.89-.68 4.77-.68a12.78 12.78 0 013.8.46 9.48 9.48 0 012.67 1.22 6.64 6.64 0 011.56 1.62c.32.54.48 1.1.48 1.67 0 .5-.2.93-.62 1.32-.44.42-.95.62-1.57.62-.56-.01-1-.14-1.32-.39a4.15 4.15 0 01-.97-1.14 5.13 5.13 0 00-1.52-1.75c-.54-.4-1.5-.6-2.86-.6a5.92 5.92 0 00-2.97.64c-.72.48-1.08 1.02-1.08 1.62 0 .42.12.75.34 1 .28.29.64.53 1.07.71a9.87 9.87 0 002.26.68l1.4.32c1.29.28 2.5.57 3.65.85 1.14.37 2.07.78 2.78 1.24a5.25 5.25 0 011.8 1.78c.42.71.63 1.6.63 2.64 0 1.33-.37 2.49-1.12 3.47-.7.96-1.8 1.76-3.25 2.41a14.2 14.2 0 01-5.1.85c-2.35-.02-4.3-.42-5.85-1.22a7.04 7.04 0 01-2.6-2.25A4.72 4.72 0 0111.7 25c-.01-.53.2-1 .62-1.41.42-.36.96-.54 1.61-.54a2 2 0 011.32.45c.4.3.7.74.93 1.33.25.61.58 1.18.98 1.7.32.45.8.83 1.45 1.13.53.27 1.36.4 2.51.4a5.76 5.76 0 003.42-.85c.9-.57 1.34-1.31 1.34-2.24 0-.33-.06-.63-.18-.9a3.78 3.78 0 00-2.37-1.75c-.4-.12-.85-.23-1.35-.33-.5-.1-1.08-.23-1.74-.39a24 24 0 01-4.3-1.18 6.3 6.3 0 01-2.79-1.85 4.21 4.21 0 01-1.03-2.94 4.3 4.3 0 011.07-2.93zM1.78 19.91c.07 0 .15.72.22.55.04-.43.07-.85.1-1.25l-.01.05c.04-.29.08-.57.1-.81l.03-.35v-.2a.92.92 0 00-.06-.24c-.16-.38-.3-.49-.33-.38-.28-1.07-.66-2.28-.71-3.47-.07-1.2.15-2.4.45-3.45.02-.36-.34.55-.24-.03.14-.3.31-.62.49-.94l.27-.47c.1-.17.22-.39.32-.52a12.7 12.7 0 012.05-2.44l.58-.54c.35-.31.58-.53.57-.63a10.8 10.8 0 00-3 2.48 9.4 9.4 0 00-1.86 3.6 8.93 8.93 0 00-.25 1.91c0-.2 0-.4.01-.6a9.53 9.53 0 013.27-6.52 10.7 10.7 0 014.96-2.44c.91-.18 1.89-.27 2.8-.2.1 0 .22.03.32.04A11 11 0 005.3 5.87 9.65 9.65 0 003.01 9a9.03 9.03 0 00-.4 6.51c.5 1.43 1.23 2.68 1.18 3-.03.2-.05.4-.07.6a15.56 15.56 0 001.3 7.74 16.4 16.4 0 003.76 5.29 18 18 0 006.95 4.03 17.54 17.54 0 01-11.05-6.93 15.1 15.1 0 01-2.3-4.8 19.47 19.47 0 01-.6-4.53z"/></svg>