<svg enable-background="new 0 0 112.2 112.2" viewBox="0 0 112.2 112.2" xmlns="http://www.w3.org/2000/svg"><path d="m95.3 33.8c-4.5 0-8.8-1.8-12-5s-5-7.4-5-12c0-4.5 1.8-8.8 5-12s7.4-5 12-5 8.8 1.8 12 5 5 7.4 5 12c0 4.5-1.8 8.8-5 12-3.3 3.3-7.5 5-12 5zm0-30.8c-3.7 0-7.2 1.4-9.8 4.1-2.6 2.6-4.1 6.1-4.1 9.8s1.4 7.2 4.1 9.8c2.6 2.6 6.1 4.1 9.8 4.1s7.2-1.4 9.8-4.1c2.6-2.6 4.1-6.1 4.1-9.8s-1.4-7.2-4.1-9.8c-2.6-2.7-6.1-4.1-9.8-4.1zm0 21.8c-2.1 0-4.1-.8-5.6-2.3s-2.3-3.5-2.3-5.6.8-4.1 2.3-5.6 3.5-2.3 5.6-2.3 4.1.8 5.6 2.3 2.3 3.5 2.3 5.6-.8 4.1-2.3 5.6-3.5 2.3-5.6 2.3zm0-12.8c-1.3 0-2.5.5-3.5 1.4-.9.9-1.4 2.2-1.4 3.5s.5 2.5 1.4 3.5c.9.9 2.2 1.4 3.5 1.4s2.5-.5 3.5-1.4c.9-.9 1.4-2.2 1.4-3.5s-.5-2.5-1.4-3.5c-1-.9-2.2-1.4-3.5-1.4zm-63 75.8c-2.1 0-4.1-.8-5.6-2.3s-2.3-3.5-2.3-5.6.8-4.1 2.3-5.6 3.5-2.3 5.6-2.3 4.1.8 5.6 2.3 2.3 3.5 2.3 5.6-.8 4.1-2.3 5.6-3.5 2.3-5.6 2.3zm0-12.8c-1.3 0-2.5.5-3.5 1.4-.9.9-1.4 2.2-1.4 3.5s.5 2.5 1.4 3.5c.9.9 2.2 1.4 3.5 1.4s2.5-.5 3.5-1.4c.9-.9 1.4-2.2 1.4-3.5s-.5-2.5-1.4-3.5c-1-.9-2.2-1.4-3.5-1.4zm0 37.2c-8.6 0-16.7-3.4-22.8-9.5-12.6-12.6-12.6-33.1 0-45.6 12.6-12.6 33.1-12.6 45.6 0 12.6 12.6 12.6 33.1 0 45.6-6.1 6.1-14.2 9.5-22.8 9.5zm-20.7-53c-11.4 11.4-11.4 30 0 41.4 5.5 5.5 12.9 8.6 20.7 8.6s15.2-3 20.7-8.6c11.4-11.4 11.4-30 0-41.4s-30-11.4-41.4 0zm2.87-6.17 71.43-50.18 1.73 2.45-71.43 50.18zm40.25 45.65 51.92-73.76 2.45 1.72-51.93 73.77zm-19.52 2.92c-1.7 0-3.2-1.1-3.6-2.8l-.5-2c-2.1-.1-4.2-.7-6.1-1.6l-1.5 1.5c-1.5 1.5-3.8 1.5-5.3 0l-2.5-2.5c-1.5-1.5-1.5-3.8 0-5.3l1.5-1.5c-.9-1.9-1.5-4-1.6-6.1l-2-.5c-2-.5-3.2-2.6-2.7-4.6l.9-3.4c.5-2 2.6-3.2 4.5-2.7l2.1.6c1.2-1.8 2.7-3.3 4.5-4.5l-.5-2c-.5-2 .7-4 2.6-4.6l3.4-.9c2-.5 4.1.7 4.6 2.6l.5 2c2.1.1 4.2.7 6.1 1.6l1.5-1.5c1.5-1.5 3.8-1.5 5.3 0l2.5 2.5c1.5 1.5 1.5 3.8 0 5.3l-1.5 1.5c.9 1.9 1.5 4 1.6 6.1l2 .5c2 .5 3.2 2.6 2.6 4.6l-.9 3.4c-.5 2-2.6 3.2-4.6 2.7l-2-.5c-1.2 1.8-2.7 3.3-4.4 4.5l.5 2c.5 2-.7 4-2.6 4.6l-3.5 1c-.3-.1-.6 0-.9 0zm-1.9-7.8 1.1 4.2c.1.4.5.7.9.6l3.4-1c.4-.1.7-.5.6-.9l-1.1-4.2 1-.6c2.1-1.2 3.8-2.9 5-5l.6-1 4.2 1.1c.4.1.8-.1.9-.5l.9-3.4c.1-.4-.1-.8-.5-.9l-4.2-1.2v-1.2c0-2.4-.6-4.7-1.8-6.8l-.6-1 3.1-3.1c.3-.3.3-.8 0-1.1l-2.5-2.5c-.3-.3-.8-.3-1.1 0l-3.1 3.1-1-.6c-2.1-1.2-4.4-1.8-6.8-1.8h-1.2l-1.1-4.2c-.1-.4-.5-.6-.9-.5l-3.4.9c-.4.1-.6.5-.5.9l1.1 4.2-1 .6c-2.1 1.2-3.8 2.9-5 5l-.6 1-4.2-1.1c-.4-.1-.8.1-.9.5l-.9 3.4c-.1.4.1.8.5.9l4.2 1.1v1.3c0 2.4.6 4.7 1.8 6.8l.6 1-3.1 3.1c-.3.3-.3.8 0 1.1l2.5 2.5c.3.3.8.3 1.1 0l3.1-3.1 1 .6c2.1 1.2 4.4 1.8 6.8 1.8z" fill="#344154"/></svg>