<svg enable-background="new 0 0 83.8 125.8" viewBox="0 0 83.8 125.8" xmlns="http://www.w3.org/2000/svg"><path d="m50 8.4h-3v-.4c0-2.8-2.3-5-5-5s-5 2.2-5 5v.4h-3v-.4c0-4.4 3.6-8 8-8s8 3.6 8 8zm-18.6 19.5h-.9c-2.1 0-3.9-1.7-3.9-3.9v-13.8c0-1.8 1.5-3.3 3.3-3.3h23.1c1.8 0 3.3 1.5 3.3 3.3v13.8c-.1 2.2-1.8 3.9-3.9 3.8-1.9 0-3.5-1.4-3.8-3.3v-.4c-.5-3.3-3.3-5.7-6.7-5.7s-6.2 2.5-6.7 5.8v.4c-.3 1.8-1.9 3.3-3.8 3.3zm-1.5-18c-.2 0-.3.1-.3.3v13.8c0 .5.4.9.9.9h.9c.4 0 .7-.3.8-.6v-.3c.6-4.8 4.8-8.5 9.7-8.5 4.9-.1 9 3.6 9.7 8.4v.4c.1.4.4.6.8.6.5 0 .9-.4.9-.8v-13.7c0-.2-.1-.3-.3-.3h-23.1zm-22 116c-4.3 0-7.9-3.5-7.9-7.9v-97.7c0-4.3 3.5-7.9 7.9-7.9h20.2v3h-20.2c-2.7 0-4.9 2.2-4.9 4.9v97.7c0 2.7 2.2 4.9 4.9 4.9h68.1c2.7 0 4.8-2.2 4.8-4.9v-97.7c0-2.7-2.2-4.9-4.8-4.9h-21.2v-3h21.2c4.3 0 7.8 3.6 7.8 7.9v97.7c0 4.3-3.5 7.8-7.8 7.9zm48.6-9.5h-47.1v-93h3v90h42.9l16.1-16.1v-73.9h3v75.1zm-29.3-44-4.7-4.7 2.1-2.1 2.6 2.5 6.4-6.8 2.2 2.1zm-4.28-25.2 8.92-8.92 2.12 2.12-8.92 8.9zm-.07-6.87 2.12-2.12 8.92 8.92-2.13 2.12zm.01 52.77 8.9-8.9 2.13 2.13-8.92 8.9zm0-6.77 2.12-2.12 8.9 8.9-2.1 2.13zm16.34-39.63h25.8v3h-25.8zm0 22.6h25.8v3h-25.8z" fill="#344154"/></svg>