<svg enable-background="new 0 0 108.9 106.7" viewBox="0 0 108.9 106.7" xmlns="http://www.w3.org/2000/svg"><path d="m34.1 50.2h-17.4c-.8 0-1.5-.7-1.5-1.5s.7-1.5 1.5-1.5h14.4v-1.3c0-2-1.5-3.8-3.6-4.1l-10.4-1.5c-.8-.1-1.4-.9-1.3-1.7s.9-1.4 1.7-1.3l10.5 1.6c3.5.5 6.1 3.6 6.1 7.1zm58.7 27h-3.7c-4.5 0-8.1-3.7-8.1-8.2v-6.2h-53.1v6.2c0 4.5-3.7 8.2-8.1 8.2h-3.8c-4.5 0-8.1-3.7-8.1-8.2v-33.7l-5.9-2.1c-1.2-.5-2-1.6-2-2.9v-5.4c0-1.7 1.4-3.1 3.1-3.1h7.7c1.6 0 3.2-.9 4-2.3l7.7-14.1c1.7-3.4 5.1-5.4 8.8-5.4h46.2c3.7 0 7.1 2 8.9 5.3l7.7 14.1c.8 1.5 2.3 2.3 4 2.3h7.7c1.7 0 3.1 1.4 3.1 3.1v5.4c0 1.3-.8 2.5-2 2.9l-5.8 2.1v33.8c-.1 4.6-3.8 8.2-8.3 8.2zm-89.7-52.5c-.1 0-.1.1-.1.1v5.4s0 .1.1.1l7.8 2.8v35.9c0 2.8 2.3 5.1 5.1 5.2h3.7c2.8 0 5.1-2.3 5.1-5.2v-9.2h59.2v9.2c0 2.8 2.3 5.2 5.1 5.2h3.7c2.8 0 5.2-2.3 5.2-5.2v-35.8l7.8-2.8s.1-.1.1-.1v-5.4c0-.1-.1-.1-.1-.1h-7.7c-2.7 0-5.3-1.5-6.6-3.9l-7.7-14.2c-1.3-2.3-3.6-3.7-6.2-3.7h-46.3c-2.6 0-5 1.4-6.2 3.7l-7.7 14.1c-1.3 2.4-3.8 3.9-6.6 3.9zm84.7.1h-66.7l8.4-15.4c.7-1.2 2-2 3.4-2h43.1c1.4 0 2.7.7 3.4 2zm-61.7-3h56.6l-6-10.9c-.2-.3-.5-.4-.8-.4h-43.2c-.3 0-.6.2-.7.4zm66.1 28.4h-17.4v-4.3c0-3.5 2.6-6.6 6.1-7.1l10.4-1.5c.8-.1 1.6.4 1.7 1.3.1.8-.4 1.6-1.3 1.7l-10.4 1.5c-2 .3-3.6 2.1-3.6 4.1v1.3h14.4c.8 0 1.5.7 1.5 1.5s-.6 1.5-1.4 1.5zm-26.2.3h-23.2c-.8 0-1.5-.7-1.5-1.5s.7-1.5 1.5-1.5h23.2c.8 0 1.5.7 1.5 1.5s-.6 1.5-1.5 1.5zm.1 0c-.1 0-.1 0-.2 0-.8-.1-1.4-.8-1.3-1.7l.9-7.5h-22l.9 7.5c.1.8-.5 1.6-1.3 1.7s-1.6-.5-1.7-1.3l-1.3-10.9h28.7l-1.3 10.9c0 .7-.7 1.3-1.4 1.3zm-39.7 12.4h-6.9c-.8 0-1.5-.7-1.5-1.5s.7-1.5 1.5-1.5h6.9c.8 0 1.5.7 1.5 1.5s-.7 1.5-1.5 1.5zm65 0h-9c-.8 0-1.5-.7-1.5-1.5s.7-1.5 1.5-1.5h9c.8 0 1.5.7 1.5 1.5s-.6 1.5-1.5 1.5zm-65 0h-8.9c-.8 0-1.5-.7-1.5-1.5s.7-1.5 1.5-1.5h8.9c.8 0 1.5.7 1.5 1.5s-.7 1.5-1.5 1.5zm81 43.8c-.8 0-1.5-.7-1.5-1.5v-28h-26.3c-.6 0-1.1.2-1.5.6s-.6.9-.6 1.4c0 1.1.9 2 2 2h19.5c.8 0 1.5.7 1.5 1.5s-.7 1.5-1.5 1.5h-19.5c-2.8 0-5-2.2-5-5s2.3-5 5-5h.1 29.3v30.9c0 .9-.7 1.6-1.5 1.6zm-105.9 0c-.8 0-1.5-.7-1.5-1.5v-31h29.3c2.8 0 5 2.2 5 5s-2.2 5-5 5h-19.4c-.8 0-1.5-.7-1.5-1.5s.7-1.5 1.5-1.5h19.5c1.1 0 2-.9 2-2s-.9-2-2-2h-26.4v27.9c0 .9-.7 1.6-1.5 1.6z" fill="#344154"/></svg>