<?xml version="1.0"?>
<svg xmlns="http://www.w3.org/2000/svg" id="Calque_1" data-name="Calque 1" viewBox="0 0 460.91 157.34">
  <defs>
    <style>.cls-1{fill:#ce0033;}</style>
  </defs>
  <title>SIMPLON_CO_LOGOTYPE_MARQUE_PROPRIETAIRE_ROUGE_NOIR_RVB</title>
  <path d="M200.25,152.25a3.4,3.4,0,0,0-4.59,0,2.85,2.85,0,0,0-.91,2.06,2.81,2.81,0,0,0,.91,2.05,3.4,3.4,0,0,0,4.59,0,2.79,2.79,0,0,0,.92-2.05,2.82,2.82,0,0,0-.92-2.06Z"/>
  <path d="M227.45,149.44a12.54,12.54,0,0,1-8.3,3.57,11,11,0,0,1-8-3.38,11.86,11.86,0,0,1,0-16.6,11,11,0,0,1,8-3.39,12.54,12.54,0,0,1,8.3,3.57l.33.29,3.4-3-.41-.38a16.93,16.93,0,0,0-11.62-4.81A15.69,15.69,0,0,0,207.61,130a15.87,15.87,0,0,0,0,22.59,15.78,15.78,0,0,0,11.54,4.71,17,17,0,0,0,11.62-4.79l.41-.38-3.4-3Z"/>
  <path d="M261.28,130a16.45,16.45,0,0,0-23.11,0,15.9,15.9,0,0,0,0,22.63,16.45,16.45,0,0,0,23.11,0,15.9,15.9,0,0,0,0-22.63Zm-11.57,23a11.07,11.07,0,0,1-8-3.4,11.88,11.88,0,0,1,0-16.64,11.21,11.21,0,0,1,16.1,0,11.89,11.89,0,0,1,0,16.64A11.1,11.1,0,0,1,249.71,153Z"/>
  <path d="M27.71,42.67a37.63,37.63,0,0,1-15.13-8.82A18.78,18.78,0,0,1,6.87,20.06,19.15,19.15,0,0,1,12.79,6.17a19.94,19.94,0,0,1,14.74-6A20.4,20.4,0,0,1,42.42,6.32a21.31,21.31,0,0,1,5,8.87L37.62,19c-1.21-3.28-2.31-5.41-3.28-6.38a9.13,9.13,0,0,0-13.52-.09,10.17,10.17,0,0,0-2.95,7.51,10.6,10.6,0,0,0,3,7.65,31.72,31.72,0,0,0,8.63,5.6A43.19,43.19,0,0,1,47,43.76a26.34,26.34,0,0,1,.09,37.9,26.66,26.66,0,0,1-19.6,8A26.67,26.67,0,0,1,7.78,81.44,27.76,27.76,0,0,1,0,65.21l10.58-3.82q1,9.54,5.41,13.91a15.74,15.74,0,0,0,11.54,4.87,16.11,16.11,0,0,0,11.76-5,16.84,16.84,0,0,0,5-12.43,16.73,16.73,0,0,0-4.93-12.34A36.3,36.3,0,0,0,27.71,42.67Z"/>
  <path d="M76.35,1.21V88.67h-11V1.21Z"/>
  <path d="M169.34,1.21V88.67h-11V17.56L129.59,55.31,100.78,17.56V88.67h-11V1.21h11.73L129.59,38l28-36.78Z"/>
  <path d="M246.6,88.67V1.21h11V79.13H289v9.54Z"/>
  <path class="cls-1" d="M365.64,13.25a43.09,43.09,0,0,1,13.22,31.54,43.14,43.14,0,0,1-13.22,31.64,46,46,0,0,1-64.54,0,43.14,43.14,0,0,1-13.22-31.64A43.09,43.09,0,0,1,301.1,13.25a45.92,45.92,0,0,1,64.54,0ZM333.34,9.6a33,33,0,0,0-24.19,10.24,34,34,0,0,0-10.21,25,34,34,0,0,0,10.21,25,33.83,33.83,0,0,0,48.44,0,34,34,0,0,0,10.21-25,34,34,0,0,0-10.21-24.95A33.11,33.11,0,0,0,333.34,9.6Z"/>
  <path d="M400.07,1.21l49.84,69.9V1.21h11V88.67H448.76L400.19,20.54V88.67h-11V1.21Z"/>
  <path class="cls-1" d="M339.41,27.41H326.06V40.76h13.35Zm0,23.82H326.06V64.58h13.35Z"/>
  <path d="M228,10.72a33,33,0,0,0-19.65-9.53H182.31V88.65h11V64.38h11.62a31.17,31.17,0,0,0,23-9.4,30.55,30.55,0,0,0,9.33-22.26A30.05,30.05,0,0,0,228,10.72ZM219.8,48a20.3,20.3,0,0,1-14.64,6.11H193.31V11.5h11.85a20.34,20.34,0,0,1,14.64,6.07,20.25,20.25,0,0,1,6.25,15.15A20.42,20.42,0,0,1,219.8,48Z"/>
</svg>
