<svg viewBox="0 0 125.45 70.05" xmlns="http://www.w3.org/2000/svg"><path d="m122 62.1c3.15-.54 3.46-8.05 3.43-12.48 0-2.47.57-3.3-2.23-3.68-.88-.1-1.76 0-1.78-.26a124.43 124.43 0 0 0 -2.47-19.68c-1.7-7.77-8.6-16.5-11.65-21.46-1.66-2.7.32-4-.87-4.1-12.18-.97-30.53.09-43.66-.34a40.7 40.7 0 0 0 -14.7 2.07 27.57 27.57 0 0 0 -6.25 2.9c-10.93 6.93-22.9 17.7-28.3 21.4-2.63 1.82-9 8.13-10.3 10.94-2 4.42-.38 9.16-.5 9.42-1.52.17-1.89 1.55-1.86 3.47 0 3-.24 5.17.6 8.16.62 2.2-3 3.48-.64 3.56l4.35.14c2.1-.4 2.75-.28 2.57-3.1-.06-1-.08-2-.08-3a18.16 18.16 0 1 1 36.32 0c0 1.4 0 2.77-.1 4.08-.3 4.47-1.7 4 2.6 4.23l32.34-.08c3.12-.4 4 0 3.52-4.25a39.5 39.5 0 0 1 -.16-4 18.16 18.16 0 1 1 36.32 0v2.64c-.12 3.43-.87 4.13 3.53 3.38zm-81.14-35.42a14.6 14.6 0 0 0 .66-3.16c.14-2.42-5.17-2.6-7.92-2.42 5.33-5 9.72-12.92 16.8-15.37 5.82-2 26.55-1.32 32.8-1.45 1.1 0 1.7 1.1 2.1 1.94 2.2 4.67 4.4 12.7 4 17-.18 2-1.2 2.4-3.27 2.42-8.12.07-45.3 1.46-45.2 1.07zm59.44 15.42a14 14 0 1 1 -14 14 14 14 0 0 1 14-14zm-74.5 0a14 14 0 1 1 -14 14 14 14 0 0 1 14-14zm70.2-37.9c-1.3.07-3.55-.1-4.4 0-1.65.23-.85 1-.27 2.9 1.87 6.06 3.36 13.24 5.22 15.65 1.73 2.24 2.3 1.62 7.26 2 .84.06 5.2 0 6.53-.1 2.7-.26 3-.83 2.07-3.57-2-5.65-9.35-16.87-16.4-16.9z" fill="#2e333d" fill-rule="evenodd"/></svg>