<svg viewBox="0 0 186.8 60.15" xmlns="http://www.w3.org/2000/svg"><path d="m150.6 32.22a14 14 0 1 1 -14 14 14 14 0 0 1 14-14zm-13-24.76-.94 12.18c2.74-.14 5.38-.27 7.83-.35a2 2 0 0 0 1.73-.95 20.52 20.52 0 0 0 1.7-3.52c.22-.67.17-1-.4-1.77-.78-1.05-5.9-3.73-9.94-5.6zm-3 12.3 1.14-13.14a26.3 26.3 0 0 0 -2.74-1.08 36 36 0 0 0 -9.63-1.54l-10.68-.13a1.77 1.77 0 0 0 -1.5.7c-.86 2.22-1.06 5.26-2.2 14.43-.3 2.5-.14 1.83 2.64 1.8 6.85-.1 15.17-.62 22.94-1zm37.62 32.6c2.83-.2 6-.47 8.58-.9 2-.35 3.55-.8 4.2-1.4 2.04-1.9 1.8-7.84 1.77-10.9 0-.73-1.9-.73-1.93-1.5-.27-4.7-.6-9.9-1.12-14.74-.62-5.8-12.5-6-19.78-8.32-5.18-1.64-9.44-5.15-16.1-8.1-7.32-3.23-13.7-6.2-21.4-6.2-12.53 0-31.14-1.5-42.8 2.2-11.15 3.56-21.32 10-31.9 15a306.25 306.25 0 0 0 -40 7.2c-4.2 1-6 3-7.3 5.47a64.34 64.34 0 0 0 -2.74 6.83c-1 .07-1.06-.2-1.38.4a7 7 0 0 0 -.23 2.52 24.65 24.65 0 0 0 .45 7.48c.57 2 1.1 3 2.08 3.73a4.8 4.8 0 0 0 2.73 1l4.75.16c2.85-.53 2.3-.9 2.13-4.5q0-.82 0-1.65a18.16 18.16 0 1 1 36.32 0c0 1 0 2-.1 3-.42 6.08-1 5 4.53 5.3l76.2-.07c4.04-.56 3.8 0 3.4-5.14-.1-1-.12-2-.12-3.08a18.16 18.16 0 1 1 36.32 0c0 .86 0 1.72-.1 2.56-.32 4.17.85 3.83 3.57 3.62zm-100.9-30.14a14.56 14.56 0 0 0 .68-3.15c.15-2.42-4.28-2.6-7-2.42a81.9 81.9 0 0 1 20.26-10.65 62.93 62.93 0 0 1 13.92-2l6-.13c1.1 0 1.23.5.9 1.35-1.06 2.87-1.5 9.08-2.14 13.25-.3 2-.8 2.5-2.84 2.5-8.1.03-29.88 1.63-29.78 1.24zm-41 10a14 14 0 1 1 -14 14 14 14 0 0 1 14-14z" fill="#2e333d" fill-rule="evenodd"/></svg>