<svg viewBox="0 0 171.67 80.82" xmlns="http://www.w3.org/2000/svg"><path d="m162.62 61.1c.08-2.3.07-3.17 1-3.17h6a2.1 2.1 0 0 0 2.07-2.1v-13.2c0-3.6-1-3.52-3.87-3.64l-101.4.12c-1.4 0-2.63-.28-2.63 1.45v6.5c0 .77-.94.9-2 .87-.78 0-1.7-.12-1.7-.9v-42.38c-.01-2.83-.53-4.65-3.69-4.65h-29c-7 0-9.2 2.57-11.7 6.93-8.03 14.2-13.06 24.65-13.3 41.2l.08 5.06a6.3 6.3 0 0 0 -1.42.26c-.92.3-1 .62-1 1.52-.06.73-.06 1.63-.06 2.03 0 1.77-.07 5.84 1.22 6.8a4.75 4.75 0 0 0 2.53.86l7 .14c3 .06 1.66.6 2.73-2.27a16.4 16.4 0 0 1 31 .68c1.32 4.1-.44 3.4 4.6 3.4h65.92c.82 0 2.83.13 3.28-.47a22.1 22.1 0 0 0 1.33-3.54 16.4 16.4 0 0 1 31.25 1.46c.65 2.47 1 2.43 3.34 2.42 3.24 0 5.2-.06 5.5-.1 2.52-.34 2.93-1 3-2.57 0-.67-.07-1.88 0-2.73zm-143.78-34c-.9 0 .46-.8.52-2.5.1-2.86-3.4-3.07-5.6-2.86 1.24-4.74 3.64-8.74 6.14-13.2s4.92-4.9 8.43-4.9h18.1a1.65 1.65 0 0 1 1.82 1.58v18.93c0 2.4-.63 3-2.26 3zm116.16 28.65a12.53 12.53 0 1 1 -12.53 12.53 12.53 12.53 0 0 1 12.53-12.53zm-106.13 0a12.53 12.53 0 1 1 -12.52 12.55 12.53 12.53 0 0 1 12.53-12.54z" fill="#2e333d" fill-rule="evenodd"/></svg>