<svg viewBox="0 0 1727.69 49.43" xmlns="http://www.w3.org/2000/svg"><path d="m1718.48 17.4 6.62-1.15c1.87-.32 2.9-1.16 2.5-2l-.6-1.25c-.4-.77-1.9-1.36-3.73-1.48l-11.78-.72a11.7 11.7 0 0 0 5.3-3.28c.47-.55.3-1.18-.52-1.68a7.3 7.3 0 0 0 -3.53-.83l-25.74-.33c-18.43-.24-36.3-.48-54.15-.86q-34.24-.73-68.5-1.6-28-.7-56-1.35l-2.35-.09c-6-.17-12.74-.37-16.72 1.2-9.36 3.73-21.12 3.8-33.9 3.86-4.1 0-8.17.07-12.26.13-22 .3-42.78.57-63-4.08-8.6-2-19.63-1.94-29.37-1.9h-3.32c-11.34 0-22.67.2-34 .36-13.3.2-27 .4-40.5.34-11-.05-24.44-.12-32.13 5.28-22.38-3.9-43.86-3-64.67-2.12l-9 .36c-11.77.43-14.28 3.44-14.32 5.88a4.63 4.63 0 0 0 .07.75h-1a63 63 0 0 1 -8.37-.23c-23-3.1-46-2.52-68.18-2-7.86.2-15.7.4-23.58.43l-6.33.06c-6.8.1-13.27.16-19.57-.23-24-1.5-45.35-.9-65.23 1.82-4.9.66-10.95.56-16.82.47h-2.06c-10.12-.15-20.24-.35-30.35-.55-10.4-.2-20.78-.42-31.16-.56a44 44 0 0 0 -7.32.65c-1.12.18-2.23.35-3.37.43l-7.7.57c-8.58.64-17.47 1.3-26.2 1.7-10.54.45-21.1.83-31.67 1.2-15.3.55-31.12 1.1-46.63 1.93-14.86.8-16.87 2.23-17.43 7.23l-6.12.2c-7.73.3-15 .56-22.13.13a34.6 34.6 0 0 1 -7.88-1.93 52.2 52.2 0 0 0 -11-2.6l-3.74-.38c-12.22-1.3-27.44-2.93-43.68 2.68-1.26.44-1.82 1.16-1.38 1.84s1.72 1.22 3.36 1.37l1 .08c-36.08 1.27-73.12 2.76-110.92 5.38-1.6.1-2.9.6-3.34 1.24s0 1.37 1.2 1.85l4.4 1.8a40.82 40.82 0 0 1 -8.64-.35c-18.37-4.46-37.57-4.76-56.12-5a17.68 17.68 0 0 1 -3.28-1l2.7-.63c1.65-.38 2.44-1.17 2-2s-2-1.38-3.94-1.45c-29.9-1.15-59.65-1.3-88.45-1.45l-22.23-.12c-14.12-.07-28.72-.14-42.6-1.13-18.83-1.35-37.9-3.2-56.34-5q-12.12-1.17-24.25-2.3c-.72-.06-1.45-.1-2.65-.12q-15.68-.52-31.36-1.08c-23.66-.83-48.13-1.68-72.23-2.28-22-.54-44.35-.82-66-1.1q-14.5-.17-29-.38c-1.9 0-3.57.46-4.14 1.2s.06 1.6 1.6 2.08a131.3 131.3 0 0 0 23.02 4.76c-2.5 0-5-.1-7.47-.2-30.85-1.5-35.85-1.16-48.62 3.46-1.33.48-1.8 1.26-1.2 2s2.16 1.2 3.94 1.25l18.8.5c22.25.55 43.37 1.1 64.5 1.54a30.36 30.36 0 0 0 7.27-.9l.27-.06c13.44 3.2 31.26 6.44 52.5 5a54.72 54.72 0 0 1 9.58.65h-.08c-4.36 1.23-7.82 2.2-10.8 2.3-3.43.12-7.55-.6-11.92-1.38-2.2-.4-4.42-.78-6.62-1.08a8.27 8.27 0 0 0 -4.74.62l-9.5 5.37c-.95.53-1.1 1.25-.42 1.86a6.3 6.3 0 0 0 3.7 1.08q23.16.72 45.67 1.3c35 1 68 1.87 101.48 3.37 42.36 1.9 77.3 3 110 3.33l5.38.07c14.45.2 28.13.4 39.62-2.63 1.9.4 3.67.8 5.34 1.2 5 1.14 9.65 2.22 14.73 2.28 65.12.8 130.87-.82 186.6-2.5 52.34-1.52 95.65-2.26 136.27-2.2 42.62.08 86 .52 127.94.95 32.9.34 66.94.7 100.42.85 37.64.18 75.4-.16 112.24-1 32.17-.75 64.83-1.7 96.42-2.62 51-1.5 103.72-3 155.66-3.75 49.3-.7 102.54-.06 167.55 2l15.4.5c46.74 1.53 95.07 3.1 142.8.94 7.9-.37 16.15-.58 23.07.3m-1613.18-22.24 1.54.05 3.62.1-1.23.77q-1.96-.53-3.93-.93zm180.68-5.66c-.4.88.87 1.76 2.88 2.07 26.86 4.16 30.92 4.53 47.3.52 1.32-.32 2.08-.9 2.1-1.52a.9.9 0 0 0 -.16-.5c-.52-.8-2.2-1.36-4.15-1.4l-43.68-.64c-2.12-.03-3.94.6-4.3 1.47zm-169.15 21.33a.8.8 0 0 0 -.1-.37c-.24-.55-.43-1-.58-1.4-.4-1-1-2.45-4.65-2.57-1.66-.05-3.36 0-5 .1l-1.3.07c-1.72.07-3.16.58-3.62 1.3s.16 1.46 1.54 1.93l6.75 2.28a9.5 9.5 0 0 0 4.92.17c1.25-.3 2-.9 2.02-1.5zm-101.9-16.47h1727v30h-1727z" fill="#101010"/></svg>