<svg viewBox="0 0 94.68 85.94" xmlns="http://www.w3.org/2000/svg"><path d="m8 20c3.24-6.38 10.82-10.85 17.12-13.76a51.67 51.67 0 0 1 21.8-4.74c8.14 0 15.26 2.68 22.57 6.06 6.9 3.18 15.15 8.22 14.56 17-1.13 16.82-27.75 17.6-39.86 17.3s-40.97-3.66-36.39-21.86a.75.75 0 0 0 -1.44-.4c-3.36 13.3 10.64 19.35 21.2 21.8 14.05 3.26 31.63 3.45 45.22-1.95 10-4 17.07-14.8 9.64-24.58-3.96-5.2-10.3-7.87-16.1-10.37a48.47 48.47 0 0 0 -21.06-4.5 53.74 53.74 0 0 0 -20.9 4.95c-6.5 2.98-14.36 7.7-17.66 14.27-.43.86.87 1.62 1.3.76zm-1.88 5.28c-3.78.7-4.26 4.6-.93 6.34v-1.3c-4.65 2.74-8.19 8.73-1.39 11.44a15.08 15.08 0 0 1 2 .55c1 .62.62.88 1.24 1.92.78 1.32-.1 1.44 1.46 2.5 2 1.38 4.05.23 5.62-1.1l-1.25-.72c-.48 2.27 0 4.6 2.15 5.86 1.84 1.07 3.06-.26 4.6.2 1.15.34 1.78 1.8 3 2.47 2.58 1.4 4.3.28 6.06-1.56 2.2-2.32 4.32-3.57 2.76-7l-1 1a6 6 0 0 0 7.75-.45l-1.26-.73c-.7 2.5.25 5 3 5.76 3.4 1 6.32-1.4 8.53-3.65l-1.25-.32a5.85 5.85 0 0 0 4.8 4.23c.9.14 2.3-.5 3-.05.9.58 1.48 2.5 2.5 3.26a6.5 6.5 0 0 0 6.8.76c1.27-.69 1.69-2.39 2.69-2.93 1.3-.72 3.16-.2 4.68-1 1.72-.88 2.8-2.78 4-3.86.67-.6 1.36-.6 1.85-1.53.67-1.3-.4-2.14-.14-3.34.46-2.16 1.65-.12 3 .54a3.1 3.1 0 0 0 2.4.3c2.43-.73 2.45-3.13 1.56-5l-.87 1.13c3.64 1.36 6.25-.34 7.48-3.8.63-1.8.34-1.6 1.64-3a15.08 15.08 0 0 0 1.1-1.05 4.3 4.3 0 0 0 .83-3.84c-.44-1.52-1.16-1.7-1.3-3.08-.17-1.56.87-1.8-.46-3.1-3.18-3.1-6.54 2.35-8.15 4.1-.65.72.4 1.8 1.06 1.07a9.08 9.08 0 0 0 1-1.12q1.2-2.64 4.26-.24a.75.75 0 0 0 .27 1c6.9 2.9-.85 5.17-1.56 6.42a.75.75 0 0 0 -.1.38q.32 4.1-5.64 4.8c-.67-.26-1.1.56-.85 1.1q-2.4 3.16-3.35 1a4.43 4.43 0 0 0 -.48-.73c-.33-.12-.54-.54-.87-.68a2.08 2.08 0 0 0 -2 0 1.8 1.8 0 0 0 -1 1.35c-.28.93 2 6.5-.58 5.72a.76.76 0 0 0 -.92.5c-2 6.3-4.12 3.16-7.47 4.3a2.2 2.2 0 0 0 -.65.92l-4.27 2.83a6.1 6.1 0 0 1 -5.46-4.8.76.76 0 0 0 -1.1-.44l-6.3-2.52a.76.76 0 0 0 -1.24-.33c-1.1 1.1-11.22 7.26-9-.67a.76.76 0 0 0 -1.25-.73l-5.92.22c-.7-.46-1.3.4-1 1 1.82 4-6.88 8.48-9.07 3.56a.75.75 0 0 0 -1-.27l-5.7-3.6a.76.76 0 0 0 -1.24-.72q-4.14.7-4.42-1.7a4.12 4.12 0 0 0 -.25-1c-.13-.05-.18-.35-.35-.44a17.8 17.8 0 0 0 -2.48-.68l-2.32-.86q-1.87-6.31 2.63-8.25a.76.76 0 0 0 0-1.3l.57-3.6c.95-.16.55-1.6-.4-1.44zm22.45 25.09a29.74 29.74 0 0 0 28.1.9c.86-.43.1-1.72-.77-1.3a28.15 28.15 0 0 1 -26.57-.9.75.75 0 0 0 -.76 1.3zm-1.47 2.49a33.34 33.34 0 0 0 30.7-.63c.85-.46.1-1.75-.76-1.3a31.76 31.76 0 0 1 -29.18.63c-.87-.42-1.63.87-.76 1.3zm38.96-1.08c3.7 3.68 8.4 2.3 12.62.2 4.75-2.37 6.2-6.23 5.92-11.34-.05-1-1.55-1-1.5 0 .2 4-.52 7.35-4.24 9.53-3.54 2.08-8.42 3.85-11.74.54a.75.75 0 0 0 -1.06 1.07zm-1.06 1.59c3 5.63 11.2 2.42 15.66.54 6.12-2.56 5.8-8.88 4.78-14.6-.17-.94-1.62-.54-1.45.4 1 5.3 1.26 10.88-4.75 13.17-3.57 1.36-10.46 4.3-12.92-.25-.46-.85-1.76-.1-1.3.76zm21.24-15.79a3.85 3.85 0 0 0 -.75 4.15c1 3.08 3.1 4 2.33 7.95a12.82 12.82 0 0 1 -4.23 6.65c-7.67 7.13-19.75 8.5-29.7 9.57-10.35 1.12-19.7 1-29.76-2.06-4.72-1.43-9.68-3.36-13.35-6.8-4.64-4.32-4-9.73-4-15.48a.75.75 0 0 0 -1.5 0c.02 4.36-.68 9.56 1.72 13.44s6.72 6.37 10.68 8.1c10.54 4.66 21.32 5.65 32.6 4.66 10.34-.9 22.08-2 31-7.77 3.16-2.08 6.32-4.9 7.6-8.57a10.16 10.16 0 0 0 .55-4.54c-.28-2.18-3.6-6.38-2.14-8.26.58-.75-.48-1.82-1.07-1.06zm-80.11 15.12c-2.83 1-2.38 4.3-3 6.86-.77 3-.73 2.1.85 5.5.63 1.38.63 2.47 2.52 2.35 1.73-.1 2-1.33 3.68.46.86.9.87 1.93 2.06 2.68 2.18 1.38 5-1.2 6.43.2s-.57 3.2 2.34 3.43c1.5.12 2.2-1.23 3.62-1.36 2.27-.2.58.65 2.36 1.93 2.25 1.62 3.87-1 5.9-.46 1.84.54 2.13 2.65 4.46 2.54 2.12-.1.6-.8 2.6-1.36 6.73-1.9 1.8 0 5 .9a6.22 6.22 0 0 0 2.86.22c.48 0 .87-.67 1.3-.74 1.76-.3 2.58.43 4 1 2.6 1 3.22 1.46 5.7.08 1.33-.73.85-2 3.3-1.64.82.12 2.1 1.22 3.06 1.4a5.45 5.45 0 0 0 5.7-2.45c1.08-1.4 1-2 2.56-3.84.4-.46 1.07-.46 1.36-1 1.14-2.4-.76-2.1 3.7-2.12 1 0 1.68.33 2.74-.14 2.7-1.2 1-2.35 5.6-2.8 1.35-.15 1.8.58 3.24.1 2.9-.94 3.2-3.08 2.85-5.6 0-.13-1.04-1.92-.77-.92-1.2-4.4.64-1.8.53-4.1-.06-1.08.24-1.6-.47-2.58-1.35-1.8-3.47-1.18-4.74.23-.64.72.4 1.78 1.06 1.06l1.08.9q1.7.52.73 1.43c0 .06-.44.5-.43.7.06.74-.3 1-.17 1.62s.87 1 1 1.44c1.17 4.87-3.23 3.78-5.6 3.78-1.42 0-1.74.47-2.84 1.16-1.92 1.2 2.06.67-2.5 1.4-8.14 1.28-.86.27-2.16.23-1.15 0-1.54-1-2.78-.27-.84.48-.65 1.3-1.05 2a22.58 22.58 0 0 1 -3.8 4.04c-.14.1-.05.6-.18.7s-7.75 1.6-7.86 1.6c-.38 0-.72-.77-1.18-.66-1.45.34-1.3 1.1-2.38 1.6a10.93 10.93 0 0 1 -5.73.3c-.14 0-.4-.5-.64-.56-.54-.17-.9-.54-1.5-.7s-.6.3-1 .32c-1.6.06-3.5.38-5.2-.2-1.3-.43-.9-1.54-2.87-1.04-1 .24-1.83 1.94-2.55 2.06-1.9.32-3.15-1.7-4.42-2.18s-.64-.55-2.5-.4c-1.14.08 4.84 0-2.43.15h-2.27l-.34-.87c-.14 0-.25-.48-.52-.52-1.54-.27-1.72.47-3.1.74-3.88.74-2.14-1.88-4.1-3.1-.48-.3-1.04 0-1.58-.18-.13 0-.27.1-.38.1l-1.13.72-4.82-2.5c-1-.8-.57-1.24-1.9-1.82-.6-.27-1.3.75-1.8.7-1.8-.14-2.26-1.53-2.77-2.8-.66-1.6-.28-1.2.37-3.08.4-1.1.62-4.95 1.4-5.23s.5-1.78-.4-1.46zm1.03 12.97c-.38 8.7 5.18 11.65 12.6 14.94a62 62 0 0 0 26.6 5.32 80.24 80.24 0 0 0 28.32-6.34 18.3 18.3 0 0 0 11.5-16.35c.04-1-1.46-1-1.5 0-.53 9.42-7 14.05-15.37 16.64-7.47 2.33-15.08 4.34-23 4.55a60.26 60.26 0 0 1 -21.31-3.33 58.9 58.9 0 0 1 -9.77-4.44c-4.67-2.65-6.85-5.3-6.6-11 0-1-1.46-1-1.5 0zm13.02-44.47v-.3a.75.75 0 0 0 -1.5 0v.3a.75.75 0 0 0 1.5 0zm8.5-7.35h.32a.75.75 0 0 0 0-1.5h-.3a.75.75 0 0 0 0 1.5zm23.72 1.75a.75.75 0 0 0 0-1.5.75.75 0 0 0 0 1.5zm-2.32 14.4a.75.75 0 0 0 0-1.5.75.75 0 0 0 0 1.5zm-21.4.9a.75.75 0 0 0 0-1.5.75.75 0 0 0 0 1.5zm12.78-11.68-.3.3a.75.75 0 0 0 1.07 1.05l.3-.3a.75.75 0 0 0 -1.07-1.05zm2.84-10.28a.75.75 0 0 0 0-1.5.75.75 0 0 0 0 1.5zm29.78 8.96a.75.75 0 0 0 0-1.5.75.75 0 0 0 0 1.5zm-3.88 11.1v-.3a.75.75 0 0 0 -1.5 0v.3a.75.75 0 0 0 1.5 0zm-6.53-8.2a.75.75 0 0 0 0-1.5.75.75 0 0 0 0 1.5zm-6.94 15.6a.75.75 0 0 0 0-1.5.75.75 0 0 0 0 1.5zm-16.53-2.4-.3-.3a.75.75 0 0 0 -1.05 1.07l.3.3a.75.75 0 0 0 1.05-1.07zm18.8-20.15a.75.75 0 0 0 0-1.5.75.75 0 0 0 0 1.5zm-31.18 7.23a.75.75 0 0 0 0-1.5.75.75 0 0 0 0 1.5zm-7.52 8.39a.75.75 0 0 0 0-1.5.75.75 0 0 0 0 1.5z" fill="#fff"/></svg>