<?xml version="1.0" encoding="utf-8"?>
<!-- Generator: Adobe Illustrator 25.0.0, SVG Export Plug-In . SVG Version: 6.00 Build 0)  -->
<svg version="1.1" id="Layer_1" xmlns="http://www.w3.org/2000/svg" xmlns:xlink="http://www.w3.org/1999/xlink" x="0px" y="0px"
	 viewBox="0 0 595.3 841.9" style="enable-background:new 0 0 595.3 841.9;" xml:space="preserve">
<style type="text/css">
	.st0{fill:#FED513;}
</style>
<g>
	<g>
		<path class="st0" d="M269,438.3v-21c0-2.7-0.7-4.3-2-5c-1.3-0.7-3.7-1-7.2-1v-15.3c3.5,0,5.9-0.3,7.2-1c1.3-0.7,2-2.4,2-5v-19
			c0-7.4,1.5-12.3,4.5-14.8c1.5-1.2,3.5-2.1,6.1-2.7h-49.9v102.4h49.9c-2.6-0.6-4.6-1.5-6.1-2.7C270.5,450.6,269,445.7,269,438.3z"
			/>
	</g>
	<g>
		<path class="st0" d="M332,353.4h-30.2v13.4h-14c-1,0-1.8,0.1-2.2,0.4c-0.4,0.3-0.7,0.9-0.7,2V390c0,6.9-2.2,11.5-6.6,13.9
			c4.4,2.2,6.6,6.8,6.6,13.8V440c0,1,0.2,1.7,0.7,2c0.4,0.3,1.2,0.4,2.2,0.4h14v13.4H332V353.4z"/>
	</g>
</g>
</svg>
