<?xml version="1.0" encoding="utf-8"?>
<!-- Generator: Adobe Illustrator 25.0.0, SVG Export Plug-In . SVG Version: 6.00 Build 0)  -->
<svg version="1.1" id="Layer_1" xmlns="http://www.w3.org/2000/svg" xmlns:xlink="http://www.w3.org/1999/xlink" x="0px" y="0px"
	 viewBox="0 0 500 500" style="enable-background:new 0 0 500 500;" xml:space="preserve">
<style type="text/css">
	.st0{fill:#3945BA;}
</style>
<g>
	<g>
		<path class="st0" d="M198.3,397.5v-91.8c0-11.6-2.9-18.9-8.7-21.9c-5.8-3-16.3-4.5-31.4-4.5v-67c15.1,0,25.6-1.5,31.4-4.5
			c5.8-3,8.7-10.3,8.7-21.9v-82.9c0-32.4,6.5-53.9,19.5-64.7c6.4-5.3,15.3-9.3,26.6-12H26.2v447.8h218.4c-11.3-2.7-20.2-6.7-26.6-12
			C204.9,451.4,198.3,429.9,198.3,397.5z"/>
	</g>
	<g>
		<path class="st0" d="M474,26.3H341.9V85h-61.2c-4.6,0-7.8,0.6-9.8,1.8c-1.9,1.2-2.9,4.1-2.9,8.7v90.8c0,30.3-9.7,50.5-29,60.7
			c19.4,9.5,29,29.6,29,60.2v97.7c0,4.6,1,7.5,2.9,8.7c1.9,1.2,5.2,1.9,9.8,1.9h61.2v58.7H474V26.3z"/>
	</g>
</g>
</svg>
