<svg xmlns="http://www.w3.org/2000/svg" viewBox="0 0 487.05 399.15">
	<path fill="#F1C77A" opacity=".075" d="M425.59,231.39a6.41,6.41,0,0,1,1.8-1.82c5.26-2.86,10.14-7.14,16.58-5.8a1.68,1.68,0,0,0,.55-.06c11.5-1.72,21.37-7.22,29.66-16.2a75,75,0,0,0,12.87-19c-7.07-2-13.54-.35-19.76,2.56-12.54,5.87-21.73,16.33-30.22,27.78-2,2.73-4.77,4.79-7.19,7.16,3.6-9.29,7.67-17.93,11-26.92,1.67-4.51,3.43-8.71,7-11.57a36.76,36.76,0,0,1,6.51-3.73c12.4-6.42,19-17.89,22.5-32,.3-1.22.41-2.5.62-3.82-4.56,0-10.57,3.32-15,8.05-6.67,7.21-10.78,16.17-14.19,25.64a67.41,67.41,0,0,1-3.18,6.58c1.35-7.8,3-15.36,4.62-22.92.49-2.26.42-5.09,1.64-6.65,2.92-3.74,5.76-7.86,10.6-9a14.54,14.54,0,0,0,4.47-2.44c11.12-7.71,16.56-19.52,19.41-33.65a7,7,0,0,0-2.56.29c-3.83,2.18-8,3.91-11.29,6.87-7.54,6.81-11.73,16.28-15.35,26.13-1.19,3.22-3.09,6.11-4.67,9.15l-.9-.49a35.75,35.75,0,0,0,.58-4.13q.34-13.37.57-26.74a11.22,11.22,0,0,1,3.69-8.56c9.85-8.69,12-20.34,10.87-33.92a35.89,35.89,0,0,0-3.4,2.45c-6.73,6.25-8.95,14.87-10,24.07-.2,1.74-.38,3.49-.56,5.24l-.45,4.33c-2-8.38-4.12-17.29-6.32-26.17a18.64,18.64,0,0,1,1.46-13.42,36.75,36.75,0,0,0,4.11-25.19c-.67-3.69-2-7.22-3.19-11.26a21.37,21.37,0,0,0-5.66,11.34c-1.43,8.07-.62,16,1.33,23.89,1.19,4.78,1.16,6.1-.07,8.78a335.62,335.62,0,0,0-21.35-47.54c-1.31-2.39-1.95-5.25-2.85-7.91-2.08-6.12-3.68-12.52-6.33-18.31S406.58,1.92,400,0c.5,3.67.7,7.08,1.46,10.32C404,21,408.9,29.77,418.31,34.64a5.8,5.8,0,0,1,2.18,2.65Q428,53.46,435.37,69.72c1.22,2.7,2.05,5.61,3.07,8.42a14.62,14.62,0,0,1-3-4.48c-4-8.06-8.59-15.56-16-20.21-2.94-1.84-6-3.39-9.49-2.81a2.69,2.69,0,0,0-.1.61c.17.58.35,1.17.55,1.75,4.23,12,10.68,21.5,22.45,25a12,12,0,0,1,8.8,9.12c1.76,6.79,3.79,13.51,5.31,20.36.91,4.07,1.07,8.35,1.57,12.54l-1,.4a54.26,54.26,0,0,1-4.15-6.39c-3.28-6.91-7.07-13.36-12.48-18.44-4-3.72-8.34-6.36-13.93-6.42a19,19,0,0,0,.41,2c4.47,13.15,11.5,23.21,24.75,26.12,3.49.77,6.83,6.35,6.75,10.45-.12,5.81-.24,11.62-.59,17.41-.21,3.6-.85,7.17-1.3,10.75l-.69.18c-1-2-2.16-4-3-6.15-2.47-6.51-5.33-12.77-9.87-17.8-3.23-3.58-6.94-6.38-11.84-6.87a6.48,6.48,0,0,0-.09,1.49c3,12.39,8.63,22.3,20.25,26.56,2.44.89,5.06,4.63,4.69,6.43-1.23,5.89-2.22,11.87-3.8,17.65-2.15,7.89-4.75,15.64-7.15,23.44l-.8-.12a11.49,11.49,0,0,1-.88-2.42c-.62-4.67-1.28-9.35-1.68-14-.68-8-2.3-15.63-5.83-22.63-2.52-5-5.7-9.42-11.54-12.13,0,4.19-.11,7.87,0,11.54.37,9.93,2.93,19,8.71,26.79,3.18,4.3,8,7,9.6,12.9.54,2,.78,3.55-.08,5.5a179.9,179.9,0,0,1-23.33,38.41c-3.6,4.58-7.45,8.9-11.7,13.95.11-1.5.14-2.07.2-2.64.79-6.6,3.83-12.12,6.64-17.81,6.09-12.32,10.46-25.27,9.91-39.65-.23-6-1.41-11.77-4.93-17.34-2.74,4.48-5.52,8.49-7.77,12.83-8.27,15.94-11,32.64-4.94,50.37a7.61,7.61,0,0,1,.26,3c-.29,3.28-.69,6.55-1.07,9.82a8.4,8.4,0,0,1-2.74,5.77c-4.43,3.94-8.54,8.33-13,12.25-5.65,5-11.51,9.66-17.92,15,.19-2.45.25-4,.42-5.44.68-6.32,3.67-11.55,6.35-17,6.09-12.31,10.51-25.23,10.1-39.59a33.7,33.7,0,0,0-5-17.56c-2.77,4.51-5.65,8.57-7.93,13-8.14,15.87-10.86,32.47-4.72,50.07a7.49,7.49,0,0,1,.2,3c-.27,3-.57,5.95-1,8.9-.31,2.18-.19,5.36-1.39,6.3-7.25,5.67-14.81,10.82-22.76,16.5.13-1.75.13-2.78.3-3.76a49.68,49.68,0,0,1,5.14-14.55c6.76-13,11.83-26.66,11.42-42.06A34.39,34.39,0,0,0,348.69,230c-3.37,6-6.85,11.22-9.51,16.95-6.94,15-8.68,30.49-3.05,46.55a6,6,0,0,1,.32,2.39c-.32,3.49-.71,7-1.12,10.44a6.16,6.16,0,0,1-3.08,5c-4.66,2.76-9.16,5.85-13.75,8.73-5.21,3.28-10.46,6.47-16.15,10,.3-6.41,1.33-12,4-17,7.7-14.46,13.72-29.52,12.76-46.89a31.21,31.21,0,0,0-4.64-15.62,79.77,79.77,0,0,0-11.9,21.14c-5,13.45-5.88,27.1-1.29,41a9.22,9.22,0,0,1,.48,3.61c-.42,4.41-.89,8.82-1.6,13.17a5.23,5.23,0,0,1-2,3.18c-8.08,5.24-16.28,10.28-24.38,15.48-4.79,3.07-9.48,6.34-14.58,9.76.54-5.91,1.49-11.19,4-16,7.64-14.25,13.61-29.1,12.81-46.24a33.11,33.11,0,0,0-4.85-16.51c-2.76,4.48-5.46,8.42-7.72,12.64-7.33,13.63-10.1,28.24-6.94,43.94.58,2.88,2.07,5.69,2.06,8.53a99.73,99.73,0,0,1-1.51,13.78,4.75,4.75,0,0,1-1.53,2.71c-4,3.31-8.07,6.48-12.06,9.65-4-3.17-8.07-6.34-12.06-9.65a4.77,4.77,0,0,1-1.53-2.71,100.24,100.24,0,0,1-1.51-13.78c0-2.84,1.48-5.65,2.06-8.53,3.15-15.7.38-30.31-6.94-43.94-2.27-4.22-5-8.15-7.72-12.64A33.11,33.11,0,0,0,211,295.69c-.8,17.14,5.16,32,12.8,46.24,2.56,4.78,3.51,10.07,4,16-5.09-3.42-9.78-6.69-14.57-9.76-8.11-5.2-16.3-10.23-24.38-15.48a5.24,5.24,0,0,1-2-3.18c-.71-4.36-1.18-8.77-1.6-13.17a9.21,9.21,0,0,1,.48-3.61c4.58-13.86,3.66-27.51-1.3-41a79.83,79.83,0,0,0-11.9-21.14,31.22,31.22,0,0,0-4.64,15.62c-1,17.37,5.06,32.42,12.76,46.89,2.69,5.05,3.72,10.59,4,17-5.69-3.52-10.94-6.71-16.15-10-4.6-2.89-9.1-6-13.75-8.73a6.16,6.16,0,0,1-3.08-5c-.4-3.48-.8-7-1.12-10.44a5.93,5.93,0,0,1,.32-2.39c5.62-16.06,3.89-31.6-3.05-46.55-2.66-5.73-6.14-11-9.51-16.95a34.38,34.38,0,0,0-5.11,18.07c-.41,15.4,4.66,29.08,11.42,42.06a49.67,49.67,0,0,1,5.14,14.55c.17,1,.17,2,.3,3.76-7.95-5.67-15.52-10.83-22.76-16.5-1.2-.94-1.07-4.12-1.39-6.3-.43-3-.73-5.92-1-8.9a7.49,7.49,0,0,1,.2-3c6.14-17.6,3.42-34.2-4.72-50.07-2.27-4.44-5.15-8.5-7.93-13a33.7,33.7,0,0,0-5,17.56c-.41,14.37,4,27.28,10.1,39.59,2.68,5.42,5.67,10.65,6.35,17,.16,1.49.23,3,.42,5.44-6.42-5.34-12.27-10-17.92-15-4.45-3.92-8.56-8.31-13-12.25a8.4,8.4,0,0,1-2.74-5.77c-.37-3.27-.78-6.54-1.07-9.82a7.64,7.64,0,0,1,.26-3C96,226.62,93.26,209.93,85,194c-2.25-4.35-5-8.35-7.77-12.83-3.52,5.57-4.7,11.34-4.93,17.34-.55,14.38,3.82,27.33,9.91,39.65,2.81,5.69,5.86,11.21,6.64,17.81.07.57.09,1.14.21,2.64-4.25-5-8.11-9.37-11.7-13.95A179.86,179.86,0,0,1,54,206.23c-.86-2-.62-3.49-.08-5.5,1.58-5.9,6.42-8.6,9.6-12.9C69.3,180,71.87,171,72.23,161c.13-3.67,0-7.35,0-11.54-5.84,2.71-9,7.12-11.54,12.13-3.53,7-5.15,14.66-5.83,22.63-.4,4.7-1.06,9.37-1.68,14a11.32,11.32,0,0,1-.88,2.42l-.8.12c-2.41-7.81-5-15.55-7.15-23.44-1.57-5.78-2.57-11.75-3.8-17.65-.38-1.8,2.25-5.54,4.69-6.43,11.62-4.27,17.24-14.17,20.24-26.56a6.36,6.36,0,0,0-.09-1.49c-4.9.49-8.61,3.29-11.84,6.87-4.54,5-7.4,11.29-9.87,17.8-.81,2.13-2,4.1-3,6.15l-.7-.18c-.45-3.58-1.08-7.15-1.3-10.75-.35-5.79-.48-11.6-.59-17.41-.08-4.1,3.26-9.68,6.75-10.45,13.26-2.91,20.28-13,24.75-26.12a18.45,18.45,0,0,0,.41-2c-5.59.06-10,2.7-13.93,6.42-5.41,5.09-9.2,11.53-12.48,18.44a54,54,0,0,1-4.15,6.39l-1-.4c.5-4.19.66-8.46,1.57-12.54,1.53-6.86,3.55-13.57,5.31-20.36A12,12,0,0,1,54.22,78C66,74.5,72.44,65,76.67,53c.2-.57.38-1.16.55-1.75,0-.08,0-.2-.1-.61-3.49-.58-6.56,1-9.49,2.81-7.43,4.65-12,12.14-16,20.21a14.62,14.62,0,0,1-3,4.48c1-2.81,1.85-5.72,3.07-8.42Q59,53.44,66.55,37.29a5.8,5.8,0,0,1,2.18-2.65C78.15,29.77,83.08,21,85.58,10.32,86.33,7.08,86.54,3.67,87,0c-6.57,1.92-10.81,6.47-13.5,12.34s-4.25,12.19-6.33,18.31c-.91,2.66-1.54,5.52-2.85,7.91A335.74,335.74,0,0,0,43,86.1c-1.24-2.68-1.26-4-.07-8.78,2-7.86,2.77-15.81,1.34-23.89A21.36,21.36,0,0,0,38.61,42.1c-1.16,4-2.52,7.57-3.18,11.26a36.75,36.75,0,0,0,4.11,25.19A18.65,18.65,0,0,1,41,92c-2.19,8.88-4.3,17.79-6.32,26.17-.1-.92-.27-2.63-.45-4.33s-.36-3.49-.56-5.24c-1.07-9.19-3.28-17.81-10-24.07a35.89,35.89,0,0,0-3.4-2.45c-1.1,13.59,1,25.24,10.87,33.92a11.21,11.21,0,0,1,3.69,8.56q.22,13.37.57,26.74a35.77,35.77,0,0,0,.58,4.13l-.9.49c-1.58-3-3.48-5.93-4.67-9.15-3.62-9.84-7.82-19.32-15.35-26.13-3.28-3-7.47-4.69-11.29-6.87a7,7,0,0,0-2.56-.29C4,127.59,9.45,139.4,20.57,147.11A14.53,14.53,0,0,0,25,149.55c4.85,1.18,7.68,5.3,10.6,9,1.22,1.56,1.15,4.39,1.64,6.65,1.64,7.56,3.27,15.12,4.62,22.92a67.21,67.21,0,0,1-3.18-6.58c-3.42-9.46-7.53-18.42-14.19-25.64-4.38-4.74-10.39-8.05-15-8.05.21,1.32.32,2.59.62,3.82,3.51,14.14,10.11,25.62,22.5,32a36.79,36.79,0,0,1,6.51,3.73c3.53,2.87,5.28,7.06,7,11.57,3.33,9,7.4,17.64,11,26.92-2.42-2.37-5.17-4.43-7.19-7.16C41.49,207.37,32.31,196.9,19.76,191c-6.22-2.91-12.69-4.58-19.76-2.56a75,75,0,0,0,12.87,19c8.29,9,18.16,14.48,29.66,16.2a1.68,1.68,0,0,0,.55.06c6.45-1.34,11.33,2.94,16.58,5.8a6.4,6.4,0,0,1,1.8,1.82q10.94,14.5,21.84,29c.23.31.45.63,1.05,1.48-4.48-.58-8.34-1.48-11.83-3.8-8.83-5.88-18-10.89-28.1-13.46C33.9,242,23.26,242.79,15.7,248.5a63.59,63.59,0,0,0,15.57,11.65c13.25,7.07,26.81,9,40.84,2.85,1-.44,2.31-.11,3.46,0,3.22.38,6.45.73,9.64,1.33a7.15,7.15,0,0,1,3.33,1.74c7.69,7,15.31,14.14,23,21.22a4,4,0,0,1,1.37,2.2,54.09,54.09,0,0,1-5.12-2.67c-9.13-6-18.53-11.22-29-13.45-7.76-1.65-15.48-1.9-23,1.45-1.43.64-2.78,1.5-5,2.71,4.3,3.31,7.93,6.46,11.85,9.05,10,6.59,20.78,9.9,32.42,8.76a53.5,53.5,0,0,0,10.79-2.64,16.32,16.32,0,0,1,15.12,2.11c7.28,5.13,14.44,10.49,21.64,15.75l-.08.84c-3.71-.63-7.44-1.15-11.12-1.93-12.82-2.71-25.65-3.76-38.07,1.69-4.21,1.85-7.89,5.21-11.76,8-.71.51-1.16,1.49-2.32,3.05,6.33,1.78,11.93,3.8,17.67,4.89a43.5,43.5,0,0,0,28.3-3.64,72.35,72.35,0,0,0,11.36-7.63c3.12-2.42,9.32-3.17,12.63-1.08q14,8.87,28,17.66c0,.31,0,.61,0,.92-3.18-.25-6.44-.09-9.53-.8-12.37-2.87-24.75-4.39-37.18-.85-6.44,1.83-12.43,4.86-17,10.5-.36.44-.66.93-1.39,2,4.11,1.37,7.81,2.83,11.61,3.83,12.41,3.28,24.65,3,36.32-3.35,3.22-1.74,6-4.46,9.14-6.39,1.87-1.14,4.11-1.51,6.11-2.41,3.87-1.74,7.18-.7,10.71,1.58,11.44,7.41,23.06,14.49,34.6,21.71.87.55,1.69,1.2,2.9,2.07-4.44,1.64-8.55,1.64-12.79,1.31-15.06-1.15-29.89-.6-43.16,9a26.68,26.68,0,0,0-8.76,10.12c3.46.79,6.62,1.73,9.84,2.23,10.76,1.65,21.28.58,31.32-4.29a50.12,50.12,0,0,0,15-11.63c1.7-1.86,4.57-2.34,6.82-3.63,2.85-1.63,5.21-1.26,7.77,1,3.36,3,7.07,5.57,10.78,8.43-3.5,3.52-6.81,6.82-10.09,10.15-3.07,3.12-6.26,6.38-9.07,9.8-1,1.16-2.26,3.05-1.15,4.63a2.05,2.05,0,0,0,3.12.16c2.23-1.89,4-4.59,6.12-6.7q6.48-6.58,12.84-13.32a10.35,10.35,0,0,1,1.58-1.24,10.3,10.3,0,0,1,1.58,1.24q6.36,6.74,12.85,13.32c2.08,2.11,3.89,4.81,6.12,6.7a2.05,2.05,0,0,0,3.13-.16c1.11-1.57-.2-3.47-1.15-4.63-2.81-3.42-6-6.67-9.08-9.8-3.28-3.34-6.6-6.63-10.09-10.15,3.71-2.86,7.42-5.4,10.78-8.43,2.56-2.3,4.92-2.68,7.77-1,2.26,1.29,5.12,1.77,6.82,3.63a50.14,50.14,0,0,0,15,11.63c10,4.87,20.56,5.94,31.32,4.29,3.22-.5,6.39-1.43,9.85-2.23a26.68,26.68,0,0,0-8.76-10.12c-13.28-9.58-28.11-10.13-43.16-9-4.24.32-8.34.33-12.79-1.31,1.21-.87,2-1.52,2.9-2.07,11.54-7.22,23.16-14.3,34.6-21.71,3.53-2.29,6.84-3.33,10.71-1.58,2,.9,4.25,1.27,6.11,2.41,3.15,1.93,5.93,4.65,9.14,6.39C338.8,351,351,351.27,363.44,348c3.8-1,7.49-2.46,11.61-3.83-.74-1.05-1-1.55-1.39-2-4.61-5.65-10.6-8.67-17-10.5-12.43-3.54-24.81-2-37.18.85-3.09.71-6.34.56-9.53.8,0-.31,0-.61,0-.92q14-8.82,28-17.66c3.31-2.1,9.51-1.34,12.63,1.08a72.4,72.4,0,0,0,11.36,7.63,43.5,43.5,0,0,0,28.31,3.64c5.74-1.08,11.34-3.1,17.67-4.89-1.17-1.56-1.61-2.54-2.32-3.05-3.87-2.77-7.55-6.12-11.76-8-12.42-5.45-25.25-4.4-38.07-1.69-3.68.78-7.41,1.29-11.12,1.93,0-.28-.05-.56-.08-.84,7.2-5.26,14.36-10.62,21.64-15.75a16.32,16.32,0,0,1,15.12-2.11,53.51,53.51,0,0,0,10.79,2.64c11.64,1.14,22.45-2.17,32.42-8.76,3.92-2.59,7.55-5.74,11.85-9.05-2.2-1.21-3.55-2.07-5-2.71-7.51-3.36-15.23-3.1-23-1.45-10.51,2.23-19.92,7.45-29,13.45a54.09,54.09,0,0,1-5.12,2.67,4,4,0,0,1,1.37-2.2c7.64-7.09,15.26-14.2,22.95-21.22a7.16,7.16,0,0,1,3.34-1.74c3.19-.6,6.42-.95,9.64-1.33,1.15-.14,2.46-.46,3.46,0,14,6.12,27.59,4.22,40.84-2.85a63.54,63.54,0,0,0,15.57-11.65c-7.56-5.71-18.19-6.55-28.72-3.87-10.11,2.57-19.27,7.58-28.1,13.46-3.49,2.32-7.35,3.22-11.83,3.8.6-.85.83-1.17,1.05-1.48Q414.66,245.89,425.59,231.39Z"/>
</svg>