<svg viewBox="0 0 30.12 2.27" xmlns="http://www.w3.org/2000/svg"><path d="m21.78 2.22.55-.06a14.25 14.25 0 0 1 2.29 0h.45.79.75a.07.07 0 0 0 .07-.07.07.07 0 0 0 -.06-.09h-.62l-1.63-.1h-.12a.79.79 0 0 1 -.29 0 2.33 2.33 0 0 1 .37 0h.66.85a.19.19 0 0 0 .25-.14.08.08 0 0 0 0-.06.07.07 0 0 0 0 0h-.28l-.64-.07h-.62-.09a1.36 1.36 0 0 1 .28 0h.06.46.92 1.17.21a.9.9 0 0 0 .44 0 1.37 1.37 0 0 1 .49-.06 2.08 2.08 0 0 0 .34 0h.1a.48.48 0 0 0 .24-.06.77.77 0 0 1 .45-.1h.44a.08.08 0 0 0 0-.05v-.14a.07.07 0 0 0 -.06-.07h-.24a3.37 3.37 0 0 1 -.51-.05 6.89 6.89 0 0 0 -1.53-.17.19.19 0 0 1 -.11 0 .33.33 0 0 0 -.36-.14h-.48c-.38 0-.78 0-1.17 0s-1 0-1.58-.08-.93-.08-1.44-.17a2.66 2.66 0 0 0 -.77-.06h-.23a1.57 1.57 0 0 1 -1-.07.37.37 0 0 0 -.49.09.17.17 0 0 1 -.12 0h-.15a1.18 1.18 0 0 0 -.6 0h-.07-.07l-.08-.01a.38.38 0 0 0 -.2 0 2.72 2.72 0 0 1 -.7 0 2.06 2.06 0 0 0 -1 .07h-.86-1.84-.19a4.59 4.59 0 0 1 -1.47-.3 2.11 2.11 0 0 0 -.57-.12l-1.72-.09h-1.24c-.21-.05-.37-.05-.56-.05h-.76c-.32 0-.65 0-1 0-.89.11-1.89.11-2.78.1h-.11a13.07 13.07 0 0 0 -2.57.28c-.08 0-.22 0-.22.21a.37.37 0 0 0 0 .05l-.07.06a1.17 1.17 0 0 1 -.32.09l-.5.03h-.26a.07.07 0 0 0 -.06.07.07.07 0 0 0 0 .11l.3.15.54.28a3.71 3.71 0 0 0 1.65.43h.57a5.84 5.84 0 0 1 .63 0l2.48.14h.91.09a7.41 7.41 0 0 0 1.94.11l.89-.05c.42 0 .86-.06 1.29-.07h4.95c1 0 2.11 0 3.2.09.36 0 .72.07 1.07.12l.52.07a1.22 1.22 0 0 0 .27 0z" fill="#c6c09c"/></svg>