<svg enable-background="new 0 0 38 38" height="38" viewBox="0 0 38 38" width="38" xmlns="http://www.w3.org/2000/svg"><path d="m12.459 15.48c.691-1.081 3.365-4.845 5.474-7.255-1.391-1.454-2.785-2.225-4.685-2.225-2.743 0-4.884.748-6.654 4.069 1.639 1.064 4.649 3.722 5.865 5.411z" fill="#f49314"/><path d="m8 31h-7s1.438-7.464 5.57-18.438c1.88-4.992 4.055-5.562 6.678-5.562 3 0 4.562 2.313 7.752 7 2.517 3.697 11 17 14 17h3m-8.35-4.732s-.275 2.732-3.9 2.732c-3.312 0-4.75-3.768-4.75-5.046 0-1.442.357-2.377.625-2.954-1 0-3.25.001-4.938-1.491s-2.903-4.287-4.313-5.696c0 0-4.676 6.355-8 17.188" fill="none" opacity=".8" stroke="#231f20" stroke-miterlimit="10" stroke-width="2"/></svg>