<svg enable-background="new 0 0 38 38" height="38" viewBox="0 0 38 38" width="38" xmlns="http://www.w3.org/2000/svg"><path d="m20.747 25.469-.855-1.469h-7.892v2.989c0 2.366 1.385 3.793 2.622 4.502.43.246 1.4.509 1.988.509 2.245-4.354 3.14-5.625 4.137-6.531z" fill="#f49314"/><path d="m24.063 31c-.875 0-8.063 0-8.063 0s-3-.802-3-4.011c0-2.748 0-13.989 0-13.989s2.617 0 3.667 0c1.741 0 2.973.701 3.961 2.401 2.091 3.594 7.843 13.482 7.843 13.482m-10.792-10.675 3.78 6.497s5.025 2.474 5.613 2.796c1.201.66 1.928 1.925 1.928 3.499 0 1.978-1.307 4-4 4-2.556 0-11.063 0-11.063 0l2.063-4m5-19s0-4.791 0-7-1.791-4-4-4-4 1.791-4 4 0 11 0 11" fill="none" opacity=".8" stroke="#231f20" stroke-miterlimit="10" stroke-width="2"/></svg>