<svg enable-background="new 0 0 38 38" height="38" viewBox="0 0 38 38" width="38" xmlns="http://www.w3.org/2000/svg"><path d="m30 19c0 6.076-4.925 11-11 11s-11-4.924-11-11c0-3.185 1.353-6.052 3.515-8.061 1.798 1.061 3.395 2.846 3.395 2.846s1.09-3.785 4.09-5.785c3 2 4.014 5.755 4.014 5.755s1.646-1.755 3.468-2.82c2.164 2.009 3.518 4.878 3.518 8.065z" fill="#f4abef"/><path d="m36 33s-8.658 0-9 0c-3.375 0-8-2.083-8-7 0 0 0-15.893 0-18.998 0-1.104.896-2 2-2s2 .498 2 .498v11.5m-4-9.998s0-2.896 0-4 .896-2 2-2 2 .498 2 .498v8.5s2.198 7.462 3.688 11.87c.196.579.562 1.13 1.312 1.13s8 0 8 0m-34 10h9c3.375 0 8-2.083 8-7 0 0 0-15.893 0-18.998 0-1.104-.896-2-2-2s-2 .498-2 .498v11.5m-13 6h8s1.116-.551 1.312-1.13c1.49-4.408 3.688-11.87 3.688-11.87v-8.5s.896-.498 2-.498 2 .896 2 2 0 4 0 4" fill="none" opacity=".8" stroke="#231f20" stroke-miterlimit="10" stroke-width="2"/></svg>