<?xml version="1.0" encoding="utf-8"?>
<!-- Generator: Adobe Illustrator 23.0.5, SVG Export Plug-In . SVG Version: 6.00 Build 0)  -->
<svg version="1.1" id="Calque_1" xmlns="http://www.w3.org/2000/svg" xmlns:xlink="http://www.w3.org/1999/xlink" x="0px" y="0px"
	 viewBox="0 0 690.1 635.2" style="enable-background:new 0 0 690.1 635.2;" xml:space="preserve">
<style type="text/css">
	.st0{fill:#FDD813;}
	.st1{fill:#1C344E;}
</style>
<g>
	<g>
		<circle class="st0" cx="364.5" cy="317.9" r="265.6"/>
	</g>
	<path class="st1" d="M440.8,249.6c10.5-9.7,20.2-18.8,29.9-27.8c1.2-1.1,2.2-2.3,3.4-3.4c3.7-3.3,8.3-3.4,11.5-0.2
		c3.1,3.2,3.2,7.2-0.4,10.9c-9.3,9.7-18.4,19.7-28.2,28.8c-5.1,4.8-7.2,9.8-7.1,16.8c0.2,16.3-0.4,32.6-0.8,48.9
		c-0.1,6.1-3.1,9.3-8.4,9.2c-5-0.1-7.6-3.1-7.5-9.4c0.3-18.4,0.6-36.7,1.1-55.1c0.1-3.2-0.8-5.3-3.1-7.4
		c-6.2-5.8-12.2-11.8-18.6-18.1c-1.3,2.2-1,4.1-1,5.9c-0.3,11.6-0.4,23.1-0.7,34.7c-0.1,5.3-2.6,8.5-6.6,9.1
		c-5.7,0.8-9.3-2.5-9.2-8.5c0.3-18,0.6-36.1,1-54.1c0.1-4.1-1.1-7.3-4.1-10.1c-6.3-5.9-12.4-12.1-19.5-19c-0.3,12.2-0.7,23.2-1,34.2
		c-0.1,3.2,0.1,6.3-0.1,9.5c-0.3,5.1-3.2,7.7-8.3,7.7c-4.7-0.1-7.5-2.8-7.4-7.9c0.2-12.3,0.6-24.7,0.8-37c0-1.5,0.6-3.1-0.3-4.2
		c-7.4,7.1-14.8,14.1-22.2,21.2c-1.2,1.1-0.7,2.7-0.7,4.1c-0.4,18.4-0.7,36.7-1,55.1c-0.1,6.2-2.9,9.2-8.4,9.1
		c-5-0.1-7.6-3.2-7.5-9.4c0.3-18.4,0.6-36.7,1.1-55.1c0.1-2.9-0.8-5-2.8-7.1c-6.1-6.2-11.8-12.7-17.9-18.9c-2.4,1.8-1.8,3.2-1.8,4.4
		c-0.3,12.2-0.5,24.4-0.8,36.6c-0.1,4.2-2,7.3-6.4,8.1c-4.2,0.7-7.6-0.7-9-5c-0.5-1.4-0.4-3.1-0.4-4.7c0.3-16.9,0.5-33.9,1.1-50.8
		c0.2-5.8-1.4-10.1-5.8-14.1c-9.4-8.5-18.2-17.6-27.3-26.4c-0.9-0.9-1.8-1.7-2.7-2.7c-3.4-3.8-3.4-8.2-0.2-11.4
		c3.1-3.1,7.3-3,11,0.5c9.7,9.3,19.3,18.7,28.9,28.1c1.3,1.3,2.3,3,3.1,4c3.2-0.6,4.2-2.4,5.4-3.7c8.6-8.8,17.2-17.7,25.8-26.5
		c5.8-5.9,9.3-5.8,15.2,0c10.6,10.5,21.2,20.8,32.3,31.7c3.7-3.7,7.2-7.3,10.7-10.8c6.8-7,13.6-14.2,20.5-21.1
		c4.7-4.7,10-3.7,13.4,1.8c1.3,2.2,1.2,4-0.2,6.1c-2.1,3.2-5,5.7-7.6,8.5c-8.8,9.1-17.6,18.1-25.7,26.4c9.4,9.9,18.4,19.6,26.7,28.3
		c9.3-8.7,18.3-17.1,27.3-25.6c1.7-1.6,3.3-3.4,5-5.1c4.1-3.9,8.8-4.1,12.2-0.5c3.3,3.4,3.1,7-1,11.2c-10,10.4-20.1,20.7-30.1,31
		c-0.8,0.8-1.4,1.6-1.4,1.6C424.1,231.7,432.9,241.2,440.8,249.6z M353.3,183.3c-9.6-10.5-18.7-20.3-26.6-29
		c-10.2,9.4-19.9,18.4-28.3,26.2c9.5,10.2,18.6,19.9,26.7,28.5C335,199.9,344.8,191,353.3,183.3z"/>
	<path class="st1" d="M404.6,174.2c7.4,0.1,13.2,6.1,13,13.4c-0.2,7.3-6.2,13.1-13.5,12.9c-7.3-0.2-12.9-6.3-12.7-13.7
		C391.6,179.8,397.5,174.1,404.6,174.2z"/>
	<path class="st1" d="M288,132.9c7.3,0.1,13.2,6,13.1,13.4s-6,13.2-13.4,13s-13.1-6.2-12.9-13.6C275,138.6,280.9,132.8,288,132.9z"
		/>
	<path class="st1" d="M455.7,227.7c0,7.4-5.9,13.2-13.3,13.1c-7.3-0.1-13.1-6-13-13.4c0.1-7.1,6-12.9,13.1-12.9
		C449.8,214.4,455.8,220.4,455.7,227.7z"/>
	<path class="st1" d="M352.2,147c0-7.3,6-13.3,13.3-13.1c7.1,0.1,12.8,5.9,12.9,13c0.1,7.4-5.8,13.3-13.1,13.3
		C357.9,160.3,352.2,154.5,352.2,147z"/>
	<path class="st1" d="M339.2,187.3c0,7.4-5.9,13.4-13.2,13.3c-7.1-0.1-12.9-5.9-12.9-13.1c0-7.3,5.5-13.1,12.7-13.2
		C333.1,174.1,339.1,180,339.2,187.3z"/>
	<g>
		<path class="st1" d="M145.4,375.1v9h0.6c1,0,1.8-0.1,2.4-0.4c0.6-0.3,1.1-0.8,1.6-1.5c0.4-0.7,0.7-1.6,0.8-2.8h0.6v11.1h-0.6
			c-0.2-2.1-0.8-3.5-1.7-4.1c-0.9-0.7-2-1-3.1-1h-0.6v6.7c0,1.1,0.1,1.8,0.2,2.1c0.1,0.3,0.4,0.5,0.7,0.7c0.4,0.2,0.9,0.3,1.5,0.3
			h0.7v0.6H137v-0.6h0.7c0.6,0,1.2-0.1,1.5-0.3c0.3-0.2,0.5-0.4,0.6-0.8c0.1-0.3,0.2-0.9,0.2-2v-14.5c0-1.1-0.1-1.8-0.2-2.1
			c-0.1-0.3-0.4-0.5-0.7-0.7c-0.4-0.2-0.9-0.3-1.5-0.3H137v-0.6h18.6v6.3h-0.7c-0.2-1.5-0.5-2.6-1.2-3.3c-0.6-0.7-1.5-1.2-2.7-1.5
			c-0.6-0.2-1.9-0.2-3.6-0.2h-2V375.1z"/>
		<path class="st1" d="M169.4,373.5c3.5-0.1,6.4,0.9,8.5,3.1c2.2,2.2,3.3,4.9,3.3,8.2c0,2.8-0.8,5.2-2.5,7.4
			c-2.2,2.8-5.2,4.2-9.2,4.2s-7-1.3-9.2-4c-1.7-2.1-2.6-4.6-2.6-7.5c0-3.3,1.1-6,3.3-8.2C163.4,374.4,166.1,373.4,169.4,373.5z
			 M169.6,374.6c-2,0-3.5,1-4.6,3.1c-0.9,1.7-1.3,4.1-1.3,7.3c0,3.8,0.7,6.5,2,8.3c0.9,1.3,2.2,1.9,3.9,1.9c1.1,0,2-0.3,2.8-0.8
			c1-0.7,1.7-1.8,2.2-3.3s0.8-3.5,0.8-6c0-2.9-0.3-5.1-0.8-6.5s-1.2-2.5-2.1-3.1C171.6,374.9,170.7,374.6,169.6,374.6z"/>
		<path class="st1" d="M190.7,373.8l10.9,13.7V378c0-1.3-0.2-2.2-0.6-2.7c-0.5-0.6-1.4-0.9-2.6-0.9v-0.6h7.3v0.6
			c-0.9,0.1-1.6,0.3-1.9,0.5c-0.3,0.2-0.6,0.5-0.7,0.9c-0.2,0.4-0.3,1.2-0.3,2.2v18.3h-0.6L187.3,378v14c0,1.3,0.3,2.1,0.9,2.6
			c0.6,0.4,1.2,0.7,2,0.7h0.5v0.6h-7.8v-0.6c1.2,0,2.1-0.3,2.5-0.7c0.5-0.5,0.7-1.3,0.7-2.5v-15.5l-0.5-0.6c-0.5-0.6-0.9-1-1.2-1.2
			c-0.4-0.2-0.9-0.3-1.5-0.3v-0.6h7.8V373.8z"/>
		<path class="st1" d="M206.9,395.9v-0.6h0.7c0.6,0,1.1-0.1,1.5-0.3c0.3-0.2,0.6-0.5,0.8-0.8c0.1-0.2,0.1-0.9,0.1-2v-14.5
			c0-1.1-0.1-1.8-0.2-2.1c-0.1-0.3-0.4-0.5-0.7-0.7c-0.4-0.2-0.9-0.3-1.5-0.3h-0.7V374h9.9c2.6,0,4.7,0.4,6.3,1.1
			c2,0.9,3.4,2.2,4.5,4c1,1.8,1.5,3.8,1.5,6c0,1.5-0.2,3-0.7,4.3s-1.1,2.4-1.9,3.2c-0.8,0.8-1.7,1.5-2.7,2s-2.3,0.9-3.8,1.2
			c-0.7,0.1-1.7,0.2-3.1,0.2h-10V395.9z M215.2,375.1v17.2c0,0.9,0,1.5,0.1,1.7s0.2,0.4,0.4,0.5c0.3,0.2,0.7,0.2,1.3,0.2
			c1.8,0,3.2-0.6,4.1-1.9c1.3-1.7,1.9-4.3,1.9-7.8c0-2.8-0.4-5.1-1.3-6.8c-0.7-1.3-1.6-2.2-2.7-2.7
			C218.3,375.2,217.1,375.1,215.2,375.1z"/>
		<path class="st1" d="M244.3,389.6h-7.8l-0.9,2.1c-0.3,0.7-0.5,1.3-0.5,1.8c0,0.6,0.2,1.1,0.7,1.4c0.3,0.2,1,0.3,2.2,0.4v0.6h-7.3
			v-0.6c0.8-0.1,1.4-0.4,1.9-1c0.5-0.5,1.1-1.6,1.9-3.3l7.9-17.6h0.3l7.9,18.1c0.8,1.7,1.4,2.8,1.9,3.2c0.4,0.3,0.9,0.5,1.6,0.6v0.6
			h-10.7v-0.6h0.4c0.9,0,1.5-0.1,1.8-0.4c0.2-0.2,0.4-0.4,0.4-0.7c0-0.2,0-0.4-0.1-0.6c0-0.1-0.2-0.5-0.5-1.2L244.3,389.6z
			 M243.7,388.4l-3.3-7.6l-3.4,7.6H243.7z"/>
		<path class="st1" d="M273,373.8v6h-0.6c-0.3-1.4-0.7-2.4-1.2-3c-0.4-0.6-1-1.1-1.7-1.4c-0.4-0.2-1.1-0.3-2.2-0.3h-1.6v17
			c0,1.1,0.1,1.8,0.2,2.1c0.1,0.3,0.4,0.5,0.7,0.7c0.4,0.2,0.9,0.3,1.5,0.3h0.7v0.6h-11.5v-0.6h0.7c0.6,0,1.2-0.1,1.5-0.3
			c0.3-0.2,0.5-0.4,0.7-0.8c0.1-0.3,0.2-0.9,0.2-2v-17h-1.6c-1.5,0-2.6,0.3-3.2,0.9c-0.9,0.9-1.5,2.1-1.8,3.8h-0.6v-6L273,373.8
			L273,373.8z"/>
		<path class="st1" d="M286.3,395.3v0.6h-11.5v-0.6h0.7c0.6,0,1.2-0.1,1.5-0.3c0.3-0.2,0.5-0.4,0.6-0.8c0.1-0.3,0.2-0.9,0.2-2v-14.5
			c0-1.1-0.1-1.8-0.2-2.1c-0.1-0.3-0.4-0.5-0.7-0.7c-0.4-0.2-0.9-0.3-1.5-0.3h-0.7V374h11.5v0.6h-0.7c-0.6,0-1.2,0.1-1.5,0.3
			c-0.3,0.2-0.5,0.4-0.7,0.8c-0.1,0.3-0.2,0.9-0.2,2v14.5c0,1.1,0.1,1.8,0.2,2.1c0.1,0.3,0.4,0.5,0.7,0.7c0.4,0.2,0.9,0.3,1.5,0.3
			H286.3z"/>
		<path class="st1" d="M299.9,373.5c3.5-0.1,6.4,0.9,8.5,3.1c2.2,2.2,3.3,4.9,3.3,8.2c0,2.8-0.8,5.2-2.5,7.4
			c-2.2,2.8-5.2,4.2-9.2,4.2s-7-1.3-9.2-4c-1.7-2.1-2.6-4.6-2.6-7.5c0-3.3,1.1-6,3.3-8.2C294,374.4,296.7,373.4,299.9,373.5z
			 M300.1,374.6c-2,0-3.5,1-4.6,3.1c-0.9,1.7-1.3,4.1-1.3,7.3c0,3.8,0.7,6.5,2,8.3c0.9,1.3,2.2,1.9,3.9,1.9c1.1,0,2-0.3,2.8-0.8
			c1-0.7,1.7-1.8,2.2-3.3s0.8-3.5,0.8-6c0-2.9-0.3-5.1-0.8-6.5s-1.2-2.5-2.1-3.1C302.2,374.9,301.2,374.6,300.1,374.6z"/>
		<path class="st1" d="M321.2,373.8l10.9,13.7V378c0-1.3-0.2-2.2-0.6-2.7c-0.5-0.6-1.4-0.9-2.6-0.9v-0.6h7.3v0.6
			c-0.9,0.1-1.6,0.3-1.9,0.5s-0.6,0.5-0.7,0.9c-0.2,0.4-0.3,1.2-0.3,2.2v18.3h-0.6L317.9,378v14c0,1.3,0.3,2.1,0.9,2.6
			c0.6,0.4,1.2,0.7,2,0.7h0.5v0.6h-7.8v-0.6c1.2,0,2.1-0.3,2.5-0.7c0.5-0.5,0.7-1.3,0.7-2.5v-15.5l-0.5-0.6c-0.5-0.6-0.9-1-1.2-1.2
			c-0.4-0.2-0.9-0.3-1.5-0.3v-0.6h7.7V373.8z"/>
		<path class="st1" d="M361.1,388.4l6-14.5h9v0.6h-0.7c-0.6,0-1.2,0.1-1.6,0.3c-0.3,0.2-0.5,0.4-0.6,0.8c-0.1,0.3-0.2,0.9-0.2,2
			v14.5c0,1.1,0.1,1.8,0.2,2.1c0.1,0.3,0.4,0.5,0.7,0.7c0.4,0.2,0.9,0.3,1.5,0.3h0.7v0.6h-11.5v-0.6h0.7c0.6,0,1.2-0.1,1.6-0.3
			c0.3-0.2,0.5-0.4,0.6-0.8c0.1-0.3,0.2-0.9,0.2-2v-16.3l-8.4,20.1h-0.4l-8.6-19.9v15.5c0,1.1,0,1.7,0.1,2c0.1,0.5,0.4,1,0.9,1.3
			s1.2,0.5,2.2,0.5v0.6H346v-0.6h0.2c0.5,0,0.9-0.1,1.4-0.2c0.4-0.2,0.7-0.4,1-0.7c0.2-0.3,0.4-0.7,0.5-1.2c0-0.1,0-0.7,0-1.7v-13.9
			c0-1.1-0.1-1.8-0.2-2.1c-0.1-0.3-0.4-0.5-0.7-0.7c-0.4-0.2-0.9-0.3-1.5-0.3H346v-0.6h9L361.1,388.4z"/>
		<path class="st1" d="M389.5,373.5c3.5-0.1,6.4,0.9,8.5,3.1c2.2,2.2,3.3,4.9,3.3,8.2c0,2.8-0.8,5.2-2.5,7.4
			c-2.2,2.8-5.2,4.2-9.2,4.2s-7-1.3-9.2-4c-1.7-2.1-2.6-4.6-2.6-7.5c0-3.3,1.1-6,3.3-8.2C383.5,374.4,386.3,373.4,389.5,373.5z
			 M389.7,374.6c-2,0-3.5,1-4.6,3.1c-0.9,1.7-1.3,4.1-1.3,7.3c0,3.8,0.7,6.5,2,8.3c0.9,1.3,2.2,1.9,3.9,1.9c1.1,0,2-0.3,2.8-0.8
			c1-0.7,1.7-1.8,2.2-3.3s0.8-3.5,0.8-6c0-2.9-0.3-5.1-0.8-6.5s-1.2-2.5-2.1-3.1C391.8,374.9,390.8,374.6,389.7,374.6z"/>
		<path class="st1" d="M411.6,385.3v6.8c0,1.1,0.1,1.8,0.2,2.1c0.1,0.3,0.4,0.5,0.7,0.7c0.4,0.2,0.9,0.3,1.5,0.3h0.7v0.6h-11.5v-0.6
			h0.7c0.6,0,1.2-0.1,1.5-0.3c0.3-0.2,0.5-0.4,0.6-0.8c0.1-0.3,0.2-0.9,0.2-2v-14.5c0-1.1-0.1-1.8-0.2-2.1c-0.1-0.3-0.4-0.5-0.7-0.7
			c-0.4-0.2-0.9-0.3-1.5-0.3h-0.7v-0.6h11.5v0.6H414c-0.6,0-1.2,0.1-1.5,0.3c-0.3,0.2-0.5,0.4-0.7,0.8c-0.1,0.3-0.2,0.9-0.2,2v6.2
			h7.8v-6.2c0-1.1-0.1-1.8-0.2-2.1c-0.1-0.3-0.4-0.5-0.7-0.7c-0.4-0.2-0.9-0.3-1.5-0.3h-0.7v-0.6h11.5v0.6h-0.7
			c-0.6,0-1.2,0.1-1.5,0.3c-0.3,0.2-0.5,0.4-0.7,0.8c-0.1,0.3-0.2,0.9-0.2,2v14.5c0,1.1,0.1,1.8,0.2,2.1c0.1,0.3,0.4,0.5,0.7,0.7
			c0.4,0.2,0.9,0.3,1.5,0.3h0.7v0.6h-11.5v-0.6h0.7c0.6,0,1.2-0.1,1.5-0.3c0.3-0.2,0.5-0.4,0.7-0.8c0.1-0.3,0.2-0.9,0.2-2v-6.8
			H411.6z"/>
		<path class="st1" d="M442.2,389.6h-7.8l-0.9,2.1c-0.3,0.7-0.5,1.3-0.5,1.8c0,0.6,0.2,1.1,0.7,1.4c0.3,0.2,1,0.3,2.2,0.4v0.6h-7.3
			v-0.6c0.8-0.1,1.4-0.4,1.9-1c0.5-0.5,1.1-1.6,1.9-3.3l7.9-17.6h0.3l7.9,18.1c0.8,1.7,1.4,2.8,1.9,3.2c0.4,0.3,0.9,0.5,1.6,0.6v0.6
			h-10.7v-0.6h0.4c0.9,0,1.5-0.1,1.8-0.4c0.2-0.2,0.4-0.4,0.4-0.7c0-0.2,0-0.4-0.1-0.6c0-0.1-0.2-0.5-0.5-1.2L442.2,389.6z
			 M441.7,388.4l-3.3-7.6l-3.4,7.6H441.7z"/>
		<path class="st1" d="M468.3,388.4l6-14.5h9v0.6h-0.7c-0.6,0-1.2,0.1-1.6,0.3c-0.3,0.2-0.5,0.4-0.6,0.8c-0.1,0.3-0.2,0.9-0.2,2
			v14.5c0,1.1,0.1,1.8,0.2,2.1c0.1,0.3,0.4,0.5,0.7,0.7c0.4,0.2,0.9,0.3,1.5,0.3h0.7v0.6h-11.5v-0.6h0.7c0.6,0,1.2-0.1,1.6-0.3
			c0.3-0.2,0.5-0.4,0.6-0.8c0.1-0.3,0.2-0.9,0.2-2v-16.3l-8.4,20.1H466l-8.6-19.9v15.5c0,1.1,0,1.7,0.1,2c0.1,0.5,0.4,1,0.9,1.3
			s1.2,0.5,2.2,0.5v0.6h-7.5v-0.6h0.2c0.5,0,0.9-0.1,1.4-0.2c0.4-0.2,0.7-0.4,1-0.7c0.2-0.3,0.4-0.7,0.5-1.2c0-0.1,0-0.7,0-1.7
			v-13.9c0-1.1-0.1-1.8-0.2-2.1c-0.1-0.3-0.4-0.5-0.7-0.7c-0.4-0.2-0.9-0.3-1.5-0.3h-0.7v-0.6h9L468.3,388.4z"/>
		<path class="st1" d="M499.7,388.4l6-14.5h9v0.6H514c-0.6,0-1.2,0.1-1.6,0.3c-0.3,0.2-0.5,0.4-0.6,0.8c-0.1,0.3-0.2,0.9-0.2,2v14.5
			c0,1.1,0.1,1.8,0.2,2.1c0.1,0.3,0.4,0.5,0.7,0.7c0.4,0.2,0.9,0.3,1.5,0.3h0.7v0.6h-11.5v-0.6h0.7c0.6,0,1.2-0.1,1.6-0.3
			c0.3-0.2,0.5-0.4,0.6-0.8c0.1-0.3,0.2-0.9,0.2-2v-16.3l-8.4,20.1h-0.4l-8.6-19.9v15.5c0,1.1,0,1.7,0.1,2c0.1,0.5,0.4,1,0.9,1.3
			s1.2,0.5,2.2,0.5v0.6h-7.5v-0.6h0.2c0.5,0,0.9-0.1,1.4-0.2c0.4-0.2,0.7-0.4,1-0.7c0.2-0.3,0.4-0.7,0.5-1.2c0-0.1,0-0.7,0-1.7
			v-13.9c0-1.1-0.1-1.8-0.2-2.1c-0.1-0.3-0.4-0.5-0.7-0.7c-0.4-0.2-0.9-0.3-1.5-0.3h-0.7v-0.6h9L499.7,388.4z"/>
		<path class="st1" d="M524.3,375.1v9h0.4c1.4,0,2.4-0.4,3-1.3s1-2.2,1.2-3.9h0.6v11.5h-0.6c-0.1-1.3-0.4-2.3-0.8-3.1
			c-0.4-0.8-0.9-1.3-1.5-1.6c-0.6-0.3-1.4-0.4-2.4-0.4v6.2c0,1.2,0.1,2,0.2,2.2c0.1,0.3,0.3,0.5,0.6,0.7s0.7,0.3,1.4,0.3h1.3
			c2.1,0,3.7-0.5,4.9-1.4c1.2-1,2.1-2.4,2.7-4.4h0.6l-1,7h-19v-0.6h0.7c0.6,0,1.2-0.1,1.5-0.3c0.3-0.2,0.5-0.4,0.6-0.8
			c0.1-0.3,0.2-0.9,0.2-2v-14.5c0-1,0-1.6-0.1-1.8c-0.1-0.4-0.3-0.7-0.6-0.9c-0.4-0.3-1-0.5-1.7-0.5h-0.7v-0.6h18.4v6.5h-0.6
			c-0.3-1.6-0.8-2.7-1.3-3.4c-0.6-0.7-1.4-1.2-2.4-1.5c-0.6-0.2-1.7-0.3-3.4-0.3h-2.2V375.1z"/>
		<path class="st1" d="M537.8,395.9v-0.6h0.7c0.6,0,1.1-0.1,1.5-0.3c0.3-0.2,0.6-0.5,0.8-0.8c0.1-0.2,0.1-0.9,0.1-2v-14.5
			c0-1.1-0.1-1.8-0.2-2.1c-0.1-0.3-0.4-0.5-0.7-0.7c-0.4-0.2-0.9-0.3-1.5-0.3h-0.7V374h9.9c2.6,0,4.7,0.4,6.3,1.1
			c2,0.9,3.4,2.2,4.5,4c1,1.8,1.5,3.8,1.5,6c0,1.5-0.2,3-0.7,4.3s-1.1,2.4-1.9,3.2c-0.8,0.8-1.7,1.5-2.7,2s-2.3,0.9-3.8,1.2
			c-0.7,0.1-1.7,0.2-3.1,0.2h-10V395.9z M546.2,375.1v17.2c0,0.9,0,1.5,0.1,1.7s0.2,0.4,0.4,0.5c0.3,0.2,0.7,0.2,1.3,0.2
			c1.8,0,3.2-0.6,4.1-1.9c1.3-1.7,1.9-4.3,1.9-7.8c0-2.8-0.4-5.1-1.3-6.8c-0.7-1.3-1.6-2.2-2.7-2.7
			C549.3,375.2,548,375.1,546.2,375.1z"/>
		<path class="st1" d="M592.8,373.8v0.6c-0.8,0.1-1.5,0.6-2.1,1.3c-0.5,0.5-1.1,1.8-2,3.8l-7.6,16.8h-0.5l-7.6-17.5
			c-0.9-2.1-1.5-3.4-1.8-3.7c-0.3-0.4-0.9-0.6-1.7-0.7v-0.6h10.6v0.6h-0.4c-1,0-1.6,0.1-1.9,0.4c-0.2,0.2-0.4,0.4-0.4,0.7
			c0,0.2,0,0.4,0.1,0.7c0.1,0.3,0.4,1,0.9,2.1l4.7,11l4.4-9.8c0.5-1.2,0.8-2,1-2.4c0.1-0.4,0.2-0.7,0.2-1s-0.1-0.6-0.3-0.9
			c-0.2-0.2-0.4-0.4-0.8-0.6c-0.5-0.2-1.1-0.3-1.9-0.3v-0.6h7.1V373.8z"/>
		<path class="st1" d="M191.6,449.6v6.1c0,1.2,0.1,1.9,0.2,2.2c0.1,0.3,0.4,0.6,0.8,0.7c0.4,0.2,1.1,0.3,2.1,0.3v0.6h-11.2v-0.6
			c1,0,1.7-0.1,2.1-0.3c0.4-0.2,0.6-0.4,0.8-0.7c0.1-0.3,0.2-1,0.2-2.2v-14.3c0-1.2-0.1-1.9-0.2-2.2c-0.1-0.3-0.4-0.6-0.8-0.7
			c-0.4-0.2-1.1-0.3-2.1-0.3v-0.6h9.6c3.2,0,5.4,0.6,6.8,1.7c1.4,1.1,2.1,2.5,2.1,4.2c0,1.4-0.4,2.7-1.3,3.7c-0.9,1-2.1,1.7-3.7,2.1
			C195.9,449.4,194.1,449.6,191.6,449.6z M191.6,438.8v9.5c0.4,0,0.6,0,0.8,0c1.3,0,2.3-0.4,3.1-1.2c0.7-0.8,1.1-2,1.1-3.6
			s-0.4-2.8-1.1-3.6c-0.7-0.8-1.8-1.1-3.2-1.1L191.6,438.8L191.6,438.8z"/>
		<path class="st1" d="M215.8,437.2c3.5-0.1,6.4,0.9,8.5,3.1c2.2,2.2,3.3,4.9,3.3,8.2c0,2.8-0.8,5.2-2.5,7.4
			c-2.2,2.8-5.2,4.2-9.2,4.2s-7-1.3-9.2-4c-1.7-2.1-2.6-4.6-2.6-7.5c0-3.3,1.1-6,3.3-8.2C209.8,438.1,212.6,437.1,215.8,437.2z
			 M216,438.2c-2,0-3.5,1-4.6,3.1c-0.9,1.7-1.3,4.1-1.3,7.3c0,3.8,0.7,6.5,2,8.3c0.9,1.3,2.2,1.9,3.9,1.9c1.1,0,2-0.3,2.8-0.8
			c1-0.7,1.7-1.8,2.2-3.3s0.8-3.5,0.8-6c0-2.9-0.3-5.1-0.8-6.5s-1.2-2.5-2.1-3.1C218.1,438.5,217.1,438.2,216,438.2z"/>
		<path class="st1" d="M229.6,437.5H241v0.6h-0.6c-0.9,0-1.4,0.1-1.8,0.3c-0.3,0.2-0.5,0.4-0.7,0.7c-0.1,0.3-0.2,1.1-0.2,2.4v10.8
			c0,2,0.1,3.3,0.4,3.9c0.3,0.6,0.8,1.2,1.5,1.6s1.5,0.6,2.6,0.6c1.2,0,2.2-0.3,3-0.8s1.5-1.3,1.9-2.2c0.4-0.9,0.6-2.6,0.6-4.9v-9
			c0-1-0.1-1.7-0.3-2.1s-0.5-0.7-0.8-0.9c-0.5-0.2-1.2-0.4-2.1-0.4v-0.6h7.6v0.6h-0.5c-0.6,0-1.1,0.1-1.5,0.4
			c-0.4,0.2-0.7,0.6-0.9,1.1c-0.1,0.3-0.2,1-0.2,1.9v8.4c0,2.6-0.2,4.5-0.5,5.6s-1.2,2.2-2.5,3.2s-3.1,1.4-5.4,1.4
			c-1.9,0-3.4-0.3-4.4-0.8c-1.4-0.7-2.4-1.6-3-2.7s-0.9-2.5-0.9-4.4v-10.8c0-1.3-0.1-2.1-0.2-2.4c-0.1-0.3-0.4-0.6-0.7-0.7
			c-0.3-0.2-1-0.3-1.9-0.3L229.6,437.5L229.6,437.5z"/>
		<path class="st1" d="M261.7,449.5v6.2c0,1.2,0.1,1.9,0.2,2.2c0.1,0.3,0.4,0.6,0.8,0.7c0.4,0.2,1.1,0.3,2.1,0.3v0.6h-11.3v-0.6
			c1,0,1.7-0.1,2.1-0.3c0.4-0.2,0.6-0.4,0.8-0.7c0.1-0.3,0.2-1,0.2-2.2v-14.3c0-1.2-0.1-1.9-0.2-2.2c-0.1-0.3-0.4-0.6-0.8-0.7
			c-0.4-0.2-1.1-0.3-2.1-0.3v-0.6h10.2c2.7,0,4.6,0.2,5.8,0.6c1.2,0.4,2.2,1,3,2s1.2,2.2,1.2,3.5c0,1.6-0.6,3-1.8,4
			c-0.7,0.7-1.8,1.2-3.1,1.5l5.3,7.5c0.7,1,1.2,1.6,1.5,1.8c0.4,0.3,1,0.5,1.5,0.6v0.6h-6.9l-7.1-10h-1.4V449.5z M261.7,438.7v9.6
			h0.9c1.5,0,2.6-0.1,3.4-0.4c0.7-0.3,1.3-0.8,1.8-1.5c0.4-0.7,0.6-1.7,0.6-2.8c0-1.7-0.4-2.9-1.2-3.7c-0.8-0.8-2-1.2-3.8-1.2H261.7
			z"/>
		<path class="st1" d="M306.2,451.8l-0.8,7.7h-19.5v-0.6h0.7c0.6,0,1.2-0.1,1.5-0.3c0.3-0.2,0.5-0.4,0.6-0.8c0.1-0.3,0.2-0.9,0.2-2
			v-14.5c0-1.1-0.1-1.8-0.2-2.1c-0.1-0.3-0.4-0.5-0.7-0.7c-0.4-0.2-0.9-0.3-1.5-0.3h-0.7v-0.6h11.7v0.6h-1c-0.6,0-1.2,0.1-1.5,0.3
			c-0.3,0.2-0.5,0.4-0.7,0.8c-0.1,0.3-0.2,0.9-0.2,2v14c0,1.1,0.1,1.8,0.2,2.2c0.1,0.3,0.4,0.5,0.8,0.7c0.3,0.1,0.9,0.1,2,0.1h1.8
			c1.2,0,2.1-0.2,2.9-0.6s1.5-1.1,2-1.9c0.6-0.9,1.1-2.2,1.6-3.9h0.8V451.8z"/>
		<path class="st1" d="M321.2,453.3h-7.8l-0.9,2.1c-0.3,0.7-0.5,1.3-0.5,1.8c0,0.6,0.2,1.1,0.7,1.4c0.3,0.2,1,0.3,2.2,0.4v0.6h-7.3
			V459c0.8-0.1,1.4-0.4,1.9-1c0.5-0.5,1.1-1.6,1.9-3.3l7.9-17.6h0.3l7.9,18.1c0.8,1.7,1.4,2.8,1.9,3.2c0.4,0.3,0.9,0.5,1.6,0.6v0.6
			h-10.7V459h0.4c0.9,0,1.5-0.1,1.8-0.4c0.2-0.2,0.4-0.4,0.4-0.7c0-0.2,0-0.4-0.1-0.6c0-0.1-0.2-0.5-0.5-1.2L321.2,453.3z
			 M320.6,452.1l-3.3-7.6l-3.4,7.6H320.6z"/>
		<path class="st1" d="M353.5,437l0.2,7.3H353c-0.3-1.8-1.1-3.3-2.3-4.4c-1.2-1.1-2.6-1.7-4-1.7c-1.1,0-2,0.3-2.6,0.9s-1,1.3-1,2
			c0,0.5,0.1,0.9,0.3,1.3c0.3,0.5,0.8,1,1.5,1.5c0.5,0.4,1.7,1,3.5,1.9c2.6,1.3,4.3,2.5,5.2,3.6c0.9,1.1,1.3,2.4,1.3,3.9
			c0,1.8-0.7,3.4-2.2,4.7c-1.4,1.3-3.3,2-5.5,2c-0.7,0-1.3-0.1-2-0.2c-0.6-0.1-1.4-0.4-2.3-0.8c-0.5-0.2-0.9-0.3-1.3-0.3
			c-0.3,0-0.6,0.1-0.9,0.3c-0.3,0.2-0.6,0.5-0.8,1h-0.6v-8.3h0.6c0.5,2.3,1.4,4.1,2.8,5.4c1.4,1.2,2.8,1.8,4.4,1.8
			c1.2,0,2.2-0.3,2.9-1c0.7-0.7,1.1-1.4,1.1-2.3c0-0.5-0.1-1-0.4-1.5s-0.7-1-1.3-1.4c-0.6-0.4-1.6-1-3-1.7c-2-1-3.4-1.8-4.3-2.5
			s-1.6-1.5-2-2.3c-0.5-0.9-0.7-1.8-0.7-2.8c0-1.8,0.6-3.2,1.9-4.5c1.3-1.2,2.9-1.9,4.9-1.9c0.7,0,1.4,0.1,2.1,0.3
			c0.5,0.1,1.1,0.4,1.9,0.7c0.7,0.4,1.2,0.5,1.5,0.5s0.5-0.1,0.7-0.3c0.2-0.2,0.3-0.6,0.5-1.2H353.5z"/>
		<path class="st1" d="M369.2,437.2c3.5-0.1,6.4,0.9,8.5,3.1c2.2,2.2,3.3,4.9,3.3,8.2c0,2.8-0.8,5.2-2.5,7.4
			c-2.2,2.8-5.2,4.2-9.2,4.2s-7-1.3-9.2-4c-1.7-2.1-2.6-4.6-2.6-7.5c0-3.3,1.1-6,3.3-8.2C363.2,438.1,365.9,437.1,369.2,437.2z
			 M369.4,438.2c-2,0-3.5,1-4.6,3.1c-0.9,1.7-1.3,4.1-1.3,7.3c0,3.8,0.7,6.5,2,8.3c0.9,1.3,2.2,1.9,3.9,1.9c1.1,0,2-0.3,2.8-0.8
			c1-0.7,1.7-1.8,2.2-3.3s0.8-3.5,0.8-6c0-2.9-0.3-5.1-0.8-6.5s-1.2-2.5-2.1-3.1S370.5,438.2,369.4,438.2z"/>
		<path class="st1" d="M403.2,451.8l-0.8,7.7h-19.5v-0.6h0.7c0.6,0,1.2-0.1,1.5-0.3c0.3-0.2,0.5-0.4,0.6-0.8c0.1-0.3,0.2-0.9,0.2-2
			v-14.5c0-1.1-0.1-1.8-0.2-2.1c-0.1-0.3-0.4-0.5-0.7-0.7c-0.4-0.2-0.9-0.3-1.5-0.3h-0.7v-0.6h11.7v0.6h-1c-0.6,0-1.2,0.1-1.5,0.3
			c-0.3,0.2-0.5,0.4-0.7,0.8c-0.1,0.3-0.2,0.9-0.2,2v14c0,1.1,0.1,1.8,0.2,2.2c0.1,0.3,0.4,0.5,0.8,0.7c0.3,0.1,0.9,0.1,2,0.1h1.8
			c1.2,0,2.1-0.2,2.9-0.6s1.5-1.1,2-1.9c0.6-0.9,1.1-2.2,1.6-3.9h0.8V451.8z"/>
		<path class="st1" d="M416.6,458.9v0.6h-11.5v-0.6h0.7c0.6,0,1.2-0.1,1.5-0.3c0.3-0.2,0.5-0.4,0.6-0.8c0.1-0.3,0.2-0.9,0.2-2v-14.5
			c0-1.1-0.1-1.8-0.2-2.1c-0.1-0.3-0.4-0.5-0.7-0.7c-0.4-0.2-0.9-0.3-1.5-0.3H405v-0.6h11.5v0.6h-0.7c-0.6,0-1.2,0.1-1.5,0.3
			c-0.3,0.2-0.5,0.4-0.7,0.8c-0.1,0.3-0.2,0.9-0.2,2v14.5c0,1.1,0.1,1.8,0.2,2.1c0.1,0.3,0.4,0.5,0.7,0.7c0.4,0.2,0.9,0.3,1.5,0.3
			H416.6z"/>
		<path class="st1" d="M417.8,459.5v-0.6h0.7c0.6,0,1.1-0.1,1.5-0.3c0.3-0.2,0.6-0.5,0.8-0.8c0.1-0.2,0.1-0.9,0.1-2v-14.5
			c0-1.1-0.1-1.8-0.2-2.1c-0.1-0.3-0.4-0.5-0.7-0.7c-0.4-0.2-0.9-0.3-1.5-0.3h-0.7v-0.6h9.9c2.6,0,4.7,0.4,6.3,1.1
			c2,0.9,3.4,2.2,4.5,4c1,1.8,1.5,3.8,1.5,6c0,1.5-0.2,3-0.7,4.3s-1.1,2.4-1.9,3.2c-0.8,0.8-1.7,1.5-2.7,2s-2.3,0.9-3.8,1.2
			c-0.7,0.1-1.7,0.2-3.1,0.2h-10V459.5z M426.2,438.8V456c0,0.9,0,1.5,0.1,1.7s0.2,0.4,0.4,0.5c0.3,0.2,0.7,0.2,1.3,0.2
			c1.8,0,3.2-0.6,4.1-1.9c1.3-1.7,1.9-4.3,1.9-7.8c0-2.8-0.4-5.1-1.3-6.8c-0.7-1.3-1.6-2.2-2.7-2.7
			C429.3,438.9,428,438.7,426.2,438.8z"/>
		<path class="st1" d="M455.2,453.3h-7.8l-0.9,2.1c-0.3,0.7-0.5,1.3-0.5,1.8c0,0.6,0.2,1.1,0.7,1.4c0.3,0.2,1,0.3,2.2,0.4v0.6h-7.3
			V459c0.8-0.1,1.4-0.4,1.9-1c0.5-0.5,1.1-1.6,1.9-3.3l7.9-17.6h0.3l7.9,18.1c0.8,1.7,1.4,2.8,1.9,3.2c0.4,0.3,0.9,0.5,1.6,0.6v0.6
			h-10.7V459h0.4c0.9,0,1.5-0.1,1.8-0.4c0.2-0.2,0.4-0.4,0.4-0.7c0-0.2,0-0.4-0.1-0.6c0-0.1-0.2-0.5-0.5-1.2L455.2,453.3z
			 M454.6,452.1l-3.3-7.6l-3.4,7.6H454.6z"/>
		<path class="st1" d="M474.2,449.5v6.2c0,1.2,0.1,1.9,0.2,2.2c0.1,0.3,0.4,0.6,0.8,0.7c0.4,0.2,1.1,0.3,2.1,0.3v0.6H466v-0.6
			c1,0,1.7-0.1,2.1-0.3c0.4-0.2,0.6-0.4,0.8-0.7c0.1-0.3,0.2-1,0.2-2.2v-14.3c0-1.2-0.1-1.9-0.2-2.2c-0.1-0.3-0.4-0.6-0.8-0.7
			c-0.4-0.2-1.1-0.3-2.1-0.3v-0.6h10.2c2.7,0,4.6,0.2,5.8,0.6c1.2,0.4,2.2,1,3,2s1.2,2.2,1.2,3.5c0,1.6-0.6,3-1.8,4
			c-0.7,0.7-1.8,1.2-3.1,1.5l5.3,7.5c0.7,1,1.2,1.6,1.5,1.8c0.4,0.3,1,0.5,1.5,0.6v0.6h-6.9l-7.1-10h-1.4V449.5z M474.2,438.7v9.6
			h0.9c1.5,0,2.6-0.1,3.4-0.4c0.7-0.3,1.3-0.8,1.8-1.5c0.4-0.7,0.6-1.7,0.6-2.8c0-1.7-0.4-2.9-1.2-3.7c-0.8-0.8-2-1.2-3.8-1.2H474.2
			z"/>
		<path class="st1" d="M501.6,458.9v0.6H490v-0.6h0.7c0.6,0,1.2-0.1,1.5-0.3c0.3-0.2,0.5-0.4,0.6-0.8c0.1-0.3,0.2-0.9,0.2-2v-14.5
			c0-1.1-0.1-1.8-0.2-2.1c-0.1-0.3-0.4-0.5-0.7-0.7c-0.4-0.2-0.9-0.3-1.5-0.3H490v-0.6h11.5v0.6h-0.7c-0.6,0-1.2,0.1-1.5,0.3
			c-0.3,0.2-0.5,0.4-0.7,0.8c-0.1,0.3-0.2,0.9-0.2,2v14.5c0,1.1,0.1,1.8,0.2,2.1c0.1,0.3,0.4,0.5,0.7,0.7c0.4,0.2,0.9,0.3,1.5,0.3
			H501.6z"/>
		<path class="st1" d="M523.3,437.5v6h-0.6c-0.3-1.4-0.7-2.4-1.2-3c-0.4-0.6-1-1.1-1.7-1.4c-0.4-0.2-1.1-0.3-2.2-0.3H516v17
			c0,1.1,0.1,1.8,0.2,2.1c0.1,0.3,0.4,0.5,0.7,0.7c0.4,0.2,0.9,0.3,1.5,0.3h0.7v0.6h-11.5v-0.6h0.7c0.6,0,1.2-0.1,1.5-0.3
			c0.3-0.2,0.5-0.4,0.7-0.8c0.1-0.3,0.2-0.9,0.2-2v-17h-1.6c-1.5,0-2.6,0.3-3.2,0.9c-0.9,0.9-1.5,2.1-1.8,3.8h-0.6v-6L523.3,437.5
			L523.3,437.5z"/>
		<path class="st1" d="M533.6,438.8v9h0.4c1.4,0,2.4-0.4,3-1.3s1-2.2,1.2-3.9h0.6v11.5h-0.6c-0.1-1.3-0.4-2.3-0.8-3.1
			c-0.4-0.8-0.9-1.3-1.5-1.6c-0.6-0.3-1.4-0.4-2.4-0.4v6.2c0,1.2,0.1,2,0.2,2.2c0.1,0.3,0.3,0.5,0.6,0.7s0.7,0.3,1.4,0.3h1.3
			c2.1,0,3.7-0.5,4.9-1.4c1.2-1,2.1-2.4,2.7-4.4h0.6l-1,7h-19V459h0.7c0.6,0,1.2-0.1,1.5-0.3c0.3-0.2,0.5-0.4,0.6-0.8
			c0.1-0.3,0.2-0.9,0.2-2v-14.5c0-1,0-1.6-0.1-1.8c-0.1-0.4-0.3-0.7-0.6-0.9c-0.4-0.3-1-0.5-1.7-0.5h-0.7v-0.6h18.4v6.5H543
			c-0.3-1.6-0.8-2.7-1.3-3.4c-0.6-0.7-1.4-1.2-2.4-1.5c-0.6-0.2-1.7-0.3-3.4-0.3h-2.3V438.8z"/>
	</g>
</g>
</svg>
