<?xml version="1.0" encoding="utf-8"?>
<!-- Generator: Adobe Illustrator 23.0.5, SVG Export Plug-In . SVG Version: 6.00 Build 0)  -->
<svg version="1.1" id="Calque_1" xmlns="http://www.w3.org/2000/svg" xmlns:xlink="http://www.w3.org/1999/xlink" x="0px" y="0px"
	 viewBox="0 0 690.1 635.2" style="enable-background:new 0 0 690.1 635.2;" xml:space="preserve">
<style type="text/css">
	.st0{fill:#FFFFFF;stroke:#666666;stroke-width:3.0221;stroke-miterlimit:10;}
	.st1{clip-path:url(#SVGID_2_);fill:url(#SVGID_3_);}
	.st2{clip-path:url(#SVGID_5_);fill:url(#SVGID_6_);}
	.st3{clip-path:url(#SVGID_8_);fill:url(#SVGID_9_);}
	.st4{clip-path:url(#SVGID_11_);fill:url(#SVGID_12_);}
	.st5{clip-path:url(#SVGID_14_);fill:url(#SVGID_15_);}
	.st6{clip-path:url(#SVGID_17_);fill:url(#SVGID_18_);}
	.st7{clip-path:url(#SVGID_20_);fill:url(#SVGID_21_);}
	.st8{clip-path:url(#SVGID_23_);fill:url(#SVGID_24_);}
	.st9{clip-path:url(#SVGID_26_);fill:url(#SVGID_27_);}
	.st10{clip-path:url(#SVGID_29_);fill:url(#SVGID_30_);}
	.st11{clip-path:url(#SVGID_32_);fill:url(#SVGID_33_);}
	.st12{clip-path:url(#SVGID_35_);fill:url(#SVGID_36_);}
	.st13{clip-path:url(#SVGID_38_);fill:url(#SVGID_39_);}
	.st14{clip-path:url(#SVGID_41_);fill:url(#SVGID_42_);}
	.st15{clip-path:url(#SVGID_44_);fill:url(#SVGID_45_);}
	.st16{clip-path:url(#SVGID_47_);fill:url(#SVGID_48_);}
	.st17{clip-path:url(#SVGID_50_);fill:url(#SVGID_51_);}
	.st18{clip-path:url(#SVGID_53_);fill:url(#SVGID_54_);}
	.st19{clip-path:url(#SVGID_56_);fill:url(#SVGID_57_);}
	.st20{clip-path:url(#SVGID_59_);fill:url(#SVGID_60_);}
	.st21{clip-path:url(#SVGID_62_);fill:url(#SVGID_63_);}
	.st22{clip-path:url(#SVGID_65_);fill:url(#SVGID_66_);}
	.st23{clip-path:url(#SVGID_68_);fill:url(#SVGID_69_);}
	.st24{clip-path:url(#SVGID_71_);fill:url(#SVGID_72_);}
	.st25{fill:#008C44;}
	.st26{clip-path:url(#SVGID_74_);fill:url(#SVGID_75_);}
	.st27{fill:#B0D090;}
	.st28{fill:#61A222;}
	.st29{fill:#FCFDFB;}
	.st30{fill:#FDFDFC;}
	.st31{fill:#F9FBF7;}
	.st32{fill:#FAFCF9;}
	.st33{fill:#FEFEFE;}
	.st34{fill:#65A527;}
	.st35{fill:#61A323;}
	.st36{fill:#62A324;}
	.st37{fill:#6AA82F;}
</style>
<g>
	<g>
		<path class="st0" d="M551.4,550.7c0,25.6-20.6,46.3-46,46.3H136.7c-25.5,0-46-20.7-46-46.3V103.3c0-25.6,20.6-46.3,46-46.3h368.7
			c25.5,0,46,20.7,46,46.3V550.7z"/>
	</g>
	<g>
		<g>
			<defs>
				<path id="SVGID_1_" d="M232.5,192.1c-9.5,0.4-18.2-0.8-25.7,9c-5.3,6.8-16,20.3-16.3,20.6l0,0c9.3-8.5,24.3-0.8,48.8-30.2
					c13.6-13.8,29.1-22.3,47.1-26.7l-0.3-1C264,168.5,247.3,180,232.5,192.1 M241.4,160.3c-7.4,0.6-14.7,2.6-19.7,7.2
					c-5.1,4.7-5.7,10.4-2.5,13.8c3.2,3.3,9.6,2.6,14.2-1.5c5-4.6,8.5-10.6,11-16.7c8.3-7.2,22.7-13.9,37.8-17.5l-0.3-1.1
					C267.7,147.6,254.1,153.5,241.4,160.3 M277.7,126.2c-30.2,6.4-55.8,21.6-75.1,42.1c-0.8,0.8-1.5,1.7-2.1,2.4
					c-15.3,17.1-10.3,38.5-13.8,48.8c0,0,17-25,18.9-28c6.3-9.2,3.2-13.8,0.8-20.9c18.6-23.1,42.8-36.9,71.3-43.3
					c2.5-0.6,5-1.1,7.5-1.5l0.3-1.1C283.2,125.1,280.5,125.7,277.7,126.2"/>
			</defs>
			<clipPath id="SVGID_2_">
				<use xlink:href="#SVGID_1_"  style="overflow:visible;"/>
			</clipPath>
			
				<linearGradient id="SVGID_3_" gradientUnits="userSpaceOnUse" x1="229.4329" y1="-295.8076" x2="233.636" y2="-295.8076" gradientTransform="matrix(0 -72.2678 -71.8768 0 -21025.8262 17007.5469)">
				<stop  offset="0" style="stop-color:#00A651"/>
				<stop  offset="0.1399" style="stop-color:#0CA94F"/>
				<stop  offset="0.3918" style="stop-color:#2BB04B"/>
				<stop  offset="0.7242" style="stop-color:#5EBB45"/>
				<stop  offset="1" style="stop-color:#8DC63F"/>
			</linearGradient>
			<rect x="185.3" y="124.7" class="st1" width="101.2" height="96.9"/>
		</g>
	</g>
	<g>
		<g>
			<defs>
				<path id="SVGID_4_" d="M199.9,341.4L199.9,341.4L199.9,341.4c-6.3-11.1-11-23.2-13.8-35.9c0,0.1,0,0.3,0,0.4
					c0-0.3-0.1-0.7-0.1-1c-0.1-0.6-0.3-1.1-0.4-1.5c-4.7-19.5-20.7-35.5-20.7-63.6C151.2,303,184.8,328.4,199.9,341.4"/>
			</defs>
			<clipPath id="SVGID_5_">
				<use xlink:href="#SVGID_4_"  style="overflow:visible;"/>
			</clipPath>
			
				<linearGradient id="SVGID_6_" gradientUnits="userSpaceOnUse" x1="229.5206" y1="-295.1405" x2="233.7238" y2="-295.1405" gradientTransform="matrix(0 -71.1534 -70.7684 0 -20711.1016 16754.9414)">
				<stop  offset="0" style="stop-color:#00984A"/>
				<stop  offset="0.1177" style="stop-color:#0A9B49"/>
				<stop  offset="0.3169" style="stop-color:#24A446"/>
				<stop  offset="0.5732" style="stop-color:#50B242"/>
				<stop  offset="0.8735" style="stop-color:#8BC53C"/>
				<stop  offset="1" style="stop-color:#A6CE39"/>
			</linearGradient>
			<rect x="151.2" y="239.7" class="st2" width="48.7" height="101.7"/>
		</g>
	</g>
	<g>
		<g>
			<defs>
				<path id="SVGID_7_" d="M191.6,278.2c-4,8.3-7.8,15.3-5.6,27.3c2.9,12.7,7.5,24.8,13.8,35.9c-8.6-24.2,10.2-48.5,2.9-85.9
					C200.7,266.3,197.5,266,191.6,278.2"/>
			</defs>
			<clipPath id="SVGID_8_">
				<use xlink:href="#SVGID_7_"  style="overflow:visible;"/>
			</clipPath>
			
				<linearGradient id="SVGID_9_" gradientUnits="userSpaceOnUse" x1="203.1771" y1="-303.3629" x2="207.3803" y2="-303.3629" gradientTransform="matrix(0 16.7165 16.6261 0 5240.6069 -3144.5603)">
				<stop  offset="0" style="stop-color:#00A651"/>
				<stop  offset="0.1321" style="stop-color:#0EA94F"/>
				<stop  offset="0.3832" style="stop-color:#34B349"/>
				<stop  offset="0.724" style="stop-color:#70C141"/>
				<stop  offset="1" style="stop-color:#A6CE39"/>
			</linearGradient>
			<rect x="183.9" y="255.4" class="st3" width="26" height="85.9"/>
		</g>
	</g>
	<g>
		<g>
			<defs>
				<path id="SVGID_10_" d="M183.9,272.5L183.9,272.5c-0.8-5.6-1.4-11.3-1.4-17c0-4.3,0.3-7,0.3-7.9c1.5-17.2-5.8-36.2,2.9-58.4
					C151.7,230.2,180.9,256.1,183.9,272.5"/>
			</defs>
			<clipPath id="SVGID_11_">
				<use xlink:href="#SVGID_10_"  style="overflow:visible;"/>
			</clipPath>
			
				<linearGradient id="SVGID_12_" gradientUnits="userSpaceOnUse" x1="229.5294" y1="-295.0625" x2="233.7325" y2="-295.0625" gradientTransform="matrix(0 -71.0293 -70.6451 0 -20675.9492 16726.832)">
				<stop  offset="0" style="stop-color:#00984A"/>
				<stop  offset="0.1177" style="stop-color:#0A9B49"/>
				<stop  offset="0.3169" style="stop-color:#24A446"/>
				<stop  offset="0.5732" style="stop-color:#50B242"/>
				<stop  offset="0.8735" style="stop-color:#8BC53C"/>
				<stop  offset="1" style="stop-color:#A6CE39"/>
			</linearGradient>
			<rect x="151.7" y="189.2" class="st4" width="34.1" height="83.4"/>
		</g>
	</g>
	<g>
		<g>
			<defs>
				<path id="SVGID_13_" d="M182.9,247.8C182.9,247.8,182.9,247.6,182.9,247.8C182.9,247.6,182.9,247.8,182.9,247.8 M182.9,247.6
					L182.9,247.6z M182.9,247.6L182.9,247.6L182.9,247.6 M182.9,247.6L182.9,247.6L182.9,247.6L182.9,247.6 M182.9,247.6
					L182.9,247.6 M182.9,247.6L182.9,247.6 M182.9,247.6L182.9,247.6L182.9,247.6 M182.9,247.6L182.9,247.6 M182.9,247.6
					L182.9,247.6L182.9,247.6 M193.3,230.5c-8.3,8.1-10.6,18.5-10.4,17.2c0,1-0.3,3.2-0.3,7v1.8c0,5.4,0.6,10.8,1.4,16.1
					c0.7-21,22.9-20.2,29.3-54.9C207.9,224,200.3,223.8,193.3,230.5"/>
			</defs>
			<clipPath id="SVGID_14_">
				<use xlink:href="#SVGID_13_"  style="overflow:visible;"/>
			</clipPath>
			
				<linearGradient id="SVGID_15_" gradientUnits="userSpaceOnUse" x1="187.9507" y1="-306.8239" x2="192.1537" y2="-306.8239" gradientTransform="matrix(0 10.8067 10.7482 0 3495.782 -1818.2113)">
				<stop  offset="0" style="stop-color:#0DB14B"/>
				<stop  offset="0.3035" style="stop-color:#45BC44"/>
				<stop  offset="0.6249" style="stop-color:#79C53E"/>
				<stop  offset="0.8671" style="stop-color:#9ACC3A"/>
				<stop  offset="1" style="stop-color:#A6CE39"/>
			</linearGradient>
			<rect x="182.6" y="217.6" class="st5" width="30.7" height="54.9"/>
		</g>
	</g>
	<g>
		<g>
			<defs>
				<path id="SVGID_16_" d="M165.4,308.5c25,98,120.9,117.2,140.9,118.1c4.2,0.1,4-1.5,4-1.5c-35.5-6.4-72.3-26.3-93.2-54
					c0.1,0.3,0.4,0.6,0.6,0.7C200.3,353.9,179.8,342.3,165.4,308.5L165.4,308.5z"/>
			</defs>
			<clipPath id="SVGID_17_">
				<use xlink:href="#SVGID_16_"  style="overflow:visible;"/>
			</clipPath>
			
				<linearGradient id="SVGID_18_" gradientUnits="userSpaceOnUse" x1="213.0507" y1="-299.9055" x2="217.2539" y2="-299.9055" gradientTransform="matrix(0 25.4824 25.3445 0 7838.7793 -5109.5674)">
				<stop  offset="0" style="stop-color:#009F47"/>
				<stop  offset="0.245" style="stop-color:#05A147"/>
				<stop  offset="0.5405" style="stop-color:#14A748"/>
				<stop  offset="0.8609" style="stop-color:#2CB049"/>
				<stop  offset="1" style="stop-color:#39B54A"/>
			</linearGradient>
			<rect x="165.4" y="308.5" class="st6" width="144.9" height="118.4"/>
		</g>
	</g>
	<g>
		<g>
			<defs>
				<path id="SVGID_19_" d="M217.2,371.7c21,27.7,57.7,47.1,93,53.4l0,0c0.3-1.3-1.1-3.2-4-4.2c-79-30.6-93.3-81.4-93.3-101.8
					C210.7,324.8,198,345.7,217.2,371.7"/>
			</defs>
			<clipPath id="SVGID_20_">
				<use xlink:href="#SVGID_19_"  style="overflow:visible;"/>
			</clipPath>
			
				<linearGradient id="SVGID_21_" gradientUnits="userSpaceOnUse" x1="234.5706" y1="-294.6764" x2="238.7736" y2="-294.6764" gradientTransform="matrix(0 -28.969 -28.8123 0 -8236.001 7221.9536)">
				<stop  offset="0" style="stop-color:#A6CE39"/>
				<stop  offset="0.4307" style="stop-color:#61B840"/>
				<stop  offset="1" style="stop-color:#00984A"/>
			</linearGradient>
			<rect x="198" y="319.1" class="st7" width="112.5" height="106"/>
		</g>
	</g>
	<g>
		<g>
			<defs>
				<path id="SVGID_22_" d="M355.6,164.9c18.1,4.5,33.5,12.9,47.1,26.7c24.5,29.5,39.5,21.8,48.8,30.2c-0.3-0.4-11-13.8-16.3-20.6
					c-7.5-9.7-16.1-8.6-25.6-9c-14.9-12.1-31.4-23.6-53.8-28.2L355.6,164.9z M360.1,145.5c15.2,3.6,29.5,10.3,37.8,17.5
					c2.5,6,6,12.1,11,16.7c4.6,4.2,11,4.9,14.2,1.5c3.2-3.3,2.5-9.2-2.5-13.8c-5-4.5-12.2-6.7-19.7-7.2
					c-12.8-6.8-26.4-12.7-40.5-15.9L360.1,145.5z M356.6,125.8c2.5,0.4,5,1,7.5,1.5c28.6,6.4,52.7,20.2,71.3,43.3
					c-2.4,7.1-5.4,11.7,0.8,20.9c2.1,2.9,18.9,28,18.9,28c-3.5-10.3,1.5-31.7-13.8-48.8c-0.6-0.7-1.3-1.5-2.1-2.4
					c-19.2-20.6-44.9-35.7-75.1-42.1c-2.6-0.6-5.3-1.1-8.1-1.5L356.6,125.8z"/>
			</defs>
			<clipPath id="SVGID_23_">
				<use xlink:href="#SVGID_22_"  style="overflow:visible;"/>
			</clipPath>
			
				<linearGradient id="SVGID_24_" gradientUnits="userSpaceOnUse" x1="229.4329" y1="-297.6127" x2="233.636" y2="-297.6127" gradientTransform="matrix(0 -72.2678 -71.8768 0 -20985.2012 17007.5469)">
				<stop  offset="0" style="stop-color:#00A651"/>
				<stop  offset="0.1399" style="stop-color:#0CA94F"/>
				<stop  offset="0.3918" style="stop-color:#2BB04B"/>
				<stop  offset="0.7242" style="stop-color:#5EBB45"/>
				<stop  offset="1" style="stop-color:#8DC63F"/>
			</linearGradient>
			<rect x="355.6" y="124.7" class="st8" width="101.2" height="96.9"/>
		</g>
	</g>
	<g>
		<g>
			<defs>
				<path id="SVGID_25_" d="M456.6,303.3c-0.1,0.6-0.3,1.1-0.4,1.5c0,0.3-0.1,0.7-0.1,1c0-0.1,0-0.3,0-0.4
					c-2.9,12.7-7.5,24.8-13.8,35.9l0,0l0,0c15-12.9,48.7-38.4,35-101.7C477.3,267.8,461.3,283.9,456.6,303.3"/>
			</defs>
			<clipPath id="SVGID_26_">
				<use xlink:href="#SVGID_25_"  style="overflow:visible;"/>
			</clipPath>
			
				<linearGradient id="SVGID_27_" gradientUnits="userSpaceOnUse" x1="229.5206" y1="-298.275" x2="233.7238" y2="-298.275" gradientTransform="matrix(0 -71.1534 -70.7684 0 -20641.8398 16754.9414)">
				<stop  offset="0" style="stop-color:#00984A"/>
				<stop  offset="0.1177" style="stop-color:#0A9B49"/>
				<stop  offset="0.3169" style="stop-color:#24A446"/>
				<stop  offset="0.5732" style="stop-color:#50B242"/>
				<stop  offset="0.8735" style="stop-color:#8BC53C"/>
				<stop  offset="1" style="stop-color:#A6CE39"/>
			</linearGradient>
			<rect x="442.3" y="239.7" class="st9" width="48.7" height="101.7"/>
		</g>
	</g>
	<g>
		<g>
			<defs>
				<path id="SVGID_28_" d="M442.4,341.4L442.4,341.4c6.3-11.1,11-23.2,13.8-35.9c2.1-12-1.7-18.9-5.6-27.3c-5.8-12.2-9-12-11-22.8
					C432.3,292.7,450.9,317.2,442.4,341.4"/>
			</defs>
			<clipPath id="SVGID_29_">
				<use xlink:href="#SVGID_28_"  style="overflow:visible;"/>
			</clipPath>
			
				<linearGradient id="SVGID_30_" gradientUnits="userSpaceOnUse" x1="203.1771" y1="-291.9771" x2="207.3803" y2="-291.9771" gradientTransform="matrix(0 16.7165 16.6261 0 5299.6978 -3144.5603)">
				<stop  offset="0" style="stop-color:#00A651"/>
				<stop  offset="0.1321" style="stop-color:#0EA94F"/>
				<stop  offset="0.3832" style="stop-color:#34B349"/>
				<stop  offset="0.724" style="stop-color:#70C141"/>
				<stop  offset="1" style="stop-color:#A6CE39"/>
			</linearGradient>
			<rect x="432.3" y="255.4" class="st10" width="26" height="85.9"/>
		</g>
	</g>
	<g>
		<g>
			<defs>
				<path id="SVGID_31_" d="M456.3,189.2c8.9,22.4,1.5,41.3,2.9,58.4c0,1,0.3,3.6,0.3,7.9c0,5.8-0.4,11.4-1.4,17
					C461.3,256.1,490.4,230.2,456.3,189.2L456.3,189.2z"/>
			</defs>
			<clipPath id="SVGID_32_">
				<use xlink:href="#SVGID_31_"  style="overflow:visible;"/>
			</clipPath>
			
				<linearGradient id="SVGID_33_" gradientUnits="userSpaceOnUse" x1="229.5294" y1="-298.3487" x2="233.7325" y2="-298.3487" gradientTransform="matrix(0 -71.0293 -70.6451 0 -20603.5195 16726.832)">
				<stop  offset="0" style="stop-color:#00984A"/>
				<stop  offset="0.1177" style="stop-color:#0A9B49"/>
				<stop  offset="0.3169" style="stop-color:#24A446"/>
				<stop  offset="0.5732" style="stop-color:#50B242"/>
				<stop  offset="0.8735" style="stop-color:#8BC53C"/>
				<stop  offset="1" style="stop-color:#A6CE39"/>
			</linearGradient>
			<rect x="456.3" y="189.2" class="st11" width="34.1" height="83.4"/>
		</g>
	</g>
	<g>
		<g>
			<defs>
				<path id="SVGID_34_" d="M459.4,247.8C459.4,247.6,459.4,247.6,459.4,247.8C459.4,247.6,459.4,247.6,459.4,247.8 M428.9,217.6
					c6.5,34.8,28.6,33.9,29.3,54.9c0.8-5.6,1.4-11.3,1.4-17c0-4.2-0.1-6.8-0.3-7.9c0,1.3-2.1-9.2-10.4-17.2
					C442,223.8,434.3,224,428.9,217.6z"/>
			</defs>
			<clipPath id="SVGID_35_">
				<use xlink:href="#SVGID_34_"  style="overflow:visible;"/>
			</clipPath>
			
				<linearGradient id="SVGID_36_" gradientUnits="userSpaceOnUse" x1="187.9507" y1="-289.3594" x2="192.1537" y2="-289.3594" gradientTransform="matrix(0 10.8067 10.7482 0 3554.3762 -1818.2113)">
				<stop  offset="0" style="stop-color:#0DB14B"/>
				<stop  offset="0.3035" style="stop-color:#45BC44"/>
				<stop  offset="0.6249" style="stop-color:#79C53E"/>
				<stop  offset="0.8671" style="stop-color:#9ACC3A"/>
				<stop  offset="1" style="stop-color:#A6CE39"/>
			</linearGradient>
			<rect x="428.9" y="217.6" class="st12" width="30.7" height="54.9"/>
		</g>
	</g>
	<g>
		<g>
			<defs>
				<path id="SVGID_37_" d="M424.5,372c0.1-0.3,0.4-0.6,0.6-0.7c-21,27.7-57.9,47.6-93.2,54c0,0,0,1.8,4,1.5
					c20-1,115.9-20.2,140.9-118.2C462.4,342.3,441.8,353.9,424.5,372"/>
			</defs>
			<clipPath id="SVGID_38_">
				<use xlink:href="#SVGID_37_"  style="overflow:visible;"/>
			</clipPath>
			
				<linearGradient id="SVGID_39_" gradientUnits="userSpaceOnUse" x1="213.0507" y1="-294.9001" x2="217.2539" y2="-294.9001" gradientTransform="matrix(0 25.4824 25.3445 0 7878.3945 -5109.5674)">
				<stop  offset="0" style="stop-color:#009F47"/>
				<stop  offset="0.245" style="stop-color:#05A147"/>
				<stop  offset="0.5405" style="stop-color:#14A748"/>
				<stop  offset="0.8609" style="stop-color:#2CB049"/>
				<stop  offset="1" style="stop-color:#39B54A"/>
			</linearGradient>
			<rect x="331.8" y="308.5" class="st13" width="144.9" height="118.4"/>
		</g>
	</g>
	<g>
		<g>
			<defs>
				<path id="SVGID_40_" d="M335.9,420.9c-2.9,1.1-4.2,2.9-4,4.2l0,0c35.5-6.4,72.2-25.7,93-53.4c19.2-26,6.4-46.9,4.2-52.4
					C429.1,339.6,414.7,390.3,335.9,420.9"/>
			</defs>
			<clipPath id="SVGID_41_">
				<use xlink:href="#SVGID_40_"  style="overflow:visible;"/>
			</clipPath>
			
				<linearGradient id="SVGID_42_" gradientUnits="userSpaceOnUse" x1="234.5706" y1="-298.2063" x2="238.7736" y2="-298.2063" gradientTransform="matrix(0 -28.969 -28.8123 0 -8204.1924 7221.9536)">
				<stop  offset="0" style="stop-color:#A6CE39"/>
				<stop  offset="0.4307" style="stop-color:#61B840"/>
				<stop  offset="1" style="stop-color:#00984A"/>
			</linearGradient>
			<rect x="331.6" y="319.1" class="st14" width="112.5" height="106"/>
		</g>
	</g>
	<g>
		<g>
			<defs>
				<path id="SVGID_43_" d="M279.1,241c-9.5-1.1-42.6,2.4-55.9,6l0,0c9.2,11.4,33.5,33.8,41.7,38.4c-0.4,2.5-1,5.1-1.8,7.8
					c9.3,3.1,38.5-20.4,38.7-20.6l0,0c0,0-10-36.3-19.3-39.4C281.5,235.9,280.4,238.6,279.1,241"/>
			</defs>
			<clipPath id="SVGID_44_">
				<use xlink:href="#SVGID_43_"  style="overflow:visible;"/>
			</clipPath>
			
				<radialGradient id="SVGID_45_" cx="224.5548" cy="-277.9644" r="4.2031" gradientTransform="matrix(19.218 0 0 -19.3226 -4013.8711 -5098.3638)" gradientUnits="userSpaceOnUse">
				<stop  offset="0" style="stop-color:#CBDB2A"/>
				<stop  offset="0.1005" style="stop-color:#C3D82B"/>
				<stop  offset="0.2579" style="stop-color:#ADD12F"/>
				<stop  offset="0.4523" style="stop-color:#88C535"/>
				<stop  offset="0.6763" style="stop-color:#56B43C"/>
				<stop  offset="0.9222" style="stop-color:#169F47"/>
				<stop  offset="1" style="stop-color:#00984A"/>
			</radialGradient>
			<rect x="223.1" y="233.3" class="st15" width="78.6" height="63"/>
		</g>
	</g>
	<g>
		<g>
			<defs>
				<path id="SVGID_46_" d="M264.8,285.5c-0.4,2.5-1,5.1-1.8,7.8c9.3,3.1,38.5-20.4,38.7-20.6l-11.5-3.8l-23.2-7.6l-43.7-14.3
					C232.3,258.5,256.6,280.9,264.8,285.5"/>
			</defs>
			<clipPath id="SVGID_47_">
				<use xlink:href="#SVGID_46_"  style="overflow:visible;"/>
			</clipPath>
			
				<linearGradient id="SVGID_48_" gradientUnits="userSpaceOnUse" x1="233.0719" y1="-313.6387" x2="237.2751" y2="-313.6387" gradientTransform="matrix(-18.671 -6.0996 -6.0666 18.7725 2747.1067 7592.7588)">
				<stop  offset="0" style="stop-color:#00984A"/>
				<stop  offset="0.1007" style="stop-color:#099B49"/>
				<stop  offset="0.2687" style="stop-color:#23A444"/>
				<stop  offset="0.4834" style="stop-color:#4DB13E"/>
				<stop  offset="0.7362" style="stop-color:#87C535"/>
				<stop  offset="1" style="stop-color:#CBDB2A"/>
			</linearGradient>
			<polygon class="st16" points="316,251.7 230.6,223.8 208.6,291.6 294.1,319.5 			"/>
		</g>
	</g>
	<g>
		<g>
			<defs>
				<path id="SVGID_49_" d="M265.8,302.1c2.2,1.7,4.3,3.5,6.3,5.4c-4,8.6-10.8,41.4-11.5,55.4v0.1l0,0c13.6-5.3,42.4-21.6,49.2-28
					c2.2,1.1,4.6,2.5,6.8,4.2c5.7-7.9-7.5-43.1-7.5-43.4l0,0c0,0-3.2-0.1-7.8-0.1C289.7,295.7,269.8,296.6,265.8,302.1"/>
			</defs>
			<clipPath id="SVGID_50_">
				<use xlink:href="#SVGID_49_"  style="overflow:visible;"/>
			</clipPath>
			
				<radialGradient id="SVGID_51_" cx="224.811" cy="-280.8264" r="4.2031" gradientTransform="matrix(19.4406 0 0 -21.6429 -4062.7327 -5781.6489)" gradientUnits="userSpaceOnUse">
				<stop  offset="0" style="stop-color:#CBDB2A"/>
				<stop  offset="0.1158" style="stop-color:#C6D92B"/>
				<stop  offset="0.2572" style="stop-color:#B7D42D"/>
				<stop  offset="0.4119" style="stop-color:#9ECC31"/>
				<stop  offset="0.5763" style="stop-color:#7CC137"/>
				<stop  offset="0.7482" style="stop-color:#4FB23E"/>
				<stop  offset="0.9239" style="stop-color:#1AA046"/>
				<stop  offset="1" style="stop-color:#00984A"/>
			</radialGradient>
			<rect x="260.4" y="295.7" class="st17" width="61.8" height="67.3"/>
		</g>
	</g>
	<g>
		<g>
			<defs>
				<path id="SVGID_52_" d="M301.7,305.8l-14.3,19.9l-27,37.4l0,0c13.6-5.3,42.4-21.6,49.2-28c2.2,1.1,4.6,2.5,6.8,4.2
					c5.7-7.9-7.5-43.1-7.5-43.4L301.7,305.8z"/>
			</defs>
			<clipPath id="SVGID_53_">
				<use xlink:href="#SVGID_52_"  style="overflow:visible;"/>
			</clipPath>
			
				<linearGradient id="SVGID_54_" gradientUnits="userSpaceOnUse" x1="212.41" y1="-307.9578" x2="216.6131" y2="-307.9578" gradientTransform="matrix(-11.5429 15.9739 15.8875 11.6057 7657.6587 480.1154)">
				<stop  offset="0" style="stop-color:#00984A"/>
				<stop  offset="0.1007" style="stop-color:#099B49"/>
				<stop  offset="0.2687" style="stop-color:#23A444"/>
				<stop  offset="0.4834" style="stop-color:#4DB13E"/>
				<stop  offset="0.7362" style="stop-color:#87C535"/>
				<stop  offset="1" style="stop-color:#CBDB2A"/>
			</linearGradient>
			<polygon class="st18" points="281.6,266.3 228.5,339.8 300.8,392.5 353.8,319 			"/>
		</g>
	</g>
	<g>
		<g>
			<defs>
				<path id="SVGID_55_" d="M333.2,295.9L333.2,295.9c0,0-13.1,35.2-7.4,43.3c2.2-1.7,4.6-3.1,7.1-4.3c7,6.5,35.9,23.2,48.8,28.2
					l0,0c-0.7-14.7-7.4-47.1-11.3-55.8c1.8-1.8,3.8-3.5,6.1-5.3c-4-5.6-23.1-6.4-34.5-6.4C337,295.7,333.4,295.9,333.2,295.9"/>
			</defs>
			<clipPath id="SVGID_56_">
				<use xlink:href="#SVGID_55_"  style="overflow:visible;"/>
			</clipPath>
			
				<radialGradient id="SVGID_57_" cx="225.8146" cy="-281.0488" r="4.2031" gradientTransform="matrix(19.639 0 0 -21.9602 -4101.4897 -5875.8716)" gradientUnits="userSpaceOnUse">
				<stop  offset="0" style="stop-color:#CBDB2A"/>
				<stop  offset="0.1158" style="stop-color:#C6D92B"/>
				<stop  offset="0.2572" style="stop-color:#B7D42D"/>
				<stop  offset="0.4119" style="stop-color:#9ECC31"/>
				<stop  offset="0.5763" style="stop-color:#7CC137"/>
				<stop  offset="0.7482" style="stop-color:#4FB23E"/>
				<stop  offset="0.9239" style="stop-color:#1AA046"/>
				<stop  offset="1" style="stop-color:#00984A"/>
			</radialGradient>
			<rect x="320.2" y="295.7" class="st19" width="61.6" height="67.3"/>
		</g>
	</g>
	<g>
		<g>
			<defs>
				<path id="SVGID_58_" d="M333.2,295.9c0,0-13.1,35.2-7.4,43.3c2.2-1.7,4.6-3.1,7.1-4.3c7,6.5,35.9,23.2,48.8,28.2l0,0l-27-37.4
					l-14.5-19.9L333.2,295.9L333.2,295.9z"/>
			</defs>
			<clipPath id="SVGID_59_">
				<use xlink:href="#SVGID_58_"  style="overflow:visible;"/>
			</clipPath>
			
				<linearGradient id="SVGID_60_" gradientUnits="userSpaceOnUse" x1="225.2376" y1="-273.3858" x2="229.4407" y2="-273.3858" gradientTransform="matrix(13.6417 0 0 -13.7159 -2748.2102 -3420.259)">
				<stop  offset="0" style="stop-color:#00984A"/>
				<stop  offset="0.1007" style="stop-color:#099B49"/>
				<stop  offset="0.2687" style="stop-color:#23A444"/>
				<stop  offset="0.4834" style="stop-color:#4DB13E"/>
				<stop  offset="0.7362" style="stop-color:#87C535"/>
				<stop  offset="1" style="stop-color:#CBDB2A"/>
			</linearGradient>
			<rect x="320.2" y="295.9" class="st20" width="61.6" height="67.2"/>
		</g>
	</g>
	<g>
		<g>
			<defs>
				<path id="SVGID_61_" d="M340.6,272.7L340.6,272.7c0.4,0.3,29.3,23.4,38.7,20.4c-0.8-2.6-1.4-5.4-1.8-8.1
					c8.3-4.7,33.1-27.1,41.7-38c-14.2-3.9-46.9-7.5-56.2-6.4c-1.1-2.2-2.2-4.7-3.1-7.4C350.6,236.1,340.9,271.7,340.6,272.7"/>
			</defs>
			<clipPath id="SVGID_62_">
				<use xlink:href="#SVGID_61_"  style="overflow:visible;"/>
			</clipPath>
			
				<radialGradient id="SVGID_63_" cx="226.0988" cy="-278.3779" r="4.2031" gradientTransform="matrix(19.6455 0 0 -19.7523 -4101.2158 -5225.9521)" gradientUnits="userSpaceOnUse">
				<stop  offset="0" style="stop-color:#CBDB2A"/>
				<stop  offset="0.1005" style="stop-color:#C3D82B"/>
				<stop  offset="0.2579" style="stop-color:#ADD12F"/>
				<stop  offset="0.4523" style="stop-color:#88C535"/>
				<stop  offset="0.6763" style="stop-color:#56B43C"/>
				<stop  offset="0.9222" style="stop-color:#169F47"/>
				<stop  offset="1" style="stop-color:#00984A"/>
			</radialGradient>
			<rect x="340.6" y="233" class="st21" width="78.4" height="63"/>
		</g>
	</g>
	<g>
		<g>
			<defs>
				<path id="SVGID_64_" d="M375.4,261.3l-23.2,7.6l-11.5,3.8l0,0c0.4,0.3,29.3,23.4,38.7,20.3c-0.8-2.6-1.4-5.4-1.9-8.1
					c8.3-4.7,33.1-27.1,41.7-38L375.4,261.3z"/>
			</defs>
			<clipPath id="SVGID_65_">
				<use xlink:href="#SVGID_64_"  style="overflow:visible;"/>
			</clipPath>
			
				<linearGradient id="SVGID_66_" gradientUnits="userSpaceOnUse" x1="226.1032" y1="-277.3737" x2="230.3027" y2="-277.3737" gradientTransform="matrix(18.6786 0 0 -18.7802 -3882.6909 -4937.6553)">
				<stop  offset="0" style="stop-color:#00984A"/>
				<stop  offset="0.3699" style="stop-color:#4CB13E"/>
				<stop  offset="1" style="stop-color:#CBDB2A"/>
			</linearGradient>
			<rect x="340.6" y="246.9" class="st22" width="78.4" height="49.1"/>
		</g>
	</g>
	<g>
		<g>
			<defs>
				<path id="SVGID_67_" d="M297.6,226.6c-2.5,0.4-5.1,0.7-7.9,0.7c0,9.7,30.5,29.9,31.4,30.6l0,0l0,0c0.4-0.3,31.2-20.9,31.2-30.6
					c-2.8,0-5.6-0.3-8.2-0.7c-1.8-9.3-15.4-40.1-22.9-51.6C313.1,187.1,299.4,217.4,297.6,226.6"/>
			</defs>
			<clipPath id="SVGID_68_">
				<use xlink:href="#SVGID_67_"  style="overflow:visible;"/>
			</clipPath>
			
				<radialGradient id="SVGID_69_" cx="225.3448" cy="-279.9741" r="4.2031" gradientTransform="matrix(19.6402 0 0 -26.0198 -4104.6382 -7109.9346)" gradientUnits="userSpaceOnUse">
				<stop  offset="0" style="stop-color:#CBDB2A"/>
				<stop  offset="0.1158" style="stop-color:#C6D92B"/>
				<stop  offset="0.2572" style="stop-color:#B7D42D"/>
				<stop  offset="0.4119" style="stop-color:#9ECC31"/>
				<stop  offset="0.5763" style="stop-color:#7CC137"/>
				<stop  offset="0.7482" style="stop-color:#4FB23E"/>
				<stop  offset="0.9239" style="stop-color:#1AA046"/>
				<stop  offset="1" style="stop-color:#00984A"/>
			</radialGradient>
			<rect x="289.7" y="174.9" class="st23" width="62.6" height="83"/>
		</g>
	</g>
	<g>
		<g>
			<defs>
				<path id="SVGID_70_" d="M321.1,221.1v24.6v6.1v6.1l0,0l0,0c0.7-0.4,31.2-20.9,31.2-30.6c-2.8,0-5.6-0.3-8.2-0.7
					c-1.8-9.3-15.4-40.1-22.9-51.6V221.1z"/>
			</defs>
			<clipPath id="SVGID_71_">
				<use xlink:href="#SVGID_70_"  style="overflow:visible;"/>
			</clipPath>
			
				<linearGradient id="SVGID_72_" gradientUnits="userSpaceOnUse" x1="203.7019" y1="-296.939" x2="207.908" y2="-296.939" gradientTransform="matrix(0 19.7401 19.6333 0 6166.6689 -3846.207)">
				<stop  offset="0" style="stop-color:#00984A"/>
				<stop  offset="0.153" style="stop-color:#00984A"/>
				<stop  offset="0.2933" style="stop-color:#23A444"/>
				<stop  offset="0.7835" style="stop-color:#9BCB32"/>
				<stop  offset="1" style="stop-color:#CBDB2A"/>
			</linearGradient>
			<rect x="321.1" y="174.9" class="st24" width="31.3" height="83"/>
		</g>
	</g>
	<g>
		<path class="st25" d="M414.2,457.5c27.1,0,45.9,11.1,45.9,28c0,19.7-22.5,27.3-41.6,27.3c-2.5,0-4.9-0.1-7.2-0.4l3.5-7.2
			c0.6,0,1,0,1.4,0c11.8,0,22.5-6.1,22.5-18.4c0-13.4-11.5-18.9-24.9-18.9c-3.1,0-6.1,0.3-9.2,0.8v61.1h-21v-68
			C393.6,459,403.7,457.5,414.2,457.5 M229.3,520.6c15,0,25.7-11.1,25.7-26.6c0-15.6-10.2-26.6-25.7-26.6
			c-15.4,0-25.7,11.1-25.7,26.6C203.6,509.6,214.2,520.6,229.3,520.6 M229.3,457.5c22.8,0,47.1,11.4,47.1,36.6
			c0,24.8-23.8,36.9-47.1,36.9c-23.4,0-47.1-12-47.1-36.9C182.2,468.9,206.4,457.5,229.3,457.5 M342.3,457.5
			c7.8,0,15.9,0.4,23.5,3.3l-5.8,9.3c-4.2-1-8.3-1.4-12.5-1.4c-23.1,0-35.9,10.8-35.9,25.5c0,15.3,12.5,25,35.9,25
			c4.6,0,10-0.6,14.6-1.7l3.9,9.6c-7.4,2.4-15.9,3.6-24.3,3.6c-25.3,0-51.5-10.8-51.5-36.7C290.1,468.3,317,457.5,342.3,457.5
			 M414.2,455.8c-10.7,0-21,1.4-32.4,4.6v70.8H406V470c2.6-0.4,5.3-0.6,7.5-0.6c5.4,0,23.4,1.3,23.4,17.2
			c0,11.5-10.4,16.8-20.9,16.8c-0.4,0-1.5,0-2.5-0.1l-4.9,10.3c4.7,0.6,7.2,0.7,9.6,0.7c21.6,0,43.3-8.9,43.3-28.9
			C461.6,467.5,442.1,455.8,414.2,455.8 M229.3,519.1c-14.2,0-24.1-10.3-24.1-24.9c0-14.9,9.6-25,24.1-25c14.3,0,24.1,10,24.1,25
			C253.4,508.8,243.4,519.1,229.3,519.1 M229.3,455.8c-23.5,0-48.8,12-48.8,38.2c0,26.4,25.3,38.4,48.8,38.4s48.8-12,48.8-38.4
			C278,467.8,252.8,455.8,229.3,455.8 M342.3,455.8c-26.8,0-53.8,11.8-53.8,38.4c0,12.4,5.8,22.5,17,29.3c9.3,5.7,22.1,8.9,36,8.9
			c8.9,0,17.4-1.1,26.6-4.2l-5-12.5c-6,1.4-11.1,1.9-15.6,1.9c-21.7,0-34.2-8.5-34.2-23.5c0-14.7,13.1-23.8,34.2-23.8
			c4.2,0,8.1,0.4,13.2,1.5l7.5-12C359,456.2,350.5,455.8,342.3,455.8"/>
	</g>
	<g>
		<g>
			<defs>
				<path id="SVGID_73_" d="M203.6,494.1c0-15.6,10.2-26.7,25.7-26.7c15.4,0,25.7,11.1,25.7,26.7c0,15.4-10.6,26.6-25.7,26.6
					S203.6,509.6,203.6,494.1 M182.2,493.5v1.1c0.3,24.2,23.5,36,46.5,36.3h1.4c23.1-0.3,46.5-12.2,46.5-36.9
					c0-25.2-24.3-36.6-47.1-36.6C206.7,457.5,182.5,468.8,182.2,493.5 M290.1,494.2c0,25.9,26.1,36.6,51.5,36.6
					c8.6,0,17.1-1.3,24.3-3.6l-3.9-9.6c-4.6,1-10,1.7-14.6,1.7c-23.4,0-35.9-9.9-35.9-25c0-14.7,12.7-25.5,35.9-25.5
					c4.2,0,8.2,0.4,12.5,1.4l5.8-9.3c-7.6-2.9-15.7-3.3-23.4-3.3C317,457.5,290.1,468.3,290.1,494.2 M383.4,461.7v68h21v-60.9
					c3.1-0.6,6.3-0.8,9.2-0.8c13.4,0,24.9,5.6,24.9,18.9c0,12.2-10.7,18.4-22.5,18.4c-0.6,0-0.8,0-1.4,0l-3.3,7.2
					c2.2,0.3,4.7,0.4,7.2,0.4c19.1,0,41.6-7.5,41.6-27.3c0-16.8-18.8-28-45.9-28C403.7,457.5,393.6,459,383.4,461.7"/>
			</defs>
			<clipPath id="SVGID_74_">
				<use xlink:href="#SVGID_73_"  style="overflow:visible;"/>
			</clipPath>
			
				<radialGradient id="SVGID_75_" cx="225.8913" cy="-286.6385" r="4.2031" gradientTransform="matrix(24.1643 0 0 -24.2957 -5123.8911 -6538.4326)" gradientUnits="userSpaceOnUse">
				<stop  offset="0" style="stop-color:#BFD730"/>
				<stop  offset="0.1313" style="stop-color:#ADD032"/>
				<stop  offset="0.3946" style="stop-color:#7EBE37"/>
				<stop  offset="0.762" style="stop-color:#34A03F"/>
				<stop  offset="1" style="stop-color:#008C44"/>
			</radialGradient>
			<rect x="182.2" y="457.5" class="st26" width="277.9" height="73.4"/>
		</g>
	</g>
</g>
<g>
	<path class="st27" d="M613.6,564.2c-1.9-0.1-3.8-0.3-5.7-0.6c0-160.6,0-321.1,0-481.7c1.9-0.3,3.8-0.5,5.7-0.6
		c12.7,11.5,11.1,27.1,11.1,41.8c0.4,133.1,0.4,266.2,0,399.3C624.7,537.1,626.3,552.7,613.6,564.2z"/>
	<path class="st28" d="M613.6,564.2c0-160.9,0-321.9,0-482.8c9.3-29.4,32.1-32.8,58.6-32.7c329.5,0.3,659,0.2,988.5,0.2
		c126.2,0,252.5-0.1,378.7,0c48,0,61.2,12.9,61.2,60.5c0.1,142.3,0.1,284.6,0,426.9c0,47.6-13.2,60.5-61.2,60.5
		c-455.7,0.1-911.5-0.1-1367.2,0.2C645.7,597,622.9,593.6,613.6,564.2z"/>
	<path class="st29" d="M1930.9,346.7c0-25.2,0.2-43.2-0.1-61.2c-0.2-10.4,0.3-18.6,14.7-18.6c13.5,0,19.3,3.8,18.8,18.1
		c-0.8,22.4,0.1,44.8-0.3,67.3c-0.2,10,3.9,21.9-9.5,27.8c-14,6.1-25,0.5-34.8-8.7c-21.5-20.1-42.6-40.5-66.7-63.6
		c0,18.6-0.5,35.2,0.2,51.8c0.6,13.2-3.5,19.3-17.9,19.3c-15.3,0.1-17.4-7.9-17.2-20.2c0.4-21.3-0.5-42.7,0.3-64.1
		c0.4-9.7-5.7-22.7,8.3-28c13.1-4.9,25.9-1.7,35.6,8C1883.8,296.4,1904.6,319,1930.9,346.7z"/>
	<path class="st29" d="M1140.9,345.8c0-23.4-0.2-39.2,0.1-55.1c0.2-11-3.9-23.7,15.7-23.9c18.3-0.2,17.7,10.1,17.5,22.5
		c-0.3,20.3,0.4,40.5-0.3,60.8c-0.4,10.8,5.4,24.7-9.9,30.5c-15.2,5.8-27.1-1.6-37.1-11.9c-19.7-20.2-38.8-41.1-64-67.8
		c0,23.6,0,39,0,54.5c0,11.8,2.1,23.4-16.6,23.6c-17.6,0.2-18.5-9.3-18.3-22.3c0.4-20.2-0.5-40.5,0.3-60.8
		c0.4-10.7-5.3-24.8,10.9-29.7c13.4-4,25.8-0.1,35.3,9.5C1095.4,296.7,1115.3,318.6,1140.9,345.8z"/>
	<path class="st30" d="M1197.7,324.5c0-60.9,10.9-69.8,71.8-58.9c50,9,73.4,29.7,70.5,62.7c-2.7,29.8-35.8,51.5-80.5,52.8
		c-2.1,0.1-4.3,0-6.4,0C1197.7,380.2,1197.7,380.2,1197.7,324.5z"/>
	<path class="st29" d="M920.7,381.1c-22.9-1.3-44.5-6.1-60.6-24.1c-20.5-23-17-56.9,7.4-76.4c35.2-28,102.3-20.9,124.1,13.1
		c16.9,26.4,7.5,60.1-21.6,76.5C954.7,378.7,938,381.4,920.7,381.1z"/>
	<path class="st29" d="M1728.2,381.1c-45.6,0.3-77-23.5-77-58.4c0-35,32.2-60.3,76.3-59.8c43.2,0.4,74.1,24.1,75,57.4
		C1803.4,356.1,1773.2,380.8,1728.2,381.1z"/>
	<path class="st29" d="M1486.7,373.9c-34,21.6-43.7-20.8-72.7-21.3c-29.7-0.4-39.5,41-74.1,20.6c16.3-32,31.6-66.4,51.1-98.2
		c12-19.5,36.3-15.3,49,7.5C1456.5,312.2,1471,343,1486.7,373.9z"/>
	<path class="st31" d="M785.8,267.1c13.8,0,27.7-0.6,41.5,0.3c5.9,0.4,17.2-4.6,15.8,8.3c-0.8,7.9-7,12.2-16,12
		c-16-0.4-31.9,0.3-47.9-0.2c-12.1-0.4-20.2,1.1-20,16.7c0.2,15.8,9.1,16.8,20.7,16.3c5.3-0.2,10.8-0.9,15.9,0.2
		c7.3,1.6,20.1-6,20.9,6.3c0.9,13-10.6,16.2-22.6,15.8c-17.5-0.5-37.9-5.2-35.3,24.8c1.1,12.5-10.5,10.5-18.7,11
		c-10.4,0.6-15.7-3.6-15.6-14.7c0.3-26.6,0.4-53.2-0.1-79.8c-0.2-12.2,4.6-17.4,16.8-17C756,267.5,770.9,267.1,785.8,267.1z"/>
	<path class="st32" d="M1521.9,267.1c17,0,34.1,0,51.1,0.1c6.5,0,13.1,0.3,14.1,9c0.9,8.6-4.6,12.4-11.5,11
		c-34.6-7.1-31.7,15.7-31,37.5c0.4,12.8-0.4,25.6,0.1,38.4c0.6,13.5-7.1,15.6-18.1,15.6c-10.6-0.1-19.1-1.2-18.6-15
		c0.5-14.9-0.7-29.9,0.2-44.7c1.3-20.1,0.5-36.7-27.4-31.5c-8.6,1.6-18.6,0.2-19-11.3c-0.4-14.3,11.8-8.1,18.5-8.6
		C1494.1,266.4,1508,267.1,1521.9,267.1z"/>
	<path class="st33" d="M1636.5,322.9c0,12.7-0.3,25.4,0.1,38.1c0.4,11.3-2.5,17.6-15.7,17.7c-13.2,0.1-19.2-3.6-18.8-17.8
		c0.8-25.4,0.5-50.8,0.1-76.2c-0.2-11.2,2.5-17.5,15.7-17.7c13.2-0.1,19.7,3.6,18.7,17.8C1635.8,297.5,1636.5,310.2,1636.5,322.9z"
		/>
	<path class="st34" d="M1231.8,367.2c0-18-1.6-35.2,0.6-51.8c1.4-11.3-11.1-32.6,12.1-32c22.8,0.5,48,5.4,57.8,31.3
		c7.1,18.8-5.6,30.5-21.2,37C1265.7,358.2,1249.1,362,1231.8,367.2z"/>
	<path class="st35" d="M963.8,320.9c0.7,25.2-16,44.1-39.9,43.4c-24.9-0.7-39.2-13.8-40.7-39.3c-1.5-26.3,13.6-43.8,38.1-44.8
		C946.4,279.2,963.1,295.1,963.8,320.9z"/>
	<path class="st36" d="M1769,323.2c-0.6,23.5-20.4,42.2-43.8,41.3c-23.7-1-40.8-20.2-39-45c1.8-25.2,16-38.7,41.2-39.1
		C1751.5,279.9,1769.6,299.1,1769,323.2z"/>
	<path class="st37" d="M1413.6,301.9c5.3,8.9,10.3,17.3,16.7,28.2c-11.9,3.4-21.3,3.5-31.5,0.3
		C1400.4,319.6,1403.6,310,1413.6,301.9z"/>
</g>
</svg>
