<svg viewBox="0 0 679.9 638.79" xmlns="http://www.w3.org/2000/svg" xmlns:xlink="http://www.w3.org/1999/xlink"><linearGradient id="a" gradientTransform="matrix(1 0 0 -1 -67.35 -475.18)" gradientUnits="userSpaceOnUse" x1="657.83" x2="684.61" y1="-798.06" y2="-798.06"><stop offset="0" stop-opacity="0"/><stop offset=".91" stop-opacity=".8"/><stop offset="1"/></linearGradient><linearGradient id="b" x1="686.33" x2="738.51" xlink:href="#a" y1="-859.46" y2="-859.46"/><linearGradient id="c" x1="612.28" x2="675.41" xlink:href="#a" y1="-863.09" y2="-863.09"/><linearGradient id="d" x1="619.48" x2="718.42" xlink:href="#a" y1="-1012.95" y2="-1012.95"/><linearGradient id="e" gradientTransform="matrix(1 0 0 -1 -.69 -433.48)" x1="601.18" x2="602.94" xlink:href="#a" y1="-919.58" y2="-955.26"/><linearGradient id="f" x1="679.4" x2="694.74" xlink:href="#a" y1="-842.99" y2="-842.99"/><linearGradient id="g" x1="688.52" x2="747.74" xlink:href="#a" y1="-869.44" y2="-869.44"/><linearGradient id="h" gradientTransform="matrix(-1 0 0 -1 -7874.24 -439.91)" gradientUnits="userSpaceOnUse" x1="-8343.14" x2="-8322.74" y1="-828.79" y2="-828.79"><stop offset=".01"/><stop offset="1" stop-opacity="0"/></linearGradient><linearGradient id="i" gradientTransform="matrix(1 0 0 -1 -129.25 -439.91)" x1="300.52" x2="315.43" xlink:href="#h" y1="-815.67" y2="-815.67"/><linearGradient id="j" gradientTransform="matrix(1 0 0 -1 -129.25 -439.91)" gradientUnits="userSpaceOnUse" x1="438.6" x2="463.72" y1="-648.31" y2="-621.99"><stop offset="0" stop-color="#ecc4d7"/><stop offset=".42" stop-color="#efd4d1"/><stop offset="1" stop-color="#f2eac9"/></linearGradient><linearGradient id="k" gradientTransform="translate(-129.25 -1946.15)" x1="434.36" x2="434.47" xlink:href="#j" y1="2126.85" y2="2126.85"/><linearGradient id="l" gradientTransform="translate(-129.25 -1946.15)" x1="443.35" x2="456.41" xlink:href="#j" y1="2067.84" y2="2114.9"/><linearGradient id="m" gradientTransform="matrix(1 0 0 -1 -129.25 -439.91)" gradientUnits="userSpaceOnUse" x1="474.53" x2="563.39" y1="-867.21" y2="-962.95"><stop offset=".01"/><stop offset=".13" stop-opacity=".69"/><stop offset="1" stop-opacity="0"/></linearGradient><linearGradient id="n" x1="425.96" x2="409.47" xlink:href="#m" y1="-969.3" y2="-876.77"/><linearGradient id="o" x1="465.8" x2="462.81" xlink:href="#m" y1="-938.36" y2="-825.9"/><linearGradient id="p" gradientTransform="translate(-129.25 -1946.15)" x1="512.41" x2="590.14" xlink:href="#j" y1="2387.41" y2="2387.41"/><linearGradient id="q" gradientTransform="translate(-129.25 -1946.15)" x1="355.84" x2="433.55" xlink:href="#j" y1="2394.35" y2="2394.35"/><linearGradient id="r" x1="236.23" x2="311.79" xlink:href="#j" y1="-825.18" y2="-825.18"/><linearGradient id="s" x1="577.22" x2="664.33" xlink:href="#j" y1="-833.93" y2="-833.93"/><linearGradient id="t" gradientTransform="matrix(1 0 0 -1 -129.25 -439.91)" x1="447.75" x2="354.31" xlink:href="#h" y1="-848.41" y2="-776.27"/><linearGradient id="u" gradientTransform="matrix(1 0 0 -1 -129.25 -439.91)" x1="437.74" x2="540.12" xlink:href="#h" y1="-816.69" y2="-796.07"/><linearGradient id="v" x1="367.96" x2="441.14" xlink:href="#m" y1="-850.38" y2="-797.82"/><linearGradient id="w" gradientTransform="matrix(1 0 0 -1 -129.25 -439.91)" x1="458.05" x2="507.52" xlink:href="#h" y1="-802.26" y2="-849.44"/><linearGradient id="x" x1="444.54" x2="456.22" xlink:href="#m" y1="-683.57" y2="-634.78"/><linearGradient id="y" x1="444.4" x2="438.22" xlink:href="#m" y1="-1104.89" y2="-984.31"/><linearGradient id="z" x1="447.9" x2="450.65" xlink:href="#m" y1="-942.56" y2="-1051.12"/><path d="m153.86 284.34a168.78 168.78 0 1 1 168.78 168.78 168.78 168.78 0 0 1 -168.78-168.78zm22.6-84.34c-39-22.5-13-53.9-13-74.73 20.84 0 52.25-26 74.74 13m230.6 230.46c39 22.5 13 53.9 13 74.73-20.8 0-52.2 26-74.72-13m0-292.32c22.5-39 53.9-13 74.73-13 0 20.83 26 52.22-13 74.74m-230.56 230.62c-22.52 39-53.9 13-74.73 13 0-20.82-26-52.24 13-74.73m-22.6-84.4c-45 0-38.18-40.2-48.6-58.24 18-10.4 32.22-48.65 71.2-26.15m314.94 84.4c45 0 38.17 40.2 48.58 58.25-18 10.4-32.2 48.64-71.2 26.12m-146.24-253.18c0-45 40.2-38.17 58.25-48.6 10.43 18 48.65 32.24 26.13 71.2m-84.37 314.94c0 45-40.2 38.2-58.24 48.62-10.42-18-48.66-32.22-26.16-71.2m-61.77-61.8c-39 22.52-53.16-15.7-71.2-26.12 10.4-18.06 3.58-58.26 48.57-58.26m315-84.4c39-22.5 53.15 15.76 71.2 26.17-10.42 18-3.58 58.24-48.6 58.24m-253.2-146.18c-22.47-39 15.79-53.18 26.19-71.18 18 10.42 58.23 3.6 58.23 48.6m84.37 314.9c22.52 39-15.7 53.18-26.13 71.2-18-10.4-58.24-3.58-58.24-48.58m0-337.55 146.17 253.16m-292.28 0h292.3m-292.3 0 146.1-253.16m-97.4 168.77-48.76-84.34m146.17 253.12-48.72-84.4m0-168.75h-97.44m292.3 0h-97.4m0 168.76-48.7 84.4m146.09-253.13-48.76 84.34" fill="none" opacity=".4" stroke="#fff" stroke-miterlimit="10" stroke-width="6"/><path d="m156.17 74.58c-7.63 33.28-9 69.42-28.74 97.5-23.73 33.7-68 47.07-96.82 76.53-37.45 38.46-41.05 104.33-7.9 146.4 18.2 23.2 44.52 38.33 67.55 56.87 44.24 35.86 77.3 85.8 128 112.24 54.5 28.4 125.58 23.2 175.23-13 45.36-33 72.14-87.67 120.8-115.65 24.14-13.92 52.46-20.45 75.72-35.87 36.63-24.28 56.18-70.1 51.15-113.2s-33.16-82.4-71.28-104.35c-21.76-12.45-48.38-21.35-59.88-43.45-9.58-18.28-5.82-40.1-9-60.3a88.55 88.55 0 0 0 -29-52c-33.3-28.92-83-29.3-126.93-23.05s-87.25 1.25-128.47 4.47c-36.14 3.17-52.38 31.96-60.43 66.86z" fill="#d0d8bc" opacity=".1"/><path d="m165.07 90.9c-7.26 31.65-8.57 66-27.3 92.7-22.54 32-64.62 44.74-92.05 72.74-35.6 36.57-39 99.2-7.52 139.22 17.3 22 42.32 36.45 64.23 54.07 42.07 34.1 73.5 81.57 121.73 106.72 51.85 27 119.35 22 166.56-12.36 43.13-31.4 68.58-83.38 114.86-110 22.94-13.23 49.87-19.46 72-34.1 34.83-23.1 53.4-66.65 48.64-107.63s-31.5-78.22-67.78-99.1c-20.7-11.83-46-20.33-56.94-41.32-9.07-17.36-5.5-38.1-8.5-57.36a84.2 84.2 0 0 0 -27.6-49.44c-31.65-27.5-78.95-27.88-120.67-21.9s-83 1.16-122.14 4.24c-34.43 2.96-49.87 30.33-57.53 63.5z" fill="#d0d8bc" opacity=".4"/><path d="m631.78 581.23h-61.2c-6.55 0-12-4.16-12.46-9.57l-6.4-66.12c-.6-6.06 5.16-11.24 12.44-11.24h74c7.3 0 13.06 5.2 12.45 11.24l-6.36 66.1c-.5 5.5-5.95 9.6-12.46 9.6z" fill="#8c6239"/><rect fill="#8c6239" height="46.26" rx="14.49" width="116.65" x="542.35" y="466.66"/><path d="m163.54 277.08a168.78 168.78 0 1 1 168.78 168.78 168.78 168.78 0 0 1 -168.78-168.78zm22.6-84.35c-39-22.5-13-53.9-13-74.73 20.84 0 52.25-26 74.74 13m230.6 230.47c39 22.5 13 53.9 13 74.73-20.8 0-52.2 26-74.72-13m0-292.32c22.5-39 53.9-13 74.73-13 0 20.83 26 52.22-13 74.74m-230.59 230.62c-22.52 39-53.9 13-74.73 13 0-20.82-26-52.24 13-74.73m-22.6-84.4c-45 0-38.2-40.2-48.62-58.23 18-10.4 32.22-48.65 71.2-26.15m314.94 84.4c45 0 38.17 40.2 48.58 58.25-18 10.4-32.2 48.64-71.2 26.12m-146.17-253.2c0-45 40.2-38.16 58.25-48.58 10.43 18 48.65 32.23 26.13 71.2m-84.38 314.93c0 45-40.2 38.2-58.23 48.6-10.4-18-48.65-32.2-26.15-71.2m-61.77-61.8c-39 22.53-53.16-15.7-71.2-26.1 10.4-18.07 3.58-58.27 48.57-58.27m315-84.4c39-22.5 53.15 15.76 71.2 26.17-10.42 18-3.58 58.23-48.6 58.23m-253.2-146.18c-22.5-39 15.76-53.17 26.15-71.17 18 10.42 58.24 3.6 58.24 48.6m84.38 314.9c22.52 39-15.7 53.2-26.13 71.22-18-10.42-58.24-3.6-58.24-48.6m0-337.54 146.2 253.17m-292.3 0h292.3m-292.3 0 146.08-253.18m-97.4 168.8-48.76-84.35m146.16 253.11-48.7-84.4m0-168.75h-97.46m292.3 0h-97.4m0 168.77-48.7 84.4m146.1-253.14-48.76 84.35" fill="none" opacity=".4" stroke="#fff" stroke-miterlimit="10" stroke-width="6"/><path d="m674.13 396.57c-9.2 16.5-26 28.56-31.13 30s-21.23 5.14-22.33 12a2.33 2.33 0 0 0 0 .33c-.6 7.1-3.72 29.34-3.72 29.34l-4.8.17-7.3.26-10.6.37a17.44 17.44 0 0 1 .13-1.84c.7-9.78 3.12-55.4-9.34-66.2-14-12.1-39.67-42.45-40.37-57.4s-.64-34 14.34-36.26 15.12 30.82 14.2 32.7 17.44 23 17.44 23-1.2-54.75 0-69.3c1-11.57 16-29.25 26.24-29.88a7 7 0 0 1 6.56 3.26c8.1 12.1-.34 46-2.8 52s-6.7 29.57-3.65 38.27 1.56 57.2 1.56 57.2 23.92-17.38 27.38-28.3 14.4-55.34 24.75-45.15a26 26 0 0 1 5.57 8.93c5.22 12.92 5.06 33.65-2.14 46.5z" fill="#24a200"/><path d="m604.8 381.5-14.3-18.1s-1.2-54.75 0-69.27c1-11.58 16-29.26 26.24-29.9-3.92 11.62-16.9 55.15-11.95 117.27z" fill="url(#a)" opacity=".25"/><path d="m670.63 341s-8.57 32.55-15.18 52.44-37 35.6-37 35.6v-14.5s23.92-17.36 27.38-28.3 14.5-55.33 24.8-45.24z" fill="url(#b)" opacity=".25"/><path d="m604.88 468.56-10.46-1.46c.7-9.77 3.12-55.38-9.34-66.18-14-12.1-39.67-42.46-40.37-57.42s-.63-34 14.35-36.25c0 0 2.7 24.5-.84 35.36s34.64 47 34.64 47 22.4 26.04 12.04 78.96z" fill="url(#c)" opacity=".25"/><path d="m631.78 581.23h-61.2c-6.55 0-12-4.16-12.46-9.57l-6.4-66.12c-.6-6.06 5.16-11.24 12.44-11.24h74c7.3 0 13.06 5.2 12.45 11.24l-6.36 66.1c-.5 5.5-5.95 9.6-12.46 9.6z" fill="url(#d)"/><rect fill="url(#e)" height="46.26" rx="14.49" width="116.65" x="542.35" y="466.66"/><path d="m620.67 319c-2.45 6-6.7 29.57-3.66 38.27s1.57 57.17 1.57 57.17l-1.58 53.73-4.8.44v-.25l2-36.36s-5.6-96.94-.46-112.4 9.7-52.6 9.7-52.6c8.1 12.05-.34 46-2.77 52z" fill="url(#f)" opacity=".25"/><path d="m674.13 396.57c-9.2 16.5-26 28.56-31.13 30s-21.23 5.14-22.33 12c1.67-12.64 31.13-23.1 44.44-42.9s11.14-45.73 11.14-45.73c5.25 13.06 5.1 33.8-2.1 46.63z" fill="url(#g)" opacity=".25"/><path d="m595.85 315.14c.34.62-6.7-2.8-6.5 0s6.5 2 6.5 2-4.77 3.86-.85 4.86 2.85-4.14 2.85-4.14 3 4.08 4.83 1.8-2.63-3.8-2.63-3.8 3.12-2.63 1.92-4-4.07 1.48-4.08 2.06-.15-4.67-1.65-4-2.48 1.52-.4 5.22z" fill="#fff"/><circle cx="597.4" cy="316" fill="#fffe73" r="1.67"/><path d="m550.8 319.05c.6.4-7 .53-5.6 2.85s6.5-1.1 6.5-1.1-2.4 5.44 1.37 4.6.65-4.86.65-4.86 4.38 2.2 5-.58-3.93-2.12-3.93-2.12 1.55-3.64-.12-4.3-2.85 3.12-2.62 3.58-2.18-4-3.12-2.76-1.54 2.4 1.87 4.7z" fill="#fff"/><circle cx="552.62" cy="318.92" fill="#fffe73" r="1.31"/><path d="m607.44 352c.9 0-7.28 5.45-4.13 7s6.24-5.72 6.24-5.72 1.17 7.6 4.67 4-2.64-5.7-2.64-5.7 6.23-.62 5-4-5.75.42-5.75.42-.82-5.06-3.1-4.67-1 5.33-.37 5.72-5.16-2.83-5.36-.8.14 3.6 5.47 3.75z" fill="#fff"/><circle cx="609.29" cy="350.57" fill="#fffe73" r="1.68"/><path d="m651.76 384.78c.58 0-4.78 3.57-2.7 4.58s4.12-3.75 4.12-3.75.76 5 3.12 2.67-1.73-3.74-1.73-3.74 4.13-.42 3.27-2.66-3.77.28-3.77.28-.55-3.33-2-3-.64 3.5-.23 3.74-3.38-1.86-3.52-.52-.04 2.32 3.44 2.4z" fill="#fff"/><circle cx="653.05" cy="383.56" fill="#fffe73" r="1.11"/><path d="m667.7 356c.4.72-7.78-3.3-7.56 0s7.56 2.34 7.56 2.34-5.58 4.53-1 5.67 3.32-4.8 3.32-4.8 3.5 4.67 5.64 2.07-3.12-4.4-3.12-4.4 3.68-3.13 2.23-4.68-4.67 1.72-4.67 2.4-.17-5.48-1.9-4.68-2.92 1.7-.5 6.08z" fill="#fff"/><path d="m353.07 202.26c10.36 1.1 21 2.68 29.63 8.53a50.2 50.2 0 0 1 9.87 9.13 108.83 108.83 0 0 1 25.6 56.45c2.32 17.56.37 35.48 2.8 53 1.35 10.23 4.53 20.6 11.6 28.16 6.82 7.2 16.58 10.85 26 14.27a4.82 4.82 0 0 1 2.92 2c.72 1.35 0 3-.74 4.4l-12.75 23.72a5 5 0 0 1 -2.08 2.44c-1.34.86-3.17.37-4.63-.12-12.94-4-26.35-8.4-36.1-17.68-15.36-14.63-18.3-37.67-20.25-58.77-1.58 20.7-3.17 41.32-4.88 62a9.58 9.58 0 0 1 -1.18 4.87c-1.47 2.2-4.52 2.8-7.2 3.18a671.7 671.7 0 0 1 -79.73 6.1c-6.35.12-13.78-.5-17-5.86-1.7-2.7-1.83-6.1-1.83-9.27-.6-21.1-1.1-42.2-1.7-63.4-4.4 11.22-8.9 22.8-16.6 32.2-17.3 21.33-47 27.9-74.25 31a208.7 208.7 0 0 0 -6.52-25.63c5.62.12 10.85-2.93 15.6-6 12.93-8.4 25.37-17.93 35.24-29.87s17-26.46 18.3-41.82c.73-7.9-.13-15.85-.62-23.77-1.22-22.8 4-48.76 28.17-57.42 9.5-3.4 22-2.44 31.83-2.92a317.06 317.06 0 0 1 50.47 1.08z" fill="#ff8357"/><circle cx="669.71" cy="356.79" fill="#fffe73" r="1.57"/><path d="m607.3 445.27a19.33 19.33 0 0 1 .17 2.32m-3.37 18.78c.52 1.42.75 2.2.75 2.2" fill="none" stroke="#fff" stroke-miterlimit="10"/><path d="m461.33 373.35a2.77 2.77 0 0 0 -1.7-1.13 3.28 3.28 0 0 0 -2.27.87c-8.37 6.13-14.2 15.8-14 25.87a7.66 7.66 0 0 0 1.1 4.35c1.5 2.1 4.67 2.67 7.18 1.85a13.1 13.1 0 0 0 6.07-4.8 28.66 28.66 0 0 0 5.63-13.13c.67-4.24.88-10.37-2-13.9z" fill="url(#h)"/><path d="m172.82 363.83a2 2 0 0 1 1.24-.87 2.33 2.33 0 0 1 1.67.67c6.13 4.7 10.38 12.12 10.22 19.85a6.1 6.1 0 0 1 -.8 3.34 4.62 4.62 0 0 1 -5.26 1.42 9.7 9.7 0 0 1 -4.45-3.67 22.65 22.65 0 0 1 -4.1-10.06c-.47-3.23-.63-8 1.47-10.67z" fill="url(#i)"/><path d="m262.36 93c-6.7 13.78-8.16 29.63-6.6 44.87s6.1 30 10.5 44.75a7.18 7.18 0 0 0 1.83 3.42c1.2 1 2.8.85 4.38.85l13.78-.74a4 4 0 0 0 2.07-.5 3.74 3.74 0 0 0 1-2.55q.36-4.5.73-9c-1.34 3.3.6 7.2 3.54 9.15s6.7 2.44 10.24 2.44a66.7 66.7 0 0 0 18.4-2.2c.62-3.54 1.23-7.07 1.84-10.73-1 5.12 3.78 9.87 8.9 11s10.36-.5 15.24-2.07a33.7 33.7 0 0 0 1-14.4c-1.1 4 2.08 8.42 6.1 9.64s8.4-.25 11.83-2.7a8.16 8.16 0 0 0 3.66-6.2 111.8 111.8 0 0 0 -3.9-62.35c-4.63-12.93-11.82-25.12-22.18-34-27.98-23.8-67.12-9.78-82.36 21.3z" fill="#3f3d56"/><path d="m340.87 204.4a12.58 12.58 0 0 0 -.24 3.48c-13.42 15.82-30 6.58-37.08 1.27a29.72 29.72 0 0 0 .7-6.12c1.4-10.52 2.35-18.1.77-22.36.24-.24.48-.6.73-.85 4.4 3.66 9.5 6.34 15 6.46 6.46 0 12.2-3.66 16.58-8.53.36 13.6 3.8 25.57 3.54 26.66z" fill="url(#j)"/><path d="m304.8 180.8.1-.16c0-.1 0 0-.1.15z" fill="url(#k)"/><path d="m350.63 133.37c-.37 14.14-2.44 28.77-10.36 40.6a45.28 45.28 0 0 1 -2.93 3.78c-4.4 4.88-10.12 8.53-16.58 8.53-5.62 0-10.73-2.8-15-6.46-.12-.13-.25-.13-.37-.25l-.5 1a10 10 0 0 0 -2.44-3.66 77 77 0 0 1 -20.85-37.7c-3.16-13.9-6.1-26.33 4.77-38 6-6.34 14-10.23 22.43-12.43 7-1.83 14.5-2.56 21.2-.12 8.3 3 14.4 10.5 17.45 18.78s3.3 17.15 3.18 25.94z" fill="url(#l)"/><path d="m476.46 485.85a41.87 41.87 0 0 1 -22.8 9.87c-80.46 7.58-68.66-7.92-123.26-6.72-2.7.06-5.33.2-7.9.4-50.88 4-86 33.7-131.9 13.75-10.5-4.54-12.72-17.7-11.25-30.57a74.74 74.74 0 0 1 3.82-16.38c5.6-15.6 17.93-28.3 32-37.3a166.26 166.26 0 0 1 29.43-14.64c7.3-2.92 14.75-6.58 22.67-7.3 23-2.33 46.7-1.84 69.74-2.7 13.42-.6 26.84-1.1 40.13-1.58a55.34 55.34 0 0 1 12.68.6 42.52 42.52 0 0 1 9.88 3.92 345 345 0 0 1 72.06 47.67c6 5.13 12.07 11 13.65 18.78 1.54 8.18-2.63 16.83-8.94 22.2z" fill="#002d40"/><path d="m436.2 466.36-22.9-1.93a5.77 5.77 0 0 0 -3.9.6 11.17 11.17 0 0 0 -1.9 2.35c-2.58 3.2-7.46 2.93-11.2 4.63-3.1 1.42-5.33 4.16-7.44 6.82-3.1 3.88-6.33 8.06-6.8 13 4 .82 2.7 2.62 6.67 3.43-21.78-2-44.06-8.46-66.82-6 17.07-6.36 26.5-11.58 70.38-26.32 6.27-2.1-5.26-11.06 1-13.25s12.75-2.07 19.24-2c9.34.16 18.74.32 28 1.83 5.2.86 14.16 4 12.28 11-1.8 6.77-11.47 6.3-16.6 5.86z" fill="url(#m)"/><path d="m394.16 461.1-69.06 26.64-2.6 1.7c-50.88 4-86 33.7-131.9 13.73-10.5-4.54-12.72-17.7-11.25-30.57 14.46 21.87 38.7 15.14 38.7 15.14 7.52 4.13 166.1-37.74 166.1-37.74-.68 3.67 8.47 6 8.47 6z" fill="url(#n)"/><path d="m236.57 439.54c7-2.37 14.24-9.27 21.53-10.37 4.24-.64 8.28-2.17 12.46-3.14a47.47 47.47 0 0 1 26.64 1.6c2.9 1 5.68 2.38 8.63 3.2a44.5 44.5 0 0 0 12.45 1.3c21.36-.18 37.63-3.65 56.1-14.38 1.3-.75 2.7-1.55 4.17-1.35a13.06 13.06 0 0 1 3.2 1.38c4 1.77 8.53-.68 12.9-1.26 5.12-.68 10.18 1.27 15 3.25 6.37 2.65 18.13 11.52 24.37 14.4 2.32 1.06 4.88 2.42 5.6 4.87-1.85 1.64-4.56 1.7-7 1.7l-28.8-.2c-5.06 0-10.2-.1-15.05-1.63-3.57-1.13-6.86-3.06-10.48-4-4.2-1.1-8.64-.9-13-.54a220.5 220.5 0 0 0 -57.4 12.54 59.84 59.84 0 0 1 -10.6 3.23c-4.45.73-9 .32-13.5 0q-17.56-1.36-35.17-1.25c-3.85 0-12.53 2.76-16 .6-5.13-3.27.23-8.7 3.94-9.94z" fill="url(#o)"/><path d="m316.62 491a449.74 449.74 0 0 1 73.52-27.2c1.6-.48 3.54-1.1 4-2.68a4.66 4.66 0 0 0 -.12-2.56c-1.7-7.07-5.5-13.4-9.27-19.63-2.56-4.15-5.12-5.86-10.1-5.25a409.06 409.06 0 0 0 -74.4 16.46" fill="none" stroke="#fff" stroke-miterlimit="10" stroke-width="1.68"/><path d="m396.6 454.88a64.7 64.7 0 0 1 52.4 5.5c2 1.2 4 2.55 6.35 2.67s5-1.34 5.12-3.66c.12-2.08-1.83-3.8-3.66-4.76a21 21 0 0 0 -9-2.44c-2.43-7.8-10.23-12.68-17.8-16s-15.72-6.22-21-12.56c-1.45-1.7-2.92-3.9-5.1-4.14-1.72-.25-3.3.73-4.65 1.7-5.12 3.9-8.28 10.24-14.14 12.93-1.82 3.54-3 7.55-2 11.33a16.27 16.27 0 0 0 7.07 9.27 7.67 7.67 0 0 0 6.43.15z" fill="url(#p)"/><path d="m295.27 438.05c-2.8-1-5.85 0-8.77.73a48.44 48.44 0 0 1 -10.24 1.22c-3.9 0-7.92-.48-11.83.13a41.5 41.5 0 0 0 -8.4 2.68 153.9 153.9 0 0 1 -23.3 6.6c-2.55.5-5.72 1.46-6.2 4s2.3 4.75 4.87 4.88 5.12-.86 7.68-1.22a30.68 30.68 0 0 1 8.16.36 293.3 293.3 0 0 0 29.4 1.34 32.2 32.2 0 0 0 6.82-.48c3-.74 5.73-2.7 8.53-4.15s10.84-3.3 12.06-6.6c1.1-3.62-5.86-8.53-8.8-9.48z" fill="url(#q)"/><path d="m308.8 119.47a5.07 5.07 0 0 0 1.35 2.68 5.42 5.42 0 0 0 3.42.74l16.1-.38c2.43 0 5-.12 7.18-1.34s3.78-3.66 3-6.1c.12 2.2.12 4.5.25 6.7 5.85.5 11.7 1.1 17.68 1.6-1.3-11.34-3.74-22.67-9.1-32.67s-14-18.64-24.86-22.05a35.8 35.8 0 0 0 -31.82 5.63c-6.1 4.64-10.48 11.1-14.14 17.68-4.4 7.68-8.17 16.47-8 25.5.25 12.05 4.52 11 14.27 11.8 4.76.38 12.2 4.4 16.83 2.7 7-2.45 5.37-12.68 6.34-18.66.4 2.02.7 4.46 1.5 6.17z" fill="#3f3d56"/><path d="m283.53 89.84c9-6.47 20.25-9.5 31.46-10a29.08 29.08 0 0 1 10.23 1.1 34.1 34.1 0 0 1 8.16 4.77 81.8 81.8 0 0 1 11.82 9.64 40.55 40.55 0 0 1 11.28 29.65c1.7-2.2 2.2-5 2.44-7.8a46.3 46.3 0 0 0 -51.2-49.76 56.26 56.26 0 0 0 -19.27 6 42 42 0 0 0 -7.07 4.27c-6.7 5-11.2 12.57-13.4 20.5-1.35 4.76-2.45 10.36-1.72 15.24 3.06-2 4.15-8.65 6.1-11.83a46.34 46.34 0 0 1 11.17-11.76z" fill="#ff8357"/><path d="m178 370.8c-3.17-2.2-15.8-5.66-19.23-7.48-5.6-2.93-11.34-4.52-17.56-1.83-5.48 2.43-9.62 7.9-9.86 13.9-.13 3.4.73 7.3-1.35 10.1a9.9 9.9 0 0 1 -3.9 2.8 62.2 62.2 0 0 1 -13.1 4.71 12.66 12.66 0 0 0 -4.75 2c-1.35 1.1-2 3.3-1 4.64s2.56 1.34 4 1.34a48.9 48.9 0 0 0 15.75-2.6 47.9 47.9 0 0 0 -13 11.23c3.17 1.48 7 .62 10.36-.23a189.4 189.4 0 0 0 41.64-16.48c9.3-4.9 23.16-14.4 12-22.1zm-25.9 5.7a3.35 3.35 0 0 1 -1.46 2.2 4.54 4.54 0 0 1 -1.92.56 4.44 4.44 0 0 1 -1.85 0 4.7 4.7 0 0 1 -1.5-.94 6.48 6.48 0 0 1 -1.92-2.14 5.3 5.3 0 0 1 -.34-2.53 6.23 6.23 0 0 1 1.32-3.73c1.13-1.28 2.36-1.14 3.8-.7s2.7.67 3.43 2.2a7.24 7.24 0 0 1 .5 2.4 8.78 8.78 0 0 1 -.06 2.68z" fill="url(#r)"/><path d="m533.52 397.7c-11.34.6-24.14.73-32.3-7.07-5.38-5-7.8-12.56-13.55-17a17.27 17.27 0 0 0 -15.36-2.8c-4.16 1.28-8.65 4.27-10.18 8.22a3.9 3.9 0 0 1 -4 2.56c-6 1-6.08 4.54-8.76 7.2s-2.3 9-1 12.5c.86 2.2 2.93 3.53 5 4.75a87.72 87.72 0 0 0 43 11.83 3.07 3.07 0 0 0 2.32-.6c1-1 .12-2.82-1.1-3.67s-2.7-1.58-3.18-2.92a41.63 41.63 0 0 0 25.73 3.42v-3.42a29.92 29.92 0 0 1 -13.13-4.6 63.54 63.54 0 0 0 23.4-3 5.67 5.67 0 0 0 3.43-2c.9-.94.9-2.77-.3-3.38zm-51.24-11.2a4.4 4.4 0 0 1 -3.54 2.2 9.2 9.2 0 0 1 -4.22-.82 3.36 3.36 0 0 1 -2.4-4.45 6.2 6.2 0 0 1 1.3-3.3 5.25 5.25 0 0 1 1.76-1.18c1.86-.84 4.23-1 5.8.33a5.94 5.94 0 0 1 1.77 4.77 6.17 6.17 0 0 1 -.47 2.44z" fill="url(#s)"/><path d="m606.07 628.26c-.12.67-.27 1.35-.45 2-.7 2.64-1.92 5.2-4.07 6.77-4 2.93-9.5 1.46-14.26.12-62.43-18.55-128.4-20.82-193.4-18.15s-129.72 10.5-194.7 11.88c-34.5.73-69-.37-103.5-1.47-18.18-.6-36.22-1.1-54.4-1.7-4.75-.12-9.86-.36-14.13-2.56s-7.68-7-6.6-11.7c.74-3.17 3.3-5.62 5.86-7.68 11-8.6 24.7-12.8 37.7-18.2a114.07 114.07 0 0 0 13.64-6.57c21-12.07 37.55-33.9 61.58-36.7 16.7-2 32.92 6.23 49.74 8s32.92-2.55 49.25-4.14c14.76-1.7 24.26 1.46 38 4.27 34 7.07 75.1 1.6 108.92-4.88 15.73-3 31.34-7 47.2-8.65 19.5-2.08 39.13-.5 58.64 1 23.27 1.7 46.45 3.54 69.73 5.37 3 .25 6.22.5 8.65 2.2 2.08 1.34 3.42 3.54 4.64 5.6 5.73 9.52 11.34 18.9 17.07 28.42 8.48 14.38 17.55 30.18 14.87 46.76z" fill="#5d7599"/><path d="m274.06 266.17c1.83 7.55-.85 15.48-3.17 22.9s-4.52 15.62-1.84 22.93c1 2.57 2.32 4.76 3 7.44s.25 5.73-1.83 7.3m111.98-72.3c-4.38 5.6 19.4 25.36 1.47 76.56" fill="none" stroke="#fff" stroke-miterlimit="10" stroke-width="1.68"/><path d="m249.32 326.88a96.83 96.83 0 0 1 -12 16.7c-11.16 12-26.66 19.1-42.4 23.66-5.65 1.65-12.73 4.74-12.3 10.62.26 3.72 3.87 6.5 7.53 7.08s7.4-.44 11-1.47l16.43-4.77c11.22-3.25 22.83-6.7 31.6-14.42 8-7.08 12.87-17.08 16.75-27.06 2.8-7.22 5.23-15 3.76-22.6-.7-3.63-2.28-7-3-10.67-.8-4-.3-8.37.25-12.34-6.72 10.78-10.95 24.03-17.63 35.28z" fill="url(#t)"/><path d="m404.82 356.78a78.6 78.6 0 0 0 30 33.57c2.4 1.47 5.23 3.46 5 6.26-.22 2.12-2.33 3.64-4.44 3.88a12.48 12.48 0 0 1 -6.16-1.33 73 73 0 0 1 -38.54-38.4c-6.08-14.34-8.82-34.72-2.25-49.37 5.16 2.07 6.77 15.7 8.2 20.9 2.3 8.25 4.58 16.66 8.2 24.5z" fill="url(#u)"/><path d="m285.53 354.13a151.44 151.44 0 0 0 4.52 18c1.78 6.08 3.78 12.47 8.5 16.68 3.47 3.1 8 4.62 12.5 5.84a10.83 10.83 0 0 1 4 1.7 3.52 3.52 0 0 1 1.3 3.9c-.78 1.86-3.28 2.1-5.3 2a208.64 208.64 0 0 1 -33.33-4 6 6 0 0 1 -2.28-.8c-1.7-1.2-1.74-3.67-1.6-5.75 1.14-15.2 2-30.22.9-45.45-.2-2.7.48-11.4 5.42-10.06 4.37 1.24 4.75 14.4 5.37 17.93z" fill="url(#v)"/><path d="m336.5 401.72q32.15-.26 64.26-2c-1.66-3.62-5.78-5.42-9.67-6.18s-8.3-2-12.1-1c-4.58 1.2-9 3.35-13.62 4.6-9.38 2.58-19.28 4.5-28.9 4.58z" fill="url(#w)"/><path d="m252.48 225.3s16 20.62 39.82 0l3.2 5s-12.58 19.47-30 12.6-17-14.15-17-14.15z" fill="#f45422"/><path d="m303.45 207.32s16 20.6 39.82 0l3.2 5s-12.58 19.46-30 12.6-17-14.16-17-14.16z" fill="url(#x)"/><path d="m605.62 630.32c-.7 2.64-1.92 5.2-4.07 6.77-4 2.92-9.5 1.45-14.26.1-62.43-18.58-128.4-20.87-193.4-18.2s-129.7 10.48-194.7 11.86c-34.5.73-69-.37-103.5-1.47-18.18-.62-36.22-1.1-54.4-1.72-4.75-.12-9.86-.36-14.13-2.56s-7.68-7-6.6-11.7c.74-3.17 3.3-5.62 5.86-7.68 11-8.6 24.7-12.8 37.7-18.2a297 297 0 0 1 -31.24 24.9c169.52 34.16 347.26-30.3 516.9 3.28 15 3 37.6 3.82 51.14 10.8a13 13 0 0 1 4.68 3.8z" fill="url(#y)"/><path d="m205.18 558.12c-3.33 1.3-6.78 2.7-9.17 5.34s-3.37 7-1.22 9.8 6.2 3.1 9.77 3.1l162.2 1.1a179 179 0 0 0 21-.68c18.88-2.12 36.5-10.2 53.73-18.17 2.16-1 4.57-2.28 5.1-4.6.8-3.6-3.34-6.2-6.85-7.25-22.2-6.8-46-1.7-69 1.76a476.87 476.87 0 0 1 -86.73 5.07q-21.73-.72-43.34-3.4c-14.1-1.72-22.38 2.83-35.48 7.95z" fill="url(#z)"/><path d="m581.65 388.1c.55 1-10.9-4.54-10.53 0s10.53 3.27 10.53 3.27-7.76 6.32-1.46 7.9 4.63-6.7 4.63-6.7 4.84 6.63 7.8 2.92-4.26-6.16-4.26-6.16 5.1-4.26 3.1-6.5-6.58 2.42-6.6 3.35-.23-7.63-2.65-6.5-3.96 2.4-.57 8.4z" fill="#fff"/></svg>