<svg viewBox="0 0 477.09 346.28" xmlns="http://www.w3.org/2000/svg" xmlns:xlink="http://www.w3.org/1999/xlink"><linearGradient id="a" gradientTransform="matrix(1 0 0 -1 -5.41 169.08)" gradientUnits="userSpaceOnUse" x1="169.16" x2="156.38" y1="91.78" y2="87.69"><stop offset="0" stop-opacity="0"/><stop offset=".99"/></linearGradient><linearGradient id="b" gradientTransform="matrix(1 0 0 -1 -5.41 169.08)" gradientUnits="userSpaceOnUse" x1="5.41" x2="127.27" y1="39.27" y2="39.27"><stop offset="0" stop-color="#e5c5d5"/><stop offset=".42" stop-color="#ead4d1"/><stop offset="1" stop-color="#f0e9cb"/></linearGradient><linearGradient id="c" x1="157.86" x2="187.57" xlink:href="#b" y1="-163.29" y2="-163.29"/><linearGradient id="d" x1="217.38" x2="215.85" xlink:href="#a" y1="-34.53" y2="13.73"/><linearGradient id="e" x1="255.31" x2="269.61" xlink:href="#b" y1="75.7" y2="75.7"/><linearGradient id="f" x1="182.65" x2="116.24" xlink:href="#a" y1="40.6" y2="-9.63"/><linearGradient id="g" x1="134.8" x2="128.54" xlink:href="#b" y1="65.38" y2="40.99"/><linearGradient id="h" x1="127.8" x2="109.09" xlink:href="#b" y1="52.72" y2="27.12"/><linearGradient id="i" x1="142.48" x2="117.28" xlink:href="#b" y1="99.52" y2="69.56"/><linearGradient id="j" x1="150.06" x2="127.75" xlink:href="#a" y1="91.98" y2="87.89"/><linearGradient id="k" x1="102.09" x2="131.62" xlink:href="#a" y1="93.66" y2="93.66"/><linearGradient id="l" x1="144.43" x2="261.72" xlink:href="#b" y1="54.02" y2="54.02"/><linearGradient id="m" gradientTransform="matrix(1 0 0 -1 -28.46 199.79)" gradientUnits="userSpaceOnUse" x1="386.06" x2="409.58" y1="69.98" y2="69.98"><stop offset="0" stop-color="#ecc4d7"/><stop offset=".42" stop-color="#efd4d1"/><stop offset="1" stop-color="#f2eac9"/></linearGradient><linearGradient id="n" gradientTransform="matrix(1.24 -.03 .03 -1.3 -148.69 424.1)" x1="350.92" x2="362.73" xlink:href="#m" y1="238.01" y2="238.01"/><linearGradient id="o" gradientTransform="matrix(.9 .43 .43 -.9 -57.69 118.84)" x1="387.28" x2="409.5" xlink:href="#m" y1="257.42" y2="257.42"/><linearGradient id="p" gradientTransform="matrix(1 0 0 -1 -28.46 199.79)" x1="375.38" x2="230.89" xlink:href="#a" y1="91.9" y2="-252.98"/><linearGradient id="q" gradientTransform="translate(-67.35 -1755.18)" gradientUnits="userSpaceOnUse" x1="113.99" x2="127.89" y1="1965.15" y2="1965.15"><stop offset="0" stop-opacity="0"/><stop offset=".91" stop-opacity=".8"/><stop offset="1"/></linearGradient><linearGradient id="r" x1="128.78" x2="155.86" xlink:href="#q" y1="1997.01" y2="1997.01"/><linearGradient id="s" x1="90.35" x2="123.11" xlink:href="#q" y1="1998.89" y2="1998.89"/><linearGradient id="t" x1="94.09" x2="145.45" xlink:href="#q" y1="2076.66" y2="2076.66"/><linearGradient id="u" gradientTransform="translate(-.69 -1713.48)" x1="52.53" x2="53.44" xlink:href="#q" y1="2008.15" y2="2026.66"/><linearGradient id="v" x1="125.18" x2="133.14" xlink:href="#q" y1="1988.46" y2="1988.46"/><linearGradient id="w" x1="129.92" x2="160.65" xlink:href="#q" y1="2002.19" y2="2002.19"/><path d="m125.8 82.37c11-20.9 16.13-45.68 33.27-62 16.7-15.97 41.53-20.37 64.73-20.37 16 0 32.48 1.87 46.3 9.78 15.52 8.9 25.9 24.22 38.02 37.22a162.3 162.3 0 0 0 79.13 46.38c22.58 5.58 47.4 6.75 65.93 20.56 17.87 13.3 26.35 37.13 23.3 59.1s-16.63 41.8-34.7 54.86c-23.54 17-54.42 23.74-74.4 44.75-16.62 17.5-23.55 42.9-42 58.47-22.3 18.76-55.7 18-83.44 8.78s-52.5-25.7-79.8-36.13c-25.5-9.74-52.7-14.05-79-21.3-8-2.18-16.24-4.83-21.92-10.82-3.9-4.1-6.23-9.4-8.44-14.57-9.28-21.77-18.1-44.64-16.47-68.18 3.57-52.28 67.04-64 89.5-106.53z" fill="#7e9680" opacity=".18"/><path d="m140.3 67.7a11.8 11.8 0 0 1 3.57-3.5 11.18 11.18 0 0 1 4.2-1c4.65-.44 9.6-.62 13.77 1.5a16.33 16.33 0 0 1 6.3 6 14.23 14.23 0 0 1 2.3 6.3 17.6 17.6 0 0 1 -2.2 9 14.16 14.16 0 0 1 -2.75 4.12c-1.1 1.05-2.5 1.83-3.3 3.1a4.58 4.58 0 0 0 -.6 3.43c.08.3.17.66-.06.87a.74.74 0 0 1 -.43.16 3.53 3.53 0 0 1 -3.1-1.63 6 6 0 0 1 -1-3.45 1.16 1.16 0 0 1 -1.5.66l-.13-.06a2.33 2.33 0 0 1 -1.07-1.63c-.55-2.42.7-5 .27-7.4a6.62 6.62 0 0 0 -3.32-4.5c-1.82-1-4-1.3-5.84-2.1a11.68 11.68 0 0 1 -5-4 9.53 9.53 0 0 1 -1.47-2.44c-.33-1.2.74-2.58 1.37-3.42z" fill="#3e3e54"/><path d="m140.3 67.7a11.8 11.8 0 0 1 3.57-3.5 11.18 11.18 0 0 1 4.2-1c4.65-.44 9.6-.62 13.77 1.5a16.33 16.33 0 0 1 6.3 6 14.23 14.23 0 0 1 2.3 6.3 17.6 17.6 0 0 1 -2.2 9 14.16 14.16 0 0 1 -2.75 4.12c-1.1 1.05-2.5 1.83-3.3 3.1a4.58 4.58 0 0 0 -.6 3.43c.08.3.17.66-.06.87a.74.74 0 0 1 -.43.16 3.53 3.53 0 0 1 -3.1-1.63 6 6 0 0 1 -1-3.45 1.16 1.16 0 0 1 -1.5.66l-.13-.06a2.33 2.33 0 0 1 -1.07-1.63c-.55-2.42.7-5 .27-7.4a6.62 6.62 0 0 0 -3.32-4.5c-1.82-1-4-1.3-5.84-2.1a11.68 11.68 0 0 1 -5-4 9.53 9.53 0 0 1 -1.47-2.44c-.33-1.2.74-2.58 1.37-3.42z" fill="url(#a)"/><path d="m140.3 71.26a1.5 1.5 0 0 1 1.07-1.84 3 3 0 0 1 2.26.43 3.2 3.2 0 0 1 1 .73 2.43 2.43 0 0 1 -.32 3.33 2.57 2.57 0 0 1 -3.37-.24 2.72 2.72 0 0 1 -.15-3.42" fill="#ff8357"/><path d="m168.5 114.4a4.87 4.87 0 0 1 2.43 1.96 2.23 2.23 0 0 0 -2.43-1.95z" fill="#fff" stroke="#ff8357" stroke-miterlimit="10" stroke-width=".94"/><path d="m25 134.5a29.76 29.76 0 0 0 3.54.63 13 13 0 0 0 6.18-1c2-.86 3.32-.74 5.6-.7 4.6 0 9.2-.18 13.8-.35 9-.35 18.15-.6 27 1.38 3.46.77 6.8 1.88 10.27 2.8a99.6 99.6 0 0 0 22.38 3.4c2.3.07 5-.13 6.36-2.2a7.67 7.67 0 0 0 1-3.36 29.15 29.15 0 0 0 -.73-10.63c-.14-.57 1.88-4.8 1.46-5.16a1.2 1.2 0 0 0 -1.36-.33c-9.74 4.6-12.25 4.15-17.18 4.6a155.17 155.17 0 0 1 -18.67 0q-7.8-.23-15.5-.22-13.7 0-27.42.84c-2.3.13-4.6.28-6.9.45h-.07l-1.52.13c-3.2.2-6.8.22-8.4.37-3.17.3-6.2-.13-9.38.13a68.15 68.15 0 0 0 -11.56 1.95 6.14 6.14 0 0 0 -3.22 1.63 2.23 2.23 0 0 0 0 3.14 3.47 3.47 0 0 0 2 .33 31 31 0 0 1 9.32 1.07 17.47 17.47 0 0 0 5 1c1.2 0 2.38-.36 3.57-.45a15.05 15.05 0 0 1 4.43.54z" fill="url(#b)"/><path d="m155.27 334.33a5.3 5.3 0 0 1 1.46-.26c3.9-.36 15.38-5.84 15.53-7.1s1 .2 1.16-1.07a33.62 33.62 0 0 1 6.7-.7 2.5 2.5 0 0 1 1.32.26c.7.46.75 1.46.7 2.3q-.2 4.77-.72 9.52a2.15 2.15 0 0 1 -.13.6c-.32.76-1.3.92-2.12 1-6.1.34-12.2.48-18.28.6-2.47.07-4.94.13-7.4 0a1.28 1.28 0 0 1 -.63-.12c-.76-.48-.3-1.95 0-2.53a4.94 4.94 0 0 1 2.4-2.5z" fill="url(#c)"/><path d="m266 180.64c-1.1 1.5-3.18 1.95-5.1 2.3a144.13 144.13 0 0 1 -16.4 1.42c-9.63.46-14.54.92-24.18 1.37-7.5.35-15.63 1.55-23.36 1.54a9 9 0 0 1 -2.6 3.4 7.38 7.38 0 0 1 -1.4.83c.32 17.26-6.27 47.16-9 62.74-3.44 19.47-1.3 42.14-1.5 61.76a11.55 11.55 0 0 1 0 2.16v7.2a2.8 2.8 0 0 1 -.5 1.96c-.76.85-8.2 1.3-9.4 1.26a1.1 1.1 0 0 1 -.66-.16.77.77 0 0 1 -.22-.67 22.85 22.85 0 0 0 -1.2-7.12c-1.64-28.53-3.25-36.7-4.88-53-.58-5.84-1.44-11.6-1.84-17.44-.36-5.45-1.57-10.9-1.9-16.34-.3-5.3-2.3-10.6-1.94-15.9.36-5.5-.85-20.74.4-27.44-2.27-1.16-4.6-2.92-4.78-5.27-.28-3.17 2.83-7.5 4.43-10l6.38-10.25c2.18-3.46 4.44-7 7.7-9.44 2.93-2.17 6.82-3.34 10.24-2.34a11.74 11.74 0 0 1 5 .92c2.8 1.14 5.2 3 8 4.3 7.23 3.42 15.8 2.5 23.9 2.1 10.7-.52 10.3 0 20.88 1.53 1.95.27 4.2.48 5.48-.9s.92-3.13.6-4.77c-2.46-12.4.12-24.92-.7-37.5-.1-1.1-.08-2.37.8-3.1a4.12 4.12 0 0 1 2.2-.66l7.88-.82c4 20.4 8.32 41.1 8.67 61.85a7 7 0 0 1 -1 4.47z" fill="#3e3e54"/><path d="m266 180.64c-1.1 1.5-3.18 1.95-5.1 2.3a144.13 144.13 0 0 1 -16.4 1.42c-9.63.46-14.54.92-24.18 1.37-7.5.35-15.63 1.55-23.36 1.54a9 9 0 0 1 -2.6 3.4 7.38 7.38 0 0 1 -1.4.83c.32 17.26-6.27 47.16-9 62.74-3.44 19.47-1.3 42.14-1.5 61.76a11.55 11.55 0 0 1 0 2.16v7.2a2.8 2.8 0 0 1 -.5 1.96c-.76.85-8.2 1.3-9.4 1.26a1.1 1.1 0 0 1 -.66-.16.77.77 0 0 1 -.22-.67 22.85 22.85 0 0 0 -1.2-7.12c-1.64-28.53-3.25-36.7-4.88-53-.58-5.84-1.44-11.6-1.84-17.44-.36-5.45-1.57-10.9-1.9-16.34-.3-5.3-2.3-10.6-1.94-15.9.36-5.5-.85-20.74.4-27.44-2.27-1.16-4.6-2.92-4.78-5.27-.28-3.17 2.83-7.5 4.43-10l6.38-10.25c2.18-3.46 4.44-7 7.7-9.44 2.93-2.17 6.82-3.34 10.24-2.34a11.74 11.74 0 0 1 5 .92c2.8 1.14 5.2 3 8 4.3 7.23 3.42 15.8 2.5 23.9 2.1 10.7-.52 10.3 0 20.88 1.53 1.95.27 4.2.48 5.48-.9s.92-3.13.6-4.77c-2.46-12.4.12-24.92-.7-37.5-.1-1.1-.08-2.37.8-3.1a4.12 4.12 0 0 1 2.2-.66l7.88-.82c4 20.4 8.32 41.1 8.67 61.85a7 7 0 0 1 -1 4.47z" fill="url(#d)"/><path d="m261.48 89.57c-.28-2.22-.66-4.43-1-6.64-.07-.4 1.28-5.6 1-5.93-.46-.65-2.3-2.34-3-2s-2.2 1.4-2.4 2.16-1.62 6.35-1.62 7.15c0 1.77 1.76 4.84 1.1 6.48a17.77 17.77 0 0 1 -2.24 3.67c-.74 1-1.47 2.1-2.18 3.2s-1.6 2.7-1 4.07a5 5 0 0 0 1.88 2 8.1 8.1 0 0 1 3.22 4c.2.7.23 1.4.42 2.1a2.5 2.5 0 0 0 1.22 1.68 3.42 3.42 0 0 0 1.4.18c1.45 0 3.9.4 5.22-.27s.44-2.64.16-3.78a75.1 75.1 0 0 1 -1.5-11.4c-.24-2.22-.4-4.45-.68-6.65z" fill="url(#e)"/><path d="m160.9 158.9c-.06 0-.06.12 0 .12a.06.06 0 0 0 0-.12z" fill="#fff" stroke="#ff8357" stroke-miterlimit="10" stroke-width=".94"/><path d="m179.3 155a9.23 9.23 0 0 1 -.34 1.08 55.9 55.9 0 0 1 -2.48 5.84c-3.9 7.87-9.82 16.35-15.58 21.56-1.36 1.23-2.86 2.5-4.7 2.64s-3.57-1-5.1-2.05c-5.2-3.6-8-10.94-13.17-14.6-7.16-5-17.13-11.56-19.85-19.84a44.78 44.78 0 0 1 -1.95-17.52c.34-5.3 3.75-13.44 4.8-14.37 2.9-2.58 6.93-3.55 10.58-4.87a7.5 7.5 0 0 1 4.13-.66c1.86.38 3.16 1.95 4.57 3.24a35.72 35.72 0 0 0 7.18 4.58 28.86 28.86 0 0 1 5.63 3.7c4.14 3.7 6.12 9.27 9.96 13.26 2.4 2.48 5.4 4.25 8.15 6.34l.5.36a36.88 36.88 0 0 1 6.48 6.54 6.43 6.43 0 0 1 1.45 2.8 4.68 4.68 0 0 1 -.23 1.98z" fill="#7e9680"/><path d="m177.88 160.64a5.08 5.08 0 0 1 -1.4 1.26 3.25 3.25 0 0 1 -1.07.4c-1.66.36-3.34-.65-4.5-1.94-2.83-3.12-3.5-7.58-5.26-11.42-3-6.54-9.2-11-15.36-14.73-3.35-2-12.8-7.13-8-12a6.8 6.8 0 0 1 5.07-2.23 28.87 28.87 0 0 1 5.63 3.7c4.13 3.7 6.1 9.27 9.95 13.26 2.4 2.48 5.4 4.25 8.15 6.34l1.82 1.65a21.8 21.8 0 0 1 5.64 7.06 10.3 10.3 0 0 1 .8 3 7.7 7.7 0 0 1 -1.46 5.66z" fill="url(#f)"/><path d="m122.53 120.15a3 3 0 0 0 .53 1.25c.8 1 2.32.73 3.5.3a12.8 12.8 0 0 0 4.2-2.47 7.57 7.57 0 0 0 2.42-4.17 12.9 12.9 0 0 0 0-3.13l-.63-8.5a.54.54 0 0 0 -.23-.52.55.55 0 0 0 -.43 0 48.36 48.36 0 0 0 -8.23 4 10.6 10.6 0 0 0 -1.9 1.23c-.5.5-.4.83-.43 1.56a39.47 39.47 0 0 0 .2 4.86 38.67 38.67 0 0 0 1 5.6z" fill="url(#g)"/><path d="m132.65 107.06s-4.28 9.83-8.05 10.48c0 0-1.95.45-2.8-.77l-.57-5.17z" fill="url(#h)"/><path d="m137 98.63c-1.3 5.36-4.73 10.52-9.92 12.36-4.14 1.46-8.86.6-12.66-1.52a12.75 12.75 0 0 1 -4.34-3.7 18.33 18.33 0 0 1 -2.34-5.95q-1.82-6.83-3.62-13.73c-.66-2.5-1.32-5.16-.68-7.67a9.74 9.74 0 0 1 5.34-6.07 19.88 19.88 0 0 1 8.1-1.68 41.35 41.35 0 0 1 10.9 1.13 15.9 15.9 0 0 1 6.57 2.93c3.13 2.57 3.1 5.78 3.13 9.4.02 4.95.66 9.63-.48 14.5z" fill="url(#i)"/><path d="m110.38 64.5c-1.48 1-3 2.48-2.6 4.2s2.35 2.25 4 2.62a43.8 43.8 0 0 1 9.74 3.1 15.74 15.74 0 0 1 7.33 6.88c1 1.95 1.36 4.25 2.5 6.16.9-.25 1.07-1.47 1.78-2.06a2.1 2.1 0 0 1 2.88.7v.06a4.74 4.74 0 0 1 .3 3.38c-.23 1.2-1.06 2.63-2.25 2.37a22.22 22.22 0 0 1 1.87 7.1 22.1 22.1 0 0 0 7.88-13.4 19.8 19.8 0 0 0 -3.67-15 22.48 22.48 0 0 0 -12.14-7.76 34.15 34.15 0 0 0 -10.23-1 13 13 0 0 0 -7.4 2.63z" fill="#3e3e54"/><path d="m110.38 64.5c-1.48 1-3 2.48-2.6 4.2s2.35 2.25 4 2.62a43.8 43.8 0 0 1 9.74 3.1 15.74 15.74 0 0 1 7.33 6.88c1 1.95 1.36 4.25 2.5 6.16.9-.25 1.07-1.47 1.78-2.06a2.1 2.1 0 0 1 2.88.7v.06a4.74 4.74 0 0 1 .3 3.38c-.23 1.2-1.06 2.63-2.25 2.37a22.22 22.22 0 0 1 1.87 7.1 22.1 22.1 0 0 0 7.88-13.4 19.8 19.8 0 0 0 -3.67-15 22.48 22.48 0 0 0 -12.14-7.76 34.15 34.15 0 0 0 -10.23-1 13 13 0 0 0 -7.4 2.63z" fill="url(#j)"/><path d="m121 78.1a22.18 22.18 0 0 0 -1.32 6.17 154 154 0 0 0 -22.4 1.46 19.33 19.33 0 0 1 .77-12 12.83 12.83 0 0 1 2.67-4.25 13.63 13.63 0 0 1 4.87-2.92 23.36 23.36 0 0 1 14.4-.62 10.94 10.94 0 0 1 4.13 1.95c1.5 1.22 3.07 4 1.4 5.7-.57.6-1.6.77-2.27 1.3a8.2 8.2 0 0 0 -2.26 3.2z" fill="#3e3e54"/><path d="m121 78.1a22.18 22.18 0 0 0 -1.32 6.17 154 154 0 0 0 -22.4 1.46 19.33 19.33 0 0 1 .77-12 12.83 12.83 0 0 1 2.67-4.25 13.63 13.63 0 0 1 4.87-2.92 23.36 23.36 0 0 1 14.4-.62 10.94 10.94 0 0 1 4.13 1.95c1.5 1.22 3.07 4 1.4 5.7-.57.6-1.6.77-2.27 1.3a8.2 8.2 0 0 0 -2.26 3.2z" fill="url(#k)"/><path d="m206.43 104.47c15.58-4 26.77-8.76 42.84-7.3a10.1 10.1 0 0 1 5.37 1.65c1.5 1.16 2.26 3.46 1.15 5s-3.5 1.56-5.46 1.58-3.9.08-5.84.22a29.9 29.9 0 0 1 -4.17.37c.72.4.58 1.57 0 2.1a4 4 0 0 1 -2.36.65 148.9 148.9 0 0 0 -18.37 2.92l-7.07 1.4c-.73.15-1.45.32-2.17.5-10.7 2.56-17.57 6.1-28.23 9-5.25 1.42-10.83 2.43-16.08 3.84-2.23.6-9.2.77-7.4 5.5 1.5 4-11.2-1.95-15.15-3.63a7.94 7.94 0 0 1 -3.37-2.48c-1.56-2.17-1.32-5.43-.25-7.8s3.62-1.72 5.84-1.95c4.95-.62 9.88-1.3 14.8-2.07q14.9-2.32 29.62-5.54 8.16-1.92 16.3-3.97z" fill="url(#l)"/><path d="m342.93 266.16c.14 8-.9 39.8-.9 47.84 0 5.28 1.5 7.05-2 9-1.83 1-14 1-14 6 5.05.26 16-.26 21 0 1.06 0 7.36-45.7 11.5-58.12 2.5-7.48 35.32-31 32.68-38.1-.74-2 5.63-15.2 1.1-15.26-10.64-.12-21.58 1.12-25.1 2.3 0 0-24.48 34.5-24.27 46.34zm43.93-48.46a7.76 7.76 0 0 0 -4.86 1.5c-2 1.88-1.47 5.14-.77 7.78 2.18 8.33 5.5 27.44 12.17 49.36 7 22.9 17.25 48.48 17.9 50.37.3.87.2 1.47.94 2s19.4.28 19.56 0c0 0 1.55-4.12-4.4-6.4-1.52-.6-5.7.43-6.4-1.7-6-18.3-8.48-58.15-7.8-65.54.84-9.28 4-33-2-37.94-6.63-.27-17.7.08-24.34.58z" fill="#3f3d56"/><path d="m360.84 223.82c.6 5.14 19.72-.9 21.45-1 3.82-.25 30.25 1.25 33.66-.44 8.07-3.83-12.9-71.77-18-74.83-4.76-2.86-10.58-3.44-16.14-3.3-11.65.3-21.33 6.1-24.58 17.9-1.35 4.9 1 9.9 2.27 14.55 1.94 6.68.5 40.2 1.34 47.12z" fill="#7e9680"/><path d="m368 142c-1.57-3.27-5.9-4.18-8.2-7-2.12-2.56-2.2-6.24-2.07-9.54.15-4.4.47-9 2.7-12.75s7-6.44 11.08-5a13.3 13.3 0 0 1 4.9 3.75 18.3 18.3 0 0 1 4.12 5.92c1.25 3.42.65 7.23-.4 10.7s-2.48 6.9-2.88 10.5c-.27 2.62 0 5.3-.55 7.87s-2.23 5.2-4.8 5.7c-4.53.97-2.8-7.66-3.9-10.14z" fill="url(#m)"/><path d="m365 171.83c.1 1.73.06 3.74-1.25 4.9a4.55 4.55 0 0 1 -2.42.94c-4.85.7-55.76-35.07-61.87-61.1-.22-.95 3.32-3.58 6.1-4.44 1.36-.4 2.5-.4 3 .4 19.82 32 53.63 35.67 57.18 37.18a3.74 3.74 0 0 1 2 3.43c.6 5.14-2.9 14.5-2.74 18.7z" fill="#7e9680"/><path d="m378.62 139.1a3 3 0 0 0 2.5-1c.63-.67 1.1-1.5 1.7-2.2a29.65 29.65 0 0 1 4.45-3.5 13.12 13.12 0 0 0 4.37-6.4 2.83 2.83 0 0 0 0-2 4.9 4.9 0 0 0 -1.3-1.43c-1.52-1.48-1.74-3.74-2-5.92s-.8-4.45-2.62-5.57a11.22 11.22 0 0 0 -.5-5.45 3.9 3.9 0 0 0 -4.43-2.42 1.7 1.7 0 0 1 -.66.16c-.57 0-.8-.76-.95-1.32a6.34 6.34 0 0 0 -9.2-3.9 12.47 12.47 0 0 1 -1.55.85c-1.25.44-2.6.05-3.92.16-2.3.2-4.17 1.9-5.75 3.58a3.74 3.74 0 0 1 -1.25 1 4 4 0 0 1 -1.4.2c-1.9 0-4.2.66-4.7 2.48a3.74 3.74 0 0 0 .15 2.1 8 8 0 0 0 7.32 5.45c1.56 0 2.83-1.1 4.23-1.77a1.6 1.6 0 0 1 .66-.22 1.9 1.9 0 0 1 .8.2c2.7 1 5.66.55 8.52.4a4.14 4.14 0 0 1 1.83.16 3.4 3.4 0 0 1 1.42 1.25c2.26 3 1.7 7.24 1 11a3.1 3.1 0 0 0 2.32-.63 3.65 3.65 0 0 1 -1.8 5.23 2.7 2.7 0 0 0 -1.08.47 1.76 1.76 0 0 0 -.42.9 10.83 10.83 0 0 0 2.22 8.13z" fill="#3f3d56"/><path d="m408.07 111.5c5.27-22.43-3.8-16.92.13-41.54.1-.6-.32-4 .18-4.36 1.06-.66 10.33-1.45 10.82-.34 6.16 13.64 4 26.9 4.07 41.9s-14 50.48-26.2 59.1c-3 2.12 1.25-9.94-1.93-11.7-7.9-4.38-6.5-12.42-2.18-17.93 6.1-7.94 12.7-15.06 15.1-25.13z" fill="#7e9680"/><path d="m293.55 102.3a47.14 47.14 0 0 0 3.52 10.36 33.45 33.45 0 0 0 3.67 3.48c1.13 1 3.3-.76 4.54-1.72 2.8-2.17 1.37-9 2.5-12.47-2.07-1.36-3.65-.16-5.63-1.63a7.38 7.38 0 0 1 -3.08-3.74 7.94 7.94 0 0 0 -.37-1.47 3.9 3.9 0 0 0 -.9-1.1c-.52-.5-2-2.5-2.73-2.32s-1.25 2.5-1.35 3.18a16.77 16.77 0 0 0 -.17 7.45z" fill="url(#n)"/><path d="m423.63 54.8c0-.6-.22-1.35-.8-1.4a1.25 1.25 0 0 0 -.83.38l-3.7 2.86-.44-7.44c-.14-2.23-.4-4.74-2.14-6.15a.85.85 0 0 0 -.72-.26c-.36.08-.46.53-.5.9l-.3 2.73a12.72 12.72 0 0 0 -5.33-5.5 1.63 1.63 0 0 0 -1.38-.24c-.62.26-.7 1.05-.68 1.7q.1 3.25.4 6.46c0-.8-1.2-1.05-1.8-.55a3 3 0 0 0 -.78 2.17 35.17 35.17 0 0 0 2.67 16.3c.28.66.73 1.4 1.42 1.42a2.15 2.15 0 0 0 1.28-.68 10 10 0 0 1 5.44-2.2c5.38-.46 8.28-5 8.2-10.5z" fill="url(#o)"/><path d="m367.78 153.06c-1.1 1.16-3.12 1.36-4.83 1.25-15.4-.93-29.08-10-40.52-20.34a189.9 189.9 0 0 1 -14-14c-1.5-1.67-4.13-3.53-3.74-6a3.63 3.63 0 0 1 .88-1.88c1.36-.4 2.5-.4 3 .4 19.82 32 53.63 35.67 57.18 37.18a3.74 3.74 0 0 1 2.02 3.4z" fill="url(#p)"/><path d="m68.07 344h-31.77c-3.38 0-6.22-2.16-6.45-5l-3.33-34.3c-.3-3.15 2.68-5.84 6.46-5.84h38.4c3.8 0 6.78 2.7 6.46 5.83l-3.3 34.3c-.27 2.9-3.1 5-6.47 5z" fill="#8c6239"/><rect fill="#8c6239" height="24" rx="7.52" width="60.53" x="21.67" y="284.58"/><path d="m90 248.2c-4.78 8.57-13.5 14.83-16.15 15.58s-11 2.67-11.6 6.23a1.2 1.2 0 0 0 0 .18c-.3 3.68-1.92 15.22-1.92 15.22l-2.5.1-3.78.12-5.5.2a9 9 0 0 1 .07-1c.36-5.08 1.62-28.75-4.85-34.35-7.26-6.28-20.58-22-20.95-29.8s-.33-17.64 7.44-18.8 7.84 16 7.36 17 9.05 11.92 9.05 11.92-.62-28.4 0-35.96c.52-6 8.3-15.18 13.62-15.5a3.63 3.63 0 0 1 3.4 1.68c4.2 6.27-.2 23.87-1.46 27s-3.48 15.34-1.9 19.86.8 29.68.8 29.68 12.42-9 14.22-14.68 7.47-28.7 12.84-23.42a13.5 13.5 0 0 1 2.9 4.63c2.77 6.7 2.68 17.45-1.1 24.1z" fill="#24a200"/><path d="m54.07 240.4-7.42-9.4s-.63-28.4 0-35.94c.52-6 8.3-15.18 13.62-15.5-2.04 6-8.78 28.6-6.2 60.83z" fill="url(#q)" opacity=".25"/><path d="m88.23 219.37s-4.45 16.9-7.88 27.2-19.2 18.5-19.2 18.5v-7.53s12.4-9 14.2-14.68 7.53-28.72 12.88-23.5z" fill="url(#r)" opacity=".25"/><path d="m54.1 285.57-5.42-.76c.36-5.06 1.62-28.73-4.85-34.33-7.26-6.28-20.58-22-20.95-29.8s-.33-17.64 7.44-18.8c0 0 1.4 12.7-.44 18.34s18 24.4 18 24.4 11.6 13.5 6.23 40.97z" fill="url(#s)" opacity=".25"/><path d="m68.07 344h-31.77c-3.38 0-6.22-2.16-6.45-5l-3.33-34.3c-.3-3.15 2.68-5.84 6.46-5.84h38.4c3.8 0 6.78 2.7 6.46 5.83l-3.3 34.3c-.27 2.9-3.1 5-6.47 5z" fill="url(#t)"/><rect fill="url(#u)" height="24" rx="7.52" width="60.53" x="21.67" y="284.58"/><path d="m62.3 208c-1.26 3.1-3.47 15.34-1.9 19.86s.82 29.67.82 29.67l-.8 27.88-2.5.24v-.13l1-18.86s-2.9-50.3-.24-58.3 5-27.3 5-27.3c4.27 6.2-.1 23.8-1.37 26.96z" fill="url(#v)" opacity=".25"/><path d="m90 248.2c-4.78 8.57-13.5 14.83-16.15 15.58s-11 2.67-11.6 6.23c.88-6.55 16.16-12 23.07-22.25s5.82-23.76 5.82-23.76c2.73 6.8 2.64 17.55-1.14 24.2z" fill="url(#w)" opacity=".25"/><path d="m53.43 196c.18.32-3.48-1.45-3.37 0s3.37 1 3.37 1-2.43 2-.43 2.5 1.48-2.14 1.48-2.14 1.56 2.12 2.5.93-1.35-2-1.35-2 1.62-1.37 1-2.1-2.1.78-2.12 1.08-.06-2.42-.84-2.08-1.3.8-.23 2.8z" fill="#fff"/><circle cx="54.23" cy="196.4" fill="#fffe73" r=".87"/><path d="m30.06 198c.3.2-3.63.28-2.9 1.48s3.36-.58 3.36-.58-1.25 2.83.7 2.4.35-2.53.35-2.53 2.27 1.15 2.6-.3-2-1.1-2-1.1.8-1.9-.07-2.23-1.48 1.62-1.36 1.86-1.13-2.08-1.62-1.43-.83 1.23.94 2.43z" fill="#fff"/><circle cx="30.99" cy="197.92" fill="#fffe73" r=".68"/><path d="m59.44 215.08c.46 0-3.78 2.83-2.14 3.63s3.23-3 3.23-3 .6 3.96 2.42 2.1-1.38-3-1.38-3 3.23-.33 2.6-2.1-3 .23-3 .23-.44-2.63-1.63-2.42-.52 2.78-.2 3-2.67-1.46-2.77-.4.1 1.9 2.87 1.98z" fill="#fff"/><circle cx="60.4" cy="214.34" fill="#fffe73" r=".87"/><path d="m82.44 232.1c.3 0-2.48 1.84-1.4 2.37s2.13-1.95 2.13-1.95.4 2.6 1.62 1.38-.9-1.94-.9-1.94 2.13-.22 1.7-1.38-2 .15-2 .15-.3-1.73-1-1.56-.34 1.8-.13 1.94-1.75-1-1.83-.25 0 1.2 1.8 1.24z" fill="#fff"/><circle cx="83.11" cy="231.46" fill="#fffe73" r=".58"/><path d="m90.7 217.16c.22.37-4-1.7-3.9 0s3.9 1.2 3.9 1.2-2.9 2.36-.5 2.95 1.7-2.5 1.7-2.5 1.82 2.43 2.94 1.08-1.62-2.3-1.62-2.3 1.9-1.6 1.16-2.4-2.42.9-2.42 1.24-.1-2.84-1-2.42-1.5.9-.25 3.16z" fill="#fff"/><circle cx="91.75" cy="217.57" fill="#fffe73" r=".81"/><path d="m55.37 273.48a10 10 0 0 1 .08 1.2m-1.75 9.75c.28.74.4 1.14.4 1.14" fill="none" stroke="#fff" stroke-miterlimit="10"/><path d="m42.06 243.82c.3.52-5.66-2.36-5.46 0s5.46 1.7 5.46 1.7-4 3.27-.76 4.08 2.4-3.47 2.4-3.47 2.52 3.44 4 1.5-2.2-3.18-2.2-3.18 2.65-2.2 1.6-3.37-3.4 1.26-3.43 1.74-.1-4-1.37-3.37-2 1.25-.24 4.37z" fill="#fff"/></svg>