<svg height="692.97" width="985" xmlns="http://www.w3.org/2000/svg" xmlns:xlink="http://www.w3.org/1999/xlink"><linearGradient id="a" gradientUnits="userSpaceOnUse" x1="599.51" x2="599.51" y1="796.49" y2="363.49"><stop offset="0" stop-color="#808080" stop-opacity=".25"/><stop offset=".54" stop-color="#808080" stop-opacity=".12"/><stop offset="1" stop-color="#808080" stop-opacity=".1"/></linearGradient><g fill="#7e9680"><path d="m297.08 46.32c-12.12 1.58-25.3 4.24-33.3 14.83-9.47 12.52-8.2 31.55-3.9 47.4s11.06 31.3 11 47.9c-.2 26.4-18.22 48.8-38.73 60.6s-43.66 15.62-65.8 22.5a256 256 0 0 0 -58.77 26.94c-15.6 9.66-31.27 22.3-37.5 41.38-10.24 31.3 8.58 64.5 27.17 90.2 57 78.76 129.66 154.34 218.48 162 66.35 5.66 132.77-27.9 198.4-15.6 30.15 5.65 58.24 20.67 86.54 33.9s58.07 25 88.58 23.5 62.15-18.8 75.37-50.5c7.8-18.72 8.6-40.44 15.82-59.48 22.12-58.4 91.06-67.9 131.06-111.85 21-23.1 33-54.8 43-86.22 16.15-51.12 28.26-105 25.56-159.35-1.18-23.66-5.6-48.23-18.73-66.5-9.55-13.28-22.88-22.1-35.9-30.63-29.63-19.41-61.46-39.46-95.5-37.14-19.63 1.32-38.2 10.05-56.9 16.9-35.67 13-72.87 19.43-109.88 25.78-61.15 10.5-123.18 21-185.15 15.76-27.4-2.34-53.24-11.64-80.17-15.44-32.75-4.63-68.14-1.13-100.76 3.12z" opacity=".2"/><circle cx="791" cy="169.97" opacity=".5" r="38"/><path d="m671.33 304.12h-347.73l19.87-61.15h10.65l2.13 15.86h275.35l1.4-15.86h12.78z"/></g><path d="m671.33 304.12h-347.73l19.87-61.15h10.65l2.13 15.86h275.35l1.4-15.86h12.78z" opacity=".2"/><path d="m695.46 317.7h-403.08l-9.94-24.9h421.54zm-12.76 15.87h-380.4l-9.92-15.86h403.08l-12.77 15.87zm-380.4-4.53h380.4v18.12h-380.4zm-22.7 47.56h432.9v67.95h-432.9z" fill="#7e9680"/><path d="m279.6 376.6h432.9v67.95h-432.9z" opacity=".2"/><path d="m985 605.35-985-6.8 28.4-160.8h935.3z" fill="#7e9680"/><path d="m279 555.53h12.58a15 15 0 0 1 15 15v30.3h-42.58v-30.3a15 15 0 0 1 15-15zm92.25 0h12.58a15 15 0 0 1 15 15v30.3h-42.58v-30.3a15 15 0 0 1 15-15zm114.95 0h12.6a15 15 0 0 1 15 15v30.3h-42.6v-30.3a15 15 0 0 1 15-15zm119.23 0h12.57a15 15 0 0 1 15 15v30.3h-42.57v-30.3a15 15 0 0 1 15-15zm95.1 0h12.58a15 15 0 0 1 15 15v30.3h-42.57v-30.3a15 15 0 0 1 15-15z" opacity=".2"/><path d="m469.8 444.55h45.4v90.6h-45.4z" opacity=".2"/><circle cx="187.35" cy="632.53" fill="none" stroke="#000" stroke-miterlimit="10"/><path d="m279.6 376.6h7.1v67.95h-7.1zm41.16 0h7.1v67.95h-7.1zm45.42 0h7.1v67.95h-7.1zm44 0h7.1v67.95h-7.1zm48.26 0h7.1v67.95h-7.1zm65.28 0h7.1v67.95h-7.1zm44 0h7.1v67.95h-7.1zm49.68 0h7.1v67.95h-7.1zm42.58 0h7.1v67.95h-7.1zm45.42 0h7.1v67.95h-7.1zm7.1 4.53h-432.9l-25.54-22.65h482.56l-24.13 22.65zm-432.9 0h17.03v9.06h-17.03zm36.9 0h17.04v9.06h-17.04zm44 0h17.03v9.06h-17.03zm45.42 0h17.03v9.06h-17.03zm48.26 0h17.03v9.06h-17.01zm63.87 0h17.03v9.06h-17.03zm45.42 0h17.03v9.06h-17.03zm49.67 0h17.03v9.06h-17.03zm42.58 0h17.03v9.06h-17.03zm39.74 0h17.03v9.06h-17.04zm44-22.65h-486.82l-5.68-15.85h496.76z" fill="#7e9680"/><path d="m739.46 358.48h-486.82l-5.68-15.85h496.76z" opacity=".2"/><ellipse cx="492.5" cy="335.83" fill="#7e9680" rx="11.35" ry="18.12"/><ellipse cx="492.5" cy="335.83" opacity=".2" rx="11.35" ry="18.12"/><ellipse cx="492.5" cy="335.83" fill="#7e9680" rx="7.1" ry="11.32"/><path d="m766.17 700.64-48.68-37.36s-3.94-15.57-5.5-26.47-3.94-57.6-3.94-57.6a67.86 67.86 0 0 0 2.2-12.35c.5-.1 1-.22 1.46-.35a24.28 24.28 0 0 0 16.4-14.13c5-12.44-1.47-27.14-9.65-37s-18.47-17.78-23.85-30c-6.64-15.06-4.37-33.26-7.76-49.74a15 15 0 0 0 -2.5-6.43c-2.1-2.6-5.4-3.18-8.34-4.22-9.28-3.3-16.24-12.3-21.67-21.72-8.8-15.25-17.9-38.44-36-39.76-6.73-.5-13.76 1.78-20.56 1.76-10.56 0-21 .13-31.47 1.58-3.74.5-7.62 1.2-10.74 3.68-10.72 8.47-5.87 30.86-16.2 40-3.06 2.7-7 3.68-10.46 5.54-13.08 7-18.9 25.67-18.12 42.47.36 7.87 2 16.07 6.65 21.82 3.68 4.6 8.93 7.24 12.36 12.1 5.54 7.82 4.8 18.2 4.2 28.76-7.4 3.1-13.35 6.67-15.22 10.5-6.27 12.84-5.5 56.82-5.5 56.82s2.37 72-15.7 81l-67.52 46.7s-47.9-41.64-59.68-17.12c-8.06 16.77 21.35 26.26 40.74 30.58-12.23 8.68-19 24.72-13.26 35.6 9 17.1 34.16 28.8 34.16 28.8s95.95 4.62 140.3-5.32h.73c18.83 3.4 45.85 7 67.52 4.84.4 1 .7 1.64.7 1.64s139 11.68 164.1-35.8c12.9-24.36-.56-35.6-16.72-40.8 18.1-1.43 38.7-6.5 41.06-21.87 4.35-28.04-63.57 3.87-63.57 3.87zm-14 14.9c-25.43 9.26-46.08 9.78-57.07 9.08-5.4-11.77-27.92-62.8-28.5-96.93.13-7.63 1.5-14.3 4.53-19.3 6.55-10.76 8.48-19.2 8.26-25.62 0-.48 0-.94 0-1.4a26.07 26.07 0 0 0 -.58-5.84 15.32 15.32 0 0 1 .93 8.34c-2.36 12.07 3.93 90.3 3.93 90.3s5.1 17.5 15.7 22.56zm-249.05-5.54 24.34-15.57s11.4-5.43 12.54-18.7l8-63.23a65.12 65.12 0 0 0 2.16 8c1.42 4.15 2 10.23 2.1 17.47-.26 35.25-12.26 93.8-12.26 93.8h.15l-.1.43-.84.05c-19.74-.6-65.76-2.32-91.53-5.9zm-42.65 36.86v.14h-6z" fill="url(#a)" transform="translate(-107.5 -103.51)"/><path d="m545.02 306.1c5.25 9.2 12 18 20.95 21.2 2.84 1 6 1.56 8 4.1a14.74 14.74 0 0 1 2.42 6.27c3.26 16.07 1.07 33.82 7.5 48.5 5.2 11.9 15.14 19.64 23.05 29.23s14.12 23.93 9.32 36.05a23.53 23.53 0 0 1 -15.77 13.78c-6.62 1.8-13.53 1-20.25-.15-8.86-1.57-17.88-4-25.26-10-12.78-10.37-18.18-29-24.86-45.56-3.14-7.76-7.3-15.9-14.2-18.67-7.92-3.18-16.8 2.13-21.93 9.92s-7.4 17.58-9.88 27c-2.8 10.63-6.35 21.68-13.7 28.63a23.08 23.08 0 0 1 -24.65 4.93c-8.2-3.42-14.7-12.06-16.57-22.1-2.9-15.45 4.06-34-4.5-46.2-3.3-4.74-8.38-7.32-12-11.8-4.44-5.6-6.07-13.6-6.42-21.27-.75-16.38 4.87-34.63 17.5-41.4 3.4-1.82 7.16-2.77 10.13-5.4 10-8.9 5.3-30.72 15.65-39 3-2.42 6.76-3.1 10.38-3.6 10.14-1.4 20.2-1.57 30.4-1.54 6.6 0 13.38-2.2 19.9-1.7 17.5 1.3 26.27 23.92 34.8 38.8z" fill="#965d7b"/><path d="m357.3 637.16 3.82 45.37 267.88-1.6-5.1-49.52-90.57-10.53-158.82 9.58-17.2 6.7z" fill="#575988"/><path d="m357.3 637.16 3.82 45.37 267.88-1.6-5.1-49.52-90.57-10.53-158.82 9.58-17.2 6.7z" opacity=".05"/><path d="m533.56 668.88-89.18 8.35s61.1 15.56 96.77 8z" fill="#f7c4a7"/><path d="m533.56 668.88-89.18 8.35s61.1 15.56 96.77 8z" opacity=".1"/><path d="m465.63 349.35s17.46 45.92-8.35 66.4-4.55 77.8-4.55 77.8l99.43-4.54s9.87-64.5 4.55-78.17c0 0-23.52 6.83-28.83-7.6s-9.1-53.88-9.1-53.88z" fill="#f7c4a7"/><path d="m442.86 627.13s-83.87-1.9-108.53-8-45.92 23.15-37.2 39.85 33 28.08 33 28.08 124.86 6.07 151.8-11c0 0 10.26-29.22 0-34.9h-130.13l96-1.9zm133.21-8.73s28.08 6.08 66.8-9.1c0 0 72.47-2.28 48.2 44s-158.64 34.9-158.64 34.9-8-17.07 0-21.62 77.42-33.77 99-32.26l-60 11.76z" fill="#575988"/><path d="m522.2 371.44c-1.45-10.8-2.3-19.62-2.3-19.62h-53.13a103.6 103.6 0 0 1 5.08 21.48 41.75 41.75 0 0 0 50.35-1.86z" opacity=".1"/><circle cx="494.66" cy="336.63" fill="#f7c4a7" r="41.74"/><path d="m470.2 409.3s-50.1 9.5-56.17 22-5.3 55.42-5.3 55.42 2.27 70.2-15.2 78.93l-65.26 45.54s-46.3-40.62-57.68-16.7 54.64 32.63 54.64 32.63l73.62-22 23.53-15.18s11-5.3 12.13-18.22l9.87-78.18 39.47-11.38h63.73l8.54-24.38s15.75 12.6 13.47 24.37 3.8 88 3.8 88 4.93 17.08 15.18 22l59.2 21.32s62.63 6.06 66.8-21.26-61.48 3.8-61.48 3.8l-47.06-36.44s-3.8-15.18-5.3-25.8-3.8-56.17-3.8-56.17 14.42-47.82-27.32-56.16l-53.9-16.7z" fill="#f7c4a7"/><path d="m436.6 418.98 7.78 51.42s-8 23.9 0 47.44-9.88 111.2-9.88 111.2 93.73 30 151-4.56c0 0-42.12-88.8-24.3-118.4s.3-41.18.3-41.18l2.8-54.4-12.9-3.8-7.6 53.8s-52.36 36.42-91.07 4.54l-8.35-58.44z" opacity=".1"/><path d="m490.74 480.1a30.73 30.73 0 0 0 -39.8-11.2c12.72 9.52 26.73 12.06 39.8 11.2zm21.51-5.7a30.73 30.73 0 0 1 39.8-11.2c-12.7 9.52-26.73 12.07-39.8 11.2z" fill="#fff" opacity=".07"/><path d="m436.6 418.98 7.78 48.76s-8 23.9 0 47.44-9.88 111.2-9.88 111.2 93.73 30 151-4.56c0 0-42.12-88.8-24.3-118.4s.3-41.18.3-41.18l2.74-54.45-12.9-3.8-7.6 53.9s-52.36 36.42-91.07 4.54l-8.35-58.43z" opacity=".1"/><path d="m436.22 418.6 8.16 49.9s-8 23.9 0 47.44-9.88 111.2-9.88 111.2 93.73 30 151-4.56c0 0-42.12-88.8-24.3-118.4s.3-41.18.3-41.18l2.74-54.45-12.9-3.8-7.6 53.9s-52.36 36.43-91.07 4.55l-8.35-58.44z" fill="#fc6681"/><path d="m474.74 645.73 19.76-2.66s22.77-29.22 39.1-6.83c0 0 6.82 14.42 15.17 17.08a112.22 112.22 0 0 0 17.46 3.8l-33.77 9.48s-14.8 8.73-30.36 6.45a59 59 0 0 0 -27.32 2.28z" fill="#f7c4a7"/><path d="m452.92 521.82s35.67 5.3 41.74-4.17m25.84-1.9s6.83 6.83 34.15 1.9m-103.63-107.78s26.18 3.8 31.12 1.52m26.56-1.52s26.2 3.8 31.13 1.52" opacity=".1"/><path d="m477.6 642.88s7.2 34 0 35.2-17.47-5.6-17.47-6.36 4.55-22.4 4.55-22.4z" opacity=".1"/><path d="m476.83 642.88s7.2 34 0 35.2-17.46-5.6-17.46-6.36 4.55-22.4 4.55-22.4z" fill="#575988"/><path d="m441.6 404.9c-3.18 7.4-4.3 16.1-.93 23.4 2.58 5.58 7.62 10.1 8.6 16.15 1.2 7.6-4.42 15.33-2.32 22.73.8 2.84 2.67 5.24 4.57 7.5 5.78 6.82 13.46 13.43 22.38 12.9 1.4-13.78-10.5-27.15-6.6-40.44 1.4-4.76 4.68-8.72 6.66-13.26 3.3-7.53 2.82-16.13 1.63-24.26-1.74-11.8-6.12-26.26-17.8-31.78-5.4-2.54-13-2.72-14.93 4.17-1 3.7 1.4 7.15 1.73 10.75.42 4.57-1.23 8.04-3 12.15z" opacity=".1"/><path d="m441.6 403.76c-3.18 7.4-4.3 16.1-.93 23.4 2.58 5.58 7.62 10.1 8.6 16.15 1.2 7.6-4.42 15.34-2.32 22.74.8 2.84 2.67 5.24 4.57 7.5 5.78 6.82 13.46 13.43 22.38 12.9 1.4-13.78-10.5-27.15-6.6-40.44 1.4-4.76 4.68-8.72 6.66-13.26 3.3-7.53 2.82-16.13 1.63-24.26-1.74-11.8-6.12-26.26-17.8-31.78-5.4-2.54-13-2.72-14.93 4.17-1 3.68 1.4 7.14 1.73 10.74.42 4.6-1.23 8.06-3 12.16z" fill="#965d7b"/><path d="m444.57 316.14s55.4-7.6 56.92 3.8 50.46 30 50.46 30l-12.14-30-22.4-37.2s-41-3-42.87 0-23.53 12.9-23.53 12.9z" opacity=".1"/><path d="m444.57 315.38s55.4-7.6 56.92 3.8 50.46 30 50.46 30l-12.14-30-22.4-37.2s-41-3-42.87 0-23.53 12.9-23.53 12.9z" fill="#965d7b"/><path d="m541 396.5a27 27 0 0 1 5.55 11.12c.92 3.9.95 8 1.83 11.92 1.87 8.35 7.4 15.37 13.16 21.7a23.67 23.67 0 0 0 6.72 5.65c2.64 1.3 6 1.56 8.45 0-2.3-1.9-3.57-4.82-4.4-7.7a39.58 39.58 0 0 1 -1.54-12.42c.25-7 2.3-14.4-.6-20.77-1.7-3.67-4.82-6.47-8-9a42.6 42.6 0 0 0 -7.15-4.7c-4.7-2.34-10.1-3.37-15.3-3.88-6.8-.7-.86 5.5 1.3 8.07z" opacity=".1"/><path d="m541 395.34a27 27 0 0 1 5.55 11.15c.92 3.9.95 8 1.83 11.9 1.87 8.36 7.4 15.38 13.16 21.7a23.67 23.67 0 0 0 6.72 5.66c2.64 1.3 6 1.57 8.45 0-2.3-1.9-3.57-4.8-4.4-7.7a39.58 39.58 0 0 1 -1.54-12.4c.25-7 2.3-14.4-.6-20.78-1.7-3.68-4.82-6.48-8-9a42.6 42.6 0 0 0 -7.15-4.7c-4.7-2.35-10.1-3.38-15.3-3.9-6.8-.7-.86 5.5 1.3 8.06z" fill="#965d7b"/><path d="m516.18 165.4h-6.88a4.82 4.82 0 1 0 0-9.62h-55.73a4.82 4.82 0 0 0 0 9.63h6.88a4.82 4.82 0 1 0 0 9.64h-9.63a4.82 4.82 0 1 0 0 9.63h55.73a4.82 4.82 0 1 0 0-9.63h9.63a4.82 4.82 0 1 0 0-9.63zm270 0h-6.88a4.82 4.82 0 1 0 0-9.62h-55.73a4.82 4.82 0 0 0 0 9.63h6.88a4.82 4.82 0 1 0 0 9.64h-9.63a4.82 4.82 0 1 0 0 9.63h55.73a4.82 4.82 0 1 0 0-9.63h9.63a4.82 4.82 0 1 0 0-9.63zm-575 123h-6.88a4.82 4.82 0 1 0 0-9.62h-55.73a4.82 4.82 0 0 0 0 9.63h6.88a4.82 4.82 0 0 0 0 9.64h-9.63a4.82 4.82 0 1 0 0 9.63h55.73a4.82 4.82 0 1 0 0-9.63h9.63a4.82 4.82 0 0 0 0-9.63z" fill="#252223" opacity=".1"/><path d="m788.73 675.12s-24.67-83.76 4.63-145.4c12.3-25.88 16.38-54.93 10.7-83a222.5 222.5 0 0 0 -11.75-39" fill="none" stroke="#535461" stroke-miterlimit="10" stroke-width="2"/><path d="m810.5 368.8c0 10.27-18.6 40-18.6 40s-18.58-29.77-18.58-40a18.6 18.6 0 1 1 37.17 0zm30.76 56.86c-5.58 8.62-37.36 23.5-37.36 23.5s.58-35.1 6.16-43.7a18.6 18.6 0 0 1 31.2 20.2zm-1.36 97.17c-9.16 4.62-44.1 1.43-44.1 1.43s18.2-30 27.38-34.62a18.6 18.6 0 1 1 16.74 33.2zm-17.56 73.29c-8.25 6.1-43.24 8.86-43.24 8.86s12.88-32.64 21.13-38.75a18.6 18.6 0 1 1 22.1 29.9zm-57.47-144.97c7.36 7.15 41.67 14.56 41.67 14.56s-8.4-34.06-15.76-41.22a18.6 18.6 0 0 0 -25.9 26.66zm-19.47 85.97c9.18 4.62 44.12 1.43 44.12 1.43s-18.2-30-27.38-34.62a18.6 18.6 0 1 0 -16.74 33.2zm-7.44 86.16c8.25 6.1 43.24 8.86 43.24 8.86s-12.88-32.65-21.14-38.75a18.6 18.6 0 1 0 -22.1 29.88z" fill="#7e9680"/><path d="m810.5 368.8c0 10.27-18.6 40-18.6 40s-18.58-29.77-18.58-40a18.6 18.6 0 1 1 37.17 0zm30.76 56.86c-5.58 8.62-37.36 23.5-37.36 23.5s.58-35.1 6.16-43.7a18.6 18.6 0 0 1 31.2 20.2zm-1.36 97.17c-9.16 4.62-44.1 1.43-44.1 1.43s18.2-30 27.38-34.62a18.6 18.6 0 1 1 16.74 33.2zm-17.56 73.29c-8.25 6.1-43.24 8.86-43.24 8.86s12.88-32.64 21.13-38.75a18.6 18.6 0 1 1 22.1 29.9zm-57.47-144.97c7.36 7.15 41.67 14.56 41.67 14.56s-8.4-34.06-15.76-41.22a18.6 18.6 0 0 0 -25.9 26.66zm-19.47 85.97c9.18 4.62 44.12 1.43 44.12 1.43s-18.2-30-27.38-34.62a18.6 18.6 0 1 0 -16.74 33.2zm-7.44 86.16c8.25 6.1 43.24 8.86 43.24 8.86s-12.88-32.65-21.14-38.75a18.6 18.6 0 1 0 -22.1 29.88z" fill="#fc6681"/><path d="m206.73 673.12s-24.67-83.76 4.63-145.4c12.3-25.88 16.38-54.93 10.7-83a222.5 222.5 0 0 0 -11.75-39" fill="none" stroke="#535461" stroke-miterlimit="10" stroke-width="2"/><path d="m228.5 366.8c0 10.27-18.6 40-18.6 40s-18.58-29.77-18.58-40a18.6 18.6 0 1 1 37.17 0zm30.76 56.86c-5.58 8.62-37.36 23.5-37.36 23.5s.58-35.1 6.16-43.7a18.6 18.6 0 0 1 31.2 20.2zm-1.36 97.17c-9.16 4.62-44.1 1.43-44.1 1.43s18.2-30 27.38-34.62a18.6 18.6 0 0 1 16.74 33.2zm-17.56 73.29c-8.25 6.1-43.24 8.86-43.24 8.86s12.88-32.64 21.13-38.75a18.6 18.6 0 1 1 22.1 29.9zm-57.47-144.97c7.36 7.15 41.67 14.56 41.67 14.56s-8.4-34.06-15.76-41.22a18.6 18.6 0 0 0 -25.9 26.66zm-19.47 85.97c9.18 4.62 44.12 1.43 44.12 1.43s-18.2-30-27.38-34.62a18.6 18.6 0 0 0 -16.74 33.2zm-7.44 86.16c8.25 6.1 43.24 8.86 43.24 8.86s-12.88-32.65-21.14-38.75a18.6 18.6 0 1 0 -22.1 29.88z" fill="#7e9680"/><path d="m228.5 366.8c0 10.27-18.6 40-18.6 40s-18.58-29.77-18.58-40a18.6 18.6 0 1 1 37.17 0zm30.76 56.86c-5.58 8.62-37.36 23.5-37.36 23.5s.58-35.1 6.16-43.7a18.6 18.6 0 0 1 31.2 20.2zm-1.36 97.17c-9.16 4.62-44.1 1.43-44.1 1.43s18.2-30 27.38-34.62a18.6 18.6 0 0 1 16.74 33.2zm-17.56 73.29c-8.25 6.1-43.24 8.86-43.24 8.86s12.88-32.64 21.13-38.75a18.6 18.6 0 1 1 22.1 29.9zm-57.47-144.97c7.36 7.15 41.67 14.56 41.67 14.56s-8.4-34.06-15.76-41.22a18.6 18.6 0 0 0 -25.9 26.66zm-19.47 85.97c9.18 4.62 44.12 1.43 44.12 1.43s-18.2-30-27.38-34.62a18.6 18.6 0 0 0 -16.74 33.2zm-7.44 86.16c8.25 6.1 43.24 8.86 43.24 8.86s-12.88-32.65-21.14-38.75a18.6 18.6 0 1 0 -22.1 29.88z" fill="#fc6681"/></svg>