<?xml version="1.0" encoding="utf-8"?>
<!-- Generator: Adobe Illustrator 25.0.0, SVG Export Plug-In . SVG Version: 6.00 Build 0)  -->
<svg version="1.1" id="Calque_1" xmlns="http://www.w3.org/2000/svg" xmlns:xlink="http://www.w3.org/1999/xlink" x="0px" y="0px"
	 viewBox="0 0 690.1 635.2" style="enable-background:new 0 0 690.1 635.2;" xml:space="preserve">
<style type="text/css">
	.st0{fill:url(#SVGID_1_);}
	.st1{filter:url(#Adobe_OpacityMaskFilter);}
	.st2{mask:url(#SVGID_2_);}
	.st3{fill:#FFFFFF;}
	.st4{fill:url(#SVGID_3_);}
	.st5{fill-rule:evenodd;clip-rule:evenodd;fill:#4AAD33;}
	.st6{fill:#7A9DB7;}
	.st7{fill-rule:evenodd;clip-rule:evenodd;fill:#30519F;}
	.st8{fill:#1B181C;}
	.st9{fill-rule:evenodd;clip-rule:evenodd;fill:#334D9C;}
</style>
<g>
	<g>
		
			<image style="overflow:visible;opacity:0.32;" width="2380" height="2380" xlink:href="72F8D18.png"  transform="matrix(0.24 0 0 0.24 77.9219 33.2436)">
		</image>
		<g>
			<linearGradient id="SVGID_1_" gradientUnits="userSpaceOnUse" x1="93.0715" y1="318.7842" x2="634.0998" y2="318.7842">
				<stop  offset="0" style="stop-color:#F4F7F6"/>
				<stop  offset="1" style="stop-color:#E8F0F4"/>
			</linearGradient>
			<circle class="st0" cx="363.6" cy="318.8" r="270.5"/>
		</g>
	</g>
	<g>
		<defs>
			<filter id="Adobe_OpacityMaskFilter" filterUnits="userSpaceOnUse" x="110.1" y="65.3" width="507" height="507">
				<feFlood  style="flood-color:white;flood-opacity:1" result="back"/>
				<feBlend  in="SourceGraphic" in2="back" mode="normal"/>
			</filter>
		</defs>
		<mask maskUnits="userSpaceOnUse" x="110.1" y="65.3" width="507" height="507" id="SVGID_2_">
			<g class="st1">
				
					<image style="overflow:visible;" width="2130" height="2130" xlink:href="72F8D18.jpg"  transform="matrix(0.24 0 0 0.24 108.0419 63.1236)">
				</image>
			</g>
		</mask>
		<g class="st2">
			
				<ellipse transform="matrix(0.7071 -0.7071 0.7071 0.7071 -118.9225 350.4642)" class="st3" cx="363.6" cy="318.8" rx="253.5" ry="253.5"/>
		</g>
	</g>
	
		<linearGradient id="SVGID_3_" gradientUnits="userSpaceOnUse" x1="144.0407" y1="-15891.0342" x2="519.283" y2="-15835.9141" gradientTransform="matrix(1 0 0 -1 0 -15540)">
		<stop  offset="0" style="stop-color:#E6E9EB"/>
		<stop  offset="1" style="stop-color:#FCFCFC"/>
	</linearGradient>
	<circle class="st4" cx="363.6" cy="318.8" r="248.4"/>
</g>
<g>
	<path class="st5" d="M241.5,232.4l41.9-42.4l41.8,42.4l-41.8,42.4L241.5,232.4z M208.7,232.6l74.7-75.6l74.6,75.6l-74.6,75.6
		L208.7,232.6z"/>
	<polygon class="st6" points="408.9,199.3 367,156.9 292.4,232.6 308.8,249.1 367,190.1 392.6,215.9 	"/>
	<path class="st7" d="M408.9,232.4l41.9-42.4l41.8,42.4l-41.8,42.4L408.9,232.4z M376.1,232.6l74.7-75.6l74.6,75.6l-74.6,75.6
		L376.1,232.6z"/>
	<polygon class="st6" points="325.1,266 366.8,308.2 441.5,232.6 425.1,216 366.8,275.1 341.4,249.4 	"/>
</g>
<g>
	<path class="st8" d="M290.7,381.2c12.3,0,22.2-9,22.2-23.7c0-15.8-11.1-23.9-22.2-23.9c-11.2,0-22.3,8-22.3,23.9
		C268.5,372.1,278.4,381.2,290.7,381.2z M290.7,378.7c-7.6,0-14.5-6.1-14.5-21.3c0-15.7,7.5-21.3,14.5-21.3
		c6.9,0,14.5,5.6,14.5,21.3C305.2,372.5,298.3,378.7,290.7,378.7z"/>
	<path class="st8" d="M347.9,364.3v-16h-1.6c-0.7,5.2-1.9,6.5-7.5,6.5H329v-15.3c0-2.1,0.5-2.3,2.2-2.3h9.2c7.6,0,9.3,1.1,10.3,7.2
		h1.7l-0.2-9.8h-36.1v1.3c4.3,0.3,5.9,0.8,5.9,6.2v29.8c0,5.7-0.8,6.7-5.9,7v1.3h19v-1.3c-4.8-0.2-6.2-1-6.2-6.2v-15.1l9.9,0.1
		c5.1,0.1,6.7,0.8,7.5,6.5H347.9z"/>
	<path class="st8" d="M354.2,335.9c4.9,0.5,5.7,1.3,5.7,6.2v29.8c0,5,0,6.5-5.7,7v1.3h19v-1.3c-5.2-0.1-6.4-1.2-6.4-6.2v-12.6
		c1.6,0.1,2.9,0.2,4.6,0.2c7.1,0,11.5-1.2,14.4-4.1c1.2-1.1,4.2-3.9,4.2-9.3c0-8.8-8.4-12.4-17.8-12.4h-17.9V335.9z M366.9,339.5
		c0-2.3,0.7-2.3,2.8-2.3c3,0,12.9,0.1,12.9,10c0,10.5-9.1,10.5-11.6,10.5c-1.4,0-2.8-0.1-4.1-0.2V339.5z"/>
	<path class="st8" d="M392.1,335.9c5,0.5,5.7,1.3,5.7,6.2v29.8c0,5,0,6.5-5.7,7v1.3h19v-1.3c-5.2-0.1-6.4-1.2-6.4-6.2v-12.6
		c1.6,0.1,2.9,0.2,4.6,0.2c7.1,0,11.5-1.2,14.4-4.1c1.2-1.1,4.2-3.9,4.2-9.3c0-8.8-8.4-12.4-17.8-12.4h-18V335.9z M404.7,339.5
		c0-2.3,0.7-2.3,2.8-2.3c3,0,12.9,0.1,12.9,10c0,10.5-9.1,10.5-11.6,10.5c-1.4,0-2.8-0.1-4.1-0.2V339.5z"/>
	<path class="st8" d="M459.6,378.9c-5.7-0.2-6.5-1.5-6.5-6.2v-35.2h3.7c7.5,0,9.4,1.2,10.8,8.8h1.6l-0.4-11.7h-38.4l-0.4,11.7h1.6
		c1.5-7.5,3.3-8.8,10.8-8.8h3.7v34.5c0,5.1-0.2,6.7-6.4,7v1.3h19.9V378.9z"/>
	<path class="st9" d="M171.3,427.5c0.9-0.1,1.5-0.2,1.8-0.5c0.5-0.4,0.9-1.1,1.2-2.3l4.5-16.2l0.3-1.4c0-0.2,0.1-0.3,0.1-0.4
		c0-0.1,0-0.3,0-0.4c0-0.6-0.2-1-0.6-1.2c-0.4-0.2-1.1-0.4-2-0.4v-0.6h9.1c1.9,0,3.4,0.2,4.5,0.7c2.2,0.9,3.2,2.5,3.2,4.9
		c0,1.5-0.4,2.8-1.3,3.9c-1.7,2.2-4.6,3.3-9,3.3c-0.5,0-1,0-1.6-0.1c-0.5,0-1-0.1-1.5-0.2l-1.9,7.1c-0.1,0.4-0.2,0.8-0.3,1
		c-0.1,0.5-0.2,0.9-0.2,1.1c0,0.6,0.2,1,0.5,1.2c0.4,0.2,1,0.4,2,0.4v0.6h-9V427.5z M181.4,415.4c0.3,0,0.8,0.1,1.3,0.1
		c1.8,0,3.2-0.2,4.3-0.8c1.9-0.9,2.9-2.7,2.9-5.3c0-1.5-0.4-2.6-1.3-3.3c-0.9-0.6-2-1-3.4-1c-0.6,0-1,0.1-1.3,0.2
		c-0.3,0.1-0.5,0.4-0.6,0.8l-2.6,9.1C180.8,415.4,181,415.4,181.4,415.4z"/>
	<path class="st9" d="M206.5,413.2c-0.4-0.4-0.9-0.6-1.4-0.6c-1.9,0-3.7,1.5-5.4,4.5c-1.5,2.6-2.2,4.9-2.2,6.8c0,1,0.2,1.6,0.6,2.1
		c0.4,0.4,0.9,0.6,1.5,0.6c1.8,0,3.5-1.4,5.2-4.4c1.5-2.6,2.3-5,2.3-7.1C207,414.3,206.8,413.6,206.5,413.2z M207,412.6
		c0.3,0.3,0.5,0.6,0.7,1l0.1,0.2l0.4-1.3c0-0.2,0.1-0.3,0.1-0.3c0-0.1,0.1-0.1,0.2-0.1l2-0.2c0.1,0,0.2,0,0.2,0.1c0,0,0,0.1,0,0.2
		c-0.1,0.1-0.1,0.3-0.1,0.4c0,0.1-0.1,0.2-0.1,0.4l-1.6,6.4c-0.4,1.4-0.7,2.6-0.9,3.6c-0.4,1.8-0.7,2.9-0.7,3.2c0,0.2,0,0.3,0.1,0.4
		c0.1,0.1,0.2,0.1,0.3,0.1c0.1,0,0.2,0,0.3-0.1c0.1-0.1,0.3-0.2,0.5-0.3l0.3-0.3c0.1-0.1,0.2-0.2,0.3-0.3c0.1-0.1,0.3-0.3,0.4-0.4
		l1.1-1.2l0.4,0.4c-1.2,1.6-2.2,2.7-3,3.2c-0.7,0.6-1.5,0.8-2.1,0.8c-0.4,0-0.8-0.2-1-0.5c-0.2-0.3-0.4-0.7-0.4-1.2
		c0-0.4,0.1-1,0.2-1.8c0.2-0.8,0.3-1.5,0.5-2c-0.2,0.4-0.6,0.9-1.1,1.6c-0.5,0.7-1.1,1.3-1.9,2c-0.9,0.8-1.7,1.3-2.5,1.7
		c-0.6,0.2-1.2,0.3-1.8,0.3c-1,0-1.8-0.4-2.6-1.2c-0.8-0.8-1.2-1.9-1.2-3.4c0-2.5,1.1-5.1,3.4-7.8c2.3-2.8,4.7-4.2,7.2-4.2
		C205.8,411.8,206.5,412.1,207,412.6z"/>
	<path class="st9" d="M219.7,411.9c0,0.1,0.1,0.1,0.1,0.2c0,0.1,0,0.2,0,0.3l-1.8,6.9l0.4-0.8c0.9-1.7,1.9-3.2,3-4.6
		c1.2-1.4,2.2-2.1,3.3-2.1c0.6,0,1,0.2,1.3,0.6c0.3,0.4,0.5,0.8,0.5,1.3c0,0.6-0.2,1-0.5,1.3c-0.3,0.3-0.7,0.5-1.3,0.5
		c-0.4,0-0.7-0.1-0.8-0.2c-0.2-0.1-0.3-0.3-0.4-0.5l-0.2-0.4c0-0.1-0.1-0.1-0.2-0.2c-0.1,0-0.1-0.1-0.2-0.1c-0.5,0-1.1,0.7-2,1.9
		c-0.9,1.3-1.6,2.7-2.3,4.2c-0.4,0.9-0.9,2.1-1.4,3.7c-0.3,1-0.7,2.3-1.3,4.1h-2.8l3-10.8c0.2-0.6,0.3-1.2,0.4-1.7
		c0.1-0.5,0.2-0.9,0.2-1.2c0-0.4-0.1-0.6-0.3-0.8c-0.2-0.2-0.5-0.3-0.9-0.3c-0.1,0-0.3,0-0.5,0c-0.2,0-0.5,0-0.8,0.1v-0.6l0.7-0.1
		c0.9-0.2,2-0.4,3-0.6c1.1-0.2,1.7-0.3,1.8-0.3C219.6,411.7,219.6,411.8,219.7,411.9z"/>
	<path class="st9" d="M227.7,426.6c0-0.1,0-0.3,0.1-0.4l3.4-12.5h-2.7c0-0.3,0-0.5,0.1-0.6c0-0.1,0.2-0.2,0.4-0.2
		c1.2-0.5,2.1-1,2.8-1.5c0.7-0.5,1.6-1.4,2.7-2.8l0.3-0.3c0-0.1,0.1-0.1,0.1-0.1c0.1,0,0.1-0.1,0.2-0.1c0.1,0,0.2,0.1,0.2,0.1
		c0,0.1,0.1,0.2,0.1,0.2c0,0.1,0,0.1,0,0.2l-1,3.9h2.9l-0.2,1.2h-3l-3.2,12.1c0,0.2,0,0.4,0.1,0.6c0.1,0.2,0.3,0.3,0.5,0.3
		c0.3,0,0.7-0.3,1.3-0.9c0.3-0.3,0.9-1,1.6-2l0.5,0.3l-0.2,0.4c-1,1.5-1.9,2.6-2.7,3.2c-0.8,0.6-1.5,0.9-2.2,0.9
		c-0.6,0-1.1-0.2-1.3-0.5c-0.3-0.3-0.4-0.7-0.4-1.1C227.6,426.8,227.6,426.7,227.7,426.6z"/>
	<path class="st9" d="M241.2,415.6c2.4-2.5,4.8-3.7,7.3-3.7c0.9,0,1.7,0.2,2.2,0.6c0.5,0.4,0.8,1.1,0.8,1.9c0,1.7-1,3.2-3,4.4
		c-2,1.2-4.1,2-6.3,2.2l-1,0.1c-0.2,0.5-0.3,0.9-0.3,1.2c-0.1,0.3-0.1,0.6-0.1,1.1c0,1,0.3,1.9,1,2.5c0.7,0.6,1.5,0.9,2.5,0.9
		c0.9,0,1.8-0.3,2.8-0.9c0.6-0.4,1.4-1,2.5-1.9l0.5,0.4c-0.5,0.7-1.3,1.4-2.3,2.1c-1.8,1.3-3.6,1.9-5.3,1.9c-1.3,0-2.4-0.4-3.3-1.3
		c-1-0.9-1.4-2.2-1.4-3.8C237.6,420.7,238.8,418.1,241.2,415.6z M246.9,418c1.4-1.3,2.1-2.5,2.1-3.8c0-0.4-0.1-0.8-0.3-1.1
		c-0.2-0.3-0.5-0.4-0.9-0.4c-0.8,0-1.5,0.3-2.3,1c-0.7,0.7-1.4,1.4-2,2.2c-0.6,1-1.1,1.9-1.5,2.8c-0.2,0.5-0.4,1-0.7,1.6
		C243.7,420.1,245.5,419.3,246.9,418z"/>
	<path class="st9" d="M253.3,428.1l3.1-11.1c0.3-0.9,0.4-1.5,0.4-1.7c0-0.2,0.1-0.4,0.1-0.6c0-0.4-0.1-0.6-0.3-0.8
		c-0.2-0.2-0.6-0.3-1.1-0.3c-0.2,0-0.3,0-0.4,0c-0.1,0-0.3,0-0.4,0V413c0.8-0.1,1.3-0.2,1.6-0.3c0.3-0.1,0.7-0.1,1.1-0.2l3.2-0.7
		c0.1,0,0.1,0.1,0.1,0.2l-2.4,7.7c1.5-2.2,2.7-3.9,3.6-5c1.7-1.9,3.3-2.9,4.6-2.9c0.5,0,1,0.1,1.3,0.3c0.7,0.4,1.1,1.1,1.1,2.1
		c0,0.3,0,0.6-0.1,0.9c-0.1,0.3-0.1,0.6-0.2,1l-2.3,8.6c0,0.2-0.1,0.4-0.2,0.7c-0.1,0.3-0.1,0.4-0.1,0.5c0,0.2,0,0.3,0.1,0.5
		c0.1,0.1,0.2,0.2,0.4,0.2c0.3,0,0.7-0.2,1.1-0.5c0.4-0.4,1.1-1.2,2-2.4l0.5,0.5c-1,1.3-1.8,2.3-2.3,2.8c-1,0.9-1.9,1.4-2.8,1.4
		c-0.4,0-0.8-0.1-1.2-0.4c-0.4-0.3-0.6-0.8-0.6-1.5c0-0.2,0-0.4,0-0.6c0-0.2,0.1-0.4,0.1-0.6l2.3-8.7c0.1-0.5,0.2-0.9,0.2-1.2
		c0.1-0.3,0.1-0.5,0.1-0.7c0-0.3-0.1-0.5-0.2-0.7c-0.1-0.2-0.4-0.3-0.7-0.3c-0.9,0-2,0.8-3.4,2.4c-0.8,1-1.6,2.1-2.4,3.5
		c-0.6,1-1.1,2.1-1.5,3c-0.4,1-0.9,2.8-1.7,5.4H253.3z"/>
	<path class="st9" d="M283.7,413.2c-0.4-0.4-0.9-0.6-1.4-0.6c-1.9,0-3.8,1.5-5.4,4.5c-1.5,2.6-2.2,4.9-2.2,6.8c0,1,0.2,1.6,0.6,2.1
		c0.4,0.4,0.9,0.6,1.5,0.6c1.8,0,3.5-1.4,5.2-4.4c1.5-2.6,2.3-5,2.3-7.1C284.3,414.3,284.1,413.6,283.7,413.2z M284.3,412.6
		c0.3,0.3,0.5,0.6,0.6,1l0.1,0.2l0.4-1.3c0.1-0.2,0.1-0.3,0.1-0.3c0-0.1,0.1-0.1,0.3-0.1l2-0.2c0.1,0,0.2,0,0.2,0.1c0,0,0,0.1,0,0.2
		c-0.1,0.1-0.1,0.3-0.1,0.4c0,0.1-0.1,0.2-0.1,0.4l-1.6,6.4c-0.4,1.4-0.7,2.6-0.9,3.6c-0.4,1.8-0.7,2.9-0.7,3.2c0,0.2,0,0.3,0.1,0.4
		c0.1,0.1,0.2,0.1,0.3,0.1c0.1,0,0.2,0,0.3-0.1c0.1-0.1,0.3-0.2,0.5-0.3l0.3-0.3c0.1-0.1,0.2-0.2,0.3-0.3c0.1-0.1,0.3-0.3,0.4-0.4
		l1.1-1.2l0.4,0.4c-1.2,1.6-2.2,2.7-3,3.2c-0.7,0.6-1.5,0.8-2.1,0.8c-0.4,0-0.8-0.2-1-0.5c-0.2-0.3-0.4-0.7-0.4-1.2
		c0-0.4,0.1-1,0.2-1.8c0.2-0.8,0.3-1.5,0.5-2c-0.2,0.4-0.6,0.9-1.1,1.6c-0.5,0.7-1.1,1.3-1.9,2c-0.9,0.8-1.7,1.3-2.5,1.7
		c-0.6,0.2-1.2,0.3-1.8,0.3c-1,0-1.8-0.4-2.6-1.2c-0.8-0.8-1.2-1.9-1.2-3.4c0-2.5,1.1-5.1,3.4-7.8c2.3-2.8,4.7-4.2,7.2-4.2
		C283,411.8,283.8,412.1,284.3,412.6z"/>
	<path class="st9" d="M295.9,407.3c-0.3-0.4-0.5-0.9-0.5-1.4c0-0.6,0.2-1,0.5-1.4c0.3-0.4,0.8-0.6,1.2-0.6c0.5,0,0.9,0.2,1.3,0.6
		c0.4,0.4,0.5,0.8,0.5,1.4c0,0.5-0.2,1-0.5,1.4c-0.4,0.4-0.8,0.6-1.3,0.6C296.7,407.9,296.3,407.7,295.9,407.3z M297.6,411.8
		c0.1,0,0.1,0.1,0.1,0.1l-3.6,12.8c-0.2,0.7-0.3,1.1-0.3,1.2c0,0.2,0,0.3,0.1,0.5c0.1,0.1,0.2,0.2,0.4,0.2c0.4,0,0.9-0.3,1.6-1.1
		c0.4-0.4,0.9-1,1.4-1.8l0.5,0.4l-0.2,0.2c-0.9,1.3-1.6,2.2-2.2,2.7c-0.9,0.9-1.8,1.3-2.7,1.3c-0.5,0-0.9-0.2-1.3-0.6
		c-0.3-0.4-0.5-0.9-0.5-1.5c0-0.3,0-0.6,0.1-0.9c0-0.3,0.1-0.6,0.3-1.1l2.5-9.2c0-0.1,0.1-0.3,0.1-0.4c0-0.1,0-0.2,0-0.4
		c0-0.4-0.2-0.7-0.5-0.8c-0.3-0.1-0.9-0.2-1.9-0.2v-0.6c1-0.1,1.7-0.2,2.1-0.3c0.4-0.1,0.9-0.1,1.3-0.2c0.6-0.1,1.1-0.2,1.6-0.3
		C297.2,411.8,297.5,411.8,297.6,411.8z"/>
	<path class="st9" d="M307.1,411.9c0,0.1,0.1,0.1,0.1,0.2c0,0.1,0,0.2,0,0.3l-1.8,6.9l0.4-0.8c0.9-1.7,1.9-3.2,3-4.6
		c1.2-1.4,2.2-2.1,3.3-2.1c0.6,0,1,0.2,1.3,0.6c0.3,0.4,0.5,0.8,0.5,1.3c0,0.6-0.1,1-0.5,1.3c-0.3,0.3-0.7,0.5-1.2,0.5
		c-0.4,0-0.7-0.1-0.8-0.2c-0.2-0.1-0.3-0.3-0.5-0.5l-0.2-0.4c0-0.1-0.1-0.1-0.2-0.2c-0.1,0-0.1-0.1-0.2-0.1c-0.5,0-1.1,0.7-2,1.9
		c-0.9,1.3-1.7,2.7-2.3,4.2c-0.4,0.9-0.9,2.1-1.4,3.7c-0.3,1-0.7,2.3-1.3,4.1h-2.8l3-10.8c0.2-0.6,0.3-1.2,0.4-1.7
		c0.1-0.5,0.2-0.9,0.2-1.2c0-0.4-0.1-0.6-0.3-0.8c-0.2-0.2-0.5-0.3-0.9-0.3c-0.1,0-0.3,0-0.5,0c-0.2,0-0.5,0-0.8,0.1v-0.6l0.7-0.1
		c0.9-0.2,1.9-0.4,3-0.6c1.1-0.2,1.7-0.3,1.7-0.3C307,411.7,307.1,411.8,307.1,411.9z"/>
	<path class="st9" d="M317.1,415.6c2.4-2.5,4.8-3.7,7.3-3.7c0.9,0,1.7,0.2,2.2,0.6c0.5,0.4,0.8,1.1,0.8,1.9c0,1.7-1,3.2-3,4.4
		c-2,1.2-4.1,2-6.3,2.2l-1,0.1c-0.2,0.5-0.3,0.9-0.3,1.2c-0.1,0.3-0.1,0.6-0.1,1.1c0,1,0.3,1.9,1,2.5c0.7,0.6,1.5,0.9,2.5,0.9
		c0.9,0,1.8-0.3,2.8-0.9c0.6-0.4,1.4-1,2.5-1.9l0.5,0.4c-0.5,0.7-1.3,1.4-2.3,2.1c-1.8,1.3-3.6,1.9-5.4,1.9c-1.3,0-2.4-0.4-3.3-1.3
		c-1-0.9-1.4-2.2-1.4-3.8C313.5,420.7,314.7,418.1,317.1,415.6z M322.9,418c1.4-1.3,2.1-2.5,2.1-3.8c0-0.4-0.1-0.8-0.3-1.1
		c-0.2-0.3-0.5-0.4-0.9-0.4c-0.8,0-1.5,0.3-2.3,1c-0.7,0.7-1.4,1.4-2,2.2c-0.6,1-1.1,1.9-1.5,2.8c-0.2,0.5-0.4,1-0.6,1.6
		C319.6,420.1,321.4,419.3,322.9,418z"/>
	<path class="st9" d="M342.5,415.6c2.4-2.5,4.8-3.7,7.3-3.7c0.9,0,1.7,0.2,2.2,0.6c0.5,0.4,0.8,1.1,0.8,1.9c0,1.7-1,3.2-3,4.4
		c-2,1.2-4.1,2-6.3,2.2l-1,0.1c-0.2,0.5-0.3,0.9-0.3,1.2c-0.1,0.3-0.1,0.6-0.1,1.1c0,1,0.3,1.9,1,2.5c0.7,0.6,1.5,0.9,2.4,0.9
		c0.9,0,1.8-0.3,2.8-0.9c0.6-0.4,1.4-1,2.5-1.9l0.5,0.4c-0.5,0.7-1.3,1.4-2.3,2.1c-1.8,1.3-3.6,1.9-5.3,1.9c-1.3,0-2.4-0.4-3.3-1.3
		c-1-0.9-1.4-2.2-1.4-3.8C338.9,420.7,340.1,418.1,342.5,415.6z M348.3,418c1.4-1.3,2.2-2.5,2.2-3.8c0-0.4-0.1-0.8-0.3-1.1
		c-0.2-0.3-0.5-0.4-0.9-0.4c-0.8,0-1.5,0.3-2.3,1c-0.7,0.7-1.4,1.4-2,2.2c-0.6,1-1.1,1.9-1.5,2.8c-0.2,0.5-0.4,1-0.6,1.6
		C345,420.1,346.8,419.3,348.3,418z"/>
	<path class="st9" d="M354.7,428.1l3.1-11.1c0.3-0.9,0.4-1.5,0.4-1.7c0-0.2,0.1-0.4,0.1-0.6c0-0.4-0.1-0.6-0.3-0.8
		c-0.2-0.2-0.6-0.3-1.1-0.3c-0.1,0-0.3,0-0.4,0c-0.1,0-0.3,0-0.4,0V413c0.8-0.1,1.3-0.2,1.7-0.3c0.3-0.1,0.7-0.1,1.1-0.2l3.2-0.7
		c0.1,0,0.1,0.1,0.1,0.2l-2.4,7.7c1.4-2.2,2.7-3.9,3.6-5c1.7-1.9,3.3-2.9,4.6-2.9c0.5,0,1,0.1,1.4,0.3c0.7,0.4,1.1,1.1,1.1,2.1
		c0,0.3,0,0.6-0.1,0.9c-0.1,0.3-0.1,0.6-0.2,1l-2.3,8.6c0,0.2-0.1,0.4-0.2,0.7c-0.1,0.3-0.1,0.4-0.1,0.5c0,0.2,0.1,0.3,0.1,0.5
		c0.1,0.1,0.2,0.2,0.4,0.2c0.3,0,0.7-0.2,1.1-0.5c0.4-0.4,1.1-1.2,2-2.4l0.5,0.5c-1,1.3-1.8,2.3-2.3,2.8c-1,0.9-1.9,1.4-2.8,1.4
		c-0.4,0-0.8-0.1-1.2-0.4c-0.4-0.3-0.6-0.8-0.6-1.5c0-0.2,0-0.4,0-0.6c0-0.2,0.1-0.4,0.1-0.6l2.3-8.7c0.1-0.5,0.2-0.9,0.2-1.2
		c0-0.3,0.1-0.5,0.1-0.7c0-0.3-0.1-0.5-0.2-0.7c-0.1-0.2-0.4-0.3-0.7-0.3c-0.9,0-2,0.8-3.4,2.4c-0.8,1-1.6,2.1-2.4,3.5
		c-0.6,1-1.1,2.1-1.5,3c-0.4,1-0.9,2.8-1.7,5.4H354.7z"/>
	<path class="st9" d="M396,412.9c0.7,0.7,1,1.3,1,1.9c0,0.6-0.2,1-0.5,1.3c-0.3,0.3-0.7,0.5-1.2,0.5c-0.4,0-0.8-0.1-1.1-0.4
		c-0.3-0.3-0.5-0.6-0.5-1c0-0.3,0.1-0.7,0.3-1c0.2-0.4,0.3-0.6,0.3-0.7c0-0.2-0.1-0.4-0.4-0.5c-0.2-0.2-0.6-0.2-1.2-0.2
		c-1.9,0-3.6,1.1-5,3.3c-1.4,2.2-2.1,4.5-2.1,6.9c0,1.3,0.3,2.4,0.9,3.2c0.6,0.8,1.4,1.1,2.6,1.1c0.9,0,1.8-0.3,2.7-0.8
		c0.9-0.5,1.7-1.2,2.4-2l0.1-0.1l0.5,0.4c-0.8,1.1-1.6,1.9-2.4,2.5c-1.4,1-2.9,1.5-4.6,1.5c-1.6,0-2.9-0.5-3.9-1.5
		c-1-1-1.5-2.4-1.5-4.2c0-2.7,1.1-5.2,3.3-7.5c2.2-2.3,4.5-3.4,7.1-3.4C394.4,411.9,395.4,412.2,396,412.9z"/>
	<path class="st9" d="M402.5,426.7c0.5,0.6,1.2,1,2.2,1c1.9,0,3.7-1.5,5.2-4.4c1.3-2.5,1.9-4.8,1.9-7c0-0.9-0.1-1.6-0.3-2.2
		c-0.4-1-1.2-1.6-2.3-1.6c-1.8,0-3.5,1.4-5.1,4.1c-1.5,2.6-2.2,5.1-2.2,7.5C401.8,425.2,402,426,402.5,426.7z M413.6,413.4
		c0.8,1.1,1.2,2.3,1.2,3.8c0,2.5-1.1,5-3.3,7.4c-2.3,2.5-4.8,3.8-7.4,3.8c-1.6,0-3-0.5-3.9-1.4c-1-0.9-1.5-2.3-1.5-4
		c0-2.6,1.1-5.1,3.3-7.5c2.3-2.4,4.7-3.7,7.3-3.7C411.4,411.8,412.8,412.3,413.6,413.4z"/>
	<path class="st9" d="M430.9,412.2c0.6,0.4,0.9,1,0.9,2c0,0.4-0.1,1-0.3,1.7c-0.2,0.7-0.5,1.9-1,3.5c1.3-2,2.5-3.6,3.4-4.6
		c1.7-1.9,3.3-2.9,4.6-2.9c0.6,0,1.1,0.2,1.5,0.6c0.5,0.4,0.7,1,0.7,1.8c0,0.3-0.1,0.9-0.3,1.9l-2.6,9.8c-0.1,0.1,0,0.3,0.1,0.5
		c0.1,0.2,0.2,0.2,0.5,0.2c0.2,0,0.4-0.1,0.6-0.2c0.2-0.1,0.4-0.3,0.6-0.5c0.2-0.2,0.4-0.4,0.6-0.6c0.2-0.2,0.6-0.7,1.3-1.6l0.5,0.4
		l-0.2,0.2c-0.9,1.2-1.7,2.2-2.6,2.9c-0.9,0.7-1.7,1.1-2.6,1.1c-0.4,0-0.7-0.1-1-0.3c-0.4-0.3-0.6-0.8-0.6-1.6c0-0.2,0-0.4,0-0.6
		c0-0.2,0.1-0.4,0.1-0.7l2.6-10c0-0.1,0.1-0.3,0.1-0.4c0-0.1,0-0.2,0-0.3c0-0.3-0.1-0.5-0.2-0.7c-0.1-0.1-0.3-0.2-0.6-0.2
		c-0.8,0-1.7,0.6-2.8,1.8c-1.1,1.2-2,2.4-2.8,3.7c-0.7,1.3-1.2,2.3-1.5,3.2c-0.3,0.9-0.8,2.7-1.6,5.6h-2.8l3.4-12.7
		c0-0.1,0-0.2,0-0.3c0-0.1,0-0.2,0-0.3c0-0.3-0.1-0.5-0.2-0.7c-0.1-0.2-0.3-0.3-0.6-0.3c-0.7,0-1.7,0.6-2.8,1.9
		c-1.1,1.2-2,2.4-2.7,3.5c-0.7,1.1-1.3,2.5-2,4.2c-0.4,1.1-0.9,2.6-1.5,4.6h-2.8l3.5-12.7c0-0.1,0.1-0.3,0.1-0.4c0-0.1,0-0.3,0-0.4
		c0-0.5-0.2-0.7-0.5-0.8c-0.3-0.1-0.9-0.1-1.9-0.1V413c1.2-0.2,3.2-0.6,5.9-1.2l0.1,0.1l-2.1,7.4c1.3-2,2.6-3.6,3.8-4.9
		c1.6-1.7,3-2.6,4.3-2.6C430.1,411.9,430.5,412,430.9,412.2z"/>
	<path class="st9" d="M439.7,435c0.7,0,1.3-0.1,1.6-0.4c0.4-0.3,0.6-0.7,0.8-1.4l4.5-17.5c0.1-0.4,0.2-0.7,0.2-0.9
		c0-0.2,0.1-0.3,0.1-0.4c0-0.4-0.2-0.7-0.4-0.9c-0.3-0.2-0.7-0.3-1.3-0.3c-0.1,0-0.2,0-0.3,0c-0.1,0-0.2,0-0.3,0l0-0.6l5.7-0.8
		c0.1,0,0.1,0,0.2,0.1c0,0.2-0.1,0.3-0.1,0.4l-1,3.5c0.8-1.1,1.6-1.9,2.2-2.5c1.2-1,2.5-1.5,3.8-1.5c1.3,0,2.4,0.4,3.2,1.2
		c0.8,0.8,1.2,2,1.2,3.6c0,2.8-1.2,5.5-3.5,8c-2.4,2.5-4.8,3.8-7.3,3.8c-0.5,0-0.9-0.1-1.3-0.1c-0.3-0.1-0.8-0.3-1.3-0.5l-0.2,1.1
		c-0.3,1.2-0.5,2.1-0.6,2.6c-0.3,1.4-0.5,2.1-0.5,2.3c0,0.5,0.2,0.8,0.5,0.9c0.3,0.1,0.9,0.2,1.8,0.3v0.5h-7.6V435z M456,414.8
		c-0.4-0.9-1.1-1.3-2.1-1.3c-0.9,0-1.8,0.4-2.9,1.2c-1,0.8-1.8,2.2-2.4,4c-0.5,1.5-0.9,3.1-1.3,4.7c-0.4,1.6-0.6,2.6-0.6,2.9
		c0,0.5,0.2,0.8,0.6,1c0.4,0.2,0.8,0.3,1.3,0.3c2.1,0,4-1.3,5.5-4c1.4-2.4,2.1-4.7,2.1-7.1C456.3,415.8,456.2,415.2,456,414.8z"/>
	<path class="st9" d="M465.5,415.6c2.4-2.5,4.8-3.7,7.3-3.7c0.9,0,1.7,0.2,2.2,0.6c0.5,0.4,0.8,1.1,0.8,1.9c0,1.7-1,3.2-3,4.4
		c-2,1.2-4.1,2-6.3,2.2l-1,0.1c-0.2,0.5-0.3,0.9-0.3,1.2c-0.1,0.3-0.1,0.6-0.1,1.1c0,1,0.3,1.9,1,2.5c0.7,0.6,1.5,0.9,2.4,0.9
		c0.9,0,1.8-0.3,2.9-0.9c0.6-0.4,1.4-1,2.5-1.9l0.5,0.4c-0.5,0.7-1.3,1.4-2.3,2.1c-1.8,1.3-3.6,1.9-5.4,1.9c-1.3,0-2.4-0.4-3.3-1.3
		c-1-0.9-1.4-2.2-1.4-3.8C461.9,420.7,463.1,418.1,465.5,415.6z M471.3,418c1.4-1.3,2.1-2.5,2.1-3.8c0-0.4-0.1-0.8-0.3-1.1
		c-0.2-0.3-0.5-0.4-0.9-0.4c-0.8,0-1.5,0.3-2.3,1c-0.7,0.7-1.4,1.4-2,2.2c-0.6,1-1.1,1.9-1.5,2.8c-0.2,0.5-0.4,1-0.6,1.6
		C468,420.1,469.8,419.3,471.3,418z M479.1,405.7c-0.1,0.1-0.3,0.3-0.4,0.4l-6.2,3.9h-1.3l5.9-5.9c0.1-0.1,0.2-0.2,0.4-0.3
		c0.2-0.1,0.4-0.1,0.5-0.1c0.3,0,0.6,0.1,0.9,0.4c0.3,0.2,0.4,0.5,0.4,0.9C479.3,405.4,479.2,405.6,479.1,405.7z"/>
	<path class="st9" d="M478.4,426.6c0-0.1,0-0.3,0.1-0.4l3.4-12.5h-2.7c0-0.3,0-0.5,0.1-0.6c0-0.1,0.2-0.2,0.4-0.2
		c1.2-0.5,2.1-1,2.8-1.5c0.7-0.5,1.6-1.4,2.7-2.8l0.3-0.3c0-0.1,0.1-0.1,0.1-0.1c0.1,0,0.1-0.1,0.2-0.1c0.1,0,0.2,0.1,0.2,0.1
		c0,0.1,0.1,0.2,0.1,0.2c0,0.1,0,0.1,0,0.2l-1,3.9h2.9l-0.2,1.2h-3l-3.2,12.1c-0.1,0.2,0,0.4,0,0.6c0.1,0.2,0.3,0.3,0.5,0.3
		c0.3,0,0.7-0.3,1.3-0.9c0.3-0.3,0.9-1,1.6-2l0.5,0.3l-0.3,0.4c-1,1.5-1.9,2.6-2.7,3.2c-0.8,0.6-1.5,0.9-2.2,0.9
		c-0.6,0-1.1-0.2-1.3-0.5c-0.3-0.3-0.4-0.7-0.4-1.1C478.4,426.8,478.4,426.7,478.4,426.6z"/>
	<path class="st9" d="M491.9,415.6c2.4-2.5,4.8-3.7,7.3-3.7c0.9,0,1.7,0.2,2.2,0.6c0.6,0.4,0.8,1.1,0.8,1.9c0,1.7-1,3.2-3,4.4
		c-2,1.2-4.1,2-6.3,2.2l-1,0.1c-0.1,0.5-0.3,0.9-0.3,1.2c-0.1,0.3-0.1,0.6-0.1,1.1c0,1,0.3,1.9,1,2.5c0.7,0.6,1.5,0.9,2.5,0.9
		c0.9,0,1.8-0.3,2.8-0.9c0.6-0.4,1.4-1,2.5-1.9l0.5,0.4c-0.5,0.7-1.3,1.4-2.3,2.1c-1.8,1.3-3.6,1.9-5.4,1.9c-1.3,0-2.4-0.4-3.3-1.3
		c-0.9-0.9-1.4-2.2-1.4-3.8C488.3,420.7,489.5,418.1,491.9,415.6z M497.7,418c1.4-1.3,2.1-2.5,2.1-3.8c0-0.4-0.1-0.8-0.3-1.1
		c-0.2-0.3-0.5-0.4-1-0.4c-0.8,0-1.5,0.3-2.3,1c-0.7,0.7-1.4,1.4-2,2.2c-0.6,1-1.1,1.9-1.5,2.8c-0.2,0.5-0.4,1-0.6,1.6
		C494.4,420.1,496.3,419.3,497.7,418z"/>
	<path class="st9" d="M504.1,428.1l3.1-11.1c0.3-0.9,0.4-1.5,0.5-1.7c0.1-0.2,0.1-0.4,0.1-0.6c0-0.4-0.1-0.6-0.3-0.8
		c-0.2-0.2-0.6-0.3-1.1-0.3c-0.1,0-0.3,0-0.4,0c-0.1,0-0.3,0-0.4,0V413c0.8-0.1,1.3-0.2,1.6-0.3c0.3-0.1,0.7-0.1,1.1-0.2l3.2-0.7
		c0.1,0,0.1,0.1,0.1,0.2l-2.4,7.7c1.4-2.2,2.7-3.9,3.6-5c1.7-1.9,3.2-2.9,4.6-2.9c0.5,0,1,0.1,1.4,0.3c0.7,0.4,1.1,1.1,1.1,2.1
		c0,0.3,0,0.6-0.1,0.9c-0.1,0.3-0.1,0.6-0.2,1l-2.3,8.6c0,0.2-0.1,0.4-0.2,0.7c-0.1,0.3-0.1,0.4-0.1,0.5c0,0.2,0,0.3,0.1,0.5
		c0.1,0.1,0.2,0.2,0.4,0.2c0.3,0,0.7-0.2,1.1-0.5c0.4-0.4,1.1-1.2,2-2.4l0.5,0.5c-1,1.3-1.7,2.3-2.3,2.8c-1,0.9-1.9,1.4-2.8,1.4
		c-0.4,0-0.8-0.1-1.2-0.4c-0.4-0.3-0.5-0.8-0.5-1.5c0-0.2,0-0.4,0-0.6c0-0.2,0.1-0.4,0.1-0.6l2.3-8.7c0.1-0.5,0.2-0.9,0.2-1.2
		c0-0.3,0.1-0.5,0.1-0.7c0-0.3-0.1-0.5-0.2-0.7c-0.1-0.2-0.4-0.3-0.7-0.3c-0.9,0-2,0.8-3.4,2.4c-0.8,1-1.6,2.1-2.4,3.5
		c-0.6,1-1.1,2.1-1.5,3c-0.4,1-0.9,2.8-1.7,5.4H504.1z"/>
	<path class="st9" d="M536.3,412.9c0.6,0.7,1,1.3,1,1.9c0,0.6-0.2,1-0.5,1.3c-0.3,0.3-0.7,0.5-1.2,0.5c-0.4,0-0.8-0.1-1.1-0.4
		c-0.3-0.3-0.4-0.6-0.4-1c0-0.3,0.1-0.7,0.3-1c0.2-0.4,0.3-0.6,0.3-0.7c0-0.2-0.1-0.4-0.4-0.5c-0.2-0.2-0.6-0.2-1.2-0.2
		c-1.9,0-3.6,1.1-5,3.3c-1.4,2.2-2.1,4.5-2.1,6.9c0,1.3,0.3,2.4,0.9,3.2c0.6,0.8,1.4,1.1,2.6,1.1c0.9,0,1.8-0.3,2.6-0.8
		c0.9-0.5,1.7-1.2,2.4-2l0.1-0.1l0.5,0.4c-0.8,1.1-1.6,1.9-2.4,2.5c-1.4,1-2.9,1.5-4.6,1.5c-1.6,0-2.9-0.5-3.9-1.5
		c-1-1-1.5-2.4-1.5-4.2c0-2.7,1.1-5.2,3.3-7.5c2.2-2.3,4.5-3.4,7.1-3.4C534.6,411.9,535.7,412.2,536.3,412.9z"/>
	<path class="st9" d="M542.7,415.6c2.4-2.5,4.8-3.7,7.3-3.7c0.9,0,1.7,0.2,2.2,0.6c0.5,0.4,0.8,1.1,0.8,1.9c0,1.7-1,3.2-3,4.4
		c-2,1.2-4.1,2-6.3,2.2l-1,0.1c-0.2,0.5-0.3,0.9-0.3,1.2c-0.1,0.3-0.1,0.6-0.1,1.1c0,1,0.3,1.9,1,2.5c0.7,0.6,1.5,0.9,2.5,0.9
		c0.9,0,1.8-0.3,2.8-0.9c0.6-0.4,1.4-1,2.5-1.9l0.5,0.4c-0.5,0.7-1.3,1.4-2.3,2.1c-1.8,1.3-3.5,1.9-5.3,1.9c-1.3,0-2.4-0.4-3.3-1.3
		c-1-0.9-1.4-2.2-1.4-3.8C539.1,420.7,540.3,418.1,542.7,415.6z M548.5,418c1.4-1.3,2.1-2.5,2.1-3.8c0-0.4-0.1-0.8-0.3-1.1
		c-0.2-0.3-0.5-0.4-0.9-0.4c-0.8,0-1.5,0.3-2.3,1c-0.7,0.7-1.4,1.4-2,2.2c-0.6,1-1.1,1.9-1.5,2.8c-0.2,0.5-0.4,1-0.6,1.6
		C545.2,420.1,547.1,419.3,548.5,418z"/>
	<path class="st9" d="M555.6,422.7h0.6c0.3,1.4,0.6,2.5,0.9,3.2c0.7,1.2,1.6,1.8,2.9,1.8c0.7,0,1.3-0.2,1.8-0.8
		c0.5-0.5,0.8-1.2,0.8-2c0-0.5-0.1-1-0.2-1.3c-0.1-0.3-0.3-0.6-0.5-0.9l-1.5-2.2c-0.9-1.3-1.5-2.2-1.7-2.7c-0.3-0.7-0.5-1.4-0.5-2
		c0-1,0.4-2,1.1-2.7c0.8-0.8,1.8-1.2,3.2-1.2c0.6,0,1.3,0.1,2,0.3c0.8,0.2,1.3,0.3,1.5,0.3c0.3,0,0.5-0.1,0.7-0.2
		c0.1-0.1,0.3-0.3,0.4-0.5h0.5l-0.7,5.1h-0.6c-0.2-1.2-0.4-2-0.7-2.6c-0.6-1.1-1.5-1.6-2.7-1.6c-0.5,0-1,0.2-1.4,0.5
		c-0.4,0.3-0.6,0.8-0.6,1.4c0,0.5,0.1,0.9,0.3,1.3c0.2,0.4,0.6,1,1.3,2l1.3,1.8c0.6,1,1.1,1.7,1.4,2.3c0.3,0.6,0.4,1.2,0.4,1.9
		c0,1.3-0.5,2.4-1.6,3.3c-1.1,0.9-2.4,1.3-3.9,1.3c-0.5,0-1.2-0.1-2.1-0.3c-0.9-0.2-1.4-0.3-1.6-0.3c-0.2,0-0.4,0.1-0.5,0.2
		c-0.1,0.1-0.2,0.3-0.3,0.5h-0.6L555.6,422.7z"/>
</g>
</svg>
