<svg id="Layer_1" data-name="Layer 1" xmlns="http://www.w3.org/2000/svg" viewBox="0 0 60 60"><defs><style>.cls-1{fill:#3d3d63;}.cls-2{fill:#ffb75e;}.cls-3{fill:#ffdead;}</style></defs><path class="cls-1" d="M30,0A30,30,0,1,0,60,30,30,30,0,0,0,30,0Zm0,58A28,28,0,1,1,58,30,28,28,0,0,1,30,58Z"/><path class="cls-2" d="M31,26V15.88a1,1,0,0,0-2,0V26a4,4,0,0,0-2.86,2.86H19a1,1,0,0,0,0,2h7.14A4,4,0,1,0,31,26Zm-1,5.86a2,2,0,1,1,2-2A2,2,0,0,1,30,31.88Z"/><path class="cls-3" d="M30,9.88a1,1,0,0,0,1-1v-1a1,1,0,0,0-2,0v1A1,1,0,0,0,30,9.88Z"/><path class="cls-1" d="M30,49.88a1,1,0,0,0-1,1v1a1,1,0,0,0,2,0v-1A1,1,0,0,0,30,49.88Z"/><path class="cls-1" d="M52,28.88H51a1,1,0,0,0,0,2h1a1,1,0,0,0,0-2Z"/><path class="cls-3" d="M9,28.88H8a1,1,0,1,0,0,2H9a1,1,0,0,0,0-2Z"/><path class="cls-1" d="M44.85,13.61l-.71.71a1,1,0,0,0,0,1.42,1,1,0,0,0,.71.29,1,1,0,0,0,.71-.29l.7-.71a1,1,0,0,0,0-1.42A1,1,0,0,0,44.85,13.61Z"/><path class="cls-1" d="M14.44,44l-.7.71a1,1,0,0,0,0,1.41,1,1,0,0,0,1.41,0l.71-.7A1,1,0,0,0,14.44,44Z"/><path class="cls-1" d="M45.56,44a1,1,0,0,0-1.42,1.42l.71.7a1,1,0,0,0,1.41,0,1,1,0,0,0,0-1.41Z"/><path class="cls-3" d="M15.15,13.61a1,1,0,0,0-1.41,0,1,1,0,0,0,0,1.42l.7.71a1,1,0,0,0,1.42,0,1,1,0,0,0,0-1.42Z"/></svg>