<?xml version="1.0" encoding="utf-8"?>
<!-- Generator: Adobe Illustrator 25.0.0, SVG Export Plug-In . SVG Version: 6.00 Build 0)  -->
<svg version="1.1" id="Layer_1" xmlns="http://www.w3.org/2000/svg" xmlns:xlink="http://www.w3.org/1999/xlink" x="0px" y="0px"
	 viewBox="0 0 60 60" style="enable-background:new 0 0 60 60;" xml:space="preserve">
<style type="text/css">
	.st0{fill:#FCFEFF;}
	.st1{fill:#D8E3F0;}
	.st2{fill:#3D3D63;}
	.st3{fill:#FFB75E;}
	.st4{fill:#FFDEAD;}
</style>
<rect class="st0" width="60" height="60"/>
<ellipse class="st1" cx="30" cy="29.5" rx="24.5" ry="24.3"/>
<path class="st0" d="M30,5.2v24.7L6.2,30C6.2,30,6.9,4.5,30,5.2z"/>
<path class="st2" d="M30,4.5C15.9,4.5,4.5,15.9,4.5,30S15.9,55.5,30,55.5S55.5,44.1,55.5,30S44.1,4.5,30,4.5z M30,53.8
	C16.9,53.8,6.2,43.1,6.2,30S16.9,6.2,30,6.2S53.8,16.9,53.8,30S43.1,53.8,30,53.8z"/>
<circle class="st1" cx="30.1" cy="29.9" r="2.1"/>
<path class="st3" d="M30.9,26.6V18c0-0.5-0.4-0.9-0.9-0.9s-0.9,0.4-0.9,0.9v8.6C28,26.9,27,27.9,26.7,29h-6.1
	c-0.5,0-0.9,0.4-0.9,0.9c0,0.5,0.4,0.9,0.9,0.9h6.1c0.4,1.5,1.7,2.6,3.3,2.6c1.9,0,3.4-1.5,3.4-3.4C33.4,28.3,32.3,27,30.9,26.6z
	 M30,31.6c-0.9,0-1.7-0.8-1.7-1.7c0-0.9,0.8-1.7,1.7-1.7s1.7,0.8,1.7,1.7C31.7,30.8,30.9,31.6,30,31.6z"/>
<path class="st4" d="M30,12.9c0.5,0,0.9-0.4,0.9-0.9v-0.9c0-0.5-0.4-0.9-0.9-0.9s-0.9,0.4-0.9,0.9V12C29.1,12.5,29.5,12.9,30,12.9z"
	/>
<path class="st2" d="M30,46.9c-0.5,0-0.9,0.4-0.9,0.9v0.9c0,0.5,0.4,0.9,0.9,0.9s0.9-0.4,0.9-0.9v-0.9C30.9,47.3,30.5,46.9,30,46.9z
	"/>
<path class="st2" d="M48.7,29h-0.9c-0.5,0-0.9,0.4-0.9,0.9c0,0.5,0.4,0.9,0.9,0.9h0.9c0.5,0,0.9-0.4,0.9-0.9
	C49.6,29.4,49.2,29,48.7,29z"/>
<path class="st4" d="M12.1,29h-0.9c-0.5,0-0.9,0.4-0.9,0.9c0,0.5,0.4,0.9,0.9,0.9h0.9c0.5,0,0.9-0.4,0.9-0.9
	C13,29.4,12.6,29,12.1,29z"/>
<path class="st2" d="M42.6,16.1L42,16.7c-0.3,0.3-0.3,0.9,0,1.2c0.2,0.2,0.4,0.2,0.6,0.2s0.4-0.1,0.6-0.2l0.6-0.6
	c0.3-0.3,0.3-0.9,0-1.2C43.5,15.7,43,15.7,42.6,16.1z"/>
<path class="st2" d="M16.8,41.9l-0.6,0.6c-0.3,0.3-0.3,0.9,0,1.2c0.2,0.2,0.4,0.2,0.6,0.2c0.2,0,0.4-0.1,0.6-0.2l0.6-0.6
	c0.3-0.3,0.3-0.9,0-1.2S17.1,41.6,16.8,41.9z"/>
<path class="st2" d="M43.2,41.9c-0.3-0.3-0.9-0.3-1.2,0c-0.3,0.3-0.3,0.9,0,1.2l0.6,0.6c0.2,0.2,0.4,0.2,0.6,0.2s0.4-0.1,0.6-0.2
	c0.3-0.3,0.3-0.9,0-1.2L43.2,41.9z"/>
<path class="st4" d="M17.4,16.1c-0.3-0.3-0.9-0.3-1.2,0c-0.3,0.3-0.3,0.9,0,1.2l0.6,0.6c0.2,0.2,0.4,0.2,0.6,0.2
	c0.2,0,0.4-0.1,0.6-0.2c0.3-0.3,0.3-0.9,0-1.2L17.4,16.1z"/>
<path class="st1" d="M30,5.2"/>
</svg>
