<svg id="Layer_1" data-name="Layer 1" xmlns="http://www.w3.org/2000/svg" viewBox="0 0 40.02 40.02"><defs><style>.cls-1{fill:#d8e3f0;}.cls-2{fill:#3d3d63;}.cls-3{fill:#ffc670;}</style></defs><ellipse class="cls-1" cx="19.87" cy="19.77" rx="18.56" ry="19.04"/><path class="cls-2" d="M31.27,51.27a20,20,0,1,1,20-20h0A20,20,0,0,1,31.27,51.27Zm0-37.63A17.62,17.62,0,1,0,48.88,31.25h0A17.61,17.61,0,0,0,31.27,13.64Z" transform="translate(-11.25 -11.25)"/><circle class="cls-3" cx="20.02" cy="20.02" r="1.91"/><rect class="cls-2" x="18.77" y="3.67" width="2.66" height="4" rx="0.96"/><path class="cls-3" d="M29.38,33.72a1.07,1.07,0,0,1-.25,0,1,1,0,0,1-.57-.45l-.38-.63a1,1,0,0,1,.35-1.3h0l8.8-5.08a1,1,0,0,1,1.31.35h0l.37.63a1,1,0,0,1-.34,1.31h0L29.86,33.6A1,1,0,0,1,29.38,33.72Z" transform="translate(-11.25 -11.25)"/><rect class="cls-2" x="32.36" y="18.68" width="4" height="2.66" rx="0.96"/><rect class="cls-2" x="18.72" y="32.41" width="2.66" height="4" rx="0.96"/><rect class="cls-2" x="3.67" y="18.77" width="4" height="2.66" rx="0.96"/><path class="cls-3" d="M32.53,34.7a1,1,0,0,1-.24,0,.9.9,0,0,1-.58-.44L25.66,23.76A1,1,0,0,1,26,22.45h0l.63-.37a1,1,0,0,1,1.31.34h0L34,32.89a1,1,0,0,1-.35,1.31h0l-.63.38A1,1,0,0,1,32.53,34.7Z" transform="translate(-11.25 -11.25)"/></svg>