<?xml version="1.0" encoding="utf-8"?>
<!-- Generator: Adobe Illustrator 25.0.0, SVG Export Plug-In . SVG Version: 6.00 Build 0)  -->
<svg version="1.1" id="Layer_1" xmlns="http://www.w3.org/2000/svg" xmlns:xlink="http://www.w3.org/1999/xlink" x="0px" y="0px"
	 viewBox="0 0 63.6 63.6" style="enable-background:new 0 0 63.6 63.6;" xml:space="preserve">
<style type="text/css">
	.st0{fill:#D8E3F0;}
	.st1{fill:#3D3D63;}
	.st2{fill:#FFC670;}
</style>
<ellipse class="st0" cx="31.6" cy="31.4" rx="29.5" ry="30.3"/>
<path class="st1" d="M31.8,63.6C14.2,63.6,0,49.4,0,31.8S14.2,0,31.8,0s31.8,14.2,31.8,31.8c0,0,0,0,0,0
	C63.6,49.4,49.4,63.6,31.8,63.6z M31.8,3.8c-15.5,0-28,12.5-28,28s12.5,28,28,28s28-12.5,28-28l0,0C59.8,16.3,47.3,3.8,31.8,3.8z"/>
<circle class="st2" cx="31.8" cy="31.8" r="3"/>
<path class="st1" d="M31.4,5.8h1.2c0.8,0,1.5,0.7,1.5,1.5v3.3c0,0.8-0.7,1.5-1.5,1.5h-1.2c-0.8,0-1.5-0.7-1.5-1.5V7.3
	C29.8,6.5,30.5,5.8,31.4,5.8z"/>
<path class="st2" d="M28.8,35.7c-0.1,0-0.3,0-0.4,0c-0.4-0.1-0.7-0.4-0.9-0.7l-0.6-1c-0.4-0.7-0.2-1.7,0.6-2.1c0,0,0,0,0,0l14-8.1
	c0.7-0.4,1.7-0.2,2.1,0.6c0,0,0,0,0,0l0.6,1c0.4,0.7,0.2,1.7-0.6,2.1c0,0,0,0,0,0l-14,8.1C29.3,35.7,29.1,35.7,28.8,35.7z"/>
<path class="st1" d="M52.9,29.7h3.3c0.8,0,1.5,0.7,1.5,1.5v1.2c0,0.8-0.7,1.5-1.5,1.5h-3.3c-0.8,0-1.5-0.7-1.5-1.5v-1.2
	C51.4,30.4,52.1,29.7,52.9,29.7z"/>
<path class="st1" d="M31.3,51.5h1.2c0.8,0,1.5,0.7,1.5,1.5v3.3c0,0.8-0.7,1.5-1.5,1.5h-1.2c-0.8,0-1.5-0.7-1.5-1.5V53
	C29.8,52.2,30.4,51.5,31.3,51.5z"/>
<path class="st1" d="M7.3,29.8h3.3c0.8,0,1.5,0.7,1.5,1.5v1.2c0,0.8-0.7,1.5-1.5,1.5H7.3c-0.8,0-1.5-0.7-1.5-1.5v-1.2
	C5.8,30.5,6.5,29.8,7.3,29.8z"/>
<path class="st2" d="M33.8,37.3c-0.1,0-0.3,0-0.4,0c-0.4-0.1-0.7-0.4-0.9-0.7l-9.6-16.6c-0.4-0.7-0.2-1.7,0.6-2.1c0,0,0,0,0,0l1-0.6
	c0.7-0.4,1.7-0.2,2.1,0.6c0,0,0,0,0,0l9.6,16.6c0.4,0.7,0.2,1.7-0.6,2.1c0,0,0,0,0,0l-1,0.6C34.4,37.2,34.1,37.3,33.8,37.3z"/>
</svg>
