<?xml version="1.0" encoding="utf-8"?>
<!-- Generator: Adobe Illustrator 25.0.0, SVG Export Plug-In . SVG Version: 6.00 Build 0)  -->
<svg version="1.1" id="Layer_1" xmlns="http://www.w3.org/2000/svg" xmlns:xlink="http://www.w3.org/1999/xlink" x="0px" y="0px"
	 viewBox="0 0 60 60" style="enable-background:new 0 0 60 60;" xml:space="preserve">
<style type="text/css">
	.st0{fill:#F8F9FA;}
	.st1{fill:#D8E3F0;}
	.st2{fill:#FCFEFF;}
	.st3{fill:#3D3D63;}
	.st4{fill:#FFB75E;}
	.st5{fill:#FFDEAD;}
</style>
<rect class="st0" width="60" height="60"/>
<ellipse class="st1" cx="30" cy="29.6" rx="23" ry="22.7"/>
<path class="st2" d="M30,6.8v23.1L7.7,30C7.7,30,8.4,6.1,30,6.8z"/>
<path class="st3" d="M30,6.1C16.8,6.1,6.1,16.8,6.1,30S16.8,53.9,30,53.9S53.9,43.2,53.9,30S43.2,6.1,30,6.1z M30,52.3
	c-12.3,0-22.3-10-22.3-22.3S17.7,7.7,30,7.7s22.3,10,22.3,22.3S42.3,52.3,30,52.3z"/>
<circle class="st1" cx="30.1" cy="29.9" r="2"/>
<path class="st4" d="M30.8,26.8v-8.1c0-0.4-0.4-0.8-0.8-0.8s-0.8,0.4-0.8,0.8v8.1c-1.1,0.3-2,1.2-2.3,2.3h-5.7
	c-0.4,0-0.8,0.4-0.8,0.8c0,0.4,0.4,0.8,0.8,0.8h5.7c0.4,1.4,1.6,2.4,3.1,2.4c1.8,0,3.2-1.4,3.2-3.2C33.2,28.4,32.2,27.2,30.8,26.8z
	 M30,31.5c-0.9,0-1.6-0.7-1.6-1.6c0-0.9,0.7-1.6,1.6-1.6s1.6,0.7,1.6,1.6C31.6,30.8,30.9,31.5,30,31.5z"/>
<path class="st5" d="M30,14c0.4,0,0.8-0.4,0.8-0.8v-0.8c0-0.4-0.4-0.8-0.8-0.8s-0.8,0.4-0.8,0.8v0.8C29.2,13.6,29.6,14,30,14z"/>
<path class="st3" d="M30,45.8c-0.4,0-0.8,0.4-0.8,0.8v0.8c0,0.4,0.4,0.8,0.8,0.8s0.8-0.4,0.8-0.8v-0.8C30.8,46.2,30.4,45.8,30,45.8z
	"/>
<path class="st3" d="M47.5,29.1h-0.8c-0.4,0-0.8,0.4-0.8,0.8c0,0.4,0.4,0.8,0.8,0.8h0.8c0.4,0,0.8-0.4,0.8-0.8
	C48.3,29.5,48,29.1,47.5,29.1z"/>
<path class="st5" d="M13.3,29.1h-0.8c-0.4,0-0.8,0.4-0.8,0.8c0,0.4,0.4,0.8,0.8,0.8h0.8c0.4,0,0.8-0.4,0.8-0.8
	C14.1,29.5,13.7,29.1,13.3,29.1z"/>
<path class="st3" d="M41.8,16.9l-0.6,0.6c-0.3,0.3-0.3,0.8,0,1.1c0.2,0.2,0.4,0.2,0.6,0.2s0.4-0.1,0.6-0.2l0.6-0.6
	c0.3-0.3,0.3-0.8,0-1.1S42.1,16.6,41.8,16.9z"/>
<path class="st3" d="M17.6,41.2L17,41.7c-0.3,0.3-0.3,0.8,0,1.1c0.2,0.2,0.4,0.2,0.6,0.2s0.4-0.1,0.6-0.2l0.6-0.6
	c0.3-0.3,0.3-0.8,0-1.1C18.4,40.9,17.9,40.9,17.6,41.2z"/>
<path class="st3" d="M42.4,41.2c-0.3-0.3-0.8-0.3-1.1,0c-0.3,0.3-0.3,0.8,0,1.1l0.6,0.6c0.2,0.2,0.4,0.2,0.6,0.2s0.4-0.1,0.6-0.2
	c0.3-0.3,0.3-0.8,0-1.1L42.4,41.2z"/>
<path class="st5" d="M18.2,16.9c-0.3-0.3-0.8-0.3-1.1,0s-0.3,0.8,0,1.1l0.6,0.6c0.2,0.2,0.4,0.2,0.6,0.2s0.4-0.1,0.6-0.2
	c0.3-0.3,0.3-0.8,0-1.1L18.2,16.9z"/>
<path class="st1" d="M30,5.2"/>
</svg>
