<svg viewBox="0 0 .54 34.31" xmlns="http://www.w3.org/2000/svg"><path d="m363.2 137.45q0-4.25.07-8.5c0-.48 0-1 0-1.43q0-6 0-12.08c0-2.81 0-5.63 0-8.44a18.53 18.53 0 0 1 .14-3.57h-.48a.74.74 0 0 1 .13.51c0 .21-.05.42-.05.63v5.49c0 1.32 0 2.64.07 4s.06 2.52.08 3.77c0 1.69 0 3.38-.07 5.07v.22c-.06.9-.14 1.79-.16 2.69 0 .71 0 1.42.05 2.12s.14 1.31.16 2 0 1.37 0 2.06c0 .85-.19 1.71-.21 2.56a21.62 21.62 0 0 0 .15 2.18c0 .36.08.72.12 1.07a.66.66 0 0 0 0-.35z" fill="#888" transform="translate(-362.88 -103.42)"/></svg>