<svg enable-background="new 0 0 38 38" height="38" viewBox="0 0 38 38" width="38" xmlns="http://www.w3.org/2000/svg"><path d="m13.651 17s-3.812-7.123-4.453-8.288c-.879-1.599-2.889-2.182-4.487-1.302-1.597.88-2.181 2.89-1.301 4.487.291.53 1.303 2.365 1.594 2.894 1.505 2.736 3.314 2.209 6.218 2.209s17.103 0 17.103 0-14.199 0-17.103 0c-4.162 0-4.143 3.919-2.725 6.375 1.349 2.337 4.503 9.625 9.503 9.625 2.583 0 4.24-1.56 5.42-2.831 4.396-4.734 13.58-16.169 13.58-16.169v-4l-18.725 15.629-2.785-5.197" fill="none" stroke="#231f20" stroke-miterlimit="10" stroke-width="2"/></svg>