<svg enable-background="new 0 0 38 38" height="38" viewBox="0 0 38 38" width="38" xmlns="http://www.w3.org/2000/svg"><path d="m21 0v14c3 1 3 2.831 3 4 0 1.252-1 5.875-1 5.875s3.253.322 6.313 1.008c1.034.231 1.749.867 1.749 2.055 0 1.563-1 10.063-1 10.063m-12.062-28.001s-3.451 0-4 0c-1.657 0-3 1.344-3 3 0 1.657 1.343 3 3 3h3s-.014 4.604 0 7c0 0-1.078 1.17-2 2-8.803 7.812-13 13-13 13h2.063s12.25-7.625 15.292-8 7.645 0 7.645 0v8h5" fill="none" stroke="#231f20" stroke-miterlimit="10" stroke-width="2"/></svg>