<svg xmlns="http://www.w3.org/2000/svg" width="512" height="512" enable-background="new 0 0 496.158 496.158" viewBox="0 0 496.158 496.158"><path fill="#D66251" d="M496.16 248.1C496.16 111.05 385.1 0 248.08 0 111.08 0 0 111.06 0 248.1c0 137 111.07 248.06 248.08 248.06 137 0 248.08-111.07 248.08-248.08z"/><path fill="#fff" d="M384.67 164.97c-5.84-15.06-17.74-12.68-30.63-10.13-7.7 1.6-41.96 11.63-96.15 68.78-22.5 23.7-37.34 42.62-47.1 57.04-5.97-7.32-12.8-15.16-20-22.34-22.06-22.07-46.7-37.23-47.72-37.87-10.33-6.32-23.82-3.07-30.15 7.26-6.33 10.33-3.1 23.84 7.23 30.18.2.14 21.35 13.2 39.6 31.48 18.64 18.63 35.52 43.82 35.68 44.06 4.1 6.18 11 9.8 18.27 9.8 1.26 0 2.5-.12 3.77-.34 8.56-1.48 15.44-7.9 17.54-16.33.07-.2 8.77-24.25 54.74-72.72 37.03-39.06 61.73-51.47 70.28-54.9.08-.03.14-.03.25-.06-.04 0 .28-.13.8-.36 1.47-.55 2.25-.76 2.3-.77-.42.1-.64.13-.64.13l-.02-.07c3.97-1.74 11.38-4.93 11.54-5 11.16-4.58 14.8-16.6 10.43-27.83z"/></svg>