<svg enable-background="new 0 0 38 38" height="38" viewBox="0 0 38 38" width="38" xmlns="http://www.w3.org/2000/svg"><path d="m7 19c0-6.627 5.373-12 12-12s12 5.373 12 12-5.373 12-12 12-12-5.373-12-12zm1.608-6c-2.771-1.6-.922-3.833-.922-5.313 1.481 0 3.714-1.85 5.313.921m16.394 16.392c2.771 1.6.921 3.833.921 5.313-1.48 0-3.713 1.85-5.313-.922m0-20.784c1.6-2.771 3.832-.921 5.313-.921 0 1.481 1.849 3.713-.923 5.314m-16.391 16.392c-1.601 2.771-3.833.922-5.313.922 0-1.48-1.851-3.714.921-5.313m-1.607-6.001c-3.201 0-2.715-2.858-3.456-4.141 1.283-.74 2.291-3.459 5.062-1.859m22.393 6c3.2 0 2.714 2.859 3.454 4.142-1.282.74-2.29 3.458-5.063 1.857m-10.391-17.999c0-3.2 2.858-2.714 4.141-3.455.741 1.283 3.459 2.292 1.859 5.063m-6 22.391c0 3.201-2.858 2.716-4.141 3.456-.74-1.282-3.459-2.291-1.859-5.063m-4.392-4.393c-2.772 1.601-3.78-1.117-5.063-1.857.741-1.284.255-4.142 3.454-4.142m22.394-6c2.771-1.6 3.779 1.12 5.062 1.86-.74 1.282-.254 4.14-3.455 4.14m-18-10.394c-1.6-2.771 1.118-3.779 1.859-5.062 1.283.741 4.141.256 4.141 3.456m5.999 22.392c1.601 2.772-1.117 3.781-1.858 5.063-1.282-.741-4.141-.255-4.141-3.455m0-24 10.393 18m-20.782-.001 20.782.001m-20.782-.001 10.389-17.999m-6.926 12-3.467-6m10.393 18-3.464-6.001m0-11.998-6.929-.001m20.782.001h-6.924m-.002 11.999-3.463 6m10.389-17.999-3.463 5.999" fill="none" stroke="#231f20" stroke-miterlimit="10" stroke-width="2"/></svg>