<svg enable-background="new 0 0 38 38" height="38" viewBox="0 0 38 38" width="38" xmlns="http://www.w3.org/2000/svg"><path d="m27 35.99-8.5-12.99c5.75 0 6.508-.368 6.935 2.625.204 1.435 1.815 11.375 1.815 11.375m-3.649-24.819c.188 1.31-.808 2.868-2.911 2.869-9.355.001-11.516 1.064-13.257 4.438-2.095 4.057-5.433 17.512-5.433 17.512h2.063s6.951-12 7.736-12 12.201 12 12.201 12h6m-8.127-36.917 2.137 14.965c.569 3.991 1.154 5.952 3.99 5.952h3c1.656 0 3-1.344 3-3s-1.344-3-3-3c-2.564 0-6.99.049-6.99.049" fill="none" stroke="#231f20" stroke-miterlimit="10" stroke-width="2"/></svg>