<svg enable-background="new 0 0 38 38" height="38" viewBox="0 0 38 38" width="38" xmlns="http://www.w3.org/2000/svg"><path d="m23 8c0 2.209-1.791 4-4 4s-4-1.791-4-4c0-.732 0-2.268 0-3 0-2.209 1.791-4 4-4s4 1.791 4 4zm5.496 25.194-7.113-3.401-11.945 3.401m5.562-13.194-1.002 6.624s-3.892 1.753-5.482 2.581c-1.591.831-3.516 1.891-3.516 4.483 0 2.063 1.483 3.396 3.483 3.396s6.517-1.29 10.517-2.37c4-1.081 7.806-2.328 7.806-2.328m-7.806 2.328c4 1.08 8.517 2.286 10.517 2.286s3.483-1.333 3.483-3.396c0-2.592-1.925-3.666-3.516-4.496-1.591-.828-5.482-2.608-5.482-2.608l-1.002-6.5m-22.497 11.318s4.435-3.147 6.435-6.366 3.918-7.556 5.062-8.952 5-2.552 5-2.552v-1.986m4 0v1.986s3.855 1.156 5 2.552c1.144 1.396 3.062 5.733 5.062 8.952s6.435 6.366 6.435 6.366" fill="none" stroke="#231f20" stroke-miterlimit="10" stroke-width="2"/></svg>