<svg enable-background="new 0 0 38 38" height="38" viewBox="0 0 38 38" width="38" xmlns="http://www.w3.org/2000/svg"><path d="m1.113 21h9.012c1.765 0 2.875 1.261 2.875 3 0 1.732-1.173 3-2.938 3-.874 0-2.812 0-4.062 0-2 0-5-1-5-5 0-5.313 5.438-9 12.438-9 3.563 0 6.284 1.269 8.143 3.762.955 1.283 2.868 3.848 3.821 5.13 1.623 2.178 3.348 3.108 5.598 3.108h6v-7m-24.146 7h8.862l-2.977-3.997-4.739-.003m23 .005h-6.537c.342-.59.537-1.275.537-2.005 0-2.209-1.791-4-4-4s-7.131 0-7.131 0" fill="none" stroke="#231f20" stroke-miterlimit="10" stroke-width="2"/></svg>