<svg enable-background="new 0 0 38 38" height="38" viewBox="0 0 38 38" width="38" xmlns="http://www.w3.org/2000/svg"><path d="m22 37h-6l2.281-6.533c-4.206-2.03-7.281-2.009-7.281-5.279 0-3.195 3.334-3.684 7.397-10.291 2.272-3.696 2.603-10.693 2.603-12.897 0-1 0-2 0-2m1.38 13.438 1.418-4.06s-3.034-1.404-4.538-2.101c-1.503-.696-3.287-.041-3.982 1.462-.696 1.503-.042 3.287 1.462 3.983s2.723 1.26 2.723 1.26 1.537 1.581 1.537 4.518c0 1.967-.875 3.65-3.249 6.025 4.249 2.225 5.274 3.037 5.274 4.645 0 1.43-.752 2.36-3.656 7.83" fill="none" stroke="#231f20" stroke-miterlimit="10" stroke-width="2"/></svg>