<svg enable-background="new 0 0 38 38" height="38" viewBox="0 0 38 38" width="38" xmlns="http://www.w3.org/2000/svg"><path d="m17.578 21.744s.911 2.531 1.658 4.608c.749 2.079 3.039 3.158 5.118 2.41 2.078-.748 3.157-3.04 2.408-5.117-.429-1.196-1.596-4.44-2.511-6.981-2.081-5.775-7.104-11.664-12.251-11.664-4.75 0-7 2.917-7 6.25 0 5 4.917 7.417 8 23.75h7m-3 0c-1-9.478-2.797-17.264-4.258-23.083 2.795 6.097 6.258 7.083 9.008 7.083 2.048 0 3.85-1.102 4.964-2.162 3.988-3.795 8.866-8.436 8.866-8.436" fill="none" stroke="#231f20" stroke-miterlimit="10" stroke-width="2"/></svg>