<svg enable-background="new 0 0 38 38" height="38" viewBox="0 0 38 38" width="38" xmlns="http://www.w3.org/2000/svg"><path d="m18 5c5.063 0 5.188 4 11 4v15.933c0 4.067-2 5.067-6.414 8.742-1.036.863-2.28 1.325-3.586 1.325-1.307 0-2.547-.466-3.586-1.329-4.414-3.671-6.414-4.671-6.414-8.738 0-2.165 0-17.808 0-17.808s4.405-3.209 6.02-4.142 3.105-1.983 5.347-1.983c4.008 0 5.07 4 8.633 4h1m-11 11v8m-7.529-6s1.613 1 2.599 1h1.993m5.875 0h1.993s2.599-1 2.599-1m-12.201 7.875s1.976 1.125 4.671 1.125c2.689 0 4.671-1.125 4.671-1.125m-14.671-9.875s-.896-1-2-1-2 .896-2 2v4c0 2.208 1.791 4 4 4m20 0c2.209 0 4-1.791 4-4v-4c0-1.104-.896-2-2-2s-2 1-2 1m-11-1c-1 0-4-1-6-1-1 0-3 1-3 1m20 0s-2-1-3-1c-2 0-5 1-6 1m-7 17v6m12-6v6" fill="none" stroke="#231f20" stroke-miterlimit="10" stroke-width="2"/></svg>