<svg enable-background="new 0 0 38 38" height="38" viewBox="0 0 38 38" width="38" xmlns="http://www.w3.org/2000/svg"><path d="m31 19c0 6.627-5.373 12-12 12s-12-5.373-12-12 5.373-12 12-12 12 5.373 12 12zm-15.709-11.415c-.989-3.044 2.662-3.538 3.709-4.585 1.048 1.047 4.697 1.542 3.709 4.585m0 22.83c.989 3.044-2.662 3.538-3.709 4.585-1.048-1.047-4.697-1.543-3.709-4.585m-6.002-18.469c-2.589-1.882.075-4.427.306-5.89 1.463.231 4.707-1.513 5.696 1.529m13.419 18.47c2.59 1.882-.074 4.428-.306 5.89-1.463-.23-4.707 1.513-5.695-1.529m-15.712-11.415c-3.201 0-2.541-3.626-3.214-4.945 1.32-.673 2.919-3.991 5.507-2.111m21.712 7.055c3.201 0 2.543 3.626 3.215 4.944-1.319.674-2.919 3.991-5.507 2.11m-19.42.002c-2.589 1.882-4.187-1.439-5.507-2.11.672-1.322.016-4.945 3.215-4.946m21.712-7.054c2.59-1.882 4.188 1.438 5.507 2.11-.671 1.32-.016 4.945-3.215 4.944m-15.711 11.416c-.989 3.044-4.233 1.296-5.696 1.529-.233-1.464-2.893-4.01-.306-5.891m13.42-18.468c.988-3.045 4.233-1.298 5.695-1.53.233 1.462 2.894 4.01.305 5.89m-9.709 19.054-10.393-18m20.782.001-20.782-.001m20.782.001-10.389 17.999" fill="none" stroke="#231f20" stroke-miterlimit="10" stroke-width="2"/></svg>