<svg enable-background="new 0 0 38 38" height="38" viewBox="0 0 38 38" width="38" xmlns="http://www.w3.org/2000/svg"><path d="m3 24v1c0 3.375 2.083 6 7 6h10c5.139 0 10.416.001 11 0 1.104 0 2-.895 2-2 0-1.104-.896-2-2-2-1.105-.001-11.027-.001-11.027-.001m12.758-3.999h2.269c1.104 0 2-.896 2-2s-.896-2-2-2-13 0-13 0m7.245 8h3.755c1.104 0 2-.896 2-2s-.896-2-2-2-11 0-11 0m3.043-7.751s-3.009-2.456-3.307-2.699c-.856-.698-.984-1.958-.286-2.813.698-.856 1.958-.983 2.813-.286.351.285 2.137 1.732 3.489 2.825 1.184.955 1.248 1.474 1.248 2.057 0 1.044-.436 1.764-1.829 2.66-2.475 1.591-4.265 2.007-4.265 2.007m-19.906 3s0-1.273 0-1.875c0-4.417 6.325-13.064 11.492-13.086 1-.005 3.396-.034 4.5-.039 1.104-.004 2.003.886 2.008 1.992.005 1.104-.886 2.004-1.992 2.008-1.105.004-3.834.024-4.33.026 0 .001-1.678.974-1.678 1.974s1.667 2 6 2c3.167 0 4.101-.97 4.304-1.171" fill="none" stroke="#231f20" stroke-miterlimit="10" stroke-width="2"/></svg>