<svg enable-background="new 0 0 38 38" height="38" viewBox="0 0 38 38" width="38" xmlns="http://www.w3.org/2000/svg"><path d="m21 16s0-9.896 0-11 .896-2 2-2 2 .896 2 2 0 14 0 14m-7 16h3c4.417 0 8-4.833 8-10 0-1-.886-2.75-1.539-4-.652-1.25-1.336-2-2.961-2 0 0-4.896 0-6 0s-2 .896-2 2 .896 2 2 2 5 0 5 0c-2.813 0-6.5 2-6.5 7m-4-12s0-9.896 0-11-.896-2-2-2-2 .896-2 2 0 19 0 21c0 4.917 2.625 7 6 7h1m5-19s0-11.896 0-13-.896-2-2-2-2 .896-2 2 0 13 0 13m0-3c0-1.104-.896-2-2-2s-2 .896-2 2 0 4.896 0 6 .896 2 2 2 2-.896 2-2 0-4.896 0-6z" fill="none" stroke="#231f20" stroke-miterlimit="10" stroke-width="2"/></svg>