<svg enable-background="new 0 0 38 38" height="38" viewBox="0 0 38 38" width="38" xmlns="http://www.w3.org/2000/svg"><path d="m36 33s-8.658 0-9 0c-3.375 0-8-2.083-8-7 0 0 0-15.893 0-18.998 0-1.104.896-2 2-2s2 .498 2 .498v11.5m-4-9.998s0-2.896 0-4 .896-2 2-2 2 .498 2 .498v8.5s2.198 7.462 3.688 11.87c.196.579.562 1.13 1.312 1.13s8 0 8 0m-34 10h9c3.375 0 8-2.083 8-7 0 0 0-15.893 0-18.998 0-1.104-.896-2-2-2s-2 .498-2 .498v11.5m-13 6h8s1.116-.551 1.312-1.13c1.49-4.408 3.688-11.87 3.688-11.87v-8.5s.896-.498 2-.498 2 .896 2 2 0 4 0 4" fill="none" stroke="#231f20" stroke-miterlimit="10" stroke-width="2"/></svg>