<svg enable-background="new 0 0 38 38" height="38" viewBox="0 0 38 38" width="38" xmlns="http://www.w3.org/2000/svg"><path d="m8.89 15.441s2.591-2.226 5.11-2.441c1.47-.126 3 .504 3 2.442 0 1.746-1.543 3.306-3 3.558 1.746 0 9 1.188 9 8 0 3.5-2.538 6.111-6.349 6-5.403-.157-6.468-4.601-10.078-5.786-1.669-.548-3.082.411-3.082.411m22.737-1.437s1.46 1.813 3.328 1.813c2.554 0 3.71-1.832 3.397-5.375-.304-3.442-3.898-7.626-7.588-7.626-4.259 0-3.691 4.433-7.635 4.619m-3.73-12.619s4.375 4 9.313 4c3.313 0 4.375-3 4.375-3m-5.188-2c-.276 0-.5.224-.5.5s.224.5.5.5.5-.224.5-.5-.224-.5-.5-.5z" fill="none" stroke="#231f20" stroke-miterlimit="10" stroke-width="2"/></svg>