<svg enable-background="new 0 0 38 38" height="38" viewBox="0 0 38 38" width="38" xmlns="http://www.w3.org/2000/svg"><path d="m13.807 21.998c-7.621 4.399.696 13.786.696 13.786s11.898-3.968 7.496-11.591m2.194-8.191c7.621-4.399-.695-13.786-.695-13.786s-11.898 3.968-7.496 11.591m2.998 11.19c0 8.8 12.287 6.29 12.287 6.29s2.513-12.288-6.29-12.287m-5.997-5.997c0-8.8-12.287-6.291-12.287-6.291s-2.512 12.289 6.29 12.288m11.19 2.999c7.621 4.4 11.591-7.496 11.591-7.496s-9.385-8.32-13.785-.696m-8.192 2.194c-7.621-4.4-11.592 7.496-11.592 7.496s9.386 8.32 13.787.696m-.001 0c-4.4 7.62 7.496 11.591 7.496 11.591s8.32-9.385.696-13.785m-2.195-8.192c4.4-7.621-7.495-11.592-7.495-11.592s-8.321 9.386-.697 13.786m8.192 8.192c4.399 7.621 13.786-.696 13.786-.696s-3.968-11.897-11.591-7.496m-8.191-2.194c-4.399-7.621-13.787.695-13.787.695s3.969 11.898 11.592 7.496m11.19-2.997c8.8 0 6.29-12.288 6.29-12.288s-12.287-2.513-12.287 6.29m-5.997 5.997c-8.8-.001-6.291 12.287-6.291 12.287s12.289 2.513 12.288-6.29m6-5.997c0 3.313-2.687 6-6 6s-6-2.687-6-6 2.687-6 6-6 6 2.687 6 6z" fill="none" stroke="#231f20" stroke-miterlimit="10" stroke-width="2"/></svg>