<svg enable-background="new 0 0 38 38" height="38" viewBox="0 0 38 38" width="38" xmlns="http://www.w3.org/2000/svg"><path d="m29 19c0 5.521-4.479 10-10 10-5.522 0-10-4.479-10-10 0-5.522 4.478-10 10-10 5.521 0 10 4.478 10 10zm-3-3c0 3.863-3.137 7-7 7-3.866 0-7-3.137-7-7 0-3.866 3.134-7 7-7 3.863 0 7 3.134 7 7zm-12-5.66c-2.4-4.159 3.922-6.731 5-7.81 1.079 1.078 7.396 3.653 5 7.809m0 17.321c2.399 4.158-3.922 6.732-5 7.81-1.079-1.077-7.397-3.653-5-7.81m-5-8.66c-4.802 0-3.868-6.763-4.263-8.235 1.473-.395 6.862-4.578 9.263-.425m15 8.66c4.802.002 3.869 6.764 4.264 8.235-1.473.395-6.864 4.579-9.264.425m-10 0c-2.401 4.158-7.791-.031-9.263-.425.394-1.473-.534-8.232 4.263-8.235m15-8.659c2.402-4.158 7.792.03 9.264.424-.395 1.473.533 8.232-4.264 8.235" fill="none" stroke="#231f20" stroke-miterlimit="10" stroke-width="2"/></svg>