<svg enable-background="new 0 0 38 38" height="38" viewBox="0 0 38 38" width="38" xmlns="http://www.w3.org/2000/svg"><path d="m13.318 13c0-.173-.14-.313-.313-.313s-.313.14-.313.313c0 .172.14.313.313.313s.313-.141.313-.313zm11.37 11.994c0 .173.142.313.313.313.173 0 .313-.14.313-.313 0-.174-.141-.313-.313-.313s-.313.139-.313.313zm.312-11.676c.173 0 .313-.14.313-.313s-.14-.313-.313-.313c-.172 0-.313.14-.313.313.001.173.141.313.313.313zm-11.994 11.37c-.173 0-.313.142-.313.313 0 .173.14.313.313.313s.313-.141.313-.313c-.001-.173-.14-.313-.313-.313zm-8.006-19.688c1 1 2 2 2 5s0 9 0 9h24v9s1 4 2 5m0-28c-1 1-2 2-5 2s-9 0-9 0v24s-6 0-9 0-4 1-5 2" fill="none" stroke="#231f20" stroke-miterlimit="10" stroke-width="2"/></svg>