<svg enable-background="new 0 0 38 38" height="38" viewBox="0 0 38 38" width="38" xmlns="http://www.w3.org/2000/svg"><path d="m31 19c0 6.627-5.373 12-12 12s-12-5.373-12-12 5.373-12 12-12 12 5.373 12 12zm-12-6c-3.313 0-6 2.687-6 6 0 3.312 2.687 6 6 6 3.312 0 6-2.688 6-6 0-3.313-2.688-6-6-6zm6.663-3.978c1.778-2.66 3.574-1.411 4.649-1.334.076 1.075 1.326 2.869-1.331 4.645m-16.65 16.649c-1.776 2.657-3.569 1.408-4.646 1.332-.076-1.076-1.324-2.871 1.335-4.65m19.958.001c2.659 1.778 1.411 3.573 1.335 4.648-1.075.076-2.869 1.327-4.645-1.33m-16.651-16.65c-2.657-1.776-1.407-3.57-1.332-4.646 1.076-.076 2.871-1.324 4.65 1.336m18.432 7.634c3.139-.623 3.525 1.53 4.231 2.344-.706.814-1.091 2.966-4.226 2.343m-23.546 0c-3.135.623-3.52-1.528-4.227-2.343.708-.814 1.094-2.966 4.233-2.344m14.11 14.113c.623 3.138-1.529 3.524-2.343 4.23-.814-.706-2.967-1.091-2.344-4.225m0-23.548c-.623-3.135 1.53-3.52 2.344-4.227.814.707 2.966 1.094 2.343 4.232m-.005-.001c.626-3.138 2.763-2.671 3.785-3.012.481.964 2.323 2.143.548 4.8m-9.011 21.755c-.624 3.134-2.759 2.667-3.782 3.008-.481-.965-2.322-2.146-.546-4.808m18.438-7.635c3.138.625 2.671 2.761 3.012 3.783-.964.482-2.143 2.324-4.8.549m-21.756-9.011c-3.135-.624-2.667-2.76-3.008-3.783.965-.481 2.146-2.322 4.807-.545m19.95 0c2.662-1.777 3.843.064 4.807.546-.341 1.023.127 3.158-3.007 3.782m-21.755 9.011c-2.658 1.775-3.837-.065-4.802-.547.342-1.023-.125-3.159 3.014-3.786m18.436 7.639c1.776 2.661-.063 3.842-.545 4.806-1.022-.341-3.159.127-3.782-3.007m-9.012-21.756c-1.775-2.658.067-3.837.548-4.802 1.023.342 3.159-.125 3.784 3.014m2.34 23.768-10.392-18m0 0h20.781m.001.001-10.39 17.999" fill="none" stroke="#231f20" stroke-miterlimit="10" stroke-width="2"/></svg>