<?xml version="1.0" encoding="utf-8"?>
<!-- Generator: Adobe Illustrator 25.0.0, SVG Export Plug-In . SVG Version: 6.00 Build 0)  -->
<svg version="1.1" id="Layer_1" xmlns="http://www.w3.org/2000/svg" xmlns:xlink="http://www.w3.org/1999/xlink" x="0px" y="0px"
	 viewBox="0 0 841.9 595.3" style="enable-background:new 0 0 841.9 595.3;" xml:space="preserve">
<style type="text/css">
	.st0{fill:#084579;}
	.st1{fill:#FDD413;}
</style>
<g>
	<g>
		<path class="st0" d="M241,294.8c-1.5,3.6-3.6,6.6-6.2,9.3c-2.6,2.6-5.7,4.7-9.3,6.2c-3.6,1.5-7.4,2.3-11.4,2.3h-56.2V284h13.2
			v15.3h42.9c4.5,0,8.2-1.5,11.3-4.6c3.1-3.1,4.6-6.9,4.6-11.3v-15.5h-72.1v-28.6c0-4,0.8-7.8,2.3-11.4c1.5-3.6,3.6-6.6,6.2-9.3
			c2.6-2.6,5.7-4.7,9.3-6.2c3.6-1.5,7.4-2.3,11.4-2.3h56.2v23.1H230v-10h-42.9c-2.2,0-4.3,0.4-6.2,1.3c-1.9,0.8-3.6,2-5,3.4
			c-1.4,1.4-2.6,3.1-3.4,5.1c-0.9,2-1.3,4.1-1.3,6.3v15.3h72.1v28.7C243.3,287.4,242.5,291.2,241,294.8z"/>
		<path class="st0" d="M281.4,312.6c-3.8,0-7.4-0.7-10.8-2.2c-3.4-1.5-6.4-3.5-8.9-6.1c-2.6-2.6-4.6-5.5-6.1-8.9
			c-1.5-3.4-2.2-7-2.2-10.8v-46.3c0-3.8,0.7-7.4,2.2-10.8c1.5-3.4,3.5-6.4,6.1-8.9c2.6-2.6,5.5-4.6,8.9-6.1c3.4-1.5,7-2.2,10.8-2.2
			h38.9c3.8,0,7.4,0.7,10.8,2.2c3.4,1.5,6.4,3.5,8.9,6.1c2.6,2.6,4.6,5.5,6.1,8.9c1.5,3.4,2.2,7,2.2,10.8v46.3
			c0,3.8-0.7,7.4-2.2,10.8c-1.5,3.4-3.5,6.4-6.1,8.9c-2.6,2.6-5.5,4.6-8.9,6.1c-3.4,1.5-7,2.2-10.8,2.2H281.4z M266.4,284.5
			c0,2,0.4,3.9,1.2,5.7c0.8,1.8,1.9,3.4,3.3,4.8c1.4,1.4,3,2.5,4.8,3.3c1.8,0.8,3.7,1.2,5.7,1.2h38.9c2,0,4-0.4,5.8-1.2
			c1.9-0.8,3.5-1.9,4.8-3.3c1.3-1.4,2.4-3,3.2-4.8c0.8-1.8,1.2-3.7,1.2-5.7v-46.3c0-2-0.4-4-1.2-5.8c-0.8-1.9-1.9-3.5-3.2-4.8
			c-1.3-1.3-2.9-2.4-4.8-3.2c-1.9-0.8-3.8-1.2-5.8-1.2h-38.9c-2,0-3.9,0.4-5.7,1.2c-1.8,0.8-3.4,1.9-4.8,3.2
			c-1.4,1.3-2.5,2.9-3.3,4.8c-0.8,1.9-1.2,3.8-1.2,5.8V284.5z"/>
		<path class="st0" d="M376.1,310.3c-3.5-1.5-6.5-3.5-9-6.1c-2.6-2.6-4.6-5.6-6.1-9s-2.2-7.2-2.2-11.1v-74H372v74
			c0,2.1,0.4,4.1,1.2,5.9c0.8,1.8,1.9,3.4,3.3,4.8c1.4,1.4,3,2.5,4.8,3.3c1.8,0.8,3.8,1.2,5.9,1.2h41.2v13.2h-41.2
			C383.2,312.6,379.6,311.8,376.1,310.3z"/>
		<path class="st0" d="M451.6,312.6h-13.2V210.1h13.2V312.6z"/>
		<path class="st1" d="M479.4,310.3c-3.5-1.5-6.6-3.5-9.2-6.1c-2.6-2.6-4.7-5.7-6.1-9.2c-1.5-3.5-2.2-7.2-2.2-11.2v-45.2
			c0-3.9,0.7-7.6,2.2-11.1c1.5-3.5,3.5-6.5,6.1-9.1c2.6-2.6,5.7-4.7,9.2-6.1c3.5-1.5,7.2-2.2,11.2-2.2h47.1v13.1h-47.1
			c-2.1,0-4.1,0.4-6.1,1.2c-1.9,0.8-3.6,1.9-4.9,3.3c-1.4,1.4-2.5,3.1-3.3,4.9c-0.8,1.9-1.2,3.9-1.2,6v45.2c0,4.4,1.5,8,4.5,11
			c3,3,6.6,4.5,11,4.5h47.1v13.2h-47.1C486.6,312.6,482.9,311.8,479.4,310.3z"/>
		<path class="st1" d="M575.8,312.6c-3.8,0-7.4-0.7-10.8-2.2c-3.4-1.5-6.4-3.5-8.9-6.1c-2.6-2.6-4.6-5.5-6.1-8.9
			c-1.5-3.4-2.2-7-2.2-10.8v-46.3c0-3.8,0.7-7.4,2.2-10.8c1.5-3.4,3.5-6.4,6.1-8.9c2.6-2.6,5.5-4.6,8.9-6.1c3.4-1.5,7-2.2,10.8-2.2
			h38.9c3.8,0,7.4,0.7,10.9,2.2c3.4,1.5,6.4,3.5,8.9,6.1c2.6,2.6,4.6,5.5,6.1,8.9c1.5,3.4,2.2,7,2.2,10.8v46.3
			c0,3.8-0.7,7.4-2.2,10.8c-1.5,3.4-3.5,6.4-6.1,8.9c-2.6,2.6-5.5,4.6-8.9,6.1c-3.4,1.5-7,2.2-10.9,2.2H575.8z M560.8,284.5
			c0,2,0.4,3.9,1.2,5.7c0.8,1.8,1.9,3.4,3.3,4.8c1.4,1.4,3,2.5,4.8,3.3c1.8,0.8,3.7,1.2,5.7,1.2h38.9c2,0,4-0.4,5.8-1.2
			c1.9-0.8,3.5-1.9,4.8-3.3c1.3-1.4,2.4-3,3.2-4.8c0.8-1.8,1.2-3.7,1.2-5.7v-46.3c0-2-0.4-4-1.2-5.8c-0.8-1.9-1.9-3.5-3.2-4.8
			c-1.3-1.3-2.9-2.4-4.8-3.2c-1.9-0.8-3.8-1.2-5.8-1.2h-38.9c-2,0-3.9,0.4-5.7,1.2c-1.8,0.8-3.4,1.9-4.8,3.2
			c-1.4,1.3-2.5,2.9-3.3,4.8c-0.8,1.9-1.2,3.8-1.2,5.8V284.5z"/>
		<path class="st1" d="M738.8,284c0,3.9-0.7,7.6-2.2,11.1c-1.5,3.5-3.5,6.5-6.1,9.1c-2.6,2.6-5.7,4.7-9.2,6.1
			c-3.5,1.5-7.2,2.2-11.2,2.2h-57V210.1h57c3.9,0,7.7,0.7,11.2,2.2c3.5,1.5,6.6,3.5,9.2,6.1c2.6,2.6,4.7,5.6,6.1,9.1
			c1.5,3.5,2.2,7.2,2.2,11.1V284z M666.4,299.3h43.7c4.4,0,8-1.5,11-4.5c3-3,4.5-6.6,4.5-10.8v-45.3c0-2.1-0.4-4.1-1.2-6
			c-0.8-1.9-1.9-3.5-3.3-4.9s-3-2.6-4.9-3.3c-1.9-0.8-3.9-1.2-6.1-1.2h-43.7V299.3z"/>
		<path class="st1" d="M818.1,312.6h-69.2v-44.7v-13.2v-15.3c0-4,0.8-7.8,2.3-11.4c1.5-3.6,3.6-6.6,6.2-9.3c2.6-2.6,5.7-4.7,9.3-6.2
			c3.6-1.5,7.4-2.3,11.4-2.3h40v13.1h-40c-2.2,0-4.3,0.4-6.2,1.3c-1.9,0.8-3.6,2-5,3.4s-2.6,3.1-3.4,5.1c-0.9,2-1.3,4.1-1.3,6.3
			v15.3h46.4v13.2h-46.4v31.4h56V312.6z"/>
	</g>
	<g>
		<g>
			<path class="st1" d="M65.3,295v-21c0-2.7-0.7-4.3-2-5c-1.3-0.7-3.7-1-7.2-1v-15.3c3.5,0,5.9-0.3,7.2-1c1.3-0.7,2-2.4,2-5v-19
				c0-7.4,1.5-12.3,4.5-14.8c1.5-1.2,3.5-2.1,6.1-2.7H25.9v102.4h49.9c-2.6-0.6-4.6-1.5-6.1-2.7C66.8,307.4,65.3,302.4,65.3,295z"/>
		</g>
		<g>
			<path class="st1" d="M128.3,210.1H98.1v13.4h-14c-1,0-1.8,0.1-2.2,0.4c-0.4,0.3-0.7,0.9-0.7,2v20.8c0,6.9-2.2,11.5-6.6,13.9
				c4.4,2.2,6.6,6.8,6.6,13.8v22.3c0,1,0.2,1.7,0.7,2c0.4,0.3,1.2,0.4,2.2,0.4h14v13.4h30.2V210.1z"/>
		</g>
	</g>
</g>
</svg>
