<svg viewBox="0 0 91.08 152.75" xmlns="http://www.w3.org/2000/svg"><path d="m26.46 79.7c4.14 24.1 6.08 48.6 11.73 72.43a.76.76 0 0 0 .7.55l17-.1 8.5-.06c2.06 0 5.42.58 7.43-.1 1.68-.55 2-1.4 2.5-3.07a111.93 111.93 0 0 0 2.76-11.44c4.2-19.75 7-39.83 10.36-59.75.16-.94-1.3-1.35-1.45-.4-2.66 15.93-5.18 31.9-8 47.8-1.06 6-2.26 12-3.67 17.9-.55 2.3-.8 6.6-3.32 7.53-1.45.55-4.13 0-5.65 0h-6.6l-12.26.08c-1.77 0-4.95.68-6.42-.4s-1.38-3.2-1.74-4.9c-1.52-7.2-2.72-14.48-3.82-21.76-2.26-14.92-4-29.9-6.58-44.78-.16-.95-1.6-.55-1.45.4zm-3.86-1.12c22.4 7.42 45.7 6.54 67.95-1.1a.77.77 0 0 0 .52-.93l-1.07-5.65a.76.76 0 0 0 -.92-.52c-22.08 5.9-44.08 7.36-66.22.86a.76.76 0 0 0 -.95.72l.16 5.9a.75.75 0 0 0 1.5 0 35.08 35.08 0 0 1 -.1-3.9v-1.26q-.2-1.1.45 0c.47-.05 3.25 1.3 4.24 1.54a104.48 104.48 0 0 0 18.66 2.84c12.55.75 26.9-.25 38.9-4.25 2.6-.87 2.8-2 3.32.83.1.54.68 2 .48 2.58s-1.8.7-3 1c-7.25 1.84-14.2 3.83-21.68 4.62a99.37 99.37 0 0 1 -41.84-4.73c-.9-.3-1.3 1.15-.4 1.45zm37.97-23.86c10.7 1.64 21.84 5.9 24.77 17.43a.75.75 0 0 0 1.45-.4c-3.07-12.03-14.57-16.75-25.79-18.48-.94-.15-1.35 1.3-.4 1.45zm-34.74 17.56c4.8-11.35 17.52-17.37 29.37-17.5a.75.75 0 0 0 0-1.5c-12.33.14-25.66 6.43-30.66 18.24-.37.88.92 1.64 1.3.76zm30.33-48.08c-.7 11.64-1.32 23.3-2 35-.06 1 1.44 1 1.5 0 .7-11.66 1.32-23.3 2-35 .06-1-1.44-1-1.5 0zm.74.74c7.26-.74 14.55-.93 21.8-1.67 1-.1 1-1.6 0-1.5-7.25.74-14.54.93-21.8 1.67-1 .1-1 1.6 0 1.5zm21.15-2.04a3.2 3.2 0 0 1 -.44 3.8c-.64.7.42 1.77 1.07 1.05a4.74 4.74 0 0 0 .67-5.6c-.5-.83-1.8-.08-1.3.75zm-15.67 6.23c5.25-.45 10.5-.72 15.77-1.17 1-.08 1-1.58 0-1.5-5.25.45-10.5.72-15.77 1.17-1 .08-1 1.58 0 1.5zm-.75-.75c-1 10.66-2 21.32-3.18 32-.1 1 1.4 1 1.5 0 1.2-10.64 2.18-21.3 3.18-32 .1-1-1.4-1-1.5 0zm-7.08 25.04c-1.87.06-4.47 1.42-4.22 3.6s3.16 3.13 5 3.56c2.44.57 5.46.93 7.82-.12 3.44-1.52 1.6-4.1-.58-5.88-.74-.6-1.8.45-1.06 1.06s2.7 1.88 1.6 3.17c-.4.5-1.7.65-2.35.73a14.2 14.2 0 0 1 -4-.2 10.87 10.87 0 0 1 -3.68-1.12c-2.16-1.26-.76-3.2 1.45-3.28 1 0 1-1.53 0-1.5zm2.59 42.98c-19.3-5.4-23.82 29.25-3.14 30.04a15.54 15.54 0 0 0 16.14-15.3c.18-9.14-7.74-15.81-16.54-15.64a.75.75 0 0 0 0 1.5c7.33-.14 14.48 5 15 12.72a14 14 0 0 1 -12.57 15.13c-20.52 2-17.3-32 .65-27a.75.75 0 0 0 .4-1.45zm-21.74-58.16a49.56 49.56 0 0 0 7.48-2.74.76.76 0 0 0 .34-.85c-.48-2-1.33-4.13-.66-6.2.33-1 1.14-1.74 1.3-2.88a3.9 3.9 0 0 0 -.86-3.32c-2.16-2.38-6.44-1.76-9-.6s-6.46 4.52-5.86 7.9a3.44 3.44 0 0 0 1.6 2.32c1.56 1.23.65-1.5 2.83 1.62.7 1 .95 2.93 1.33 4.1.3.9 1.74.52 1.45-.4-.7-2.17-1.1-4.83-2.65-6.48-.2-.2-.76 0-1-.18-3-1.63-1.7-3.38-.6-4.77a9.5 9.5 0 0 1 5.2-3.34c.9-.22 2.82-.6 3.63-.14l2 4.55-.55.84c-.36 1.06-.77 1.24-.64 2.5s1.34 3.28.48 4.46-4.9 1.76-6.22 2.13a.75.75 0 0 0 .4 1.44zm3.43-2.44a46.14 46.14 0 0 0 -2.8-8c-.4-.9-1.7-.13-1.3.75a44 44 0 0 1 2.65 7.68.75.75 0 0 0 1.45-.4zm-37.26 47.14a3.1 3.1 0 0 0 3.23-2.64c.1-.64 0-1.76-.6-2.14a3.88 3.88 0 0 0 -1.7-.16h-1.78a.75.75 0 0 0 0 1.5l3.1.07-.66-.37a1.6 1.6 0 0 1 -1.6 2.25c-1-.12-.94 1.38 0 1.5zm62.27-71.1a3 3 0 0 0 2.42-.34c.4-.27.78-.6.7-1.13a1.7 1.7 0 0 0 -.45-.88 2.07 2.07 0 0 0 -3.25.35c-.4.87.88 1.63 1.3.76a.53.53 0 0 1 1 .17l.15-.77a1.48 1.48 0 0 1 -1.46.35.75.75 0 0 0 -.4 1.45zm7.54 3.79a2.8 2.8 0 0 0 3.42-1.8 2.4 2.4 0 0 0 -.1-2c-.28-.5-.66-.5-1.17-.5h-1.8a.75.75 0 0 0 0 1.5l2.25.06-.65-.38c.55.92-.62 2.1-1.56 1.74s-1.3 1.1-.4 1.45zm3.46-14.43a2.22 2.22 0 0 0 -.93 3.18 2.58 2.58 0 0 0 3.26.4 2.42 2.42 0 0 0 1-3.15 2.76 2.76 0 0 0 -3.2-1.5c-.93.28-.53 1.73.4 1.44s2.22 1.1 1.16 1.84a1.3 1.3 0 0 1 -1.24.2c-.5-.3-.06-.93.32-1.1.88-.37.12-1.66-.76-1.3z" fill="#fff"/></svg>