<svg id="Layer_2" data-name="Layer 2" xmlns="http://www.w3.org/2000/svg" xmlns:xlink="http://www.w3.org/1999/xlink" viewBox="0 0 729.99 415.94"><defs><style>.cls-1{fill:#dee4f5;}.cls-1,.cls-33{opacity:0.5;}.cls-2{fill:url(#linear-gradient);}.cls-3{fill:#f6a300;}.cls-4{fill:url(#linear-gradient-2);}.cls-5{fill:url(#linear-gradient-3);}.cls-6{fill:#fcda73;}.cls-7{fill:#20386e;}.cls-14,.cls-19,.cls-20,.cls-24,.cls-26,.cls-27,.cls-29,.cls-32,.cls-34,.cls-38,.cls-8,.cls-9{fill:none;}.cls-8{stroke:#fafcff;stroke-width:1.3px;}.cls-14,.cls-20,.cls-27,.cls-29,.cls-32,.cls-34,.cls-38,.cls-8{stroke-linecap:round;}.cls-14,.cls-20,.cls-8{stroke-linejoin:round;}.cls-34,.cls-35,.cls-9{stroke:#dee3fc;}.cls-19,.cls-24,.cls-25,.cls-26,.cls-27,.cls-29,.cls-32,.cls-34,.cls-35,.cls-38,.cls-9{stroke-miterlimit:10;}.cls-9{stroke-width:0.79px;}.cls-10{fill:#dee3fc;}.cls-11{fill:#a4afff;}.cls-12,.cls-25{fill:#fff;}.cls-13{fill:#3945ba;}.cls-14{stroke:#698bd1;stroke-dasharray:2.84;}.cls-15{fill:#4b5a9b;}.cls-16{fill:#7f95f4;}.cls-17{fill:#b2c1f9;}.cls-18{fill:#3052ce;}.cls-19,.cls-20,.cls-25,.cls-26,.cls-27{stroke:#495ad6;}.cls-19,.cls-24,.cls-25,.cls-29{stroke-width:0.9px;}.cls-20,.cls-26,.cls-27{stroke-width:1.67px;}.cls-21{fill:#f0f4ff;}.cls-22{fill:#3b47bc;}.cls-23{fill:#495ad6;}.cls-24,.cls-29,.cls-32,.cls-38{stroke:#fff;}.cls-28{fill:#193091;}.cls-30{fill:#6589d1;}.cls-31{fill:#3b5fb7;}.cls-32{stroke-width:2px;}.cls-35,.cls-36{fill:#7e89fd;}.cls-37{fill:#b4c1ef;}.cls-38{stroke-width:1.11px;}</style><linearGradient id="linear-gradient" x1="659.18" y1="448.3" x2="659.18" y2="186.3" gradientUnits="userSpaceOnUse"><stop offset="0" stop-color="#f6a300"/><stop offset="1" stop-color="#fcda73"/></linearGradient><linearGradient id="linear-gradient-2" x1="496.16" y1="502.22" x2="496.16" y2="324.74" gradientTransform="matrix(0.75, 0.66, -0.66, 0.75, 584.18, -262.78)" gradientUnits="userSpaceOnUse"><stop offset="0" stop-color="#20386e"/><stop offset="1" stop-color="#1a5aa6"/></linearGradient><linearGradient id="linear-gradient-3" x1="580.69" y1="479.62" x2="580.69" y2="302.13" gradientTransform="matrix(-0.91, 0.42, 0.42, 0.91, 660.77, -230.94)" xlink:href="#linear-gradient"/></defs><g id="ILLUSTRATION"><circle class="cls-1" cx="579.56" cy="257.43" r="163.94" transform="matrix(0.07, -1, 1, 0.07, 232.5, 723.71)"/><path class="cls-1" d="M462.2,324.5A147.18,147.18,0,1,1,315,177.32,147.17,147.17,0,0,1,462.2,324.5Z" transform="translate(-49.04 -93.49)"/><path class="cls-2" d="M637.34,448.3s34.44-10.16,41-48.35.33-45.11,24.56-87c22.35-30.74-5-69.46-.34-96.48s-4.66-36.33-18.63-26.08-9.31,47.51-29.81,56.82-27,33.53-25.15,52.17,2.8,57.75-12.11,72.65S599.18,432.39,637.34,448.3Z" transform="translate(-49.04 -93.49)"/><path class="cls-3" d="M681.83,321.74l-18.59,16.9L675.86,284l14.46-13.86a1.2,1.2,0,0,0,0-1.71,1.22,1.22,0,0,0-1.71,0l-11.79,11.3,11.95-51.76a1.21,1.21,0,0,0-.91-1.45,1.23,1.23,0,0,0-1.46.91l-11.95,51.8-5-15.87a1.21,1.21,0,1,0-2.31.72l6.19,19.82-12.16,52.7-9.79-20.62a1.21,1.21,0,0,0-2.19,1l11.11,23.38-10.67,46.2-8.21-15.4a1.21,1.21,0,0,0-2.14,1.14l9.52,17.85-12.74,55.21a1.22,1.22,0,0,0,.91,1.45l.28,0a1.22,1.22,0,0,0,1.18-.94l12.59-54.56,15.38-8.62a1.21,1.21,0,1,0-1.18-2.11l-13.47,7.54,10.46-45.33,21.18-19.25a1.21,1.21,0,0,0-1.63-1.79Z" transform="translate(-49.04 -93.49)"/><path class="cls-3" d="M697.27,298.92a1.21,1.21,0,0,0-1.7-.22l-13.35,10.24a1.21,1.21,0,0,0-.22,1.7,1.2,1.2,0,0,0,1,.47,1.16,1.16,0,0,0,.73-.24l13.36-10.25A1.21,1.21,0,0,0,697.27,298.92Z" transform="translate(-49.04 -93.49)"/><path class="cls-4" d="M748.39,310.93c-14.13-10.26-37.06,38.75-49.08,52.05-3.14,3.09-6.17,6.31-9.1,9.62,9.66-24.39,26.59-55.54,12.65-59.68-14.87-4.41-13.26,50.56-16.55,64.19-3.59,4.25-7,8.61-10.44,13,3.3-14.24,8.49-71.57-9-69.39-12.1,1.51,7.79,49.71,5.38,74.09-1.7,2.26-3.4,4.5-5.07,6.74l-2.93,3.91-.21.17.17-.12c-3.29,4.41-5.11,7-8.32,11.53,2.12-8.37,7-17.36,1.91-46.35-6.35-36.35-22.49-25.42-10.76,10.06,8,24.07,6,33.8,6.11,40.16-4.17,5.94-2.88,3.68-6.66,9.85-.39-9.45-1.75-48.78-17.27-49.74-13.37-.82,4.14,21,9,32.78s6.1,13.91,6.05,19.51c-.76,1.27-7.7,12.71-8.43,14-.56,1,.87,2,1.43,1,1.93-3.34,7.71-11.64,9.78-14.91,10.32-1.34,54.6,17.33,51.84,3.2-1.79-9.09-42.51-8.89-50.32-5.57,2-3.06,4.69-6.44,6.76-9.45a431.15,431.15,0,0,1,54.84-1.63c14.1.53,10.23-17.07-16.84-12.7-19.37,3.13-30.47,9.12-35.94,11.35,3.8-5.44,9.85-13.35,13.81-18.65,16.61-6.41,32.81-5.25,55.09-3.88,22.69,1.39,13.43-19.75-19.07-11.83-26.7,6.5-26,7.87-33,11.67,4.7-6.23,8.41-11.18,13.38-17.34,11.22-6.19,31.61-8.63,45.68-9.76,21.71-1.75,31.19-22-2.38-13.34-17.4,4.49-32.15,14.46-40,19,2.69-3.07,5.47-6.08,8.34-9C715.06,351.17,761.73,320.62,748.39,310.93Z" transform="translate(-49.04 -93.49)"/><path class="cls-5" d="M257,289.35c16.43-5.92,24.8,47.54,32.65,63.66,2.15,3.84,4.17,7.78,6.06,11.78-2.49-26.12-10.08-60.76,4.47-60.85,15.51-.09-1.34,52.26-2,66.26,2.26,5.08,4.39,10.24,6.41,15.4.79-14.59,11.77-71.1,27.95-64.14,11.2,4.82-21.33,45.57-25.81,69.67q1.52,3.94,3,7.88.87,2.28,1.72,4.57l.16.22-.14-.16c1.94,5.15,3,8.18,4.79,13.38.29-8.62-1.87-18.61,11.07-45,16.23-33.14,28.68-18.15,7.53,12.66-14.35,20.9-15.15,30.8-17.05,36.87,2.35,6.86,1.74,4.34,3.65,11.32,3-9,15.27-46.37,30.44-43,13.07,2.93-9.83,19-17.82,29s-9.73,11.65-11.24,17.05c.37,1.43,3.85,14.35,4.2,15.78.26,1.09-1.39,1.65-1.66.56-.91-3.75-4.16-13.33-5.23-17.05-9.54-4.16-57.27,1.44-50.68-11.36,4.25-8.24,43.3,3.29,49.88,8.66-1-3.49-2.71-7.49-3.86-11a429.51,429.51,0,0,0-52.21-16.85c-13.69-3.42-5.08-19.24,19.7-7.5,17.73,8.4,26.73,17.24,31.36,20.9-2.14-6.28-5.74-15.55-8.07-21.75-14.17-10.78-30.05-14.18-51.83-19.07-22.18-5-7.39-22.71,21.62-6.06,23.82,13.69,22.75,14.8,28.41,20.39-2.79-7.29-5-13.07-8-20.38-9.05-9.06-27.95-17.09-41.14-22.09-20.37-7.73-23.84-29.82,6-12.14,15.46,9.16,26.84,22.83,33.18,29.36-1.74-3.7-3.56-7.36-5.52-10.93C277.85,337.29,241.54,294.94,257,289.35Z" transform="translate(-49.04 -93.49)"/><path class="cls-6" d="M609.06,456.77s-16.77-13-4.66-29.81,27.48-25.15,35.4-35.4,17.7-14.9,21.42-14.9,2.33,14,3.26,19.09-7.91,25.15-14.43,33.07S650.05,462.35,609.06,456.77Z" transform="translate(-49.04 -93.49)"/><path class="cls-6" d="M593.17,437.19c2.72-.64,14.61-18.4,19.05-31.52s.3-38.2-5-51.16-13.91-24.45-18.1-24.38-9.82,26.24-13.41,34.69-9.45,31.88,1.09,49.41S589,438.2,593.17,437.19Z" transform="translate(-49.04 -93.49)"/><path class="cls-6" d="M576.92,450.71c3.2-1.74,9.32-18.63-4.19-35.39s-21.89-25.62-27-39.59-26.47-16.93-29.81-10.25c-7,14,9.78,29.81,9.32,43.78s3.26,33.53,21.89,36.33S571.8,453.51,576.92,450.71Z" transform="translate(-49.04 -93.49)"/><path class="cls-3" d="M650.07,397.44a1.21,1.21,0,0,0-1.6.62,120.69,120.69,0,0,1-8.39,15.57V409a1.21,1.21,0,0,0-2.42,0v7.76a1.35,1.35,0,0,0,.11.45,117.69,117.69,0,0,1-14.2,17.33l-.26.26v-5.46a1.21,1.21,0,1,0-2.42,0v8.07c-11.31,12.8-24,35.58-27.39,41.9,0-17.22-.13-50.5-.46-61.65-.11-3.67-.17-8.45-.2-13.77l5-6.24a1.21,1.21,0,0,0-1.88-1.52L592.82,400c0-4.72,0-9.73,0-14.68,0-4.46,0-8.84,0-12.81l4.14-4.69a1.21,1.21,0,0,0-1.82-1.6l-2.33,2.65c0-5-.09-9-.21-11.38-.46-9.16-.46-12.94-.46-13a1.22,1.22,0,0,0-2.43,0c0,.16,0,3.87.47,13.1.13,2.49.18,6.88.21,12.24l-2.56-2.19a1.21,1.21,0,0,0-1.57,1.84l4.14,3.55c0,3.82,0,8,0,12.27,0,5,0,10,0,14.76l-2.48-2.81a1.2,1.2,0,0,0-1.7-.11,1.22,1.22,0,0,0-.11,1.72l4.31,4.88c0,5.36.09,10.2.2,13.91.31,10.35.41,39.85.44,57.76-3.62-8-13.73-28.83-25.85-40.95-.21-.21-.39-.44-.59-.65,0,0,0,0,0,0V426a1.21,1.21,0,0,0-2.42,0v5.16c-6.17-7.37-10.39-16.4-14.06-24.87a.11.11,0,0,1,0-.06l.62-7.46a1.21,1.21,0,0,0-1.11-1.3,1.19,1.19,0,0,0-1.3,1.1l-.25,3c-2.92-6.82-5.53-12.7-8.77-16.85a1.21,1.21,0,1,0-1.91,1.5c3.26,4.16,5.93,10.4,9,17.62l.17.38-4.18-1.14a1.21,1.21,0,0,0-.64,2.34l6,1.65c3.53,8.16,7.58,16.82,13.38,24.21l-5.1-1.49a1.21,1.21,0,0,0-.68,2.33l8.65,2.51c.46.5.9,1,1.39,1.53,14.57,14.56,26.64,43.1,26.76,43.39a1.19,1.19,0,0,0,.82.66c0,5.72,0,9.44,0,9.58a1.22,1.22,0,0,0,2.43,0c0-.12,0-2.85,0-7.21.06,0,.12,0,.19,0a1.2,1.2,0,0,0,1.07-.64c.16-.31,14.94-28.14,27.64-42.7l9.65-1.38a1.21,1.21,0,1,0-.34-2.4l-6.71,1,.29-.3a122.23,122.23,0,0,0,15.44-19.11l7.4-4A1.21,1.21,0,1,0,647,411l-3.63,1.94a122.38,122.38,0,0,0,7.33-13.9A1.21,1.21,0,0,0,650.07,397.44Z" transform="translate(-49.04 -93.49)"/><path class="cls-7" d="M622.24,501.94a6.85,6.85,0,0,1-6.5,5.52H569.16a6.87,6.87,0,0,1-6.51-5.52L557,477.18a4.59,4.59,0,0,1,4.67-5.51h61.48a4.59,4.59,0,0,1,4.67,5.51Z" transform="translate(-49.04 -93.49)"/><path class="cls-8" d="M557.91,482.85l-1-5.71a5.61,5.61,0,0,1,5.59-5.59h17.19" transform="translate(-49.04 -93.49)"/><path class="cls-3" d="M153.74,258.88V232.41h-6.57a47.53,47.53,0,0,0-4-9.78l4.65-4.64-18.72-18.73-4.65,4.65a47.67,47.67,0,0,0-9.77-4v-6.57H88.15v6.57a47.53,47.53,0,0,0-9.78,4l-4.64-4.65L55,218l4.65,4.64a47,47,0,0,0-4,9.78H49v26.47h6.57a47.21,47.21,0,0,0,4,9.78L55,273.3,73.73,292l4.64-4.64a47.5,47.5,0,0,0,9.78,4V298h26.48v-6.57a47.64,47.64,0,0,0,9.77-4l4.65,4.64,18.72-18.72-4.65-4.64a47.76,47.76,0,0,0,4-9.78Zm-52.35,20.94a34.18,34.18,0,1,1,34.18-34.18A34.21,34.21,0,0,1,101.39,279.82Z" transform="translate(-49.04 -93.49)"/></g><path class="cls-9" d="M296.39,199.17V187.69a2,2,0,0,0-2-2h-3a1.85,1.85,0,0,1-1.82-1.43,40.52,40.52,0,0,0-5.12-12.41,1.89,1.89,0,0,1,.25-2.35l2.08-2.08a2,2,0,0,0,0-2.88l-8.12-8.12a2,2,0,0,0-2.88,0l-2.07,2.08a1.91,1.91,0,0,1-2.36.24A40.77,40.77,0,0,0,259,153.58a1.86,1.86,0,0,1-1.44-1.82v-2.95a2,2,0,0,0-2-2H244a2,2,0,0,0-2,2v2.95a1.86,1.86,0,0,1-1.43,1.82,40.58,40.58,0,0,0-12.42,5.12,1.89,1.89,0,0,1-2.35-.25l-2.08-2.07a2,2,0,0,0-2.87,0l-8.12,8.12a2,2,0,0,0,0,2.88l2.07,2.07a1.89,1.89,0,0,1,.25,2.35,40.93,40.93,0,0,0-5.12,12.42,1.85,1.85,0,0,1-1.82,1.43h-3a2,2,0,0,0-2,2v11.48a2,2,0,0,0,2,2h3a1.86,1.86,0,0,1,1.82,1.43A40.83,40.83,0,0,0,215,215.06a1.89,1.89,0,0,1-.25,2.35l-2.07,2.08a2,2,0,0,0,0,2.87l8.12,8.12a2,2,0,0,0,2.87,0l2.08-2.08a1.9,1.9,0,0,1,2.35-.25,40.83,40.83,0,0,0,12.42,5.12,1.86,1.86,0,0,1,1.43,1.82v3a2,2,0,0,0,2,2h11.48a2,2,0,0,0,2-2v-3a1.86,1.86,0,0,1,1.44-1.82,40.77,40.77,0,0,0,12.41-5.12,1.9,1.9,0,0,1,2.35.25l2.08,2.08a2,2,0,0,0,2.88,0l8.12-8.12a2,2,0,0,0,0-2.87l-2.08-2.08a1.9,1.9,0,0,1-.25-2.36,40.77,40.77,0,0,0,5.12-12.41,1.86,1.86,0,0,1,1.82-1.43h3A2,2,0,0,0,296.39,199.17Zm-46.65,26.64a32.38,32.38,0,1,1,32.36-32.39A32.37,32.37,0,0,1,249.74,225.81Z" transform="translate(-49.04 -93.49)"/><path class="cls-10" d="M349.22,238.05v-7.82a1.39,1.39,0,0,0-1.39-1.39h-2a1.28,1.28,0,0,1-1.25-1,27.53,27.53,0,0,0-3.48-8.46,1.3,1.3,0,0,1,.16-1.6l1.42-1.42a1.39,1.39,0,0,0,0-2l-5.53-5.53a1.39,1.39,0,0,0-2,0l-1.42,1.41a1.29,1.29,0,0,1-1.6.17A27.8,27.8,0,0,0,323.7,207a1.26,1.26,0,0,1-1-1.24v-2a1.39,1.39,0,0,0-1.39-1.39h-7.82a1.39,1.39,0,0,0-1.39,1.39v2a1.27,1.27,0,0,1-1,1.24,27.75,27.75,0,0,0-8.47,3.49,1.29,1.29,0,0,1-1.6-.17l-1.41-1.41a1.4,1.4,0,0,0-2,0l-5.53,5.53a1.39,1.39,0,0,0,0,2l1.42,1.42a1.3,1.3,0,0,1,.16,1.6,27.53,27.53,0,0,0-3.48,8.46,1.28,1.28,0,0,1-1.25,1h-2a1.39,1.39,0,0,0-1.39,1.39v7.82a1.39,1.39,0,0,0,1.39,1.39h2a1.28,1.28,0,0,1,1.25,1,27.6,27.6,0,0,0,3.49,8.47,1.29,1.29,0,0,1-.17,1.6l-1.42,1.41a1.39,1.39,0,0,0,0,2l5.53,5.54a1.4,1.4,0,0,0,2,0l1.41-1.42a1.29,1.29,0,0,1,1.6-.17,27.85,27.85,0,0,0,8.47,3.49,1.27,1.27,0,0,1,1,1.24v2a1.39,1.39,0,0,0,1.39,1.39h7.82a1.39,1.39,0,0,0,1.39-1.39v-2a1.26,1.26,0,0,1,1-1.24,27.8,27.8,0,0,0,8.46-3.49,1.29,1.29,0,0,1,1.6.17l1.42,1.42a1.39,1.39,0,0,0,2,0l5.53-5.54a1.39,1.39,0,0,0,0-2l-1.42-1.41a1.33,1.33,0,0,1-.17-1.61,27.45,27.45,0,0,0,3.49-8.46,1.28,1.28,0,0,1,1.25-1h2A1.39,1.39,0,0,0,349.22,238.05ZM317.42,255a20.82,20.82,0,1,1,20.81-20.83A20.82,20.82,0,0,1,317.42,255Z" transform="translate(-49.04 -93.49)"/><circle class="cls-11" cx="152.79" cy="348" r="3.79"/><circle class="cls-11" cx="661.09" cy="244.33" r="3.79"/><circle class="cls-11" cx="653.51" cy="108.85" r="3.79"/><circle class="cls-11" cx="517.09" cy="62.8" r="2.38"/><path class="cls-11" d="M216.68,124.59a2.38,2.38,0,1,1-2.38-2.38A2.37,2.37,0,0,1,216.68,124.59Z" transform="translate(-49.04 -93.49)"/><path class="cls-11" d="M269.36,271.15a2.38,2.38,0,1,1-2.38-2.38A2.38,2.38,0,0,1,269.36,271.15Z" transform="translate(-49.04 -93.49)"/><path class="cls-11" d="M182.05,445.29a2.38,2.38,0,1,1-2.38-2.38A2.39,2.39,0,0,1,182.05,445.29Z" transform="translate(-49.04 -93.49)"/><circle class="cls-11" cx="605.44" cy="350.25" r="3.79"/><circle class="cls-11" cx="686.11" cy="350.25" r="3.79"/><circle class="cls-11" cx="233.06" cy="20.76" r="3.79"/><path class="cls-11" d="M543.88,286.87a5.08,5.08,0,1,1-5.08-5.08A5.08,5.08,0,0,1,543.88,286.87Z" transform="translate(-49.04 -93.49)"/><path class="cls-11" d="M169.44,224.09a5.08,5.08,0,1,1-5.08-5.07A5.07,5.07,0,0,1,169.44,224.09Z" transform="translate(-49.04 -93.49)"/><rect class="cls-12" x="98.99" y="46.95" width="7.87" height="7.87" rx="0.66"/><rect class="cls-12" x="109.52" y="46.95" width="7.87" height="7.87" rx="0.66"/><rect class="cls-12" x="120.05" y="46.95" width="7.87" height="7.87" rx="0.66"/><rect class="cls-10" x="635.25" y="323.42" width="7.87" height="7.87" rx="0.66"/><rect class="cls-10" x="645.78" y="323.42" width="7.87" height="7.87" rx="0.66"/><rect class="cls-10" x="656.31" y="323.42" width="7.87" height="7.87" rx="0.66"/><rect class="cls-10" x="148.42" y="319.1" width="7.87" height="7.87" rx="0.66"/><rect class="cls-10" x="158.95" y="319.1" width="7.87" height="7.87" rx="0.66"/><rect class="cls-10" x="169.48" y="319.1" width="7.87" height="7.87" rx="0.66"/><rect class="cls-13" x="265.42" y="9.34" width="199.45" height="385.3" rx="21.35"/><rect class="cls-12" x="269.15" y="12.71" width="191.98" height="376.45" rx="18.7"/><path class="cls-10" d="M501.77,126.5V460.66a14.2,14.2,0,0,1-14.19,14.19H340.78a14.2,14.2,0,0,1-14.19-14.19V126.5a14.19,14.19,0,0,1,14.19-14.19h24.48a3.6,3.6,0,0,1,3.21,2l2.6,5.19a7,7,0,0,0,6.29,3.9H451a7,7,0,0,0,6.29-3.9l2.6-5.19a3.6,3.6,0,0,1,3.21-2h24.48A14.19,14.19,0,0,1,501.77,126.5Z" transform="translate(-49.04 -93.49)"/><path class="cls-10" d="M445.09,117.31H385.77a2.49,2.49,0,0,1-2.49-2.5h0a2.49,2.49,0,0,1,2.49-2.5h59.32a2.5,2.5,0,0,1,2.49,2.5h0A2.5,2.5,0,0,1,445.09,117.31Z" transform="translate(-49.04 -93.49)"/><rect class="cls-14" x="288.05" y="304.37" width="150.77" height="65.38" rx="8.38"/><rect class="cls-14" x="350.49" y="163.41" width="79.02" height="45.91" rx="6.04"/><rect class="cls-15" x="293.54" y="220.33" width="151.36" height="73.17" rx="7.2"/><path class="cls-16" d="M487.85,316V373a8,8,0,0,1-8.05,8.05H345.15a8.05,8.05,0,0,1-8.06-8.05V316a8.05,8.05,0,0,1,8.06-8.05H479.8A8,8,0,0,1,487.85,316Z" transform="translate(-49.04 -93.49)"/><rect class="cls-12" x="295.02" y="231.07" width="50.56" height="50.56" rx="4.86"/><path class="cls-17" d="M436.19,331H401.25a1.72,1.72,0,0,1-1.72-1.72h0a1.72,1.72,0,0,1,1.72-1.72h34.94a1.72,1.72,0,0,1,1.72,1.72h0A1.72,1.72,0,0,1,436.19,331Z" transform="translate(-49.04 -93.49)"/><path class="cls-17" d="M420.26,337.82h-19a1.72,1.72,0,0,1-1.72-1.72h0a1.72,1.72,0,0,1,1.72-1.72h19A1.72,1.72,0,0,1,422,336.1h0A1.72,1.72,0,0,1,420.26,337.82Z" transform="translate(-49.04 -93.49)"/><path class="cls-17" d="M478.72,337.82H427.26a1.72,1.72,0,0,1-1.72-1.72h0a1.72,1.72,0,0,1,1.72-1.72h51.46a1.72,1.72,0,0,1,1.72,1.72h0A1.72,1.72,0,0,1,478.72,337.82Z" transform="translate(-49.04 -93.49)"/><path class="cls-17" d="M430.67,344.69H401.25a1.72,1.72,0,0,1-1.72-1.72h0a1.72,1.72,0,0,1,1.72-1.72h29.42a1.72,1.72,0,0,1,1.72,1.72h0A1.72,1.72,0,0,1,430.67,344.69Z" transform="translate(-49.04 -93.49)"/><path class="cls-17" d="M455.64,344.69H437.15a1.72,1.72,0,0,1-1.72-1.72h0a1.72,1.72,0,0,1,1.72-1.72h18.49a1.72,1.72,0,0,1,1.72,1.72h0A1.72,1.72,0,0,1,455.64,344.69Z" transform="translate(-49.04 -93.49)"/><path class="cls-17" d="M478.72,344.69h-17A1.72,1.72,0,0,1,460,343h0a1.72,1.72,0,0,1,1.72-1.72h17a1.72,1.72,0,0,1,1.72,1.72h0A1.72,1.72,0,0,1,478.72,344.69Z" transform="translate(-49.04 -93.49)"/><path class="cls-17" d="M478.72,351.56H401.25a1.72,1.72,0,0,1-1.72-1.72h0a1.72,1.72,0,0,1,1.72-1.72h77.47a1.72,1.72,0,0,1,1.72,1.72h0A1.72,1.72,0,0,1,478.72,351.56Z" transform="translate(-49.04 -93.49)"/><path class="cls-17" d="M443.89,358.43H401.25a1.72,1.72,0,0,1-1.72-1.72h0a1.72,1.72,0,0,1,1.72-1.72h42.64a1.72,1.72,0,0,1,1.72,1.72h0A1.72,1.72,0,0,1,443.89,358.43Z" transform="translate(-49.04 -93.49)"/><path class="cls-17" d="M478.72,358.43h-28a1.72,1.72,0,0,1-1.72-1.72h0a1.72,1.72,0,0,1,1.72-1.72h28a1.72,1.72,0,0,1,1.72,1.72h0A1.72,1.72,0,0,1,478.72,358.43Z" transform="translate(-49.04 -93.49)"/><path class="cls-17" d="M426.3,365.29H401.25a1.72,1.72,0,0,1-1.72-1.72h0a1.72,1.72,0,0,1,1.72-1.72H426.3a1.72,1.72,0,0,1,1.72,1.72h0A1.72,1.72,0,0,1,426.3,365.29Z" transform="translate(-49.04 -93.49)"/><path class="cls-17" d="M458.13,365.29H433.08a1.72,1.72,0,0,1-1.72-1.72h0a1.72,1.72,0,0,1,1.72-1.72h25.05a1.72,1.72,0,0,1,1.72,1.72h0A1.72,1.72,0,0,1,458.13,365.29Z" transform="translate(-49.04 -93.49)"/><path class="cls-17" d="M478.72,365.29H464.18a1.72,1.72,0,0,1-1.72-1.72h0a1.72,1.72,0,0,1,1.72-1.72h14.54a1.72,1.72,0,0,1,1.72,1.72h0A1.72,1.72,0,0,1,478.72,365.29Z" transform="translate(-49.04 -93.49)"/><path class="cls-17" d="M436.19,372.16H401.25a1.72,1.72,0,0,1-1.72-1.72h0a1.72,1.72,0,0,1,1.72-1.72h34.94a1.72,1.72,0,0,1,1.72,1.72h0A1.72,1.72,0,0,1,436.19,372.16Z" transform="translate(-49.04 -93.49)"/><path class="cls-17" d="M478.72,331H443.78a1.72,1.72,0,0,1-1.72-1.72h0a1.72,1.72,0,0,1,1.72-1.72h34.94a1.72,1.72,0,0,1,1.72,1.72h0A1.72,1.72,0,0,1,478.72,331Z" transform="translate(-49.04 -93.49)"/><path class="cls-18" d="M487.85,316v2.4H337.09V316a8.05,8.05,0,0,1,8.06-8.05H479.8A8,8,0,0,1,487.85,316Z" transform="translate(-49.04 -93.49)"/><path class="cls-10" d="M459.44,313.31a1.87,1.87,0,1,1-1.87-1.87A1.87,1.87,0,0,1,459.44,313.31Z" transform="translate(-49.04 -93.49)"/><path class="cls-10" d="M469,313.31a1.87,1.87,0,1,1-1.87-1.87A1.87,1.87,0,0,1,469,313.31Z" transform="translate(-49.04 -93.49)"/><path class="cls-10" d="M478.55,313.31a1.87,1.87,0,1,1-1.87-1.87A1.87,1.87,0,0,1,478.55,313.31Z" transform="translate(-49.04 -93.49)"/><rect class="cls-19" x="296.88" y="163.45" width="45.86" height="45.86" rx="7.15"/><polyline class="cls-20" points="312.65 179.75 306.05 186.36 312.71 193.02"/><polyline class="cls-20" points="326.96 179.75 333.57 186.36 326.91 193.02"/><line class="cls-20" x1="322.9" y1="179.75" x2="316.71" y2="193.02"/><path class="cls-17" d="M487.85,145v93.3a9.16,9.16,0,0,1-9.16,9.17H346.25a9.17,9.17,0,0,1-9.16-9.17V145a9.17,9.17,0,0,1,9.16-9.17H478.69A9.16,9.16,0,0,1,487.85,145Z" transform="translate(-49.04 -93.49)"/><circle class="cls-21" cx="408.28" cy="71.82" r="21.85"/><path class="cls-12" d="M425.71,247.47H346.25a9.17,9.17,0,0,1-9.16-9.17V223.61l34.77-60.23a4.73,4.73,0,0,1,8.18,0l26.25,45.47,19.5,33.78A4.64,4.64,0,0,1,425.71,247.47Z" transform="translate(-49.04 -93.49)"/><path class="cls-21" d="M460,247.47H384l22.3-38.62,12-20.8a4.25,4.25,0,0,1,7.37,0Z" transform="translate(-49.04 -93.49)"/><rect class="cls-22" x="503.07" y="327.35" width="58.58" height="88.03"/><rect class="cls-23" x="610.68" y="420.84" width="22.43" height="88.03" transform="translate(1194.76 836.23) rotate(180)"/><rect class="cls-17" x="564.86" y="330.73" width="16.47" height="2.81"/><rect class="cls-17" x="564.86" y="336.77" width="16.47" height="2.81"/><rect class="cls-17" x="564.86" y="342.81" width="16.47" height="2.81"/><rect class="cls-17" x="564.86" y="348.84" width="16.47" height="2.81"/><rect class="cls-17" x="564.86" y="354.88" width="16.47" height="2.81"/><rect class="cls-17" x="564.86" y="360.91" width="16.47" height="2.81"/><rect class="cls-17" x="564.86" y="366.95" width="16.47" height="2.81"/><rect class="cls-17" x="564.86" y="372.98" width="16.47" height="2.81"/><rect class="cls-17" x="564.86" y="379.02" width="16.47" height="2.81"/><rect class="cls-17" x="564.86" y="385.05" width="16.47" height="2.81"/><rect class="cls-17" x="564.86" y="391.09" width="16.47" height="2.81"/><rect class="cls-17" x="564.86" y="397.12" width="16.47" height="2.81"/><rect class="cls-17" x="564.86" y="403.16" width="16.47" height="2.81"/><rect class="cls-17" x="564.86" y="409.19" width="16.47" height="2.81"/><path class="cls-24" d="M695.64,247.47H636.19a6.9,6.9,0,0,0-6.9,6.9v14.05a6.89,6.89,0,0,0,6,6.84,1,1,0,0,1,.87,1v7.69a.45.45,0,0,0,.82.27l6.06-8.47a1,1,0,0,1,.82-.42h51.75a6.89,6.89,0,0,0,6.9-6.9V254.37A6.89,6.89,0,0,0,695.64,247.47Z" transform="translate(-49.04 -93.49)"/><path class="cls-24" d="M645.31,261.37A2.28,2.28,0,1,1,643,259.1,2.28,2.28,0,0,1,645.31,261.37Z" transform="translate(-49.04 -93.49)"/><path class="cls-24" d="M656.75,261.37a2.28,2.28,0,1,1-2.27-2.27A2.28,2.28,0,0,1,656.75,261.37Z" transform="translate(-49.04 -93.49)"/><path class="cls-24" d="M668.19,261.37a2.28,2.28,0,1,1-2.27-2.27A2.28,2.28,0,0,1,668.19,261.37Z" transform="translate(-49.04 -93.49)"/><path class="cls-24" d="M679.63,261.37a2.28,2.28,0,1,1-2.27-2.27A2.28,2.28,0,0,1,679.63,261.37Z" transform="translate(-49.04 -93.49)"/><path class="cls-24" d="M691.07,261.37a2.28,2.28,0,1,1-2.28-2.27A2.28,2.28,0,0,1,691.07,261.37Z" transform="translate(-49.04 -93.49)"/><path class="cls-24" d="M225.81,309.05h59.46a6.9,6.9,0,0,1,6.9,6.9V330a6.9,6.9,0,0,1-6,6.84,1,1,0,0,0-.87,1v7.69a.46.46,0,0,1-.83.27l-6.05-8.47a1,1,0,0,0-.82-.42H225.81a6.9,6.9,0,0,1-6.9-6.9V316A6.9,6.9,0,0,1,225.81,309.05Z" transform="translate(-49.04 -93.49)"/><path class="cls-24" d="M276.15,323a2.27,2.27,0,1,0,2.27-2.27A2.28,2.28,0,0,0,276.15,323Z" transform="translate(-49.04 -93.49)"/><path class="cls-24" d="M264.71,323a2.27,2.27,0,1,0,2.27-2.27A2.28,2.28,0,0,0,264.71,323Z" transform="translate(-49.04 -93.49)"/><path class="cls-24" d="M253.27,323a2.27,2.27,0,1,0,2.27-2.27A2.28,2.28,0,0,0,253.27,323Z" transform="translate(-49.04 -93.49)"/><path class="cls-24" d="M241.83,323a2.27,2.27,0,1,0,2.27-2.27A2.28,2.28,0,0,0,241.83,323Z" transform="translate(-49.04 -93.49)"/><path class="cls-24" d="M230.39,323a2.27,2.27,0,1,0,2.27-2.27A2.28,2.28,0,0,0,230.39,323Z" transform="translate(-49.04 -93.49)"/><path class="cls-25" d="M584.9,215.07H476.53a10.82,10.82,0,0,1-10.82-10.83h0a10.82,10.82,0,0,1,10.82-10.82H584.9a10.82,10.82,0,0,1,10.82,10.82h0A10.82,10.82,0,0,1,584.9,215.07Z" transform="translate(-49.04 -93.49)"/><path class="cls-26" d="M583.31,203.5a5.76,5.76,0,1,1-5.75-5.76A5.75,5.75,0,0,1,583.31,203.5Z" transform="translate(-49.04 -93.49)"/><line class="cls-27" x1="532.59" y1="114.08" x2="535.77" y2="117.26"/><rect class="cls-28" x="335.8" y="371.37" width="44.54" height="44.54" rx="7.71"/><rect class="cls-23" x="327.68" y="371.37" width="44.54" height="44.54" rx="7.71"/><path class="cls-12" d="M393.73,478.72l12.78,7.38a1.18,1.18,0,0,1,0,2l-12.78,7.38a1.18,1.18,0,0,1-1.78-1V479.75A1.19,1.19,0,0,1,393.73,478.72Z" transform="translate(-49.04 -93.49)"/><rect class="cls-28" x="606.78" y="357.69" width="58.22" height="58.22" rx="10.08"/><rect class="cls-23" x="596.17" y="357.69" width="58.22" height="58.22" rx="10.08"/><path class="cls-12" d="M681.32,465.46a7,7,0,1,1-7-7A7,7,0,0,1,681.32,465.46Z" transform="translate(-49.04 -93.49)"/><path class="cls-12" d="M688.9,489.14v10.33a1.69,1.69,0,0,1-1.69,1.69H661.43a1.69,1.69,0,0,1-1.69-1.69V489.14a14.58,14.58,0,0,1,14.58-14.58h0A14.58,14.58,0,0,1,688.9,489.14Z" transform="translate(-49.04 -93.49)"/><path class="cls-21" d="M544.12,227.53H521.23a1.72,1.72,0,0,1-1.72-1.72h0a1.72,1.72,0,0,1,1.72-1.72h22.89a1.72,1.72,0,0,1,1.72,1.72h0A1.72,1.72,0,0,1,544.12,227.53Z" transform="translate(-49.04 -93.49)"/><path class="cls-21" d="M567,227.53H550.46a1.72,1.72,0,0,1-1.72-1.72h0a1.72,1.72,0,0,1,1.72-1.72H567a1.72,1.72,0,0,1,1.72,1.72h0A1.72,1.72,0,0,1,567,227.53Z" transform="translate(-49.04 -93.49)"/><path class="cls-21" d="M531,235.1h-9.73a1.72,1.72,0,0,1-1.72-1.72h0a1.72,1.72,0,0,1,1.72-1.72H531a1.72,1.72,0,0,1,1.72,1.72h0A1.72,1.72,0,0,1,531,235.1Z" transform="translate(-49.04 -93.49)"/><path class="cls-21" d="M567,235.1H536.73a1.72,1.72,0,0,1-1.72-1.72h0a1.72,1.72,0,0,1,1.72-1.72H567a1.72,1.72,0,0,1,1.72,1.72h0A1.72,1.72,0,0,1,567,235.1Z" transform="translate(-49.04 -93.49)"/><path class="cls-21" d="M551.4,242.66H521.23a1.72,1.72,0,0,1-1.72-1.72h0a1.72,1.72,0,0,1,1.72-1.72H551.4a1.72,1.72,0,0,1,1.72,1.72h0A1.72,1.72,0,0,1,551.4,242.66Z" transform="translate(-49.04 -93.49)"/><path class="cls-21" d="M567,242.66H557.3a1.72,1.72,0,0,1-1.72-1.72h0a1.72,1.72,0,0,1,1.72-1.72H567a1.72,1.72,0,0,1,1.72,1.72h0A1.72,1.72,0,0,1,567,242.66Z" transform="translate(-49.04 -93.49)"/><rect class="cls-28" x="121.03" y="260.83" width="88.48" height="48.91" rx="3.82"/><line class="cls-29" x1="124.79" y1="267.43" x2="205.75" y2="267.43"/><circle class="cls-12" cx="203.61" cy="264.07" r="0.98"/><circle class="cls-12" cx="198.5" cy="264.07" r="0.98"/><circle class="cls-12" cx="193.38" cy="264.07" r="0.98"/><path class="cls-30" d="M188.92,367.51H175.18a1.35,1.35,0,0,1-1.35-1.36h0a1.34,1.34,0,0,1,1.35-1.35h13.74a1.34,1.34,0,0,1,1.35,1.35h0A1.35,1.35,0,0,1,188.92,367.51Z" transform="translate(-49.04 -93.49)"/><path class="cls-30" d="M188.92,373.76H175.18a1.34,1.34,0,0,1-1.35-1.35h0a1.35,1.35,0,0,1,1.35-1.36h13.74a1.35,1.35,0,0,1,1.35,1.36h0A1.34,1.34,0,0,1,188.92,373.76Z" transform="translate(-49.04 -93.49)"/><path class="cls-30" d="M188.92,380H175.18a1.35,1.35,0,0,1-1.35-1.36h0a1.35,1.35,0,0,1,1.35-1.35h13.74a1.35,1.35,0,0,1,1.35,1.35h0A1.35,1.35,0,0,1,188.92,380Z" transform="translate(-49.04 -93.49)"/><path class="cls-30" d="M188.92,386.27H175.18a1.34,1.34,0,0,1-1.35-1.35h0a1.34,1.34,0,0,1,1.35-1.35h13.74a1.34,1.34,0,0,1,1.35,1.35h0A1.34,1.34,0,0,1,188.92,386.27Z" transform="translate(-49.04 -93.49)"/><path class="cls-30" d="M188.92,392.53H175.18a1.35,1.35,0,0,1-1.35-1.35h0a1.35,1.35,0,0,1,1.35-1.36h13.74a1.35,1.35,0,0,1,1.35,1.36h0A1.35,1.35,0,0,1,188.92,392.53Z" transform="translate(-49.04 -93.49)"/><path class="cls-30" d="M188.92,398.79H175.18a1.35,1.35,0,0,1-1.35-1.36h0a1.35,1.35,0,0,1,1.35-1.35h13.74a1.35,1.35,0,0,1,1.35,1.35h0A1.35,1.35,0,0,1,188.92,398.79Z" transform="translate(-49.04 -93.49)"/><path class="cls-31" d="M253.43,367.51h-59.2a1.35,1.35,0,0,1-1.35-1.36h0a1.34,1.34,0,0,1,1.35-1.35h59.2a1.34,1.34,0,0,1,1.35,1.35h0A1.35,1.35,0,0,1,253.43,367.51Z" transform="translate(-49.04 -93.49)"/><path class="cls-31" d="M253.43,373.76h-59.2a1.34,1.34,0,0,1-1.35-1.35h0a1.35,1.35,0,0,1,1.35-1.36h59.2a1.35,1.35,0,0,1,1.35,1.36h0A1.34,1.34,0,0,1,253.43,373.76Z" transform="translate(-49.04 -93.49)"/><path class="cls-31" d="M253.43,380h-59.2a1.35,1.35,0,0,1-1.35-1.36h0a1.35,1.35,0,0,1,1.35-1.35h59.2a1.35,1.35,0,0,1,1.35,1.35h0A1.35,1.35,0,0,1,253.43,380Z" transform="translate(-49.04 -93.49)"/><path class="cls-31" d="M253.43,386.27h-59.2a1.34,1.34,0,0,1-1.35-1.35h0a1.34,1.34,0,0,1,1.35-1.35h59.2a1.34,1.34,0,0,1,1.35,1.35h0A1.34,1.34,0,0,1,253.43,386.27Z" transform="translate(-49.04 -93.49)"/><path class="cls-31" d="M253.43,392.53h-59.2a1.35,1.35,0,0,1-1.35-1.35h0a1.35,1.35,0,0,1,1.35-1.36h59.2a1.35,1.35,0,0,1,1.35,1.36h0A1.35,1.35,0,0,1,253.43,392.53Z" transform="translate(-49.04 -93.49)"/><path class="cls-31" d="M253.43,398.79h-59.2a1.35,1.35,0,0,1-1.35-1.36h0a1.35,1.35,0,0,1,1.35-1.35h59.2a1.35,1.35,0,0,1,1.35,1.35h0A1.35,1.35,0,0,1,253.43,398.79Z" transform="translate(-49.04 -93.49)"/><circle class="cls-9" cx="633.65" cy="139.25" r="36.42" transform="translate(301.56 629.53) rotate(-76.53)"/><circle class="cls-13" cx="633.65" cy="139.25" r="31.67" transform="translate(-51.19 174.81) rotate(-23.87)"/><path class="cls-12" d="M636.53,139.25a2.88,2.88,0,1,1-2.88-2.88A2.88,2.88,0,0,1,636.53,139.25Z" transform="translate(-49.04 -93.49)"/><path class="cls-12" d="M633.34,138.69h0a.91.91,0,0,1-1.23-.35l-9.31-16.8a.9.9,0,0,1,.35-1.23h0a.9.9,0,0,1,1.22.35l9.32,16.8A.91.91,0,0,1,633.34,138.69Z" transform="translate(-49.04 -93.49)"/><path class="cls-12" d="M634.11,139.71h0a.9.9,0,0,1,1.27,0l8.06,8.06a.9.9,0,0,1,0,1.27h0a.91.91,0,0,1-1.28,0l-8-8A.91.91,0,0,1,634.11,139.71Z" transform="translate(-49.04 -93.49)"/><line class="cls-32" x1="584.81" y1="20.42" x2="584.81" y2="16.78"/><line class="cls-32" x1="609.96" y1="45.96" x2="613.6" y2="45.96"/><line class="cls-32" x1="584.42" y1="71.11" x2="584.42" y2="74.75"/><line class="cls-32" x1="559.27" y1="45.57" x2="555.62" y2="45.57"/><g class="cls-33"><line class="cls-34" x1="572.11" y1="23.72" x2="570.29" y2="20.56"/><line class="cls-34" x1="606.66" y1="33.26" x2="609.81" y2="31.44"/><line class="cls-34" x1="597.12" y1="67.81" x2="598.94" y2="70.96"/><line class="cls-34" x1="562.56" y1="58.27" x2="559.41" y2="60.09"/></g><g class="cls-33"><line class="cls-34" x1="562.76" y1="32.92" x2="559.6" y2="31.1"/><line class="cls-34" x1="597.45" y1="23.91" x2="599.27" y2="20.76"/><line class="cls-34" x1="606.46" y1="58.6" x2="609.62" y2="60.42"/><line class="cls-34" x1="571.77" y1="67.62" x2="569.95" y2="70.77"/></g><rect class="cls-28" x="101.14" y="167.62" width="61.44" height="61.44" rx="9.57"/><rect class="cls-35" x="96.38" y="162.3" width="61.44" height="61.44" rx="7.67"/><path class="cls-10" d="M186.78,279.47h-.32V276a10.48,10.48,0,0,0-21,0v3.52h-.07a2.94,2.94,0,0,0-2.94,2.94v13.27a2.94,2.94,0,0,0,2.94,2.94h21.34a2.94,2.94,0,0,0,2.94-2.94V282.41A2.94,2.94,0,0,0,186.78,279.47ZM168.16,276a7.82,7.82,0,0,1,15.64,0v3.52H168.16Z" transform="translate(-49.04 -93.49)"/><path class="cls-36" d="M179.56,286.29a3.42,3.42,0,1,0-5.14,2.95.62.62,0,0,1,.31.68l-.6,2.2a2.05,2.05,0,1,0,4,0l-.58-2.17a.62.62,0,0,1,.31-.7A3.39,3.39,0,0,0,179.56,286.29Z" transform="translate(-49.04 -93.49)"/><path class="cls-10" d="M188.46,303.27h-24.7A1.26,1.26,0,0,1,162.5,302h0a1.25,1.25,0,0,1,1.26-1.26h24.7a1.26,1.26,0,0,1,1.26,1.26h0A1.27,1.27,0,0,1,188.46,303.27Z" transform="translate(-49.04 -93.49)"/><path class="cls-10" d="M188.46,307.54h-24.7a1.26,1.26,0,0,1-1.26-1.26h0a1.25,1.25,0,0,1,1.26-1.26h24.7a1.26,1.26,0,0,1,1.26,1.26h0A1.27,1.27,0,0,1,188.46,307.54Z" transform="translate(-49.04 -93.49)"/><rect class="cls-28" x="36.3" y="32.13" width="36.17" height="36.17" rx="5.63"/><rect class="cls-35" x="33.5" y="28.99" width="36.17" height="36.17" rx="4.51"/><path class="cls-12" d="M93.31,151.37a1,1,0,0,1-.3,0,1.13,1.13,0,0,1-.78-1.38l5.47-19.37a1.12,1.12,0,0,1,2.16.61l-5.47,19.36A1.12,1.12,0,0,1,93.31,151.37Z" transform="translate(-49.04 -93.49)"/><path class="cls-12" d="M102.46,151.37a1.15,1.15,0,0,1-.31,0,1.12,1.12,0,0,1-.77-1.38l5.47-19.37a1.12,1.12,0,0,1,2.16.61l-5.47,19.36A1.12,1.12,0,0,1,102.46,151.37Z" transform="translate(-49.04 -93.49)"/><path class="cls-12" d="M110.3,137.3H90.94a1.12,1.12,0,0,1,0-2.24H110.3a1.12,1.12,0,1,1,0,2.24Z" transform="translate(-49.04 -93.49)"/><path class="cls-12" d="M110.3,146.15H90.94a1.12,1.12,0,0,1,0-2.24H110.3a1.12,1.12,0,0,1,0,2.24Z" transform="translate(-49.04 -93.49)"/><path class="cls-21" d="M248.2,279.87h-14a1.53,1.53,0,0,1-1.54-1.53h0a1.54,1.54,0,0,1,1.54-1.54h14a1.54,1.54,0,0,1,1.54,1.54h0A1.53,1.53,0,0,1,248.2,279.87Z" transform="translate(-49.04 -93.49)"/><path class="cls-21" d="M262.31,286.69H234.2a1.54,1.54,0,0,1-1.54-1.54h0a1.54,1.54,0,0,1,1.54-1.53h28.11a1.53,1.53,0,0,1,1.53,1.53h0A1.53,1.53,0,0,1,262.31,286.69Z" transform="translate(-49.04 -93.49)"/><path class="cls-21" d="M237.52,293.51H234.2a1.54,1.54,0,0,1-1.54-1.54h0a1.53,1.53,0,0,1,1.54-1.53h3.32a1.52,1.52,0,0,1,1.53,1.53h0A1.53,1.53,0,0,1,237.52,293.51Z" transform="translate(-49.04 -93.49)"/><path class="cls-21" d="M262.31,293.51H242.74A1.54,1.54,0,0,1,241.2,292h0a1.53,1.53,0,0,1,1.54-1.53h19.57a1.52,1.52,0,0,1,1.53,1.53h0A1.53,1.53,0,0,1,262.31,293.51Z" transform="translate(-49.04 -93.49)"/><path class="cls-21" d="M262.31,279.87h-8.49a1.52,1.52,0,0,1-1.53-1.53h0a1.53,1.53,0,0,1,1.53-1.54h8.49a1.53,1.53,0,0,1,1.53,1.54h0A1.52,1.52,0,0,1,262.31,279.87Z" transform="translate(-49.04 -93.49)"/><path class="cls-12" d="M183.34,489.33a9.74,9.74,0,0,0-5,1.37,10.47,10.47,0,0,0-20.88,1.18,10.73,10.73,0,0,0,.07,1.14,8,8,0,1,0-1.48,15.86h27.29a9.78,9.78,0,0,0,0-19.55Z" transform="translate(-49.04 -93.49)"/><path class="cls-10" d="M113.93,447.33a10.32,10.32,0,0,1,.14-4.39,43.58,43.58,0,0,0-.49-23.69c-5.23-16.34-26.45-30.82-26.45-30.82s5.76,24.12,10.49,34.39c3.47,7.52,9.53,16.07,12.9,20.58a10.13,10.13,0,0,1,1.85,4.22,175.6,175.6,0,0,1,2.92,33.9l1.59.06A177,177,0,0,0,113.93,447.33Z" transform="translate(-49.04 -93.49)"/><path class="cls-37" d="M130.84,432A190.66,190.66,0,0,0,137,403s-19,15.69-20.58,27.84a40.55,40.55,0,0,0,1.3,16.91,11.54,11.54,0,0,1,.44,4.6,161.84,161.84,0,0,0-.39,31.78l1.43-.17a158.93,158.93,0,0,1,.23-29.83,11.83,11.83,0,0,1,2.62-6.3A49.9,49.9,0,0,0,130.84,432Z" transform="translate(-49.04 -93.49)"/><path class="cls-10" d="M150.18,402.33s-20.5,7.61-25.86,24.34a44.62,44.62,0,0,0-.44,24.48,8.3,8.3,0,0,1,0,4.17c-4.8,19.26-4.87,39.19-4.87,39.46h1.63a187,187,0,0,1,4.71-38.61,14.46,14.46,0,0,1,2.43-5.19c3.5-4.71,9.45-13.18,12.89-20.65C145.51,419.81,150.18,402.33,150.18,402.33Z" transform="translate(-49.04 -93.49)"/><path class="cls-37" d="M114,472.94a56.72,56.72,0,0,0-4.74-18.6,6.37,6.37,0,0,1-.47-3.37,31,31,0,0,0-.48-10c-1.67-8.21-12.56-26-28.34-27a114.67,114.67,0,0,1,8.24,16.08c3.55,9.26,8.61,18.95,17,22.67a6.32,6.32,0,0,1,3.24,3.37,55.11,55.11,0,0,1,4.11,16.95Z" transform="translate(-49.04 -93.49)"/><path class="cls-10" d="M103.35,508.88h26l6.75-41.29a3,3,0,0,0-3-3.49H99.55a3,3,0,0,0-3,3.49Z" transform="translate(-49.04 -93.49)"/><line class="cls-38" x1="0.85" y1="415.39" x2="729.43" y2="415.39"/></svg>