<svg id="Layer_1" data-name="Layer 1" xmlns="http://www.w3.org/2000/svg" xmlns:xlink="http://www.w3.org/1999/xlink" viewBox="0 0 723.2 430.49"><defs><style>.cls-1,.cls-10,.cls-15,.cls-22,.cls-24,.cls-26,.cls-28{fill:none;}.cls-11,.cls-2{fill:#dee4f5;}.cls-18,.cls-2,.cls-27{opacity:0.5;}.cls-3{fill:url(#linear-gradient);}.cls-4{fill:#f6a300;}.cls-5{fill:url(#linear-gradient-2);}.cls-6{fill:url(#linear-gradient-3);}.cls-7{clip-path:url(#clip-path);}.cls-8{fill:url(#linear-gradient-4);}.cls-9{fill:url(#linear-gradient-5);}.cls-10{stroke:#fafcff;stroke-width:1.3px;}.cls-10,.cls-15,.cls-26,.cls-28{stroke-linecap:round;}.cls-10,.cls-15{stroke-linejoin:round;}.cls-12{fill:#fcda73;}.cls-13{fill:#20386e;}.cls-14{fill:#f5a402;}.cls-15{stroke:#fffffc;stroke-width:1.88px;}.cls-16,.cls-18{fill:#b2c1f9;}.cls-17{fill:#3b47bc;}.cls-19{font-size:13.15px;font-family:RobotoSlab-Bold, Roboto Slab;font-weight:700;}.cls-19,.cls-20{fill:#fff;}.cls-21{fill:#162873;}.cls-22,.cls-26{stroke:#fff;}.cls-22,.cls-24,.cls-26,.cls-28{stroke-miterlimit:10;}.cls-22{stroke-width:0.33px;}.cls-23{fill:#edf2f8;}.cls-24,.cls-28{stroke:#dee3fc;}.cls-24{stroke-width:0.79px;}.cls-25{fill:#3945ba;}.cls-26{stroke-width:2px;}</style><linearGradient id="linear-gradient" x1="649.63" y1="445.45" x2="649.63" y2="183.45" gradientTransform="translate(181.73 -235.83) rotate(23.76)" gradientUnits="userSpaceOnUse"><stop offset="0" stop-color="#f6a300"/><stop offset="1" stop-color="#fcda73"/></linearGradient><linearGradient id="linear-gradient-2" x1="487.09" y1="506.34" x2="487.09" y2="328.87" gradientTransform="translate(822.28 -240.91) rotate(64.82)" gradientUnits="userSpaceOnUse"><stop offset="0" stop-color="#20386e"/><stop offset="1" stop-color="#1a5aa6"/></linearGradient><linearGradient id="linear-gradient-3" x1="615.85" y1="421.42" x2="615.85" y2="243.94" gradientTransform="matrix(-0.91, 0.42, 0.42, 0.91, 660.77, -230.94)" xlink:href="#linear-gradient"/><clipPath id="clip-path" transform="translate(-48.14 -78.88)"><path class="cls-1" d="M376.23,309.62a217.2,217.2,0,0,1-111.36-34.31c3-6.08,5.85-11.87,6.34-13.24-3.65,3.43-7.17,6.91-10.82,10.28a203.63,203.63,0,0,1-34.6-29.6c3.54-5.2,6.73-10.74,7.68-15.72-1.66.51-7.8,5.57-13.29,9.43a184.32,184.32,0,0,1-17.39-24.12,83.38,83.38,0,0,0,12.36-6.19c-1.16,0-9,.27-15.72.39-7.84-14.27-13.47-29.95-12.68-46.19,0-.53.06-1.07.1-1.6a292.23,292.23,0,0,1,45.39,11.44c2.59,7.81,6.07,15.63,6.07,23.77q0-10.83,0-21.64c1.34.49,2.67,1,4,1.49a286.78,286.78,0,0,1,40,18.85c-.38,3.9-.94,7.12-1.91,7.83,2.24-1.64,4.39-3.37,6.47-5.19a272.24,272.24,0,0,1,39.58,28.61c25.59,22.31,51.39,45.65,54.37,80.67.12,1.4.09,3-.9,4.07a2.38,2.38,0,0,1-.45.38A5.42,5.42,0,0,1,376.23,309.62Z"/></clipPath><linearGradient id="linear-gradient-4" x1="158.35" y1="262.63" x2="333.76" y2="222.04" gradientTransform="matrix(1, 0, 0, 1, 0, 0)" xlink:href="#linear-gradient"/><linearGradient id="linear-gradient-5" x1="288.06" y1="218.91" x2="259.17" y2="313.84" gradientTransform="matrix(1, 0, 0, 1, 0, 0)" xlink:href="#linear-gradient"/></defs><g id="ILLUSTRATION"><circle class="cls-2" cx="607.4" cy="262.08" r="163.94" transform="matrix(0.07, -1, 1, 0.07, 254.62, 770.4)"/><path class="cls-2" d="M490,329.14A147.18,147.18,0,1,1,342.86,182,147.18,147.18,0,0,1,490,329.14Z" transform="translate(-48.14 -78.88)"/><path class="cls-3" d="M576.78,424.84s35.62,4.57,57-27.75,18.48-41.15,57.54-69.75c32.85-19.13,23.43-65.59,38.58-88.43s10.37-35.13-6.54-31.38-27.67,39.72-50.18,40-38.24,19.8-44,37.6-20.71,54-40.36,61.62S548.27,394.89,576.78,424.84Z" transform="translate(-48.14 -78.88)"/><path class="cls-4" d="M668.5,326.93l-23.83,8,33.59-45,18.82-6.85a1.21,1.21,0,0,0-.84-2.28l-15.34,5.59,31.79-42.56a1.21,1.21,0,0,0-1.94-1.45L678.93,285l1.86-16.53a1.21,1.21,0,1,0-2.4-.27l-2.32,20.64L643.7,332.17l-.65-22.82a1.22,1.22,0,0,0-2.43.07l.75,25.87-28.38,38-1.31-17.41a1.21,1.21,0,0,0-2.42.19l1.52,20.17-33.9,45.39a1.22,1.22,0,0,0,.24,1.7,1.41,1.41,0,0,0,.24.13,1.21,1.21,0,0,0,1.46-.38l33.51-44.86,17.55-1.69a1.21,1.21,0,0,0,1.1-1.32,1.23,1.23,0,0,0-1.33-1.09l-15.36,1.48,27.84-37.28,27.14-9.08a1.21,1.21,0,1,0-.77-2.3Z" transform="translate(-48.14 -78.88)"/><path class="cls-4" d="M691.83,312.27a1.23,1.23,0,0,0-1.47-.89l-16.35,4a1.22,1.22,0,0,0-.89,1.46,1.24,1.24,0,0,0,.69.83,1.22,1.22,0,0,0,.78.06l16.35-4A1.22,1.22,0,0,0,691.83,312.27Z" transform="translate(-48.14 -78.88)"/><path class="cls-5" d="M733.77,343.87c-8.8-15.09-49.53,20.53-65.9,27.85-4.11,1.56-8.18,3.29-12.2,5.14,18.67-18.43,46.72-40.12,35.62-49.52-11.82-10-32.51,40.93-41,52.07-5,2.45-9.93,5-14.8,7.7,8.76-11.69,36.62-62.08,19.74-67.12-11.68-3.5-12.9,48.64-24.93,70-2.47,1.37-4.92,2.75-7.36,4.12l-4.26,2.4-.26.07.21,0c-4.79,2.71-7.51,4.38-12.26,7.2,5.31-6.81,13.38-13.07,20.43-41.65,8.83-35.83-10.35-32.33-13.91,4.87-2.41,25.24-8.15,33.34-10.59,39.22-6.21,3.75-4.12,2.21-10.06,6.33,3.45-8.81,18-45.35,4.23-52.48-11.91-6.14-4.68,20.9-4.92,33.65-.25,12.58,0,15.18-2.33,20.28-1.2.86-12.16,8.53-13.35,9.41-.91.67,0,2.15.91,1.49,3.11-2.29,11.75-7.55,15-9.71,10,2.93,43,37.87,46.15,23.82,2-9-35.32-25.27-43.8-25.38,3-2,6.88-4,10-5.92a430.92,430.92,0,0,1,50.86,20.61c12.68,6.16,16.24-11.5-10.3-18.41-19-4.94-31.56-3.94-37.47-4.1,5.68-3.45,14.4-8.24,20.16-11.5,17.79.83,32.14,8.42,52,18.65,20.21,10.42,20.25-12.67-12.68-18.52-27.06-4.8-27-3.26-34.88-2.6,6.82-3.81,12.2-6.84,19.24-10.48,12.76-1.13,32.4,4.85,45.74,9.48,20.57,7.15,37.41-7.57,3.19-13.17-17.74-2.9-35.25.28-44.29,1.21,3.7-1.72,7.45-3.36,11.24-4.84C687.05,367.26,742.07,358.1,733.77,343.87Z" transform="translate(-48.14 -78.88)"/><path class="cls-6" d="M200.66,251.35c16.43-5.92,24.8,47.54,32.65,63.66,2.15,3.84,4.16,7.77,6.06,11.77-2.49-26.12-10.08-60.75,4.47-60.84,15.51-.1-1.34,52.25-2,66.26,2.26,5.08,4.39,10.23,6.41,15.4.79-14.59,11.77-71.1,27.95-64.14,11.2,4.81-21.33,45.57-25.81,69.66q1.51,4,3,7.89.87,2.28,1.72,4.57l.16.22-.14-.17c1.94,5.15,2.95,8.18,4.79,13.39.29-8.62-1.87-18.61,11.07-45,16.23-33.13,28.68-18.14,7.53,12.67-14.35,20.9-15.15,30.8-17,36.87,2.35,6.86,1.74,4.33,3.65,11.31,3-9,15.27-46.36,30.44-43,13.07,2.94-9.83,19-17.83,29s-9.72,11.65-11.23,17.05c.37,1.43,3.85,14.35,4.2,15.79.26,1.09-1.39,1.65-1.66.55-.91-3.74-4.16-13.33-5.23-17-9.54-4.16-57.27,1.43-50.68-11.37,4.24-8.23,43.3,3.3,49.87,8.66-1-3.49-2.7-7.49-3.85-10.95a429.25,429.25,0,0,0-52.22-16.84c-13.68-3.42-5.07-19.25,19.71-7.51,17.73,8.4,26.73,17.24,31.36,20.91-2.14-6.28-5.74-15.56-8.07-21.75-14.17-10.79-30.05-14.19-51.83-19.07-22.18-5-7.39-22.72,21.62-6.06,23.82,13.68,22.75,14.8,28.41,20.39-2.79-7.29-5-13.07-8-20.38-9.05-9.06-28-17.09-41.15-22.1-20.37-7.72-23.83-29.82,6-12.14,15.47,9.16,26.85,22.84,33.19,29.36-1.74-3.7-3.56-7.36-5.52-10.93C221.47,299.28,185.16,256.93,200.66,251.35Z" transform="translate(-48.14 -78.88)"/><g class="cls-7"><path class="cls-8" d="M186.85,158.75a292.23,292.23,0,0,1,45.39,11.44c2.59,7.81,6.07,15.63,6.07,23.77q0-10.83,0-21.64c1.34.49,2.67,1,4,1.49a286.78,286.78,0,0,1,40,18.85c-.38,3.9-.94,7.12-1.91,7.83,2.24-1.63,4.39-3.37,6.47-5.19a272.24,272.24,0,0,1,39.58,28.61c25.59,22.31,51.39,45.65,54.37,80.67.12,1.4.09,3-.9,4.07-64.25-46.94-138.19-94.75-193.12-148.3C186.78,159.82,186.81,159.28,186.85,158.75Z" transform="translate(-48.14 -78.88)"/><path class="cls-9" d="M379.87,308.65a2.38,2.38,0,0,1-.45.38,5.42,5.42,0,0,1-3.19.59,217.2,217.2,0,0,1-111.36-34.31c3-6.08,5.85-11.87,6.34-13.24-3.65,3.43-7.17,6.91-10.82,10.28a203.63,203.63,0,0,1-34.6-29.6c3.54-5.2,6.73-10.74,7.68-15.72-1.66.51-7.8,5.57-13.29,9.43a184.32,184.32,0,0,1-17.39-24.12,83.38,83.38,0,0,0,12.36-6.19c-1.16,0-9,.27-15.72.39-7.84-14.27-13.47-29.95-12.68-46.19C241.68,213.9,315.62,261.71,379.87,308.65Z" transform="translate(-48.14 -78.88)"/><path class="cls-4" d="M389.37,315l.29-.42-54.31-37.83c-48-33.41-97.55-67.94-140.64-108-3.48-3.23-6.52-6.21-8.5-9.85l-.45.24c2,3.71,5.09,6.72,8.61,10,43.11,40.08,92.71,74.63,140.68,108Z" transform="translate(-48.14 -78.88)"/><path class="cls-4" d="M229.86,254.9a116.85,116.85,0,0,0,33.48-28.56l-.4-.31a116.37,116.37,0,0,1-33.33,28.42Z" transform="translate(-48.14 -78.88)"/><path class="cls-4" d="M246.41,268.93a81,81,0,0,0,34.83-30.51l-.44-.27a80.39,80.39,0,0,1-34.61,30.32Z" transform="translate(-48.14 -78.88)"/><path class="cls-4" d="M253.23,217.78c.58-5-.63-9.9-2-14.93a437.79,437.79,0,0,0-14.65-43.47l-.48.19A434.27,434.27,0,0,1,250.7,203c1.39,5,2.59,9.85,2,14.73Z" transform="translate(-48.14 -78.88)"/><path class="cls-4" d="M260.49,222.94c1.37-21.69-5.08-42.29-13-65.05l-.48.17c7.91,22.71,14.35,43.26,13,64.85Z" transform="translate(-48.14 -78.88)"/><path class="cls-4" d="M212,184.62l0-.51a69.16,69.16,0,0,1-36.48-12.41l-.29.42A69.68,69.68,0,0,0,212,184.62Z" transform="translate(-48.14 -78.88)"/><path class="cls-4" d="M219.93,191.45l0-.51a267.54,267.54,0,0,1-40-7.53l-.13.49A268.65,268.65,0,0,0,219.93,191.45Z" transform="translate(-48.14 -78.88)"/><path class="cls-4" d="M298.53,251.52c6.44-6.18,10.87-14.91,12.82-25.25,1.75-9.3,1.42-18.66,1.1-27.72l-.51,0c.32,9,.65,18.36-1.09,27.6-1.35,7.14-4.64,17.27-12.67,25Z" transform="translate(-48.14 -78.88)"/><path class="cls-4" d="M304.89,255.84c11.86-15.36,17.16-34.59,14.53-52.78l-.51.08c2.61,18-2.65,37.14-14.43,52.39Z" transform="translate(-48.14 -78.88)"/><path class="cls-4" d="M277.08,302c9.89-5.42,17.36-10.53,23.52-16.08,7.67-6.91,13.15-14.44,16.29-22.36l-.47-.19c-3.11,7.85-8.55,15.31-16.16,22.17-6.13,5.52-13.57,10.61-23.42,16Z" transform="translate(-48.14 -78.88)"/><path class="cls-4" d="M330.74,273.66A50.79,50.79,0,0,0,345,247.39c1.82-8.78,1.65-18.54-.51-29l-.49.1c2.14,10.4,2.31,20.1.5,28.81a50.22,50.22,0,0,1-14.07,26Z" transform="translate(-48.14 -78.88)"/></g><path class="cls-10" d="M174.26,508.36V492.52a5.61,5.61,0,0,1,5.59-5.59h37.73" transform="translate(-48.14 -78.88)"/><line class="cls-10" x1="176.42" y1="408.05" x2="193.66" y2="408.05"/><path class="cls-10" d="M542.2,486.93h8.07" transform="translate(-48.14 -78.88)"/><path class="cls-10" d="M512.27,498.11v-5.59a5.61,5.61,0,0,1,5.59-5.59h17.2" transform="translate(-48.14 -78.88)"/><path class="cls-11" d="M417.38,442.46v-8.65h-2.15a15.74,15.74,0,0,0-1.32-3.2l1.52-1.52L409.31,423l-1.52,1.52a15.28,15.28,0,0,0-3.2-1.32V421h-8.65v2.15a15.74,15.74,0,0,0-3.2,1.32L391.22,423l-6.12,6.12,1.52,1.52a15.74,15.74,0,0,0-1.32,3.2h-2.15v8.65h2.15a15.28,15.28,0,0,0,1.32,3.2l-1.52,1.52,6.12,6.12,1.52-1.52a15.19,15.19,0,0,0,3.2,1.32v2.15h8.65V453.1a14.77,14.77,0,0,0,3.2-1.32l1.52,1.52,6.12-6.12-1.52-1.52a15.28,15.28,0,0,0,1.32-3.2Zm-17.11,5.22a9.55,9.55,0,1,1,9.54-9.54A9.55,9.55,0,0,1,400.27,447.68Z" transform="translate(-48.14 -78.88)"/><path class="cls-11" d="M443.63,428.45v-6h-1.49a10.29,10.29,0,0,0-.92-2.22l1.06-1.05L438,414.94,437,416a10.21,10.21,0,0,0-2.21-.92v-1.49h-6v1.49a10.29,10.29,0,0,0-2.22.92l-1.05-1.05-4.24,4.24,1.05,1.05a10.79,10.79,0,0,0-.91,2.22h-1.49v6h1.49a10.71,10.71,0,0,0,.91,2.21l-1.05,1L425.5,436l1.05-1.06a10.82,10.82,0,0,0,2.22.92v1.49h6v-1.49a10.74,10.74,0,0,0,2.21-.92L438,436l4.24-4.25-1.06-1a10.21,10.21,0,0,0,.92-2.21ZM431.77,432a6.58,6.58,0,1,1,6.58-6.58A6.59,6.59,0,0,1,431.77,432Z" transform="translate(-48.14 -78.88)"/><path class="cls-12" d="M158.82,456.84s-16.76-13-4.65-29.81,27.48-25.15,35.39-35.39,17.7-14.91,21.43-14.91,2.33,14,3.26,19.1S206.33,421,199.81,428.9,199.81,462.43,158.82,456.84Z" transform="translate(-48.14 -78.88)"/><path class="cls-12" d="M142.94,437.27c2.71-.65,14.6-18.41,19-31.52s.31-38.21-5-51.16S143,330.13,138.85,330.2s-9.82,26.25-13.4,34.69-9.45,31.88,1.08,49.42S138.76,438.27,142.94,437.27Z" transform="translate(-48.14 -78.88)"/><path class="cls-12" d="M126.69,450.78c3.19-1.73,9.31-18.62-4.19-35.39s-21.89-25.62-27-39.59S69,358.88,65.68,365.56c-7,14,9.78,29.8,9.31,43.77s3.26,33.54,21.89,36.33S121.56,453.58,126.69,450.78Z" transform="translate(-48.14 -78.88)"/><path class="cls-4" d="M199.83,397.51a1.2,1.2,0,0,0-1.59.63,123.93,123.93,0,0,1-8.4,15.57V409a1.21,1.21,0,0,0-2.42,0v7.77a1.11,1.11,0,0,0,.12.44,118.46,118.46,0,0,1-14.2,17.33l-.26.27v-5.47a1.22,1.22,0,0,0-2.43,0v8.07c-11.31,12.81-24,35.59-27.39,41.9,0-17.22-.12-50.5-.46-61.65-.11-3.67-.17-8.45-.2-13.76l5.06-6.24a1.22,1.22,0,0,0-1.89-1.53l-3.18,3.94c0-4.73,0-9.74,0-14.68,0-4.47,0-8.85,0-12.82l4.13-4.68a1.22,1.22,0,0,0-.11-1.71,1.2,1.2,0,0,0-1.7.11L142.54,369c0-5-.09-9-.21-11.37-.45-9.17-.46-12.95-.46-13a1.21,1.21,0,1,0-2.42,0c0,.15,0,3.86.47,13.1.12,2.48.18,6.87.2,12.23l-2.55-2.19a1.21,1.21,0,0,0-1.58,1.84l4.15,3.55c0,3.83,0,8,0,12.28,0,5,0,10,0,14.75l-2.47-2.8a1.2,1.2,0,0,0-1.71-.11,1.22,1.22,0,0,0-.11,1.71l4.31,4.88c0,5.37.09,10.21.2,13.91.32,10.35.42,39.85.45,57.76-3.62-8-13.74-28.83-25.86-40.95-.21-.21-.38-.44-.59-.65,0,0,0,0,0-.05V426.1a1.22,1.22,0,0,0-2.43,0v5.16c-6.17-7.37-10.39-16.39-14.06-24.87a.14.14,0,0,0,0-.06l.63-7.45a1.23,1.23,0,0,0-1.11-1.31,1.21,1.21,0,0,0-1.31,1.11l-.25,3c-2.92-6.81-5.52-12.7-8.77-16.84a1.21,1.21,0,1,0-1.9,1.49c3.26,4.16,5.92,10.4,9,17.63.06.12.11.25.17.38l-4.19-1.14a1.21,1.21,0,0,0-.63,2.34l6,1.64c3.52,8.16,7.58,16.83,13.38,24.21l-5.11-1.48a1.21,1.21,0,1,0-.67,2.32l8.64,2.51c.47.51.91,1,1.4,1.53,14.56,14.56,26.63,43.11,26.75,43.39a1.14,1.14,0,0,0,.83.66c0,5.72,0,9.44,0,9.59a1.21,1.21,0,0,0,2.42,0v-7.22a1.21,1.21,0,0,0,.18.05,1.23,1.23,0,0,0,1.08-.65c.15-.3,14.93-28.14,27.63-42.7l9.66-1.38a1.21,1.21,0,0,0,1-1.37,1.22,1.22,0,0,0-1.37-1l-6.72,1,.29-.31a121.88,121.88,0,0,0,15.45-19.11l7.4-4a1.21,1.21,0,1,0-1.14-2.14L193.13,413a120.23,120.23,0,0,0,7.32-13.89A1.21,1.21,0,0,0,199.83,397.51Z" transform="translate(-48.14 -78.88)"/><path class="cls-13" d="M172,502a6.86,6.86,0,0,1-6.51,5.51H118.93a6.85,6.85,0,0,1-6.51-5.51l-5.62-24.77a4.6,4.6,0,0,1,4.67-5.51H173a4.58,4.58,0,0,1,4.66,5.51Z" transform="translate(-48.14 -78.88)"/><path class="cls-10" d="M107.67,482.92l-1-5.7a5.61,5.61,0,0,1,5.59-5.59h17.2" transform="translate(-48.14 -78.88)"/></g><circle class="cls-14" cx="156.3" cy="185.6" r="17.36"/><polyline class="cls-15" points="148.02 187.55 154.5 192.74 166.18 178.47"/><path class="cls-14" d="M550,102.32l2,2.88a.87.87,0,0,0,.45.33l3.35,1a.82.82,0,0,1,.42,1.28L554,110.57a.76.76,0,0,0-.17.52l.09,3.49a.82.82,0,0,1-1.09.8l-3.29-1.17a.75.75,0,0,0-.55,0l-3.29,1.17a.83.83,0,0,1-1.1-.8l.1-3.49a.76.76,0,0,0-.17-.52l-2.13-2.77a.82.82,0,0,1,.42-1.28l3.35-1a.81.81,0,0,0,.44-.33l2-2.88A.82.82,0,0,1,550,102.32Z" transform="translate(-48.14 -78.88)"/><path class="cls-14" d="M574.59,102.32l2,2.88a.87.87,0,0,0,.45.33l3.35,1a.82.82,0,0,1,.42,1.28l-2.13,2.77a.76.76,0,0,0-.17.52l.09,3.49a.82.82,0,0,1-1.09.8l-3.29-1.17a.75.75,0,0,0-.55,0l-3.29,1.17a.83.83,0,0,1-1.1-.8l.1-3.49a.87.87,0,0,0-.17-.52l-2.13-2.77a.81.81,0,0,1,.42-1.28l3.35-1a.81.81,0,0,0,.44-.33l2-2.88A.82.82,0,0,1,574.59,102.32Z" transform="translate(-48.14 -78.88)"/><path class="cls-14" d="M600.09,102.32l2,2.88a.85.85,0,0,0,.44.33l3.36,1a.81.81,0,0,1,.41,1.28l-2.13,2.77a.87.87,0,0,0-.17.52l.1,3.49a.82.82,0,0,1-1.09.8l-3.3-1.17a.72.72,0,0,0-.54,0l-3.3,1.17a.82.82,0,0,1-1.09-.8l.1-3.49a.87.87,0,0,0-.17-.52l-2.13-2.77a.81.81,0,0,1,.41-1.28l3.36-1a.85.85,0,0,0,.44-.33l2-2.88A.83.83,0,0,1,600.09,102.32Z" transform="translate(-48.14 -78.88)"/><path class="cls-14" d="M625.58,102.32l2,2.88a.81.81,0,0,0,.44.33l3.35,1a.81.81,0,0,1,.42,1.28l-2.13,2.77a.87.87,0,0,0-.17.52l.1,3.49a.83.83,0,0,1-1.1.8l-3.29-1.17a.75.75,0,0,0-.55,0l-3.29,1.17a.82.82,0,0,1-1.09-.8l.09-3.49a.76.76,0,0,0-.17-.52L618,107.8a.82.82,0,0,1,.42-1.28l3.35-1a.87.87,0,0,0,.45-.33l2-2.88A.82.82,0,0,1,625.58,102.32Z" transform="translate(-48.14 -78.88)"/><path class="cls-14" d="M650.2,102.32l2,2.88a.81.81,0,0,0,.44.33l3.35,1a.82.82,0,0,1,.42,1.28l-2.13,2.77a.76.76,0,0,0-.17.52l.1,3.49a.83.83,0,0,1-1.1.8l-3.29-1.17a.75.75,0,0,0-.55,0L646,115.38a.82.82,0,0,1-1.09-.8l.09-3.49a.76.76,0,0,0-.17-.52l-2.13-2.77a.82.82,0,0,1,.42-1.28l3.35-1a.87.87,0,0,0,.45-.33l2-2.88A.82.82,0,0,1,650.2,102.32Z" transform="translate(-48.14 -78.88)"/><path class="cls-16" d="M508.08,116.81H468.55a2.13,2.13,0,0,1-2.13-2.14h0a2.13,2.13,0,0,1,2.13-2.14h39.53a2.13,2.13,0,0,1,2.13,2.14h0A2.13,2.13,0,0,1,508.08,116.81Z" transform="translate(-48.14 -78.88)"/><path class="cls-16" d="M508.08,125.89H468.55a2.13,2.13,0,0,1-2.13-2.14h0a2.13,2.13,0,0,1,2.13-2.14h39.53a2.13,2.13,0,0,1,2.13,2.14h0A2.13,2.13,0,0,1,508.08,125.89Z" transform="translate(-48.14 -78.88)"/><path class="cls-16" d="M508.08,135H468.55a2.13,2.13,0,0,1-2.13-2.14h0a2.13,2.13,0,0,1,2.13-2.14h39.53a2.13,2.13,0,0,1,2.13,2.14h0A2.13,2.13,0,0,1,508.08,135Z" transform="translate(-48.14 -78.88)"/><path class="cls-17" d="M281.61,121.71H242.09a2.14,2.14,0,0,1-2.14-2.14h0a2.13,2.13,0,0,1,2.14-2.13h39.52a2.13,2.13,0,0,1,2.14,2.13h0A2.14,2.14,0,0,1,281.61,121.71Z" transform="translate(-48.14 -78.88)"/><path class="cls-17" d="M281.61,130.79H242.09a2.14,2.14,0,0,1-2.14-2.14h0a2.13,2.13,0,0,1,2.14-2.13h39.52a2.13,2.13,0,0,1,2.14,2.13h0A2.14,2.14,0,0,1,281.61,130.79Z" transform="translate(-48.14 -78.88)"/><path class="cls-17" d="M269.86,139.87H242.09a2.14,2.14,0,0,1-2.14-2.14h0a2.13,2.13,0,0,1,2.14-2.13h27.77a2.13,2.13,0,0,1,2.14,2.13h0A2.14,2.14,0,0,1,269.86,139.87Z" transform="translate(-48.14 -78.88)"/><rect class="cls-18" x="263.92" y="69.97" width="81.18" height="52.34"/><polygon class="cls-16" points="263.92 69.97 304.51 96.14 345.1 69.97 263.92 69.97"/><path class="cls-14" d="M400.72,151.26a9.88,9.88,0,1,1-9.88-9.88A9.88,9.88,0,0,1,400.72,151.26Z" transform="translate(-48.14 -78.88)"/><text class="cls-19" transform="translate(338.67 76.79)">2</text><rect class="cls-17" x="313.59" width="64.63" height="46.47" rx="2.71"/><path class="cls-17" d="M406.6,124.28v7.36a1.38,1.38,0,0,0,2.35,1l8.33-8.34Z" transform="translate(-48.14 -78.88)"/><circle class="cls-16" cx="332.31" cy="22.97" r="3.72"/><circle class="cls-16" cx="345.72" cy="22.97" r="3.72"/><circle class="cls-16" cx="359.5" cy="22.97" r="3.72"/><rect class="cls-14" x="415.68" y="136.03" width="64.63" height="46.47" rx="2.71" transform="translate(847.84 239.65) rotate(180)"/><path class="cls-14" d="M435.44,181.43v7.36a1.38,1.38,0,0,1-2.35,1l-8.33-8.34Z" transform="translate(-48.14 -78.88)"/><circle class="cls-20" cx="413.44" cy="80.12" r="3.72"/><circle class="cls-20" cx="400.04" cy="80.12" r="3.72"/><circle class="cls-20" cx="386.25" cy="80.12" r="3.72"/><path class="cls-17" d="M609.41,425.57V223.74a9.51,9.51,0,0,0-9.5-9.5H272.16a9.52,9.52,0,0,0-9.5,9.5V425.57Z" transform="translate(-48.14 -78.88)"/><path class="cls-16" d="M263.45,426v29.18a10.14,10.14,0,0,0,10.11,10.17H598.91A10.13,10.13,0,0,0,609,455.14V426Z" transform="translate(-48.14 -78.88)"/><circle class="cls-20" cx="387.9" cy="364.23" r="9.06"/><path class="cls-17" d="M496,508.3s-2.52-1.25-5.42-2.34c-3.09-1.16-6.81-2.62-9-3.67-3.83-1.83-4.16-3-5.6-9.33-1.56-6.85-3-21.33-3.62-27.65H399.74c-.6,6.32-2.06,20.8-3.63,27.65-1.44,6.29-1.76,7.5-5.6,9.33-2.16,1-5.83,2.48-8.9,3.64h0c-2.94,1.11-5.35,2-5.35,2s-2.33,1.3,1.42,1.49H494.41C497.93,509.44,496,508.3,496,508.3Z" transform="translate(-48.14 -78.88)"/><path class="cls-21" d="M474.59,482.52c-.33-3-2.07-15.28-2.25-17.21H399.73c-.18,1.93,0,2.88-.33,5.88Z" transform="translate(-48.14 -78.88)"/><rect class="cls-20" x="230.63" y="151.64" width="314.52" height="177.11"/><rect class="cls-16" x="230.63" y="151.64" width="314.52" height="17.57"/><rect class="cls-20" x="473.11" y="172.97" width="66.12" height="86.02"/><rect class="cls-16" x="231.45" y="173.07" width="238.67" height="155.15"/><rect class="cls-16" x="273.28" y="156.21" width="146.29" height="8.44"/><rect class="cls-20" x="258.45" y="156.21" width="9.02" height="8.44"/><path class="cls-20" d="M553.32,242.89v-.49a3,3,0,0,0-3-3h-3a3,3,0,0,0-3,3v.49Z" transform="translate(-48.14 -78.88)"/><path class="cls-20" d="M550.84,236a2,2,0,1,1-2-2A2,2,0,0,1,550.84,236Z" transform="translate(-48.14 -78.88)"/><path class="cls-14" d="M555.61,242.67A2.64,2.64,0,1,1,553,240,2.64,2.64,0,0,1,555.61,242.67Z" transform="translate(-48.14 -78.88)"/><path class="cls-20" d="M570.65,234.5h-8.07a.76.76,0,0,0-.75.76v6.3a.76.76,0,0,0,.75.75h.51v1.77l1.76-1.77h5.8a.76.76,0,0,0,.75-.75v-6.3A.76.76,0,0,0,570.65,234.5Z" transform="translate(-48.14 -78.88)"/><path class="cls-14" d="M573.89,242.67a2.64,2.64,0,1,1-2.64-2.64A2.64,2.64,0,0,1,573.89,242.67Z" transform="translate(-48.14 -78.88)"/><rect class="cls-20" x="473.11" y="262.48" width="66.12" height="61.8"/><rect class="cls-16" x="473.11" y="296.97" width="66.12" height="27.57"/><rect class="cls-16" x="494.94" y="189.15" width="15.8" height="3.66"/><rect class="cls-16" x="477.56" y="177.31" width="15.8" height="3.66"/><rect class="cls-16" x="477.56" y="250.23" width="15.8" height="3.66"/><rect class="cls-16" x="509.95" y="177.31" width="5.39" height="3.66"/><rect class="cls-16" x="518.24" y="177.31" width="5.39" height="3.66"/><rect class="cls-16" x="477.56" y="266.82" width="15.8" height="3.66"/><rect class="cls-16" x="509.95" y="266.82" width="5.39" height="3.66"/><rect class="cls-16" x="518.24" y="266.82" width="5.39" height="3.66"/><rect class="cls-16" x="494.94" y="196" width="27.91" height="3.66"/><path class="cls-16" d="M538.74,273a6.46,6.46,0,1,1-6.46-6.45A6.46,6.46,0,0,1,538.74,273Z" transform="translate(-48.14 -78.88)"/><rect class="cls-16" x="494.94" y="210.21" width="15.8" height="3.66"/><rect class="cls-16" x="494.94" y="217.06" width="27.91" height="3.66"/><path class="cls-16" d="M538.74,294.08a6.46,6.46,0,1,1-6.46-6.45A6.45,6.45,0,0,1,538.74,294.08Z" transform="translate(-48.14 -78.88)"/><rect class="cls-16" x="494.94" y="231.27" width="15.8" height="3.66"/><rect class="cls-16" x="494.94" y="238.12" width="27.91" height="3.66"/><rect class="cls-16" x="494.94" y="280.24" width="15.8" height="3.66"/><rect class="cls-16" x="494.94" y="287.09" width="27.91" height="3.66"/><path class="cls-16" d="M538.74,315.15a6.46,6.46,0,1,1-6.46-6.45A6.46,6.46,0,0,1,538.74,315.15Z" transform="translate(-48.14 -78.88)"/><rect class="cls-16" x="477.83" y="278.11" width="12.64" height="12.64"/><rect class="cls-20" x="365.28" y="248.88" width="213.57" height="66.37"/><rect class="cls-16" x="456.93" y="260.4" width="73.89" height="5"/><rect class="cls-16" x="456.93" y="271.11" width="84.29" height="3.74"/><rect class="cls-16" x="456.58" y="279.86" width="73.58" height="3.77"/><rect class="cls-16" x="456.58" y="288.32" width="81.93" height="3.75"/><rect class="cls-16" x="456.58" y="297.44" width="18.31" height="3.74"/><rect class="cls-16" x="375.64" y="260.66" width="74.36" height="43.96"/><line class="cls-22" x1="375.64" y1="260.66" x2="450" y2="304.62"/><line class="cls-22" x1="450" y1="260.66" x2="375.64" y2="304.62"/><rect class="cls-20" x="238.82" y="178.93" width="118.57" height="136.2"/><rect class="cls-23" x="245.22" y="186.29" width="105.75" height="54.06"/><rect class="cls-23" x="245.22" y="246.76" width="105.75" height="60.89"/><polygon class="cls-16" points="350.98 307.65 286.99 307.42 317.86 277.74 350.98 307.65"/><polygon class="cls-16" points="340.3 307.65 245.33 307.31 291.15 263.26 340.3 307.65"/><path class="cls-16" d="M391.11,336.59a5.08,5.08,0,1,1-5.08-5.07A5.07,5.07,0,0,1,391.11,336.59Z" transform="translate(-48.14 -78.88)"/><rect class="cls-20" x="364.87" y="178.93" width="98.28" height="61.42"/><rect class="cls-16" x="373.6" y="190.96" width="73.89" height="5"/><rect class="cls-16" x="373.6" y="201.68" width="84.29" height="3.74"/><rect class="cls-16" x="373.26" y="210.43" width="73.58" height="3.77"/><rect class="cls-16" x="373.26" y="218.89" width="81.93" height="3.75"/><rect class="cls-16" x="373.26" y="228.01" width="18.31" height="3.74"/><circle class="cls-14" cx="680.74" cy="372.71" r="42.46"/><path class="cls-20" d="M750.51,441.71h0a11.31,11.31,0,0,0-5.41-8l-.09-.05a11.28,11.28,0,0,0-13.19,1.25l-2.94,2.6-2.94-2.6a11.28,11.28,0,0,0-13.19-1.25l-.08.05a11.28,11.28,0,0,0-5.41,8h0a11.28,11.28,0,0,0,2.9,9.36l18.72,20.06,18.72-20.06A11.25,11.25,0,0,0,750.51,441.71Z" transform="translate(-48.14 -78.88)"/><circle class="cls-24" cx="84.96" cy="188.11" r="36.42" transform="translate(-165.91 148.02) rotate(-76.53)"/><circle class="cls-25" cx="84.96" cy="188.11" r="31.67" transform="translate(-116.99 -28.42) rotate(-23.87)"/><path class="cls-20" d="M87.84,188.11A2.88,2.88,0,1,1,85,185.23,2.89,2.89,0,0,1,87.84,188.11Z" transform="translate(-48.14 -78.88)"/><path class="cls-20" d="M84.64,187.55h0a.9.9,0,0,1-1.22-.35L74.1,170.4a.91.91,0,0,1,.36-1.23h0a.9.9,0,0,1,1.22.35L85,186.32A.89.89,0,0,1,84.64,187.55Z" transform="translate(-48.14 -78.88)"/><path class="cls-20" d="M85.42,188.57h0a.9.9,0,0,1,1.27,0l8.06,8.06a.9.9,0,0,1,0,1.27h0a.91.91,0,0,1-1.28,0l-8-8.05A.89.89,0,0,1,85.42,188.57Z" transform="translate(-48.14 -78.88)"/><line class="cls-26" x1="37.01" y1="83.88" x2="37.01" y2="80.24"/><line class="cls-26" x1="62.16" y1="109.42" x2="65.8" y2="109.42"/><line class="cls-26" x1="36.62" y1="134.57" x2="36.62" y2="138.22"/><line class="cls-26" x1="11.47" y1="109.03" x2="7.83" y2="109.03"/><g class="cls-27"><line class="cls-28" x1="24.31" y1="87.18" x2="22.49" y2="84.03"/><line class="cls-28" x1="58.86" y1="96.72" x2="62.02" y2="94.9"/><line class="cls-28" x1="49.32" y1="131.28" x2="51.14" y2="134.43"/><line class="cls-28" x1="14.77" y1="121.73" x2="11.62" y2="123.55"/></g><g class="cls-27"><line class="cls-28" x1="14.96" y1="96.39" x2="11.81" y2="94.57"/><line class="cls-28" x1="49.66" y1="87.38" x2="51.48" y2="84.22"/><line class="cls-28" x1="58.67" y1="122.07" x2="61.82" y2="123.89"/><line class="cls-28" x1="23.98" y1="131.08" x2="22.16" y2="134.24"/></g></svg>