<?xml version="1.0" encoding="utf-8"?>
<!-- Generator: Adobe Illustrator 25.0.0, SVG Export Plug-In . SVG Version: 6.00 Build 0)  -->
<svg version="1.1" id="Layer_1" xmlns="http://www.w3.org/2000/svg" xmlns:xlink="http://www.w3.org/1999/xlink" x="0px" y="0px"
	 viewBox="0 0 60 60" style="enable-background:new 0 0 60 60;" xml:space="preserve">
<style type="text/css">
	.st0{fill:#D8E3F0;}
	.st1{fill:#FCFEFF;}
	.st2{fill:#3D3D63;}
	.st3{fill:#FFB75E;}
	.st4{fill:#FFDEAD;}
</style>
<ellipse class="st0" cx="30" cy="29.5" rx="28.8" ry="28.5"/>
<path class="st1" d="M30,0.9v29L2,30C2,30,2.9,0,30,0.9z"/>
<path class="st2" d="M30,0C13.5,0,0,13.5,0,30s13.5,30,30,30s30-13.5,30-30S46.5,0,30,0z M30,58C14.6,58,2,45.4,2,30S14.6,2,30,2
	s28,12.6,28,28S45.4,58,30,58z"/>
<circle class="st0" cx="30.1" cy="29.9" r="2.5"/>
<path class="st3" d="M31,26V15.9c0-0.6-0.4-1-1-1s-1,0.4-1,1V26c-1.4,0.4-2.5,1.5-2.9,2.9H19c-0.6,0-1,0.4-1,1s0.4,1,1,1h7.1
	c0.4,1.7,2,3,3.9,3c2.2,0,4-1.8,4-4C34,28,32.7,26.5,31,26z M30,31.9c-1.1,0-2-0.9-2-2s0.9-2,2-2s2,0.9,2,2S31.1,31.9,30,31.9z"/>
<path class="st4" d="M30,9.9c0.6,0,1-0.4,1-1v-1c0-0.6-0.4-1-1-1s-1,0.4-1,1v1C29,9.4,29.4,9.9,30,9.9z"/>
<path class="st2" d="M30,49.9c-0.6,0-1,0.4-1,1v1c0,0.6,0.4,1,1,1s1-0.4,1-1v-1C31,50.3,30.6,49.9,30,49.9z"/>
<path class="st2" d="M52,28.9h-1c-0.6,0-1,0.4-1,1s0.4,1,1,1h1c0.6,0,1-0.4,1-1S52.6,28.9,52,28.9z"/>
<path class="st4" d="M9,28.9H8c-0.6,0-1,0.4-1,1s0.4,1,1,1h1c0.6,0,1-0.4,1-1S9.6,28.9,9,28.9z"/>
<path class="st2" d="M44.8,13.6l-0.7,0.7c-0.4,0.4-0.4,1,0,1.4c0.2,0.2,0.5,0.3,0.7,0.3s0.5-0.1,0.7-0.3l0.7-0.7
	c0.4-0.4,0.4-1,0-1.4S45.2,13.2,44.8,13.6z"/>
<path class="st2" d="M14.4,44l-0.7,0.7c-0.4,0.4-0.4,1,0,1.4c0.2,0.2,0.5,0.3,0.7,0.3s0.5-0.1,0.7-0.3l0.7-0.7c0.4-0.4,0.4-1,0-1.4
	S14.8,43.6,14.4,44z"/>
<path class="st2" d="M45.6,44c-0.4-0.4-1-0.4-1.4,0s-0.4,1,0,1.4l0.7,0.7c0.2,0.2,0.5,0.3,0.7,0.3s0.5-0.1,0.7-0.3
	c0.4-0.4,0.4-1,0-1.4L45.6,44z"/>
<path class="st4" d="M15.2,13.6c-0.4-0.4-1-0.4-1.4,0s-0.4,1,0,1.4l0.7,0.7c0.2,0.2,0.5,0.3,0.7,0.3s0.5-0.1,0.7-0.3
	c0.4-0.4,0.4-1,0-1.4L15.2,13.6z"/>
<path class="st0" d="M30,0.9"/>
</svg>
