<?xml version="1.0" encoding="utf-8"?>
<!-- Generator: Adobe Illustrator 25.0.0, SVG Export Plug-In . SVG Version: 6.00 Build 0)  -->
<svg version="1.1" id="Layer_1" xmlns="http://www.w3.org/2000/svg" xmlns:xlink="http://www.w3.org/1999/xlink" x="0px" y="0px"
	 viewBox="0 0 63.6 63.6" style="enable-background:new 0 0 63.6 63.6;" xml:space="preserve">
<style type="text/css">
	.st0{fill:#D8E3F0;}
	.st1{fill:#3D3D63;}
	.st2{fill:#FFC670;}
</style>
<ellipse class="st0" cx="31.1" cy="31" rx="18.6" ry="19"/>
<path class="st1" d="M31.3,51.3c-11.1,0-20-9-20-20s9-20,20-20c11.1,0,20,9,20,20c0,0,0,0,0,0C51.3,42.3,42.3,51.3,31.3,51.3z
	 M31.3,13.6c-9.7,0-17.6,7.9-17.6,17.6s7.9,17.6,17.6,17.6S48.9,41,48.9,31.3l0,0C48.9,21.5,41,13.6,31.3,13.6z"/>
<circle class="st2" cx="31.3" cy="31.3" r="1.9"/>
<path class="st1" d="M31,14.9h0.7c0.5,0,1,0.4,1,1V18c0,0.5-0.4,1-1,1H31c-0.5,0-1-0.4-1-1v-2.1C30,15.4,30.4,14.9,31,14.9z"/>
<path class="st2" d="M29.4,33.7c-0.1,0-0.2,0-0.2,0c-0.2-0.1-0.5-0.2-0.6-0.4l-0.4-0.6c-0.3-0.5-0.1-1,0.3-1.3c0,0,0,0,0,0l8.8-5.1
	c0.5-0.3,1-0.1,1.3,0.3c0,0,0,0,0,0l0.4,0.6c0.3,0.5,0.1,1-0.3,1.3c0,0,0,0,0,0l-8.8,5.1C29.7,33.7,29.5,33.7,29.4,33.7z"/>
<path class="st1" d="M44.6,29.9h2.1c0.5,0,1,0.4,1,1v0.7c0,0.5-0.4,1-1,1h-2.1c-0.5,0-1-0.4-1-1v-0.7C43.6,30.4,44,29.9,44.6,29.9z"
	/>
<path class="st1" d="M30.9,43.7h0.7c0.5,0,1,0.4,1,1v2.1c0,0.5-0.4,1-1,1h-0.7c-0.5,0-1-0.4-1-1v-2.1C30,44.1,30.4,43.7,30.9,43.7z"
	/>
<path class="st1" d="M15.9,30H18c0.5,0,1,0.4,1,1v0.7c0,0.5-0.4,1-1,1h-2.1c-0.5,0-1-0.4-1-1V31C14.9,30.4,15.4,30,15.9,30z"/>
<path class="st2" d="M32.5,34.7c-0.1,0-0.2,0-0.2,0c-0.2-0.1-0.5-0.2-0.6-0.4l-6-10.5c-0.3-0.5-0.1-1,0.3-1.3c0,0,0,0,0,0l0.6-0.4
	c0.5-0.3,1-0.1,1.3,0.3c0,0,0,0,0,0l6,10.5c0.3,0.5,0.1,1-0.3,1.3c0,0,0,0,0,0L33,34.6C32.9,34.7,32.7,34.7,32.5,34.7z"/>
</svg>
