<svg enable-background="new 0 0 38 38" height="38" viewBox="0 0 38 38" width="38" xmlns="http://www.w3.org/2000/svg"><path d="m23.506 35.821-.866-.501c-.219-.126-.61-.22-1.023-.32-.772-.187-1.842-.444-2.618-1.213-.776.77-1.846 1.027-2.619 1.214-.413.1-.803.193-1.022.32l-.866.5-.5-.866c-.126-.219-.417-.496-.725-.788-.577-.548-1.375-1.307-1.662-2.361-1.057.276-2.112-.033-2.874-.259-.408-.12-.792-.233-1.045-.233h-1v-1c0-.253-.114-.638-.234-1.046-.226-.762-.537-1.817-.259-2.875-1.054-.287-1.812-1.084-2.359-1.659-.293-.309-.57-.599-.789-.726l-.867-.5.5-.866c.128-.22.222-.611.322-1.024.186-.772.444-1.843 1.213-2.618-.769-.776-1.027-1.846-1.213-2.618-.1-.413-.194-.803-.321-1.022l-.5-.866.866-.5c.219-.126.496-.417.789-.726.547-.576 1.306-1.374 2.36-1.661-.278-1.057.034-2.113.258-2.875.12-.407.234-.792.234-1.045v-1h1c.253 0 .638-.114 1.046-.234.762-.226 1.818-.538 2.875-.259.287-1.054 1.084-1.813 1.661-2.36.308-.293.599-.569.726-.789l.5-.866.866.5c.219.127.61.221 1.023.321.771.186 1.841.444 2.617 1.213.776-.77 1.846-1.027 2.618-1.213.414-.1.804-.194 1.023-.321l.866-.5.5.866c.127.219.417.496.726.789.575.548 1.373 1.306 1.66 2.36 1.057-.279 2.112.033 2.875.258.407.12.793.234 1.046.234h1v1c0 .253.113.638.233 1.045.225.762.536 1.818.258 2.874 1.055.288 1.813 1.085 2.36 1.662.292.308.569.599.788.726l.866.5-.5.866c-.127.219-.221.609-.32 1.022-.186.773-.443 1.842-1.214 2.619.771.775 1.027 1.846 1.214 2.619.1.413.193.804.32 1.022l.5.866-.866.5c-.219.126-.495.417-.788.725-.548.576-1.306 1.373-2.359 1.66.278 1.057-.034 2.113-.259 2.875-.121.408-.234.793-.234 1.046v1h-1c-.253 0-.638.113-1.045.233-.762.226-1.817.537-2.875.259-.287 1.055-1.086 1.813-1.662 2.361-.308.293-.599.569-.725.788zm-4.506-25.821c-4.962 0-9 4.038-9 9 0 4.964 4.038 9 9 9 4.964 0 9-4.036 9-9 0-4.962-4.036-9-9-9z" fill="#80e87e"/><path d="m7 19c0-6.627 5.373-12 12-12s12 5.373 12 12-5.373 12-12 12-12-5.373-12-12zm1.608-6c-2.771-1.6-.922-3.833-.922-5.313 1.481 0 3.714-1.85 5.313.921m16.394 16.392c2.771 1.6.921 3.833.921 5.313-1.48 0-3.713 1.85-5.313-.922m0-20.784c1.6-2.771 3.832-.921 5.313-.921 0 1.481 1.849 3.713-.923 5.314m-16.391 16.392c-1.601 2.771-3.833.922-5.313.922 0-1.48-1.851-3.714.921-5.313m-1.607-6.001c-3.201 0-2.715-2.858-3.456-4.141 1.283-.74 2.291-3.459 5.062-1.859m22.393 6c3.2 0 2.714 2.859 3.454 4.142-1.282.74-2.29 3.458-5.063 1.857m-10.391-17.999c0-3.2 2.858-2.714 4.141-3.455.741 1.283 3.459 2.292 1.859 5.063m-6 22.391c0 3.201-2.858 2.716-4.141 3.456-.74-1.282-3.459-2.291-1.859-5.063m-4.392-4.393c-2.772 1.601-3.78-1.117-5.063-1.857.741-1.284.255-4.142 3.454-4.142m22.394-6c2.771-1.6 3.779 1.12 5.062 1.86-.74 1.282-.254 4.14-3.455 4.14m-18-10.394c-1.6-2.771 1.118-3.779 1.859-5.062 1.283.741 4.141.256 4.141 3.456m5.999 22.392c1.601 2.772-1.117 3.781-1.858 5.063-1.282-.741-4.141-.255-4.141-3.455m0-24 10.393 18m-20.782-.001 20.782.001m-20.782-.001 10.389-17.999m-6.926 12-3.467-6m10.393 18-3.464-6.001m0-11.998-6.929-.001m20.782.001h-6.924m-.002 11.999-3.463 6m10.389-17.999-3.463 5.999" fill="none" opacity=".8" stroke="#231f20" stroke-miterlimit="10" stroke-width="2"/></svg>