<svg enable-background="new 0 0 38 38" height="38" viewBox="0 0 38 38" width="38" xmlns="http://www.w3.org/2000/svg"><path d="m20.001 22.388c.999-.638 1.999-1.242 1.999-1.242v-1.146h-10v3c0 .341.01.673.023 1h5.977s1.003-.975 2.001-1.612z" fill="#f49314"/><path d="m17 24c0 4.063 2 13 2 13h-5m3-34.987s-6 3.343-6 7.987c0 3.125 2 5 2 5s0 2 0 8c0 4.415 1.232 7.5 3.5 14m1.188-7.91c4.88 0 7.312-.965 7.312-2.527 0-2.965-4-4.813-4-4.813 0-6 0-6.75 0-6.75s2-2 2-5c0-4.645-6-7.987-6-7.987v-2.013m0 7c-1.104 0-2 1.343-2 3s.896 3 2 3 2-1.343 2-3-.896-3-2-3z" fill="none" opacity=".8" stroke="#231f20" stroke-miterlimit="10" stroke-width="2"/></svg>