<svg enable-background="new 0 0 38 38" height="38" viewBox="0 0 38 38" width="38" xmlns="http://www.w3.org/2000/svg"><path d="m18.599 16.957-4.971-8.566c-3.156 1.789-5.628 4.459-5.628 7.609 0 .303.008.608.023.923l7.977 2.389c.337-.461 1.229-1.55 2.599-2.355z" fill="#f49314"/><path d="m34 31h-3v-19.465m0 15.339s.711.126 1 .126c2.762 0 5-2.238 5-5 0-1.125-.48-2.091-.998-2.997-4.002-7.003-7.585-12.003-14.002-12.003-5.393 0-13 4-13 9 0 2.126.374 4.313 1.319 10.56l-7.319.44-1.526 4h10.712c1.656 0 2.814-1 2.814-3s0-9 0-9 2.5-4 7-4c2.083 0 5 3 5 3l-2.664 2.79 2.664 3.398" fill="none" opacity=".8" stroke="#231f20" stroke-miterlimit="10" stroke-width="2"/></svg>