<svg enable-background="new 0 0 38 38" height="38" viewBox="0 0 38 38" width="38" xmlns="http://www.w3.org/2000/svg"><path d="m19.375 17.556c.132-.189.544-.798 1.273-1.704-.707-3.875 1.358-5.582 3.199-6.337-1.682-.934-3.334-1.515-4.847-1.515-2.058 0-4.1.847-5.857 2.227.437 3.595 3.253 6.449 6.232 7.329z" fill="#f49314"/><path d="m18 23h6s3 1.343 3 3-1.344 3-3 3-24 0-24 0m37-2c-9-8.5-18-10.583-18-10.583s-2 2.083-2 5.583c0 4 2 7 2 7m18 1v-6.667c-2.926-3.717-12-14.333-18-14.333-4.75 0-10 5.357-10 11.395 0 1.744.171 3.06.653 4.605h4.347" fill="none" opacity=".8" stroke="#231f20" stroke-miterlimit="10" stroke-width="2"/></svg>