<svg enable-background="new 0 0 38 38" height="38" viewBox="0 0 38 38" width="38" xmlns="http://www.w3.org/2000/svg"><path d="m19.051 32.561 12.719-14.215c.149 1.123.23 2.334.23 3.654v14.732l-10.898-3.446c-.73-.23-1.411-.471-2.051-.725zm-5.051-12.561v-.734c.003-7.352.003-8.677-2.71-11.39l-1.496-1.496c.239 1.358.316 2.957.129 4.852-.163 1.657-.596 3.155-1.015 4.604-.467 1.615-.908 3.141-.908 4.709 0 5.012 4.354 6.175 7.184 6.403-.791-1.582-1.184-3.76-1.184-6.948z" fill="#f4abef"/><path d="m21.403 32.333c-5.582-1.766-8.403-3.833-8.403-12.333 0-7.875.083-8.917-2.417-11.417l-1.583-1.583c1.706 1.706 3.5 2 10.167 2 7.285 0 11.833 2.866 11.833 13v13.367s-8.266-2.613-9.597-3.034zm-13.728-26.658-2.675-2.675c1.25 1.25 2.355 3.702 1.938 7.938-.314 3.177-1.938 6.079-1.938 9.607 0 5.661 4.227 9.455 11.422 9.455m14.553-9.266-10.201 11.4m5.129 1.622 5.097-5.697" fill="none" opacity=".8" stroke="#231f20" stroke-miterlimit="10" stroke-width="2"/></svg>