<svg enable-background="new 0 0 38 38" height="38" viewBox="0 0 38 38" width="38" xmlns="http://www.w3.org/2000/svg"><circle cx="19" cy="13" fill="#f4abef" r="9"/><path d="m24.5 26.646c2-.287 2.5.895 2.5 1.729 0 .786-.536 1.555-1.359 1.829-2.043.681-4.859.796-6.641.796-2.969 0-7.792-1.083-11.375-4.666-4-4-5.48-6.916-6.625-7.334v-6h5s6 2 6 2 3.896 0 5 0 2 .896 2 2-.896 2-2 2-2.583 0-4 0-2 .75-2 2c0 3.875 4.167 6 9 6 2.5 0 6.781-.125 11-3 4.675-3.186 5.031-4.648 6-5v-6s-2 0-5 0-6 2-6 2-3.896 0-5 0-2 .896-2 2 .896 2 2 2 2.584 0 4 0c.875 0 2 .084 2 1.334 0 1.708-3.042 2.666-7 2.666-2.554 0-4.672-.948-6.134-1.877-1.401-.889-2.849.284-2.849.284" fill="none" opacity=".8" stroke="#231f20" stroke-miterlimit="10" stroke-width="2"/></svg>