<svg enable-background="new 0 0 38 38" height="38" viewBox="0 0 38 38" width="38" xmlns="http://www.w3.org/2000/svg"><path d="m19 37.977-.707-.707c-.896-.896-2.016-1.405-3.201-1.944-2.387-1.087-5.092-2.317-5.092-6.968v-.358h-.358c-4.65 0-5.881-2.705-6.967-5.092-.539-1.186-1.048-2.305-1.944-3.201l-.708-.707.707-.707c.896-.896 1.405-2.016 1.944-3.201 1.087-2.387 2.317-5.092 6.968-5.092h.358v-.358c0-4.65 2.705-5.881 5.092-6.967 1.185-.539 2.304-1.048 3.201-1.944l.707-.708.707.707c.896.896 2.016 1.405 3.201 1.944 2.387 1.087 5.092 2.317 5.092 6.968v.358h.358c4.65 0 5.881 2.705 6.967 5.092.539 1.185 1.048 2.304 1.944 3.201l.708.707-.707.707c-.896.896-1.405 2.016-1.944 3.201-1.087 2.387-2.317 5.092-6.968 5.092h-.358v.358c0 4.65-2.705 5.881-5.092 6.967-1.186.539-2.305 1.048-3.201 1.944zm0-26.977c-4.419 0-8 3.581-8 8s3.581 8 8 8 8-3.581 8-8-3.581-8-8-8z" fill="#ef6c6c"/><path d="m30.314 19c0 6.25-5.064 11.314-11.314 11.314s-11.315-5.064-11.315-11.314 5.065-11.315 11.315-11.315 11.314 5.065 11.314 11.315zm-11.314 8 7-12h-14zm-8 1.358c0 6.084 5 5.204 8 8.204 3-3 8-2.12 8-8.204 0-1.001 0-17.716 0-18.717 0-6.084-5-5.204-8-8.204-3 3-8 2.12-8 8.204zm-1.358-17.358c-6.084 0-5.204 5-8.204 8 3 3 2.12 8 8.204 8h18.717c6.084 0 5.204-5 8.204-8-3-3-2.12-8-8.204-8-1.004 0-17.714 0-18.717 0z" fill="none" opacity=".8" stroke="#231f20" stroke-miterlimit="10" stroke-width="2"/></svg>