<svg enable-background="new 0 0 38 38" height="38" viewBox="0 0 38 38" width="38" xmlns="http://www.w3.org/2000/svg"><path d="m36 19c0-2.554-1.598-4.729-3.846-5.595.693-2.086.233-4.472-1.427-6.133-1.661-1.661-4.046-2.121-6.133-1.427-.866-2.247-3.04-3.845-5.594-3.845-2.553 0-4.728 1.598-5.594 3.845-2.086-.693-4.473-.234-6.134 1.427-1.66 1.661-2.12 4.046-1.427 6.133-2.248.866-3.845 3.041-3.845 5.595 0 2.553 1.598 4.728 3.845 5.595-.693 2.086-.234 4.472 1.427 6.133 1.66 1.66 4.046 2.12 6.133 1.427.866 2.247 3.042 3.845 5.595 3.845 2.554 0 4.729-1.598 5.595-3.846 2.087.693 4.473.233 6.133-1.427 1.661-1.661 2.12-4.047 1.427-6.133 2.247-.865 3.845-3.041 3.845-5.594z" fill="#d0e6a5"/><path d="m8.89 15.441s2.591-2.226 5.11-2.441c1.47-.126 3 .504 3 2.442 0 1.746-1.543 3.306-3 3.558 1.746 0 9 1.188 9 8 0 3.5-2.538 6.111-6.349 6-5.403-.157-6.468-4.601-10.078-5.786-1.669-.548-3.082.411-3.082.411m22.737-1.437s1.46 1.813 3.328 1.813c2.554 0 3.71-1.832 3.397-5.375-.304-3.442-3.898-7.626-7.588-7.626-4.259 0-3.691 4.594-7.635 4.78m-3.73-12.78s4.375 4 9.313 4c3.313 0 4.375-3 4.375-3m-5.188-2c-.276 0-.5.224-.5.5s.224.5.5.5.5-.224.5-.5-.224-.5-.5-.5z" fill="none" stroke="#231f20" stroke-miterlimit="10" stroke-opacity=".8" stroke-width="2"/></svg>