<svg enable-background="new 0 0 38 38" height="38" viewBox="0 0 38 38" width="38" xmlns="http://www.w3.org/2000/svg"><path d="m36.732 23.181.209.627-.494.438c-.119.106-1.678 1.471-3.842 2.608.097 2.444-.307 4.478-.339 4.634l-.132.647-.647.132c-.156.031-2.194.439-4.632.338-1.139 2.165-2.505 3.724-2.61 3.843l-.438.494-.626-.209c-.151-.05-2.112-.718-4.18-2.022-2.069 1.305-4.031 1.973-4.182 2.022l-.627.209-.438-.494c-.105-.119-1.47-1.678-2.608-3.842-2.44.1-4.478-.308-4.634-.339l-.647-.132-.132-.647c-.032-.156-.434-2.188-.337-4.632-2.165-1.139-3.724-2.505-3.843-2.61l-.494-.438.209-.626c.051-.151.718-2.112 2.024-4.18-1.306-2.069-1.974-4.032-2.024-4.183l-.209-.627.495-.438c.119-.105 1.678-1.47 3.843-2.608-.098-2.445.305-4.478.337-4.634l.132-.647.647-.132c.156-.032 2.186-.43 4.632-.337 1.139-2.165 2.504-3.724 2.61-3.843l.438-.494.627.209c.151.049 2.112.717 4.18 2.023 2.069-1.306 4.031-1.973 4.182-2.023l.627-.209.438.495c.106.119 1.471 1.678 2.608 3.842 2.442-.096 4.477.306 4.633.339l.647.132.132.647c.032.156.435 2.188.338 4.631 2.165 1.139 3.724 2.504 3.843 2.61l.494.438-.209.626c-.05.151-.718 2.112-2.022 4.18 1.304 2.069 1.972 4.03 2.021 4.182zm-17.732-13.181c-4.971 0-9 4.029-9 9s4.029 9 9 9 9-4.029 9-9-4.029-9-9-9z" fill="#ef7bef"/><path d="m13.807 21.998c-7.621 4.399.696 13.786.696 13.786s11.898-3.968 7.496-11.591m2.194-8.191c7.621-4.399-.695-13.786-.695-13.786s-11.898 3.968-7.496 11.591m2.998 11.19c0 8.8 12.287 6.29 12.287 6.29s2.513-12.288-6.29-12.287m-5.997-5.997c0-8.8-12.287-6.291-12.287-6.291s-2.512 12.289 6.29 12.288m11.19 2.999c7.621 4.4 11.591-7.496 11.591-7.496s-9.385-8.32-13.785-.696m-8.192 2.194c-7.621-4.4-11.592 7.496-11.592 7.496s9.386 8.32 13.787.696m-.001 0c-4.4 7.62 7.496 11.591 7.496 11.591s8.32-9.385.696-13.785m-2.195-8.192c4.4-7.621-7.495-11.592-7.495-11.592s-8.321 9.386-.697 13.786m8.192 8.192c4.399 7.621 13.786-.696 13.786-.696s-3.968-11.897-11.591-7.496m-8.191-2.194c-4.399-7.621-13.787.695-13.787.695s3.969 11.898 11.592 7.496m11.19-2.997c8.8 0 6.29-12.288 6.29-12.288s-12.287-2.513-12.287 6.29m-5.997 5.997c-8.8-.001-6.291 12.287-6.291 12.287s12.289 2.513 12.288-6.29m6-5.997c0 3.313-2.687 6-6 6s-6-2.687-6-6 2.687-6 6-6 6 2.687 6 6z" fill="none" opacity=".8" stroke="#231f20" stroke-miterlimit="10" stroke-width="2"/></svg>