<svg enable-background="new 0 0 38 38" height="38" viewBox="0 0 38 38" width="38" xmlns="http://www.w3.org/2000/svg"><path d="m19 36.883-.707-.705c-.146-.146-.604-.44-1.048-.726-1.533-.983-4.271-2.741-4.733-5.214-2.375.834-5.262-.655-6.88-1.491-.469-.242-.954-.492-1.154-.546l-.966-.258.259-.967c.054-.2.079-.745.104-1.271.086-1.818.24-5.066 2.149-6.704-1.911-1.636-2.064-4.885-2.149-6.705-.025-.527-.05-1.072-.104-1.272l-.259-.966.966-.259c.2-.054.685-.304 1.153-.545 1.618-.835 4.507-2.326 6.88-1.491.461-2.473 3.199-4.23 4.732-5.214.444-.285.903-.58 1.05-.726l.707-.707.708.707c.146.146.605.441 1.049.726 1.532.984 4.27 2.742 4.731 5.214 2.373-.839 5.265.655 6.884 1.491.468.242.952.492 1.151.545l.966.259-.259.966c-.054.2-.079.745-.104 1.271-.086 1.819-.24 5.067-2.149 6.704 1.912 1.636 2.064 4.887 2.15 6.706.024.527.05 1.071.104 1.271l.259.966-.966.259c-.2.054-.685.304-1.153.545-1.618.835-4.508 2.326-6.881 1.491-.461 2.474-3.2 4.23-4.733 5.215-.444.284-.902.579-1.048.725zm0-24.883c-3.86 0-7 3.14-7 7 0 3.859 3.14 7 7 7 3.859 0 7-3.141 7-7 0-3.86-3.141-7-7-7z" fill="#f49314"/><path d="m29 19c0 5.521-4.479 10-10 10-5.522 0-10-4.479-10-10 0-5.522 4.478-10 10-10 5.521 0 10 4.478 10 10zm-3-3c0 3.863-3.137 7-7 7-3.866 0-7-3.137-7-7 0-3.866 3.134-7 7-7 3.863 0 7 3.134 7 7zm-12-5.66c-2.4-4.159 3.922-6.731 5-7.81 1.079 1.078 7.396 3.653 5 7.809m0 17.321c2.399 4.158-3.922 6.732-5 7.81-1.079-1.077-7.397-3.653-5-7.81m-5-8.66c-4.802 0-3.868-6.763-4.263-8.235 1.473-.395 6.862-4.578 9.263-.425m15 8.66c4.802.002 3.869 6.764 4.264 8.235-1.473.395-6.864 4.579-9.264.425m-10 0c-2.401 4.158-7.791-.031-9.263-.425.394-1.473-.534-8.232 4.263-8.235m15-8.659c2.402-4.158 7.792.03 9.264.424-.395 1.473.533 8.232-4.264 8.235" fill="none" opacity=".8" stroke="#231f20" stroke-miterlimit="10" stroke-width="2"/></svg>