<svg enable-background="new 0 0 38 38" height="38" viewBox="0 0 38 38" width="38" xmlns="http://www.w3.org/2000/svg"><path d="m19 30c-1.654 0-3-1.346-3-3s1.346-3 3-3 3 1.346 3 3-1.346 3-3 3zm17-11c0 9.374-7.626 17-17 17v-2c.241 0 .476-.025.715-.036 3.524-.36 6.285-3.346 6.285-6.964 0-3.859-3.141-7-7-7-4.962 0-9-4.038-9-9s4.038-9 9-9c9.374 0 17 7.626 17 17zm-16-8c0-.551-.449-1-1-1s-1 .449-1 1 .449 1 1 1 1-.449 1-1z" fill="#948ff2"/><path d="m35 19c0 8.837-7.163 16-16 16-8.836 0-16-7.163-16-16 0-8.836 7.164-16 16-16 8.837 0 16 7.164 16 16zm-16 16c4.418 0 8-3.582 8-8s-3.582-8-8-8-8-3.582-8-8 3.582-8 8-8m0 6c-1.104 0-2 .896-2 2s.896 2 2 2 2-.896 2-2-.896-2-2-2zm2 18c0-1.104-.896-2-2-2s-2 .896-2 2 .896 2 2 2 2-.896 2-2z" fill="none" opacity=".8" stroke="#231f20" stroke-miterlimit="10" stroke-width="2"/></svg>