<svg enable-background="new 0 0 38 38" height="38" viewBox="0 0 38 38" width="38" xmlns="http://www.w3.org/2000/svg"><path d="m22 18.017v-10.017h-12v10.033l-3.685.005c.904 4.613 4.977 7.962 9.685 7.962 2.335 0 4.517-.788 6.307-2.278 3.062-2.549 6.874-5.722 11.693-5.722z" fill="#ef6c6c"/><path d="m21.337 30.012 1.663 4.988h-14l1.663-4.988m10.337-11.012s0-8.239 0-11-2.239-5-5-5-5 2.239-5 5 0 11 0 11m27 0h-36.592c1.341 6.839 7.361 12 14.592 12 3.616 0 6.929-1.29 9.506-3.436 2.576-2.144 5.494-4.564 8.494-4.564h4s-2 0-3 0" fill="none" opacity=".8" stroke="#231f20" stroke-miterlimit="10" stroke-width="2"/></svg>