<svg xmlns="http://www.w3.org/2000/svg" viewBox="0 0 470 470" enable-background="new 0 0 470 470"><path d="M429.6 418.38l-62.23-150.22c-1.6-3.83-5.97-5.65-9.8-4.06s-5.65 5.97-4.06 9.8l56.27 135.8-51.3-14.87c-3.38-.97-6.97.52-8.66 3.6l-25.76 46.78-60.36-145.7c69.66-13.43 122.45-74.85 122.45-148.37C386.13 67.8 318.33 0 235 0S83.88 67.8 83.88 151.12c0 33.75 11.12 64.95 29.9 90.13L40.4 418.38c-1.1 2.66-.57 5.72 1.35 7.87 1.92 2.15 4.9 3 7.68 2.2l60.53-17.54 30.4 55.23c1.32 2.4 3.85 3.88 6.57 3.88.13 0 .27 0 .4 0 2.9-.16 5.42-1.96 6.53-4.62L212 325.02c1.58-3.83-.24-8.22-4.07-9.8-3.82-1.6-8.2.23-9.8 4.06L145.98 445.2l-25.77-46.78c-1.7-3.07-5.3-4.56-8.64-3.6l-51.3 14.88 64.4-155.47c27.58 29.52 66.85 48 110.35 48 4.5 0 8.94-.2 13.33-.6l67.82 163.74c1.1 2.66 3.64 4.46 6.52 4.62.14 0 .27 0 .4 0 2.73 0 5.26-1.5 6.58-3.9l30.4-55.2 60.53 17.54c2.78.8 5.76-.05 7.68-2.2 1.92-2.15 2.44-5.2 1.34-7.87zM98.87 151.12C98.87 76.06 159.94 15 235 15s136.12 61.06 136.12 136.12S310.06 287.24 235 287.24 98.88 226.17 98.88 151.12z"/><path fill="#267DF4" d="M321.66 122.96c-.86-2.66-3.14-4.6-5.9-5.08l-50.46-8.47-23.65-45.36C240.35 61.56 237.8 60 235 60c-2.8 0-5.36 1.56-6.65 4.03L204.7 109.4l-50.47 8.48c-2.75.46-5.03 2.42-5.9 5.08-.85 2.66-.17 5.58 1.8 7.57l35.84 36.52-7.54 50.6c-.4 2.78.75 5.54 3 7.2 2.27 1.63 5.26 1.88 7.76.63l45.8-22.8 45.8 22.8c1.05.53 2.2.8 3.34.8 1.56 0 3.1-.5 4.4-1.44 2.27-1.65 3.43-4.4 3.02-7.18l-7.54-50.6 35.85-36.53c1.96-2 2.64-4.9 1.78-7.57zM270.7 159.2c-1.64 1.68-2.4 4.04-2.06 6.36l5.97 40.08-36.25-18.06c-1.05-.53-2.2-.8-3.34-.8-1.13 0-2.3.27-3.33.8l-36.27 18.06 5.96-40.08c.35-2.32-.42-4.68-2.07-6.36l-28.4-28.9 39.96-6.7c2.32-.4 4.32-1.86 5.4-3.94L235 83.73l18.73 35.93c1.08 2.08 3.1 3.54 5.4 3.93l39.96 6.7-28.4 28.9z"/><path d="M348.6 158.68c-4.1-.55-7.86 2.35-8.4 6.45-6.96 52.5-52.2 92.1-105.2 92.1-58.5 0-106.12-47.6-106.12-106.1S176.48 45 235 45c53 0 98.23 39.6 105.2 92.1.54 4.1 4.3 7 8.4 6.45 4.12-.54 7-4.3 6.46-8.42C347.12 75.2 295.5 30 235 30c-66.78 0-121.12 54.33-121.12 121.12S168.22 272.24 235 272.24c60.5 0 112.12-45.2 120.06-105.14.55-4.1-2.34-7.87-6.45-8.42z"/></svg>