<svg xmlns="http://www.w3.org/2000/svg" viewBox="0 0 511.974 511.974" enable-background="new 0 0 511.974 511.974"><path d="M511.87 195.72c-.05-.58-.17-1.16-.35-1.73-.1-.5-.28-1-.48-1.48-.24-.46-.53-.9-.86-1.3-.33-.48-.7-.93-1.13-1.32-.14-.12-.2-.3-.34-.4l-82.06-63.74V59.7c0-14.13-11.46-25.6-25.6-25.6h-92.47L271.54 5.35c-9.15-7.13-21.98-7.13-31.12 0L203.38 34.1H110.9c-14.13 0-25.6 11.46-25.6 25.6v66.06L3.28 189.5c-.15.12-.2.28-.34.4-.43.4-.8.84-1.14 1.32-.34.4-.62.84-.86 1.3-.2.48-.37.97-.5 1.47-.16.55-.28 1.12-.34 1.7 0 .18-.1.33-.1.5v290.17c0 5.43 1.77 10.7 5 15.06.06.08.07.17.13.24.06.07.2.14.27.24 4.8 6.32 12.25 10.04 20.17 10.07h460.8c7.96-.02 15.45-3.76 20.25-10.1.06-.1.17-.1.23-.2.06-.08.06-.16.12-.24 3.24-4.35 5-9.63 5-15.06V196.24c0-.18-.1-.34-.1-.52zM250.85 18.82c2.98-2.37 7.2-2.37 10.18 0l19.7 15.28h-49.5l19.62-15.28zM27.72 494.9l223.13-173.32c3-2.36 7.2-2.36 10.18 0l223.2 173.32H27.72zm467.2-13.3L271.53 308.12c-9.15-7.13-21.97-7.13-31.12 0L17.04 481.6V209.23l139.84 108.6c3.72 2.88 9.1 2.2 11.97-1.52 2.9-3.72 2.22-9.08-1.5-11.97L25.27 194.03l60.03-46.66v65.93c0 4.72 3.83 8.54 8.54 8.54 4.7 0 8.53-3.83 8.53-8.54V59.7c0-4.7 3.82-8.53 8.54-8.53h290.14c4.7 0 8.53 3.82 8.53 8.53v153.6c0 4.72 3.82 8.54 8.54 8.54s8.54-3.83 8.54-8.54v-65.93l60.03 46.65-142.3 110.5c-2.46 1.86-3.72 4.9-3.3 7.93s2.4 5.64 5.25 6.8c2.85 1.14 6.1.67 8.5-1.24l140.1-108.77V481.6z"/><path fill="#267DF4" d="M358.37 204.77v-34.13c0-56.56-45.84-102.4-102.4-102.4-56.55 0-102.4 45.84-102.4 102.4s45.85 102.4 102.4 102.4c4.72 0 8.54-3.82 8.54-8.54s-3.8-8.53-8.53-8.53c-47.12 0-85.33-38.2-85.33-85.33s38.2-85.33 85.33-85.33 85.34 38.2 85.34 85.34v34.13c0 9.43-7.63 17.07-17.06 17.07s-17.07-7.64-17.07-17.07v-34.13c0-4.7-3.82-8.53-8.53-8.53s-8.53 3.83-8.53 8.54c0 18.85-15.28 34.13-34.13 34.13s-34.13-15.28-34.13-34.13 15.28-34.13 34.13-34.13c4.72 0 8.54-3.8 8.54-8.53s-3.8-8.53-8.53-8.53c-22.9-.05-43.07 15.13-49.35 37.17-6.28 22.05 2.85 45.57 22.35 57.6 19.5 12.04 44.62 9.66 61.5-5.83 1.86 18.04 17.55 31.46 35.66 30.5 18.12-.96 32.3-15.96 32.24-34.1z"/></svg>