<svg xmlns="http://www.w3.org/2000/svg" width="46.148" height="46.148"><path fill="#FFF" d="M46.05 5.56c-.18-.35-1.6-2.33-2.04-2.65-.44-.3-1.28.7-1.82 1.18s-2.03 2.3-2.4 2.43c-.36.15 1.1-3.14 1.24-3.78.12-.65-1.74-1.5-3.1-1.8-1.4-.32-1.46.15-1.95.94-.5.78-1.8 4.97-1.8 4.97-1.7.06-2.93 1.6-4.17 3.04-1.23 1.46-4.1 6.14-4.1 6.14s-.46-5.5-.47-6.9-1.15-1.76-2.08-1.76c-.94 0-4.47.28-5.45.45-1 .16-.83 1.53-.83 1.53-.47-.46-2.4-1.23-4.83-1.36-2.43-.14-5.4 1.22-6.68 2.37-1.28 1.15-3.26 3.74-3.33 6.56-.07 2.8 2.02 4.56 2.02 4.56-5.72.73-4.13 3.66-3.78 4.6.36.96 2 4.2 2.56 5.7s2.2 1.22 2.46 1.17c.25-.04 1.18 3.85 1.88 6.84.7 3 1.25 4.4 2.55 5.18 1.3.8 5.4.14 10.56.05 5.15-.1 10.02.64 12.7.14s3.3-3.32 3.9-6.38c.6-3.06 1.32-6.72 1.54-6.8.22-.07.83.1 1.4-.04s1.17-.63 1.6-1.8.1-5.34.15-7.64-2.12-2.76-2.66-2.78c-.55-.03.95-1.26 2.5-3.23 1.52-1.97.2-3.5.2-3.5s.16-.3.4-.46c.25-.14 2.03-1.8 2.9-2.46.86-.65.13-1.27-.27-1.6-.4-.3.05-.62.7-1.35.65-.75.66-1.18.48-1.54zM18.6 9.62l5.24-.3.54 14.74-4.63.23L18.6 9.6zM6 12.52c1.23-1.3 3.27-3 6.42-2.6 3.14.4 4.47 2.1 4.67 2.33.2.24.35 1.92.3 2.28-.06.36-.1.56-.34.33-.23-.23-.37-.17-.63.18-.25.36-.97.95-1.37 1.3-.4.33-.7.3-1.06.2-.36-.1-.54-.4-.33-.83s.73-2.34.9-2.75.3-.9.12-1.1c-.2-.22-.65-.33-.9-.18-.24.16-.57 1.46-1 2.86-.42 1.4-.55 2-.7 2.22-.17.22-.25-.04-.68-.74-.43-.7-1.66-2.24-2.04-2.84-.37-.6-.8-.64-1.18-.34-.38.3-.04.7.18 1.1.22.38 1.3 2.07 1.74 2.66.45.58.86.98.62 1.14-.25.16-1.13-.47-1.98-.64-.84-.17-2.08-.58-2.96-.7-.88-.13-.7.15-.85.68-.15.53.7.7 1.78.87s2.6.65 2.93.8c.34.13.52.3.48.5-.05.2-1.3.4-1.65.58-.37.2 0 1.06 0 1.06l-2.78.32s.05-.87-.2-1.22c-.26-.34-.7-.46-1.42-1.9s.68-4.24 1.9-5.54zm9.5 5.1c-.16-.27.7-.7 1.03-1.07.33-.37.8-.8.86-.42.06.38.5 3.6.2 3.66-.32.05-1.16.15-1.46.2-.3.05-1.2-.15-.92-.35.28-.2.6-1.54.3-2.04zM14 19.3c-.18.53.15.63-.76.78-.9.15-1.25-.5-1.23-1.08.02-.58.6-1.07 1.05-1.18 0 0 .3-.02.93.2s.2.73.02 1.27zm22.3 16.1c-.45 2.15-1.22 4.97-1.5 6.1-.27 1.14-.87 1.5-1.65 1.72s-1.98.3-3.66.23c-1.7-.06-5.76-.2-8.72-.2s-7.85.32-9.33.33c-1.47.02-2.15-2.16-2.6-4.1-.45-1.96-1.55-4.8-2.03-5.58-.48-.78-.06-1.02.3-1.07.8-.1 6-1 10.13-1.67s5.93-.42 7.34-.35c1.4.08 2.96.32 5.83.26 2.88-.06 5.2.13 6 .5.8.36.33 1.7-.13 3.83zm3.87-12.16c.04 1.2.25 3.34.13 4.5-.12 1.14-.22 2.6-1.73 2.38-1.52-.2-4.22-1.2-6.1-1.14-1.9.05-2.73.26-6.28.24-3.55-.02-6.05-.27-10.3.53-4.27.8-7.8 1.28-9.14 1.47s-2.16.36-2.5-.48c-.33-.83-1.13-2.8-1.13-2.8C2.8 27.12 1.17 24.2 2 23.9c.86-.3 3.38-.8 6.4-1.27 3.05-.48 7.43-.83 8.26-.97s1.17 0 1.17 0 .17 3.32.6 3.8c.43.46 1.2.72 2.5.66 1.26-.06 3.17-.03 3.6-.1.4-.07 1.44-.6 1.42-1.7-.03-1.07-.26-3.1-.03-3.13.23-.05 3.5.37 5.92.43 2.42.05 4.28 0 5.8 0 1.5-.03 2.48.43 2.52 1.63zm.34-8.58c-.1.68-.74 1.13-1.64 2.22-.9 1.1-2.03 2.72-2.3 2.76-.26.05-2.88.22-5.96-.04s-4.4-.4-4.72-.76c0 0-.15-.87.14-1.2.3-.3 3.46-4.16 4.48-5.5 1.02-1.34 3.04-3.43 3.42-3.26.38.17 3.3 2.28 4.57 3.3 1.26 1.04 2.12 1.8 2 2.48zm3.48-7.75c-.43.46-1.66 1.68-1.4 2.02.25.35.82.53.57.88s-.82.65-1.32 1.16c-.5.5-.76 1.05-1.3.52-.57-.53-2.87-2.16-3.63-2.74-.5-.38-1.68-.73-1.48-1.2.2-.45.87-2.4 1.28-3.67.4-1.26.6-1.8 1-1.67.4.12 1.23.6 1.4.73.2.13.53.3.23.82-.3.52-1.1 2.72-1 3.1.1.36.34.63.77.87s.92.58 1.16.4c.24-.2 1-1.27 1.87-2.28s1.06-1.54 1.52-1.15c.46.4.78.7.94.97.16.28-.2.76-.62 1.23zm-13.74 9.44c-.65-.4-.97-.18-1.1.2-.2.6.8 1.02 1.4 1.38.62.37 1.23 1.24 1.8 1.14.56-.1.34-.96-.04-1.36-.38-.4-1.4-.97-2.06-1.37zm2.43-3.14c-.32-.3-.88-.1-1.02.18-.32.65.75 1.44 1.6 2.04.83.6.6.8.8 1.1s1.02.3 1.22-.16.02-1.02-.53-1.47c-.54-.44-1.75-1.37-2.07-1.67zm-14.2 24.24c-1.07.1-1.32.26-1.32.26-.7.2-2.27.12-2.15 1.07.12.95.2 1.64.46 2.06.27.42.63.7 1.8.32s2.74 0 2.64-1c-.1-1-.36-2.8-1.43-2.7zm-.6 2.36c-.47.04-.4.07-1.1.2-.73.1-.5-.4-.6-.77s.73-.3 1.1-.42c1.1-.34 1.26.1 1.32.48.05.38-.28.47-.74.5zm13.22-8.07c-1.17.04-1.5.1-1.96.2-.34.1-1.5-.05-1.52 1.12-.04 1.18-.1 2.2.64 2.2s2.46.04 3.04 0c.57-.07.94-.4.9-1.3-.03-.9.05-2.26-1.1-2.22zm-.27 2.14c-.38.07-.77.02-1.54.07-.78.05-.47-.4-.48-.66 0-.26.47-.04.87-.18 1.13-.4 1.36.04 1.4.23.02.2.1.5-.27.55zm-2.73 2.76c-1.04.06-1.54.1-1.54.1-.66-.04-1.97-.17-2.2.57-.22.74-.14 1.9-.17 2.2-.03.32.42 1.18 1.46 1.1 1.03-.1 1.15-.1 1.8 0 .63.08 1.4.07 1.57-1.48.17-1.55.12-2.55-.93-2.5zm-.24 1.8c-.04.43-.04.66-.6.64-.54-.02-.92.04-1.47-.02-.57-.06-.24-.43-.27-.85-.04-.43.62-.18 1.05-.22 1.04-.1 1.33.02 1.28.45zm-13.1-2.86c-.12-1.22.1-2.3-.7-2.52-.77-.22-1.7-.02-1.7-.02-.72.12-2 .02-1.93 1.02.05 1 .43 2.58.54 2.8.12.2.2.46 1.38.3 1.18-.16 1.63-.24 1.9-.28.26-.05.65-.07.52-1.3zm-1.1-.16c0 .67-.54.52-1.3.57s-.6-.67-.65-1.2c-.04-.54.54-.36 1-.44 0 0 .23.04.57-.02.34-.06.4.44.38 1.1zm8.72-3.38c-.56.1-2.63.1-2.96.2-.4.1-.88.33-1.14.65-.25.32.1 1.55.1 1.94 0 .4.14 1.06 1.27 1.07 1.13 0 2.5-.1 2.85-.16.34-.06.6-.6.57-1.5-.04-.9-.12-2.28-.7-2.18zm-.4 1.74c.05.3.07.65-.34.76-.4.1-.85.03-1.66.1-.8.05-.6-.57-.6-.96.02-.4.88-.22 1.17-.28 1.4-.27 1.38.08 1.43.38z"/></svg>