<svg xmlns="http://www.w3.org/2000/svg" width="612" height="612"><path fill="#FFF" d="M156.25 553.4H13.03C5.82 553.4 0 559.23 0 566.43c0 7.2 5.83 13.02 13.02 13.02h143.24c7.18 0 13.02-5.83 13.02-13.02 0-7.2-5.84-13.03-13.03-13.03zm0-65.1H13.03C5.82 488.3 0 494.12 0 501.32s5.83 13.02 13.02 13.02h143.24c7.18 0 13.02-5.82 13.02-13.02s-5.84-13.02-13.03-13.02zm0-65.1H13.03C5.82 423.2 0 429 0 436.2s5.83 13.03 13.02 13.03h143.24c7.18 0 13.02-5.82 13.02-13.02 0-7.2-5.84-13-13.03-13zm221.37 130.2H234.38c-7.18 0-13.02 5.82-13.02 13.03 0 7.2 5.84 13.02 13.02 13.02h143.24c7.2 0 13.02-5.83 13.02-13.03 0-7.2-5.83-13.02-13.02-13.02zm0-65.1H234.38c-7.18 0-13.02 5.82-13.02 13.02s5.84 13.02 13.02 13.02h143.24c7.2 0 13.02-5.82 13.02-13.02s-5.83-13.02-13.02-13.02zm0-65.1H234.38c-7.18 0-13.02 5.8-13.02 13s5.84 13.03 13.02 13.03h143.24c7.2 0 13.02-5.82 13.02-13.02 0-7.2-5.83-13-13.02-13zm0-65.12H234.38c-7.18 0-13.02 5.82-13.02 13.03s5.84 13.03 13.02 13.03h143.24c7.2 0 13.02-5.82 13.02-13.02s-5.83-13.02-13.02-13.02zm0-65.1H234.38c-7.18 0-13.02 5.82-13.02 13.02 0 7.2 5.84 13.02 13.02 13.02h143.24c7.2 0 13.02-5.82 13.02-13.02 0-7.2-5.83-13.02-13.02-13.02zm0-65.1H234.38c-7.18 0-13.02 5.8-13.02 13s5.84 13.03 13.02 13.03h143.24c7.2 0 13.02-5.8 13.02-13s-5.83-13.03-13.02-13.03zm0-65.1H234.38c-7.18 0-13.02 5.8-13.02 13s5.84 13.03 13.02 13.03h143.24c7.2 0 13.02-5.8 13.02-13s-5.83-13.03-13.02-13.03zm0-65.12H234.38c-7.18 0-13.02 5.82-13.02 13.02 0 7.2 5.84 13.02 13.02 13.02h143.24c7.2 0 13.02-5.82 13.02-13.02 0-7.2-5.83-13.02-13.02-13.02zm0-65.1H234.38c-7.18 0-13.02 5.8-13.02 13s5.84 13.03 13.02 13.03h143.24c7.2 0 13.02-5.83 13.02-13.03 0-7.2-5.83-13.02-13.02-13.02zM598.98 553.4H455.74c-7.18 0-13.02 5.82-13.02 13.03 0 7.2 5.84 13.02 13.02 13.02H599c7.2 0 13.02-5.83 13.02-13.03 0-7.2-5.83-13.02-13.02-13.02zm0-65.1H455.74c-7.18 0-13.02 5.82-13.02 13.02s5.84 13.02 13.02 13.02H599c7.2 0 13.02-5.82 13.02-13.02s-5.83-13.02-13.02-13.02zm0-65.1H455.74c-7.18 0-13.02 5.8-13.02 13s5.84 13.03 13.02 13.03H599c7.2 0 13.02-5.82 13.02-13.02 0-7.2-5.83-13-13.02-13zm0-65.12H455.74c-7.18 0-13.02 5.82-13.02 13.03s5.84 13.03 13.02 13.03H599c7.2 0 13.02-5.82 13.02-13.02s-5.83-13.02-13.02-13.02zm0-65.1H455.74c-7.18 0-13.02 5.82-13.02 13.02 0 7.2 5.84 13.02 13.02 13.02H599c7.2 0 13.02-5.82 13.02-13.02 0-7.2-5.83-13.02-13.02-13.02zM455.74 253.9H599c7.2 0 13.02-5.8 13.02-13s-5.83-13.03-13.02-13.03H455.74c-7.18 0-13.02 5.82-13.02 13.02s5.84 13 13.02 13z"/></svg>