<svg xmlns="http://www.w3.org/2000/svg" width="60" height="511pt" viewBox="0 -33 511.99996 511"><path d="M511.97 28.05c-.34-7.8-3.74-15-9.6-20.2C496.4 2.5 488.42-.12 480.42.6c-7.97.74-15.34 4.8-20.22 11.13L347.04 158.5H335V156c0-15.16-12.34-27.5-27.5-27.5h-46c-6.44 0-12.36 2.23-17.05 5.95C231.07 89.98 189.75 57.5 141 57.5c-57.2 0-104.15 44.7-107.77 101H17.5C7.85 158.5 0 166.35 0 176c0 0 .06 21.08.18 21.6C2.3 255.14 25.7 308.93 66.63 349.86c22.94 22.94 49.9 40.36 79.3 51.64H80.5c-6.9 0-12.5 5.6-12.5 12.5v10c0 12.4 10.1 22.5 22.5 22.5H346c4.14 0 7.5-3.36 7.5-7.5 0-4.14-3.36-7.5-7.5-7.5H90.5c-4.14 0-7.5-3.37-7.5-7.5v-7.5h332v7.5c0 4.13-3.36 7.5-7.5 7.5H381c-4.14 0-7.5 3.36-7.5 7.5 0 4.14 3.36 7.5 7.5 7.5h26.5c12.4 0 22.5-10.1 22.5-22.5v-10c0-6.9-5.6-12.5-12.5-12.5h-65.43c29.4-11.27 56.36-28.7 79.3-51.64 40.93-40.93 64.33-94.72 66.45-152.26.12-.52.18-21.6.18-21.6 0-9.65-7.85-17.5-17.5-17.5h-79.38L504.18 49c5.36-5.7 8.13-13.13 7.8-20.95zM261.5 143.5h46c6.9 0 12.5 5.6 12.5 12.5v2.5h-71V156c0-6.9 5.6-12.5 12.5-12.5zM141 72.5c48.93 0 89.15 37.97 92.74 86h-15.07c-3.55-39.74-37.02-71-77.67-71s-74.12 31.26-77.67 71H48.26c3.6-48.03 43.8-86 92.74-86zm34.18 86C171.74 142.8 157.72 131 141 131s-30.74 11.8-34.18 27.5H78.4c3.5-31.46 30.23-56 62.6-56s59.1 24.54 62.6 56zm-15.65 0h-37.06c2.98-7.32 10.16-12.5 18.53-12.5s15.55 5.18 18.53 12.5zM483 176v12.5h-31.5c-4.14 0-7.5 3.36-7.5 7.5 0 4.14 3.36 7.5 7.5 7.5h31c-7.48 110.43-99.7 198-212 198h-43c-101.9 0-187.3-72.12-207.8-168H88c4.14 0 7.5-3.36 7.5-7.5 0-4.14-3.36-7.5-7.5-7.5H17.06c-.7-4.95-1.2-9.95-1.56-15h401c4.14 0 7.5-3.36 7.5-7.5 0-4.14-3.36-7.5-7.5-7.5H15V176c0-1.38 1.12-2.5 2.5-2.5h463c1.38 0 2.5 1.12 2.5 2.5zm10.25-137.27L380.52 158.5h-14.54L472.06 20.9c2.38-3.08 5.84-4.98 9.74-5.34 3.9-.36 7.67.87 10.6 3.48 2.8 2.5 4.42 5.93 4.6 9.67.15 3.74-1.18 7.3-3.75 10.03zm0 0"/></svg>