<svg xmlns="http://www.w3.org/2000/svg" width="512" height="512" viewBox="0 0 144.083 144" enable-background="new 0 0 144.083 144"><path d="M122.5 76.4c0-18.9-13.4-33.13-31.14-33.13-.08 0-.15.02-.23.03H43.7c-2.95-1.28-4.88-3.05-5.7-5.28-1.62-4.27.94-9.2 1-9.3.77-1.45.23-3.27-1.23-4.05-1.45-.8-3.27-.25-4.06 1.2-.14.27-3.13 5.92-1.94 12.03-5.2-6.26-4.06-15.75-4.05-15.86.23-1.64-.92-3.14-2.56-3.36-1.65-.22-3.15.93-3.37 2.58-.07.5-1.58 12.56 5.72 20.9 3.23 3.7 7.63 6.04 13.1 7 1.38 12.55 11.8 22.43 24.57 23 .3.1.6.15.93.15 12.08 0 19.9 2.88 23.23 8.53 4.07 6.9.8 16.68-1.24 21.42-2.9-3.98-9.62-8.6-25.3-8.6-1.66 0-3 1.34-3 3 0 6.76 5.33 10.93 9.77 13.24-3.06 2.52-6.25 6.56-6.25 12.45 0 1.65 1.35 3 3 3 13.85 0 22.76-7.94 23.84-15.87 17.9-.4 32.33-15.1 32.33-33.08zM69.9 119.12c1.8-4.7 7.1-6.9 7.36-7 1.2-.48 1.97-1.68 1.9-2.97-.08-1.3-.98-2.4-2.23-2.73-.1-.02-7.67-2.18-10.28-6.67 16.2.94 17.52 7.7 17.6 8.26-.08 4.17-5.15 9.9-14.35 11.12zm46.46-45.3c-.22.3-.4.64-.5 1-1.14 4.25-4.14 7.6-8.22 9.2-3.24 1.26-6.8 1.25-10.04-.05-.28-.1-.57-.16-.86-.2-.42-2.03-1.13-4.05-2.24-5.95 4.13-.9 7.93-2.98 10.97-6.02 3.22-3.23 5.34-7.38 6.16-11.8 2.63 3.88 4.3 8.6 4.72 13.83zM46.73 49.65c.45-.02.88-.14 1.26-.34h37.98c-1.45 9.54-9.7 16.88-19.66 16.88-9.82 0-18-7.17-19.6-16.54zM80.4 68c6.3-4.1 10.72-10.88 11.63-18.7 5.25.12 10 1.83 13.9 4.72.58 4.96-1.14 10-4.68 13.54-2.95 2.95-6.87 4.65-11.04 4.8-.17 0-.34.02-.5.05-2.5-1.9-5.6-3.4-9.3-4.4zm13.85 35.06c1.3-3.3 2.72-7.98 2.96-12.9 1.8.53 3.65.8 5.5.8 2.4 0 4.83-.46 7.14-1.36 1.57-.6 3.03-1.43 4.37-2.4-3.54 8.15-10.97 14.23-19.95 15.86z"/><circle cx="66.168" cy="56.178" r="4.027"/></svg>