<svg xmlns="http://www.w3.org/2000/svg" viewBox="0 0 449.729 449.729" enable-background="new 0 0 449.729 449.729"><g fill="#fff"><path d="M257.14 80.2v-4.84c19.4-1.55 34.73-17.83 34.73-37.62 0-10.08-3.93-19.56-11.06-26.7C273.7 3.93 264.2 0 254.1 0h-58.48c-20.82 0-37.75 16.93-37.75 37.74 0 10.08 3.92 19.56 11.06 26.7 6.4 6.4 14.72 10.2 23.66 10.92v4.85c-18.18 3.2-35.46 9.03-51.42 17.1l-13.1-17.5c-9.27-12.35-26.85-14.87-39.2-5.62-6 4.5-9.87 11.03-10.93 18.44-1.06 7.4.82 14.78 5.3 20.76l12.3 16.4C60.5 163.66 38.7 211.12 38.7 263.56c0 102.66 83.5 186.17 186.16 186.17s186.17-83.52 186.17-186.17c0-91.64-66.57-168.02-153.88-183.35zm-74.07-29.9c-3.36-3.36-5.2-7.82-5.2-12.56 0-9.78 7.96-17.74 17.75-17.74h58.5c4.74 0 9.2 1.84 12.55 5.2 3.35 3.35 5.2 7.8 5.2 12.54 0 8.75-6.38 16.03-14.73 17.47V44.5c0-5.53-4.47-10-10-10H202.6c-5.54 0-10 4.47-10 10V55.2c-3.6-.62-6.9-2.3-9.53-4.93zm29.52 4.2h24.54V77.8c-4.06-.27-8.15-.42-12.28-.42-4.12 0-8.2.15-12.27.4v-23.3zM99.25 101.4c-1.28-1.72-1.82-3.83-1.5-5.94.3-2.12 1.4-4 3.1-5.27 3.54-2.65 8.56-1.93 11.2 1.6l11.66 15.55c-4.48 2.9-8.83 6-13.04 9.28L99.26 101.4zm125.6 328.33c-91.62 0-166.16-74.54-166.16-166.17S133.24 97.4 224.86 97.4c91.63 0 166.17 74.54 166.17 166.16S316.5 429.73 224.86 429.73zM224.86 117.26c-80.67 0-146.3 65.63-146.3 146.3s65.63 146.3 146.3 146.3c80.68 0 146.3-65.62 146.3-146.3s-65.62-146.3-146.3-146.3zm0 272.6c-69.64 0-126.3-56.65-126.3-126.3 0-69.64 56.66-126.3 126.3-126.3 69.65 0 126.3 56.66 126.3 126.3 0 69.65-56.65 126.3-126.3 126.3zM234.87 228.24V165c0-5.53-4.48-10-10-10-5.53 0-10 4.47-10 10v63.24c-15.4 4.37-26.72 18.54-26.72 35.32 0 20.25 16.47 36.72 36.7 36.72 20.26 0 36.73-16.47 36.73-36.72 0-16.78-11.3-30.95-26.7-35.32zm-10 52.04c-9.22 0-16.72-7.5-16.72-16.72s7.5-16.7 16.7-16.7 16.73 7.5 16.73 16.7-7.5 16.72-16.72 16.72z"/></g></svg>