<svg xmlns="http://www.w3.org/2000/svg" viewBox="0 0 511 512"><path fill="#ffae55" d="M256.05 256.45H501.6V502H256.05zm0 0"/><path fill="#b06d5d" d="M10.5 256.45h245.55V502H10.5zm0 0"/><path fill="#ffd4b8" d="M296.05 296.45H461.6V462H296.05zm0 0"/><path d="M461.6 472H296.05c-5.52 0-10-4.48-10-10V296.45c0-5.52 4.48-10 10-10H461.6c5.52 0 10 4.48 10 10V462c0 5.52-4.48 10-10 10zm-155.55-20H451.6V306.45H306.05zm0 0"/><path fill="#ffd4b8" d="M216.05 296.45V462H50.5V296.45zm0 0"/><path d="M216.05 472H50.5c-5.52 0-10-4.48-10-10V296.45c0-5.52 4.48-10 10-10h165.55c5.52 0 10 4.48 10 10V462c0 5.52-4.48 10-10 10zM60.5 452h145.55V306.45H60.5zm0 0"/><path fill="#5396a8" d="M133.28 10h245.55v246.45H133.28zm0 0"/><path d="M501.6 246.45H388.84V10c0-5.52-4.48-10-10-10H133.28c-5.53 0-10 4.48-10 10v236.45H10.5c-5.52 0-10 4.48-10 10V502c0 5.52 4.48 10 10 10h491.1c5.53 0 10-4.48 10-10V256.45c0-5.52-4.47-10-10-10zM143.3 20h225.55v226.45H143.28zM20.5 266.45h225.55V492H20.5zM491.6 492H266.06V266.45H491.6zm0 0"/><path fill="#fff" d="M338.83 179v36.55H173.28V50h165.55v40.66"/><path d="M338.83 225.55H173.28c-5.53 0-10-4.48-10-10V50c0-5.52 4.47-10 10-10h165.55c5.52 0 10 4.48 10 10v40.66c0 5.52-4.48 10-10 10-5.53 0-10-4.48-10-10V60H183.28v145.55h145.55V179c0-5.52 4.47-10 10-10 5.52 0 10 4.48 10 10v36.55c0 5.52-4.48 10-10 10zm0 0M338.82 144.66c-.65 0-1.3-.06-1.95-.2-.64-.12-1.27-.3-1.87-.56-.6-.25-1.18-.56-1.73-.92-.54-.37-1.06-.8-1.52-1.25-.46-.46-.88-.97-1.24-1.52-.35-.53-.66-1.1-.9-1.7-.26-.62-.45-1.25-.58-1.88-.13-.65-.2-1.3-.2-1.96 0-.65.07-1.3.2-1.95.13-.63.32-1.26.57-1.86.24-.6.55-1.2.9-1.73.37-.54.8-1.05 1.25-1.5.46-.47.98-.9 1.52-1.25.55-.36 1.13-.67 1.73-.92.6-.25 1.23-.44 1.87-.57 1.3-.26 2.62-.26 3.9 0 .65.13 1.28.32 1.88.57.6.25 1.18.56 1.73.92.54.36 1.05.78 1.52 1.24.46.45.88.96 1.24 1.5.36.55.67 1.13.92 1.74.25.6.44 1.23.57 1.87.13.65.2 1.3.2 1.96 0 .65-.07 1.3-.2 1.96-.13.63-.32 1.26-.57 1.87-.25.6-.56 1.17-.92 1.7-.36.56-.78 1.07-1.24 1.53-.47.46-.98.88-1.52 1.25-.55.36-1.13.67-1.73.92-.6.25-1.23.44-1.87.57-.65.13-1.3.2-1.96.2zm0 0"/><path fill="#ff6a81" d="M175.27 381.73c0 23.2-18.8 42-42 42s-42-18.8-42-42 18.8-42 42-42 42 18.8 42 42zm0 0"/><path d="M133.28 433.73c-28.67 0-52-23.33-52-52s23.33-52 52-52 52 23.33 52 52-23.33 52-52 52zm0-84c-17.65 0-32 14.36-32 32s14.35 32 32 32c17.64 0 32-14.36 32-32s-14.36-32-32-32zm0 0"/><path fill="#ff4f4f" d="M329.9 412.27l48.93-75.42 48.93 75.42zm0 0"/><path d="M427.76 422.27H329.9c-3.67 0-7.04-2-8.8-5.23-1.74-3.22-1.58-7.14.4-10.2l48.94-75.43c1.84-2.83 5-4.55 8.4-4.55s6.53 1.72 8.38 4.56l48.93 75.43c2 3.07 2.15 7 .4 10.2-1.75 3.24-5.13 5.24-8.8 5.24zm-79.45-20h61.05l-30.52-47.04zm0 0"/><path fill="#ffae55" d="M216.64 97.43h78.27v78.27h-78.26zm0 0"/><path d="M294.9 185.7h-78.26c-5.52 0-10-4.47-10-10V97.43c0-5.52 4.48-10 10-10h78.27c5.54 0 10 4.48 10 10v78.27c0 5.53-4.46 10-10 10zm-68.26-20h58.27v-58.27h-58.26zm0 0"/></svg>