<svg xmlns="http://www.w3.org/2000/svg" enable-background="new 0 0 480 480" viewBox="0 0 480 480"><path d="M339.9 161.78l-5.13-16.9c-6.53-19.2-27.38-29.5-46.58-22.96-10.82 3.67-19.3 12.15-22.97 22.95l-5.13 16.9c-4.33 14.26-5.23 29.34-2.65 44 2.35 12.36 10.2 22.97 21.3 28.85l-5.74 128.58c-.76 7.18 1.57 14.34 6.4 19.7 10.42 11.4 28.1 12.18 39.5 1.77.6-.57 1.2-1.16 1.76-1.77 4.73-5.2 7.05-12.16 6.4-19.16l-5.8-129.14c11.1-5.88 18.94-16.48 21.3-28.82 2.57-14.67 1.67-29.75-2.66-44zm-13.1 41.2c-1.74 8.9-8.06 16.17-16.6 19.12-3.25 1.22-5.34 4.4-5.18 7.85L311.1 365c.28 2.65-.6 5.3-2.4 7.25-4.82 4.77-12.58 4.77-17.4 0-1.9-2.12-2.75-4.97-2.35-7.78l6.03-134.52c.16-3.46-1.93-6.63-5.17-7.85-8.54-2.95-14.86-10.23-16.6-19.1-2.13-12.2-1.38-24.7 2.2-36.54l5.14-16.9c3.98-10.75 15.9-16.24 26.66-12.27 5.68 2.1 10.15 6.57 12.26 12.25l5.13 16.9c3.57 11.85 4.33 24.36 2.2 36.54zM216 120c-4.42 0-8 3.58-8 8v68.7l-21.66 21.64c-1.6 1.6-2.45 3.8-2.34 6.06l7 140c.17 3.02-.93 5.97-3.02 8.15-4.38 4.42-11.5 4.45-15.93.07-.03-.02-.05-.05-.07-.07-2.1-2.18-3.2-5.13-3.03-8.15l7.05-140c.1-2.26-.74-4.46-2.34-6.06L152 196.7V128c0-4.42-3.58-8-8-8s-8 3.58-8 8v72c0 2.12.84 4.16 2.34 5.66l21.5 21.5L153 363.6c-.72 14.9 10.78 27.58 25.68 28.3s27.6-10.76 28.3-25.67c.05-.87.05-1.75 0-2.63l-6.8-136.47 21.48-21.5c1.5-1.5 2.34-3.53 2.34-5.65v-72c0-4.42-3.58-8-8-8zM168 120c-4.42 0-8 3.58-8 8v64c0 4.42 3.58 8 8 8s8-3.58 8-8v-64c0-4.42-3.58-8-8-8zM192 120c-4.42 0-8 3.58-8 8v64c0 4.42 3.58 8 8 8s8-3.58 8-8v-64c0-4.42-3.58-8-8-8z"/><g fill="#c6c09c"><path d="M240 0C107.45 0 0 107.45 0 240s107.45 240 240 240 240-107.45 240-240C479.85 107.5 372.5.15 240 0zm0 464C116.3 464 16 363.7 16 240S116.3 16 240 16s224 100.3 224 224c-.14 123.65-100.35 223.86-224 224zM265.97 390.17c-.43-4.4-4.34-7.6-8.74-7.18-.1 0-.2 0-.3.02h.02c-11.26 1.3-22.64 1.3-33.9 0-4.4-.52-8.37 2.62-8.88 7s2.62 8.38 7 8.9c12.5 1.45 25.12 1.45 37.6 0 4.4-.44 7.63-4.35 7.2-8.75zM362.4 136.9c-2.84-3.37-7.88-3.82-11.27-.98 0 0-.02.02-.03.03-3.38 2.85-3.8 7.9-.96 11.27 48.23 57.26 44.54 141.93-8.5 194.78-3.12 3.12-3.13 8.2 0 11.32s8.17 3.13 11.3.02c58.94-58.72 63.05-152.8 9.46-216.43zM186.4 105.74s-.02 0-.02 0-.02 0-.03 0zM277.74 84.47c-31.27-7.5-64.06-5.48-94.17 5.8-4.14 1.54-6.23 6.16-4.67 10.3 1.17 3.1 4.15 5.17 7.48 5.17.95 0 1.9-.18 2.8-.52 27.1-10.14 56.64-11.95 84.8-5.2 4.3 1.04 8.6-1.6 9.65-5.9s-1.6-8.6-5.9-9.65zM138 341.6C111 314.68 95.9 278.1 96 240c-.08-30.45 9.56-60.12 27.53-84.7 2.65-3.54 1.94-8.55-1.6-11.2s-8.54-1.95-11.2 1.58c-.04.07-.1.13-.13.2-46.25 63.58-39.45 151.35 16.06 207.05 3.12 3.13 8.2 3.13 11.33 0s3.12-8.2 0-11.33z"/></g></svg>