<svg xmlns="http://www.w3.org/2000/svg" width="496pt" height="496pt" viewBox="0 -22 496 496"><path fill="#ef7385" d="M361.84 8H354c-36.8 0-71.76 16.08-95.76 44.08L248 64l-10.24-11.92C213.76 24.08 178.8 8 142 8h-7.84c-34.8 0-66.4 14.08-89.2 36.96C22.08 67.76 8 99.36 8 134.16c0 32 12.16 62.88 34.08 86.24l13.04 13.92L180.48 368 248 440l67.52-72 125.36-133.68 13.04-13.92c10.96-11.68 19.52-25.2 25.28-39.92 5.76-14.56 8.8-30.32 8.8-46.32C488 64.48 431.52 8 361.84 8zm0 0"/><path fill="#f0d0b4" d="M328 240v-16c0-8.8 7.2-16 16-16h47.2c10.88 0 21.44 3.68 29.92 10.48l19.76 15.84L448 240h40v96h-40l-26.88 21.52c-8.48 6.8-19.04 10.48-29.92 10.48H312c-8.8 0-16-7.2-16-16 0-4.4 1.76-8.4 4.72-11.28 2.88-2.96 6.88-4.72 11.28-4.72h-32c-4.4 0-8.4-1.76-11.28-4.72-2.96-2.88-4.72-6.88-4.72-11.28 0-8.8 7.2-16 16-16h-16c-4.4 0-8.4-1.76-11.28-4.72-2.96-2.88-4.72-6.88-4.72-11.28 0-8.8 7.2-16 16-16h16c-4.4 0-8.4-1.76-11.28-4.72-2.96-2.88-4.72-6.88-4.72-11.28 0-8.8 7.2-16 16-16zm0 0M216 272h16c8.8 0 16 7.2 16 16 0 4.4-1.76 8.4-4.72 11.28-2.88 2.96-6.88 4.72-11.28 4.72h-16c8.8 0 16 7.2 16 16 0 4.4-1.76 8.4-4.72 11.28-2.88 2.96-6.88 4.72-11.28 4.72h-32c4.4 0 8.4 1.76 11.28 4.72 2.96 2.88 4.72 6.88 4.72 11.28 0 8.8-7.2 16-16 16h-79.2c-10.88 0-21.44-3.68-29.92-10.48L48 336H8v-96h40l7.12-5.68 19.76-15.84c8.48-6.8 19.04-10.48 29.92-10.48H152c8.8 0 16 7.2 16 16v16h48c8.8 0 16 7.2 16 16 0 4.4-1.76 8.4-4.72 11.28-2.88 2.96-6.88 4.72-11.28 4.72zm0 0"/><path d="M459.72 225.86c23.4-24.96 36.28-57.53 36.28-91.73C496 60.17 435.83 0 361.87 0H354c-39.2 0-76.3 17.07-101.82 46.83L248 51.7l-4.18-4.87C218.32 17.07 181.2 0 142 0h-7.87C60.17 0 0 60.17 0 134.13c0 34.2 12.88 66.78 36.28 91.73l5.75 6.14H0v112h45.2l24.66 19.73c9.88 7.9 22.3 12.27 34.97 12.27h72.2L248 451.7l70.97-75.7h72.2c12.66 0 25.1-4.36 34.98-12.27L450.8 344H496V232h-42.03zM16 134.13C16 69 69 16 134.13 16H142c34.5 0 67.2 15.03 89.67 41.25L248 76.3l16.33-19.04C286.8 31.03 319.5 16 354 16h7.87C427 16 480 69 480 134.13c0 30.12-11.34 58.82-31.95 80.8l-7.98 8.5-13.93-11.15c-9.88-7.92-22.3-12.28-34.97-12.28H344c-13.23 0-24 10.77-24 24v8h-40c-13.23 0-24 10.77-24 24 0 3.16.65 6.16 1.76 8.93-3.7 1-7 2.83-9.76 5.32-2.76-2.5-6.08-4.32-9.76-5.32 1.1-2.77 1.76-5.77 1.76-8.93 0-13.23-10.77-24-24-24h-40v-8c0-13.23-10.77-24-24-24h-47.17c-12.66 0-25.1 4.36-34.98 12.27L55.92 223.4l-7.97-8.5C27.35 192.95 16 164.26 16 134.14zm63.85 217.1L50.8 328H16v-80h34.8l29.05-23.23c7.07-5.66 15.94-8.77 24.98-8.77H152c4.4 0 8 3.6 8 8v8h-40v16h96c4.4 0 8 3.6 8 8s-3.6 8-8 8h-80v16h96c4.4 0 8 3.6 8 8s-3.6 8-8 8h-96v16h80c4.4 0 8 3.6 8 8s-3.6 8-8 8h-80v16h48c4.4 0 8 3.6 8 8s-3.6 8-8 8h-79.17c-9.04 0-17.9-3.1-24.98-8.77zm116.04 21.5c7.2-4.16 12.1-11.84 12.1-20.73 0-2.82-.57-5.5-1.47-8H216c13.23 0 24-10.77 24-24 0-3.16-.65-6.16-1.76-8.93 3.7-1 7-2.83 9.76-5.3 2.76 2.48 6.08 4.3 9.76 5.3-1.1 2.77-1.76 5.77-1.76 8.93 0 13.23 10.77 24 24 24h9.47c-.9 2.5-1.47 5.18-1.47 8 0 8.9 4.9 16.57 12.1 20.72L248 428.3zM480 328h-34.8l-29.05 23.23c-7.07 5.66-15.94 8.77-24.98 8.77H312c-4.4 0-8-3.6-8-8s3.6-8 8-8h48v-16h-80c-4.4 0-8-3.6-8-8s3.6-8 8-8h80v-16h-96c-4.4 0-8-3.6-8-8s3.6-8 8-8h96v-16h-80c-4.4 0-8-3.6-8-8s3.6-8 8-8h96v-16h-40v-8c0-4.4 3.6-8 8-8h47.17c9.04 0 17.92 3.1 25 8.77L445.18 248H480zm0 0M448 136c0 12.8-2.68 25.13-7.98 36.66l14.54 6.68C460.83 165.7 464 151.1 464 136c0-57.34-46.66-104-104-104v16c48.52 0 88 39.48 88 88zm0 0"/></svg>