<svg height="512pt" viewBox="0 -4 512.00201 512" width="512pt" xmlns="http://www.w3.org/2000/svg"><path d="m423.18 214.2c-18.04-2.06-32.04-17.37-32.04-35.96 0-18.58 14-33.9 32.04-35.97 2.36-.27 4.17-2.23 4.17-4.6v-14.64c0-11.73-9.6-21.34-21.33-21.34h-14.7c-2.37 0-4.33 1.8-4.6 4.16-2.1 18-17.4 32-35.97 32-18.56 0-33.87-14-35.96-32-.3-2.36-2.25-4.17-4.63-4.17h-14.7c-11.72 0-21.33 9.6-21.33 21.33 0-11.73-9.6-21.34-21.34-21.34l-15.4-.05c-1.98 0-3.63-1.5-3.82-3.45-1.74-18.38-17.2-32.76-36.04-32.76s-34.3 14.38-36.05 32.76c-.2 1.96-1.85 3.45-3.82 3.45l-15.4.04c-11.74 0-21.35 9.6-21.35 21.33v15.35c0 1.97-1.5 3.63-3.46 3.82-18.37 1.74-32.74 17.2-32.74 36.04 0 18.83 14.37 34.3 32.74 36.05 1.96.17 3.46 1.83 3.46 3.8v15.46c0 11.73 9.6 21.35 21.34 21.35l19.06-.06c0-20 16.2-36.2 36.2-36.2 18.84 0 34.3 14.37 36.04 32.75.2 1.95 1.84 3.44 3.8 3.45l15.42.06c11.74 0 21.34-9.6 21.34-21.34 0 11.73 9.6 21.35 21.34 21.35l14.7-.04c2.37 0 4.33-1.82 4.6-4.18 2.06-18.04 17.38-32.05 35.97-32.05s33.9 14 35.97 32.05c.27 2.36 2.23 4.17 4.6 4.18l14.7.05c11.73 0 21.34-9.6 21.34-21.34v-14.73c0-2.4-1.82-4.35-4.18-4.62zm-32.04-35.96c0-18.58 14-33.9 32.04-35.97 2.36-.27 4.17-2.23 4.17-4.62v-14.62c0-11.74-9.6-21.34-21.33-21.34h-14.7c-2.37 0-4.33 1.8-4.6 4.16-2.1 18-17.4 32-35.97 32-18.56 0-33.88-14-35.96-32-.3-2.36-2.25-4.17-4.63-4.17h-14.7c-11.72 0-21.33 9.6-21.33 21.33v14.63c0 2.38-1.8 4.34-4.17 4.6-18.02 2.1-32.02 17.4-32.02 35.98s14 33.9 32.02 35.97c2.37.28 4.17 2.24 4.17 4.62v14.73c0 11.74 9.6 21.36 21.34 21.36l14.7-.04c2.37-.02 4.33-1.82 4.6-4.18 2.06-18.04 17.38-32.05 35.97-32.05s33.9 14 35.97 32.05c.27 2.36 2.23 4.16 4.6 4.18l14.7.05c11.73 0 21.34-9.6 21.34-21.35v-14.73c0-2.38-1.82-4.34-4.18-4.6-18.04-2.08-32.04-17.4-32.04-35.98zm0 0" fill="#6990d7"/><path d="m237.93 178.24c0-18.83 14.37-34.3 32.75-36.05 1.96-.2 3.45-1.85 3.45-3.82v-15.35c0-11.74-9.6-21.34-21.33-21.34l-15.4-.05c-1.98 0-3.63-1.5-3.82-3.45-1.74-18.38-17.2-32.77-36.04-32.77s-34.3 14.4-36.05 32.77c-.2 1.95-1.85 3.45-3.82 3.45l-15.4.04c-11.74 0-21.35 9.6-21.35 21.33v15.35c0 1.97-1.5 3.63-3.46 3.82-18.37 1.74-32.74 17.2-32.74 36.04s14.37 34.3 32.74 36.05c1.96.17 3.46 1.83 3.46 3.8v15.45c0 11.74 9.6 21.35 21.34 21.35l19.06-.06c0-20 16.2-36.2 36.2-36.2 18.84 0 34.3 14.37 36.04 32.75.2 1.95 1.84 3.44 3.8 3.45l15.42.05c11.74 0 21.34-9.6 21.34-21.35v-15.4c0-1.97-1.5-3.63-3.47-3.8-18.37-1.75-32.74-17.23-32.74-36.06zm0 0" fill="#1ed688"/><path d="m494.2 398.64-172.48 87.46c-23.18 14.74-52.65 14.48-75.46-.2-10.7-6.9-14.06-7.58-70.36-35.4-25-12.25-47.8-16.14-84.94-20.72v-108.04h123.18c7.65 0 14.97 3.04 20.38 8.45 1.7 1.68-11.23-11.24 55.4 55.4 5.07 5.05 7.58 11.8 7.4 18.5l1.18-.82 180.8-45.5c23.95-3.04 34.68 28.3 14.9 40.86zm0 0" fill="#f2bb88"/><path d="m290.62 420.2c-9.5 9.85-25.15 10-34.85.32l-46.06-46.07c-2.45-2.47-5.8-3.85-9.27-3.85h-109.48v-48.86h123.18c7.65 0 14.98 3.04 20.38 8.44l55.4 55.4c9.4 9.4 10.08 24.92.7 34.63zm0 0" fill="#f2d1a5"/><path d="m97.12 318.74v133.56c0 1.9-.18 3.77-.5 5.58 0 0 0 0-.02 0-2.63 14.14-15.1 24.92-29.97 24.92h-28.6c-16.78 0-30.5-13.72-30.5-30.5v-133.55c0-14.95 10.9-27.46 25.13-30 1.75-.33 3.54-.5 5.36-.5h28.6c16.78 0 30.5 13.73 30.5 30.5zm0 0" fill="#919196"/><path d="m97.12 318.74v133.56c0 1.9-.18 3.77-.5 5.58 0 0 0 0-.02 0-1.75.32-3.54.48-5.37.48h-28.6c-16.77 0-30.5-13.72-30.5-30.5v-133.56c0-1.9.2-3.76.53-5.57 1.75-.32 3.54-.48 5.36-.48h28.6c16.78 0 30.5 13.72 30.5 30.5zm0 0" fill="#a0a0a5"/><path d="m70.36 434.77c0 9.96-8.07 18.03-18.04 18.03-9.96 0-18.03-8.07-18.03-18.03s8.06-18.04 18.02-18.04c9.97 0 18.04 8.07 18.04 18.04zm0 0" fill="#5a5f64"/><path d="m482.3 350.5c-6.88 0 5.72-1.75-178.4 44.12-1.47-5.1-4.22-9.93-8.24-13.94l-55.3-55.3c-6.84-6.85-15.96-10.63-25.65-10.63h-110.28c-2.08-19-18.24-33.85-37.8-33.85h-28.6c-20.98 0-38.03 17.05-38.03 38.02v133.58c0 20.96 17.05 38.02 38.02 38.02h28.6c20.96 0 38.03-17.06 38.03-38.03v-13.33c18.26 3.88 39.7 4.2 68.6 18.36 57.2 28.25 59.34 28.38 69.43 34.9 25.24 16.25 57.66 16.44 83.1.4l143.2-72.6c3.72-1.87 5.2-6.4 3.32-10.1-1.88-3.72-6.4-5.2-10.12-3.32-149.75 75.95-143.57 72.77-144.16 73.14-20.54 13.07-46.78 12.97-67.18-.18-11.3-7.27-14.8-7.98-70.97-35.76-31.58-15.45-55.22-15.86-75.22-20.1v-94.1h110.05c5.68 0 11.02 2.22 15.03 6.24l55.3 55.28c10.88 10.88 3.55 29.16-11.53 29.16-4.5 0-8.73-1.76-11.92-4.94l-49.8-49.82c-2.94-2.94-7.7-2.94-10.66 0s-2.94 7.7 0 10.65l49.82 49.82c17.95 17.9 48.86 8.77 53.7-16.24l176.04-44.3c8.77-.96 16.27 5.95 16.27 14.6 0 9.54-7.8 12.83-7.9 12.93-3.7 1.87-5.2 6.4-3.32 10.1 1.88 3.72 6.4 5.2 10.13 3.32l1.72-.88c7.54-3.8 14.42-14.07 14.42-25.47 0-16.4-13.33-29.76-29.7-29.76zm-392.7 102c0 12.66-10.32 22.97-22.98 22.97h-28.6c-12.65 0-22.96-10.3-22.96-22.98v-133.59c0-12.65 10.3-22.97 22.96-22.97h28.6c11.24 0 20.62 8.12 22.6 18.8.56 3.1.37 137.63.37 137.74zm-27.18-41.05c-3.82-1.64-8.25.13-9.9 3.94-1.64 3.8.13 8.24 3.95 9.9 10.5 4.5 7.17 20.15-4.15 20.15-7.12 0-12.16-6.95-10.02-13.68 1.26-3.97-.93-8.2-4.9-9.46-3.96-1.25-8.2.95-9.45 4.9-5.24 16.5 7.16 33.3 24.37 33.3 14.1 0 25.57-11.46 25.57-25.55 0-10.23-6.08-19.45-15.48-23.5zm24.53-218.61c4.07-.82 6.7-4.8 5.88-8.87-3.62-17.86 10.1-34.4 28.1-34.4 4.16 0 7.53-3.38 7.53-7.53v-19c0-7.63 6.2-13.82 13.8-13.82h19.07c4.16 0 7.53-3.37 7.53-7.53 0-.06 0-.1 0-.16.05-15.77 12.9-28.58 28.68-28.58s28.64 12.83 28.67 28.62v.1c0 4.17 3.38 7.54 7.54 7.54h19.05c7.6 0 13.8 6.2 13.8 13.8v12.13c-12.8 2.22-24.57 10.25-31.13 22.64-.13.24-.25.5-.35.74-3 5.93-4.7 12.62-4.7 19.7 0 4.9.82 9.63 2.32 14.04.06.25.13.5.22.75 5.38 14.95 18.56 25.66 33.65 28.3v12.22c0 7.63-6.2 13.82-13.8 13.82h-12.17c-3.55-20.57-21.52-36.27-43.1-36.27-21.55 0-39.5 15.68-43.08 36.28h-12.18c-7.62 0-13.8-6.2-13.8-13.83v-19.1c0-4.16-3.38-7.53-7.54-7.53-5.2 0-10.27-1.4-14.7-4.05-3.57-2.14-8.2-.98-10.33 2.6-2.13 3.56-.97 8.18 2.6 10.32 4.6 2.74 9.64 4.6 14.9 5.52v12.24c0 15.92 12.95 28.87 28.87 28.87h19.06c4.15 0 7.53-3.43 7.53-7.6 0-15.8 12.86-28.67 28.68-28.67 15.8 0 28.67 12.87 28.67 28.75 0 4.16 3.38 7.53 7.53 7.53h19.06c8.44 0 16.06-3.64 21.34-9.45 5.3 5.8 12.9 9.45 21.34 9.45h19.06c4.16 0 7.53-3.43 7.53-7.6 0-15.8 12.86-28.67 28.68-28.67 15.8 0 28.68 12.87 28.68 28.75 0 4.16 3.37 7.53 7.53 7.53h19.06c15.9 0 28.86-12.95 28.86-28.87v-19.1c0-4.17-3.38-7.54-7.53-7.54-15.82 0-28.68-12.87-28.68-28.68 0-15.8 12.86-28.68 28.68-28.68 4.17 0 7.53-3.37 7.53-7.53v-19c0-15.92-12.95-28.87-28.86-28.87h-19.06c-4.16 0-7.53 3.37-7.53 7.52-.02 15.8-12.9 28.64-28.68 28.64s-28.66-12.85-28.68-28.64c0-4.15-3.37-7.52-7.53-7.52h-19.06c-8.44 0-16.05 3.65-21.34 9.45-5.28-5.8-12.9-9.44-21.34-9.44h-12.17c-3.56-20.56-21.53-36.25-43.1-36.25s-39.54 15.69-43.1 36.26h-12.16c-15.92 0-28.87 12.95-28.87 28.87v12.12c-24.1 4.2-40.24 27.6-35.33 51.8.82 4.05 4.75 6.73 8.88 5.9zm187.2-43.28c4.15 0 7.52-3.37 7.52-7.52v-19c0-7.63 6.2-13.82 13.8-13.82h12.2c3.6 20.5 21.56 36.16 43.08 36.16 21.53 0 39.48-15.65 43.08-36.16h12.2c7.6 0 13.8 6.2 13.8 13.8v12.13c-20.54 3.58-36.22 21.54-36.22 43.1s15.68 39.5 36.23 43.08v12.22c0 7.63-6.2 13.82-13.8 13.82h-12.18c-3.55-20.57-21.52-36.27-43.1-36.27-21.55 0-39.52 15.68-43.1 36.28h-12.16c-7.6 0-13.8-6.2-13.8-13.83 0-11.6 0-6.94 0-19.1 0-3.97-3.12-7.52-7.66-7.54-5.96 0-12.04-1.9-17.23-5.86-21.75-16.6-10.05-51.48 17.34-51.48zm-25.63 146.62v19.25c0 4.15 3.37 7.52 7.52 7.52 4.16 0 7.53-3.37 7.53-7.52v-19.25c0-4.16-3.37-7.53-7.53-7.53-4.15 0-7.52 3.37-7.52 7.53zm7.52-261.88c4.16 0 7.53-3.37 7.53-7.53v-19.24c0-4.16-3.37-7.53-7.53-7.53-4.15 0-7.52 3.37-7.52 7.53v19.24c0 4.16 3.37 7.53 7.52 7.53zm-222.44 108.83h19.26c4.16 0 7.53-3.37 7.53-7.53 0-4.15-3.38-7.53-7.54-7.53h-19.25c-4.15 0-7.52 3.38-7.52 7.53 0 4.16 3.37 7.53 7.53 7.53zm60-105.68c14.04 11.1 14.93 14.13 19.58 14.13 7 0 10.22-8.8 4.85-13.3l-14.73-12.38c-3.2-2.66-7.95-2.24-10.62.94-2.68 3.18-2.26 7.93.93 10.6zm-39.32 220.59c2.5 0 2.45-.6 20.66-7.64 3.86-1.54 5.75-5.92 4.2-9.78-1.52-3.87-5.9-5.75-9.76-4.2l-17.88 7.1c-7.67 3.04-5.5 14.52 2.78 14.52zm418.1-104.94h19.25c4.16 0 7.53-3.36 7.53-7.5 0-4.17-3.37-7.55-7.54-7.55h-19.22c-4.16 0-7.52 3.38-7.52 7.54 0 4.14 3.36 7.5 7.52 7.5zm-35.05 135.48 14.74 12.37c3.2 2.68 7.95 2.24 10.6-.93 2.68-3.18 2.26-7.93-.92-10.6l-14.75-12.39c-3.18-2.67-7.93-2.25-10.6.93-2.67 3.2-2.26 7.94.93 10.6zm-44.51-243.48 15.16-11.87c3.28-2.56 3.86-7.3 1.3-10.56-2.56-3.28-7.3-3.86-10.57-1.3l-15.15 11.85c-3.27 2.56-3.85 7.3-1.3 10.57 2.57 3.27 7.3 3.84 10.57 1.3zm0 0"/></svg>