<svg enable-background="new 0 0 512.004 512.004" viewBox="0 0 512.004 512.004" xmlns="http://www.w3.org/2000/svg"><path d="m291.06 242.8c1.5 2.96 4.5 4.67 7.62 4.67 1.3 0 2.63-.3 3.86-.93.5-.26 50.73-25.77 75.5-33.6 4.5-1.42 7-6.22 5.56-10.7-1.42-4.5-6.18-7-10.7-5.58-26.1 8.25-76 33.6-78.1 34.67-4.2 2.14-5.88 7.27-3.74 11.48zm7.62-97.73c1.3 0 2.63-.3 3.86-.93.5-.25 50.73-25.77 75.5-33.6 4.5-1.42 7-6.22 5.56-10.7-1.42-4.5-6.18-7-10.7-5.58-26.1 8.26-76 33.6-78.1 34.67-4.2 2.14-5.88 7.27-3.74 11.48 1.5 2.96 4.5 4.67 7.62 4.67z"/><path d="m503.47 128c-4.72 0-8.53 3.83-8.53 8.54v332.8c0 14.1-11.5 25.6-25.6 25.6h-204.8v-19.64c12.44-4.35 44.85-14.5 76.8-14.5 74.33 0 124.8 16.47 125.3 16.64 2.58.85 5.44.42 7.7-1.18 2.2-1.6 3.53-4.18 3.53-6.92v-375.47c0-4-2.77-7.47-6.68-8.33 0 0-6.7-1.5-18.14-3.6-4.62-.84-9.08 2.23-9.93 6.85-.85 4.64 2.2 9.08 6.84 9.93 4.36.8 8.02 1.5 10.83 2.08v357.2c-19.34-5.07-62.27-14.26-119.47-14.26-37.18 0-73.7 12.2-85 16.35-10.04-4.45-40.4-16.36-77.13-16.36-58.78 0-107.2 9.7-128 14.62v-357.87c17.04-4.2 67.37-15.14 128-15.14 31.1 0 57.8 9.68 68.27 14.06v335.8c0 3.08 1.65 5.92 4.32 7.43 2.66 1.52 5.96 1.47 8.6-.1.84-.52 85.4-51.02 160.43-76.03 3.5-1.17 5.84-4.42 5.84-8.1v-349.86c0-2.8-1.38-5.42-3.68-7.02-2.3-1.6-5.23-1.96-7.87-.98-68.27 25.6-137.36 68.6-138.05 69.03-4 2.5-5.22 7.76-2.72 11.76s7.76 5.2 11.76 2.7c.63-.4 60.74-37.78 123.48-63.02v331.3c-58.25 20.24-119.07 53.3-145.07 68.08v-326.51c0-3.24-1.82-6.2-4.7-7.65-1.48-.72-36.45-17.96-80.63-17.96-77.1 0-136.4 16.68-138.88 17.4-3.66 1.04-6.2 4.4-6.2 8.2v375.47c0 2.67 1.28 5.2 3.4 6.8 1.5 1.14 3.3 1.73 5.15 1.73.78 0 1.57-.1 2.34-.33.6-.16 59.6-16.74 134.2-16.74 31.2 0 57.86 9.72 68.27 14.08v20.06h-204.78c-14.12 0-25.6-11.5-25.6-25.6v-332.8c0-4.7-3.83-8.54-8.54-8.54s-8.53 3.83-8.53 8.54v332.8c0 23.52 19.14 42.66 42.67 42.66h426.67c23.52 0 42.66-19.14 42.66-42.66v-332.8c0-4.7-3.8-8.54-8.53-8.54z" fill="#c6c09c"/><path d="m291.06 191.6c1.5 2.96 4.5 4.67 7.62 4.67 1.3 0 2.63-.3 3.86-.93.5-.26 50.73-25.77 75.5-33.6 4.5-1.42 7-6.22 5.56-10.7-1.42-4.5-6.18-7-10.7-5.58-26.1 8.25-76 33.6-78.1 34.67-4.2 2.14-5.88 7.27-3.74 11.48zm0 102.4c1.5 2.96 4.5 4.67 7.62 4.67 1.3 0 2.63-.3 3.86-.93.5-.26 50.73-25.77 75.5-33.6 4.5-1.42 7-6.22 5.56-10.7-1.42-4.5-6.18-7-10.7-5.58-26.1 8.25-76 33.6-78.1 34.67-4.2 2.14-5.88 7.28-3.74 11.48zm-84.31-135.63c-52.7-12.37-112.57 3.38-115.1 4.06-4.54 1.22-7.24 5.9-6.02 10.45 1.02 3.82 4.47 6.32 8.23 6.32.73 0 1.48-.1 2.22-.3.57-.15 58.22-15.3 106.78-3.92 4.56 1.07 9.18-1.77 10.25-6.37 1.1-4.57-1.76-9.16-6.35-10.23zm0 51.2c-52.7-12.36-112.57 3.38-115.1 4.06-4.54 1.22-7.24 5.9-6.02 10.45 1.02 3.82 4.47 6.32 8.23 6.32.73 0 1.48-.1 2.22-.3.57-.15 58.22-15.3 106.78-3.92 4.56 1.07 9.18-1.77 10.25-6.37 1.1-4.57-1.76-9.16-6.35-10.23zm84.31 135.63c1.5 2.96 4.5 4.67 7.62 4.67 1.3 0 2.63-.3 3.86-.93.5-.26 50.73-25.77 75.5-33.6 4.5-1.42 7-6.22 5.56-10.7-1.42-4.5-6.18-7-10.7-5.58-26.1 8.25-76 33.6-78.1 34.67-4.2 2.14-5.88 7.27-3.74 11.48zm-84.31-84.43c-52.7-12.36-112.57 3.38-115.1 4.06-4.54 1.22-7.24 5.9-6.02 10.45 1.02 3.82 4.47 6.33 8.23 6.33.73 0 1.48-.1 2.22-.3.57-.15 58.22-15.3 106.78-3.92 4.56 1.07 9.18-1.77 10.25-6.37 1.1-4.57-1.76-9.16-6.35-10.23zm0 102.4c-52.7-12.37-112.57 3.38-115.1 4.06-4.54 1.22-7.24 5.9-6.02 10.45 1.02 3.8 4.47 6.33 8.23 6.33.73 0 1.48-.1 2.22-.3.57-.15 58.22-15.3 106.78-3.92 4.56 1.06 9.18-1.77 10.25-6.37 1.1-4.57-1.76-9.16-6.35-10.23zm0-51.2c-52.7-12.37-112.57 3.37-115.1 4.06-4.54 1.22-7.24 5.9-6.02 10.45 1.02 3.8 4.47 6.33 8.23 6.33.73 0 1.48-.1 2.22-.3.57-.15 58.22-15.3 106.78-3.92 4.56 1.07 9.18-1.77 10.25-6.37 1.1-4.57-1.76-9.16-6.35-10.23z"/></svg>