<svg height="512pt" viewBox="-24 0 512 512" width="512pt" xmlns="http://www.w3.org/2000/svg"><path d="m408.35 456.27h-135c-8.38 0-20.2-4.66-26.36-10.38l-59.72-55.6c-2.07-1.92-3.23-4.6-3.23-7.43v-2.5c0-5.62 4.54-10.17 10.15-10.17h17.85c2.7 0 5.27 1.07 7.18 2.98l42.9 42.9c2.84 2.84 6.62 4.4 10.65 4.4 4.02 0 7.8-1.56 10.63-4.4l16.14-16.12c2.83-2.82 4.4-6.6 4.4-10.63s-1.58-7.8-4.4-10.63l-64.63-64.63c-5.85-5.86-17.37-10.63-25.66-10.63h-54.65v138.3l54.95 52.27c6.08 5.8 17.86 10.5 26.26 10.5h172.55c8.4 0 15.23-6.83 15.23-15.23v-17.77c0-8.4-6.83-15.23-15.23-15.23zm0 0" fill="#ffb98a"/><path d="m382 432.92h-18.8v23.35h34v-8.16c0-8.37-6.8-15.18-15.17-15.18zm0 0" fill="#ffd5b3"/><path d="m399.26 303.27c-5.55-57.43-54.28-102.34-113.6-102.34s-108.02 44.9-113.57 102.34zm0 0" fill="#e6e9ed"/><path d="m247 445.9c6.14 5.7 17.97 10.37 26.36 10.37h89.82v-24.7h-131.6zm0 0" fill="#fb8276"/><path d="m433.45 305.77c-.9-1.55-2.56-2.5-4.35-2.5h-216.76v.37c7.87.96 17.4 5.27 22.57 10.43l64.64 64.63c2.82 2.82 4.38 6.6 4.38 10.63s-1.56 7.8-4.38 10.63l-16.15 16.14c-2.82 2.82-6.6 4.38-10.63 4.38s-7.8-1.56-10.63-4.4l-42.92-42.9c-1.9-1.9-4.48-2.98-7.17-2.98h-17.85c-5.6 0-10.15 4.55-10.15 10.16v2.5c0 2.83 1.16 5.52 3.23 7.44l44.3 41.26h131.6l70.27-120.8c.9-1.55.9-3.46 0-5zm0 0" fill="#ef5050"/><path d="m83.4 293.02h-70.67c-2.88 0-5.23 2.35-5.23 5.23v151.85c0 2.88 2.35 5.24 5.23 5.24h70.67zm0 0" fill="#dd7814"/><path d="m88.63 282.34c-2.88 0-5.23 2.36-5.23 5.23v173.2c0 2.9 2.35 5.24 5.23 5.24h60.73c2.88 0 5.23-2.34 5.23-5.22v-173.2c0-2.88-2.36-5.24-5.24-5.24h-60.72zm0 0" fill="#f7931e"/><path d="m287.34 83.26h20.73c12.84 0 23.28 10.33 23.28 23.03s-10.44 23.03-23.28 23.03h-49.8c-4.13 0-7.5 3.36-7.5 7.5s3.37 7.5 7.5 7.5h49.8c21.1 0 38.28-17.06 38.28-38.04s-17.17-38.04-38.28-38.04h-20.73c-4.14 0-7.5 3.36-7.5 7.5s3.36 7.5 7.5 7.5zm-51.41 0h15.2c4.14 0 7.5-3.36 7.5-7.5s-3.36-7.5-7.5-7.5h-15.2c-14.84 0-26.9-11.95-26.9-26.63s12.07-26.63 26.9-26.63h30.35c4.14 0 7.5-3.36 7.5-7.5s-3.36-7.5-7.5-7.5h-30.35c-23.1 0-41.9 18.68-41.9 41.63s18.8 41.63 41.9 41.63zm198.87 12.2h-15.45c-4.14 0-7.5 3.35-7.5 7.5 0 4.14 3.36 7.5 7.5 7.5h15.45c8.2 0 14.88 6.6 14.88 14.7s-6.68 14.74-14.88 14.74h-44.43c-14.48 0-26.26 11.7-26.26 26.1v12.1c0 4.14 3.37 7.5 7.5 7.5 4.15 0 7.5-3.36 7.5-7.5v-12.1c0-6.1 5.06-11.1 11.27-11.1h44.43c16.48 0 29.88-13.33 29.88-29.7 0-16.4-13.4-29.72-29.88-29.72zm-5.7 200.31h-23.24c-8.97-57.87-59.44-102.34-120.2-102.34-60.73 0-111.2 44.47-120.17 102.34h-3.4v-8.2c0-7.02-5.72-12.73-12.74-12.73h-60.72c-6.32 0-11.56 4.63-12.55 10.68h-63.35c-7.03 0-12.73 5.7-12.73 12.73v151.85c0 7.02 5.7 12.74 12.73 12.74h63.35c1 6.04 6.23 10.67 12.55 10.67h60.73c7.02 0 12.73-5.7 12.73-12.72v-1.56l42.28 40.22c7.53 7.15 21.03 12.55 31.43 12.55h172.55c12.53 0 22.72-10.2 22.72-22.73v-17.77c0-12.54-10.2-22.73-22.72-22.73h-3.66v-.66c0-12.5-10.2-22.68-22.7-22.68h-6.57l64.5-110.9c2.25-3.87 2.25-8.66 0-12.54-2.24-3.83-6.4-6.2-10.83-6.2zm-414.1 4.75h60.9v147.32h-60.9zm393.35 163.25c4.26 0 7.72 3.46 7.72 7.73v17.77c0 4.26-3.46 7.73-7.72 7.73h-172.55c-6.5 0-16.36-3.94-21.08-8.43l-52.63-50.05v-79.52c0-4.14-3.36-7.5-7.5-7.5s-7.5 3.36-7.5 7.5v99.5h-56.19v-168.65h56.2v33.15c0 4.14 3.35 7.5 7.5 7.5s7.5-3.36 7.5-7.5v-12.06h47.14c6.35 0 15.87 3.94 20.37 8.44l64.63 64.62c1.4 1.4 2.2 3.3 2.2 5.33s-.8 3.92-2.2 5.33l-16.14 16.14c-1.4 1.4-3.3 2.18-5.33 2.18-2.05 0-3.9-.76-5.33-2.2l-42.9-42.9c-3.3-3.3-7.85-5.18-12.5-5.18h-17.84c-9.74 0-17.66 7.92-17.66 17.66v2.5c0 4.9 2.05 9.6 5.63 12.94l59.7 55.58c7.6 7.06 21.13 12.4 31.5 12.4zm-52.67-24.7v9.7h-82.32c-6.54 0-16.47-3.9-21.26-8.37l-1.44-1.34zm-121.14-15-42.14-39.27c-.54-.5-.85-1.2-.85-1.95v-2.5c0-1.48 1.18-2.67 2.65-2.67h17.85c.7 0 1.38.28 1.87.78l42.92 42.9c1 1 2.08 1.9 3.22 2.68zm147.46 16.33c4.24 0 7.7 3.45 7.7 7.7v.65h-19.02v-8.35zm-23.13-16.36h-73.37c1.13-.78 2.2-1.67 3.2-2.67l16.14-16.13c4.25-4.25 6.58-9.9 6.58-15.94 0-6.03-2.33-11.7-6.58-15.94l-62.63-62.63h81.14c4.14 0 7.5-3.36 7.5-7.5s-3.36-7.5-7.5-7.5h-142.67c8.82-49.56 52.55-87.34 105-87.34 52.44 0 96.16 37.78 104.98 87.34h-30.32c-4.14 0-7.5 3.36-7.5 7.5s3.36 7.5 7.5 7.5h64.42zm-241.04-10.36c-4.14 0-7.5 3.37-7.5 7.5v12.87c0 4.15 3.36 7.5 7.5 7.5s7.5-3.35 7.5-7.5v-12.85c0-4.15-3.35-7.52-7.5-7.52zm173.69-192.46h-7.03c-4.15 0-7.5 3.36-7.5 7.5s3.35 7.5 7.5 7.5h7.02c4.14 0 7.5-3.36 7.5-7.5s-3.36-7.5-7.5-7.5zm-36.66 20.94h-7.03c-4.14 0-7.5 3.36-7.5 7.5s3.36 7.5 7.5 7.5h7.03c4.14 0 7.5-3.36 7.5-7.5s-3.36-7.5-7.5-7.5zm73.32 0h-7.02c-4.15 0-7.5 3.36-7.5 7.5s3.35 7.5 7.5 7.5h7.02c4.15 0 7.5-3.36 7.5-7.5s-3.36-7.5-7.5-7.5zm-102.95 25.92h-7.03c-4.15 0-7.5 3.36-7.5 7.5s3.35 7.5 7.5 7.5h7.03c4.14 0 7.5-3.36 7.5-7.5s-3.36-7.5-7.5-7.5zm66.29 0h-7.03c-4.15 0-7.5 3.36-7.5 7.5s3.35 7.5 7.5 7.5h7.02c4.14 0 7.5-3.36 7.5-7.5s-3.36-7.5-7.5-7.5zm73.8 7.5c0-4.14-3.36-7.5-7.5-7.5h-7.03c-4.16 0-7.5 3.36-7.5 7.5s3.34 7.5 7.5 7.5h7.02c4.14 0 7.5-3.35 7.5-7.5zm0 0"/></svg>