<svg xmlns="http://www.w3.org/2000/svg" viewBox="0 -66 511.99951 511"><path fill="#ffd4b8" d="M77 147.74v97.95h29.3c3.72 0 8.42 15.42 13 42 5.7 33.16 24.85 82.34 90.2 82.34l260.12.07c18.18 0 32.87-14.98 32.37-33.28-.5-17.64-15.4-31.48-33.06-31.48H359.3M191.34 237.32L305.6 330c13.96 11.17 34.35 8.9 45.52-5.05 11.18-13.97 8.92-34.35-5.05-45.53L209.5 160.36c-29.83-27.26-103.12-22.65-131.35-19.7-.4.05-.78.1-1.15.13v9.05"/><path fill="#ff6a81" d="M381.8 228.55c-11.9 0-18.7-4.24-31.07-11.95-5.8-3.6-14.73-9.36-24.4-16.25-37.23-26.55-48.57-43.7-53.86-54.26-10.38-20.8-13.45-44.5-8.64-66.77 5-23.1 17.8-42.7 36.08-55.15 13.15-8.95 28.46-13.68 44.3-13.68 6.34 0 12.78.76 19.14 2.26 7.13 1.68 13.2 4.2 18.46 7.18 5.27-2.98 11.33-5.5 18.47-7.18 6.35-1.5 12.8-2.26 19.14-2.26 15.85 0 31.16 4.73 44.3 13.68 18.27 12.46 31.1 32.05 36.08 55.15 4.8 22.27 1.74 45.98-8.65 66.76-5.3 10.56-16.62 27.7-53.86 54.25-9.66 6.9-18.6 12.64-24.4 16.25-12.36 7.7-19.18 11.95-31.07 11.95zm0 0"/><path d="M381.8 238.55c-14.75 0-23.34-5.35-36.36-13.46-5.92-3.7-15.05-9.57-24.92-16.6-39.04-27.86-51.22-46.4-57-57.95-11.4-22.8-14.76-48.84-9.47-73.33 5.54-25.63 19.83-47.4 40.23-61.3C309.08 5.82 326.34.5 344.2.5c7.12 0 14.33.85 21.43 2.52 5.65 1.33 11.07 3.23 16.17 5.66 5.1-2.43 10.53-4.33 16.17-5.66C405.07 1.35 412.3.5 419.4.5c17.86 0 35.12 5.33 49.92 15.42 20.4 13.9 34.7 35.67 40.23 61.3 5.3 24.5 1.93 50.53-9.47 73.34-5.77 11.53-17.95 30.08-57 57.93-9.87 7.03-19 12.9-24.92 16.6-13 8.1-21.6 13.45-36.36 13.45zM344.2 20.5c-13.82 0-27.18 4.13-38.65 11.95-16.15 11-27.5 28.4-31.95 49-4.33 20.05-1.56 41.42 7.82 60.16 4.8 9.64 15.3 25.35 50.72 50.6 9.45 6.75 18.2 12.38 23.88 15.9 11.85 7.4 16.76 10.45 25.78 10.45 9.03 0 13.94-3.05 25.8-10.44 5.67-3.52 14.42-9.15 23.87-15.9 35.42-25.25 45.9-40.96 50.72-50.6 9.37-18.73 12.14-40.1 7.8-60.15-4.45-20.6-15.8-38-31.94-49-11.47-7.82-24.83-11.95-38.65-11.95-5.56 0-11.24.67-16.84 2-5.73 1.34-10.9 3.35-15.83 6.14-3.05 1.73-6.8 1.73-9.86 0-4.92-2.8-10.1-4.8-15.82-6.15-5.6-1.33-11.28-2-16.85-2zm0 0"/><path fill="#ff4f4f" d="M430.86 154.96c10.83-8.93 20.32-18.4 24.5-26.76 6.33-12.66 8.22-27.02 5.32-40.42-2.82-13.04-9.75-23.9-19.5-30.54-9.3-6.33-20.27-8.25-31.73-5.55-11.5 2.7-16.5 9.88-27.65 21.35-11.12-11.47-16.13-18.65-27.64-21.36-11.46-2.7-22.43-.8-31.72 5.54-9.76 6.65-16.7 17.5-19.5 30.54-2.9 13.4-1.02 27.76 5.3 40.42 12.55 25.1 73.1 60.35 73.56 60.35"/><path d="M381.8 198.55c-2.86 0-3.3 0-15.2-7.4-5.44-3.4-13.8-8.78-22.85-15.22-23.53-16.8-38.48-31.34-44.44-43.26-7.34-14.7-9.52-31.38-6.15-47 3.37-15.56 11.77-28.6 23.66-36.7 11.68-7.95 25.4-10.37 39.66-7 11.4 2.68 17.93 8.76 25.34 16.55 7.4-7.8 13.94-13.87 25.35-16.56 14.26-3.37 27.98-.94 39.65 7.02 11.9 8.1 20.3 21.13 23.66 36.7 3.37 15.6 1.2 32.3-6.16 47-4.4 8.77-13.25 18.6-27.08 30-4.26 3.5-10.56 2.9-14.07-1.36-3.52-4.26-2.9-10.56 1.35-14.07 14.3-11.8 19.8-19.3 21.9-23.53 5.33-10.63 6.93-22.64 4.5-33.83-2.27-10.53-7.72-19.2-15.36-24.4-7-4.77-15.02-6.15-23.8-4.08-6.44 1.52-9.85 4.94-17.62 13.2-1.58 1.67-3.28 3.47-5.14 5.4-1.88 1.93-4.47 3.02-7.18 3.02-2.7 0-5.3-1.1-7.17-3.03-1.86-1.9-3.56-3.7-5.14-5.4-7.78-8.25-11.2-11.66-17.63-13.18-8.8-2.07-16.8-.7-23.8 4.08-7.64 5.2-13.1 13.87-15.37 24.4-2.42 11.18-.82 23.2 4.5 33.82 9.7 19.4 58.5 50.24 68.82 55.76 3.42 1.6 5.78 5.06 5.78 9.07 0 5.53-4.47 10-10 10zm.03-20zm-.03 0h.02s0 0-.02 0zm0 0M165.7 225.7c-2.63 0-5.2-1.07-7.07-2.93-.46-.47-.88-.98-1.24-1.52-.37-.55-.68-1.13-.93-1.73-.25-.6-.44-1.23-.57-1.87-.13-.65-.2-1.3-.2-1.95 0-.66.07-1.3.2-1.96.13-.64.32-1.28.57-1.87.25-.6.56-1.18.92-1.73.35-.54.77-1.06 1.23-1.52 2.32-2.32 5.78-3.38 9.03-2.73.64.12 1.27.3 1.87.56.6.25 1.18.56 1.72.9.55.38 1.06.8 1.52 1.26.47.46.88.98 1.25 1.52.36.55.67 1.13.92 1.73.25.6.44 1.23.57 1.87.14.65.2 1.3.2 1.96 0 .65-.06 1.3-.2 1.95-.12.64-.3 1.27-.56 1.87-.25.6-.56 1.18-.92 1.73-.37.54-.78 1.05-1.25 1.52-.46.46-.97.87-1.52 1.24-.54.37-1.12.68-1.72.93-.6.25-1.23.44-1.87.57-.65.12-1.3.2-1.96.2zm0 0"/><path fill="#5396a8" d="M10 120.33h67v159.5H10zm0 0"/><path d="M77 289.83H10c-5.52 0-10-4.47-10-10v-159.5c0-5.52 4.48-10 10-10h67c5.52 0 10 4.48 10 10v159.5c0 5.53-4.48 10-10 10zm-57-20h47v-139.5H20zm0 0"/><path fill="#5396a8" d="M10 120.33h67v159.5H10zm0 0"/><path d="M511.98 336.54c-.62-22.72-19.93-41.2-43.04-41.2h-101.8c-2-8.98-6.96-17.36-14.65-23.6L216.15 152.9c-28.95-26.34-89.7-26.4-129.16-23.1v-9.47c0-5.52-4.48-10-10-10H10c-5.52 0-10 4.48-10 10v159.5c0 5.53 4.48 10 10 10h67c5.52 0 10-4.47 10-10V255.7h14.56c1.5 3.88 4.33 13.12 7.88 33.7 10.05 58.45 45.6 90.64 100.05 90.64l260.1.07c11.56 0 22.35-4.54 30.4-12.8 8.04-8.3 12.3-19.2 11.98-30.76zM67 269.84H20v-139.5h47zm418.66 83.5c-4.25 4.37-9.95 6.77-16.04 6.77l-260.13-.06c-55.9 0-74.54-40.26-80.36-74.03-2.35-13.7-4.75-24.54-7.1-32.2-1.95-6.34-5.57-18.1-15.73-18.1H87v-85.82c28.2-2.38 91.03-4.74 115.76 17.86.05.05.1.1.17.16L339.5 286.96c.1.1.2.18.32.27 9.64 7.7 11.2 21.83 3.5 31.47-7.72 9.63-21.84 11.2-31.42 3.53l-114.27-92.68c-4.3-3.48-10.58-2.82-14.06 1.47-3.48 4.3-2.82 10.6 1.47 14.07l114.3 92.7c7.6 6.07 16.83 9.3 26.4 9.3 1.6 0 3.17-.1 4.76-.27 11.26-1.24 21.35-6.8 28.43-15.64 3.85-4.83 6.48-10.24 7.93-15.86h102.08c12.38 0 22.72 9.75 23.05 21.75.16 6.1-2.1 11.87-6.34 16.24zm0 0"/></svg>