<svg xmlns="http://www.w3.org/2000/svg" viewBox="0 0 144.21 144.21"><defs><style>.cls-1{fill:rgba(232,198,22,0.8);}</style></defs><g><g><circle class="cls-1" cx="72.11" cy="88.58" r="7.64"/><circle class="cls-1" cx="87.8" cy="72.11" r="6.27"/><circle class="cls-1" cx="85.04" cy="51.47" r="2.76"/><circle class="cls-1" cx="72.11" cy="60.03" r="4.43"/><path class="cls-1" d="M72.11,0a72.11,72.11,0,1,0,72.11,72.11A72.11,72.11,0,0,0,72.11,0ZM94.19,91.11c-12.36,9.25-22.09,15-22.09,15s-9.72-5.72-22.09-15C24.24,71.81,31.64,47.74,45.47,40.8c20-10,26.64,11.52,26.64,11.52S78.77,30.77,98.75,40.8C112.57,47.74,120,71.81,94.19,91.11Z"/><circle class="cls-1" cx="98.59" cy="58.02" r="1.69"/><circle class="cls-1" cx="95.62" cy="46.22" r="0.89"/></g></g></svg>