<svg xmlns="http://www.w3.org/2000/svg" enable-background="new 0 0 470 470" viewBox="0 0 470 470"><path d="M422.93 410.67c0-16.18-13.16-29.34-29.33-29.34h-72.1c-4.15 0-7.5 3.36-7.5 7.5s3.35 7.5 7.5 7.5h72.1c7.9 0 14.33 6.43 14.33 14.34 0 1.4-.2 2.78-.6 4.1-4.1-2.2-8.77-3.44-13.73-3.44h-97.67c2.44-4.33 3.74-9.23 3.74-14.33 0-7.83-3.05-15.2-8.6-20.74l-82.65-82.66c-12-12-34.72-21.4-51.7-21.4H54.57c-4.14 0-7.5 3.35-7.5 7.5s3.36 7.5 7.5 7.5h102.15c13.05 0 31.87 7.78 41.1 17l82.65 82.67c2.7 2.7 4.2 6.3 4.2 10.13 0 3.83-1.5 7.43-4.2 10.14-5.6 5.6-14.68 5.58-20.27 0l-67.18-67.18c-2.93-2.93-7.67-2.93-10.6 0-2.93 2.93-2.93 7.68 0 10.6l67.17 67.18c5.58 5.6 12.88 8.44 20.22 8.57.17.02.34.03.52.03H393.6c7.9 0 14.33 6.43 14.33 14.34S401.5 455 393.6 455l-137.64-.12c-3.67 0-9.9-1.63-13.17-3.42l-139.9-86.4c-.1-.05-.18-.1-.27-.15-5.48-3.07-14.35-5.4-20.64-5.4H54.56c-4.14 0-7.5 3.37-7.5 7.5s3.36 7.5 7.5 7.5H82c3.66 0 9.9 1.63 13.16 3.42l139.9 86.4c.08.05.17.1.26.15 5.48 3.08 14.35 5.4 20.63 5.4l137.65.13c16.17 0 29.33-13.16 29.33-29.33 0-5.48-1.5-10.6-4.13-15 2.68-4.5 4.13-9.65 4.13-15z"/><path fill="#c6c09c" d="M73.4 98c1.1 0 2.22-.23 3.27-.74l4.74-2.3v154.73c0 4.13 3.37 7.5 7.5 7.5s7.5-3.37 7.5-7.5V87.66l148-71.83 148 71.83v263.66h-77.75v-191.7c0-4.14-3.36-7.5-7.5-7.5H181.68c-4.14 0-7.5 3.36-7.5 7.5v93.96c0 4.13 3.36 7.5 7.5 7.5s7.5-3.37 7.5-7.5v-86.47h110.47v191.7c0 4.15 3.35 7.5 7.5 7.5h92.76c4.16 0 7.5-3.35 7.5-7.5V94.96l4.76 2.3c3.72 1.8 8.2.26 10.02-3.47 1.8-3.72.25-8.2-3.48-10.02l-89.04-43.22V7.5c0-4.14-3.35-7.5-7.5-7.5s-7.5 3.36-7.5 7.5v25.76L247.7.76c-2.08-1-4.5-1-6.56 0l-171.02 83c-3.73 1.8-5.28 6.3-3.47 10.02 1.3 2.67 3.97 4.23 6.75 4.23z"/></svg>