<svg xmlns="http://www.w3.org/2000/svg" width="496pt" height="496pt" viewBox="0 -2 496 496"><path fill="#ef7385" d="M488 386.72c0 8.56-3.2 16.8-8.88 23.2L416 480l-63.12-70.08c-5.68-6.4-8.88-14.64-8.88-23.2 0-19.2 15.52-34.72 34.72-34.72h2.8c6.8 0 13.52 2 19.2 5.84L416 368l15.28-10.16c5.68-3.84 12.4-5.84 19.2-5.84h2.8c9.6 0 18.24 3.84 24.56 10.16S488 377.12 488 386.72zm0 0"/><path fill="#f0d0b4" d="M144 296l19.2 25.6c3.04 4 7.76 6.4 12.8 6.4h40l121.92-76.24c4-2.48 8.56-3.76 13.2-3.76 13.76 0 24.88 11.12 24.88 24.88v1.84c0 8.32-4.16 16.08-11.04 20.64l-120.88 80.56c-7.84 5.28-17.12 8.08-26.64 8.08H104c-10.4 0-20.48 3.36-28.8 9.6L24 432H8V328l53.68-53.68c6.88-6.88 14.72-12.56 23.36-16.8 12.48-6.24 26.24-9.52 40.16-9.52H200c6.64 0 12.64 2.72 16.96 7.04S224 265.36 224 272c0 13.28-10.72 24-24 24zm0 0M352 168l-19.2-25.6c-3.04-4-7.76-6.4-12.8-6.4h-40l-121.92 76.24c-4 2.48-8.56 3.76-13.2 3.76-13.76 0-24.88-11.12-24.88-24.88v-1.84c0-8.32 4.16-16.08 11.04-20.64l120.88-80.56c7.84-5.28 17.12-8.08 26.64-8.08H392c10.4 0 20.48-3.36 28.8-9.6L472 32h16v104l-53.68 53.68c-6.88 6.88-14.72 12.56-23.36 16.8-12.48 6.24-26.24 9.52-40.16 9.52H296c-6.64 0-12.64-2.72-16.96-7.04S272 198.64 272 192c0-13.28 10.72-24 24-24zm0 0"/><path fill="#ef7385" d="M152 42.72c0 8.56-3.2 16.8-8.88 23.2L80 136 16.88 65.92C11.2 59.52 8 51.28 8 42.72 8 23.52 23.52 8 42.72 8h2.8c6.8 0 13.52 2 19.2 5.84L80 24l15.28-10.16C100.96 10 107.68 8 114.48 8h2.8c9.6 0 18.24 3.84 24.56 10.16S152 33.12 152 42.72zm0 0"/><path d="M80 147.96l69.04-76.7c7.07-7.87 10.96-18 10.96-28.57C160 19.14 140.85 0 117.3 0h-2.8c-8.45 0-16.64 2.48-23.68 7.17L80 14.37l-10.83-7.2C62.14 2.47 53.95 0 45.5 0h-2.8C19.14 0 0 19.15 0 42.7c0 10.55 3.9 20.7 10.96 28.55zM42.7 16h2.8c5.3 0 10.4 1.55 14.8 4.48L80 33.62l19.7-13.14c4.4-2.93 9.5-4.48 14.8-4.48h2.8c14.73 0 26.7 11.98 26.7 26.7 0 6.6-2.44 12.93-6.85 17.84L80 124.04l-57.15-63.5C18.45 55.64 16 49.3 16 42.7 16 27.97 27.97 16 42.7 16zm0 0M453.3 344h-2.8c-8.47 0-16.65 2.48-23.68 7.17l-10.82 7.2-10.82-7.2c-7.03-4.7-15.22-7.17-23.68-7.17h-2.8c-23.55 0-42.7 19.15-42.7 42.7 0 10.55 3.9 20.7 10.96 28.54L416 491.96l69.04-76.72c7.07-7.84 10.96-18 10.96-28.55 0-23.55-19.15-42.7-42.7-42.7zm19.85 60.54L416 468.04l-57.15-63.5c-4.42-4.9-6.85-11.25-6.85-17.85 0-14.73 11.97-26.7 26.7-26.7h2.8c5.3 0 10.4 1.54 14.8 4.5L416 377.6l19.7-13.14c4.4-2.94 9.5-4.48 14.8-4.48h2.8c14.73 0 26.7 11.97 26.7 26.7 0 6.6-2.43 12.93-6.85 17.84zm0 0M104 392h113.47c11.1 0 21.83-3.25 31.07-9.4l120.83-80.56c9.16-6.1 14.63-16.34 14.63-27.35v-1.84c0-18.12-14.74-32.86-32.86-32.86-6.17 0-12.2 1.73-17.43 5l-120 75H176c-2.5 0-4.9-1.2-6.4-3.2L160 304h40c17.65 0 32-14.35 32-32s-14.35-32-32-32h-74.8c-15.1 0-30.23 3.57-43.74 10.33-9.4 4.7-17.96 10.85-25.43 18.32L0 324.7V440h26.66L80 400c6.87-5.16 15.4-8 24-8zm-82.66 32H16v-92.7l51.35-51.34c6.24-6.23 13.4-11.4 21.27-15.32 11.3-5.66 23.94-8.64 36.58-8.64H200c8.82 0 16 7.18 16 16s-7.18 16-16 16h-58.66l-34.14 25.6 9.6 12.8 25.6-19.2 14.4 19.2c4.5 6 11.7 9.6 19.2 9.6h42.3l123.9-77.44c2.67-1.68 5.77-2.56 8.93-2.56 9.3 0 16.87 7.57 16.87 16.86v1.83c0 5.64-2.8 10.9-7.5 14.03l-120.84 80.55c-6.6 4.4-14.27 6.72-22.2 6.72H104c-12.05 0-23.98 3.98-33.6 11.2zm0 0M224 432h16v16h-16zm0 0M224 464h16v16h-16zm0 0M240 448h16v16h-16zm0 0M208 448h16v16h-16zm0 0M32 184h16v16H32zm0 0M32 216h16v16H32zm0 0M48 200h16v16H48zm0 0M16 200h16v16H16zm0 0M432 248h16v16h-16zm0 0M432 280h16v16h-16zm0 0M448 264h16v16h-16zm0 0M416 264h16v16h-16zm0 0M368 0h16v16h-16zm0 0M368 32h16v16h-16zm0 0M384 16h16v16h-16zm0 0M352 16h16v16h-16zm0 0M96 416h16v16H96zm0 0M96 448h16v16H96zm0 0M112 432h16v16h-16zm0 0M80 432h16v16H80zm0 0M469.34 24L416 64c-6.87 5.16-15.4 8-24 8H278.53c-11.1 0-21.83 3.26-31.07 9.4l-120.83 80.56c-9.16 6.1-14.63 16.34-14.63 27.35v1.84c0 18.12 14.74 32.86 32.86 32.86 6.17 0 12.2-1.73 17.43-5l120-75H320c2.5 0 4.9 1.2 6.4 3.2L336 160h-40c-17.65 0-32 14.35-32 32s14.35 32 32 32h74.8c15.1 0 30.23-3.57 43.74-10.33 9.42-4.7 17.97-10.87 25.43-18.33L496 139.3V24zM480 132.7l-51.35 51.33c-6.24 6.24-13.4 11.4-21.27 15.33-11.3 5.66-23.95 8.64-36.58 8.64H296c-8.82 0-16-7.18-16-16s7.18-16 16-16h58.66l34.14-25.6-9.6-12.8-25.6 19.2-14.4-19.2c-4.5-6-11.68-9.6-19.2-9.6h-42.3l-123.9 77.44c-2.67 1.67-5.77 2.56-8.94 2.56-9.3 0-16.86-7.57-16.86-16.86v-1.83c0-5.64 2.8-10.9 7.5-14.02l120.84-80.56c6.6-4.4 14.27-6.72 22.2-6.72H392c12.05 0 23.98-3.98 33.6-11.2L474.65 40H480zm0 0"/></svg>