<?xml version="1.0" encoding="utf-8"?>
<!-- Generator: Adobe Illustrator 25.0.0, SVG Export Plug-In . SVG Version: 6.00 Build 0)  -->
<svg version="1.1" id="Layer_1" xmlns="http://www.w3.org/2000/svg" xmlns:xlink="http://www.w3.org/1999/xlink" x="0px" y="0px"
	 viewBox="0 0 841.9 595.3" style="enable-background:new 0 0 841.9 595.3;" xml:space="preserve">
<style type="text/css">
	.st0{fill:#FFFFFC;}
	.st1{fill:#FDD413;}
	.st2{fill:#FFFFFF;}
</style>
<g>
	<path class="st0" d="M256.4,264.6c-1.5,3.4-3.4,6.3-5.9,8.8c-2.5,2.5-5.4,4.5-8.8,5.9c-3.4,1.5-7,2.2-10.8,2.2h-53.4v-27.2H190V269
		h40.8c4.2,0,7.8-1.5,10.8-4.4c2.9-2.9,4.4-6.5,4.4-10.8v-14.7h-68.6v-27.2c0-3.8,0.7-7.5,2.2-10.8c1.5-3.4,3.4-6.3,5.9-8.8
		c2.5-2.5,5.4-4.4,8.8-5.9c3.4-1.5,7-2.2,10.8-2.2h53.4v22H246v-9.6h-40.8c-2.1,0-4.1,0.4-5.9,1.2c-1.8,0.8-3.4,1.9-4.8,3.3
		c-1.4,1.4-2.5,3-3.3,4.9c-0.8,1.9-1.2,3.9-1.2,6v14.6h68.6v27.3C258.6,257.6,257.9,261.3,256.4,264.6z"/>
	<path class="st0" d="M294.8,281.6c-3.6,0-7.1-0.7-10.3-2.1c-3.2-1.4-6.1-3.3-8.5-5.8c-2.4-2.4-4.4-5.3-5.8-8.5
		c-1.4-3.2-2.1-6.7-2.1-10.3v-44c0-3.6,0.7-7.1,2.1-10.3c1.4-3.2,3.3-6.1,5.8-8.5c2.4-2.4,5.3-4.3,8.5-5.8c3.2-1.4,6.7-2.1,10.3-2.1
		h37c3.6,0,7.1,0.7,10.3,2.1c3.2,1.4,6.1,3.3,8.5,5.8c2.4,2.4,4.3,5.3,5.8,8.5c1.4,3.2,2.1,6.7,2.1,10.3v44c0,3.6-0.7,7.1-2.1,10.3
		c-1.4,3.2-3.3,6.1-5.8,8.5c-2.4,2.4-5.3,4.4-8.5,5.8c-3.2,1.4-6.7,2.1-10.3,2.1H294.8z M280.6,254.9c0,1.9,0.4,3.7,1.1,5.5
		c0.8,1.7,1.8,3.2,3.1,4.6c1.3,1.3,2.8,2.4,4.6,3.1c1.7,0.8,3.5,1.1,5.5,1.1h37c1.9,0,3.8-0.4,5.5-1.1c1.8-0.8,3.3-1.8,4.6-3.1
		c1.3-1.3,2.3-2.8,3-4.6c0.8-1.7,1.1-3.5,1.1-5.5v-44c0-1.9-0.4-3.8-1.1-5.5c-0.8-1.8-1.8-3.3-3-4.6c-1.3-1.3-2.8-2.3-4.6-3
		c-1.8-0.8-3.6-1.1-5.5-1.1h-37c-1.9,0-3.7,0.4-5.5,1.1c-1.7,0.8-3.2,1.8-4.6,3c-1.3,1.3-2.4,2.8-3.1,4.6c-0.8,1.8-1.1,3.6-1.1,5.5
		V254.9z"/>
	<path class="st0" d="M384.9,279.4c-3.3-1.4-6.1-3.3-8.6-5.8c-2.4-2.4-4.4-5.3-5.8-8.6c-1.4-3.3-2.1-6.8-2.1-10.5v-70.4H381v70.4
		c0,2,0.4,3.9,1.1,5.6c0.8,1.7,1.8,3.2,3.1,4.6c1.3,1.3,2.8,2.4,4.6,3.1c1.7,0.8,3.6,1.1,5.6,1.1h39.1v12.6h-39.1
		C391.7,281.6,388.2,280.9,384.9,279.4z"/>
	<path class="st0" d="M456.7,281.6h-12.6v-97.4h12.6V281.6z"/>
	<path class="st1" d="M483.1,279.4c-3.3-1.4-6.2-3.4-8.7-5.8c-2.5-2.5-4.4-5.4-5.8-8.7c-1.4-3.3-2.1-6.9-2.1-10.6v-42.9
		c0-3.7,0.7-7.3,2.1-10.5c1.4-3.3,3.4-6.2,5.8-8.6c2.5-2.5,5.4-4.4,8.7-5.8c3.3-1.4,6.9-2.1,10.6-2.1h44.8v12.4h-44.8
		c-2,0-3.9,0.4-5.8,1.1s-3.4,1.8-4.7,3.2c-1.3,1.4-2.4,2.9-3.1,4.7c-0.8,1.8-1.1,3.7-1.1,5.7v42.9c0,4.1,1.4,7.6,4.2,10.5
		c2.8,2.8,6.3,4.2,10.5,4.2h44.8v12.6h-44.8C490,281.6,486.5,280.9,483.1,279.4z"/>
	<path class="st1" d="M574.8,281.6c-3.6,0-7.1-0.7-10.3-2.1c-3.2-1.4-6.1-3.3-8.5-5.8c-2.4-2.4-4.4-5.3-5.8-8.5
		c-1.4-3.2-2.1-6.7-2.1-10.3v-44c0-3.6,0.7-7.1,2.1-10.3c1.4-3.2,3.3-6.1,5.8-8.5c2.4-2.4,5.3-4.3,8.5-5.8c3.2-1.4,6.7-2.1,10.3-2.1
		h37c3.6,0,7.1,0.7,10.3,2.1c3.2,1.4,6.1,3.3,8.5,5.8c2.4,2.4,4.3,5.3,5.8,8.5c1.4,3.2,2.1,6.7,2.1,10.3v44c0,3.6-0.7,7.1-2.1,10.3
		c-1.4,3.2-3.3,6.1-5.8,8.5c-2.4,2.4-5.3,4.4-8.5,5.8c-3.2,1.4-6.7,2.1-10.3,2.1H574.8z M560.5,254.9c0,1.9,0.4,3.7,1.1,5.5
		c0.8,1.7,1.8,3.2,3.1,4.6c1.3,1.3,2.8,2.4,4.6,3.1c1.7,0.8,3.5,1.1,5.5,1.1h37c1.9,0,3.8-0.4,5.5-1.1c1.8-0.8,3.3-1.8,4.6-3.1
		c1.3-1.3,2.3-2.8,3-4.6c0.8-1.7,1.1-3.5,1.1-5.5v-44c0-1.9-0.4-3.8-1.1-5.5c-0.8-1.8-1.8-3.3-3-4.6c-1.3-1.3-2.8-2.3-4.6-3
		c-1.8-0.8-3.6-1.1-5.5-1.1h-37c-1.9,0-3.7,0.4-5.5,1.1c-1.7,0.8-3.2,1.8-4.6,3c-1.3,1.3-2.4,2.8-3.1,4.6c-0.8,1.8-1.1,3.6-1.1,5.5
		V254.9z"/>
	<path class="st1" d="M729.8,254.4c0,3.7-0.7,7.3-2.1,10.5c-1.4,3.3-3.4,6.2-5.8,8.6c-2.5,2.5-5.4,4.4-8.7,5.8
		c-3.3,1.4-6.9,2.1-10.6,2.1h-54.2v-97.4h54.2c3.7,0,7.3,0.7,10.6,2.1c3.3,1.4,6.2,3.4,8.7,5.8c2.5,2.5,4.4,5.4,5.8,8.6
		c1.4,3.3,2.1,6.8,2.1,10.5V254.4z M660.9,269h41.6c4.1,0,7.6-1.4,10.5-4.2c2.8-2.8,4.2-6.3,4.2-10.3v-43.1c0-2-0.4-3.9-1.1-5.7
		c-0.8-1.8-1.8-3.3-3.1-4.7c-1.3-1.4-2.9-2.4-4.7-3.2c-1.8-0.8-3.7-1.1-5.8-1.1h-41.6V269z"/>
	<path class="st1" d="M805.2,281.6h-65.8v-42.5v-12.6v-14.6c0-3.8,0.7-7.5,2.2-10.8c1.5-3.4,3.4-6.3,5.9-8.8
		c2.5-2.5,5.4-4.4,8.8-5.9c3.4-1.5,7-2.2,10.8-2.2h38.1v12.4h-38.1c-2.1,0-4.1,0.4-5.9,1.2c-1.8,0.8-3.4,1.9-4.8,3.3
		c-1.4,1.4-2.5,3-3.3,4.9c-0.8,1.9-1.2,3.9-1.2,6v14.6h44.1v12.6H752V269h53.3V281.6z"/>
</g>
<g>
	<path class="st2" d="M183.2,317.5c-1.5,0-2.6-0.3-3.1-0.8c-0.6-0.5-0.8-1.5-0.8-3v-8.5c0-1.5,0.3-2.5,0.8-3
		c0.6-0.5,1.6-0.8,3.1-0.8h13.2v2.9h-12.9c-0.2,0-0.4,0-0.5,0.1c-0.1,0.1-0.1,0.2-0.1,0.4v9.2c0,0.2,0,0.3,0.1,0.4
		c0.1,0.1,0.2,0.1,0.4,0.1h12.9v3H183.2z"/>
	<path class="st2" d="M201.9,317.5v-16.1h16.7v2.9h-13v3.4h8.7v2.9h-8.7v3.9h13.2v3H201.9z"/>
	<path class="st2" d="M241.1,317.5l-10.7-9.3c-0.9-0.8-1.7-1.5-2.3-2.2h-0.1c0.1,0.9,0.1,2.6,0.1,5v6.4h-3.7v-16.1h2.9l10.9,9.5
		c0.7,0.6,1.4,1.2,2.1,1.9h0.1c-0.1-1-0.1-2.7-0.1-5v-6.4h3.7v16.1H241.1z"/>
	<path class="st2" d="M255.9,317.5v-13.2h-7.4v-2.9h18.5v2.9h-7.4v13.2H255.9z"/>
	<path class="st2" d="M286,317.5l-5.2-6h-5.4v6h-3.7v-16.1h13.5c1.5,0,2.5,0.2,3.1,0.7c0.5,0.4,0.8,1.3,0.8,2.5v3.6
		c0,1.3-0.3,2.1-0.9,2.6c-0.6,0.5-1.6,0.7-3.1,0.7l5.4,6H286z M285.4,304.7c0-0.2,0-0.3-0.1-0.4c-0.1-0.1-0.2-0.1-0.4-0.1h-9.5v4.4
		h9.5c0.2,0,0.4,0,0.4-0.1c0.1-0.1,0.1-0.2,0.1-0.4V304.7z"/>
	<path class="st2" d="M295,317.5v-16.1h16.7v2.9h-13v3.4h8.7v2.9h-8.7v3.9h13.2v3H295z"/>
	<path class="st2" d="M328.7,317.5v-3h13.4c0.2,0,0.4,0,0.4-0.1c0.1-0.1,0.1-0.2,0.1-0.4v-3c0-0.2,0-0.3-0.1-0.4
		c-0.1-0.1-0.2-0.1-0.4-0.1h-9.4c-1.5,0-2.6-0.2-3.1-0.7c-0.6-0.5-0.9-1.4-0.9-2.7v-2.3c0-1.3,0.3-2.2,0.9-2.6
		c0.6-0.5,1.6-0.7,3.1-0.7h12.8v2.8H333c-0.2,0-0.4,0-0.5,0.1c-0.1,0.1-0.1,0.2-0.1,0.4v2.6c0,0.2,0,0.3,0.1,0.4
		c0.1,0.1,0.2,0.1,0.4,0.1h9.4c1.5,0,2.6,0.2,3.2,0.7c0.6,0.5,0.9,1.3,0.9,2.6v3.1c0,1.3-0.3,2.2-0.9,2.7s-1.6,0.7-3.2,0.7H328.7z"
		/>
	<path class="st2" d="M356,317.7c-1.5,0-2.6-0.3-3.1-0.8c-0.6-0.5-0.8-1.5-0.8-3v-8.7c0-1.5,0.3-2.5,0.8-3c0.6-0.5,1.6-0.8,3.1-0.8
		h11.9c1.5,0,2.6,0.3,3.1,0.8c0.6,0.5,0.8,1.5,0.8,3v8.7c0,1.5-0.3,2.5-0.8,3c-0.6,0.5-1.6,0.8-3.1,0.8H356z M368.1,304.7
		c0-0.2,0-0.3-0.1-0.4c-0.1-0.1-0.2-0.1-0.4-0.1h-11.3c-0.2,0-0.4,0-0.5,0.1c-0.1,0.1-0.1,0.2-0.1,0.4v9.5c0,0.2,0,0.3,0.1,0.4
		c0.1,0.1,0.2,0.1,0.4,0.1h11.3c0.2,0,0.4,0,0.4-0.1c0.1-0.1,0.1-0.2,0.1-0.4V304.7z"/>
	<path class="st2" d="M377.9,317.5v-16.1h3.7v13.1h12v3H377.9z"/>
	<path class="st2" d="M398.3,317.5v-16.1h3.7v16.1H398.3z"/>
	<path class="st2" d="M408.3,317.5v-16.1h14c1.6,0,2.6,0.3,3.2,0.8c0.6,0.5,0.8,1.5,0.8,3v8.5c0,1.5-0.3,2.5-0.8,3
		c-0.6,0.5-1.6,0.8-3.2,0.8H408.3z M422.5,304.8c0-0.2,0-0.3-0.1-0.4c-0.1-0.1-0.2-0.1-0.4-0.1h-10v10.2h10c0.2,0,0.4,0,0.4-0.1
		c0.1-0.1,0.1-0.2,0.1-0.4V304.8z"/>
	<path class="st2" d="M448.4,317.5l-1.8-3.2h-10.4l-1.8,3.2h-4.1l9.1-16.1h3.9l9.2,16.1H448.4z M437.7,311.6h7.5l-3.7-6.7h0
		L437.7,311.6z"/>
	<path class="st2" d="M457,317.5v-16.1h3.7v16.1H457z"/>
	<path class="st2" d="M481.2,317.5l-5.2-6h-5.4v6h-3.7v-16.1h13.5c1.5,0,2.5,0.2,3.1,0.7s0.8,1.3,0.8,2.5v3.6c0,1.3-0.3,2.1-0.9,2.6
		c-0.6,0.5-1.6,0.7-3.1,0.7l5.4,6H481.2z M480.6,304.7c0-0.2,0-0.3-0.1-0.4c-0.1-0.1-0.2-0.1-0.4-0.1h-9.5v4.4h9.5
		c0.2,0,0.4,0,0.4-0.1c0.1-0.1,0.1-0.2,0.1-0.4V304.7z"/>
	<path class="st2" d="M490.3,317.5v-16.1H507v2.9h-13v3.4h8.7v2.9H494v3.9h13.2v3H490.3z"/>
	<path class="st2" d="M524.2,317.5v-16.1h14c1.6,0,2.6,0.3,3.2,0.8c0.6,0.5,0.8,1.5,0.8,3v8.5c0,1.5-0.3,2.5-0.8,3
		c-0.6,0.5-1.6,0.8-3.2,0.8H524.2z M538.5,304.8c0-0.2,0-0.3-0.1-0.4c-0.1-0.1-0.2-0.1-0.4-0.1h-10v10.2h10c0.2,0,0.4,0,0.4-0.1
		c0.1-0.1,0.1-0.2,0.1-0.4V304.8z"/>
	<path class="st2" d="M548.3,317.5v-16.1h3.7v16.1H548.3z"/>
	<path class="st2" d="M562,317.7c-1.6,0-2.6-0.3-3.2-0.8c-0.6-0.5-0.8-1.5-0.8-3v-8.6c0-1.5,0.3-2.5,0.8-3c0.6-0.5,1.6-0.8,3.1-0.8
		h14.5v2.9h-14.1c-0.2,0-0.4,0-0.5,0.1c-0.1,0.1-0.1,0.2-0.1,0.4v9.4c0,0.2,0,0.3,0.1,0.4c0.1,0.1,0.2,0.1,0.4,0.1h10.4
		c0.2,0,0.4,0,0.4-0.1c0.1-0.1,0.1-0.2,0.1-0.4v-3.3h-4.5v-2.7h8.2v5.7c0,1.5-0.3,2.5-0.8,3c-0.6,0.5-1.6,0.8-3.1,0.8H562z"/>
	<path class="st2" d="M583.1,317.5v-16.1h3.7v16.1H583.1z"/>
	<path class="st2" d="M598.8,317.5v-13.2h-7.4v-2.9h18.5v2.9h-7.4v13.2H598.8z"/>
	<path class="st2" d="M628.5,317.5l-1.8-3.2h-10.4l-1.8,3.2h-4.1l9.1-16.1h3.9l9.2,16.1H628.5z M617.9,311.6h7.5l-3.7-6.7h0
		L617.9,311.6z"/>
	<path class="st2" d="M637.2,317.5v-16.1h3.7v13.1h12v3H637.2z"/>
	<path class="st2" d="M674.8,317.5v-13.2h-7.4v-2.9h18.5v2.9h-7.4v13.2H674.8z"/>
	<path class="st2" d="M704.5,317.5l-1.8-3.2h-10.4l-1.8,3.2h-4.1l9.1-16.1h3.9l9.2,16.1H704.5z M693.8,311.6h7.5l-3.7-6.7h0
		L693.8,311.6z"/>
	<path class="st2" d="M729.8,317.5l-10.7-9.3c-0.9-0.8-1.7-1.5-2.3-2.2h-0.1c0.1,0.9,0.1,2.6,0.1,5v6.4h-3.7v-16.1h2.9l10.9,9.5
		c0.7,0.6,1.4,1.2,2.1,1.9h0.1c-0.1-1-0.1-2.7-0.1-5v-6.4h3.7v16.1H729.8z"/>
	<path class="st2" d="M742.7,317.7c-1.6,0-2.6-0.3-3.2-0.8c-0.6-0.5-0.8-1.5-0.8-3v-8.6c0-1.5,0.3-2.5,0.8-3
		c0.6-0.5,1.6-0.8,3.1-0.8h14.5v2.9H743c-0.2,0-0.4,0-0.5,0.1c-0.1,0.1-0.1,0.2-0.1,0.4v9.4c0,0.2,0,0.3,0.1,0.4
		c0.1,0.1,0.2,0.1,0.4,0.1h10.4c0.2,0,0.4,0,0.4-0.1c0.1-0.1,0.1-0.2,0.1-0.4v-3.3h-4.5v-2.7h8.2v5.7c0,1.5-0.3,2.5-0.8,3
		c-0.6,0.5-1.6,0.8-3.1,0.8H742.7z"/>
	<path class="st2" d="M763.8,317.5v-16.1h16.7v2.9h-13v3.4h8.7v2.9h-8.7v3.9h13.2v3H763.8z"/>
	<path class="st2" d="M800.6,317.5l-5.2-6H790v6h-3.7v-16.1h13.5c1.5,0,2.5,0.2,3.1,0.7s0.8,1.3,0.8,2.5v3.6c0,1.3-0.3,2.1-0.9,2.6
		c-0.6,0.5-1.6,0.7-3.1,0.7l5.4,6H800.6z M800,304.7c0-0.2,0-0.3-0.1-0.4s-0.2-0.1-0.4-0.1H790v4.4h9.5c0.2,0,0.4,0,0.4-0.1
		c0.1-0.1,0.1-0.2,0.1-0.4V304.7z"/>
</g>
<g>
	<path class="st1" d="M88.9,264.2v-20.8c0-2.6-0.7-4.3-2-5c-1.3-0.7-3.7-1-7.1-1v-15.2c3.4,0,5.8-0.3,7.1-1c1.3-0.7,2-2.3,2-5v-18.8
		c0-7.3,1.5-12.2,4.4-14.7c1.5-1.2,3.5-2.1,6-2.7H49.9v101.5h49.5c-2.6-0.6-4.6-1.5-6-2.7C90.4,276.4,88.9,271.5,88.9,264.2z"/>
	<path class="st1" d="M151.3,180.1h-29.9v13.3h-13.9c-1,0-1.8,0.1-2.2,0.4c-0.4,0.3-0.7,0.9-0.7,2v20.6c0,6.9-2.2,11.4-6.6,13.8
		c4.4,2.2,6.6,6.7,6.6,13.6v22.1c0,1,0.2,1.7,0.7,2c0.4,0.3,1.2,0.4,2.2,0.4h13.9v13.3h29.9V180.1z"/>
</g>
<g>
	<path class="st2" d="M200,334.4v11.9h1.4v3.2l-16.3,0c-2.6-0.9-4.2-2.3-4.7-4.3c-0.7-4.2,1-7.6,5.1-10.2c3.9-1.8,7.7-1.2,11.5,1.6
		v-2.2H200z M189.8,336.8c-4.7,0.6-6.8,3.1-6.3,7.6c0.4,1.2,1.2,1.8,2.4,1.9h10.7c0.3,0,0.4-0.2,0.5-0.6
		C197.7,340.1,195.3,337.1,189.8,336.8z M186.9,330c0.4,0.4,0.8,0.6,1.3,0.6c0.5,0,0.9-0.2,1.3-0.6c0.4-0.4,0.5-0.8,0.5-1.4
		c0-0.6-0.2-1-0.5-1.4c-0.3-0.4-0.8-0.5-1.3-0.5c-0.5,0-1,0.2-1.3,0.6c-0.4,0.4-0.6,0.8-0.6,1.4C186.4,329.1,186.6,329.6,186.9,330z
		 M191.4,330c0.4,0.4,0.8,0.6,1.3,0.6c0.5,0,0.9-0.2,1.3-0.6c0.4-0.4,0.5-0.8,0.5-1.4c0-0.6-0.2-1-0.5-1.4c-0.3-0.4-0.8-0.5-1.3-0.5
		c-0.5,0-1,0.2-1.3,0.6c-0.4,0.4-0.6,0.8-0.6,1.4C190.8,329.1,191,329.6,191.4,330z"/>
	<path class="st2" d="M222,346.3v3.2h-21.1v-3.2H222z"/>
	<path class="st2" d="M230.1,346.3v3.2H209v-3.2H230.1z"/>
	<path class="st2" d="M250.6,346.3c1.4,0,2.4-0.2,2.9-0.7c0.5-0.5,0.8-1.2,0.9-2.3c0.1-1.1-0.1-2-0.7-2.6c-0.6-0.7-1.2-1.1-1.9-1.2
		c-0.7-0.1-2-0.2-3.9-0.2h-14.3l1.4-3.2h14.7c2.3,0,4,0.4,5.1,1.2c2.5,1.9,3.1,4.9,1.8,8.9c-0.8,1.5-2.3,2.6-4.6,3.2h-22.8v-3.2
		H250.6z M245.1,354.6c0.4,0.4,0.8,0.6,1.3,0.6c0.5,0,0.9-0.2,1.3-0.6c0.4-0.4,0.5-0.8,0.5-1.4c0-0.6-0.2-1-0.5-1.4
		c-0.3-0.4-0.8-0.5-1.3-0.5c-0.5,0-1,0.2-1.3,0.6c-0.4,0.4-0.6,0.8-0.6,1.4C244.6,353.8,244.7,354.2,245.1,354.6z M259.4,346.3v3.2
		h-6.1c2.3-1.1,3.5-2.1,3.7-3.2H259.4z"/>
	<path class="st2" d="M258.8,346.3h4.4v-8.6h3.2v8.6h2.1v3.2h-9.7V346.3z M263.2,333.8c0.4,0.4,0.8,0.6,1.3,0.6
		c0.5,0,0.9-0.2,1.3-0.6c0.4-0.4,0.5-0.8,0.5-1.4c0-0.6-0.2-1-0.5-1.4c-0.3-0.4-0.8-0.5-1.3-0.5c-0.5,0-1,0.2-1.3,0.6
		c-0.4,0.4-0.6,0.8-0.6,1.4C262.7,333,262.9,333.4,263.2,333.8z"/>
	<path class="st2" d="M269.6,346.3v-19.9h2.9v19.9h17.2c1.4,0,2.4-0.2,2.9-0.7c0.5-0.5,0.8-1.2,0.9-2.3c0.1-1.1-0.1-2-0.7-2.6
		c-0.6-0.7-1.2-1.1-1.9-1.2c-0.7-0.1-2-0.2-3.9-0.2h-14.3v-3.2h16.1c2.3,0,4,0.4,5.1,1.2c2.5,1.9,3.1,4.9,1.8,8.9
		c-0.8,1.5-2.3,2.6-4.6,3.2h-23.5v-3.2H269.6z"/>
	<path class="st2" d="M359.3,344.6c1.1,2.8-0.2,4.4-3.7,4.9h-20.4c-1.6-0.3-3-1-4.2-2.1c-0.9-1.1-1.3-2.3-1.4-3.8
		c0.3-5.9,3.6-9.5,9.9-11l0.9,3c-2.9,0-5.2,1.5-7,4.2c-0.8,1.9-0.9,3.5-0.3,4.8s2,1.8,4.3,1.7H356c0.8-0.6,0.8-1.2,0-1.7h-10.2
		l-2.3-3.2h17.6c1.5,0,2.5,0.3,3,0.9l1.8,4h1.3v3.2h-2.6h-0.7l-2.4-4.9H359.3z M341.6,355.6c0.4,0.4,0.8,0.6,1.3,0.6
		c0.5,0,0.9-0.2,1.3-0.6c0.4-0.4,0.5-0.8,0.5-1.4c0-0.6-0.2-1-0.5-1.4c-0.3-0.4-0.8-0.5-1.3-0.5c-0.5,0-1,0.2-1.3,0.6
		c-0.4,0.4-0.6,0.8-0.6,1.4C341,354.8,341.2,355.2,341.6,355.6z M346,355.6c0.4,0.4,0.8,0.6,1.3,0.6c0.5,0,0.9-0.2,1.3-0.6
		c0.4-0.4,0.5-0.8,0.5-1.4c0-0.6-0.2-1-0.5-1.4c-0.3-0.4-0.8-0.5-1.3-0.5c-0.5,0-1,0.2-1.3,0.6c-0.4,0.4-0.6,0.8-0.6,1.4
		C345.5,354.8,345.7,355.2,346,355.6z"/>
	<path class="st2" d="M387.8,346.3v3.2h-21.1v-3.2H387.8z"/>
	<path class="st2" d="M395.9,346.3v3.2h-21.1v-3.2H395.9z"/>
	<path class="st2" d="M399.3,346.3c0.2-4.4,2.5-7,6.8-7.8c3.6-0.1,5.9,1.6,7,5.1c0.7,3.1-0.4,5.8-3.5,8.1l-0.9,0.3l-5.4-3.5l0.3-3
		l4.4,2.5c1.4,0.2,2-0.5,2.1-1.9c0.3-1.3-0.1-2.5-1-3.6c-1.5-0.7-2.8-1-3.9-0.7c-1.1,0.3-1.9,1.3-2.6,3l-0.6,3.4
		c-0.2,0.9-1.3,1.3-3.4,1.3h-3.2v-3.2H399.3z M415.4,346.3v3.2h-3.9v-3.2H415.4z"/>
	<path class="st2" d="M425.5,332.9c9.2,0.4,12.5,5.4,10.1,14.8c-0.2,0.7-0.4,1.3-0.8,1.7h-20v-3.2h16.1c1.7,0.1,2.5-0.7,2.4-2.2
		c0.1-5.9-2.9-8.6-9.1-7.8c-3,1.2-4.7,3-5,5.3h11.3l-1.9,3.2l-12.3,0C416.1,337.9,419.2,334,425.5,332.9z M422.5,329.3
		c0.4,0.4,0.8,0.6,1.3,0.6c0.5,0,0.9-0.2,1.3-0.6c0.4-0.4,0.5-0.8,0.5-1.4c0-0.6-0.2-1-0.5-1.4c-0.3-0.4-0.8-0.5-1.3-0.5
		c-0.5,0-1,0.2-1.3,0.6c-0.4,0.4-0.6,0.8-0.6,1.4C422,328.5,422.1,328.9,422.5,329.3z M427,329.3c0.4,0.4,0.8,0.6,1.3,0.6
		c0.5,0,0.9-0.2,1.3-0.6c0.4-0.4,0.5-0.8,0.5-1.4c0-0.6-0.2-1-0.5-1.4c-0.3-0.4-0.8-0.5-1.3-0.5c-0.5,0-1,0.2-1.3,0.6
		s-0.6,0.8-0.6,1.4C426.4,328.5,426.6,328.9,427,329.3z"/>
	<path class="st2" d="M461,349.5h-1.8c-1.3,5.2-5.1,7.3-11.6,6.3l0.3-3c2.7,0.6,4.6,0.5,5.9-0.2c1.2-0.8,2-1.8,2.4-3.1v-12.2h3v9
		h1.8V349.5z"/>
	<path class="st2" d="M460.1,349.5v-3.2h3.8v-19.9h2.9v23.1H460.1z"/>
	<path class="st2" d="M479.3,349.5v-23.1h2.9v23.1H479.3z"/>
	<path class="st2" d="M536.4,349.5h-2.8c-4,4.8-9,5.8-15,3c-2.5-1.8-3.5-4.3-3-7.3c0.6-3.1,2.6-5.1,6-6c0.7,0.7,1.2,1.6,1.4,2.8
		c-2.3,0.1-3.8,1.2-4.4,3.5c-0.4,2.4,0.6,4.1,3,5.1c4,1.1,7.2,0,9.7-3.5v-9.8h2.9v9h2.2V349.5z M531.2,333.8
		c0.4,0.4,0.8,0.6,1.3,0.6c0.5,0,0.9-0.2,1.3-0.6c0.4-0.4,0.5-0.8,0.5-1.4c0-0.6-0.2-1-0.5-1.4c-0.3-0.4-0.8-0.5-1.3-0.5
		c-0.5,0-1,0.2-1.3,0.6c-0.4,0.4-0.6,0.8-0.6,1.4C530.7,333,530.8,333.4,531.2,333.8z"/>
	<path class="st2" d="M556.7,346.3v3.2h-21.1v-3.2H556.7z"/>
	<path class="st2" d="M564.8,346.3v3.2h-21.1v-3.2H564.8z"/>
	<path class="st2" d="M568.7,346.3c0.2-4.4,2.5-7,6.8-7.8c3.6-0.1,5.9,1.6,7,5.1c0.7,3.1-0.4,5.8-3.5,8.1L578,352l-5.4-3.5l0.3-3
		l4.4,2.5c1.4,0.2,2-0.5,2.1-1.9c0.3-1.3-0.1-2.5-1-3.6c-1.5-0.7-2.8-1-3.9-0.7c-1.1,0.3-1.9,1.3-2.6,3l-0.6,3.4
		c-0.2,0.9-1.3,1.3-3.4,1.3h-3.7v-3.2H568.7z"/>
	<path class="st2" d="M596.3,349.5v-23.1h2.9v19.9h3.8v3.2H596.3z"/>
	<path class="st2" d="M603.8,346.3v-10.9l2.9-1.1v12H624c1.4,0,2.4-0.2,2.9-0.7c0.5-0.5,0.8-1.2,0.9-2.3c0.1-1.1-0.1-2-0.7-2.6
		c-0.6-0.7-1.2-1.1-1.9-1.2c-0.7-0.1-2-0.2-3.9-0.2h-14.3v-3.2h16.1c2.3,0,4,0.4,5.1,1.2c2.5,1.9,3.1,4.9,1.8,8.9
		c-0.8,1.5-2.3,2.6-4.6,3.2h-22.8v-3.2H603.8z M615.4,331.7c0.4,0.4,0.8,0.6,1.3,0.6c0.5,0,0.9-0.2,1.3-0.6s0.5-0.8,0.5-1.4
		c0-0.6-0.2-1-0.5-1.4c-0.3-0.4-0.8-0.5-1.3-0.5c-0.5,0-1,0.2-1.3,0.6c-0.4,0.4-0.6,0.8-0.6,1.4
		C614.9,330.9,615.1,331.3,615.4,331.7z M632.9,346.3v3.2h-6.1c2.3-1.1,3.5-2.1,3.7-3.2H632.9z"/>
	<path class="st2" d="M631.8,346.3h5.3v-8.6h3.2v8.6h2.1v3.2h-10.6V346.3z M632.7,334.5c0.4,0.4,0.8,0.6,1.3,0.6
		c0.5,0,0.9-0.2,1.3-0.6c0.4-0.4,0.5-0.8,0.5-1.4c0-0.6-0.2-1-0.5-1.4c-0.3-0.4-0.8-0.5-1.3-0.5c-0.5,0-1,0.2-1.3,0.6
		s-0.6,0.8-0.6,1.4C632.1,333.7,632.3,334.1,632.7,334.5z M637.1,334.5c0.4,0.4,0.8,0.6,1.3,0.6c0.5,0,0.9-0.2,1.3-0.6
		c0.4-0.4,0.5-0.8,0.5-1.4c0-0.6-0.2-1-0.5-1.4c-0.3-0.4-0.8-0.5-1.3-0.5c-0.5,0-1,0.2-1.3,0.6c-0.4,0.4-0.6,0.8-0.6,1.4
		C636.6,333.7,636.8,334.1,637.1,334.5z"/>
	<path class="st2" d="M640.9,349.5v-3.2h3.8v-19.9h2.9v23.1H640.9z"/>
	<path class="st2" d="M660.2,349.5v-23.1h2.9v23.1H660.2z"/>
	<path class="st2" d="M708.1,349.5h-1.8c-1.3,5.2-5.1,7.3-11.6,6.3l0.3-3c2.7,0.6,4.6,0.5,5.9-0.2c1.2-0.8,2-1.8,2.4-3.1v-12.2h3v9
		h1.8V349.5z M703.3,334.5c0.4,0.4,0.8,0.6,1.3,0.6c0.5,0,0.9-0.2,1.3-0.6c0.4-0.4,0.5-0.8,0.5-1.4c0-0.6-0.2-1-0.5-1.4
		c-0.3-0.4-0.8-0.5-1.3-0.5c-0.5,0-1,0.2-1.3,0.6c-0.4,0.4-0.6,0.8-0.6,1.4C702.7,333.7,702.9,334.1,703.3,334.5z"/>
	<path class="st2" d="M728.4,346.3v3.2h-21.1v-3.2H728.4z"/>
	<path class="st2" d="M736.5,346.3v3.2h-21.1v-3.2H736.5z"/>
	<path class="st2" d="M761.3,326.3l-0.5,3.8l-14.2,6.2h9.6c2.3,0,4,0.4,5.1,1.2c2.5,1.9,3.1,4.9,1.8,8.9c-0.8,1.5-2.3,2.6-4.6,3.2
		h-22.8v-3.2H757c1.4,0,2.4-0.2,2.9-0.7c0.5-0.5,0.8-1.2,0.9-2.3c0.1-1.1-0.1-2-0.7-2.6c-0.6-0.7-1.2-1.1-1.9-1.2
		c-0.7-0.1-2-0.2-3.9-0.2h-10.1h-4.1c-1.2,0-1.9-0.3-2.2-0.9c-0.3-0.6,0-1.3,0.9-2L761.3,326.3z"/>
	<path class="st2" d="M787.6,349.5h-1.8c-1.3,5.2-5.1,7.3-11.6,6.3l0.3-3c2.7,0.6,4.6,0.5,5.9-0.2c1.2-0.8,2-1.8,2.4-3.1v-12.2h3v9
		h1.8V349.5z"/>
	<path class="st2" d="M791.3,346.3c0.2-4.4,2.5-7,6.8-7.8c3.6-0.1,5.9,1.6,7,5.1c0.7,3.1-0.4,5.8-3.5,8.1l-0.9,0.3l-5.4-3.5l0.3-3
		l4.4,2.5c1.4,0.2,2-0.5,2.1-1.9c0.3-1.3-0.1-2.5-1-3.6c-1.5-0.7-2.8-1-3.9-0.7c-1.1,0.3-1.9,1.3-2.6,3l-0.6,3.4
		c-0.2,0.9-1.3,1.3-3.4,1.3h-3.7v-3.2H791.3z"/>
</g>
</svg>
