<?xml version="1.0" encoding="utf-8"?>
<!-- Generator: Adobe Illustrator 25.0.0, SVG Export Plug-In . SVG Version: 6.00 Build 0)  -->
<svg version="1.1" id="Layer_1" xmlns="http://www.w3.org/2000/svg" xmlns:xlink="http://www.w3.org/1999/xlink" x="0px" y="0px"
	 viewBox="0 0 841.9 595.3" style="enable-background:new 0 0 841.9 595.3;" xml:space="preserve">
<style type="text/css">
	.st0{fill:#024873;}
	.st1{fill:#FDD413;}
</style>
<g>
	<path class="st0" d="M256.4,264.6c-1.5,3.4-3.4,6.3-5.9,8.8c-2.5,2.5-5.4,4.5-8.8,5.9c-3.4,1.5-7,2.2-10.8,2.2h-53.4v-27.2H190V269
		h40.8c4.2,0,7.8-1.5,10.8-4.4c2.9-2.9,4.4-6.5,4.4-10.8v-14.7h-68.6v-27.2c0-3.8,0.7-7.5,2.2-10.8c1.5-3.4,3.4-6.3,5.9-8.8
		c2.5-2.5,5.4-4.4,8.8-5.9c3.4-1.5,7-2.2,10.8-2.2h53.4v22H246v-9.6h-40.8c-2.1,0-4.1,0.4-5.9,1.2c-1.8,0.8-3.4,1.9-4.8,3.3
		c-1.4,1.4-2.5,3-3.3,4.9c-0.8,1.9-1.2,3.9-1.2,6v14.6h68.6v27.3C258.6,257.6,257.9,261.3,256.4,264.6z"/>
	<path class="st0" d="M294.8,281.6c-3.6,0-7.1-0.7-10.3-2.1c-3.2-1.4-6.1-3.3-8.5-5.8c-2.4-2.4-4.4-5.3-5.8-8.5
		c-1.4-3.2-2.1-6.7-2.1-10.3v-44c0-3.6,0.7-7.1,2.1-10.3c1.4-3.2,3.3-6.1,5.8-8.5c2.4-2.4,5.3-4.3,8.5-5.8c3.2-1.4,6.7-2.1,10.3-2.1
		h37c3.6,0,7.1,0.7,10.3,2.1c3.2,1.4,6.1,3.3,8.5,5.8c2.4,2.4,4.3,5.3,5.8,8.5c1.4,3.2,2.1,6.7,2.1,10.3v44c0,3.6-0.7,7.1-2.1,10.3
		c-1.4,3.2-3.3,6.1-5.8,8.5c-2.4,2.4-5.3,4.4-8.5,5.8c-3.2,1.4-6.7,2.1-10.3,2.1H294.8z M280.6,254.9c0,1.9,0.4,3.7,1.1,5.5
		c0.8,1.7,1.8,3.2,3.1,4.6c1.3,1.3,2.8,2.4,4.6,3.1c1.7,0.8,3.5,1.1,5.5,1.1h37c1.9,0,3.8-0.4,5.5-1.1c1.8-0.8,3.3-1.8,4.6-3.1
		c1.3-1.3,2.3-2.8,3-4.6c0.8-1.7,1.1-3.5,1.1-5.5v-44c0-1.9-0.4-3.8-1.1-5.5c-0.8-1.8-1.8-3.3-3-4.6c-1.3-1.3-2.8-2.3-4.6-3
		c-1.8-0.8-3.6-1.1-5.5-1.1h-37c-1.9,0-3.7,0.4-5.5,1.1c-1.7,0.8-3.2,1.8-4.6,3c-1.3,1.3-2.4,2.8-3.1,4.6c-0.8,1.8-1.1,3.6-1.1,5.5
		V254.9z"/>
	<path class="st0" d="M384.9,279.4c-3.3-1.4-6.1-3.3-8.6-5.8c-2.4-2.4-4.4-5.3-5.8-8.6c-1.4-3.3-2.1-6.8-2.1-10.5v-70.4H381v70.4
		c0,2,0.4,3.9,1.1,5.6c0.8,1.7,1.8,3.2,3.1,4.6c1.3,1.3,2.8,2.4,4.6,3.1c1.7,0.8,3.6,1.1,5.6,1.1h39.1v12.6h-39.1
		C391.7,281.6,388.2,280.9,384.9,279.4z"/>
	<path class="st0" d="M456.7,281.6h-12.6v-97.4h12.6V281.6z"/>
	<path class="st1" d="M483.1,279.4c-3.3-1.4-6.2-3.4-8.7-5.8c-2.5-2.5-4.4-5.4-5.8-8.7c-1.4-3.3-2.1-6.9-2.1-10.6v-42.9
		c0-3.7,0.7-7.3,2.1-10.5c1.4-3.3,3.4-6.2,5.8-8.6c2.5-2.5,5.4-4.4,8.7-5.8c3.3-1.4,6.9-2.1,10.6-2.1h44.8v12.4h-44.8
		c-2,0-3.9,0.4-5.8,1.1s-3.4,1.8-4.7,3.2c-1.3,1.4-2.4,2.9-3.1,4.7c-0.8,1.8-1.1,3.7-1.1,5.7v42.9c0,4.1,1.4,7.6,4.2,10.5
		c2.8,2.8,6.3,4.2,10.5,4.2h44.8v12.6h-44.8C490,281.6,486.5,280.9,483.1,279.4z"/>
	<path class="st1" d="M574.8,281.6c-3.6,0-7.1-0.7-10.3-2.1c-3.2-1.4-6.1-3.3-8.5-5.8c-2.4-2.4-4.4-5.3-5.8-8.5
		c-1.4-3.2-2.1-6.7-2.1-10.3v-44c0-3.6,0.7-7.1,2.1-10.3c1.4-3.2,3.3-6.1,5.8-8.5c2.4-2.4,5.3-4.3,8.5-5.8c3.2-1.4,6.7-2.1,10.3-2.1
		h37c3.6,0,7.1,0.7,10.3,2.1c3.2,1.4,6.1,3.3,8.5,5.8c2.4,2.4,4.3,5.3,5.8,8.5c1.4,3.2,2.1,6.7,2.1,10.3v44c0,3.6-0.7,7.1-2.1,10.3
		c-1.4,3.2-3.3,6.1-5.8,8.5c-2.4,2.4-5.3,4.4-8.5,5.8c-3.2,1.4-6.7,2.1-10.3,2.1H574.8z M560.5,254.9c0,1.9,0.4,3.7,1.1,5.5
		c0.8,1.7,1.8,3.2,3.1,4.6c1.3,1.3,2.8,2.4,4.6,3.1c1.7,0.8,3.5,1.1,5.5,1.1h37c1.9,0,3.8-0.4,5.5-1.1c1.8-0.8,3.3-1.8,4.6-3.1
		c1.3-1.3,2.3-2.8,3-4.6c0.8-1.7,1.1-3.5,1.1-5.5v-44c0-1.9-0.4-3.8-1.1-5.5c-0.8-1.8-1.8-3.3-3-4.6c-1.3-1.3-2.8-2.3-4.6-3
		c-1.8-0.8-3.6-1.1-5.5-1.1h-37c-1.9,0-3.7,0.4-5.5,1.1c-1.7,0.8-3.2,1.8-4.6,3c-1.3,1.3-2.4,2.8-3.1,4.6c-0.8,1.8-1.1,3.6-1.1,5.5
		V254.9z"/>
	<path class="st1" d="M729.8,254.4c0,3.7-0.7,7.3-2.1,10.5c-1.4,3.3-3.4,6.2-5.8,8.6c-2.5,2.5-5.4,4.4-8.7,5.8
		c-3.3,1.4-6.9,2.1-10.6,2.1h-54.2v-97.4h54.2c3.7,0,7.3,0.7,10.6,2.1c3.3,1.4,6.2,3.4,8.7,5.8c2.5,2.5,4.4,5.4,5.8,8.6
		c1.4,3.3,2.1,6.8,2.1,10.5V254.4z M660.9,269h41.6c4.1,0,7.6-1.4,10.5-4.2c2.8-2.8,4.2-6.3,4.2-10.3v-43.1c0-2-0.4-3.9-1.1-5.7
		c-0.8-1.8-1.8-3.3-3.1-4.7c-1.3-1.4-2.9-2.4-4.7-3.2c-1.8-0.8-3.7-1.1-5.8-1.1h-41.6V269z"/>
	<path class="st1" d="M805.2,281.6h-65.8v-42.5v-12.6v-14.6c0-3.8,0.7-7.5,2.2-10.8c1.5-3.4,3.4-6.3,5.9-8.8
		c2.5-2.5,5.4-4.4,8.8-5.9c3.4-1.5,7-2.2,10.8-2.2h38.1v12.4h-38.1c-2.1,0-4.1,0.4-5.9,1.2c-1.8,0.8-3.4,1.9-4.8,3.3
		c-1.4,1.4-2.5,3-3.3,4.9c-0.8,1.9-1.2,3.9-1.2,6v14.6h44.1v12.6H752V269h53.3V281.6z"/>
</g>
<g>
	<path class="st1" d="M88.9,264.2v-20.8c0-2.6-0.7-4.3-2-5c-1.3-0.7-3.7-1-7.1-1v-15.2c3.4,0,5.8-0.3,7.1-1c1.3-0.7,2-2.3,2-5v-18.8
		c0-7.3,1.5-12.2,4.4-14.7c1.5-1.2,3.5-2.1,6-2.7H49.9v101.5h49.5c-2.6-0.6-4.6-1.5-6-2.7C90.4,276.4,88.9,271.5,88.9,264.2z"/>
	<path class="st1" d="M151.3,180.1h-29.9v13.3h-13.9c-1,0-1.8,0.1-2.2,0.4c-0.4,0.3-0.7,0.9-0.7,2v20.6c0,6.9-2.2,11.4-6.6,13.8
		c4.4,2.2,6.6,6.7,6.6,13.6v22.1c0,1,0.2,1.7,0.7,2c0.4,0.3,1.2,0.4,2.2,0.4h13.9v13.3h29.9V180.1z"/>
</g>
</svg>
