<?xml version="1.0" encoding="utf-8"?>
<!-- Generator: Adobe Illustrator 23.0.5, SVG Export Plug-In . SVG Version: 6.00 Build 0)  -->
<svg version="1.1" id="Layer_1" xmlns="http://www.w3.org/2000/svg" xmlns:xlink="http://www.w3.org/1999/xlink" x="0px" y="0px"
	 viewBox="0 0 2753 2000" style="enable-background:new 0 0 2753 2000;" xml:space="preserve">
<style type="text/css">
	.st0{fill:#FFFFFF;}
	.st1{opacity:0.5;fill:#DEE4F5;enable-background:new    ;}
	.st2{fill:url(#SVGID_1_);}
	.st3{fill:#F6A300;}
	.st4{fill:#3945BA;}
	.st5{fill:#FCDA73;}
	.st6{fill:none;stroke:#FAFCFF;stroke-width:1.3;stroke-linecap:round;stroke-linejoin:round;}
	.st7{opacity:0.1;fill:#9BC1F9;}
	.st8{fill:url(#SVGID_2_);}
	.st9{fill:#B2C1F9;}
	.st10{fill:url(#SVGID_3_);}
	.st11{fill:url(#SVGID_4_);}
	.st12{fill:url(#SVGID_5_);}
	.st13{fill:url(#SVGID_6_);}
	.st14{fill:url(#SVGID_7_);}
	.st15{fill:url(#SVGID_8_);}
	.st16{fill:url(#SVGID_9_);}
	.st17{fill:url(#SVGID_10_);}
	.st18{fill:url(#SVGID_11_);}
	.st19{fill:url(#SVGID_12_);}
	.st20{fill:url(#SVGID_13_);}
	.st21{fill:url(#SVGID_14_);}
	.st22{fill:url(#SVGID_15_);}
	.st23{fill:url(#SVGID_16_);}
	.st24{fill:url(#SVGID_17_);}
	.st25{fill:url(#SVGID_18_);}
	.st26{fill:url(#SVGID_19_);}
	.st27{fill:url(#SVGID_20_);}
	.st28{fill:url(#SVGID_21_);}
	.st29{fill:url(#SVGID_22_);}
	.st30{fill:url(#SVGID_23_);}
	.st31{fill:url(#SVGID_24_);}
	.st32{fill:url(#SVGID_25_);}
	.st33{fill:url(#SVGID_26_);}
	.st34{fill:url(#SVGID_27_);}
	.st35{fill:url(#SVGID_28_);}
	.st36{fill:url(#SVGID_29_);}
	.st37{fill:url(#SVGID_30_);}
	.st38{fill:url(#SVGID_31_);}
	.st39{fill:url(#SVGID_32_);}
	.st40{fill:url(#SVGID_33_);}
	.st41{fill:url(#SVGID_34_);}
	.st42{fill:url(#SVGID_35_);}
	.st43{fill:url(#SVGID_36_);}
	.st44{fill:url(#SVGID_37_);}
	.st45{fill:url(#SVGID_38_);}
	.st46{fill:url(#SVGID_39_);}
	.st47{fill:url(#SVGID_40_);}
	.st48{fill:url(#SVGID_41_);}
	.st49{fill:url(#SVGID_42_);}
	.st50{fill:url(#SVGID_43_);}
	.st51{fill:url(#SVGID_44_);}
	.st52{fill:url(#SVGID_45_);}
	.st53{fill:url(#SVGID_46_);}
	.st54{fill:url(#SVGID_47_);}
	.st55{fill:url(#SVGID_48_);}
	.st56{fill:url(#SVGID_49_);}
	.st57{fill:url(#SVGID_50_);}
	.st58{fill:url(#SVGID_51_);}
	.st59{fill:url(#SVGID_52_);}
	.st60{fill:url(#SVGID_53_);}
	.st61{fill:url(#SVGID_54_);}
	.st62{fill:url(#SVGID_55_);}
	.st63{fill:url(#SVGID_56_);}
	.st64{fill:url(#SVGID_57_);}
	.st65{fill:#F8A492;}
	.st66{fill:#355389;}
	.st67{fill:#FE875E;}
	.st68{fill:#13375B;}
	.st69{fill:#F7CC7F;}
	.st70{fill:#F48C7F;}
	.st71{fill:url(#SVGID_58_);}
	.st72{fill:url(#SVGID_59_);}
	.st73{fill:#F7A491;}
	.st74{fill:#466EB6;}
	.st75{fill:url(#SVGID_60_);}
	.st76{fill:#F47458;}
	.st77{fill:#1A2996;}
	.st78{fill:#E0973F;}
	.st79{fill:#DEE4F5;enable-background:new    ;}
	.st80{fill:#2131A3;}
	.st81{fill:#DD513A;}
	.st82{fill:url(#SVGID_61_);}
	.st83{fill:#404FBC;}
	.st84{fill:url(#SVGID_62_);}
	.st85{fill:url(#SVGID_63_);}
	.st86{fill:url(#SVGID_64_);}
	.st87{fill:url(#SVGID_65_);}
	.st88{fill:url(#SVGID_66_);}
</style>
<rect x="4" class="st0" width="2753" height="2000"/>
<g>
	<g id="ILLUSTRATION">
		<circle class="st1" cx="1955.4" cy="875.3" r="652.3"/>
		<path class="st1" d="M1489.7,1148.6c0,322.6-261.5,584.2-584.2,584.2s-584.2-261.5-584.2-584.2c0-322.6,261.5-584.1,584.1-584.2
			c322.6-0.1,584.2,261.4,584.3,584C1489.7,1148.5,1489.7,1148.5,1489.7,1148.6z"/>
		
			<linearGradient id="SVGID_1_" gradientUnits="userSpaceOnUse" x1="2197.5244" y1="501.6304" x2="2197.5244" y2="1541.437" gradientTransform="matrix(0.9689 0.2474 0.2474 -0.9689 -248.8129 1345.1588)">
			<stop  offset="0" style="stop-color:#F6A300"/>
			<stop  offset="1" style="stop-color:#FCDA73"/>
		</linearGradient>
		<path class="st2" d="M1920.4,1381.3c0,0,142.4-5.3,205.2-145.7c62.7-140.4,45.6-173.2,179.9-310.5c116.1-96.3,49-272,93.4-371.4
			c44.5-99.3,17.8-144.3-46-118.6c-63.8,25.7-82.5,173.6-170.4,189.2c-88,15.7-136.8,102.4-148,175.9
			c-11.2,73.5-45.9,224.8-117.9,267.5C1844.5,1110.6,1789.2,1282.7,1920.4,1381.3z"/>
		<path class="st3" d="M2215.8,938.3l-88.1,46.7l102.2-197.7l69.2-39.1c2.3-1.3,3-4.2,1.7-6.5c0,0,0,0,0-0.1c-1.4-2.3-4.3-3-6.6-1.7
			l-56.4,31.9l96.8-187.3c1.2-2.4,0.3-5.3-2.1-6.5c0,0,0,0,0,0c-2.4-1.2-5.3-0.3-6.5,2.1l-96.8,187.5l-3.6-65.9
			c-0.1-2.7-2.3-4.7-5-4.6c-2.7,0.1-4.7,2.3-4.6,5c0,0.1,0,0.1,0,0.2l4.3,82.3l-98.5,190.7l-17.4-88.9c-0.7-2.5-3.4-4-5.9-3.3
			c-2.2,0.6-3.6,2.7-3.5,5l19.8,100.8l-86.4,167.2l-16.5-67.3c-0.6-2.6-3.2-4.2-5.8-3.5c-2.6,0.6-4.2,3.2-3.5,5.8l19.1,78
			l-103.2,199.8c-1.2,2.4-0.3,5.2,2.1,6.5l1.1,0.3c2.2,0.5,4.4-0.5,5.5-2.5l102-197.5l67.6-18c2.6-0.6,4.2-3.1,3.7-5.7
			s-3.1-4.2-5.7-3.7c-0.1,0-0.3,0.1-0.4,0.1l-59.2,15.8l84.7-164.1l100.4-53.2c2.3-1.2,3.2-4.2,2-6.5c-1.2-2.3-4.2-3.2-6.5-2
			L2215.8,938.3z"/>
		<path class="st3" d="M2297.5,865.7c-1-2.4-3.9-3.6-6.3-2.5c0,0,0,0,0,0l-61.4,26.3c-2.4,1-3.6,3.9-2.5,6.3c0,0,0,0,0,0
			c0.6,1.4,1.9,2.5,3.4,2.8c1,0.3,2.1,0.2,3-0.2l61.4-26.3C2297.6,870.9,2298.6,868.1,2297.5,865.7z"/>
		<path class="st4" d="M2625.6,1094.7c-56.1-40.7-147.1,153.8-194.8,206.6c-12.5,12.3-24.5,25-36.1,38.2
			c38.3-96.8,105.5-220.4,50.2-236.9c-59-17.5-52.6,200.7-65.7,254.8c-14.2,16.9-27.8,34.2-41.4,51.6
			c13.1-56.5,33.7-284.1-35.7-275.4c-48,6,30.9,197.3,21.4,294.1c-6.7,9-13.5,17.9-20.1,26.8l-11.6,15.5l-0.8,0.7l0.7-0.5
			c-13.1,17.5-20.3,27.8-33,45.8c8.4-33.2,27.8-68.9,7.6-184c-25.2-144.3-89.3-100.9-42.7,39.9c31.8,95.5,23.8,134.2,24.3,159.4
			c-16.6,23.6-11.4,14.6-26.4,39.1c-1.5-37.5-6.9-193.6-68.5-197.4c-53.1-3.3,16.4,83.4,35.7,130.1c19.3,46.8,24.2,55.2,24,77.4
			c-3,5-30.6,50.4-33.5,55.6c-2.2,4,3.5,7.9,5.7,4c7.7-13.3,30.6-46.2,38.8-59.2c41-5.3,216.7,68.8,205.8,12.7
			c-7.1-36.1-168.7-35.3-199.7-22.1c7.9-12.1,18.6-25.6,26.8-37.5c72.3-6.8,145-8.9,217.7-6.5c56,2.1,40.6-67.8-66.8-50.4
			c-76.9,12.4-120.9,36.2-142.7,45c15.1-21.6,39.1-53,54.8-74c65.9-25.4,130.2-20.8,218.7-15.4c90.1,5.5,53.3-78.4-75.7-47
			c-106,25.8-103.2,31.2-131,46.3c18.7-24.7,33.4-44.4,53.1-68.8c44.5-24.6,125.5-34.3,181.3-38.7c86.2-6.9,123.8-87.3-9.4-52.9
			c-69.1,17.8-127.6,57.4-158.8,75.4c10.7-12.2,21.7-24.1,33.1-35.7C2493.3,1254.4,2678.6,1133.2,2625.6,1094.7z"/>
		<path class="st5" d="M385.5,1680.6c0,0-66.6-51.6-18.5-118.3c48.1-66.7,109.1-99.8,140.5-140.5s70.3-59.1,85-59.1
			c14.8,0,9.2,55.6,12.9,75.8c3.7,20.2-31.4,99.8-57.3,131.3S548.2,1702.7,385.5,1680.6z"/>
		<path class="st5" d="M2009.5,1595.8c10.8-2.5,58-73,75.6-125.1c17.6-52.1,1.2-151.6-19.8-203.1s-55.2-97-71.8-96.8
			c-16.6,0.3-39,104.2-53.2,137.7c-14.2,33.5-37.5,126.5,4.3,196.1S1993,1599.9,2009.5,1595.8z"/>
		<path class="st5" d="M257.9,1656.5c12.7-6.9,37-73.9-16.6-140.5c-53.6-66.5-86.9-101.7-107.2-157.1S29,1291.7,15.8,1318.2
			c-27.8,55.6,38.8,118.3,37,173.8c-1.8,55.4,12.9,133.1,86.9,144.2C213.6,1647.3,237.6,1667.6,257.9,1656.5z"/>
		<path class="st3" d="M548.2,1445.1c-2.4-1.1-5.3,0-6.3,2.4c0,0,0,0,0,0c-9.6,21.4-20.7,42-33.3,61.8V1491c0-2.7-2.2-4.8-4.8-4.8
			c-2.6,0-4.8,2.1-4.8,4.8v30.8c0,0.6,0.2,1.2,0.4,1.8c-16.6,24.7-35.4,47.7-56.4,68.8l-1,1v-21.7c0-2.7-2.1-4.8-4.8-4.8
			c-2.7,0-4.8,2.1-4.8,4.8c0,0,0,0,0,0v32c-44.9,50.8-95.3,141.2-108.7,166.3c0-68.3-0.5-200.4-1.8-244.7
			c-0.4-14.6-0.7-33.5-0.8-54.7l19.8-24.8c1.6-2.1,1.1-5.1-1-6.7c-2-1.5-4.8-1.2-6.4,0.7l-12.5,15.4c0-18.7,0-38.6,0-58.3
			c0-17.7,0-35.1,0-50.8l16.4-18.6c1.8-2,1.6-5-0.4-6.8c-2-1.8-5-1.6-6.8,0.4l0,0l-9.2,10.5c0-19.8-0.4-35.7-0.8-45.2
			c-1.8-36.4-1.8-51.4-1.8-51.6c-0.2-2.7-2.6-4.6-5.3-4.4c-2.3,0.2-4.2,2.1-4.4,4.4c0,0.6,0,15.4,1.9,52c0.5,9.9,0.7,27.3,0.8,48.6
			l-10.2-8.7c-2.1-1.7-5.1-1.3-6.8,0.8c-1.6,2-1.4,4.8,0.5,6.6l16.4,14.1c0,15.2,0,31.8,0,48.7c0,19.8,0,39.7,0,58.6l-9.8-11.2
			c-1.7-2-4.7-2.2-6.7-0.5c0,0,0,0,0,0c-2,1.8-2.2,4.8-0.4,6.8l17.1,19.4c0,21.3,0.4,40.5,0.8,55.2c1.2,41.1,1.6,158.2,1.7,229.3
			c-14.4-31.8-54.5-114.4-102.6-162.5c-0.8-0.8-1.5-1.7-2.3-2.6l0,0v-31c0-2.7-2.2-4.8-4.8-4.8c-2.6,0-4.8,2.1-4.8,4.8v20.5
			c-24.5-29.3-41.2-65.1-55.8-98.7c0-0.1,0-0.2,0-0.2l2.5-29.6c0.2-2.6-1.8-4.9-4.4-5.2c-2.6-0.2-4.9,1.7-5.2,4.3c0,0,0,0.1,0,0.1
			l-1,11.9c-11.6-27.1-21.9-50.4-34.8-66.9c-1.6-2.1-4.7-2.5-6.8-0.8c-2.1,1.6-2.5,4.7-0.8,6.8c12.9,16.5,23.5,41.3,35.7,69.9
			l0.7,1.5l-16.6-4.5c-2.6-0.7-5.2,0.8-5.9,3.4c-0.7,2.6,0.8,5.2,3.4,5.9l23.8,6.5c14,32.4,30.1,66.8,53.1,96.1l-20.2-5.9
			c-2.6-0.7-5.2,0.7-6,3.3c-0.7,2.6,0.7,5.2,3.3,6l0,0l34.3,10c1.8,2,3.6,4,5.5,6.1c57.8,57.8,105.7,171.1,106.2,172.2
			c0.6,1.3,1.8,2.3,3.3,2.6c0,22.7,0,37.5,0,38c0.2,2.7,2.6,4.6,5.3,4.4c2.3-0.2,4.2-2.1,4.4-4.4c0-0.5,0-11.3,0-28.6
			c0.2,0,0.5,0,0.8,0c1.8,0,3.4-1,4.2-2.5c0.6-1.2,59.3-111.7,109.7-169.5l38.3-5.5c2.6-0.4,4.5-2.8,4.1-5.4
			c-0.4-2.6-2.8-4.5-5.4-4.1l-26.6,4l1.2-1.2c22.9-23.2,43.5-48.6,61.3-75.9l29.4-15.9c2.6-0.4,4.4-2.9,4-5.5
			c-0.4-2.6-2.9-4.4-5.5-4c-1,0.2-1.9,0.6-2.6,1.3l-14.4,7.7c10.9-17.7,20.6-36.2,29.1-55.2C551.8,1449,550.7,1446.2,548.2,1445.1
			C548.3,1445.1,548.3,1445.1,548.2,1445.1z"/>
		<path class="st4" d="M437.8,1859.8c-2.5,12.4-13.1,21.5-25.8,21.9H227.1c-12.7-0.4-23.4-9.5-25.8-21.9l-22.4-98.3
			c-2-9.9,4.3-19.5,14.2-21.5c1.4-0.3,2.9-0.4,4.4-0.4h244c10.1-0.4,18.5,7.5,18.9,17.5c0.1,1.5-0.1,2.9-0.4,4.4L437.8,1859.8z"/>
		<path class="st6" d="M182.5,1784.1l-4-22.7c0-12.2,10-22.1,22.2-22.2h68.2"/>
	</g>
	<path class="st7" d="M437,1871.7h2131.9c176.7-147.4,85.8-591-61.8-680.9c-158.9-96.8,93.4-431.5-151.3-540.2
		c-159.8-70.9-413.9,6.4-379.8-183.4c47.4-263.2-506.7-330.6-914.9-259.7c-441.3,76.7-38.3,453.8-523.6,529.8
		c-249.6,39.1-201.3,373.3-178.1,442.4c20.3,60.2,154.3,155.6-32,287C54.2,1659.4,430.6,1868.1,437,1871.7z"/>
	<g>
		<g>
			<linearGradient id="SVGID_2_" gradientUnits="userSpaceOnUse" x1="1980.4736" y1="1627.0745" x2="2233.6829" y2="1627.0745">
				<stop  offset="0" style="stop-color:#20386E"/>
				<stop  offset="1" style="stop-color:#1A5AA6"/>
			</linearGradient>
			<path class="st8" d="M2110.8,1465l11.9-28.8c9.2-21.2,32.9-31.3,52.8-22.6l0,0c50.2,21.9,72.1,83,48.8,136.4l-17,39
				c-7.5,17.1-4.9,35.9,5.2,49.2c9.1,12,10.6,28.8,4.3,43.3l-9,20.6c-9.7,22.3-28.6,38.8-51.1,45.6c-13.1,4-24.7,13.8-30.8,27.9
				l-12.7,29.1c-14.1,32.2-50,47.6-80.4,34.4l-17.3-7.6c-30.3-13.2-43.5-50.1-29.4-82.3l0,0c22.7-38.5,20.9-67.3,12.9-86.7
				c-11.8-28.7-11.7-61.6,1.1-91l1.8-4.1c13.5-31,39.6-54.1,70.7-64C2086.3,1498.9,2100.7,1488.2,2110.8,1465z"/>
			<path class="st9" d="M1896.2,1871.7c24.4-31.6,158.1-201,245.3-229.2c96.2-31.2,5.5,92.6,5.5,92.6s170.7-186.7,233.4-169.9
				c57.4,15.4,0,131.1,0,131.1s64.7-64.1,143.1-64.1c76.3,0-53.3,227.3-60.3,239.4H1896.2z"/>
			<g>
				<g>
					<linearGradient id="SVGID_3_" gradientUnits="userSpaceOnUse" x1="2256.1956" y1="1652.8179" x2="2469.928" y2="1652.8179">
						<stop  offset="0" style="stop-color:#20386E"/>
						<stop  offset="1" style="stop-color:#1A5AA6"/>
					</linearGradient>
					<path class="st10" d="M2410.8,1505.3c-69.8,108.9-120.7,230-149.8,358.5l-4.8-1.3c29-125.9,79.6-246.7,149.2-355.5
						c16.2-25.3,33.7-55.3,64-65.2c0.6-0.2,0.8,0.7,0.2,0.9C2441.9,1453.2,2425.9,1481.6,2410.8,1505.3z"/>
				</g>
				<g>
					<linearGradient id="SVGID_4_" gradientUnits="userSpaceOnUse" x1="2277.7947" y1="1724.4221" x2="2565.1057" y2="1724.4221">
						<stop  offset="0" style="stop-color:#20386E"/>
						<stop  offset="1" style="stop-color:#1A5AA6"/>
					</linearGradient>
					<path class="st11" d="M2277.8,1868.3c77.9-106,172.7-204,285.4-289.2c1.1-0.9,2.6,1.1,1.5,2c-106.9,82.2-201.4,179.2-281,288.8
						L2277.8,1868.3z"/>
				</g>
				<linearGradient id="SVGID_5_" gradientUnits="userSpaceOnUse" x1="2411.8547" y1="1445.4243" x2="2440.3892" y2="1445.4243">
					<stop  offset="0" style="stop-color:#20386E"/>
					<stop  offset="1" style="stop-color:#1A5AA6"/>
				</linearGradient>
				<path class="st12" d="M2417.1,1437.7c1.8,2.6,8.7,9.5,10.7,18.6c2.7,8.6,0.6,19.3,0.3,19c-0.5,0.2,8-6.9,10.6-18.3
					c3.4-10.9,1-26.1-3.2-31.1c-7.4-11.4-20.2-12.5-22.7-7C2410.2,1424.3,2413.5,1431.7,2417.1,1437.7z"/>
				<linearGradient id="SVGID_6_" gradientUnits="userSpaceOnUse" x1="2396.499" y1="1526.0276" x2="2455.9658" y2="1526.0276">
					<stop  offset="0" style="stop-color:#20386E"/>
					<stop  offset="1" style="stop-color:#1A5AA6"/>
				</linearGradient>
				<path class="st13" d="M2433.8,1535c-2.6-1.8-9.4-8.9-18.4-11.1c-8.5-2.9-19.3-1-18.9-0.7c-0.2,0.5,7.1-7.8,18.5-10.2
					c11-3.2,26.1-0.5,31,3.8c11.2,7.6,12.1,20.5,6.5,22.9C2447.1,1542.2,2439.8,1538.7,2433.8,1535z"/>
				<linearGradient id="SVGID_7_" gradientUnits="userSpaceOnUse" x1="2371.3157" y1="1568.6481" x2="2430.782" y2="1568.6481">
					<stop  offset="0" style="stop-color:#20386E"/>
					<stop  offset="1" style="stop-color:#1A5AA6"/>
				</linearGradient>
				<path class="st14" d="M2408.6,1577.6c-2.6-1.8-9.4-8.9-18.4-11.1c-8.5-2.9-19.3-1-18.9-0.7c-0.2,0.5,7.1-7.8,18.5-10.2
					c11-3.2,26.1-0.5,31,3.8c11.2,7.6,12.1,20.5,6.5,22.9C2421.9,1584.8,2414.6,1581.3,2408.6,1577.6z"/>
				<linearGradient id="SVGID_8_" gradientUnits="userSpaceOnUse" x1="2461.1455" y1="1667.5063" x2="2520.6121" y2="1667.5063">
					<stop  offset="0" style="stop-color:#20386E"/>
					<stop  offset="1" style="stop-color:#1A5AA6"/>
				</linearGradient>
				<path class="st15" d="M2498.5,1676.4c-2.6-1.8-9.4-8.9-18.4-11.1c-8.5-2.9-19.3-1-18.9-0.7c-0.2,0.5,7.1-7.8,18.5-10.2
					c11-3.2,26.1-0.5,31,3.8c11.2,7.6,12.1,20.5,6.5,22.9C2511.8,1683.7,2504.4,1680.2,2498.5,1676.4z"/>
				<linearGradient id="SVGID_9_" gradientUnits="userSpaceOnUse" x1="2507.0396" y1="1627.0746" x2="2566.5056" y2="1627.0746">
					<stop  offset="0" style="stop-color:#20386E"/>
					<stop  offset="1" style="stop-color:#1A5AA6"/>
				</linearGradient>
				<path class="st16" d="M2544.4,1636c-2.6-1.8-9.4-8.9-18.4-11.1c-8.5-2.9-19.3-1-18.9-0.7c-0.2,0.5,7.1-7.8,18.5-10.2
					c11-3.2,26.1-0.5,31,3.8c11.2,7.6,12.1,20.5,6.5,22.9C2557.7,1643.2,2550.3,1639.7,2544.4,1636z"/>
				<linearGradient id="SVGID_10_" gradientUnits="userSpaceOnUse" x1="2374.2505" y1="1492.4409" x2="2406.6121" y2="1492.4409">
					<stop  offset="0" style="stop-color:#20386E"/>
					<stop  offset="1" style="stop-color:#1A5AA6"/>
				</linearGradient>
				<path class="st17" d="M2381.9,1485.9c2.2,2.3,10.1,8,13.5,16.7c4,8,3.6,19,3.3,18.7c-0.5,0.3,6.8-8.1,7.6-19.8
					c1.7-11.3-3.1-25.9-8.1-30.2c-9.1-10-21.9-9.2-23.5-3.3C2372.9,1473.8,2377.4,1480.6,2381.9,1485.9z"/>
				<linearGradient id="SVGID_11_" gradientUnits="userSpaceOnUse" x1="2333.0518" y1="1537.0892" x2="2378.3638" y2="1537.0892">
					<stop  offset="0" style="stop-color:#20386E"/>
					<stop  offset="1" style="stop-color:#1A5AA6"/>
				</linearGradient>
				<path class="st18" d="M2344.9,1534.3c3.1,1.7,14,4.7,19.5,12.8c6.2,7.3,7,19.7,6.6,19.4c-0.6,0.5,7.8-12,7.4-25.3
					c0.8-13.4-7.2-27.6-14.2-30.2c-12.9-7.3-29.5-0.8-30.9,6.4C2331.7,1524.5,2338.4,1530.2,2344.9,1534.3z"/>
				<linearGradient id="SVGID_12_" gradientUnits="userSpaceOnUse" x1="2291.6072" y1="1607.3057" x2="2340.6599" y2="1607.3057">
					<stop  offset="0" style="stop-color:#20386E"/>
					<stop  offset="1" style="stop-color:#1A5AA6"/>
				</linearGradient>
				<path class="st19" d="M2305.9,1607.5c3.4,1.1,14.6,2.2,21.4,9.3c7.3,6.1,10.2,18.2,9.7,18c-0.5,0.6,5.6-13.1,3-26.2
					c-1.5-13.3-11.7-26-19-27.4c-14-5-29.2,4.2-29.4,11.5C2291.3,1600.1,2298.8,1604.6,2305.9,1607.5z"/>
				<linearGradient id="SVGID_13_" gradientUnits="userSpaceOnUse" x1="2412.4385" y1="1661.6727" x2="2448.2517" y2="1661.6727">
					<stop  offset="0" style="stop-color:#20386E"/>
					<stop  offset="1" style="stop-color:#1A5AA6"/>
				</linearGradient>
				<path class="st20" d="M2421.2,1658.5c2.4,1.5,11.1,4.6,15.1,11.5c4.6,6.3,4.6,16.4,4.2,16.2c-0.5,0.4,7-9.3,7.5-20.2
					c1.4-10.8-4.3-22.9-9.8-25.4c-10.1-6.7-24-2.3-25.5,3.4C2411.1,1649.8,2416.2,1654.8,2421.2,1658.5z"/>
				<linearGradient id="SVGID_14_" gradientUnits="userSpaceOnUse" x1="2459.7039" y1="1449.687" x2="2494.4683" y2="1449.687">
					<stop  offset="0" style="stop-color:#20386E"/>
					<stop  offset="1" style="stop-color:#1A5AA6"/>
				</linearGradient>
				<path class="st21" d="M2481.3,1454.8c-1.5-1.2-5.1-5.6-10.4-7.3c-4.9-2.1-11.4-1.4-11.2-1.3c-0.2,0.3,4.5-4.3,11.4-5.2
					c6.6-1.4,15.5,0.8,18.2,3.6c6.3,5,6.3,12.6,2.9,13.8C2488.8,1459.7,2484.6,1457.3,2481.3,1454.8z"/>
				<linearGradient id="SVGID_15_" gradientUnits="userSpaceOnUse" x1="2460.9136" y1="1429.2509" x2="2480.3335" y2="1429.2509">
					<stop  offset="0" style="stop-color:#20386E"/>
					<stop  offset="1" style="stop-color:#1A5AA6"/>
				</linearGradient>
				<path class="st22" d="M2467.3,1423.7c0.1,1.9,1.3,7.5-0.5,12.7c-1.4,5.2-5.8,9.9-5.8,9.6c-0.3-0.1,6.2-1,11.1-5.8
					c5.2-4.4,8.8-12.8,8.2-16.6c-0.1-8-6.2-12.7-9.2-10.7C2468,1414.8,2467.4,1419.6,2467.3,1423.7z"/>
				<linearGradient id="SVGID_16_" gradientUnits="userSpaceOnUse" x1="2555.8467" y1="1589.6544" x2="2590.6111" y2="1589.6544">
					<stop  offset="0" style="stop-color:#20386E"/>
					<stop  offset="1" style="stop-color:#1A5AA6"/>
				</linearGradient>
				<path class="st23" d="M2577.4,1594.8c-1.5-1.2-5.1-5.6-10.4-7.3c-4.9-2.1-11.4-1.4-11.2-1.3c-0.2,0.3,4.5-4.3,11.4-5.2
					c6.6-1.4,15.5,0.8,18.2,3.6c6.3,5,6.3,12.6,2.9,13.8C2585,1599.7,2580.8,1597.3,2577.4,1594.8z"/>
				<linearGradient id="SVGID_17_" gradientUnits="userSpaceOnUse" x1="2556.0195" y1="1568.9645" x2="2573.6309" y2="1568.9645">
					<stop  offset="0" style="stop-color:#20386E"/>
					<stop  offset="1" style="stop-color:#1A5AA6"/>
				</linearGradient>
				<path class="st24" d="M2560.5,1563.4c0.2,1.9,1.9,7.4,0.5,12.7c-0.9,5.3-5,10.3-5,10.1c-0.3,0,6.1-1.5,10.6-6.7
					c4.8-4.8,7.7-13.4,6.8-17.2c-0.8-8-7.2-12.1-10-9.9C2560.6,1554.5,2560.3,1559.3,2560.5,1563.4z"/>
			</g>
			<g>
				<g>
					<linearGradient id="SVGID_18_" gradientUnits="userSpaceOnUse" x1="2295.3677" y1="1815.7374" x2="2549.0505" y2="1815.7374">
						<stop  offset="0" style="stop-color:#20386E"/>
						<stop  offset="1" style="stop-color:#1A5AA6"/>
					</linearGradient>
					<path class="st25" d="M2548.8,1766.2c-71.2,7.8-137.6,39.2-201.4,69.9c-43.1,20.7-40.9,26.6-49.7,29.6c-1.4,0.5-2.8-1-2.2-2.4
						c3.4-6.7,12.2-11.2,18.4-15.1c7.2-4.5,14.7-8.4,22.2-12.1c16.3-7.9,32.9-15,49.5-22.2c33.7-14.6,68-28.4,103.6-37.7
						c19.5-5.1,39.4-8.8,59.5-10.6C2549.1,1765.6,2549.2,1766.2,2548.8,1766.2L2548.8,1766.2z"/>
				</g>
				<linearGradient id="SVGID_19_" gradientUnits="userSpaceOnUse" x1="2479.0149" y1="1752.7314" x2="2505.0654" y2="1752.7314">
					<stop  offset="0" style="stop-color:#20386E"/>
					<stop  offset="1" style="stop-color:#1A5AA6"/>
				</linearGradient>
				<path class="st26" d="M2484.6,1744.1c0.5,2.9,3.5,11.4,1.6,19.8c-1.1,8.3-7.1,16.4-7.2,16c-0.5,0,9.4-2.7,16.1-11.2
					c7.2-7.8,11.2-21.5,9.6-27.3c-1.7-12.4-12-18.5-16.3-14.8C2484.1,1730.1,2483.9,1737.7,2484.6,1744.1z"/>
				<linearGradient id="SVGID_20_" gradientUnits="userSpaceOnUse" x1="2416.2644" y1="1775.1991" x2="2442.3152" y2="1775.1991">
					<stop  offset="0" style="stop-color:#20386E"/>
					<stop  offset="1" style="stop-color:#1A5AA6"/>
				</linearGradient>
				<path class="st27" d="M2421.8,1766.6c0.5,2.9,3.5,11.4,1.6,19.8c-1.1,8.3-7.1,16.4-7.2,16c-0.5,0,9.4-2.7,16.1-11.2
					c7.2-7.8,11.2-21.5,9.6-27.3c-1.7-12.4-12-18.5-16.3-14.8C2421.3,1752.6,2421.2,1760.1,2421.8,1766.6z"/>
				<linearGradient id="SVGID_21_" gradientUnits="userSpaceOnUse" x1="2352.5044" y1="1803.6193" x2="2378.5559" y2="1803.6193">
					<stop  offset="0" style="stop-color:#20386E"/>
					<stop  offset="1" style="stop-color:#1A5AA6"/>
				</linearGradient>
				<path class="st28" d="M2358.1,1795c0.5,2.9,3.5,11.4,1.6,19.8c-1.1,8.3-7.1,16.4-7.2,16c-0.5,0,9.4-2.7,16.1-11.2
					c7.2-7.8,11.2-21.5,9.6-27.3c-1.7-12.4-12-18.5-16.3-14.8C2357.5,1781,2357.4,1788.5,2358.1,1795z"/>
				<linearGradient id="SVGID_22_" gradientUnits="userSpaceOnUse" x1="2479.2334" y1="1795.6801" x2="2522.3904" y2="1795.6801">
					<stop  offset="0" style="stop-color:#20386E"/>
					<stop  offset="1" style="stop-color:#1A5AA6"/>
				</linearGradient>
				<path class="st29" d="M2503.3,1802.7c-1.3-2.4-3.8-10.4-9.8-15.5c-5.4-5.5-14.4-8.1-14.2-7.8c-0.4,0.3,8.4-3.3,18.1-0.8
					c9.7,1.7,20.2,9.6,22.3,14.8c5.7,10.1,1.4,20.3-3.7,20C2510.8,1813.4,2506.5,1807.9,2503.3,1802.7z"/>
				<linearGradient id="SVGID_23_" gradientUnits="userSpaceOnUse" x1="2413.9636" y1="1818.783" x2="2457.1201" y2="1818.783">
					<stop  offset="0" style="stop-color:#20386E"/>
					<stop  offset="1" style="stop-color:#1A5AA6"/>
				</linearGradient>
				<path class="st30" d="M2438.1,1825.9c-1.3-2.4-3.8-10.4-9.8-15.5c-5.4-5.5-14.4-8.1-14.2-7.8c-0.4,0.3,8.4-3.3,18.1-0.8
					c9.6,1.7,20.2,9.6,22.3,14.8c5.7,10.1,1.4,20.3-3.7,20C2445.5,1836.5,2441.2,1831,2438.1,1825.9z"/>
				<linearGradient id="SVGID_24_" gradientUnits="userSpaceOnUse" x1="2534.8333" y1="1774.3983" x2="2565.322" y2="1774.3983">
					<stop  offset="0" style="stop-color:#20386E"/>
					<stop  offset="1" style="stop-color:#1A5AA6"/>
				</linearGradient>
				<path class="st31" d="M2553,1779c-1.1-1.3-3.7-6-8.2-8.4c-4.1-2.7-10.1-3.2-10-3c-0.2,0.2,4.9-3.2,11.3-2.9
					c6.3-0.2,13.9,3.4,16,6.4c4.9,5.6,3.6,12.6,0.3,13.1C2559.1,1784.7,2555.7,1781.8,2553,1779z"/>
				<linearGradient id="SVGID_25_" gradientUnits="userSpaceOnUse" x1="2535.9705" y1="1753.1979" x2="2557.5815" y2="1753.1979">
					<stop  offset="0" style="stop-color:#20386E"/>
					<stop  offset="1" style="stop-color:#1A5AA6"/>
				</linearGradient>
				<path class="st32" d="M2545.5,1748.3c-0.3,1.7,0,7.1-2.6,11.5c-2.1,4.5-7,8-6.9,7.8c-0.3-0.1,5.8,0.2,11.1-3.5
					c5.5-3.1,10.1-10.2,10.3-13.8c1.3-7.3-3.5-12.6-6.6-11.3C2547.7,1740.3,2546.3,1744.5,2545.5,1748.3z"/>
			</g>
		</g>
	</g>
	<g>
		<g>
			<linearGradient id="SVGID_26_" gradientUnits="userSpaceOnUse" x1="531.7632" y1="1127.7972" x2="711.0126" y2="1127.7972">
				<stop  offset="0" style="stop-color:#20386E"/>
				<stop  offset="1" style="stop-color:#1A5AA6"/>
			</linearGradient>
			<path class="st33" d="M711,1330.7c-83.7-74.6-126.7-181.8-148.1-258.6c-23.2-83.3-26.6-149.9-26.6-150.5l-4.5-0.3
				c0,0.7,3.4,67.7,26.8,151.6c21.6,77.5,65.1,185.8,149.8,261.4L711,1330.7z"/>
		</g>
		<g>
			<linearGradient id="SVGID_27_" gradientUnits="userSpaceOnUse" x1="507.2292" y1="904.7171" x2="547.5779" y2="904.7171">
				<stop  offset="0" style="stop-color:#20386E"/>
				<stop  offset="1" style="stop-color:#1A5AA6"/>
			</linearGradient>
			<path class="st34" d="M545.8,902.3c4.1,19.2,0.7,37.3-8.1,50.4c-13.8-10.2-24.6-26.4-28.8-45.6c-4.1-19.2-0.7-37.3,8.1-50.4
				C530.9,866.9,541.7,883.1,545.8,902.3z"/>
		</g>
		<g>
			<linearGradient id="SVGID_28_" gradientUnits="userSpaceOnUse" x1="472.5082" y1="971.4069" x2="544.658" y2="971.4069">
				<stop  offset="0" style="stop-color:#20386E"/>
				<stop  offset="1" style="stop-color:#1A5AA6"/>
			</linearGradient>
			<path class="st35" d="M520.2,957c14.4,13.4,22.8,31,24.5,48c-15.8,0.7-33.2-5.7-47.7-19.1c-14.4-13.4-22.8-31-24.5-48
				C488.3,937.1,505.8,943.5,520.2,957z"/>
		</g>
		<g>
			<linearGradient id="SVGID_29_" gradientUnits="userSpaceOnUse" x1="465.0599" y1="1033.5715" x2="554.7239" y2="1033.5715">
				<stop  offset="0" style="stop-color:#20386E"/>
				<stop  offset="1" style="stop-color:#1A5AA6"/>
			</linearGradient>
			<path class="st36" d="M513.4,1014.4c17.9,5.6,32.6,18.1,41.3,33.3c-13,8.4-30.4,10.8-48.3,5.1c-17.9-5.6-32.6-18.1-41.3-33.3
				C478.1,1011.2,495.5,1008.8,513.4,1014.4z"/>
		</g>
		<g>
			<linearGradient id="SVGID_30_" gradientUnits="userSpaceOnUse" x1="501.957" y1="1102.6311" x2="572.9814" y2="1102.6311">
				<stop  offset="0" style="stop-color:#20386E"/>
				<stop  offset="1" style="stop-color:#1A5AA6"/>
			</linearGradient>
			<path class="st37" d="M541,1083.4c14.2,4.5,25.5,15.9,32,30.4c-10.8,9-24.9,12.5-39,8c-14.2-4.5-25.5-15.9-32-30.4
				C512.7,1082.4,526.8,1079,541,1083.4z"/>
		</g>
		<g>
			<linearGradient id="SVGID_31_" gradientUnits="userSpaceOnUse" x1="549.5621" y1="998.5004" x2="605.6147" y2="998.5004">
				<stop  offset="0" style="stop-color:#20386E"/>
				<stop  offset="1" style="stop-color:#1A5AA6"/>
			</linearGradient>
			<path class="st38" d="M565.2,984.9c11.2-11.2,26-16,40.3-14.5c0.8,15.2-4.4,30.5-15.6,41.8c-11.2,11.2-26,16-40.3,14.5
				C548.8,1011.5,554.1,996.1,565.2,984.9z"/>
		</g>
		<g>
			<linearGradient id="SVGID_32_" gradientUnits="userSpaceOnUse" x1="562.5117" y1="1047.9963" x2="618.5644" y2="1047.9963">
				<stop  offset="0" style="stop-color:#20386E"/>
				<stop  offset="1" style="stop-color:#1A5AA6"/>
			</linearGradient>
			<path class="st39" d="M578.2,1034.4c11.2-11.2,26-16,40.3-14.5c0.8,15.2-4.4,30.5-15.6,41.8c-11.2,11.2-26,16-40.3,14.5
				C561.8,1061,567,1045.6,578.2,1034.4z"/>
		</g>
	</g>
	<g>
		<g>
			<linearGradient id="SVGID_33_" gradientUnits="userSpaceOnUse" x1="399.2862" y1="1348.0862" x2="660.5717" y2="1348.0862">
				<stop  offset="0" style="stop-color:#20386E"/>
				<stop  offset="1" style="stop-color:#1A5AA6"/>
			</linearGradient>
			<path class="st40" d="M660.6,1431.9c-77.3-11.3-143.4-57.1-185.3-93.5c-45.5-39.5-72.9-76.9-73.2-77.3l-2.8,1.6
				c0.3,0.4,28,38,73.7,77.8c42.3,36.8,109.1,83,187.4,94.5L660.6,1431.9z"/>
		</g>
		<g>
			<linearGradient id="SVGID_34_" gradientUnits="userSpaceOnUse" x1="365.9554" y1="1254.7455" x2="414.7976" y2="1254.7455">
				<stop  offset="0" style="stop-color:#20386E"/>
				<stop  offset="1" style="stop-color:#1A5AA6"/>
			</linearGradient>
			<path class="st41" d="M400.2,1246.3c9.8,9.6,14.7,21.4,14.6,32.4c-11.9-0.6-24.5-5.9-34.2-15.5c-9.8-9.6-14.7-21.4-14.6-32.4
				C377.9,1231.4,390.4,1236.7,400.2,1246.3z"/>
		</g>
		<g>
			<linearGradient id="SVGID_35_" gradientUnits="userSpaceOnUse" x1="371.1767" y1="1300.7341" x2="438.8759" y2="1300.7341">
				<stop  offset="0" style="stop-color:#20386E"/>
				<stop  offset="1" style="stop-color:#1A5AA6"/>
			</linearGradient>
			<path class="st42" d="M406.2,1287.9c13.5,2.3,25.2,9.3,32.7,18.5c-8.9,6.5-21.5,9.4-35,7.2c-13.5-2.3-25.2-9.3-32.7-18.5
				C380.1,1288.6,392.7,1285.6,406.2,1287.9z"/>
		</g>
		<g>
			<linearGradient id="SVGID_36_" gradientUnits="userSpaceOnUse" x1="398.1829" y1="1336.3684" x2="461.0994" y2="1336.3684">
				<stop  offset="0" style="stop-color:#20386E"/>
				<stop  offset="1" style="stop-color:#1A5AA6"/>
			</linearGradient>
			<path class="st43" d="M424.3,1323.9c12.6-3.6,25.9-2,36.8,3.5c-4.4,9.8-13.6,17.9-26.1,21.5s-25.9,2-36.8-3.5
				C402.5,1335.6,411.7,1327.5,424.3,1323.9z"/>
		</g>
		<g>
			<linearGradient id="SVGID_37_" gradientUnits="userSpaceOnUse" x1="447.2307" y1="1365.9309" x2="497.1131" y2="1365.9309">
				<stop  offset="0" style="stop-color:#20386E"/>
				<stop  offset="1" style="stop-color:#1A5AA6"/>
			</linearGradient>
			<path class="st44" d="M466.9,1353.4c10-2.8,21-0.5,30.2,5.4c-2.8,9.4-9.7,16.8-19.6,19.6c-10,2.8-21,0.5-30.2-5.4
				C450,1363.7,456.9,1356.3,466.9,1353.4z"/>
		</g>
		<g>
			<linearGradient id="SVGID_38_" gradientUnits="userSpaceOnUse" x1="442.406" y1="1290.0045" x2="468.6658" y2="1290.0045">
				<stop  offset="0" style="stop-color:#20386E"/>
				<stop  offset="1" style="stop-color:#1A5AA6"/>
			</linearGradient>
			<path class="st45" d="M443.1,1286.8c2.2-10.8,8.9-19.3,17.9-23.9c6.3,8.5,9.1,19.4,7,30.3c-2.2,10.8-8.9,19.3-17.9,23.9
				C443.8,1308.6,441,1297.6,443.1,1286.8z"/>
		</g>
		<g>
			<linearGradient id="SVGID_39_" gradientUnits="userSpaceOnUse" x1="468.9266" y1="1313.8076" x2="495.1861" y2="1313.8076">
				<stop  offset="0" style="stop-color:#20386E"/>
				<stop  offset="1" style="stop-color:#1A5AA6"/>
			</linearGradient>
			<path class="st46" d="M469.7,1310.6c2.2-10.8,8.9-19.3,17.9-23.9c6.3,8.5,9.1,19.4,7,30.3c-2.2,10.8-8.9,19.3-17.9,23.9
				C470.3,1332.4,467.5,1321.4,469.7,1310.6z"/>
		</g>
	</g>
	<g>
		<g>
			<linearGradient id="SVGID_40_" gradientUnits="userSpaceOnUse" x1="326.4884" y1="1645.2791" x2="708.7633" y2="1645.2791">
				<stop  offset="0" style="stop-color:#20386E"/>
				<stop  offset="1" style="stop-color:#1A5AA6"/>
			</linearGradient>
			<path class="st47" d="M707.1,1663.2c-89.2,33.8-187.3,16-253.9-5c-72.3-22.8-124.2-53.9-124.7-54.3l-2,3.8
				c0.5,0.3,52.8,31.7,125.6,54.7c67.3,21.2,166.4,39.2,256.7,5L707.1,1663.2z"/>
		</g>
		<g>
			<linearGradient id="SVGID_41_" gradientUnits="userSpaceOnUse" x1="271.6812" y1="1603.0135" x2="352.6582" y2="1603.0135">
				<stop  offset="0" style="stop-color:#20386E"/>
				<stop  offset="1" style="stop-color:#1A5AA6"/>
			</linearGradient>
			<path class="st48" d="M317.5,1585.9c16.2,6.3,28.6,18.6,35.2,32.8c-13.1,6.7-29.6,7.7-45.8,1.4c-16.2-6.3-28.6-18.6-35.2-32.8
				C284.7,1580.6,301.3,1579.6,317.5,1585.9z"/>
		</g>
		<g>
			<linearGradient id="SVGID_42_" gradientUnits="userSpaceOnUse" x1="316.0774" y1="1653.4244" x2="395.058" y2="1653.4244">
				<stop  offset="0" style="stop-color:#20386E"/>
				<stop  offset="1" style="stop-color:#1A5AA6"/>
			</linearGradient>
			<path class="st49" d="M349.1,1636c15.8-5.5,32.4-3.8,46,3.5c-5.6,14-17.2,25.7-33,31.3c-15.8,5.5-32.4,3.8-46-3.5
				C321.7,1653.3,333.3,1641.6,349.1,1636z"/>
		</g>
		<g>
			<linearGradient id="SVGID_43_" gradientUnits="userSpaceOnUse" x1="375.058" y1="1684.1719" x2="431.5951" y2="1684.1719">
				<stop  offset="0" style="stop-color:#20386E"/>
				<stop  offset="1" style="stop-color:#1A5AA6"/>
			</linearGradient>
			<path class="st50" d="M390.1,1671.3c11.2-12.6,26.4-18.8,41.3-18.5c1.3,15.5-3.6,31.7-14.8,44.3c-11.2,12.6-26.4,18.8-41.3,18.5
				C374,1700.1,378.9,1683.9,390.1,1671.3z"/>
		</g>
		<g>
			<linearGradient id="SVGID_44_" gradientUnits="userSpaceOnUse" x1="432.4463" y1="1702.3822" x2="488.9834" y2="1702.3822">
				<stop  offset="0" style="stop-color:#20386E"/>
				<stop  offset="1" style="stop-color:#1A5AA6"/>
			</linearGradient>
			<path class="st51" d="M447.5,1689.5c11.2-12.6,26.4-18.8,41.3-18.5c1.3,15.5-3.6,31.7-14.8,44.3c-11.2,12.6-26.4,18.8-41.3,18.5
				C431.3,1718.3,436.3,1702.1,447.5,1689.5z"/>
		</g>
		<g>
			<linearGradient id="SVGID_45_" gradientUnits="userSpaceOnUse" x1="380.1135" y1="1620.4395" x2="429.8039" y2="1620.4395">
				<stop  offset="0" style="stop-color:#20386E"/>
				<stop  offset="1" style="stop-color:#1A5AA6"/>
			</linearGradient>
			<path class="st52" d="M393.5,1630.7c-9.9-12.9-14.3-28.3-13.2-42.4c13,1.5,26.3,9.1,36.2,21.9c9.9,12.9,14.3,28.3,13.2,42.4
				C416.7,1651.1,403.4,1643.5,393.5,1630.7z"/>
		</g>
		<g>
			<linearGradient id="SVGID_46_" gradientUnits="userSpaceOnUse" x1="439.1379" y1="1638.8761" x2="489.6395" y2="1638.8761">
				<stop  offset="0" style="stop-color:#20386E"/>
				<stop  offset="1" style="stop-color:#1A5AA6"/>
			</linearGradient>
			<path class="st53" d="M453.1,1649.3c-10.1-12.7-14.7-28.1-13.9-42.2c13,1.3,26.4,8.6,36.4,21.3c10.1,12.7,14.7,28.1,13.9,42.2
				C476.6,1669.4,463.2,1662,453.1,1649.3z"/>
		</g>
		<g>
			<linearGradient id="SVGID_47_" gradientUnits="userSpaceOnUse" x1="521.1947" y1="1697.9785" x2="539.4525" y2="1697.9785">
				<stop  offset="0" style="stop-color:#20386E"/>
				<stop  offset="1" style="stop-color:#1A5AA6"/>
			</linearGradient>
			<path class="st54" d="M522.9,1694.5c2.6-6.7,7.9-11.3,14-13.3c2.9,6.2,3.5,13.5,0.8,20.2c-2.6,6.7-7.9,11.3-14,13.3
				C520.8,1708.5,520.3,1701.2,522.9,1694.5z"/>
		</g>
	</g>
	<path class="st9" d="M898.5,1865.1c0,0,113.6-449.3,75.9-494.4c-52.1-62.4-95,144.6-99.2,127c-39.8-166-50.4-378.4-178.8-400.9
		c-73-12.8,16.9,157.9,11.5,204.1c-5.4,46.2-136.9-107.1-216.8-187.4c-79.9-80.3-121.2-29.5-70.7,71.5
		c48.8,97.7,206.8,204.4,174.2,217c-32.6,12.7-230.2-113.5-254.4-59.5c-29.7,66.1,266.8,156.1,238.9,170.9
		c-27.9,14.8-169.6-34.1-165.8,16.5c3.9,50.5,194.4,48.7,191.1,70.9c-5.3,36-131.3-45.5-136.8,4.3c-5.7,51,165.8,41.7,162.8,81.4
		c-1.7,22.8-38.5-11.6-43.9,20c-12.4,72.1,213.6,160,213.6,160L898.5,1865.1z"/>
	<g>
		<linearGradient id="SVGID_48_" gradientUnits="userSpaceOnUse" x1="540.91" y1="1750.8345" x2="985.0771" y2="1750.8345">
			<stop  offset="0" style="stop-color:#20386E"/>
			<stop  offset="1" style="stop-color:#1A5AA6"/>
		</linearGradient>
		<path class="st55" d="M985.1,1867.9c0,0-108.1-165.8-160.1-197c-55.4-33.3-13.2,66.5-13.2,66.5S698.5,1602.6,667,1629.9
			c-31.5,27.4-2.9,59.1-2.9,59.1s-101.7-30.1-120,7.2c-28.1,57.4,139.3,104.9,139.3,104.9s-71.9-0.8-58.6,38
			C644.7,1897.5,985.1,1867.9,985.1,1867.9z"/>
		<path class="st9" d="M544.1,1696.2c18.3-37.3,120-7.2,120-7.2s-28.6-31.7,2.9-59.1c31.5-27.4,122.1,54.6,122.1,54.6
			s-9.5-67.6,58.7-8c48.7,42.5,137.3,191.4,137.3,191.4L544.1,1696.2z"/>
	</g>
	<g>
		<g>
			<g>
				<linearGradient id="SVGID_49_" gradientUnits="userSpaceOnUse" x1="728.3397" y1="1144.9535" x2="858.7039" y2="1144.9535">
					<stop  offset="0" style="stop-color:#20386E"/>
					<stop  offset="1" style="stop-color:#1A5AA6"/>
				</linearGradient>
				<path class="st56" d="M853.9,1451.7l4.9-3.3c-88-133.3-114.9-291.6-121.9-400.9c-7.6-118.6,5.8-206.8,5.9-207.6l-6-1.7
					c-0.1,0.9-13.6,89.6-6,208.9C737.8,1157.3,764.9,1317,853.9,1451.7z"/>
			</g>
			<g>
				<linearGradient id="SVGID_50_" gradientUnits="userSpaceOnUse" x1="711.1925" y1="814.3693" x2="760.0162" y2="814.3693">
					<stop  offset="0" style="stop-color:#20386E"/>
					<stop  offset="1" style="stop-color:#1A5AA6"/>
				</linearGradient>
				<path class="st57" d="M760,819.2c0.2,26.8-9.1,48.9-23.9,62.2c-15.1-19.1-24.7-45-24.9-71.8c-0.2-26.8,9.1-48.9,23.9-62.2
					C750.2,766.5,759.8,792.4,760,819.2z"/>
			</g>
			<g>
				<linearGradient id="SVGID_51_" gradientUnits="userSpaceOnUse" x1="655.4979" y1="893.1967" x2="731.5864" y2="893.1967">
					<stop  offset="0" style="stop-color:#20386E"/>
					<stop  offset="1" style="stop-color:#1A5AA6"/>
				</linearGradient>
				<path class="st58" d="M712.3,879.4c15,23.7,21.2,50.3,18.7,73.1c-20.6-5.9-41.3-21.7-56.3-45.4c-15-23.7-21.2-50.3-18.7-73.1
					C676.6,839.8,697.3,855.7,712.3,879.4z"/>
			</g>
			<g>
				<linearGradient id="SVGID_52_" gradientUnits="userSpaceOnUse" x1="624.607" y1="974.77" x2="732.6537" y2="974.77">
					<stop  offset="0" style="stop-color:#20386E"/>
					<stop  offset="1" style="stop-color:#1A5AA6"/>
				</linearGradient>
				<path class="st59" d="M688.3,951.3c21.6,15,37.2,37.6,44.4,61.1c-19,5.3-42.1,1-63.7-14.1c-21.6-15-37.2-37.6-44.4-61.1
					C643.6,931.9,666.7,936.2,688.3,951.3z"/>
			</g>
			<g>
				<linearGradient id="SVGID_53_" gradientUnits="userSpaceOnUse" x1="689.578" y1="1087.0654" x2="736.6983" y2="1087.0654">
					<stop  offset="0" style="stop-color:#20386E"/>
					<stop  offset="1" style="stop-color:#1A5AA6"/>
				</linearGradient>
				<path class="st60" d="M716.5,1076.8c9.4,5.6,16.6,14.6,20.2,24.3c-7.7,2.9-17.5,1.8-26.9-3.8c-9.4-5.6-16.6-14.6-20.2-24.3
					C697.3,1070.1,707,1071.2,716.5,1076.8z"/>
			</g>
			<g>
				<linearGradient id="SVGID_54_" gradientUnits="userSpaceOnUse" x1="697.2335" y1="1133.5737" x2="744.3532" y2="1133.5737">
					<stop  offset="0" style="stop-color:#20386E"/>
					<stop  offset="1" style="stop-color:#1A5AA6"/>
				</linearGradient>
				<path class="st61" d="M724.1,1123.3c9.4,5.6,16.6,14.6,20.2,24.3c-7.7,2.9-17.5,1.8-26.9-3.8c-9.4-5.6-16.6-14.6-20.2-24.3
					C705,1116.6,714.7,1117.7,724.1,1123.3z"/>
			</g>
			<g>
				<linearGradient id="SVGID_55_" gradientUnits="userSpaceOnUse" x1="731.7104" y1="958.1297" x2="818.7728" y2="958.1297">
					<stop  offset="0" style="stop-color:#20386E"/>
					<stop  offset="1" style="stop-color:#1A5AA6"/>
				</linearGradient>
				<path class="st62" d="M763,935.1c17.4-9.9,37.7-9.8,55.8-1.6c-3,20.1-13.9,37.9-31.3,47.7c-17.4,9.9-37.7,9.8-55.8,1.6
					C734.7,962.7,745.6,944.9,763,935.1z"/>
			</g>
			<g>
				<linearGradient id="SVGID_56_" gradientUnits="userSpaceOnUse" x1="735.184" y1="1028.1904" x2="822.2464" y2="1028.1904">
					<stop  offset="0" style="stop-color:#20386E"/>
					<stop  offset="1" style="stop-color:#1A5AA6"/>
				</linearGradient>
				<path class="st63" d="M766.4,1005.1c17.4-9.9,37.7-9.8,55.8-1.6c-3,20.1-13.9,37.9-31.3,47.7c-17.4,9.9-37.7,9.8-55.8,1.6
					C738.2,1032.8,749,1015,766.4,1005.1z"/>
			</g>
			<g>
				<linearGradient id="SVGID_57_" gradientUnits="userSpaceOnUse" x1="742.648" y1="1120.4113" x2="799.315" y2="1120.4113">
					<stop  offset="0" style="stop-color:#20386E"/>
					<stop  offset="1" style="stop-color:#1A5AA6"/>
				</linearGradient>
				<path class="st64" d="M763,1105.4c11.3-6.4,24.6-6.3,36.3-1c-2,13.1-9,24.6-20.3,31.1c-11.3,6.4-24.6,6.3-36.3,1
					C744.6,1123.4,751.7,1111.8,763,1105.4z"/>
			</g>
		</g>
	</g>
	<g>
		<path class="st65" d="M2005,1500.7c10.2,1.7,9.6,3.3,10.9,3.5c1.6,0.2,20-9.1,20-9.1s54.6-26.9,57.5-28.5l39.4-49.6l30.4,14
			c0,0-44.3,52.7-47.1,55c-2.8,2.3-81.1,29.8-87.9,32.4c0,0-6.9,6.3-11.3,10.1c-4.4,3.8-10.4,5.3-11.8,6.2c-0.2,0.1-5.1,2.7-12,4.2
			c-6,1.3-1-2.8-1-2.8s10.6-4.5,10-5.3c-0.4-0.6-6,2.2-12.6,3.7c-1.7,0.4-3.4,0.8-4.9,1.1c-4,0.9-5.8-1.4-1.8-3
			c1.4-0.6,3.8-1.5,5.7-1.8c2-0.4,3.6-1.4,5.2-2c3.1-1.2,5.5-2,5.3-2.1c-0.2-0.1,0.3-0.8-1.5-0.5c-2.2,0.4-6.6,2.4-9.8,2.8
			c-1.8,0.2-5.7,0.9-5.7,0.9s-6.8,0.6-6.8-0.3c-0.1-2.1,4.1-3.2,6.6-3.2c1.6-0.8,5.7-1.4,5.7-1.4s7.9-3.1,7.4-4.3
			c-0.2-0.5-4.9,0.2-10,0.6c-5.3,0.4-9.2,0.4-9.5-0.7c-0.5-1.6,3.8-2.3,3.8-2.3s3.7-0.5,5-0.8c1.4-0.3,5.7-1.6,5.7-1.6
			s14.4-5.3,13.9-6.4c-0.5-1.1-2.9-3.3-3.9-3.3c-1,0-2.8,1-3.9,1c-1,0-3.2-0.2-3.4-1.5c-0.2-1.3,5.5-3.9,5.5-3.9
			S2002,1500.2,2005,1500.7z"/>
		<path class="st66" d="M2105.4,1447.8c0,0,9.8,8.9,13.9,11.9c3.4,2.4,20,10.4,20,10.4s16.5-25.2,23.7-37.9
			c8.7-15.4,14.8-38.2,12.7-38.8c-5.8-1.7-13.8-2.8-21.1,0.6C2129.1,1405.6,2105.4,1447.8,2105.4,1447.8z"/>
		<path class="st67" d="M2014.5,1513.9c-4.4,0.7-8.8-0.1-10.8-4.1C2003.3,1514.5,2010.5,1516.8,2014.5,1513.9z"/>
	</g>
	<path class="st68" d="M792.6,1336.9c0.6-14.7-1.5-29.2-8.1-42.9c-5.6-11.8-19.6-18.5-32.3-18.5c-40.4-0.1-45.5,53.5-71.2,74.2
		c-7.9,6.3-16.6,11.5-24.1,18.3c-27.4,25.1-15.1,71.7,10.1,93.7c17.5,15.3,45,24,66.5,12c11.2-6.2,19.8-16.6,25.9-28
		c8.6-16.1,14.2-34.7,20.3-51.9C786.3,1375.4,791.8,1356.4,792.6,1336.9z"/>
	<path class="st69" d="M799.2,1408c-12.6-38.2-29.3-37.6-29.3-37.6l13.4,81.4c7.8-2.1,17.9-6.9,25.7-9.1
		C806.5,1430.7,802.3,1417.4,799.2,1408z"/>
	<path class="st70" d="M862.9,1538.5l-46.1-35.2c0,0-4.6-32.8-10.8-61.9c-7.8,2.2-14.8,8.3-22.6,10.4l11.7,65.2l60.4,31.2l17.1,21.9
		l3.9-22.5L862.9,1538.5z"/>
	<path class="st4" d="M1283,1483.5c14.3,0,27.7,3.8,39.4,10.4c1.5,0.8,3.1,1.6,4.8,2.3c35.4,14.5,74.2-12.4,74.2-50.7v-188.3H1213
		c-38.3,0-65.2-38.8-50.7-74.2c0.7-1.7,1.5-3.3,2.3-4.8c6.6-11.6,10.4-25,10.4-39.4c0-45.4-37.8-81.9-83.6-79.8
		c-41.5,1.9-74.9,36-76,77.5c-0.4,14.8,3.2,28.6,9.8,40.6c0.8,1.5,1.6,3.1,2.3,4.8c14.4,36-12.9,75.1-51.7,75.1H789v429.1
		c0,101.2,82.1,183.3,183.3,183.3h429.1v-187.7c0-38.5-38.9-65.6-74.5-51.1c-1.7,0.7-3.3,1.4-4.8,2.3c-12.7,7.1-27.5,10.9-43.3,10
		c-40.7-2.2-73.5-35.2-75.4-75.9C1201.1,1521.4,1237.6,1483.5,1283,1483.5z"/>
	<linearGradient id="SVGID_58_" gradientUnits="userSpaceOnUse" x1="1394.4016" y1="1218.0779" x2="2174.2827" y2="1965.4639">
		<stop  offset="0" style="stop-color:#F6A300"/>
		<stop  offset="1" style="stop-color:#FCDA73"/>
	</linearGradient>
	<path class="st71" d="M1691.2,1379.1c0.7-14.3,5.1-27.5,12.2-38.8c0.9-1.4,1.7-3,2.5-4.6c16.2-34.7-8.9-74.7-47.2-76.5l-188.1-8.8
		l-8.8,188.1c-1.8,38.2-41.8,63.4-76.5,47.2c-1.7-0.8-3.2-1.6-4.6-2.5c-11.3-7.1-24.5-11.5-38.8-12.2c-45.3-2.1-83.6,34-83.6,79.8
		c0,41.5,32.4,76.5,73.8,79.6c14.7,1.1,28.8-1.8,41.1-7.9c1.5-0.8,3.2-1.4,4.9-2c36.6-12.7,74.4,16.4,72.6,55.2L1442,1862l428.6,20
		c101.1,4.7,186.9-73.4,191.6-174.5l20-428.6l-187.5-8.8c-38.4-1.8-67.3,35.8-54.5,72.1c0.6,1.7,1.3,3.4,2.1,4.9
		c6.5,13,9.6,28,8,43.7c-4,40.5-38.6,71.8-79.3,71.8C1725.2,1462.7,1689,1424.4,1691.2,1379.1z"/>
	<linearGradient id="SVGID_59_" gradientUnits="userSpaceOnUse" x1="765.6356" y1="899.2565" x2="1581.6082" y2="899.2565">
		<stop  offset="0" style="stop-color:#F6A300"/>
		<stop  offset="1" style="stop-color:#FCDA73"/>
	</linearGradient>
	<path class="st72" d="M1167,1082.9c0.7,14.3-2.4,27.9-8.4,39.8c-0.8,1.5-1.4,3.1-2.1,4.9c-12.7,36.1,16.1,73.5,54.3,71.5l188.1-9.5
		l-9.5-188.1c-1.9-38.2,35.4-67.1,71.5-54.3c1.7,0.6,3.4,1.3,4.9,2.1c11.9,6,25.5,9.1,39.8,8.4c45.3-2.3,79.9-41.9,75.5-87.5
		c-4-41.3-39.7-73-81.2-72c-14.8,0.3-28.4,4.6-40.1,11.8c-1.5,0.9-3,1.7-4.7,2.5c-35.2,16.2-75.6-9.2-77.6-47.9l-9.4-186.5
		l-428.5,21.5c-101.1,5.1-178.9,91.2-173.8,192.2l21.5,428.5l187.4-9.4c38.4-1.9,63.6-42.1,47.3-77c-0.8-1.7-1.6-3.2-2.5-4.7
		c-7.8-12.3-12.3-27-12.2-42.8c0.1-40.7,31.5-75.2,72-79.1C1125.1,1003,1164.7,1037.6,1167,1082.9z"/>
	<path class="st4" d="M1552,979.1c-14.3,0-27.7-3.8-39.4-10.4c-1.5-0.8-3.1-1.6-4.8-2.3c-35.4-14.5-74.2,12.4-74.2,50.7v188.3H1622
		c38.3,0,65.2,38.8,50.7,74.2c-0.7,1.7-1.5,3.3-2.3,4.8c-6.6,11.6-10.4,25-10.4,39.4c0,45.4,37.8,81.9,83.6,79.8
		c41.5-1.9,74.9-36,76-77.5c0.4-14.8-3.2-28.6-9.8-40.6c-0.8-1.5-1.6-3.1-2.3-4.8c-14.4-36,12.9-75.1,51.7-75.1H2046V776.4
		c0-101.2-82.1-183.3-183.3-183.3h-429.1v187.7c0,38.5,38.9,65.6,74.5,51.1c1.7-0.7,3.3-1.5,4.8-2.3c12.7-7.1,27.5-10.9,43.3-10
		c40.7,2.1,73.5,35.2,75.4,75.9C1633.9,941.2,1597.3,979.1,1552,979.1z"/>
	<path class="st73" d="M666.4,1810c0,0-2.8,19.8-7.7,26.1c-1.6,2.1-4.6,4.8-6.6,8.7c-3.1,6-1.4,15,0.9,19.9c1.2,2.5-0.1,2.5,2.6,3.3
		c7.8,2.4,16.2-1.7,19.5-9.2c1.9-4.2,3.5-9.8,3.8-16.8c0.8-17.9,6.4-27.1,6.4-27.1L666.4,1810z"/>
	<path class="st73" d="M752,1819.1c0,0,1.8,22.3,0.3,29.5c-0.8,3.9-5,11.9-3.1,15.5c1.9,3.7,4.2,4.6,4.2,4.6l50.5,0.8
		c2.8,0,0.9-1.7-1.3-3.4c-3.6-2.7-6.6-4.4-18.2-10.1c-0.8-0.4-3.5-2.1-4.5-2.7c-2.5-1.5-5-4-7.2-6.4c-3.6-4-3.9-23.7-3.9-23.7
		L752,1819.1z"/>
	<path class="st66" d="M791.5,1522.7c0,0,6.4,36.2,2.2,59.9s-24.2,243.7-24.2,243.7l-22.3,1.3c0,0-4.7-91.9-3.8-104.7
		c0.8-12.8,7.4-34.2,7.4-34.2l-2.2-74.2l28.1-97.5L791.5,1522.7z"/>
	<path class="st74" d="M726,1515.1c0,0-17.5,26.5-21.7,48.4c-4.2,21.9,3.1,89.2-5,117.9c-4.4,15.5-20.8,39.5-23.3,59.6
		c-2.5,20.1-12.3,72.7-12.3,72.7l22.3,4.4l51.8-131.4l40.6-118.7l10.4-61.1L726,1515.1z"/>
	<linearGradient id="SVGID_60_" gradientUnits="userSpaceOnUse" x1="668.9992" y1="1353.629" x2="833.2797" y2="1550.4045">
		<stop  offset="0" style="stop-color:#F6A300"/>
		<stop  offset="1" style="stop-color:#FCDA73"/>
	</linearGradient>
	<path class="st75" d="M740.2,1364.5c0,0-23.2-1.5-32.4,8.6c-9.2,10,20.4,89.5,22.1,102.2c1.7,12.8-8.5,46.8-8.5,46.8
		s54.6,11,70.2,0.7c0,0,1.7-91.9,0-101c-1.7-9.1-15.6-46.2-18.9-49.9C769.2,1368.2,740.2,1364.5,740.2,1364.5z"/>
	<path class="st73" d="M747.9,1333.4c0,0-0.1,0.7-0.3,1.9c-1,5.6-5,24.2-7.7,29.3c-3.3,6.2,11.1,25.8,25,23.4
		c4.1-0.7-3.5-18.1-3.1-19.9c0.7-3.5,1.7-8.3,2.6-13.2c0.5-2.8,1.1-5.6,1.6-8.2c1.5-7.5,2.7-13.7,2.7-13.7L747.9,1333.4z"/>
	<path class="st76" d="M747.6,1335.3c0.2-1.2,0.3-1.9,0.3-1.9l20.8-0.5c0,0-1.2,6.2-2.7,13.7c-0.5,2.6-1.1,5.4-1.6,8.2
		c-3.2-0.5-6.6-2-9.9-5c-3.7-3.2-6.1-7.1-7.5-11.2C747.2,1337.3,747.4,1336.2,747.6,1335.3z"/>
	<path class="st73" d="M761.9,1286.1c0,0-9.8-1.1-15.9,6.8c-6.1,8-12.8,32.6,2.5,45.9c15.2,13.4,30.3-1.8,32.5-17.8
		C783.2,1305,784.1,1285.5,761.9,1286.1z"/>
	<path class="st73" d="M785.5,1320.8c-1.8,3.5-4.9,5.5-6.8,4.4c-1.9-1.1-2.1-4.9-0.2-8.5c1.8-3.5,4.9-5.5,6.8-4.4
		C787.2,1313.5,787.3,1317.3,785.5,1320.8z"/>
	<path class="st68" d="M763,1283.5c0,0-13.1,23.4-22.4,24.5c-9.4,1.1-10.6,13.5-10.6,13.5s3.3-28.6,12.6-34.2
		C751.8,1281.8,763,1283.5,763,1283.5z"/>
	<path class="st76" d="M676.5,1855.1c-12.1,2.2-20.2-4.9-24.4-10.2c-3.1,6-4.6,15-2.3,20c2,4.4,7.8,4.2,12.4,4.4
		c4.9,0.2,8.6-2.5,11-6.8C674.4,1860.5,675.5,1858,676.5,1855.1z"/>
	<path class="st76" d="M780,1853.3c-13.4,3.4-23.2,1.1-28.8-1.1c-1.4,4-3.3,9.1-2.3,12.1c1.2,3.6,3,4.4,4.5,4.4
		c12.2,0.3,44.7,0.8,54,0.9c1.3,0,2-1.5,1.2-2.5C806.3,1864.3,781,1853.9,780,1853.3z"/>
	<path class="st73" d="M743,1313.8c0.8,4.2-0.8,8-3.4,8.5c-2.6,0.5-5.4-2.4-6.2-6.5c-0.8-4.2,0.8-8,3.4-8.5
		C739.5,1306.8,742.2,1309.7,743,1313.8z"/>
	<path class="st0" d="M758.3,1328.2l11.8,0.5c0,0-0.5,4.5-5.7,4.4C758.1,1333,758.3,1328.2,758.3,1328.2z"/>
	<g>
		<path class="st77" d="M1765.5,386.4c1.5,0.1,5.5,1.4,11.4,12.5c7.5,14.2,18.5,57.2,18.5,57.2l-32.8,12.2l-4.2-9l-6.9-69
			C1751.4,390.4,1765.1,386.4,1765.5,386.4z"/>
		<path class="st4" d="M1722.1,380.2c9.4,0,32.6,2.8,43.4,6.2c0,0,7.9,68.1-7.1,119.8c-3.4,11.6,2.8,48,2.8,48l-97.3-1.3
			c0,0,11.5-88.1,7.2-102.3c-4.3-14.2-4.4-63.8-4.4-63.8s0.7-0.1,21.9-3.8C1698.3,381.4,1712,380.2,1722.1,380.2z"/>
		<path class="st73" d="M1710.7,680.6c0,0,2.2,24.8,6.1,31.7c4,6.9-0.2,18.6-0.4,20.2c-0.2,1.6-8.3,3.9-21.2,2.5
			c-12.9-1.4-12.7-4.4-11.7-9.2c1-4.8,7.9-11,8.3-15.6c0.4-4.6-4-21.1-4-21.1L1710.7,680.6z"/>
		<path class="st78" d="M1750.1,533.7c0,0,67.2-3.7,82.2,5.4c15,9.1-10.7,53.7-10.7,53.7s-46.7-2.2-138.3,3.1
			c-21.7,1.3-23.5-56.5-19.5-61.3C1667.9,529.8,1750.1,533.7,1750.1,533.7z"/>
		<path class="st77" d="M1693.6,737c-13.3-1.4-11.7-8-10.6-12.9c0.7-3.1,4.5-6.8,6.8-10.2c1.2,0.9,3.1,2.6,8.9,4.3
			c6,1.8,14.2-1.7,19.5-3.9c1.9,6.9,2,15.8,1.8,17.2C1719.7,733,1706.9,738.4,1693.6,737z"/>
		<path class="st69" d="M1700.9,581.8c2.7,20.3,16,121.4,16,121.4L1686,707c0,0-37.9-131.9-36-152.1c1.9-20.2,16.1-21.9,16.1-21.9
			S1693.8,528,1700.9,581.8z"/>
		<path class="st73" d="M1665.5,394.4c9.1-3.4,13.5,78.6,14.8,112.3c16.1,1.5,44.2,0,51.2-0.5c3.3-0.2,10.9-3,14.1-3.5
			c3.4-0.4,6.4-0.7,8-0.4c0.6,0.1,17.4,7,18.8,8.5c1.8,1.9,6.6,6.6,5.8,8.6c-0.8,2-9.3-5.7-9.3-5.7l-4.1-2.3
			c5.1,5,14.9,11.6,13.5,14c-1.4,2.3-10.2-4.4-16.5-8.9c5.4,4.9,12.1,13.6,10.6,15c-1.4,1.2-9-8.9-17.2-11.8c-3-1.1-6,1.9-8.4,2.3
			c-1.7,0.3-4.5,0.8-6.2,0.3l-8.8-2.5c-3,0.3-3.1,2.1-6.1,2.7c-3.5,0.8-9.3,1.5-13.8,2.6c-25.9,6.3-34.5,9.3-42.5,9.3
			C1645.4,534.5,1644,402.5,1665.5,394.4z"/>
		<path class="st77" d="M1648.2,471.4c-1.7-34.6-1.5-77.2,17.9-84.4c7.6-2.9,21.1,14.4,18.7,85.1
			C1674.5,473,1659.3,473.6,1648.2,471.4z"/>
		<path class="st73" d="M1800.9,701.9c0,0-2.7,8.6,2.1,14.3c4.8,5.7,24.8,11.3,27.5,14.4c2.6,3.1,2.4,5.7,2.4,5.7l-56.2-1.5l0.6-17
			l2.6-12.2L1800.9,701.9z"/>
		<path class="st77" d="M1806.5,719c0,0-14.4,5.8-21.4,2.4c-7-3.5-6.8-4.4-8.8-3.1c-2,1.3-2.7,17.2-2.7,17.2l63.2,1.9
			c4.4-0.1,6.6-3.3,3-6.1c-2.4-1.9-5.3-3.2-6.9-4.1C1827.9,724.3,1806.5,719,1806.5,719z"/>
		<path class="st69" d="M1798.7,549.7c4.3-9.1,14.2-21,31.6-13.9c16.6,6.8,21,23.6,15.8,40.8c-5.2,17.2-39.6,118.3-40.8,132.2
			l-27.5,0.2c0,0,5-80,6.2-99.4C1785.2,591,1791.2,565.5,1798.7,549.7z"/>
		<path class="st79" d="M1843.4,456.5h-91.9c-2.4,0-4.6,1.5-5.5,3.7l-28.3,69.2H1667c-1.4,0-2.6,1.2-2.6,2.6l0,0
			c0,1.4,1.1,2.6,2.6,2.6h144.1c4,0,7.6-2.3,9.2-6l28.5-63.7C1850.6,461,1847.7,456.5,1843.4,456.5z"/>
		<path class="st0" d="M1793.9,496.9c-0.6,3.1-3.3,5.2-6,4.6c-2.7-0.5-4.4-3.5-3.8-6.6c0.6-3.1,3.3-5.2,6-4.6
			C1792.8,490.8,1794.5,493.7,1793.9,496.9z"/>
		<g>
			<path class="st77" d="M1743.9,297.1c-2.8-0.9-5.5-2-8.1-3.3c-3-1.4-6.8-3.1-9.3-3.5c-5.1-0.8-13.9-0.3-18.8,5
				c-6.1,6.6-16.8,1.2-14.7,35.6c2.5,39,24.1,34.7,24.6,34c0.5-0.7,19.3-24.9,19.3-24.9s6.6,14.4,6.6,13.8
				C1743.6,353.4,1777.1,308.3,1743.9,297.1z"/>
			<path class="st73" d="M1727.4,367.9l1.9,13.9c0,0,4.2,20.1-1.2,23.9c-5.4,3.9-22.9-24.5-22.9-24.5l1.9-35.3L1727.4,367.9z"/>
			<path class="st76" d="M1706.4,357.4c4.5,12,15.1,19.4,22.6,22.3l-1.6-11.8l-20.4-21.9L1706.4,357.4z"/>
			<path class="st73" d="M1726.3,307.5c11.4-1.8,21.7,7.3,21.4,18.8c-0.1,5-0.5,11.2-1.6,17.9c-2.5,16.1-13.4,30.2-20.7,29
				s-25.5-15.1-22.3-38C1705.2,321,1714.4,309.5,1726.3,307.5z"/>
			<path class="st73" d="M1708.2,337.9c-0.6,3.5-3.4,6-6.3,5.5c-2.9-0.5-4.7-3.8-4.1-7.3c0.6-3.5,3.4-6,6.3-5.5
				C1707,331.1,1708.8,334.3,1708.2,337.9z"/>
			<path class="st77" d="M1704.1,330.5c0,0,8.8,2.2,12-3.5c3.3-5.6,14.9-17.8,29.7-12.8c14.8,5-13-12.3-14.2-12.3
				c-1.2,0-15.4-0.1-15.4-0.1s-10.9,9-11.3,10c-0.4,1-3.5,11.8-3.5,11.8L1704.1,330.5z"/>
		</g>
		<path class="st0" d="M1720.1,354.1l16,3.1c0,0-1.5,6-8.6,4.9C1718.9,360.6,1720.1,354.1,1720.1,354.1z"/>
	</g>
	<g>
		<path class="st65" d="M1450.3,1464.7c0.6,2.1,1,2.8,1.7,4.2c5,9.1,16.6,22.1,16.6,22.1l9-20.2c0,0-1.5-6.4-4-15.4
			C1464.9,1457.6,1456.7,1458.9,1450.3,1464.7z"/>
		<path class="st80" d="M1501.8,1447.2c0,0-50.1,21.6-51.7,21.2c-1-0.3-20.5-32.9-20.7-63.6c-0.1-14.2,14.6-31.2,31-27.9
			c8.3,1.7,8.1,4,20.4,21.8C1493,1416.4,1501.8,1447.2,1501.8,1447.2z"/>
		<path class="st73" d="M1544.5,1833.8c0,0-1.2,19.7-1.2,19.7c-0.4,2.5-2.2,8.7-2.2,10.9c0,8.5,40.5-7.2,31.4-11
			c-0.8-0.3-5.1-2.9-5.4-5.8c-0.4-4.5-1.5-13.5-1.5-13.5L1544.5,1833.8z"/>
		<path class="st81" d="M1572.5,1853.3c0,0-9.5,2.6-14.4,3.3c-4.9,0.7-11.3-4.8-14.7-3.4c-3.8,1.6-3.6,16.3-3.6,16.3
			s51,4.2,65.3-0.1C1610.7,1867.7,1591.9,1859.4,1572.5,1853.3z"/>
		<path class="st73" d="M1461.7,1833.8c0,0-1.2,19.7-1.2,19.7c-0.4,2.5-2.2,8.7-2.2,10.9c0,8.5,40.5-7.2,31.4-11
			c-0.8-0.3-6.4-4.9-6.7-7.8c-0.4-4.5-0.2-11.6-0.2-11.6L1461.7,1833.8z"/>
		<path class="st81" d="M1489.6,1853.3c0,0-9.5,2.6-14.4,3.3c-4.9,0.7-11.3-4.8-14.7-3.4c-3.8,1.6-3.9,16.3-3.9,16.3
			s51.2,4.9,65.6-0.1C1527.8,1867.5,1509.1,1859.4,1489.6,1853.3z"/>
		<g>
			<path class="st73" d="M1474.1,1475.6l35.7-50c0.1-0.4,0.5-1.3,1-2.7c1.8-5,5.5-15.3,8.8-25.5l0-0.1c1-3.6,3.2-9.8,5.3-15.9
				c2.3-6.7,5.2-15.1,5.3-16.5c-0.1-0.2-0.3-0.7-0.5-1.3c-1.3-3.4-3.1-11.5-3.7-15c-0.4-2.2-0.8-7.7,1.9-7.7c4.2,0,2.2,5.4,4.1,8.8
				c0.7-2.3,2.1-6.8,2.9-11.3l0.7-10.6c0.1-0.8-0.7-6.7,2.2-6.7l0.1,0c2.6,0.2,2.6,6.4,3.7,17c0.3-1.2,0.7-2.7,1-4
				c0-0.7,0.5-3.9,0.9-5.6c-0.5-2.9-0.2-7.6,2.9-7.1c1.6,0.2,1.4,6.7,1.4,6.7c0,0.9-0.1,7.7-0.1,9.1c0.3-2.3,1.6-12.1,4-12.1
				c2,0,2.2,2.6,2.2,4.7c0,1.2-1.3,11.8-1.4,13.1c1-1.6,2.1-10.9,3-10.9c4,0,2.5,13.3,1.1,16.7c-0.1,0.4-0.3,1-0.5,1.9
				c-0.5,2.4-1.3,6.3-3.4,9.9c-2.5,4.3-5.9,11-6.5,12.1c-0.4,2.1-1.6,9.7-3.1,19.3c-0.6,4.1-1.3,8.6-2.1,13.2l0,0
				c-0.1,1-0.9,4.2-3.7,16.2c-3.9,16.4-4.3,17.1-4.4,17.4c-1.7,3-40.1,55.2-41.8,57.4l-1,1.3L1474.1,1475.6z"/>
			<path class="st76" d="M1540.4,1359.1c0,0-2.9-7.4-8-7.4c0,0,2.9-1,5.3,0.9C1540.2,1354.5,1540.4,1359.1,1540.4,1359.1z"/>
		</g>
		<g>
			<path class="st73" d="M1465.4,1344.8l-4.6,29c0,0,17.5,14,27.7,11.1c8.6-2.5,2.7-13.7,2.7-13.7s-4.6-15.5-3.2-23.6
				C1489.5,1339.5,1465.4,1344.8,1465.4,1344.8z"/>
			<path class="st67" d="M1468.7,1353.6c4.4,2.1,13.1,4.9,19.8,5.6c-0.6-4.1-1-8.4-0.5-11.5c0.6-3.7-4.1-4.6-9.4-4.5
				c-7,0.6-13.2,1.7-13.2,1.7l-0.9,5.6C1465.9,1351.8,1467.3,1352.9,1468.7,1353.6z"/>
			<path class="st73" d="M1443.4,1311.3c-0.7,0,6.9,32.4,18.7,38c11.8,5.6,29.4,2.7,32.8-6.1c3.7-9.7-9.7-42.8-26.3-47
				C1451.9,1292.1,1443.4,1311.3,1443.4,1311.3z"/>
			<path class="st68" d="M1457,1281.5c-9.4,5.4-13.8,13.5-15.2,16.8c-4.4,2.1-9.8,6.7-12.4,18.9c-3.2,15.1,8.1,26.7,20,30.2
				c11.9,3.5,13.8,11.4,13.8,11.4l1.4-8.5c0,0-2.7-7.4-6.6-11.1c-4-3.7,1.9-9.1,2.4-13.5c0.4-3.4-2.1-10-1.6-15.5
				c0,0,6.6-10,13.2-12.5C1483.1,1293.4,1469.2,1274.5,1457,1281.5z"/>
			<path class="st73" d="M1462.1,1331.3c1.5,3.7,0.9,7.5-1.4,8.3c-2.3,0.8-5.5-1.5-7-5.3c-1.5-3.7-0.9-7.5,1.4-8.3
				C1457.4,1325.2,1460.5,1327.6,1462.1,1331.3z"/>
		</g>
		<path class="st65" d="M1506.1,1476.4l68.8-11.2c0,0-7.8-19.7-10.6-19.7c-2.8,0-52,21.5-52,21.5l-3.9,7.9L1506.1,1476.4z"/>
		<path class="st80" d="M1470.8,1523.6c0,0-6.9,33.2-4.1,58.3c2.8,25.2,3,114.5,3,114.5l-10.7,143l25.3,0.6c0,0,30-142.9,29.5-139.2
			c-0.6,3.7,10.1-100.6,10.1-100.6l-35.8-79.7L1470.8,1523.6z"/>
		<path class="st4" d="M1477.6,1522c0,0-4.5,29.9,1.1,43c5.6,13.1,48,141.7,48.5,152.1c0.6,10.5,14.7,126.3,14.7,126.3l29.4-0.8
			l6.4-128.8l-13.3-161.9l-12.9-40.9L1477.6,1522z"/>
		<path class="st73" d="M1460.8,1373.8c0,0,7.3,4.8,14,4.2c6.8-0.6,16.3-6.8,16.3-6.8l-1.3-4.5c0,0-17.5-2.6-18-2.3
			C1471.5,1364.7,1460.8,1373.8,1460.8,1373.8z"/>
		<path class="st65" d="M1538.2,1444.5c0,0,26,24.6,37.8,20.4c11.7-4.2,16.6-18.5-12.1-39.5
			C1538.3,1406.6,1538.2,1444.5,1538.2,1444.5z"/>
		<path class="st9" d="M1555.9,1474.8c-3.9-21-31.9-86.5-34.1-98.5c-1.1-5.9-16.2-6-30.6-5.2c-15.2,0.8-30.3,2.7-30.3,2.7
			s-13.5,2.2-19.4,7.8s-7.5,20.9,1,50c6.7,23,15,35.6,19.2,52.4c0.8,5.6,1.5,11.2,2.5,17.6c1.5,25,0,58.1,0,58.1
			s73.3,15.2,100.7-7.9C1564.8,1551.9,1559.8,1496.4,1555.9,1474.8z"/>
		<path class="st4" d="M1574.5,1429.6c0,0-28.7,23.7-30.4,23.7c-1.1,0-41-29.4-50.2-53.5c-5.1-13.3,5.6-28.3,17.8-28.2
			c8.5,0,12.2,2.2,29,16.4C1557.5,1402.1,1574.5,1429.6,1574.5,1429.6z"/>
	</g>
	<path class="st77" d="M1068.8,370.3c4.7-11.3,9.5-22.7,21.7-28.4c9.9-4.6,20.2-2.9,29,3.7c24.9,18.7,3.2,39.4,31.6,74.9
		c8.8,11,19.5,19.9,24.8,32.9c7.4,18.1-1.4,26.8-15.5,35.5c-67.5,41.5-102.9-43.7-101.6-63.2
		C1059.7,411.1,1065.8,377.6,1068.8,370.3z"/>
	<path class="st73" d="M998.8,591c2.8-0.5,9.8-5.4,12.2-5.8c1.9-0.3,6-1,7.7-1.2c2.1-8,13-51.4,14.2-64.2
		c1.3-13.8,11.1-73.5,11.1-73.5l25.3,4.6c0,0-10.5,45.9-13.4,68.2c-2.5,19.1-23.5,62.1-26.1,66.7c0,0.1,0,0.2,0,0.3
		c-0.4,6.7-3.7,4.5-3.7,4.5l-5.3,1.3c0,0-18.7,1.8-19.9,2.3C999.6,594.6,995.9,591.5,998.8,591z"/>
	<linearGradient id="SVGID_61_" gradientUnits="userSpaceOnUse" x1="1037.9542" y1="441.18" x2="1084.2252" y2="441.18">
		<stop  offset="0" style="stop-color:#F6A300"/>
		<stop  offset="1" style="stop-color:#FCDA73"/>
	</linearGradient>
	<path class="st82" d="M1066,411.4c-17.9,6.1-28,54.6-28,54.6s28,7.8,35.2,3.7c0,0,8.1-36.1,11.1-34.9L1066,411.4z"/>
	<path class="st73" d="M927.8,674.9c-5.5,14.4-8.3,28.3-8.6,30c-0.1,0.8,1,4.7,0.9,5.6c-11,15-26.7,18.2-40.3,19.2
		c6.9-6.7,17-13.1,17.5-15.2c0.8-3.4,4.9-18.5,7-39.4C912.8,678.9,918.5,675.8,927.8,674.9z"/>
	<path class="st4" d="M1083.3,513.7l24.1,68c0,0-38.8,7.3-53.3,10c-14.5,2.7-95.5,6.2-97.6,7.6c-1.5,1.1-18.3,55.2-25.7,85
		c-8.5,1.9-23-0.4-30.7-3c4.2-42.7,19.2-110.4,24.1-117.7C932,551.5,1083.3,513.7,1083.3,513.7z"/>
	<path class="st73" d="M989,704.7c-2.7,15.2-2.9,29.4-2.8,31c0,0.8,1.9,4.5,1.9,5.3c-8,16.8-22.8,22.9-35.9,26.4
		c5.5-7.9,14.2-16,14.3-18.2c0.1-3.5,1.4-19.1-0.5-40C975,711.5,980,707.4,989,704.7z"/>
	<path class="st83" d="M1111.4,517.2l9.4,16c14.3,24.3,3.3,55.7-23,65.9c-0.1,0.1-0.3,0.1-0.4,0.2c-13.7,5.3-92.7,24-94.4,25.8
		c-1.3,1.3-7.6,57.6-9.3,88.4c-8,3.4-22.7,3.9-30.7,2.8c-3.9-42.7-1.8-112,1.6-120.2C969.9,582.7,1111.4,517.2,1111.4,517.2z"/>
	<path class="st77" d="M985,736.2c2.1-2.3,9.8,10.5,11.7,13.2c2.2,3.1,1.6,5.4,1.3,5.9c-0.7,1.3-41.4,25.2-51.3,26.9
		c-0.9,0.2-2.6-0.4-3-0.8c-3.9-3.4,14-28.8,22-32.1C970.9,747.1,975.5,746.7,985,736.2z"/>
	<path class="st77" d="M918,705.4c2.5-1.9,7.7,12.1,9.1,15.1c1.6,3.4,0.5,5.6,0.2,6c-0.9,1.1-45.4,17-55.4,16.8
		c-1,0-2.4-0.9-2.8-1.3c-3.2-4.1,19.1-25.6,27.6-27.4C902.1,713.4,906.7,713.8,918,705.4z"/>
	<linearGradient id="SVGID_62_" gradientUnits="userSpaceOnUse" x1="1040.7035" y1="413.1238" x2="1149.0203" y2="545.511">
		<stop  offset="0" style="stop-color:#F6A300"/>
		<stop  offset="1" style="stop-color:#FCDA73"/>
	</linearGradient>
	<path class="st84" d="M1082.9,411.3L1082.9,411.3L1082.9,411.3c-0.5,0-1.1-0.2-1.8-0.4c-3.3-0.6-10.6-1.5-16.2,0.9
		c-6.9,2.9-17.5,30-16.9,57.7c0.3,4.2,0.5,8,0.7,10.7c1.7,21,7.8,60.3,8.1,60.5c8.2,5.3,57.6-15.2,61-19.6c3.4-4.5,5.4-59,7-61.7
		l3.2-47.4C1122.4,410.3,1091.7,411.2,1082.9,411.3z"/>
	<path class="st73" d="M1102.9,393.8c0,0-3.2,16.5-2.5,22.9c0.6,6.5-2.4,27.4-16.2,27.5c-13.7,0.1-2.6-26.6-1.3-32.9s1.6-26,1.6-26
		L1102.9,393.8z"/>
	<path class="st76" d="M1084.2,395.1c0.2-5.4,0.3-9.9,0.3-9.9l18.4,8.6c0,0-0.7,3.4-1.3,7.6C1093.6,403.1,1087.7,400.1,1084.2,395.1
		z"/>
	<path class="st73" d="M1109.7,348.4c0,0,7.1,3.9,9.7,12.5s-0.4,30.6-18.7,35.9c-18.3,5.3-26.3-12.1-22.5-25.8
		C1081.9,357.4,1090.1,340.1,1109.7,348.4z"/>
	<path class="st73" d="M1075.9,365.7c0.4,3.7,2.4,6.5,4.5,6.3c2.1-0.2,3.6-3.3,3.2-7c-0.4-3.7-2.4-6.5-4.5-6.3
		C1076.9,358.9,1075.5,362.1,1075.9,365.7z"/>
	<path class="st77" d="M1107.5,347.3c0,0,3.3,24.6,11.3,29c7.9,4.4,4.6,15.3,4.6,15.3s7.2-25.3,0.9-33.4
		C1118,350.1,1107.5,347.3,1107.5,347.3z"/>
	<path class="st73" d="M1114.1,379.8c-2.2,3.2-2.1,7,0,8.4c2.2,1.5,5.7,0,7.8-3.2c2.2-3.2,2.1-7,0-8.4
		C1119.7,375.2,1116.2,376.6,1114.1,379.8z"/>
	<path class="st0" d="M1087.4,381.2l12.9,3.3c0,0-1.6,4.9-7.3,3.6C1086,386.5,1087.4,381.2,1087.4,381.2z"/>
	<linearGradient id="SVGID_63_" gradientUnits="userSpaceOnUse" x1="1175.2013" y1="601.1114" x2="1211.3069" y2="483.7682">
		<stop  offset="0" style="stop-color:#F6A300"/>
		<stop  offset="1" style="stop-color:#FCDA73"/>
	</linearGradient>
	<path class="st85" d="M1151.5,589c0.6,0,55.7-2.8,55.7-2.8s-22.9,16.4-23.3,16.4c-0.5,0-18.2-7-19-7
		C1164.1,595.6,1151.5,589,1151.5,589z"/>
	<path class="st73" d="M2266.8,1834.6c0,0,1.1,19.3,1.1,19.4c0.4,2.5,2,8.5,2,10.7c0,8.4-37.2-7.1-28.8-10.8c0.8-0.3,4.7-2.9,5-5.7
		c0.4-4.4,1.4-13.3,1.4-13.3L2266.8,1834.6z"/>
	<path class="st69" d="M2240.7,1854c0,0,8.7,2.6,13.2,3.2c4.5,0.6,10.4-4.8,13.5-3.3c3.5,1.6,3.3,16,3.3,16s-46.8,4.1-60-0.1
		C2205.6,1868.1,2222.8,1859.9,2240.7,1854z"/>
	<path class="st73" d="M2328.7,1833.6c0,0,1.1,19.3,1.1,19.4c0.4,2.5,2,8.5,2,10.7c0,8.4-37.2-7.1-28.8-10.8
		c0.8-0.3,5.9-4.8,6.1-7.6c0.4-4.4,0.2-11.4,0.2-11.4L2328.7,1833.6z"/>
	<path class="st69" d="M2303,1852.8c0,0,8.7,2.6,13.2,3.2c4.5,0.6,10.4-4.8,13.5-3.3c3.5,1.6,3.6,16,3.6,16s-46.5,1.9-60.2-0.1
		C2267.7,1867.8,2285.2,1858.8,2303,1852.8z"/>
	<path class="st66" d="M2317.7,1526.7c0,0,6.3,32.6,3.7,57.3c-2.6,24.7-2.8,112.5-2.8,112.5l11.8,140.4l-25.3,0.6
		c0,0-27.6-140.4-27-136.8c0.5,3.6-9.2-98.9-9.2-98.9l32.9-78.3L2317.7,1526.7z"/>
	<path class="st74" d="M2308.9,1505.6c0,0,28.5,30.1,17.9,62.9c-4.3,13.2-44,139.2-44.5,149.5c-0.5,10.3-13.5,124.1-13.5,124.1
		l-27-0.8l-5.8-126.5l7.7-170.5l16.4-28.8L2308.9,1505.6z"/>
	<linearGradient id="SVGID_64_" gradientUnits="userSpaceOnUse" x1="2101.0625" y1="1400.4888" x2="2442.8623" y2="1576.2028">
		<stop  offset="0" style="stop-color:#F6A300"/>
		<stop  offset="1" style="stop-color:#FCDA73"/>
	</linearGradient>
	<path class="st86" d="M2135.6,1407.8c9.3-10.4,29.7-25.3,29.7-25.3s12.1-10.3,17.1-12.1c7.3-2.5,19.7-9.2,37.7,18.1
		c12.9,19.5,94.2,120.7,107.6,124.1l-87.2,41.7c-2.4-19.9-45.5-57.6-51.7-64.6C2174.9,1474.1,2126.8,1417.7,2135.6,1407.8z"/>
	<path class="st73" d="M2139.7,1365.4l27.2,15.9c0,0,0.8,23.2-8.1,29.2c-7.4,5.1-13.1-7.1-13.1-7.1s-10.1-14-17.8-18.4
		C2120.1,1380.7,2139.7,1365.4,2139.7,1365.4z"/>
	<path class="st76" d="M2144.2,1375.6c-1,4.8-3.4,11.8-7,17.6c-3-3.2-6.4-6.4-9.4-8.1c-3.5-2-1.3-6.4,2.2-10.5
		c4.9-5.1,9.7-9.2,9.7-9.2l5.2,3.1C2145.2,1370.5,2144.6,1374,2144.2,1375.6z"/>
	<path class="st73" d="M2125.5,1325.6c0.5-0.6,22.8,27.2,20,40.3c-2.8,13-16.2,24.9-25.6,21.7c-10.4-3.6-29.7-36.3-22.7-52.2
		C2104.1,1319.4,2125.5,1325.6,2125.5,1325.6z"/>
	<path class="st68" d="M2101.1,1316.8c9.7-5.4,25.6-7,37.5-0.8c14.6,7.6,17.9,26.8,13.3,38.6c-4.6,11.7,0.7,18.3,0.7,18.3l-7.7-4.5
		c0,0-4.5-7.1-5.1-12.7c-0.6-5.6-8.8-4.6-12.8-7.2c-3.1-2-7-8.3-12-11.7c0,0-12.6-1.5-18.7,1.9
		C2085.6,1344.8,2087.1,1324.6,2101.1,1316.8z"/>
	<path class="st73" d="M2133.2,1353.3c-0.1,4.2,1.9,7.6,4.4,7.6c2.5,0,4.6-3.3,4.7-7.5c0.1-4.2-1.9-7.6-4.4-7.6
		C2135.3,1345.8,2133.3,1349.1,2133.2,1353.3z"/>
	<path class="st0" d="M2110.3,1375.4l11.8-8.8c0,0,3.1,4.8-2,8.8C2114,1380.3,2110.3,1375.4,2110.3,1375.4z"/>
	<path class="st65" d="M2080.6,1551.2c3-4.3,4.3-10.6,8.3-15.3c1.4-1.6,3.6-3.4,6.1-5.2c19.7-11.5,71-41.2,73-43.5
		c2.4-2.7,37.4-60.9,37.4-60.9l-31.4-7.1l-30.7,54.3c-2.6,2-51.3,38.1-51.3,38.1s-9.7,7.6-15,11.1c-2.7,1.6-5.3,2.6-7.6,3.4
		c-2.9,1-8.3,3.7-9.4,4.7c-1.3,1.1-3.8,3.5-5.4,5c-1.5,1.5-3.4,3.1-4.1,4c-0.4,0.5-1.8,1.3-2.8,1.8c-1.5,0.7-1.3,2.9,0.3,3.4
		c1.5,0.4,3.5-0.5,4.8-1.1c3.5-1.7,7.8-6.1,8.1-5.6s-4.2,10.1-4.6,11.3c-0.4,1.1-5.5,12.3-5.7,14.8c-0.3,2.5,1.2,3.1,2.4,2.2
		c1-0.8,9.1-15.7,9.1-15.7s1-1.9,1.4-0.8c0.4,1.1-6.9,14.7-7.6,16.9c-0.7,2.2-0.1,4.1,1.9,3.3c2.5-0.9,9.4-15.9,9.4-15.9
		s0.9-1.9,1.5-1.2c0.6,0.6-5.8,12.1-5.9,13.4c-0.1,1.3,1.1,2.6,2.9,1.5c2-1.3,8.1-14.7,8.1-14.7s0.7-0.9,1-0.3
		c0.2,0.6-4.5,10.8-4.2,12.3c0.3,1.2,1.4,1,1.4,1C2074.4,1566.1,2077.7,1555.5,2080.6,1551.2z"/>
	<path class="st66" d="M2196.8,1457c0,0-10.2-3.3-16.8-6.3c-4.4-2-23.6-11.6-23.6-11.6s8.3-34.9,13.9-47.4
		c20.5-46.1,43.8-14.3,47-6.9C2224.3,1401.4,2196.8,1457,2196.8,1457z"/>
	<path class="st0" d="M1481.5,1336.4l9.7-7.3c0,0,2.6,3.9-1.6,7.3C1484.5,1340.4,1481.5,1336.4,1481.5,1336.4z"/>
	<path class="st4" d="M2625.5,1868.9H527.5c-2.8,0-5.1,2.9-5.1,6.5l0,0c0,3.6,2.3,6.5,5.1,6.5h2098.1c2.8,0,5.1-2.9,5.1-6.5l0,0
		C2630.6,1871.8,2628.4,1868.9,2625.5,1868.9z"/>
	<path class="st73" d="M1208.5,586.1c-0.2-0.6-0.7-0.6-1.3-0.6c-5.1-0.2-10.2-0.4-15.3-1.1c-0.8-0.1-1.7-0.3-2.5-0.6
		c-1.4-0.6-2.8-0.5-4.2-0.2c-0.8,0.2-1.6,0.3-2.3,0.2c-2.6,0-9.9-2.5-13.7-3.2c-0.9-0.2-1.5-0.8-1.8-1.6
		c-3.7-14.7-11.7-47.5-12.7-58.4c-1.3-13.8-10.9-76.2-10.9-76.2l-25.6,7.1c0,0,10.5,46,13.4,68.3c2.2,17.2,19.5,53.8,24.9,64.3
		c2.6,7.8,8.6,8,9.9,8.2c0.8,0.1,1.5,0.5,2,1.1c0.9,1.1,2,2,3.2,2.8c0.9,0.6,1.6,1.3,2.2,2.2c1.1,1.6,2.1,3.2,3,4.9
		c0.6,1.1,1.3,1.4,2.2,1.2c1-0.3,1.5-1,1.5-2.3c0-1.8-0.6-3.5-1.5-5c-0.9-1.5-0.8-2.3,0.2-3.6c0.6-0.8,1.2-1.5,1.9-2.1
		c0.8-0.6,1.6-1.1,2.6-1c1.8,0.5,3.7,0.8,5.6,1l1.5,0.3c0.1,0,0.8,0.2,0.8,0.2c0.1,0,2.8,0.3,3.8,0.3c0.7,0,2,0.1,3,0.1
		c0.9,0,2.9-0.4,3-0.4c0.9,0,1.7-0.3,2.4-1c0.3-0.2,0.5-0.5,0.4-1c-0.1-0.4-0.4-0.6-0.8-0.6c-0.6-0.1-3.8-0.5-3.8-0.6
		c0.9,0,3.9-0.1,4.8-0.1c1.3,0,2.4-0.5,3.2-1.4C1208.3,587.1,1208.7,586.7,1208.5,586.1z"/>
	<linearGradient id="SVGID_65_" gradientUnits="userSpaceOnUse" x1="1105.1625" y1="441.3839" x2="1151.4336" y2="441.3839">
		<stop  offset="0" style="stop-color:#F6A300"/>
		<stop  offset="1" style="stop-color:#FCDA73"/>
	</linearGradient>
	<path class="st87" d="M1128.4,411.9c12.6-2.3,23,54.1,23,54.1s-28,7.8-35.2,3.7c0,0-8.1-36.1-11.1-34.9L1128.4,411.9z"/>
	<path class="st73" d="M823.5,1426.2c0.8-2.4-10.8-4.3-11.4-6.7c-0.6-2.4,14.7-2.6,15.2-4.7c1-3.9-16.8-0.8-16.4-2.7
		c0.4-1.8,18.5-5.9,16.6-9.1s-18.4,6.2-18.9,4.1c-0.5-2.1,16.1-7.3,15.8-12c-0.2-2.5-27.2,12.5-30.3,11.1
		c-3.1-1.4,3.4-13.1,0.9-14.8c-2.5-1.7-9.7,23.9-11.4,24.7c-1.7,0.9-38.3,21.7-51.3,25c-1.6-4.4-5-10.2-6.4-14.3
		c-7.3,5.2-12.7,7.8-20.2,12.5c5.5,13.7,13.2,28.6,17,30.4c11.6,5.2,56.3-31.9,65.2-38.2c8.9-6.4,14.1-4.3,20.1-6.3
		C814,1423.1,822.6,1428.6,823.5,1426.2z"/>
	<linearGradient id="SVGID_66_" gradientUnits="userSpaceOnUse" x1="669.1978" y1="1353.4633" x2="833.4783" y2="1550.2388">
		<stop  offset="0" style="stop-color:#F6A300"/>
		<stop  offset="1" style="stop-color:#FCDA73"/>
	</linearGradient>
	<path class="st88" d="M704,1445.8c0,0-10-44.2-8.3-57.1c1.7-12.8,17-24.8,27.6-20.4c10.6,4.4,15.4,66.2,15.4,66.2L704,1445.8z"/>
</g>
</svg>
