<?xml version="1.0" encoding="utf-8"?>
<!-- Generator: Adobe Illustrator 23.0.5, SVG Export Plug-In . SVG Version: 6.00 Build 0)  -->
<svg version="1.1" id="Layer_1" xmlns="http://www.w3.org/2000/svg" xmlns:xlink="http://www.w3.org/1999/xlink" x="0px" y="0px"
	 viewBox="0 0 1133.2 595.3" style="enable-background:new 0 0 1133.2 595.3;" xml:space="preserve">
<style type="text/css">
	.st0{fill:#FFFFFF;}
	.st1{fill:#FDD413;}
</style>
<g>
	<g>
		<path class="st0" d="M318.7,266.4c-2,4.9-4.9,9-8.4,12.7c-3.5,3.5-7.8,6.4-12.7,8.4c-4.9,2-10.1,3.1-15.5,3.1h-76.5v-38.9h18v20.8
			h58.4c6.1,0,11.2-2,15.4-6.3c4.2-4.2,6.3-9.4,6.3-15.4v-21.1h-98.1v-38.9c0-5.4,1.1-10.6,3.1-15.5c2-4.9,4.9-9,8.4-12.7
			c3.5-3.5,7.8-6.4,12.7-8.4c4.9-2,10.1-3.1,15.5-3.1h76.5v31.4h-18V169h-58.4c-3,0-5.9,0.5-8.4,1.8c-2.6,1.1-4.9,2.7-6.8,4.6
			s-3.5,4.2-4.6,6.9c-1.2,2.7-1.8,5.6-1.8,8.6v20.8h98.1v39.1C321.8,256.4,320.7,261.5,318.7,266.4z"/>
		<path class="st0" d="M373.7,290.7c-5.2,0-10.1-1-14.7-3c-4.6-2-8.7-4.8-12.1-8.3c-3.5-3.5-6.3-7.5-8.3-12.1c-2-4.6-3-9.5-3-14.7
			v-63c0-5.2,1-10.1,3-14.7s4.8-8.7,8.3-12.1c3.5-3.5,7.5-6.3,12.1-8.3c4.6-2,9.5-3,14.7-3h52.9c5.2,0,10.1,1,14.7,3
			c4.6,2,8.7,4.8,12.1,8.3c3.5,3.5,6.3,7.5,8.3,12.1c2,4.6,3,9.5,3,14.7v63c0,5.2-1,10.1-3,14.7c-2,4.6-4.8,8.7-8.3,12.1
			c-3.5,3.5-7.5,6.3-12.1,8.3c-4.6,2-9.5,3-14.7,3H373.7z M353.2,252.4c0,2.7,0.5,5.3,1.6,7.8c1.1,2.4,2.6,4.6,4.5,6.5
			c1.9,1.9,4.1,3.4,6.5,4.5c2.4,1.1,5,1.6,7.8,1.6h52.9c2.7,0,5.4-0.5,7.9-1.6c2.6-1.1,4.8-2.6,6.5-4.5c1.8-1.9,3.3-4.1,4.4-6.5
			c1.1-2.4,1.6-5,1.6-7.8v-63c0-2.7-0.5-5.4-1.6-7.9c-1.1-2.6-2.6-4.8-4.4-6.5c-1.8-1.8-3.9-3.3-6.5-4.4c-2.6-1.1-5.2-1.6-7.9-1.6
			h-52.9c-2.7,0-5.3,0.5-7.8,1.6c-2.4,1.1-4.6,2.6-6.5,4.4c-1.9,1.8-3.4,3.9-4.5,6.5c-1.1,2.6-1.6,5.2-1.6,7.9V252.4z"/>
		<path class="st0" d="M502.6,287.5c-4.8-2-8.8-4.8-12.2-8.3c-3.5-3.5-6.3-7.6-8.3-12.2c-2-4.6-3-9.8-3-15.1V151.2h18v100.7
			c0,2.9,0.5,5.6,1.6,8c1.1,2.4,2.6,4.6,4.5,6.5c1.9,1.9,4.1,3.4,6.5,4.5c2.4,1.1,5.2,1.6,8,1.6h56.1v18h-56.1
			C512.2,290.7,507.3,289.6,502.6,287.5z"/>
		<path class="st0" d="M605.3,290.7h-18V151.2h18V290.7z"/>
		<path class="st1" d="M643.2,287.5c-4.8-2-9-4.8-12.5-8.3c-3.5-3.5-6.4-7.8-8.3-12.5c-2-4.8-3-9.8-3-15.2V190c0-5.3,1-10.3,3-15.1
			c2-4.8,4.8-8.8,8.3-12.4c3.5-3.5,7.8-6.4,12.5-8.3c4.8-2,9.8-3,15.2-3h64.1V169h-64.1c-2.9,0-5.6,0.5-8.3,1.6
			c-2.6,1.1-4.9,2.6-6.7,4.5c-1.9,1.9-3.4,4.2-4.5,6.7c-1.1,2.6-1.6,5.3-1.6,8.2v61.5c0,6,2,10.9,6.1,15s9,6.1,15,6.1h64.1v18h-64.1
			C653,290.7,647.9,289.6,643.2,287.5z"/>
		<path class="st1" d="M774.4,290.7c-5.2,0-10.1-1-14.7-3c-4.6-2-8.7-4.8-12.1-8.3c-3.5-3.5-6.3-7.5-8.3-12.1c-2-4.6-3-9.5-3-14.7
			v-63c0-5.2,1-10.1,3-14.7s4.8-8.7,8.3-12.1c3.5-3.5,7.5-6.3,12.1-8.3c4.6-2,9.5-3,14.7-3h52.9c5.2,0,10.1,1,14.8,3
			c4.6,2,8.7,4.8,12.1,8.3c3.5,3.5,6.3,7.5,8.3,12.1c2,4.6,3,9.5,3,14.7v63c0,5.2-1,10.1-3,14.7c-2,4.6-4.8,8.7-8.3,12.1
			c-3.5,3.5-7.5,6.3-12.1,8.3c-4.6,2-9.5,3-14.8,3H774.4z M753.9,252.4c0,2.7,0.5,5.3,1.6,7.8c1.1,2.4,2.6,4.6,4.5,6.5
			s4.1,3.4,6.5,4.5c2.4,1.1,5,1.6,7.8,1.6h52.9c2.7,0,5.4-0.5,7.9-1.6c2.6-1.1,4.8-2.6,6.5-4.5s3.3-4.1,4.4-6.5
			c1.1-2.4,1.6-5,1.6-7.8v-63c0-2.7-0.5-5.4-1.6-7.9c-1.1-2.6-2.6-4.8-4.4-6.5s-3.9-3.3-6.5-4.4c-2.6-1.1-5.2-1.6-7.9-1.6h-52.9
			c-2.7,0-5.3,0.5-7.8,1.6c-2.4,1.1-4.6,2.6-6.5,4.4c-1.9,1.8-3.4,3.9-4.5,6.5c-1.1,2.6-1.6,5.2-1.6,7.9V252.4z"/>
		<path class="st1" d="M996.2,251.7c0,5.3-1,10.3-3,15.1c-2,4.8-4.8,8.8-8.3,12.4c-3.5,3.5-7.8,6.4-12.5,8.3c-4.8,2-9.8,3-15.2,3
			h-77.6V151.2h77.6c5.3,0,10.5,1,15.2,3s9,4.8,12.5,8.3c3.5,3.5,6.4,7.6,8.3,12.4c2,4.8,3,9.8,3,15.1V251.7z M897.7,272.6h59.5
			c6,0,10.9-2,15-6.1s6.1-9,6.1-14.7v-61.7c0-2.9-0.5-5.6-1.6-8.2s-2.6-4.8-4.5-6.7s-4.1-3.5-6.7-4.5c-2.6-1.1-5.3-1.6-8.3-1.6
			h-59.5V272.6z"/>
		<path class="st1" d="M1104.1,290.7H1010v-60.8v-18V191c0-5.4,1.1-10.6,3.1-15.5c2-4.9,4.9-9,8.4-12.7c3.5-3.5,7.8-6.4,12.7-8.4
			s10.1-3.1,15.5-3.1h54.4v17.8h-54.4c-3,0-5.9,0.5-8.4,1.8c-2.6,1.1-4.9,2.7-6.8,4.6c-1.9,1.9-3.5,4.2-4.6,6.9
			c-1.2,2.7-1.8,5.6-1.8,8.6v20.8h63.2v18h-63.2v42.7h76.2v18.1H1104.1z"/>
	</g>
	<g>
		<path class="st0" d="M211.3,342.1c-2.2,0-3.7-0.4-4.5-1.1c-0.8-0.7-1.2-2.2-1.2-4.4v-12.1c0-2.2,0.4-3.7,1.2-4.4
			c0.8-0.7,2.3-1.1,4.5-1.1h19.1v4.1h-18.5c-0.3,0-0.5,0-0.7,0.1c-0.1,0.1-0.1,0.3-0.1,0.5v13.3c0,0.3,0,0.4,0.1,0.5
			c0.1,0.1,0.3,0.1,0.7,0.1h18.5v4.4h-19.1V342.1z"/>
		<path class="st0" d="M238.2,342.1v-23h24.1v4.1h-18.6v4.9h12.5v4.1h-12.5v5.6h18.9v4.4L238.2,342.1L238.2,342.1z"/>
		<path class="st0" d="M294.4,342.1l-15.2-13.3c-1.4-1.1-2.4-2.2-3.3-3.1h-0.1c0.1,1.4,0.1,3.7,0.1,7.2v9.3h-5.3v-23h4.1l15.7,13.6
			c1,0.8,2,1.8,3,2.7h0.1c-0.1-1.5-0.1-3.8-0.1-7.2v-9.1h5.3v23H294.4z"/>
		<path class="st0" d="M315.7,342.1v-18.9h-10.6v-4.1h26.5v4.1H321v18.9H315.7z"/>
		<path class="st0" d="M358.8,342.1l-7.5-8.6h-7.8v8.6h-5.3v-23h19.5c2.2,0,3.7,0.3,4.4,1c0.8,0.7,1.2,1.9,1.2,3.5v5.2
			c0,1.8-0.4,3.1-1.2,3.7c-0.8,0.7-2.3,1-4.4,1l7.8,8.6h-6.7V342.1z M358,323.8c0-0.3,0-0.4-0.1-0.5s-0.3-0.1-0.7-0.1h-13.6v6.3
			h13.6c0.3,0,0.5,0,0.7-0.1c0.1-0.1,0.1-0.3,0.1-0.5V323.8z"/>
		<path class="st0" d="M371.8,342.1v-23h24.1v4.1h-18.6v4.9h12.5v4.1h-12.5v5.6h18.9v4.4L371.8,342.1L371.8,342.1z"/>
		<path class="st0" d="M420.2,342.1v-4.4h19.2c0.3,0,0.5,0,0.7-0.1c0.1-0.1,0.1-0.3,0.1-0.5v-4.4c0-0.3,0-0.4-0.1-0.5
			c-0.1-0.1-0.3-0.1-0.7-0.1h-13.5c-2.2,0-3.7-0.4-4.5-1.1c-0.8-0.7-1.2-2-1.2-3.8v-3.3c0-1.8,0.4-3.1,1.2-3.8s2.3-1.1,4.5-1.1h18.4
			v3.9h-18.1c-0.3,0-0.5,0-0.7,0.1c-0.1,0.1-0.1,0.3-0.1,0.5v3.7c0,0.3,0,0.4,0.1,0.5c0.1,0.1,0.3,0.1,0.7,0.1h13.5
			c2.2,0,3.7,0.3,4.5,1c0.8,0.7,1.2,1.9,1.2,3.7v4.5c0,1.9-0.4,3.1-1.2,3.8c-0.8,0.7-2.3,1.1-4.5,1.1h-19.5V342.1z"/>
		<path class="st0" d="M459.4,342.3c-2.2,0-3.7-0.4-4.5-1.1c-0.8-0.7-1.2-2.2-1.2-4.4v-12.5c0-2.2,0.4-3.7,1.2-4.4
			c0.8-0.7,2.3-1.1,4.5-1.1h17c2.2,0,3.7,0.4,4.5,1.1c0.8,0.7,1.2,2.2,1.2,4.4v12.5c0,2.2-0.4,3.7-1.2,4.4c-0.8,0.7-2.3,1.1-4.5,1.1
			H459.4z M476.8,323.8c0-0.3,0-0.4-0.1-0.5s-0.3-0.1-0.7-0.1h-16.2c-0.3,0-0.5,0-0.7,0.1s-0.1,0.3-0.1,0.5v13.6
			c0,0.3,0,0.4,0.1,0.5s0.3,0.1,0.7,0.1H476c0.3,0,0.5,0,0.7-0.1s0.1-0.3,0.1-0.5V323.8z"/>
		<path class="st0" d="M490.8,342.1v-23h5.3v18.8h17.3v4.4h-22.6V342.1z"/>
		<path class="st0" d="M520.1,342.1v-23h5.3v23H520.1z"/>
		<path class="st0" d="M534.4,342.1v-23h20.1c2.2,0,3.8,0.4,4.5,1.1c0.8,0.7,1.2,2.2,1.2,4.4v12.1c0,2.2-0.4,3.7-1.2,4.4
			c-0.8,0.7-2.3,1.1-4.5,1.1H534.4z M554.8,323.9c0-0.3,0-0.4-0.1-0.5c-0.1-0.1-0.3-0.1-0.7-0.1h-14.3v14.6H554c0.3,0,0.5,0,0.7-0.1
			s0.1-0.3,0.1-0.5V323.9z"/>
		<path class="st0" d="M592,342.1l-2.6-4.6h-14.8l-2.4,4.6h-5.9l13.1-23h5.6l13.2,23H592z M576.6,333.7h10.8l-5.3-9.5l0,0
			L576.6,333.7z"/>
		<path class="st0" d="M604.4,342.1v-23h5.3v23H604.4z"/>
		<path class="st0" d="M639.1,342.1l-7.5-8.6h-7.8v8.6h-5.3v-23H638c2.2,0,3.7,0.3,4.4,1c0.8,0.7,1.2,1.9,1.2,3.5v5.2
			c0,1.8-0.4,3.1-1.2,3.7c-0.8,0.7-2.3,1-4.4,1l7.8,8.6h-6.7V342.1z M638.3,323.8c0-0.3,0-0.4-0.1-0.5s-0.3-0.1-0.7-0.1h-13.6v6.3
			h13.6c0.3,0,0.5,0,0.7-0.1c0.1-0.1,0.1-0.3,0.1-0.5V323.8z"/>
		<path class="st0" d="M652.1,342.1v-23h24.1v4.1h-18.6v4.9h12.5v4.1h-12.5v5.6h18.9v4.4L652.1,342.1L652.1,342.1z"/>
		<path class="st0" d="M700.9,342.1v-23H721c2.2,0,3.7,0.4,4.5,1.1c0.8,0.7,1.2,2.2,1.2,4.4v12.1c0,2.2-0.4,3.7-1.2,4.4
			s-2.3,1.1-4.5,1.1H700.9z M721.3,323.9c0-0.3,0-0.4-0.1-0.5c-0.1-0.1-0.3-0.1-0.7-0.1h-14.3v14.6h14.3c0.3,0,0.5,0,0.7-0.1
			c0.1-0.1,0.1-0.3,0.1-0.5V323.9z"/>
		<path class="st0" d="M735.3,342.1v-23h5.3v23H735.3z"/>
		<path class="st0" d="M755.2,342.3c-2.2,0-3.8-0.4-4.5-1.1c-0.8-0.7-1.2-2.2-1.2-4.4v-12.2c0-2.2,0.4-3.7,1.2-4.4s2.3-1.1,4.5-1.1
			h20.7v4.1h-20.3c-0.3,0-0.5,0-0.7,0.1c-0.1,0.1-0.1,0.3-0.1,0.5v13.5c0,0.3,0,0.4,0.1,0.5c0.1,0.1,0.3,0.1,0.7,0.1h15
			c0.3,0,0.5,0,0.7-0.1c0.1-0.1,0.1-0.3,0.1-0.5v-4.6H765v-3.9h11.7v8.2c0,2.2-0.4,3.7-1.2,4.4s-2.3,1.1-4.5,1.1h-15.8V342.3z"/>
		<path class="st0" d="M785.4,342.1v-23h5.3v23H785.4z"/>
		<path class="st0" d="M808,342.1v-18.9h-10.6v-4.1h26.5v4.1h-10.6v18.9H808z"/>
		<path class="st0" d="M850.6,342.1l-2.6-4.6h-14.8l-2.4,4.6h-5.9l13.1-23h5.6l13.2,23H850.6z M835.2,333.7H846l-5.3-9.5l0,0
			L835.2,333.7z"/>
		<path class="st0" d="M863,342.1v-23h5.3v18.8h17.3v4.4H863V342.1z"/>
		<path class="st0" d="M917,342.1v-18.9h-10.6v-4.1h26.5v4.1h-10.6v18.9H917z"/>
		<path class="st0" d="M959.6,342.1l-2.6-4.6h-14.8l-2.4,4.6h-5.9l13.1-23h5.6l13.2,23H959.6z M944.2,333.7H955l-5.3-9.5l0,0
			L944.2,333.7z"/>
		<path class="st0" d="M995.9,342.1l-15.2-13.3c-1.4-1.1-2.4-2.2-3.3-3.1h-0.1c0.1,1.4,0.1,3.7,0.1,7.2v9.3H972v-23h4.1l15.7,13.6
			c1,0.8,2,1.8,3,2.7h0.1c-0.1-1.5-0.1-3.8-0.1-7.2v-9.1h5.3v23H995.9z"/>
		<path class="st0" d="M1014.5,342.3c-2.2,0-3.7-0.4-4.5-1.1c-0.8-0.7-1.2-2.2-1.2-4.4v-12.2c0-2.2,0.4-3.7,1.2-4.4
			c0.8-0.7,2.3-1.1,4.5-1.1h20.8v4.1H1015c-0.3,0-0.5,0-0.7,0.1c-0.1,0.1-0.1,0.3-0.1,0.5v13.5c0,0.3,0,0.4,0.1,0.5
			c0.1,0.1,0.3,0.1,0.7,0.1h15c0.3,0,0.5,0,0.7-0.1c0.1-0.1,0.1-0.3,0.1-0.5v-4.6h-6.4v-3.9h11.7v8.2c0,2.2-0.4,3.7-1.2,4.4
			c-0.8,0.7-2.3,1.1-4.5,1.1h-15.9V342.3z"/>
		<path class="st0" d="M1044.7,342.1v-23h24.1v4.1h-18.6v4.9h12.5v4.1h-12.5v5.6h18.9v4.4L1044.7,342.1L1044.7,342.1z"/>
		<path class="st0" d="M1097.6,342.1l-7.5-8.6h-7.8v8.6h-5.3v-23h19.5c2.2,0,3.7,0.3,4.4,1c0.8,0.7,1.2,1.9,1.2,3.5v5.2
			c0,1.8-0.4,3.1-1.2,3.7c-0.8,0.7-2.3,1-4.4,1l7.8,8.6h-6.7V342.1z M1096.7,323.8c0-0.3,0-0.4-0.1-0.5s-0.3-0.1-0.7-0.1h-13.6v6.3
			h13.6c0.3,0,0.5,0,0.7-0.1c0.1-0.1,0.1-0.3,0.1-0.5V323.8z"/>
	</g>
	<g>
		<g>
			<path class="st1" d="M79.5,266.7v-28.6c0-3.7-1-5.9-2.7-6.8s-5-1.4-9.8-1.4v-20.8c4.8,0,8-0.4,9.8-1.4c1.8-1,2.7-3.3,2.7-6.8
				v-25.9c0-10.1,2-16.7,6.1-20.1c2-1.6,4.8-2.9,8.3-3.7H25.9v139.4h67.9c-3.5-0.8-6.3-2-8.3-3.7C81.6,283.6,79.5,276.8,79.5,266.7z
				"/>
		</g>
		<g>
			<path class="st1" d="M165.3,151.2h-41.1v18.2h-19.1c-1.4,0-2.4,0.1-3,0.5c-0.5,0.4-1,1.2-1,2.7V201c0,9.4-3,15.7-9,18.9
				c6,3,9,9.3,9,18.8V269c0,1.4,0.3,2.3,1,2.7c0.5,0.4,1.6,0.5,3,0.5h19.1v18.2h41.1V151.2z"/>
		</g>
	</g>
	<g>
		<path class="st0" d="M215.9,375.2c0.7,0,1.2-0.3,1.6-0.7c0.4-0.5,0.7-1.1,0.7-1.8s-0.3-1.4-0.7-1.8c-0.4-0.4-1-0.7-1.6-0.7
			s-1.2,0.3-1.8,0.8c-0.5,0.5-0.7,1.1-0.7,1.8s0.3,1.4,0.7,1.8C214.7,374.9,215.2,375.2,215.9,375.2z"/>
		<path class="st0" d="M221.6,375.2c0.7,0,1.2-0.3,1.6-0.7c0.4-0.5,0.7-1.1,0.7-1.8s-0.3-1.4-0.7-1.8c-0.4-0.4-1-0.7-1.6-0.7
			c-0.7,0-1.2,0.3-1.8,0.8c-0.5,0.5-0.7,1.1-0.7,1.8s0.3,1.4,0.7,1.8C220.4,374.9,220.9,375.2,221.6,375.2z"/>
		<path class="st0" d="M310.9,395.6c1.6-5.2,1-9.1-2.4-11.6c-1.5-1-3.7-1.5-6.7-1.5h-19.1l-1.8,4.1h18.5c2.4,0,4.1,0,5,0.1
			c1,0.1,1.8,0.7,2.4,1.5s1.1,2,1,3.4c-0.1,1.4-0.5,2.4-1.2,3c-0.7,0.5-1.9,0.8-3.8,0.8h-26.7h-0.8h-15.8H249h-15.9h-0.7h-1.1v-15.4
			h-3.8v2.9c-4.8-3.7-9.8-4.4-14.8-2c-5.3,3.4-7.6,7.8-6.7,13.2c0.7,2.4,2.7,4.4,6.1,5.6h21.1h15.9h10.6h15.8h0.8h28.7
			C307.9,398.9,310,397.5,310.9,395.6z M227.2,394.8c0,0.5-0.3,0.7-0.5,0.8h-13.9c-1.6-0.1-2.7-1-3.1-2.4c-0.7-5.9,2-9.1,8.2-9.8
			C225,383.8,228.2,387.6,227.2,394.8z"/>
		<path class="st0" d="M297.4,402c-0.7,0-1.2,0.3-1.8,0.8c-0.5,0.5-0.7,1.1-0.7,1.8s0.3,1.4,0.7,1.8c0.4,0.5,1.1,0.7,1.6,0.7
			c0.7,0,1.2-0.3,1.6-0.7c0.4-0.5,0.7-1.1,0.7-1.8s-0.3-1.4-0.7-1.8C298.7,402.3,298.1,402,297.4,402z"/>
		<path class="st0" d="M320.8,380.1c0.7,0,1.2-0.3,1.6-0.7c0.4-0.5,0.7-1.1,0.7-1.8s-0.3-1.4-0.7-1.8c-0.4-0.4-1-0.7-1.6-0.7
			s-1.2,0.3-1.8,0.8s-0.7,1.1-0.7,1.8s0.3,1.4,0.7,1.8C319.6,380,320.3,380.1,320.8,380.1z"/>
		<path class="st0" d="M359.4,384c-1.5-1-3.7-1.5-6.7-1.5h-21v4.1h18.5c2.4,0,4.1,0,5,0.1c1,0.1,1.8,0.7,2.4,1.5s1.1,2,1,3.4
			c-0.1,1.4-0.5,2.4-1.2,3c-0.7,0.5-1.9,0.8-3.8,0.8h-22.3v-25.9h-3.8v25.9H326h-0.8h-2v-11.2h-4.1v11.2h-4.8h-0.8h-2.2
			c-0.3,1.4-1.9,2.7-4.8,4.1h7.1h0.8h10.9h0.8h29.7c3-0.8,5-2.2,6-4.1C363.4,390.4,362.6,386.5,359.4,384z"/>
		<path class="st0" d="M422.5,403.4c-0.7,0-1.2,0.3-1.8,0.8c-0.5,0.5-0.7,1.1-0.7,1.8s0.3,1.4,0.7,1.8c0.4,0.5,1.1,0.7,1.6,0.7
			c0.7,0,1.2-0.3,1.6-0.7c0.4-0.5,0.7-1.1,0.7-1.8s-0.3-1.4-0.7-1.8C423.7,403.6,423.2,403.4,422.5,403.4z"/>
		<path class="st0" d="M428.2,403.4c-0.7,0-1.2,0.3-1.8,0.8c-0.5,0.5-0.7,1.1-0.7,1.8s0.3,1.4,0.7,1.8c0.4,0.5,1.1,0.7,1.6,0.7
			c0.7,0,1.2-0.3,1.6-0.7c0.4-0.5,0.7-1.1,0.7-1.8s-0.3-1.4-0.7-1.8C429.5,403.6,428.9,403.4,428.2,403.4z"/>
		<path class="st0" d="M535.6,378.3c-8.2,1.4-12.1,6.4-11.8,15.4h16.1l2.4-4.2h-14.7c0.4-3,2.6-5.3,6.4-6.9c8-1,12,2.4,11.8,10.2
			c0.1,2-1,3-3.1,2.9h-20.1h-0.8h-2.2c0.1-1.1,0.1-2.3-0.1-3.5c-1.4-4.5-4.4-6.7-9-6.5c-5.6,1-8.4,4.4-8.7,10.1h-4.5h-0.7h-16.1
			h-10.6h-16.7l0,0h-1.1l-2.3-5.2c-0.7-0.8-2-1.2-3.9-1.2h-22.7l3,4.1h13.3c1.1,0.7,1,1.4,0,2.2h-24c-2.9,0.1-4.8-0.5-5.6-2.2
			c-0.8-1.6-0.7-3.7,0.3-6.1c2.3-3.5,5.4-5.4,9.1-5.4l-1.1-3.9c-8.3,1.9-12.5,6.7-12.9,14.3c0.1,1.9,0.7,3.5,1.8,4.9
			c1.5,1.4,3.3,2.3,5.4,2.7h26.4c4.5-0.5,6.1-2.7,4.8-6.3h2.7l3.1,6.4h0.8h3.4l0,0h16.1h10.6h16.1h0.7h3.5c2.6,0,4.1-0.5,4.4-1.6
			l0.7-4.4c0.8-2.2,1.9-3.5,3.4-3.8c1.4-0.4,3.1,0,5,1c1.2,1.4,1.6,2.9,1.4,4.6c0,1.9-1,2.7-2.7,2.4l-5.7-3.3l-0.4,3.9l6.9,4.5
			l1.1-0.4c1.2-1,2.2-1.9,3-2.9h3.9h0.8h25c0.5-0.5,1-1.2,1.1-2.2C552,385.3,547.6,378.9,535.6,378.3z"/>
		<path class="st0" d="M539.2,374.4c0.7,0,1.2-0.3,1.6-0.7c0.4-0.5,0.7-1.1,0.7-1.8s-0.3-1.4-0.7-1.8c-0.4-0.4-1-0.7-1.6-0.7
			s-1.2,0.3-1.8,0.8c-0.5,0.5-0.7,1.1-0.7,1.8s0.3,1.4,0.7,1.8C538.1,374.1,538.6,374.4,539.2,374.4z"/>
		<path class="st0" d="M533.4,374.4c0.7,0,1.2-0.3,1.6-0.7c0.4-0.5,0.7-1.1,0.7-1.8s-0.3-1.4-0.7-1.8c-0.4-0.4-1-0.7-1.6-0.7
			s-1.2,0.3-1.8,0.8c-0.5,0.5-0.7,1.1-0.7,1.8s0.3,1.4,0.7,1.8C532.2,374.1,532.8,374.4,533.4,374.4z"/>
		<path class="st0" d="M585.4,395.6h-3.8h-1.2h-1.2v-11.7h-3.9v15.8c-0.5,1.6-1.5,3-3.1,4.1c-1.6,1-4.1,1.1-7.6,0.3l-0.4,3.8
			c8.3,1.2,13.3-1.5,15-8.2h1.2h1.2h7.6v-29.9h-3.7V395.6z"/>
		<rect x="605.4" y="369.8" class="st0" width="3.8" height="29.9"/>
		<path class="st0" d="M669.1,403.4c-0.7,0-1.2,0.3-1.8,0.8c-0.5,0.5-0.7,1.1-0.7,1.8s0.3,1.4,0.7,1.8c0.4,0.5,1.1,0.7,1.6,0.7
			c0.7,0,1.2-0.3,1.6-0.7c0.4-0.5,0.7-1.1,0.7-1.8s-0.3-1.4-0.7-1.8C670.2,403.6,669.7,403.4,669.1,403.4z"/>
		<path class="st0" d="M674.9,403.4c-0.7,0-1.2,0.3-1.8,0.8c-0.5,0.5-0.7,1.1-0.7,1.8s0.3,1.4,0.7,1.8c0.4,0.5,1.1,0.7,1.6,0.7
			c0.7,0,1.2-0.3,1.6-0.7c0.4-0.5,0.7-1.1,0.7-1.8s-0.3-1.4-0.7-1.8C676.1,403.6,675.5,403.4,674.9,403.4z"/>
		<path class="st0" d="M750.5,380.1c0.7,0,1.2-0.3,1.6-0.7c0.4-0.5,0.7-1.1,0.7-1.8s-0.3-1.4-0.7-1.8c-0.4-0.4-1-0.7-1.6-0.7
			s-1.2,0.3-1.8,0.8c-0.5,0.5-0.7,1.1-0.7,1.8s0.3,1.4,0.7,1.8C749.3,380,749.9,380.1,750.5,380.1z"/>
		<path class="st0" d="M769.5,385.5c-5.6,1-8.4,4.4-8.7,10.1h-5.2H755h-2.2v-11.2h-4.1v11.2h-4.9h-0.7h-15.9h-10.6h-16.7l0,0h-1.1
			l-2.3-5.2c-0.7-0.8-2-1.2-3.9-1.2h-22.7l3,4.1h13.3c1.1,0.7,1,1.4,0,2.2h-24c-2.9,0.1-4.8-0.5-5.6-2.2c-0.8-1.6-0.7-3.7,0.3-6.1
			c2.3-3.5,5.4-5.4,9.1-5.4l-1.1-3.9c-8.3,1.9-12.5,6.7-12.9,14.3c0.1,1.9,0.7,3.5,1.8,4.9c1.5,1.4,3.3,2.3,5.4,2.7h26.4
			c4.5-0.5,6.1-2.7,4.8-6.3h2.7l3.1,6.4h0.8h3.4l0,0h16.1h10.6h15.9h0.7H755h0.5h4.2c2.6,0,4.1-0.5,4.4-1.6l0.7-4.4
			c0.8-2.2,1.9-3.5,3.4-3.8c1.4-0.4,3.1,0,5,1c1.2,1.4,1.6,2.9,1.4,4.6c0,1.9-1,2.7-2.7,2.4l-5.7-3.3l-0.4,3.9l6.9,4.5l1.1-0.4
			c4.1-3,5.6-6.4,4.6-10.5C777.2,387.6,774.2,385.4,769.5,385.5z"/>
		<path class="st0" d="M840.4,395.6c1.6-5.2,1-9.1-2.4-11.6c-1.5-1-3.7-1.5-6.7-1.5h-21v4.1h18.5c2.4,0,4.1,0,5,0.1
			c1,0.1,1.8,0.7,2.4,1.5s1.1,2,1,3.4c-0.1,1.4-0.5,2.4-1.2,3c-0.7,0.5-1.9,0.8-3.8,0.8H810v-15.7l-3.8,1.5v14.2h-1h-0.4h-4.5v-25.9
			h-3.8v29.9h8.3h0.4h29.1C837.5,398.9,839.4,397.5,840.4,395.6z"/>
		<path class="st0" d="M823,377.5c0.7,0,1.2-0.3,1.6-0.7c0.4-0.5,0.7-1.1,0.7-1.8s-0.3-1.4-0.7-1.8c-0.4-0.4-1-0.7-1.6-0.7
			s-1.2,0.3-1.8,0.8c-0.5,0.5-0.7,1.1-0.7,1.8s0.3,1.4,0.7,1.8C821.7,377.2,822.3,377.5,823,377.5z"/>
		<path class="st0" d="M851.1,381.1c0.7,0,1.2-0.3,1.6-0.7c0.4-0.5,0.7-1.1,0.7-1.8s-0.3-1.4-0.7-1.8c-0.4-0.4-1-0.7-1.6-0.7
			s-1.2,0.3-1.8,0.8c-0.5,0.5-0.7,1.1-0.7,1.8s0.3,1.4,0.7,1.8C849.9,380.8,850.4,381.1,851.1,381.1z"/>
		<path class="st0" d="M845.3,381.1c0.7,0,1.2-0.3,1.6-0.7c0.4-0.5,0.7-1.1,0.7-1.8s-0.3-1.4-0.7-1.8c-0.4-0.4-1-0.7-1.6-0.7
			s-1.2,0.3-1.8,0.8c-0.5,0.5-0.7,1.1-0.7,1.8s0.3,1.4,0.7,1.8C844.2,380.8,844.7,381.1,845.3,381.1z"/>
		<path class="st0" d="M859.3,395.6h-3h-1.9h-0.8v-11.2h-4.1v11.2H844h-1.4h-1.6c-0.3,1.4-1.9,2.7-4.8,4.1h6.5h1.4h10.3h1.9h6.8
			v-29.9h-3.8v25.9H859.3z"/>
		<rect x="879.3" y="369.8" class="st0" width="3.8" height="29.9"/>
		<path class="st0" d="M936.7,381.1c0.7,0,1.2-0.3,1.6-0.7c0.4-0.4,0.7-1.1,0.7-1.8s-0.3-1.4-0.7-1.8c-0.4-0.4-1-0.7-1.6-0.7
			s-1.2,0.3-1.8,0.8c-0.5,0.5-0.7,1.1-0.7,1.8s0.3,1.4,0.7,1.8C935.5,380.8,936.2,381.1,936.7,381.1z"/>
		<path class="st0" d="M1016.6,384c-1.5-1-3.7-1.5-6.7-1.5h-12.4l18.4-8l0.5-4.9l-29.1,13.2c-1.1,1-1.5,1.8-1.1,2.6
			c0.4,0.8,1.4,1.2,2.9,1.2h5.3h13.1c2.4,0,4.1,0,5,0.1c1,0.1,1.8,0.7,2.4,1.5s1.1,2,1,3.4c-0.1,1.4-0.5,2.4-1.2,3
			c-0.7,0.5-1.9,0.8-3.8,0.8h-26.7h-1h-15.8H957h-15.7h-1.1h-1.4v-11.7H935v15.8c-0.5,1.6-1.5,3-3.1,4.1c-1.6,1-4.1,1.1-7.6,0.3
			l-0.4,3.8c8.3,1.2,13.3-1.5,15-8.2h1.4h1.1H957h10.6h15.8h1h28.7c3-0.8,5-2.2,6-4.1C1020.7,390.4,1019.9,386.5,1016.6,384z"/>
		<path class="st0" d="M1079.9,395.6h-4.2h-0.8h-2.2c0.1-1.1,0.1-2.3-0.1-3.5c-1.4-4.5-4.4-6.7-9-6.5c-5.6,1-8.4,4.4-8.7,10.1h-4.1
			h-1h-1.4v-11.7h-3.9v15.8c-0.5,1.6-1.5,3-3.1,4.1c-1.6,1-4.1,1.1-7.6,0.3l-0.4,3.8c8.3,1.2,13.3-1.5,15-8.2h1.4h1h3.1
			c2.6,0,4.1-0.5,4.4-1.6l0.7-4.4c0.8-2.2,1.9-3.5,3.4-3.8c1.4-0.4,3.1,0,5,1c1.2,1.4,1.6,2.9,1.4,4.6c0,1.9-1,2.7-2.7,2.4l-5.7-3.3
			l-0.4,3.9l6.9,4.5l1.1-0.4c1.2-1,2.2-1.9,3-2.9h4.1h0.8h8v-29.9h-3.8L1079.9,395.6L1079.9,395.6z"/>
		<rect x="1099.8" y="369.8" class="st0" width="3.8" height="29.9"/>
	</g>
</g>
</svg>
