<?xml version="1.0" encoding="utf-8"?>
<!-- Generator: Adobe Illustrator 25.0.0, SVG Export Plug-In . SVG Version: 6.00 Build 0)  -->
<svg version="1.1" id="Layer_1" xmlns="http://www.w3.org/2000/svg" xmlns:xlink="http://www.w3.org/1999/xlink" x="0px" y="0px"
	 viewBox="0 0 841.9 595.3" style="enable-background:new 0 0 841.9 595.3;" xml:space="preserve">
<style type="text/css">
	.st0{fill:#FFFFFF;}
	.st1{fill:#FDD413;}
</style>
<g>
	<g>
		<path class="st0" d="M241,294.8c-1.5,3.6-3.6,6.6-6.2,9.3c-2.6,2.6-5.7,4.7-9.3,6.2c-3.6,1.5-7.4,2.3-11.4,2.3h-56.2V284h13.2
			v15.3h42.9c4.5,0,8.2-1.5,11.3-4.6c3.1-3.1,4.6-6.9,4.6-11.3v-15.5h-72.1v-28.6c0-4,0.8-7.8,2.3-11.4c1.5-3.6,3.6-6.6,6.2-9.3
			c2.6-2.6,5.7-4.7,9.3-6.2c3.6-1.5,7.4-2.3,11.4-2.3h56.2v23.1H230v-10h-42.9c-2.2,0-4.3,0.4-6.2,1.3c-1.9,0.8-3.6,2-5,3.4
			c-1.4,1.4-2.6,3.1-3.4,5.1c-0.9,2-1.3,4.1-1.3,6.3v15.3h72.1v28.7C243.3,287.4,242.5,291.2,241,294.8z"/>
		<path class="st0" d="M281.4,312.6c-3.8,0-7.4-0.7-10.8-2.2c-3.4-1.5-6.4-3.5-8.9-6.1c-2.6-2.6-4.6-5.5-6.1-8.9
			c-1.5-3.4-2.2-7-2.2-10.8v-46.3c0-3.8,0.7-7.4,2.2-10.8c1.5-3.4,3.5-6.4,6.1-8.9c2.6-2.6,5.5-4.6,8.9-6.1c3.4-1.5,7-2.2,10.8-2.2
			h38.9c3.8,0,7.4,0.7,10.8,2.2c3.4,1.5,6.4,3.5,8.9,6.1c2.6,2.6,4.6,5.5,6.1,8.9c1.5,3.4,2.2,7,2.2,10.8v46.3
			c0,3.8-0.7,7.4-2.2,10.8c-1.5,3.4-3.5,6.4-6.1,8.9c-2.6,2.6-5.5,4.6-8.9,6.1c-3.4,1.5-7,2.2-10.8,2.2H281.4z M266.4,284.5
			c0,2,0.4,3.9,1.2,5.7c0.8,1.8,1.9,3.4,3.3,4.8c1.4,1.4,3,2.5,4.8,3.3c1.8,0.8,3.7,1.2,5.7,1.2h38.9c2,0,4-0.4,5.8-1.2
			c1.9-0.8,3.5-1.9,4.8-3.3c1.3-1.4,2.4-3,3.2-4.8c0.8-1.8,1.2-3.7,1.2-5.7v-46.3c0-2-0.4-4-1.2-5.8c-0.8-1.9-1.9-3.5-3.2-4.8
			c-1.3-1.3-2.9-2.4-4.8-3.2c-1.9-0.8-3.8-1.2-5.8-1.2h-38.9c-2,0-3.9,0.4-5.7,1.2c-1.8,0.8-3.4,1.9-4.8,3.2
			c-1.4,1.3-2.5,2.9-3.3,4.8c-0.8,1.9-1.2,3.8-1.2,5.8V284.5z"/>
		<path class="st0" d="M376.1,310.3c-3.5-1.5-6.5-3.5-9-6.1c-2.6-2.6-4.6-5.6-6.1-9s-2.2-7.2-2.2-11.1v-74H372v74
			c0,2.1,0.4,4.1,1.2,5.9c0.8,1.8,1.9,3.4,3.3,4.8c1.4,1.4,3,2.5,4.8,3.3c1.8,0.8,3.8,1.2,5.9,1.2h41.2v13.2h-41.2
			C383.2,312.6,379.6,311.8,376.1,310.3z"/>
		<path class="st0" d="M451.6,312.6h-13.2V210.1h13.2V312.6z"/>
		<path class="st1" d="M479.4,310.3c-3.5-1.5-6.6-3.5-9.2-6.1c-2.6-2.6-4.7-5.7-6.1-9.2c-1.5-3.5-2.2-7.2-2.2-11.2v-45.2
			c0-3.9,0.7-7.6,2.2-11.1c1.5-3.5,3.5-6.5,6.1-9.1c2.6-2.6,5.7-4.7,9.2-6.1c3.5-1.5,7.2-2.2,11.2-2.2h47.1v13.1h-47.1
			c-2.1,0-4.1,0.4-6.1,1.2c-1.9,0.8-3.6,1.9-4.9,3.3c-1.4,1.4-2.5,3.1-3.3,4.9c-0.8,1.9-1.2,3.9-1.2,6v45.2c0,4.4,1.5,8,4.5,11
			c3,3,6.6,4.5,11,4.5h47.1v13.2h-47.1C486.6,312.6,482.9,311.8,479.4,310.3z"/>
		<path class="st1" d="M575.8,312.6c-3.8,0-7.4-0.7-10.8-2.2c-3.4-1.5-6.4-3.5-8.9-6.1c-2.6-2.6-4.6-5.5-6.1-8.9
			c-1.5-3.4-2.2-7-2.2-10.8v-46.3c0-3.8,0.7-7.4,2.2-10.8c1.5-3.4,3.5-6.4,6.1-8.9c2.6-2.6,5.5-4.6,8.9-6.1c3.4-1.5,7-2.2,10.8-2.2
			h38.9c3.8,0,7.4,0.7,10.9,2.2c3.4,1.5,6.4,3.5,8.9,6.1c2.6,2.6,4.6,5.5,6.1,8.9c1.5,3.4,2.2,7,2.2,10.8v46.3
			c0,3.8-0.7,7.4-2.2,10.8c-1.5,3.4-3.5,6.4-6.1,8.9c-2.6,2.6-5.5,4.6-8.9,6.1c-3.4,1.5-7,2.2-10.9,2.2H575.8z M560.8,284.5
			c0,2,0.4,3.9,1.2,5.7c0.8,1.8,1.9,3.4,3.3,4.8c1.4,1.4,3,2.5,4.8,3.3c1.8,0.8,3.7,1.2,5.7,1.2h38.9c2,0,4-0.4,5.8-1.2
			c1.9-0.8,3.5-1.9,4.8-3.3c1.3-1.4,2.4-3,3.2-4.8c0.8-1.8,1.2-3.7,1.2-5.7v-46.3c0-2-0.4-4-1.2-5.8c-0.8-1.9-1.9-3.5-3.2-4.8
			c-1.3-1.3-2.9-2.4-4.8-3.2c-1.9-0.8-3.8-1.2-5.8-1.2h-38.9c-2,0-3.9,0.4-5.7,1.2c-1.8,0.8-3.4,1.9-4.8,3.2
			c-1.4,1.3-2.5,2.9-3.3,4.8c-0.8,1.9-1.2,3.8-1.2,5.8V284.5z"/>
		<path class="st1" d="M738.8,284c0,3.9-0.7,7.6-2.2,11.1c-1.5,3.5-3.5,6.5-6.1,9.1c-2.6,2.6-5.7,4.7-9.2,6.1
			c-3.5,1.5-7.2,2.2-11.2,2.2h-57V210.1h57c3.9,0,7.7,0.7,11.2,2.2c3.5,1.5,6.6,3.5,9.2,6.1c2.6,2.6,4.7,5.6,6.1,9.1
			c1.5,3.5,2.2,7.2,2.2,11.1V284z M666.4,299.3h43.7c4.4,0,8-1.5,11-4.5c3-3,4.5-6.6,4.5-10.8v-45.3c0-2.1-0.4-4.1-1.2-6
			c-0.8-1.9-1.9-3.5-3.3-4.9s-3-2.6-4.9-3.3c-1.9-0.8-3.9-1.2-6.1-1.2h-43.7V299.3z"/>
		<path class="st1" d="M818.1,312.6h-69.2v-44.7v-13.2v-15.3c0-4,0.8-7.8,2.3-11.4c1.5-3.6,3.6-6.6,6.2-9.3c2.6-2.6,5.7-4.7,9.3-6.2
			c3.6-1.5,7.4-2.3,11.4-2.3h40v13.1h-40c-2.2,0-4.3,0.4-6.2,1.3c-1.9,0.8-3.6,2-5,3.4s-2.6,3.1-3.4,5.1c-0.9,2-1.3,4.1-1.3,6.3
			v15.3h46.4v13.2h-46.4v31.4h56V312.6z"/>
	</g>
	<g>
		<path class="st0" d="M162.1,350.4c-1.6,0-2.7-0.3-3.3-0.8c-0.6-0.5-0.9-1.6-0.9-3.2v-8.9c0-1.6,0.3-2.7,0.9-3.2
			c0.6-0.5,1.7-0.8,3.3-0.8h14v3h-13.6c-0.2,0-0.4,0-0.5,0.1c-0.1,0.1-0.1,0.2-0.1,0.4v9.8c0,0.2,0,0.3,0.1,0.4
			c0.1,0.1,0.2,0.1,0.5,0.1h13.6v3.2H162.1z"/>
		<path class="st0" d="M181.9,350.4v-16.9h17.7v3h-13.7v3.6h9.2v3h-9.2v4.1h13.9v3.2H181.9z"/>
		<path class="st0" d="M223.2,350.4l-11.2-9.8c-1-0.8-1.8-1.6-2.4-2.3h-0.1c0.1,1,0.1,2.7,0.1,5.3v6.8h-3.9v-16.9h3l11.5,10
			c0.7,0.6,1.5,1.3,2.2,2h0.1c-0.1-1.1-0.1-2.8-0.1-5.3v-6.7h3.9v16.9H223.2z"/>
		<path class="st0" d="M238.8,350.4v-13.9h-7.8v-3h19.5v3h-7.8v13.9H238.8z"/>
		<path class="st0" d="M270.5,350.4l-5.5-6.3h-5.7v6.3h-3.9v-16.9h14.3c1.6,0,2.7,0.2,3.2,0.7c0.6,0.5,0.9,1.4,0.9,2.6v3.8
			c0,1.3-0.3,2.3-0.9,2.7c-0.6,0.5-1.7,0.7-3.2,0.7l5.7,6.3H270.5z M269.9,336.9c0-0.2,0-0.3-0.1-0.4s-0.2-0.1-0.5-0.1h-10v4.6h10
			c0.2,0,0.4,0,0.5-0.1c0.1-0.1,0.1-0.2,0.1-0.4V336.9z"/>
		<path class="st0" d="M280,350.4v-16.9h17.7v3H284v3.6h9.2v3H284v4.1h13.9v3.2H280z"/>
		<path class="st0" d="M315.6,350.4v-3.2h14.1c0.2,0,0.4,0,0.5-0.1c0.1-0.1,0.1-0.2,0.1-0.4v-3.2c0-0.2,0-0.3-0.1-0.4
			s-0.2-0.1-0.5-0.1h-9.9c-1.6,0-2.7-0.3-3.3-0.8c-0.6-0.5-0.9-1.5-0.9-2.8V337c0-1.3,0.3-2.3,0.9-2.8c0.6-0.5,1.7-0.8,3.3-0.8h13.5
			v2.9h-13.3c-0.2,0-0.4,0-0.5,0.1s-0.1,0.2-0.1,0.4v2.7c0,0.2,0,0.3,0.1,0.4c0.1,0.1,0.2,0.1,0.5,0.1h9.9c1.6,0,2.7,0.2,3.3,0.7
			c0.6,0.5,0.9,1.4,0.9,2.7v3.3c0,1.4-0.3,2.3-0.9,2.8c-0.6,0.5-1.7,0.8-3.3,0.8H315.6z"/>
		<path class="st0" d="M344.4,350.5c-1.6,0-2.7-0.3-3.3-0.8c-0.6-0.5-0.9-1.6-0.9-3.2v-9.2c0-1.6,0.3-2.7,0.9-3.2
			c0.6-0.5,1.7-0.8,3.3-0.8h12.5c1.6,0,2.7,0.3,3.3,0.8c0.6,0.5,0.9,1.6,0.9,3.2v9.2c0,1.6-0.3,2.7-0.9,3.2
			c-0.6,0.5-1.7,0.8-3.3,0.8H344.4z M357.2,336.9c0-0.2,0-0.3-0.1-0.4c-0.1-0.1-0.2-0.1-0.5-0.1h-11.9c-0.2,0-0.4,0-0.5,0.1
			c-0.1,0.1-0.1,0.2-0.1,0.4v10c0,0.2,0,0.3,0.1,0.4c0.1,0.1,0.2,0.1,0.5,0.1h11.9c0.2,0,0.4,0,0.5-0.1s0.1-0.2,0.1-0.4V336.9z"/>
		<path class="st0" d="M367.5,350.4v-16.9h3.9v13.8h12.7v3.2H367.5z"/>
		<path class="st0" d="M389,350.4v-16.9h3.9v16.9H389z"/>
		<path class="st0" d="M399.5,350.4v-16.9h14.8c1.6,0,2.8,0.3,3.3,0.8c0.6,0.5,0.9,1.6,0.9,3.2v8.9c0,1.6-0.3,2.7-0.9,3.2
			c-0.6,0.5-1.7,0.8-3.3,0.8H399.5z M414.5,337c0-0.2,0-0.3-0.1-0.4c-0.1-0.1-0.2-0.1-0.5-0.1h-10.5v10.7h10.5c0.2,0,0.4,0,0.5-0.1
			c0.1-0.1,0.1-0.2,0.1-0.4V337z"/>
		<path class="st0" d="M441.8,350.4l-1.9-3.4H429l-1.8,3.4h-4.3l9.6-16.9h4.1l9.7,16.9H441.8z M430.5,344.2h7.9l-3.9-7h0
			L430.5,344.2z"/>
		<path class="st0" d="M450.9,350.4v-16.9h3.9v16.9H450.9z"/>
		<path class="st0" d="M476.4,350.4l-5.5-6.3h-5.7v6.3h-3.9v-16.9h14.3c1.6,0,2.7,0.2,3.2,0.7c0.6,0.5,0.9,1.4,0.9,2.6v3.8
			c0,1.3-0.3,2.3-0.9,2.7c-0.6,0.5-1.7,0.7-3.2,0.7l5.7,6.3H476.4z M475.8,336.9c0-0.2,0-0.3-0.1-0.4c-0.1-0.1-0.2-0.1-0.5-0.1h-10
			v4.6h10c0.2,0,0.4,0,0.5-0.1c0.1-0.1,0.1-0.2,0.1-0.4V336.9z"/>
		<path class="st0" d="M486,350.4v-16.9h17.7v3h-13.7v3.6h9.2v3h-9.2v4.1h13.9v3.2H486z"/>
		<path class="st0" d="M521.8,350.4v-16.9h14.8c1.6,0,2.7,0.3,3.3,0.8c0.6,0.5,0.9,1.6,0.9,3.2v8.9c0,1.6-0.3,2.7-0.9,3.2
			c-0.6,0.5-1.7,0.8-3.3,0.8H521.8z M536.8,337c0-0.2,0-0.3-0.1-0.4c-0.1-0.1-0.2-0.1-0.5-0.1h-10.5v10.7h10.5c0.2,0,0.4,0,0.5-0.1
			c0.1-0.1,0.1-0.2,0.1-0.4V337z"/>
		<path class="st0" d="M547.1,350.4v-16.9h3.9v16.9H547.1z"/>
		<path class="st0" d="M561.7,350.5c-1.6,0-2.8-0.3-3.3-0.8c-0.6-0.5-0.9-1.6-0.9-3.2v-9c0-1.6,0.3-2.7,0.9-3.2
			c0.6-0.5,1.7-0.8,3.3-0.8h15.2v3H562c-0.2,0-0.4,0-0.5,0.1c-0.1,0.1-0.1,0.2-0.1,0.4v9.9c0,0.2,0,0.3,0.1,0.4
			c0.1,0.1,0.2,0.1,0.5,0.1h11c0.2,0,0.4,0,0.5-0.1c0.1-0.1,0.1-0.2,0.1-0.4v-3.4h-4.7v-2.9h8.6v6c0,1.6-0.3,2.7-0.9,3.2
			c-0.6,0.5-1.7,0.8-3.3,0.8H561.7z"/>
		<path class="st0" d="M583.9,350.4v-16.9h3.9v16.9H583.9z"/>
		<path class="st0" d="M600.5,350.4v-13.9h-7.8v-3h19.5v3h-7.8v13.9H600.5z"/>
		<path class="st0" d="M631.8,350.4l-1.9-3.4H619l-1.8,3.4h-4.3l9.6-16.9h4.1l9.7,16.9H631.8z M620.5,344.2h7.9l-3.9-7h0
			L620.5,344.2z"/>
		<path class="st0" d="M640.9,350.4v-16.9h3.9v13.8h12.7v3.2H640.9z"/>
		<path class="st0" d="M680.6,350.4v-13.9h-7.8v-3h19.5v3h-7.8v13.9H680.6z"/>
		<path class="st0" d="M711.9,350.4L710,347h-10.9l-1.8,3.4h-4.3l9.6-16.9h4.1l9.7,16.9H711.9z M700.6,344.2h7.9l-3.9-7h0
			L700.6,344.2z"/>
		<path class="st0" d="M738.6,350.4l-11.2-9.8c-1-0.8-1.8-1.6-2.4-2.3h-0.1c0.1,1,0.1,2.7,0.1,5.3v6.8H721v-16.9h3l11.5,10
			c0.7,0.6,1.5,1.3,2.2,2h0.1c-0.1-1.1-0.1-2.8-0.1-5.3v-6.7h3.9v16.9H738.6z"/>
		<path class="st0" d="M752.2,350.5c-1.6,0-2.7-0.3-3.3-0.8c-0.6-0.5-0.9-1.6-0.9-3.2v-9c0-1.6,0.3-2.7,0.9-3.2
			c0.6-0.5,1.7-0.8,3.3-0.8h15.3v3h-14.9c-0.2,0-0.4,0-0.5,0.1c-0.1,0.1-0.1,0.2-0.1,0.4v9.9c0,0.2,0,0.3,0.1,0.4s0.2,0.1,0.5,0.1
			h11c0.2,0,0.4,0,0.5-0.1c0.1-0.1,0.1-0.2,0.1-0.4v-3.4h-4.7v-2.9h8.6v6c0,1.6-0.3,2.7-0.9,3.2c-0.6,0.5-1.7,0.8-3.3,0.8H752.2z"/>
		<path class="st0" d="M774.4,350.4v-16.9h17.7v3h-13.7v3.6h9.2v3h-9.2v4.1h13.9v3.2H774.4z"/>
		<path class="st0" d="M813.3,350.4l-5.5-6.3h-5.7v6.3h-3.9v-16.9h14.3c1.6,0,2.7,0.2,3.2,0.7c0.6,0.5,0.9,1.4,0.9,2.6v3.8
			c0,1.3-0.3,2.3-0.9,2.7c-0.6,0.5-1.7,0.7-3.2,0.7l5.7,6.3H813.3z M812.6,336.9c0-0.2,0-0.3-0.1-0.4c-0.1-0.1-0.2-0.1-0.5-0.1h-10
			v4.6h10c0.2,0,0.4,0,0.5-0.1c0.1-0.1,0.1-0.2,0.1-0.4V336.9z"/>
	</g>
	<g>
		<g>
			<path class="st1" d="M65.3,295v-21c0-2.7-0.7-4.3-2-5c-1.3-0.7-3.7-1-7.2-1v-15.3c3.5,0,5.9-0.3,7.2-1c1.3-0.7,2-2.4,2-5v-19
				c0-7.4,1.5-12.3,4.5-14.8c1.5-1.2,3.5-2.1,6.1-2.7H25.9v102.4h49.9c-2.6-0.6-4.6-1.5-6.1-2.7C66.8,307.4,65.3,302.4,65.3,295z"/>
		</g>
		<g>
			<path class="st1" d="M128.3,210.1H98.1v13.4h-14c-1,0-1.8,0.1-2.2,0.4c-0.4,0.3-0.7,0.9-0.7,2v20.8c0,6.9-2.2,11.5-6.6,13.9
				c4.4,2.2,6.6,6.8,6.6,13.8v22.3c0,1,0.2,1.7,0.7,2c0.4,0.3,1.2,0.4,2.2,0.4h14v13.4h30.2V210.1z"/>
		</g>
	</g>
	<g>
		<path class="st0" d="M165.5,374.7c0.5,0,0.9-0.2,1.2-0.5c0.3-0.4,0.5-0.8,0.5-1.3c0-0.5-0.2-1-0.5-1.3c-0.3-0.3-0.7-0.5-1.2-0.5
			c-0.5,0-0.9,0.2-1.3,0.6c-0.4,0.4-0.5,0.8-0.5,1.3c0,0.5,0.2,1,0.5,1.3C164.6,374.5,165,374.7,165.5,374.7z"/>
		<path class="st0" d="M169.7,374.7c0.5,0,0.9-0.2,1.2-0.5c0.3-0.4,0.5-0.8,0.5-1.3c0-0.5-0.2-1-0.5-1.3c-0.3-0.3-0.7-0.5-1.2-0.5
			c-0.5,0-0.9,0.2-1.3,0.6c-0.4,0.4-0.5,0.8-0.5,1.3c0,0.5,0.2,1,0.5,1.3C168.8,374.5,169.2,374.7,169.7,374.7z"/>
		<path class="st0" d="M235.3,389.7c1.2-3.8,0.7-6.7-1.8-8.5c-1.1-0.7-2.7-1.1-4.9-1.1h-14l-1.3,3h13.6c1.8,0,3,0,3.7,0.1
			c0.7,0.1,1.3,0.5,1.8,1.1c0.5,0.6,0.8,1.5,0.7,2.5c-0.1,1-0.4,1.8-0.9,2.2c-0.5,0.4-1.4,0.6-2.8,0.6h-19.6h-0.6h-11.6h-7.8h-11.7
			h-0.5h-0.8v-11.3h-2.8v2.1c-3.5-2.7-7.2-3.2-10.9-1.5c-3.9,2.5-5.6,5.7-4.9,9.7c0.5,1.8,2,3.2,4.5,4.1l15.5,0h11.7h7.8h11.6h0.6
			h21.1C233.1,392.1,234.6,391.1,235.3,389.7z M173.8,389.1c0,0.4-0.2,0.5-0.4,0.6h-10.2c-1.2-0.1-2-0.7-2.3-1.8
			c-0.5-4.3,1.5-6.7,6-7.2C172.2,381,174.5,383.8,173.8,389.1z"/>
		<path class="st0" d="M225.4,394.4c-0.5,0-0.9,0.2-1.3,0.6c-0.4,0.4-0.5,0.8-0.5,1.3c0,0.5,0.2,1,0.5,1.3c0.3,0.4,0.8,0.5,1.2,0.5
			c0.5,0,0.9-0.2,1.2-0.5c0.3-0.4,0.5-0.8,0.5-1.3c0-0.5-0.2-1-0.5-1.3C226.3,394.6,225.9,394.4,225.4,394.4z"/>
		<path class="st0" d="M242.6,378.3c0.5,0,0.9-0.2,1.2-0.5c0.3-0.4,0.5-0.8,0.5-1.3c0-0.5-0.2-1-0.5-1.3c-0.3-0.3-0.7-0.5-1.2-0.5
			c-0.5,0-0.9,0.2-1.3,0.6c-0.4,0.4-0.5,0.8-0.5,1.3c0,0.5,0.2,1,0.5,1.3C241.7,378.2,242.2,378.3,242.6,378.3z"/>
		<path class="st0" d="M270.9,381.2c-1.1-0.7-2.7-1.1-4.9-1.1h-15.4v3h13.6c1.8,0,3,0,3.7,0.1c0.7,0.1,1.3,0.5,1.8,1.1
			c0.5,0.6,0.8,1.5,0.7,2.5c-0.1,1-0.4,1.8-0.9,2.2c-0.5,0.4-1.4,0.6-2.8,0.6h-16.4v-19h-2.8v19h-1.1h-0.6h-1.5v-8.2h-3v8.2h-3.5
			h-0.6h-1.6c-0.2,1-1.4,2-3.5,3h5.2h0.6h8h0.6h21.8c2.2-0.6,3.7-1.6,4.4-3C273.9,385.9,273.3,383,270.9,381.2z"/>
		<path class="st0" d="M317.3,395.4c-0.5,0-0.9,0.2-1.3,0.6c-0.4,0.4-0.5,0.8-0.5,1.3c0,0.5,0.2,1,0.5,1.3c0.3,0.4,0.8,0.5,1.2,0.5
			c0.5,0,0.9-0.2,1.2-0.5c0.3-0.4,0.5-0.8,0.5-1.3c0-0.5-0.2-1-0.5-1.3C318.2,395.6,317.8,395.4,317.3,395.4z"/>
		<path class="st0" d="M321.5,395.4c-0.5,0-0.9,0.2-1.3,0.6c-0.4,0.4-0.5,0.8-0.5,1.3c0,0.5,0.2,1,0.5,1.3c0.3,0.4,0.8,0.5,1.2,0.5
			c0.5,0,0.9-0.2,1.2-0.5c0.3-0.4,0.5-0.8,0.5-1.3c0-0.5-0.2-1-0.5-1.3C322.4,395.6,322,395.4,321.5,395.4z"/>
		<path class="st0" d="M400.4,377c-6,1-8.9,4.7-8.7,11.3l11.8,0l1.8-3.1h-10.8c0.3-2.2,1.9-3.9,4.7-5.1c5.9-0.7,8.8,1.8,8.7,7.5
			c0.1,1.5-0.7,2.2-2.3,2.1h-14.8h-0.6h-1.6c0.1-0.8,0.1-1.7-0.1-2.6c-1-3.3-3.2-4.9-6.6-4.8c-4.1,0.7-6.2,3.2-6.4,7.4h-3.3h-0.5
			h-11.8h-7.8h-12.3v0h-0.8l-1.7-3.8c-0.5-0.6-1.5-0.9-2.9-0.9h-16.7l2.2,3h9.8c0.8,0.5,0.7,1,0,1.6h-17.6c-2.1,0.1-3.5-0.4-4.1-1.6
			c-0.6-1.2-0.5-2.7,0.2-4.5c1.7-2.6,4-4,6.7-4l-0.8-2.9c-6.1,1.4-9.2,4.9-9.5,10.5c0.1,1.4,0.5,2.6,1.3,3.6c1.1,1,2.4,1.7,4,2h19.4
			c3.3-0.4,4.5-2,3.5-4.6h2l2.3,4.7h0.6h2.5v0h11.8h7.8h11.8h0.5h2.6c1.9,0,3-0.4,3.2-1.2l0.5-3.2c0.6-1.6,1.4-2.6,2.5-2.8
			c1-0.3,2.3,0,3.7,0.7c0.9,1,1.2,2.1,1,3.4c0,1.4-0.7,2-2,1.8l-4.2-2.4l-0.3,2.9l5.1,3.3l0.8-0.3c0.9-0.7,1.6-1.4,2.2-2.1h2.9h0.6
			h18.4c0.4-0.4,0.7-0.9,0.8-1.6C412.4,382.1,409.2,377.4,400.4,377z"/>
		<path class="st0" d="M403,374.1c0.5,0,0.9-0.2,1.2-0.5c0.3-0.4,0.5-0.8,0.5-1.3c0-0.5-0.2-1-0.5-1.3c-0.3-0.3-0.7-0.5-1.2-0.5
			c-0.5,0-0.9,0.2-1.3,0.6c-0.4,0.4-0.5,0.8-0.5,1.3c0,0.5,0.2,1,0.5,1.3C402.2,373.9,402.6,374.1,403,374.1z"/>
		<path class="st0" d="M398.8,374.1c0.5,0,0.9-0.2,1.2-0.5c0.3-0.4,0.5-0.8,0.5-1.3c0-0.5-0.2-1-0.5-1.3c-0.3-0.3-0.7-0.5-1.2-0.5
			c-0.5,0-0.9,0.2-1.3,0.6c-0.4,0.4-0.5,0.8-0.5,1.3c0,0.5,0.2,1,0.5,1.3C397.9,373.9,398.3,374.1,398.8,374.1z"/>
		<path class="st0" d="M437,389.7h-2.8h-0.9h-0.9v-8.6h-2.9v11.6c-0.4,1.2-1.1,2.2-2.3,3c-1.2,0.7-3,0.8-5.6,0.2l-0.3,2.8
			c6.1,0.9,9.8-1.1,11-6h0.9h0.9h5.6v-22H437V389.7z"/>
		<rect x="451.7" y="370.7" class="st0" width="2.8" height="22"/>
		<path class="st0" d="M498.5,395.4c-0.5,0-0.9,0.2-1.3,0.6c-0.4,0.4-0.5,0.8-0.5,1.3c0,0.5,0.2,1,0.5,1.3c0.3,0.4,0.8,0.5,1.2,0.5
			c0.5,0,0.9-0.2,1.2-0.5c0.3-0.4,0.5-0.8,0.5-1.3c0-0.5-0.2-1-0.5-1.3C499.3,395.6,498.9,395.4,498.5,395.4z"/>
		<path class="st0" d="M502.7,395.4c-0.5,0-0.9,0.2-1.3,0.6c-0.4,0.4-0.5,0.8-0.5,1.3c0,0.5,0.2,1,0.5,1.3c0.3,0.4,0.8,0.5,1.2,0.5
			c0.5,0,0.9-0.2,1.2-0.5c0.3-0.4,0.5-0.8,0.5-1.3c0-0.5-0.2-1-0.5-1.3C503.6,395.6,503.2,395.4,502.7,395.4z"/>
		<path class="st0" d="M558.3,378.3c0.5,0,0.9-0.2,1.2-0.5c0.3-0.4,0.5-0.8,0.5-1.3c0-0.5-0.2-1-0.5-1.3c-0.3-0.3-0.7-0.5-1.2-0.5
			c-0.5,0-0.9,0.2-1.3,0.6c-0.4,0.4-0.5,0.8-0.5,1.3c0,0.5,0.2,1,0.5,1.3C557.4,378.2,557.8,378.3,558.3,378.3z"/>
		<path class="st0" d="M572.2,382.3c-4.1,0.7-6.2,3.2-6.4,7.4H562h-0.4H560v-8.2h-3v8.2h-3.6h-0.5h-11.7h-7.8h-12.3v0h-0.8l-1.7-3.8
			c-0.5-0.6-1.5-0.9-2.9-0.9h-16.7l2.2,3h9.8c0.8,0.5,0.7,1,0,1.6h-17.6c-2.1,0.1-3.5-0.4-4.1-1.6c-0.6-1.2-0.5-2.7,0.2-4.5
			c1.7-2.6,4-4,6.7-4l-0.8-2.9c-6.1,1.4-9.2,4.9-9.5,10.5c0.1,1.4,0.5,2.6,1.3,3.6c1.1,1,2.4,1.7,4,2h19.4c3.3-0.4,4.5-2,3.5-4.6h2
			l2.3,4.7h0.6h2.5v0h11.8h7.8h11.7h0.5h8.3h0.4h3.1c1.9,0,3-0.4,3.2-1.2l0.5-3.2c0.6-1.6,1.4-2.6,2.5-2.8c1-0.3,2.3,0,3.7,0.7
			c0.9,1,1.2,2.1,1,3.4c0,1.4-0.7,2-2,1.8l-4.2-2.4l-0.3,2.9l5.1,3.3l0.8-0.3c3-2.2,4.1-4.7,3.4-7.7
			C577.9,383.8,575.7,382.2,572.2,382.3z"/>
		<path class="st0" d="M624.3,389.7c1.2-3.8,0.7-6.7-1.8-8.5c-1.1-0.7-2.7-1.1-4.9-1.1h-15.4v3h13.6c1.8,0,3,0,3.7,0.1
			c0.7,0.1,1.3,0.5,1.8,1.1c0.5,0.6,0.8,1.5,0.7,2.5c-0.1,1-0.4,1.8-0.9,2.2c-0.5,0.4-1.4,0.6-2.8,0.6H602v-11.5l-2.8,1.1v10.4h-0.7
			h-0.3h-3.3v-19h-2.8v22h6.1h0.3h21.4C622.2,392.1,623.6,391.1,624.3,389.7z"/>
		<path class="st0" d="M611.5,376.4c0.5,0,0.9-0.2,1.2-0.5c0.3-0.4,0.5-0.8,0.5-1.3c0-0.5-0.2-1-0.5-1.3c-0.3-0.3-0.7-0.5-1.2-0.5
			c-0.5,0-0.9,0.2-1.3,0.6c-0.4,0.4-0.5,0.8-0.5,1.3c0,0.5,0.2,1,0.5,1.3C610.6,376.2,611,376.4,611.5,376.4z"/>
		<path class="st0" d="M632.2,379c0.5,0,0.9-0.2,1.2-0.5c0.3-0.4,0.5-0.8,0.5-1.3c0-0.5-0.2-1-0.5-1.3c-0.3-0.3-0.7-0.5-1.2-0.5
			c-0.5,0-0.9,0.2-1.3,0.6c-0.4,0.4-0.5,0.8-0.5,1.3c0,0.5,0.2,1,0.5,1.3C631.3,378.8,631.7,379,632.2,379z"/>
		<path class="st0" d="M627.9,379c0.5,0,0.9-0.2,1.2-0.5c0.3-0.4,0.5-0.8,0.5-1.3c0-0.5-0.2-1-0.5-1.3c-0.3-0.3-0.7-0.5-1.2-0.5
			c-0.5,0-0.9,0.2-1.3,0.6c-0.4,0.4-0.5,0.8-0.5,1.3c0,0.5,0.2,1,0.5,1.3C627.1,378.8,627.5,379,627.9,379z"/>
		<path class="st0" d="M638.2,389.7H636h-1.4H634v-8.2h-3v8.2h-4h-1h-1.2c-0.2,1-1.4,2-3.5,3h4.8h1h7.6h1.4h5v-22h-2.8V389.7z"/>
		<rect x="652.9" y="370.7" class="st0" width="2.8" height="22"/>
		<path class="st0" d="M695.1,379c0.5,0,0.9-0.2,1.2-0.5s0.5-0.8,0.5-1.3c0-0.5-0.2-1-0.5-1.3c-0.3-0.3-0.7-0.5-1.2-0.5
			c-0.5,0-0.9,0.2-1.3,0.6c-0.4,0.4-0.5,0.8-0.5,1.3c0,0.5,0.2,1,0.5,1.3C694.2,378.8,694.7,379,695.1,379z"/>
		<path class="st0" d="M753.8,381.2c-1.1-0.7-2.7-1.1-4.9-1.1h-9.1l13.5-5.9l0.4-3.6l-21.4,9.7c-0.8,0.7-1.1,1.3-0.8,1.9
			c0.3,0.6,1,0.9,2.1,0.9h3.9h9.6c1.8,0,3,0,3.7,0.1c0.7,0.1,1.3,0.5,1.8,1.1c0.5,0.6,0.8,1.5,0.7,2.5c-0.1,1-0.4,1.8-0.9,2.2
			c-0.5,0.4-1.4,0.6-2.8,0.6H730h-0.7h-11.6H710h-11.5h-0.8h-1v-8.6h-2.9v11.6c-0.4,1.2-1.1,2.2-2.3,3c-1.2,0.7-3,0.8-5.6,0.2
			l-0.3,2.8c6.1,0.9,9.8-1.1,11-6h1h0.8H710h7.8h11.6h0.7h21.1c2.2-0.6,3.7-1.6,4.4-3C756.8,385.9,756.2,383,753.8,381.2z"/>
		<path class="st0" d="M800.3,389.7h-3.1h-0.6H795c0.1-0.8,0.1-1.7-0.1-2.6c-1-3.3-3.2-4.9-6.6-4.8c-4.1,0.7-6.2,3.2-6.4,7.4h-3
			h-0.7h-1v-8.6h-2.9v11.6c-0.4,1.2-1.1,2.2-2.3,3c-1.2,0.7-3,0.8-5.6,0.2l-0.3,2.8c6.1,0.9,9.8-1.1,11-6h1h0.7h2.3
			c1.9,0,3-0.4,3.2-1.2l0.5-3.2c0.6-1.6,1.4-2.6,2.5-2.8c1-0.3,2.3,0,3.7,0.7c0.9,1,1.2,2.1,1,3.4c0,1.4-0.7,2-2,1.8l-4.2-2.4
			l-0.3,2.9l5.1,3.3l0.8-0.3c0.9-0.7,1.6-1.4,2.2-2.1h3h0.6h5.9v-22h-2.8V389.7z"/>
		<rect x="814.9" y="370.7" class="st0" width="2.8" height="22"/>
	</g>
</g>
</svg>
