<?xml version="1.0" encoding="utf-8"?>
<!-- Generator: Adobe Illustrator 23.0.5, SVG Export Plug-In . SVG Version: 6.00 Build 0)  -->
<svg version="1.1" id="Layer_1" xmlns="http://www.w3.org/2000/svg" xmlns:xlink="http://www.w3.org/1999/xlink" x="0px" y="0px"
	 viewBox="0 0 1095.3 595.3" style="enable-background:new 0 0 1095.3 595.3;" xml:space="preserve">
<style type="text/css">
	.st0{fill:#FFFFFF;}
	.st1{fill:#FDD413;}
</style>
<g>
	<g>
		<path class="st0" d="M308.5,321.4c-2,4.7-4.7,8.7-8.1,12.2c-3.4,3.4-7.5,6.2-12.2,8.1c-4.7,2-9.7,3-15,3h-73.8v-37.6h17.3v20.1
			h56.4c5.9,0,10.8-2,14.8-6c4.1-4.1,6-9.1,6-14.8v-20.4h-94.7v-37.6c0-5.3,1.1-10.2,3-15c2-4.7,4.7-8.7,8.1-12.2
			c3.4-3.4,7.5-6.2,12.2-8.1c4.7-2,9.7-3,15-3h73.8v30.4h-17.3v-13.1h-56.4c-2.9,0-5.7,0.5-8.1,1.7c-2.5,1.1-4.7,2.6-6.6,4.5
			c-1.8,1.8-3.4,4.1-4.5,6.7c-1.2,2.6-1.7,5.4-1.7,8.3v20.1h94.7v37.7C311.6,311.7,310.5,316.7,308.5,321.4z"/>
		<path class="st0" d="M361.6,344.8c-5,0-9.7-0.9-14.2-2.9c-4.5-2-8.4-4.6-11.7-8c-3.4-3.4-6-7.2-8-11.7c-2-4.5-2.9-9.2-2.9-14.2
			v-60.8c0-5,0.9-9.7,2.9-14.2c2-4.5,4.6-8.4,8-11.7c3.4-3.4,7.2-6,11.7-8c4.5-2,9.2-2.9,14.2-2.9h51.1c5,0,9.7,0.9,14.2,2.9
			c4.5,2,8.4,4.6,11.7,8c3.4,3.4,6,7.2,8,11.7s2.9,9.2,2.9,14.2V308c0,5-0.9,9.7-2.9,14.2c-2,4.5-4.6,8.4-8,11.7
			c-3.4,3.4-7.2,6-11.7,8c-4.5,2-9.2,2.9-14.2,2.9H361.6z M341.9,307.9c0,2.6,0.5,5.1,1.6,7.5c1.1,2.4,2.5,4.5,4.3,6.3
			c1.8,1.8,3.9,3.3,6.3,4.3c2.4,1.1,4.9,1.6,7.5,1.6h51.1c2.6,0,5.3-0.5,7.6-1.6c2.5-1.1,4.6-2.5,6.3-4.3c1.7-1.8,3.2-3.9,4.2-6.3
			c1.1-2.4,1.6-4.9,1.6-7.5V247c0-2.6-0.5-5.3-1.6-7.6c-1.1-2.5-2.5-4.6-4.2-6.3c-1.7-1.7-3.8-3.2-6.3-4.2s-5-1.6-7.6-1.6h-51.1
			c-2.6,0-5.1,0.5-7.5,1.6c-2.4,1.1-4.5,2.5-6.3,4.2s-3.3,3.8-4.3,6.3c-1.1,2.5-1.6,5-1.6,7.6V307.9z"/>
		<path class="st0" d="M486.1,341.8c-4.6-2-8.5-4.6-11.8-8c-3.4-3.4-6-7.4-8-11.8c-2-4.5-2.9-9.5-2.9-14.6v-97.2h17.3v97.2
			c0,2.8,0.5,5.4,1.6,7.8c1.1,2.4,2.5,4.5,4.3,6.3s3.9,3.3,6.3,4.3c2.4,1.1,5,1.6,7.8,1.6h54.1v17.3h-54.1
			C495.4,344.8,490.7,343.7,486.1,341.8z"/>
		<path class="st0" d="M585.3,344.8h-17.3V210.1h17.3V344.8z"/>
		<path class="st1" d="M621.8,341.8c-4.6-2-8.7-4.6-12.1-8c-3.4-3.4-6.2-7.5-8-12.1c-2-4.6-2.9-9.5-2.9-14.7v-59.4
			c0-5.1,0.9-10,2.9-14.6c2-4.6,4.6-8.5,8-12c3.4-3.4,7.5-6.2,12.1-8c4.6-2,9.5-2.9,14.7-2.9h61.9v17.2h-61.9c-2.8,0-5.4,0.5-8,1.6
			c-2.5,1.1-4.7,2.5-6.4,4.3c-1.8,1.8-3.3,4.1-4.3,6.4c-1.1,2.5-1.6,5.1-1.6,7.9v59.4c0,5.8,2,10.5,5.9,14.5s8.7,5.9,14.5,5.9h61.9
			v17.3h-61.9C631.3,344.8,626.4,343.7,621.8,341.8z"/>
		<path class="st1" d="M748.5,344.8c-5,0-9.7-0.9-14.2-2.9c-4.5-2-8.4-4.6-11.7-8c-3.4-3.4-6-7.2-8-11.7c-2-4.5-2.9-9.2-2.9-14.2
			v-60.8c0-5,0.9-9.7,2.9-14.2c2-4.5,4.6-8.4,8-11.7c3.4-3.4,7.2-6,11.7-8c4.5-2,9.2-2.9,14.2-2.9h51.1c5,0,9.7,0.9,14.3,2.9
			c4.5,2,8.4,4.6,11.7,8c3.4,3.4,6,7.2,8,11.7c2,4.5,2.9,9.2,2.9,14.2V308c0,5-0.9,9.7-2.9,14.2c-2,4.5-4.6,8.4-8,11.7
			c-3.4,3.4-7.2,6-11.7,8c-4.5,2-9.2,2.9-14.3,2.9H748.5z M728.8,307.9c0,2.6,0.5,5.1,1.6,7.5c1.1,2.4,2.5,4.5,4.3,6.3
			c1.8,1.8,3.9,3.3,6.3,4.3s4.9,1.6,7.5,1.6h51.1c2.6,0,5.3-0.5,7.6-1.6c2.5-1.1,4.6-2.5,6.3-4.3c1.7-1.8,3.2-3.9,4.2-6.3
			s1.6-4.9,1.6-7.5V247c0-2.6-0.5-5.3-1.6-7.6c-1.1-2.5-2.5-4.6-4.2-6.3c-1.7-1.7-3.8-3.2-6.3-4.2c-2.5-1.1-5-1.6-7.6-1.6h-51.1
			c-2.6,0-5.1,0.5-7.5,1.6s-4.5,2.5-6.3,4.2c-1.8,1.7-3.3,3.8-4.3,6.3c-1.1,2.5-1.6,5-1.6,7.6V307.9z"/>
		<path class="st1" d="M962.7,307.2c0,5.1-0.9,10-2.9,14.6c-2,4.6-4.6,8.5-8,12c-3.4,3.4-7.5,6.2-12.1,8c-4.6,2-9.5,2.9-14.7,2.9
			h-74.9V210.1H925c5.1,0,10.1,0.9,14.7,2.9c4.6,2,8.7,4.6,12.1,8c3.4,3.4,6.2,7.4,8,12c2,4.6,2.9,9.5,2.9,14.6V307.2z M867.5,327.3
			H925c5.8,0,10.5-2,14.5-5.9c3.9-3.9,5.9-8.7,5.9-14.2v-59.5c0-2.8-0.5-5.4-1.6-7.9c-1.1-2.5-2.5-4.6-4.3-6.4
			c-1.8-1.8-3.9-3.4-6.4-4.3c-2.5-1.1-5.1-1.6-8-1.6h-57.4V327.3z"/>
		<path class="st1" d="M1066.9,344.8h-90.9v-58.7v-17.3v-20.1c0-5.3,1.1-10.2,3-15c2-4.7,4.7-8.7,8.1-12.2c3.4-3.4,7.5-6.2,12.2-8.1
			c4.7-2,9.7-3,15-3h52.6v17.2h-52.6c-2.9,0-5.7,0.5-8.1,1.7c-2.5,1.1-4.7,2.6-6.6,4.5c-1.8,1.8-3.4,4.1-4.5,6.7
			c-1.2,2.6-1.7,5.4-1.7,8.3v20.1h61v17.3h-61v41.3h73.6v17.5H1066.9z"/>
	</g>
	<g>
		<g>
			<path class="st1" d="M77.7,321.7v-27.6c0-3.5-0.9-5.7-2.6-6.6s-4.9-1.3-9.5-1.3v-20.1c4.6,0,7.8-0.4,9.5-1.3
				c1.7-0.9,2.6-3.2,2.6-6.6v-25c0-9.7,2-16.2,5.9-19.4c2-1.6,4.6-2.8,8-3.5H25.9v134.6h65.6c-3.4-0.8-6-2-8-3.5
				C79.6,338,77.7,331.4,77.7,321.7z"/>
		</g>
		<g>
			<path class="st1" d="M160.5,210.1h-39.7v17.6h-18.4c-1.3,0-2.4,0.1-2.9,0.5c-0.5,0.4-0.9,1.2-0.9,2.6v27.3
				c0,9.1-2.9,15.1-8.7,18.3c5.8,2.9,8.7,8.9,8.7,18.1v29.3c0,1.3,0.3,2.2,0.9,2.6c0.5,0.4,1.6,0.5,2.9,0.5h18.4v17.6h39.7V210.1z"
				/>
		</g>
	</g>
</g>
</svg>
