<?xml version="1.0" encoding="utf-8"?>
<!-- Generator: Adobe Illustrator 23.0.5, SVG Export Plug-In . SVG Version: 6.00 Build 0)  -->
<svg version="1.1" id="Layer_1" xmlns="http://www.w3.org/2000/svg" xmlns:xlink="http://www.w3.org/1999/xlink" x="0px" y="0px"
	 viewBox="0 0 3147 2000" style="enable-background:new 0 0 3147 2000;" xml:space="preserve">
<g>
	<rect style="fill:#FFFFFF;" width="3147" height="2000"/>
	<g>
		<g>
			<path style="opacity:0.7;fill:#B0BFF7;" d="M2729.23,1927c64.47-29.94,120.82-66.43,166.69-109.14
				c222.12-206.82-82.55-354.47-82.91-649.42c-0.36-294.95,79.77-373.03-208.81-622.22c-288.58-249.18-996.96-304.33-1532.45-119.52
				C536.27,611.52,392.01,849.18,392.01,849.18s-194.27,277.58,78.73,557.2C720.42,1662.12,259.46,1807.44,686,1927"/>
			<g>
				<path style="fill:#466EB6;" d="M920.7,1309.9c-5.33-0.01-9.67,6.13-9.68,13.73c-0.02,7.6,4.29,13.76,9.62,13.78
					c5.33,0.01,9.67-6.13,9.68-13.73C930.33,1316.08,926.03,1309.92,920.7,1309.9z M920.69,1313.79c2.86,0.01,5.18,1.44,5.17,3.2
					c0,1.76-2.33,3.18-5.19,3.17c-2.86-0.01-5.18-1.44-5.17-3.2C915.5,1315.2,917.83,1313.78,920.69,1313.79z M920.64,1332.25
					c-4.04-0.01-7.3-2.22-7.29-4.93c0.01-2.71,3.28-4.9,7.32-4.89c4.04,0.01,7.3,2.22,7.29,4.93
					C927.95,1330.07,924.68,1332.26,920.64,1332.25z"/>
				<path style="fill:#7F1CA0;" d="M898.79,1340.27c-2.03,4.37-3.09,9.12-3.1,13.94l-0.25,100.69c-0.02,6.08,4.95,11.02,11.1,11.04
					l57.58,0.14c6.14,0.02,11.14-4.9,11.15-10.98l0.25-100.69c0.01-4.81-1.03-9.57-3.03-13.95L898.79,1340.27z"/>
				<path style="fill:#7F1CA0;" d="M898.79,1340.27c-2.03,4.37-3.09,9.12-3.1,13.94l-0.25,100.69c-0.02,6.08,4.95,11.02,11.1,11.04
					l57.58,0.14c6.14,0.02,11.14-4.9,11.15-10.98l0.25-100.69c0.01-4.81-1.03-9.57-3.03-13.95L898.79,1340.27z"/>
				<path style="fill:#3945B7;" d="M975.52,1354.4l-0.25,100.7c-0.01,6.08-5.01,11-11.15,10.98l-57.58-0.14
					c-6.15-0.02-11.11-4.96-11.1-11.04l0.25-100.7c0.01-4.81,1.07-9.56,3.1-13.93l73.69,0.18
					C974.48,1344.84,975.53,1349.6,975.52,1354.4z"/>
				<path style="fill:#3945B7;" d="M910.71,1454.94l0.25-100.69c0.01-4.81,1.07-9.56,3.1-13.94l-15.27-0.04
					c-2.03,4.37-3.09,9.12-3.1,13.94l-0.25,100.69c-0.02,6.08,4.95,11.02,11.1,11.04l15.27,0.04
					C915.66,1465.96,910.69,1461.02,910.71,1454.94z"/>
				<path style="fill:#24359B;" d="M975.52,1354.4l-0.25,100.7c-0.01,6.08-5.01,11-11.15,10.98l-23.54-0.06
					c6.2,0.02,11.25-4.91,11.27-10.98l0.25-100.7c0.01-4.81-1.05-9.56-3.07-13.95l23.45,0.06
					C974.48,1344.84,975.53,1349.6,975.52,1354.4z"/>
				<path style="fill:#13375B;" d="M972.48,1340.45l-73.7-0.18l0,0c0.01-3.22,2.65-5.82,5.9-5.81l61.92,0.15
					C969.86,1334.62,972.49,1337.23,972.48,1340.45L972.48,1340.45z"/>
				
					<rect x="929.13" y="1401.46" transform="matrix(2.455419e-03 -1 1 2.455419e-03 -508.2772 2373.2239)" style="fill:#355389;" width="12.51" height="79.82"/>
			</g>
			<g>
				<path style="fill:#86B1F2;" d="M826.26,1307.85h8.8c-1.44-0.98-3.24-1.57-5.2-1.57H609.3c-11.54,0-20.89,8.29-20.89,18.52v11.76
					c0,10.23,9.35,18.52,20.89,18.52l218.09-0.07L826.26,1307.85z"/>
				<path style="fill:#466EB6;" d="M701.04,1306.32c-11.04,0-19.98,7.93-19.98,17.71v13.29c0,9.78,8.95,17.71,19.98,17.71h137.3
					v-2.97h-0.57l-34.91-2.93l-7.06-24.53c0,0,13.62-13.56,14.5-13.91c0.89-0.35,27.46-1.41,27.46-1.41l0.57-0.01v-2.96H701.04z"/>
				<path style="fill:#FAE0B2;" d="M829.44,1330.59c0-14.34,8.36-21.3,8.36-21.3H703.86c-10.14,0-18.35,7.28-18.35,16.27v10.23
					c0,8.98,8.22,16.27,18.35,16.27H837.8C837.8,1352.07,829.44,1348.66,829.44,1330.59z"/>
				<path style="fill:#DAEEF7;" d="M685.5,1325.56v10.23c0,1.35,0.19,2.65,0.54,3.9c4.52-9.8,13.18-19.24,29.66-22.27
					c38.48-7.08,122.11-8.13,122.11-8.13H703.86C693.72,1309.3,685.5,1316.58,685.5,1325.56z"/>
				<path style="fill:#50BFA5;" d="M822.63,1405.41h9.96c-1.63-1.23-3.67-1.97-5.89-1.97H577.08c-13.06,0-23.65,10.38-23.65,23.18
					v14.73c0,12.8,10.59,23.18,23.65,23.18l246.84-0.08L822.63,1405.41z"/>
				<path style="fill:#3945B7;" d="M680.91,1403.49c-12.49,0-22.61,9.93-22.61,22.17v16.64c0,12.24,10.12,22.17,22.61,22.17h155.4
					v-3.72h-0.64l-39.51-3.67l-7.98-30.71c0,0,15.41-16.97,16.42-17.41s31.07-1.77,31.07-1.77l0.64-0.01v-3.7H680.91z"/>
				<path style="fill:#FAE0B2;" d="M826.23,1433.87c0-17.96,9.46-26.66,9.46-26.66h-151.6c-11.47,0-20.77,9.12-20.77,20.36v12.81
					c0,11.25,9.3,20.36,20.77,20.36h151.6C835.69,1460.75,826.23,1456.48,826.23,1433.87z"/>
				<path style="fill:#DAEEF7;" d="M663.32,1427.58v12.81c0,1.68,0.21,3.32,0.61,4.88c5.11-12.26,14.91-24.08,33.57-27.88
					c43.55-8.87,138.2-10.18,138.2-10.18h-151.6C672.62,1407.21,663.32,1416.33,663.32,1427.58z"/>
				<path style="fill:#3945B7;" d="M545.2,1356.52h-9.97c1.63-0.98,3.67-1.56,5.89-1.56h249.72c13.07,0,23.66,8.24,23.66,18.4v11.68
					c0,10.16-10.59,18.4-23.66,18.4l-246.93-0.07L545.2,1356.52z"/>
				<path style="fill:#24359B;" d="M686.97,1355c12.49,0,22.62,7.88,22.62,17.59v13.2c0,9.72-10.13,17.59-22.62,17.59H531.51v-2.95
					h0.64l39.52-2.91l7.99-24.37c0,0-15.42-13.47-16.42-13.81c-1.01-0.35-31.09-1.4-31.09-1.4l-0.64-0.01V1355H686.97z"/>
				<path style="fill:#FAE0B2;" d="M541.6,1379.11c0-14.25-9.47-21.15-9.47-21.15h151.66c11.48,0,20.78,7.23,20.78,16.16v10.16
					c0,8.92-9.3,16.16-20.78,16.16H532.13C532.13,1400.44,541.6,1397.05,541.6,1379.11z"/>
				<path style="fill:#DAEEF7;" d="M704.57,1374.12v10.16c0,1.34-0.21,2.63-0.61,3.88c-5.11-9.73-14.92-19.1-33.58-22.12
					c-43.57-7.04-138.26-8.08-138.26-8.08h151.66C695.27,1357.96,704.57,1365.19,704.57,1374.12z"/>
			</g>
			
				<rect x="1387.36" y="1375.53" transform="matrix(0.9825 0.1862 -0.1862 0.9825 331.4749 -231.7409)" style="fill:#24359B;" width="23.83" height="546.04"/>
			<polygon style="fill:#24359B;" points="2136.89,1921.5 2165.05,1921.5 2060.11,1378.04 2036.7,1382.48 			"/>
			<polygon style="fill:#24359B;" points="1621.32,1921.5 1649.48,1921.5 1544.54,1378.04 1521.12,1382.48 			"/>
			<polygon style="fill:#24359B;" points="1880.31,1921.5 1857.44,1921.77 1958.06,1380.48 1981.47,1384.91 			"/>
			<linearGradient id="SVGID_1_" gradientUnits="userSpaceOnUse" x1="1205.1677" y1="701.8514" x2="2120.2302" y2="1576.063">
				<stop  offset="0" style="stop-color:#F4A101"/>
				<stop  offset="1" style="stop-color:#FBD873"/>
			</linearGradient>
			<path style="fill:url(#SVGID_1_);" d="M1778.16,646.13c92.71,9.93,212.69,20.4,333.13,224.8
				c131.64,223.39,62.34,557.09-41.56,649.82c-103.9,92.73-443.24,207.23-728.5,35.82c0,0-172.24-103.88-83.85-276.27
				c136.03-265.3,116.81-320.62,177.63-424.59S1581.37,625.05,1778.16,646.13z"/>
			<linearGradient id="SVGID_2_" gradientUnits="userSpaceOnUse" x1="2130.3184" y1="1557.1287" x2="1235.6813" y2="756.4489">
				<stop  offset="0" style="stop-color:#F4A101"/>
				<stop  offset="1" style="stop-color:#FBD873"/>
			</linearGradient>
			<path style="fill:url(#SVGID_2_);" d="M2111.29,870.92c-82.21-139.51-164.2-188.67-237.45-208.98
				c28.33,29.32,57.06,67.04,85.81,115.83c131.64,223.39,62.34,557.09-41.56,649.82c-92.14,82.23-369.44,181.55-629.98,83.44
				c26.79,29.64,53.12,45.52,53.12,45.52c285.26,171.41,624.6,56.91,728.5-35.82C2173.64,1428.01,2242.93,1094.32,2111.29,870.92z"
				/>
			<g>
				<linearGradient id="SVGID_3_" gradientUnits="userSpaceOnUse" x1="793.6573" y1="713.5736" x2="1917.0601" y2="1281.4026">
					<stop  offset="0" style="stop-color:#F4A101"/>
					<stop  offset="1" style="stop-color:#FBD873"/>
				</linearGradient>
				<path style="fill:url(#SVGID_3_);" d="M930.02,949.58l264.92-1.99c6.05-0.05,10.92-4.99,10.87-11.04l-1.33-177.12
					c-0.05-6.05-4.99-10.92-11.04-10.87l-264.92,1.99c-6.05,0.05-10.92,4.99-10.87,11.04l1.33,177.12
					C919.03,944.76,923.97,949.62,930.02,949.58z"/>
				<linearGradient id="SVGID_4_" gradientUnits="userSpaceOnUse" x1="806.2378" y1="688.6843" x2="1929.6405" y2="1256.5133">
					<stop  offset="0" style="stop-color:#F4A101"/>
					<stop  offset="1" style="stop-color:#FBD873"/>
				</linearGradient>
				<polygon style="fill:url(#SVGID_4_);" points="1196.36,847.09 1281.89,934.25 1176.37,914.56 				"/>
				<g>
					<path style="fill:#FFFFFF;" d="M1119.18,834.8l-25.74-0.46c0,0-32.44-24.22-33.43-32.78c-0.99-8.56,4.32-26.68-0.71-28.95
						c-5.03-2.27-15.69-4.07-22.42,7.26c-4.89,8.23-0.82,38.27-3.84,40.27c-1.89,1.26-16.69,1.41-27.51,1.35
						c-7.11-0.04-13.65,3.87-16.98,10.15l-0.01,0.02c-2.25,4.25-1.23,9.49,2.46,12.57l5.74,4.8l-4.52,6
						c-3.36,4.47-2.49,10.82,1.96,14.21l4.53,3.46l-3.1,3.54c-4,4.55-3.15,11.57,1.81,15.04l4.03,2.82l-0.61,1.11
						c-2.52,4.64-1.07,10.43,3.33,13.34l4.05,2.68l68.56,1.22c6.42,0.11,12.8-1.09,18.74-3.53l24.18-3.56
						c2.6-0.38,4.53-2.61,4.53-5.24l0.15-60.01C1124.4,837.22,1122.08,834.85,1119.18,834.8z"/>
				</g>
			</g>
			<polygon style="fill:#F79C8D;" points="1480.51,985.67 1456.68,1057.16 1529.31,1028.59 			"/>
			<path style="fill:#24359B;" d="M1555.38,772.94c-4.84,0.2-18.11,4.62-37.51,41.16c-24.77,46.66-60.98,187.62-60.98,187.62
				l108.08,40.11l13.89-29.42l22.87-226.5C1601.72,785.91,1556.72,772.88,1555.38,772.94z"/>
			<path style="fill:#3945B7;" d="M1698.25,752.62c-30.91,0.04-107.38,9.03-142.87,20.33c0,0-26.07,223.34,23.47,393.06
				c11.09,37.99-9.17,157.48-9.17,157.48l320.26-4.21c0,0-37.94-288.88-23.65-335.54c14.29-46.66,14.63-209.28,14.63-209.28
				s-2.19-0.34-71.95-12.36C1776.43,756.49,1731.25,752.58,1698.25,752.62z"/>
			<path style="fill:#F7A491;" d="M1735.57,1738.02c0,0-7.08,81.5-20.11,104.06c-13.03,22.57,0.69,60.93,1.37,66.2
				c0.69,5.27,27.42,12.79,69.93,8.28c42.51-4.51,41.82-14.29,38.39-30.09c-3.43-15.8-26.05-36.11-27.42-51.15
				c-1.37-15.05,13.03-69.21,13.03-69.21L1735.57,1738.02z"/>
			<path style="fill:#24359B;" d="M1605.81,1256.22c0,0-221.07-12.23-270.44,17.56c-49.37,29.8,8.93,90.98,8.93,90.98
				s179.98,77.99,481.29,95.32c71.35,4.1,77.5-185.41,64.16-201.09C1876.41,1243.31,1605.81,1256.22,1605.81,1256.22z"/>
			<path style="fill:#24359B;" d="M1792.06,1922.89c43.77-4.65,38.36-26.08,34.83-42.35c-2.21-10.19-14.77-22.19-22.25-33.55
				c-3.91,3.11-10.28,8.59-29.29,14.19c-19.74,5.81-46.8-5.69-64.04-12.89c-6.15,22.79-6.43,51.86-5.85,56.27
				C1706.17,1909.98,1748.29,1927.54,1792.06,1922.89z"/>
			<path style="fill:#24359B;" d="M1767.9,1413.84c-8.83,66.61-52.56,398.2-52.56,398.2l101.47,12.54
				c0,0,124.78-432.81,118.38-499.01c-6.4-66.2-53.11-71.77-53.11-71.77S1791.28,1237.52,1767.9,1413.84z"/>
			<path style="fill:#24359B;" d="M1670.69,470.85c0,0,33.71-35.55,60.83,7.7c0,0,20.89-11.73,35.55,9.16
				c0,0,37.74-11.36,46.91,45.07c0,0,19.42-3.66,21.99,19.42c2.57,23.09-9.16,38.48-9.16,38.48s10.91,8.18,5.95,29.41
				c-4.21,18.05-19.15,20.8-19.15,20.8s-4.03,30.42-17.22,39.58c-13.19,9.16-31.15,4.76-31.15,4.76s-4.76,16.49-20.15,15.02
				c-15.39-1.47-34.45-16.12-51.67-9.53c-17.22,6.6-61.93-0.37-61.93-0.37s-50.2-22.35-35.18-73.66c0,0-26.38-23.82-3.3-52.4
				c0,0-16.86-44.71,16.49-71.09C1642.84,466.81,1670.69,470.85,1670.69,470.85z"/>
			<path style="fill:#F7A491;" d="M1676.39,712.17l-6.1,45.28c0,0-13.67,65.23,3.92,77.8c17.59,12.58,74.8-79.66,74.8-79.66
				l-6.04-114.73L1676.39,712.17z"/>
			<path style="fill:#3945B7;" d="M1744.91,678.04c-14.53,39.13-49.13,63.19-73.69,72.52l5.17-38.39l66.57-71.31L1744.91,678.04z"/>
			<path style="fill:#F7A491;" d="M1702.31,520.33c-35.69-12.29-73.74,11.42-79.19,48.22c-2.37,15.99-4.51,36.1-4.91,58.09
				c-0.96,52.88,26.42,104.35,50.43,104.35c24.01,0,90.38-34.23,92.78-109.31C1762.91,575.33,1739.77,533.22,1702.31,520.33z"/>
			<path style="fill:#F7A491;" d="M1743.73,627.61c0,11.67,7.73,21.12,17.27,21.12c9.54,0,17.27-9.46,17.27-21.12
				c0-11.67-7.73-21.12-17.27-21.12C1751.47,606.49,1743.73,615.95,1743.73,627.61z"/>
			<path style="fill:#24359B;" d="M1598.28,494.02c-24.8,19.65-33.5,49.51-19.42,66.69c14.08,17.18,45.6,15.18,70.41-4.47
				c24.8-19.65,33.5-49.51,19.42-66.69C1654.61,472.36,1623.08,474.37,1598.28,494.02z"/>
			<path style="fill:#F7A491;" d="M1884.41,799.28c-29.94-11.19-44.59,257.69-48.63,368.36c-53.03,5.08-145.45,0.04-168.46-1.68
				c-10.82-0.81-35.78-9.92-46.54-11.32c-11.03-1.44-21.03-2.19-26.45-1.25c-1.99,0.35-57.26,22.87-61.99,27.81
				c-5.86,6.13-21.72,21.58-19.04,28.26c2.67,6.68,30.49-18.62,30.49-18.62l13.59-7.6c-16.92,16.47-49.2,38.17-44.55,46.07
				c4.53,7.7,33.65-14.31,54.4-29.32c-17.8,16.02-39.91,44.69-34.81,49.16c4.58,4.02,29.73-29.17,56.61-38.73
				c9.96-3.54,19.89,6.27,27.72,7.45c5.76,0.87,14.65,2.72,20.3,1.13l29.1-8.23c9.91,0.89,10.16,6.74,20.17,8.86
				c11.62,2.47,30.69,5.06,45.49,8.67c85.23,20.75,113.66,30.39,139.75,30.38C1950.59,1258.62,1955.18,825.73,1884.41,799.28z"/>
			<path style="fill:#24359B;" d="M1941.24,1051.71c5.61-113.36,4.79-253.09-58.98-276.93c-25.16-9.41-69.51,47.15-61.54,279.23
				C1854.76,1056.81,1904.74,1059.07,1941.24,1051.71z"/>
			<polygon style="fill:#F79C8D;" points="1584.49,1003 1590.99,1003 1688.71,1242.31 1681.98,1241.29 			"/>
			<path style="fill:#F7A491;" d="M1438.85,1807.73c0,0,8.85,28.29-7,47c-15.85,18.71-81.73,37.07-90.38,47.2
				c-8.65,10.13-7.99,18.76-7.99,18.76l184.9-5.07l-2.01-55.65l-8.51-39.99L1438.85,1807.73z"/>
			<path style="fill:#24359B;" d="M1420.34,1864.06c0,0,47.51,19.15,70.46,7.81c22.95-11.34,22.26-14.48,28.9-10.25
				c6.64,4.23,9.02,56.4,9.02,56.4l-207.91,6.09c-14.47-0.33-21.78-10.95-10.03-20.04c8.06-6.23,17.37-10.41,22.67-13.43
				C1349.71,1881.34,1420.34,1864.06,1420.34,1864.06z"/>
			<path style="fill:#24359B;" d="M1445.85,1308.44c-14.29-29.97-46.79-68.99-103.98-45.49c-54.54,22.42-69.18,77.51-51.97,133.92
				s130.5,388.04,134.45,433.64l90.46,0.6c0,0-16.44-262.59-20.47-326.06C1490.45,1443.98,1470.59,1360.32,1445.85,1308.44z"/>
			<path style="fill:#F2F2F2;" d="M1299.01,1003h302.37c8,0,15.21,4.83,18.24,12.24l93.1,227.07h166.7c4.66,0,8.44,3.78,8.44,8.43
				l0,0c0,4.66-3.78,8.43-8.44,8.43h-474.44c-13.04,0-24.87-7.66-30.21-19.56l-93.75-208.83
				C1275.16,1017.75,1284.71,1003,1299.01,1003z"/>
			<path style="fill:#FFFFFF;" d="M1461.8,1135.23c2.04,10.2,10.94,17.02,19.87,15.23c8.93-1.79,14.52-11.5,12.48-21.7
				c-2.04-10.2-10.94-17.02-19.87-15.23C1465.35,1115.31,1459.76,1125.03,1461.8,1135.23z"/>
			<ellipse style="opacity:0.3;fill:#9BC1F9;" cx="2311.9" cy="532.18" rx="149.3" ry="149.61"/>
			<g>
				
					<rect x="2176.73" y="503.84" transform="matrix(6.123234e-17 -1 1 6.123234e-17 1647.494 2710.2102)" style="fill:#24359B;" width="4.24" height="55.04"/>
				
					<rect x="2443.17" y="503.84" transform="matrix(6.123234e-17 -1 1 6.123234e-17 1913.9275 2976.6438)" style="fill:#24359B;" width="4.24" height="55.04"/>
				<rect x="2309.55" y="372.41" style="fill:#24359B;" width="4.23" height="55.16"/>
				<rect x="2309.55" y="638.33" style="fill:#24359B;" width="4.23" height="55.16"/>
				<path style="fill:#24359B;" d="M2316.45,532.18c0,2.52-2.04,4.57-4.56,4.57c-2.52,0-4.56-2.04-4.56-4.57
					c0-2.52,2.04-4.57,4.56-4.57C2314.41,527.62,2316.45,529.66,2316.45,532.18z"/>
				<g>
					<path style="fill:#24359B;" d="M2311.9,534.22c-0.52,0-1.04-0.2-1.44-0.6l-81.87-82.04c-0.8-0.8-0.8-2.09,0-2.89
						c0.79-0.8,2.09-0.8,2.88,0l81.87,82.04c0.8,0.8,0.8,2.09,0,2.89C2312.94,534.03,2312.42,534.22,2311.9,534.22z"/>
				</g>
				<g>
					<path style="fill:#24359B;" d="M2338.22,615.09c-0.34-0.17-0.61-0.47-0.74-0.86l-26.46-80.1c-0.26-0.78,0.16-1.62,0.94-1.88
						c0.78-0.26,1.61,0.16,1.87,0.94l26.46,80.1c0.26,0.78-0.16,1.62-0.94,1.88C2338.96,615.3,2338.56,615.26,2338.22,615.09z"/>
				</g>
			</g>
			<g>
				<rect x="439.84" y="1464.42" style="fill:#24359B;" width="625.85" height="32.32"/>
				<rect x="451.16" y="1651.93" style="fill:#24359B;" width="409.18" height="28.28"/>
				<rect x="977.88" y="1480.58" style="fill:#24359B;" width="26.4" height="440.86"/>
				<rect x="604.52" y="1480.58" style="fill:#24359B;" width="26.4" height="440.86"/>
				<polygon style="fill:#24359B;" points="790.1,1921.44 932.32,1484.37 909.01,1476.79 764.33,1921.44 				"/>
				<polygon style="fill:#24359B;" points="390.06,1921.44 511.7,1483.41 488.08,1476.85 364.62,1921.44 				"/>
			</g>
			<path style="fill:#24359B;" d="M2311.9,357.45c-96.3,0-174.37,78.23-174.37,174.73s78.07,174.73,174.37,174.73
				c96.3,0,174.37-78.23,174.37-174.73S2408.2,357.45,2311.9,357.45z M2321.25,681.5c-82.29,5.17-153.19-57.48-158.36-139.95
				c-5.16-82.47,57.36-153.51,139.66-158.69c82.29-5.18,153.2,57.48,158.36,139.95C2466.07,605.28,2403.54,676.33,2321.25,681.5z"/>
			<path style="fill:#3945B7;" d="M2851.03,1334.35c-50.09-36.37-131.37,137.36-173.98,184.5c-11.13,10.95-21.87,22.37-32.26,34.1
				c34.24-86.46,94.25-196.88,44.84-211.55c-52.71-15.63-47,179.22-58.67,227.54c-12.73,15.07-24.81,30.52-37.01,46.08
				c11.7-50.48,30.09-253.7-31.9-245.97c-42.89,5.35,27.61,176.21,19.07,262.63c-6.03,8.01-12.05,15.95-17.97,23.89l-10.39,13.86
				l-0.74,0.6l0.6-0.43c-11.66,15.63-18.11,24.81-29.49,40.87c7.51-29.67,24.81-61.54,6.77-164.3
				c-22.51-128.85-79.72-90.11-38.14,35.66c28.36,85.32,21.27,119.81,21.66,142.36c-14.78,21.06-10.21,13.04-23.61,34.92
				c-1.38-33.5-6.2-172.91-61.22-176.32c-47.39-2.91,14.68,74.44,31.9,116.2c17.23,41.76,21.62,49.31,21.45,69.16
				c-2.69,4.5-27.29,45.05-29.88,49.63c-1.99,3.54,3.08,7.09,5.07,3.54c6.84-11.84,27.33-41.26,34.67-52.85
				c36.58-4.75,193.54,61.43,183.76,11.34c-6.34-32.22-150.69-31.51-178.37-19.74c7.09-10.85,16.62-22.83,23.96-33.5
				c64.61-6.05,129.54-7.98,194.39-5.78c49.98,1.88,36.26-60.51-59.69-45.02c-68.66,11.1-108.01,32.33-127.4,40.23
				c13.47-19.28,34.92-47.32,48.95-66.11c58.88-22.72,116.3-18.61,195.28-13.75c80.43,4.93,47.61-70.01-67.6-41.93
				c-94.64,23.04-92.16,27.9-116.98,41.37c16.66-22.08,29.81-39.63,47.43-61.47c39.77-21.94,112.05-30.59,161.92-34.6
				c76.96-6.2,110.56-77.98-8.44-47.29c-61.68,15.92-113.96,51.26-141.79,67.35c9.54-10.88,19.39-21.55,29.56-31.9
				C2732.88,1476.99,2898.31,1368.7,2851.03,1334.35z"/>
			<path style="fill:#FCDA73;" d="M2506.14,1753.32c0,0-59.45-46.08-16.52-105.67c42.93-59.59,97.41-89.15,125.48-125.48
				c28.07-36.33,62.74-52.82,75.93-52.82s8.26,49.63,11.56,67.67s-28.04,89.15-51.15,117.22S2651.44,1773.1,2506.14,1753.32z"/>
			<path style="fill:#FCDA73;" d="M2449.81,1683.91c9.64-2.27,51.79-65.22,67.53-111.73c15.74-46.51,1.06-135.41-17.72-181.35
				s-49.31-86.67-64.16-86.42s-34.81,93.01-47.53,122.97c-12.73,29.95-33.5,113.01,3.86,175.15
				C2429.15,1664.66,2435.03,1687.49,2449.81,1683.91z"/>
			<path style="fill:#FCDA73;" d="M2392.21,1731.84c11.34-6.17,33.04-66.04-14.85-125.45s-77.59-90.82-95.71-140.34
				c-18.11-49.52-93.83-60.01-105.67-36.33c-24.81,49.63,34.67,105.67,33.04,155.19c-1.63,49.52,11.56,118.86,77.59,128.78
				C2352.65,1723.61,2374.06,1741.76,2392.21,1731.84z"/>
			<path style="fill:#F6A300;" d="M2651.51,1543.01c-2.16-0.96-4.7,0.01-5.66,2.18c0,0.01-0.01,0.01-0.01,0.02
				c-8.55,19.1-18.49,37.55-29.74,55.19v-16.41c-0.01-2.37-1.94-4.28-4.31-4.27c-2.36,0.01-4.26,1.92-4.27,4.27v27.51
				c0.04,0.55,0.17,1.09,0.39,1.6c-14.79,22.03-31.64,42.6-50.34,61.43l-0.92,0.92v-19.35c0.01-2.37-1.9-4.3-4.27-4.31
				c-2.37-0.01-4.3,1.9-4.31,4.27c0,0.01,0,0.02,0,0.03v28.61c-40.09,45.37-85.07,126.12-97.09,148.52
				c0-61.04-0.46-179.01-1.63-218.53c-0.39-13.01-0.6-29.95-0.71-48.81l17.72-22.12c1.41-1.91,1-4.59-0.91-6
				c-1.79-1.32-4.29-1.05-5.76,0.61l-11.13,13.72c0-16.73,0-34.49,0-52.04c0-15.81,0-31.34,0-45.41l14.68-16.62
				c1.57-1.78,1.39-4.5-0.39-6.06c-1.78-1.57-4.5-1.39-6.06,0.39l0,0l-8.26,9.39c0-17.72-0.32-31.9-0.74-40.34
				c-1.63-32.47-1.63-45.87-1.63-46.08c-0.22-2.38-2.32-4.13-4.7-3.92c-2.08,0.19-3.73,1.84-3.92,3.92c0,0.57,0,13.72,1.67,46.44
				c0.46,8.83,0.64,24.39,0.74,43.39l-9.07-7.76c-1.85-1.48-4.55-1.18-6.03,0.67c-1.41,1.77-1.21,4.33,0.46,5.85l14.68,12.58
				c0,13.54,0,28.36,0,43.49c0,17.72,0,35.45,0,52.32l-8.79-9.96c-1.54-1.77-4.23-1.96-6-0.41c-0.01,0.01-0.02,0.01-0.02,0.02
				c-1.79,1.58-1.96,4.3-0.39,6.1l15.28,17.3c0,19,0.32,36.16,0.71,49.31c1.1,36.69,1.45,141.26,1.56,204.74
				c-12.83-28.36-48.67-102.19-91.63-145.16c-0.74-0.74-1.38-1.56-2.09-2.3l0,0v-27.68c-0.01-2.37-1.94-4.28-4.31-4.27
				c-2.36,0.01-4.26,1.92-4.27,4.27v18.29c-21.87-26.12-36.83-58.13-49.84-88.16c-0.02-0.07-0.02-0.14,0-0.21l2.2-26.44
				c0.18-2.36-1.58-4.42-3.93-4.61c-2.32-0.22-4.38,1.48-4.6,3.8c0,0.03-0.01,0.07-0.01,0.1l-0.89,10.63
				c-10.35-24.18-19.6-45.02-31.09-59.73c-1.47-1.87-4.17-2.19-6.04-0.73c-1.87,1.47-2.19,4.17-0.73,6.04
				c11.56,14.75,21.02,36.87,31.9,62.46l0.6,1.35l-14.82-4.04c-2.29-0.63-4.66,0.72-5.28,3.01c-0.63,2.29,0.72,4.66,3.01,5.28
				l21.27,5.85c12.51,28.93,26.87,59.62,47.43,85.82l-18.08-5.28c-2.28-0.67-4.67,0.64-5.33,2.92c-0.67,2.28,0.64,4.67,2.92,5.33
				l0,0l30.66,8.9c1.63,1.77,3.19,3.54,4.93,5.42c51.65,51.61,94.43,152.78,94.86,153.81c0.55,1.19,1.63,2.05,2.91,2.34
				c0,20.28,0,33.46,0,33.96c0.22,2.38,2.32,4.13,4.7,3.92c2.08-0.19,3.73-1.84,3.92-3.92c0-0.43,0-10.1,0-25.56
				c0.21,0,0.43,0,0.67,0c1.59,0.01,3.05-0.86,3.79-2.27c0.57-1.1,52.96-99.75,97.98-151.36l34.21-4.89
				c2.35-0.33,3.98-2.51,3.65-4.86c-0.33-2.35-2.51-3.98-4.86-3.65l-23.79,3.54l1.03-1.06c20.47-20.68,38.81-43.38,54.73-67.74
				l26.23-14.18c2.34-0.38,3.92-2.59,3.54-4.92c-0.38-2.34-2.59-3.92-4.92-3.54c-0.89,0.14-1.71,0.56-2.34,1.2l-12.87,6.88
				c9.71-15.85,18.39-32.31,25.98-49.27c0.96-2.17-0.03-4.7-2.19-5.65C2651.53,1543.02,2651.52,1543.01,2651.51,1543.01z"/>
			<path style="fill:#3945B7;" d="M2552.86,1913.43c-2.19,11.09-11.74,19.2-23.04,19.57H2364.7c-11.3-0.37-20.86-8.48-23.08-19.57
				l-20.03-87.77c-1.81-8.8,3.86-17.4,12.66-19.21c1.28-0.26,2.58-0.37,3.89-0.32h217.93c8.98-0.34,16.53,6.66,16.87,15.64
				c0.05,1.3-0.06,2.61-0.32,3.89L2552.86,1913.43z"/>
			<path style="fill:none;stroke:#FAFCFF;stroke-width:1.3;stroke-linecap:round;stroke-linejoin:round;" d="M2324.82,1845.76
				l-3.54-20.24c0.04-10.93,8.89-19.78,19.82-19.82h60.93"/>
			<g>
				<g>
					
						<linearGradient id="SVGID_5_" gradientUnits="userSpaceOnUse" x1="216.1918" y1="467.4072" x2="216.1918" y2="-338.5543" gradientTransform="matrix(0.9758 -0.2186 0.2186 0.9758 115.7145 1271.653)">
						<stop  offset="0" style="stop-color:#F4A101"/>
						<stop  offset="1" style="stop-color:#FBD873"/>
					</linearGradient>
					<path style="fill:url(#SVGID_5_);" d="M363.17,1695.21c0,0,96.52-53.68,90.59-172.73c-5.99-119.02-29.33-135.67,15.23-277.7
						c46.39-107.31-61.68-205.13-65.92-289.39c-4.13-84.23-38.38-105.94-73.44-65.78s3.98,148.91-51.27,190.56
						c-55.28,41.75-58.55,118.79-40.47,173.51c18.08,54.71,47.24,171.43,12.5,226.22C215.65,1534.85,237.89,1673.17,363.17,1695.21z
						"/>
					<path style="fill:#F4A101;" d="M411.66,1285.4l-44.46,63.21l1.17-172.48l34.08-51.32c1.13-1.71,0.6-3.96-1.11-5.09
						c0,0,0,0-0.04-0.07c-1.77-1.1-4.02-0.56-5.16,1.14l-27.76,41.85l1.09-163.4c-0.01-2.08-1.65-3.77-3.73-3.75l0,0
						c-2.08,0.01-3.77,1.65-3.75,3.73l-1.02,163.54l-25.63-44.26c-1.02-1.83-3.24-2.44-5.07-1.42c-1.83,1.02-2.44,3.24-1.42,5.07
						c0.04,0.07,0.04,0.07,0.07,0.14l31.88,55.35l-1.07,166.34l-43.25-55.31c-1.36-1.48-3.75-1.57-5.24-0.21
						c-1.31,1.19-1.54,3.13-0.66,4.68l49.08,62.69l-0.97,145.86l-35.04-40.7c-1.33-1.59-3.69-1.78-5.24-0.38
						c-1.59,1.33-1.78,3.69-0.38,5.24l40.59,47.18l-1.12,174.28c0.01,2.08,1.62,3.7,3.73,3.75l0.87-0.18
						c1.7-0.43,2.86-1.89,2.92-3.66l1.1-172.27l40.38-36.18c1.59-1.33,1.81-3.62,0.55-5.24s-3.62-1.81-5.24-0.55
						c-0.07,0.04-0.17,0.17-0.24,0.21l-35.35,31.71l0.88-143.12l50.68-72.02c1.17-1.64,0.74-4.03-0.9-5.19
						c-1.64-1.17-4.03-0.74-5.19,0.9L411.66,1285.4z"/>
				</g>
				<path style="fill:#FBD873;" d="M415.45,1775.73c0,0-51.62-39.99-14.34-91.69s84.56-77.35,108.89-108.89s54.48-45.8,65.88-45.8
					c11.47,0,7.13,43.09,10,58.75c2.87,15.66-24.34,77.35-44.41,101.76C521.4,1714.27,541.55,1792.86,415.45,1775.73z"/>
				<path style="fill:#FBD873;" d="M316.56,1757.05c9.84-5.35,28.68-57.27-12.87-108.89c-41.54-51.54-67.35-78.82-83.08-121.76
					c-15.73-42.94-81.45-52.08-91.69-31.54c-21.55,43.09,30.07,91.69,28.68,134.7c-1.4,42.94,10,103.16,67.35,111.76
					C282.23,1749.92,300.83,1765.66,316.56,1757.05z"/>
				<path style="fill:#F4A101;" d="M541.55,1593.21c-1.86-0.85-4.11,0-4.88,1.86l0,0c-7.44,16.59-16.04,32.55-25.81,47.9v-14.18
					c0-2.09-1.71-3.72-3.72-3.72c-2.02,0-3.72,1.63-3.72,3.72v23.87c0,0.46,0.16,0.93,0.31,1.4
					c-12.87,19.14-27.44,36.97-43.71,53.32l-0.78,0.78v-16.82c0-2.09-1.63-3.72-3.72-3.72s-3.72,1.63-3.72,3.72l0,0v24.8
					c-34.8,39.37-73.86,109.43-84.25,128.89c0-52.93-0.39-155.31-1.4-189.65c-0.31-11.32-0.54-25.96-0.62-42.39l15.35-19.22
					c1.24-1.63,0.85-3.95-0.77-5.19c-1.55-1.16-3.72-0.93-4.96,0.54l-9.69,11.94c0-14.49,0-29.92,0-45.18c0-13.72,0-27.2,0-39.37
					l12.71-14.42c1.4-1.55,1.24-3.88-0.31-5.27c-1.55-1.4-3.88-1.24-5.27,0.31l0,0l-7.13,8.14c0-15.35-0.31-27.67-0.62-35.03
					c-1.4-28.21-1.4-39.84-1.4-39.99c-0.16-2.09-2.02-3.57-4.11-3.41c-1.78,0.15-3.26,1.63-3.41,3.41c0,0.47,0,11.94,1.47,40.3
					c0.39,7.67,0.54,21.16,0.62,37.67l-7.91-6.74c-1.63-1.32-3.95-1.01-5.27,0.62c-1.24,1.55-1.09,3.72,0.39,5.12l12.71,10.93
					c0,11.78,0,24.65,0,37.74c0,15.35,0,30.77,0,45.42l-7.6-8.68c-1.32-1.55-3.64-1.71-5.19-0.39l0,0c-1.55,1.4-1.71,3.72-0.31,5.27
					l13.25,15.04c0,16.51,0.31,31.39,0.62,42.78c0.93,31.85,1.24,122.61,1.32,177.71c-11.16-24.65-42.24-88.66-79.52-125.94
					c-0.62-0.62-1.16-1.32-1.78-2.02l0,0v-24.03c0-2.09-1.71-3.72-3.72-3.72s-3.72,1.63-3.72,3.72v15.89
					c-18.99-22.71-31.93-50.45-43.25-76.49c0-0.08,0-0.15,0-0.15l1.94-22.94c0.15-2.02-1.4-3.8-3.41-4.03
					c-2.02-0.15-3.8,1.32-4.03,3.33v0.08l-0.78,9.22c-8.99-21-16.97-39.06-26.97-51.85c-1.24-1.63-3.64-1.94-5.27-0.62
					c-1.63,1.24-1.94,3.64-0.62,5.27c10,12.79,18.21,32.01,27.67,54.17l0.54,1.16l-12.87-3.49c-2.02-0.54-4.03,0.62-4.57,2.64
					c-0.54,2.02,0.62,4.03,2.64,4.57l18.45,5.04c10.85,25.11,23.33,51.77,41.15,74.48l-15.66-4.57c-2.02-0.54-4.03,0.54-4.65,2.56
					c-0.54,2.02,0.54,4.03,2.56,4.65l0,0l26.58,7.75c1.4,1.55,2.79,3.1,4.26,4.73c44.8,44.8,81.92,132.61,82.31,133.46
					c0.47,1.01,1.4,1.78,2.56,2.02c0,17.59,0,29.06,0,29.45c0.16,2.09,2.02,3.57,4.11,3.41c1.78-0.15,3.26-1.63,3.41-3.41
					c0-0.39,0-8.76,0-22.17c0.15,0,0.39,0,0.62,0c1.4,0,2.64-0.78,3.26-1.94c0.47-0.93,45.96-86.57,85.02-131.37l29.68-4.26
					c2.02-0.31,3.49-2.17,3.18-4.19c-0.31-2.02-2.17-3.49-4.19-3.18l-20.62,3.1l0.93-0.93c17.75-17.98,33.71-37.67,47.51-58.82
					l22.79-12.32c2.02-0.31,3.41-2.25,3.1-4.26c-0.31-2.02-2.25-3.41-4.26-3.1c-0.78,0.15-1.47,0.46-2.02,1.01l-11.16,5.97
					c8.45-13.72,15.97-28.06,22.55-42.78C544.34,1596.24,543.49,1594.07,541.55,1593.21
					C541.63,1593.21,541.63,1593.21,541.55,1593.21z"/>
				<path style="fill:#3945B7;" d="M455.99,1914.62c-1.94,9.61-10.15,16.66-20,16.97h-143.3c-9.84-0.31-18.14-7.36-20-16.97
					l-17.36-76.18c-1.55-7.67,3.33-15.11,11.01-16.66c1.09-0.23,2.25-0.31,3.41-0.31h189.11c7.83-0.31,14.34,5.81,14.65,13.56
					c0.08,1.16-0.08,2.25-0.31,3.41L455.99,1914.62z"/>
				<path style="fill:none;stroke:#041987;stroke-miterlimit:10;" d="M258.12,1855.95l-3.1-17.59c0-9.46,7.75-17.13,17.21-17.21
					h52.86"/>
			</g>
			<g>
				<path style="fill:#24359B;" d="M1558.25,293.37c0-6.98,0.39-10.75,1.16-11.34c0.44-0.39,2.07-0.71,4.9-0.98
					c2.83-0.27,5.87-0.4,9.12-0.4c8.09,0,12.76,0.46,14.02,1.38c0.87,0.58,1.31,4.36,1.31,11.34v15.11c0,1.84,0.11,3.61,0.33,5.3
					c0.22,1.7,0.42,2.66,0.62,2.91c0.15,0.19,1.09,0.41,2.83,0.65c1.74,0.24,3.54,0.36,5.38,0.36h10.97c1.94,0,3.75-0.11,5.45-0.33
					c1.7-0.22,2.62-0.45,2.76-0.69c0.19-0.19,0.4-1.15,0.62-2.87c0.22-1.72,0.33-3.5,0.33-5.34v-15.11c0-6.98,0.41-10.75,1.24-11.34
					c0.48-0.39,2.12-0.71,4.9-0.98c2.79-0.27,5.8-0.4,9.05-0.4c8.14,0,12.84,0.46,14.1,1.38c0.82,0.53,1.24,4.31,1.24,11.34v76.3
					c0,6.98-0.39,10.75-1.16,11.34c-0.44,0.39-2.07,0.71-4.91,0.98c-2.83,0.27-5.87,0.4-9.12,0.4c-8.09,0-12.76-0.46-14.02-1.38
					c-0.87-0.58-1.31-4.36-1.31-11.34v-16.57c0-1.84-0.11-3.61-0.33-5.3c-0.22-1.7-0.42-2.66-0.62-2.91
					c-0.15-0.19-1.08-0.4-2.8-0.62c-1.72-0.22-3.53-0.33-5.41-0.33h-10.97c-1.94,0-3.75,0.1-5.45,0.29
					c-1.7,0.19-2.62,0.41-2.76,0.65c-0.19,0.19-0.4,1.15-0.62,2.87c-0.22,1.72-0.33,3.5-0.33,5.34v16.57
					c0,6.98-0.41,10.75-1.24,11.34c-0.48,0.39-2.12,0.71-4.9,0.98c-2.79,0.27-5.8,0.4-9.05,0.4c-8.14,0-12.84-0.46-14.1-1.38
					c-0.82-0.53-1.24-4.31-1.24-11.34V293.37z"/>
				<path style="fill:#24359B;" d="M1690.8,309.57c0-2.62-0.32-4.19-0.94-4.72c-0.58-0.63-2.2-0.94-4.87-0.94h-14.31
					c-5.04,0-7.7-0.31-7.99-0.94c-0.68-1.02-1.02-4.55-1.02-10.61c0-2.33,0.1-4.65,0.29-6.98s0.44-3.63,0.73-3.92
					c0.48-0.53,3.15-0.8,7.99-0.8h70.63c4.89,0,7.56,0.27,7.99,0.8c0.29,0.29,0.53,1.61,0.73,3.96c0.19,2.35,0.29,4.66,0.29,6.94
					c0,6.25-0.34,9.79-1.02,10.61c-0.44,0.63-3.1,0.94-7.99,0.94h-14.17c-2.52,0-4.14,0.31-4.87,0.94
					c-0.63,0.53-0.94,2.11-0.94,4.72v60.09c0,6.88-0.39,10.66-1.16,11.34c-0.49,0.39-2.13,0.71-4.94,0.98
					c-2.81,0.27-5.86,0.4-9.16,0.4c-8.04,0-12.69-0.46-13.95-1.38c-0.87-0.63-1.31-4.41-1.31-11.34V309.57z"/>
				<path style="fill:#24359B;" d="M1756.56,370.82l8.57-78.11c0.68-6.25,1.65-9.86,2.91-10.83c1.07-0.82,5.38-1.23,12.93-1.23
					c6.73,0,10.75,0.48,12.06,1.45c0.78,0.53,2.54,3.37,5.3,8.5l17.58,32.99c0.19,0.34,0.44,0.51,0.73,0.51s0.53-0.17,0.73-0.51
					l17.37-32.99c2.66-5.04,4.43-7.87,5.3-8.5c1.31-0.97,4.94-1.45,10.9-1.45c6.93,0,10.97,0.44,12.13,1.31
					c1.06,0.77,2.03,4.38,2.91,10.83l10.46,79.27c0.58,4.5,0.63,7.05,0.15,7.63c-0.44,0.48-1.99,1.08-4.65,1.78
					c-2.67,0.7-6.06,1.3-10.17,1.78c-3.63,0.39-6.93,0.58-9.88,0.58c-0.97,0-1.68-0.05-2.14-0.15c-0.46-0.1-0.93-0.28-1.42-0.54
					c-0.48-0.27-0.84-0.8-1.05-1.6s-0.42-1.73-0.62-2.8c-0.19-1.07-0.44-2.64-0.73-4.72l-5.38-42.36c-0.05-0.48-0.25-0.77-0.62-0.87
					c-0.36-0.1-0.64,0.05-0.83,0.44l-12.86,24.34c-1.26,2.23-2.08,3.46-2.47,3.71c-0.39,0.24-1.54,0.46-3.45,0.65
					c-1.91,0.19-3.79,0.29-5.63,0.29c-4.75,0-7.85-0.34-9.3-1.02c-0.63-0.34-1.53-1.6-2.69-3.78l-12.13-23.98
					c-0.19-0.34-0.46-0.47-0.8-0.4c-0.34,0.07-0.53,0.28-0.58,0.62l-5.67,42.14c-0.48,3.39-0.94,5.75-1.38,7.08
					c-0.44,1.33-0.91,2.16-1.42,2.47c-0.51,0.31-1.46,0.47-2.87,0.47c-2.71,0-5.3-0.17-7.77-0.51c-2.96-0.39-5.86-0.93-8.72-1.64
					c-2.86-0.7-4.5-1.32-4.94-1.85C1755.93,379.25,1755.98,376.25,1756.56,370.82z"/>
				<path style="fill:#24359B;" d="M1891.51,293.37c0-6.98,0.39-10.75,1.16-11.34c1.16-0.92,6.01-1.38,14.53-1.38
					c8.14,0,12.89,0.46,14.24,1.38c0.87,0.58,1.31,4.36,1.31,11.34v57.91c0,2.62,0.31,4.19,0.95,4.72c0.58,0.63,2.2,0.94,4.87,0.94
					h27.03c5.47,0,8.4,0.29,8.79,0.87c0.68,0.82,1.02,4.84,1.02,12.06c0,6.73-0.34,10.56-1.02,11.48c-0.44,0.68-3.37,1.02-8.79,1.02
					l-49.56-0.07c-2.66,0-5.23-0.22-7.7-0.65s-4.02-0.94-4.65-1.53c-0.63-0.58-1.15-2.12-1.56-4.61s-0.62-5.07-0.62-7.74V293.37z"/>
			</g>
			<g>
				<path style="fill:#24359B;" d="M878.77,656.22c-3.67-9.53-6.61-18.89-8.81-28.08c-2.22-9.28-3.79-18.82-4.71-28.61
					c-0.92-9.79-0.88-15.58,0.14-17.37c0.95-1.67,4.75-3.94,11.41-6.8c6.66-2.86,15.1-5.52,25.33-7.96
					c7.92-1.89,15.02-3.22,21.31-3.98c6.29-0.76,9.77-0.79,10.43-0.11c0.34,0.37,0.63,1.78,0.87,4.24c0.24,2.46,0.38,4.9,0.41,7.34
					c0.14,7.69-0.7,11.75-2.54,12.19c-0.24,0.06-1.5,0.17-3.8,0.35c-2.3,0.18-5.24,0.49-8.81,0.95s-7.06,1.09-10.45,1.9
					c-3.77,0.9-6.82,1.88-9.16,2.94c-2.34,1.06-3.68,2-4.03,2.83c-0.51,1.22-0.43,4.7,0.22,10.44c0.65,5.75,1.49,10.76,2.52,15.05
					c1.01,4.24,2.54,9.14,4.56,14.71c2.03,5.57,3.5,8.79,4.41,9.67c1.23,1.2,5.52,0.92,12.87-0.84c5.04-1.21,9.58-2.62,13.63-4.23
					c4.05-1.61,7.14-3,9.28-4.16c2.14-1.16,3.42-1.79,3.84-1.89c1.04-0.25,2.33,0.59,3.89,2.51c1.56,1.92,2.93,4.13,4.13,6.63
					c0.9,1.88,1.73,3.93,2.48,6.17c0.76,2.23,1.1,3.83,1.03,4.8c-0.11,0.38-0.5,0.88-1.17,1.51c-0.67,0.63-1.87,1.47-3.58,2.5
					c-1.72,1.03-3.8,2.1-6.25,3.21c-2.45,1.11-5.71,2.32-9.77,3.65c-4.07,1.32-8.55,2.57-13.45,3.74
					c-9.89,2.37-18.34,3.74-25.35,4.12c-7.01,0.38-11.27,0-12.78-1.13C885.14,671.18,882.44,665.75,878.77,656.22z"/>
				<path style="fill:#24359B;" d="M969.29,648.28c-0.49-2.9-0.82-5.72-0.98-8.47c-0.13-2.61-0.09-4.97,0.1-7.08
					s0.49-3.27,0.89-3.46c0.18-0.09,2.05-0.33,5.62-0.71c3.57-0.38,8.13-0.95,13.68-1.7c5.55-0.75,10.44-1.64,14.68-2.65
					c3.3-0.79,6.26-1.66,8.9-2.61c2.64-0.95,4.17-1.68,4.6-2.18c0.52-0.72,0.5-2.29-0.08-4.69c-0.41-1.7-0.96-2.76-1.66-3.19
					c-0.46-0.24-1.91-0.39-4.37-0.45c-2.46-0.06-5.99-0.15-10.6-0.27c-4.61-0.12-8.81-0.3-12.6-0.53
					c-13.36-0.89-21.19-2.28-23.49-4.17c-1.28-0.99-2.86-3.65-4.75-7.98c-1.88-4.33-3.37-8.76-4.45-13.28
					c-1.06-4.43-1.77-8.99-2.12-13.69c-0.35-4.7-0.17-7.73,0.55-9.1c0.96-1.82,4.28-4.16,9.98-7.02s13.41-5.45,23.17-7.78
					c6.83-1.63,13.24-2.73,19.24-3.29c5.99-0.56,10.38-0.74,13.17-0.53c2.79,0.21,4.35,0.49,4.69,0.86
					c0.27,0.29,0.57,1.61,0.91,3.97c0.34,2.36,0.53,4.65,0.56,6.89c0.07,2.77-0.08,5.31-0.42,7.61c-0.35,2.3-0.9,3.54-1.65,3.72
					c-0.14,0.03-1.83,0.16-5.06,0.39c-3.23,0.23-7.08,0.6-11.54,1.12c-4.46,0.52-8.27,1.16-11.42,1.91
					c-3.02,0.72-5.91,1.64-8.68,2.75s-4.4,1.9-4.89,2.36c-0.6,0.59-0.54,2.44,0.21,5.55c0.48,2.03,1.05,3.14,1.69,3.33
					c0.8,0.21,7.88,0.38,21.27,0.52c8.04,0.07,14.79,0.5,20.25,1.28c5.47,0.78,8.72,1.58,9.76,2.37c1.1,0.83,2.51,3.53,4.25,8.1
					c1.74,4.56,3.09,8.85,4.04,12.85c1.23,5.14,1.97,10.41,2.22,15.83c0.25,5.42,0.03,8.66-0.66,9.72c-0.51,0.77-2.2,1.98-5.07,3.64
					c-2.87,1.66-7.07,3.57-12.6,5.74c-5.53,2.17-11.34,3.98-17.42,5.44c-6.12,1.46-12.34,2.51-18.63,3.15
					c-6.3,0.64-11.12,0.9-14.45,0.8c-3.34-0.1-5.21-0.27-5.62-0.52C970.2,652.68,969.79,651.17,969.29,648.28z"/>
				<path style="fill:#24359B;" d="M1061.95,626.12c-0.49-2.9-0.82-5.72-0.98-8.47c-0.13-2.61-0.09-4.97,0.1-7.08
					s0.49-3.27,0.89-3.46c0.18-0.09,2.05-0.33,5.62-0.71s8.13-0.95,13.68-1.7s10.44-1.64,14.68-2.65c3.3-0.79,6.26-1.66,8.9-2.61
					c2.63-0.95,4.17-1.68,4.59-2.18c0.52-0.72,0.5-2.29-0.07-4.69c-0.41-1.7-0.96-2.76-1.66-3.19c-0.46-0.24-1.91-0.39-4.37-0.45
					c-2.45-0.06-5.99-0.15-10.6-0.27c-4.61-0.12-8.81-0.3-12.6-0.53c-13.36-0.89-21.19-2.28-23.49-4.17
					c-1.28-0.99-2.86-3.65-4.75-7.98c-1.88-4.33-3.37-8.76-4.45-13.28c-1.06-4.43-1.76-8.99-2.12-13.69
					c-0.35-4.7-0.17-7.73,0.55-9.1c0.96-1.82,4.28-4.16,9.98-7.02s13.42-5.45,23.17-7.78c6.83-1.63,13.24-2.73,19.24-3.29
					c5.99-0.56,10.38-0.74,13.17-0.53c2.79,0.21,4.35,0.49,4.69,0.86c0.27,0.29,0.57,1.61,0.91,3.97c0.34,2.36,0.53,4.65,0.56,6.89
					c0.07,2.77-0.07,5.31-0.42,7.61c-0.35,2.3-0.9,3.54-1.65,3.72c-0.14,0.03-1.83,0.16-5.06,0.39c-3.23,0.23-7.08,0.6-11.54,1.12
					c-4.46,0.52-8.27,1.16-11.42,1.91c-3.02,0.72-5.91,1.64-8.68,2.75s-4.4,1.9-4.89,2.36c-0.6,0.59-0.54,2.44,0.21,5.55
					c0.48,2.03,1.05,3.14,1.69,3.33c0.8,0.21,7.89,0.38,21.27,0.52c8.04,0.07,14.79,0.5,20.25,1.28c5.47,0.78,8.72,1.58,9.76,2.37
					c1.1,0.83,2.51,3.53,4.25,8.1s3.09,8.85,4.05,12.85c1.23,5.14,1.97,10.41,2.22,15.83c0.25,5.42,0.03,8.66-0.66,9.72
					c-0.51,0.77-2.2,1.98-5.07,3.64c-2.87,1.66-7.07,3.57-12.6,5.74c-5.53,2.17-11.34,3.98-17.42,5.44
					c-6.12,1.46-12.34,2.51-18.63,3.15c-6.3,0.64-11.12,0.9-14.45,0.8c-3.34-0.1-5.21-0.27-5.62-0.52
					C1062.85,630.52,1062.44,629.01,1061.95,626.12z"/>
			</g>
			<g>
				<path style="fill:#24359B;" d="M1080.33,1128.6c-1.02-6.8-1.19-10.6-0.52-11.38c0.42-0.46,2.01-1.02,4.78-1.71
					s5.8-1.27,9.1-1.76c8.05-1.2,12.72-1.43,14-0.7c0.96,0.49,1.95,4.17,2.97,11.02l5.83,39.02c1.83,12.27,2.81,22.1,2.94,29.5
					c0.13,7.4-0.36,11.99-1.47,13.77c-1.19,1.89-4.88,4.22-11.08,6.98c-6.2,2.76-13.25,4.74-21.16,5.92
					c-8.29,1.24-13.19,1.36-14.71,0.36c-1.41-0.92-2.61-4.34-3.59-10.26c-0.48-2.92-0.69-5.46-0.62-7.62s0.39-3.49,0.95-3.96
					c0.61-0.48,2.36-1.06,5.25-1.74c0.76-0.16,1.87-0.4,3.34-0.72c1.47-0.32,2.76-0.6,3.88-0.84c1.12-0.24,2.26-0.51,3.44-0.81
					s2.15-0.6,2.91-0.91c0.76-0.31,1.25-0.6,1.45-0.88c0.98-1.32,0.66-7.4-0.96-18.22L1080.33,1128.6z"/>
				<path style="fill:#24359B;" d="M1140.61,1200.6c-0.24-2.93-0.32-5.77-0.25-8.52c0.1-2.61,0.34-4.96,0.71-7.05
					c0.37-2.09,0.77-3.21,1.19-3.37c0.18-0.08,2.07-0.15,5.66-0.22c3.59-0.07,8.18-0.24,13.77-0.51c5.59-0.27,10.54-0.73,14.86-1.38
					c3.35-0.5,6.38-1.11,9.09-1.84s4.3-1.32,4.77-1.78c0.58-0.68,0.7-2.24,0.33-4.68c-0.26-1.73-0.72-2.83-1.38-3.32
					c-0.43-0.28-1.87-0.55-4.31-0.83c-2.44-0.27-5.95-0.67-10.54-1.18c-4.58-0.51-8.75-1.05-12.51-1.62
					c-13.24-2.04-20.91-4.1-23.04-6.18c-1.19-1.09-2.54-3.88-4.04-8.36c-1.5-4.48-2.6-9.02-3.28-13.62
					c-0.67-4.5-0.98-9.11-0.93-13.82c0.06-4.71,0.5-7.72,1.33-9.02c1.11-1.73,4.63-3.78,10.54-6.13s13.83-4.27,23.75-5.75
					c6.95-1.04,13.43-1.58,19.45-1.62c6.02-0.04,10.41,0.16,13.17,0.6c2.76,0.44,4.29,0.86,4.6,1.26c0.24,0.31,0.43,1.65,0.57,4.03
					c0.14,2.38,0.13,4.68-0.03,6.91c-0.17,2.77-0.53,5.28-1.08,7.54c-0.54,2.26-1.2,3.45-1.97,3.56c-0.14,0.02-1.84,0-5.08-0.05
					c-3.24-0.05-7.1-0.02-11.59,0.12c-4.49,0.13-8.33,0.44-11.54,0.92c-3.07,0.46-6.03,1.12-8.89,1.99
					c-2.86,0.87-4.55,1.51-5.07,1.93c-0.65,0.54-0.75,2.39-0.27,5.55c0.31,2.06,0.77,3.21,1.4,3.46c0.78,0.28,7.82,1.06,21.14,2.35
					c8,0.76,14.69,1.77,20.07,3.03s8.55,2.32,9.52,3.21c1.02,0.92,2.2,3.74,3.54,8.43c1.34,4.7,2.31,9.08,2.92,13.16
					c0.78,5.22,1.06,10.54,0.84,15.96c-0.22,5.42-0.72,8.63-1.5,9.63c-0.58,0.72-2.37,1.79-5.36,3.19c-3,1.4-7.35,2.95-13.05,4.63
					c-5.7,1.68-11.64,2.99-17.82,3.91c-6.23,0.93-12.51,1.44-18.84,1.53c-6.33,0.09-11.15-0.06-14.47-0.45
					c-3.31-0.39-5.16-0.72-5.55-1.01C1141.13,1205.06,1140.86,1203.52,1140.61,1200.6z"/>
			</g>
			<g>
				<path style="fill:#24359B;" d="M560.33,910.87c-2.84-9.81-4.95-19.39-6.35-28.73c-1.41-9.44-2.15-19.07-2.22-28.91
					c-0.07-9.83,0.47-15.6,1.64-17.29c1.09-1.58,5.07-3.51,11.96-5.79c6.88-2.28,15.52-4.19,25.92-5.75
					c8.05-1.2,15.24-1.91,21.58-2.12c6.34-0.21,9.8,0.05,10.4,0.8c0.3,0.4,0.47,1.83,0.5,4.3c0.03,2.47-0.05,4.92-0.22,7.34
					c-0.52,7.67-1.71,11.64-3.58,11.92c-0.24,0.04-1.51,0.04-3.82,0.02c-2.3-0.02-5.26,0.04-8.86,0.19s-7.13,0.48-10.58,0.99
					c-3.83,0.57-6.96,1.28-9.38,2.14c-2.42,0.85-3.84,1.68-4.26,2.47c-0.61,1.17-0.84,4.64-0.68,10.42
					c0.15,5.78,0.56,10.85,1.21,15.21c0.64,4.31,1.74,9.33,3.28,15.05c1.54,5.72,2.72,9.06,3.55,10.01c1.13,1.3,5.42,1.39,12.9,0.28
					c5.13-0.77,9.78-1.78,13.95-3.04c4.17-1.26,7.37-2.38,9.6-3.34c2.23-0.97,3.56-1.49,3.99-1.55c1.05-0.16,2.27,0.79,3.66,2.83
					c1.38,2.05,2.56,4.37,3.54,6.97c0.73,1.95,1.38,4.07,1.94,6.36c0.56,2.29,0.77,3.91,0.62,4.87c-0.14,0.36-0.57,0.83-1.3,1.41
					c-0.72,0.57-1.99,1.3-3.79,2.18c-1.8,0.88-3.97,1.77-6.51,2.66c-2.54,0.89-5.89,1.82-10.05,2.79
					c-4.17,0.96-8.74,1.82-13.72,2.56c-10.06,1.5-18.6,2.14-25.61,1.92c-7.01-0.23-11.23-0.97-12.64-2.23
					C565.38,926.33,563.16,920.68,560.33,910.87z"/>
				<path style="fill:#24359B;" d="M672.17,901.65c-0.29-1.92-0.66-3.7-1.13-5.34c-0.47-1.64-0.83-2.52-1.09-2.63
					c-0.22-0.16-1.2-0.23-2.93-0.19c-1.73,0.04-3.51,0.19-5.33,0.47l-3.45,0.52c-5.27,0.79-8.33,0.93-9.19,0.42
					c-0.81-0.52-1.73-4.22-2.76-11.12c-1.04-6.95-1.24-10.76-0.61-11.44c0.58-0.72,3.55-1.49,8.92-2.29l3.52-0.53
					c1.92-0.29,3.7-0.66,5.34-1.13s2.52-0.83,2.63-1.09c0.16-0.22,0.23-1.2,0.19-2.93c-0.04-1.73-0.19-3.51-0.47-5.33l-0.65-4.38
					c-0.79-5.32-0.94-8.41-0.43-9.27c0.51-0.81,4.22-1.73,11.12-2.76c2.59-0.39,5.03-0.64,7.34-0.77c2.31-0.12,3.65-0.07,4.03,0.17
					c0.76,0.52,1.55,3.51,2.37,8.98l0.67,4.46c0.29,1.92,0.66,3.7,1.13,5.34c0.47,1.64,0.83,2.52,1.09,2.63
					c0.22,0.16,1.2,0.23,2.93,0.19c1.73-0.04,3.51-0.19,5.33-0.47l3.81-0.57c5.32-0.79,8.41-0.94,9.27-0.43
					c0.81,0.52,1.73,4.22,2.76,11.12c1.02,6.85,1.22,10.64,0.6,11.37c-0.57,0.77-3.56,1.56-8.98,2.37l-3.88,0.58
					c-1.92,0.29-3.7,0.66-5.34,1.13c-1.65,0.47-2.52,0.83-2.63,1.09c-0.16,0.22-0.23,1.2-0.19,2.93c0.04,1.73,0.19,3.51,0.46,5.33
					l0.67,4.46c0.8,5.37,0.94,8.43,0.42,9.19c-0.52,0.81-4.22,1.73-11.12,2.76c-6.85,1.02-10.64,1.22-11.37,0.6
					c-0.79-0.71-1.58-3.68-2.36-8.91L672.17,901.65z"/>
				<path style="fill:#24359B;" d="M756.83,889c-0.29-1.92-0.66-3.7-1.13-5.34c-0.47-1.64-0.83-2.52-1.09-2.63
					c-0.22-0.16-1.2-0.22-2.93-0.19c-1.73,0.04-3.51,0.19-5.33,0.47l-3.45,0.52c-5.27,0.79-8.33,0.93-9.19,0.42
					c-0.81-0.52-1.73-4.22-2.76-11.12c-1.04-6.95-1.24-10.76-0.61-11.44c0.58-0.72,3.55-1.49,8.92-2.29l3.52-0.53
					c1.92-0.29,3.7-0.66,5.34-1.13s2.52-0.83,2.63-1.09c0.16-0.22,0.23-1.2,0.19-2.93c-0.04-1.73-0.19-3.51-0.47-5.33l-0.65-4.38
					c-0.79-5.32-0.94-8.41-0.43-9.27c0.52-0.81,4.22-1.73,11.12-2.76c2.59-0.39,5.04-0.64,7.34-0.77c2.31-0.12,3.65-0.07,4.03,0.17
					c0.76,0.52,1.55,3.51,2.37,8.98l0.67,4.46c0.29,1.92,0.66,3.7,1.13,5.34c0.46,1.64,0.83,2.52,1.09,2.63
					c0.22,0.16,1.2,0.23,2.93,0.19c1.73-0.04,3.51-0.19,5.33-0.47l3.81-0.57c5.32-0.79,8.41-0.94,9.27-0.43
					c0.81,0.52,1.73,4.22,2.76,11.12c1.02,6.85,1.22,10.64,0.6,11.37c-0.57,0.77-3.56,1.56-8.98,2.37l-3.88,0.58
					c-1.92,0.29-3.7,0.66-5.34,1.13c-1.65,0.47-2.52,0.83-2.63,1.09c-0.16,0.22-0.23,1.2-0.19,2.93c0.04,1.73,0.19,3.51,0.47,5.33
					l0.67,4.46c0.8,5.37,0.94,8.43,0.42,9.19c-0.52,0.81-4.22,1.73-11.12,2.76c-6.85,1.02-10.64,1.22-11.37,0.6
					c-0.79-0.71-1.58-3.68-2.36-8.9L756.83,889z"/>
			</g>
			<g>
				<path style="fill:#24359B;" d="M2277.84,1053.06c1.29-7,2.7-11.03,4.22-12.08s5.76-0.93,12.72,0.35l22.29,4.11
					c10.77,1.99,19.52,4.01,26.26,6.06c6.74,2.06,10.74,3.79,12.01,5.21c1.36,1.43,2.22,4.66,2.57,9.67
					c0.36,5.02-0.25,11.74-1.8,20.17c-1.55,8.38-3.38,14.88-5.52,19.49c-2.13,4.61-4.08,7.31-5.86,8.12
					c-1.61,0.74-5.3,1.02-11.05,0.84c-5.76-0.18-12.95-1.06-21.57-2.65l-7.29-1.34c-2.57-0.47-4.22-0.51-4.93-0.1
					c-0.71,0.36-1.31,1.9-1.81,4.62l-3.02,16.36c-1.27,6.86-2.33,10.5-3.2,10.94c-1.21,0.71-6.01,0.29-14.4-1.25
					c-3.29-0.61-6.32-1.3-9.11-2.09c-2.79-0.79-4.38-1.41-4.79-1.88c-0.74-0.78-0.49-4.57,0.77-11.38L2277.84,1053.06z
					 M2316.56,1089.54c2.09,0.44,4.14,0.63,6.17,0.58c2.03-0.04,3.27-0.22,3.72-0.53c0.81-0.64,1.66-3.39,2.56-8.25
					c0.88-4.76,1.02-7.52,0.42-8.27c-0.36-0.46-1.46-1.06-3.29-1.79s-3.82-1.3-5.97-1.69l-8.65-1.59c-2.72-0.5-4.48-0.53-5.3-0.09
					c-0.65,0.32-1.25,1.94-1.78,4.84l-1.13,6.14c-0.76,4.14-0.91,6.56-0.45,7.23c0.38,0.61,2.05,1.19,5,1.74L2316.56,1089.54z"/>
				<path style="fill:#24359B;" d="M2379.88,1069.96c1.27-6.86,2.33-10.51,3.2-10.94c0.5-0.3,2.17-0.33,5-0.07
					c2.83,0.25,5.85,0.67,9.04,1.26c7.96,1.47,12.47,2.77,13.54,3.9c0.75,0.73,0.5,4.53-0.77,11.38l-2.74,14.86
					c-0.33,1.81-0.55,3.57-0.64,5.28c-0.09,1.71-0.07,2.7,0.08,2.97c0.11,0.22,1,0.6,2.67,1.16s3.41,1,5.22,1.33l10.79,1.99
					c1.91,0.35,3.71,0.57,5.42,0.67c1.71,0.09,2.65,0.03,2.84-0.18c0.23-0.15,0.6-1.06,1.13-2.71s0.96-3.38,1.29-5.19l2.74-14.86
					c1.27-6.86,2.36-10.5,3.27-10.92c0.55-0.29,2.21-0.32,5-0.07c2.79,0.24,5.78,0.66,8.97,1.25c8,1.48,12.54,2.78,13.61,3.92
					c0.71,0.67,0.43,4.46-0.84,11.37l-13.84,75.03c-1.27,6.86-2.33,10.5-3.2,10.94c-0.5,0.3-2.17,0.33-5,0.08
					c-2.83-0.25-5.85-0.67-9.04-1.26c-7.96-1.47-12.47-2.77-13.54-3.9c-0.75-0.73-0.5-4.52,0.77-11.38l3.01-16.29
					c0.33-1.81,0.55-3.57,0.64-5.28c0.09-1.71,0.07-2.7-0.08-2.97c-0.11-0.22-0.99-0.59-2.64-1.11c-1.65-0.53-3.41-0.96-5.26-1.3
					l-10.79-1.99c-1.91-0.35-3.71-0.59-5.41-0.7c-1.7-0.12-2.65-0.07-2.83,0.14c-0.23,0.16-0.6,1.06-1.13,2.71
					c-0.53,1.65-0.96,3.38-1.29,5.19l-3.01,16.29c-1.27,6.86-2.36,10.5-3.27,10.92c-0.55,0.29-2.21,0.32-5,0.08
					c-2.79-0.24-5.78-0.66-8.97-1.25c-8-1.48-12.54-2.78-13.61-3.92c-0.71-0.67-0.43-4.46,0.84-11.37L2379.88,1069.96z"/>
				<path style="fill:#24359B;" d="M2488.37,1091.9c1.29-7,2.7-11.03,4.22-12.08s5.76-0.93,12.72,0.35l22.29,4.11
					c10.77,1.99,19.52,4.01,26.26,6.06c6.74,2.06,10.74,3.79,12.01,5.21c1.36,1.43,2.22,4.66,2.57,9.67
					c0.36,5.02-0.24,11.74-1.8,20.17c-1.55,8.38-3.38,14.88-5.52,19.49c-2.13,4.61-4.08,7.31-5.86,8.12
					c-1.61,0.74-5.3,1.02-11.05,0.84c-5.75-0.17-12.94-1.06-21.57-2.65l-7.29-1.34c-2.57-0.47-4.22-0.51-4.93-0.1
					c-0.71,0.36-1.31,1.9-1.81,4.62l-3.02,16.36c-1.27,6.86-2.33,10.5-3.2,10.94c-1.21,0.71-6.01,0.29-14.4-1.25
					c-3.29-0.61-6.32-1.3-9.11-2.09s-4.38-1.41-4.79-1.88c-0.74-0.78-0.49-4.57,0.77-11.38L2488.37,1091.9z M2527.08,1128.38
					c2.09,0.43,4.14,0.63,6.17,0.58c2.03-0.04,3.27-0.22,3.72-0.53c0.81-0.64,1.66-3.39,2.56-8.25c0.88-4.76,1.02-7.52,0.42-8.27
					c-0.36-0.46-1.46-1.06-3.29-1.79c-1.83-0.73-3.82-1.3-5.97-1.69l-8.65-1.6c-2.72-0.5-4.48-0.53-5.3-0.09
					c-0.65,0.32-1.24,1.94-1.78,4.84l-1.13,6.15c-0.76,4.14-0.91,6.56-0.45,7.23c0.38,0.61,2.05,1.19,5,1.74L2527.08,1128.38z"/>
			</g>
			<g>
				<path style="fill:#24359B;" d="M2491.07,774.38c-4.04-9.38-7.33-18.62-9.88-27.72c-2.58-9.19-4.51-18.66-5.81-28.41
					c-1.3-9.75-1.47-15.53-0.53-17.36c0.88-1.71,4.59-4.12,11.14-7.24c6.55-3.12,14.88-6.09,25-8.93c7.84-2.2,14.88-3.79,21.14-4.79
					c6.26-1,9.73-1.17,10.42-0.51c0.35,0.35,0.69,1.76,1.03,4.2c0.33,2.45,0.56,4.89,0.69,7.31c0.44,7.67-0.25,11.77-2.07,12.28
					c-0.23,0.06-1.5,0.23-3.79,0.49c-2.29,0.26-5.21,0.69-8.77,1.29c-3.56,0.59-7.01,1.36-10.37,2.3c-3.73,1.05-6.74,2.14-9.04,3.29
					s-3.6,2.14-3.92,2.98c-0.46,1.23-0.25,4.71,0.62,10.43c0.87,5.72,1.9,10.7,3.09,14.94c1.18,4.2,2.89,9.04,5.13,14.52
					c2.24,5.48,3.83,8.65,4.77,9.49c1.28,1.15,5.56,0.71,12.83-1.33c4.99-1.4,9.48-2.98,13.46-4.75c3.98-1.77,7.02-3.27,9.11-4.52
					c2.09-1.24,3.35-1.92,3.77-2.04c1.03-0.29,2.35,0.5,3.98,2.36c1.63,1.86,3.09,4.01,4.38,6.47c0.97,1.84,1.88,3.86,2.72,6.07
					c0.84,2.2,1.25,3.79,1.22,4.75c-0.09,0.38-0.46,0.9-1.11,1.56c-0.65,0.66-1.81,1.54-3.49,2.64c-1.68,1.1-3.72,2.25-6.13,3.45
					c-2.41,1.2-5.61,2.54-9.63,4.02c-4.01,1.48-8.45,2.9-13.3,4.25c-9.8,2.75-18.19,4.44-25.17,5.09
					c-6.99,0.65-11.26,0.44-12.82-0.63C2498.01,789.09,2495.11,783.76,2491.07,774.38z"/>
				<path style="fill:#24359B;" d="M2591.58,749.53c-0.06-0.58-0.17-0.92-0.32-1c-0.15-0.08-0.55-0.03-1.2,0.15l-7.28,2.04
					c-2.99,0.84-4.89,0.97-5.7,0.39c-0.49-0.32-1.15-1.38-1.99-3.18c-0.83-1.8-1.6-3.96-2.31-6.48c-1.5-5.36-1.9-8.67-1.2-9.93
					c0.57-1.01,2.3-1.93,5.19-2.74l9.94-2.79c0.65-0.18,1.06-0.39,1.23-0.61s0.19-0.62,0.08-1.19l-1.78-12.56
					c-0.09-0.68-0.23-1.1-0.43-1.28c-0.2-0.17-0.58-0.18-1.14-0.02l-7.21,2.02c-2.99,0.84-4.89,0.97-5.7,0.39
					c-0.49-0.31-1.15-1.37-1.99-3.18c-0.83-1.8-1.6-3.96-2.31-6.48c-1.5-5.36-1.9-8.67-1.2-9.93c0.57-1.01,2.3-1.93,5.19-2.74
					l9.86-2.76c0.61-0.17,0.99-0.38,1.15-0.62c0.16-0.25,0.18-0.75,0.06-1.53l-1.79-12.86c-0.13-0.82-0.13-1.82-0.01-3.01
					s0.3-1.97,0.55-2.34c0.76-1.07,4.05-1.99,9.87-2.77c2.66-0.39,4.94-0.55,6.84-0.48c1.91,0.07,3.04,0.23,3.42,0.48
					c0.31,0.21,0.67,0.91,1.07,2.08c0.4,1.17,0.68,2.19,0.82,3.05l1.35,9.66c0.12,0.77,0.27,1.23,0.46,1.38s0.57,0.14,1.13-0.01
					l11.61-3.25c0.61-0.17,0.99-0.38,1.15-0.62c0.16-0.25,0.18-0.75,0.06-1.53l-1.86-12.83c-0.13-0.82-0.13-1.82-0.01-3.01
					c0.12-1.19,0.3-1.97,0.55-2.34c0.28-0.43,1.38-0.92,3.29-1.45c1.91-0.54,4.1-0.97,6.57-1.31c2.66-0.39,4.94-0.55,6.84-0.49
					c1.91,0.07,3.04,0.23,3.42,0.48c0.31,0.21,0.67,0.91,1.07,2.08c0.4,1.17,0.68,2.19,0.82,3.05l1.35,9.66
					c0.07,0.79,0.19,1.25,0.36,1.41c0.17,0.15,0.58,0.14,1.23-0.04l7.21-2.02c0.75-0.21,1.71-0.35,2.9-0.43
					c1.19-0.08,1.99,0,2.4,0.23c0.48,0.27,1.11,1.26,1.89,2.98s1.51,3.77,2.17,6.14c0.72,2.57,1.19,4.85,1.43,6.84
					c0.23,2,0.23,3.21,0,3.62c-0.11,0.33-0.72,0.78-1.85,1.35s-2.13,0.97-3.02,1.22l-9.87,2.77c-0.61,0.17-0.99,0.38-1.15,0.62
					c-0.16,0.25-0.19,0.73-0.08,1.46l1.78,12.56c0.12,0.62,0.26,0.98,0.42,1.09c0.16,0.11,0.54,0.08,1.14-0.09l7.14-2
					c0.75-0.21,1.71-0.35,2.9-0.43c1.19-0.08,1.99,0,2.4,0.23c0.48,0.27,1.11,1.26,1.89,2.98c0.78,1.72,1.5,3.74,2.16,6.07
					c0.72,2.57,1.19,4.86,1.4,6.89s0.23,3.24,0.04,3.65c-0.17,0.3-0.81,0.74-1.93,1.33c-1.12,0.59-2.1,1-2.94,1.24l-9.79,2.75
					c-0.65,0.18-1.06,0.36-1.21,0.53s-0.18,0.54-0.07,1.11l1.89,13.21c0.43,3.15,0.32,5.09-0.33,5.83c-0.34,0.4-1.39,0.87-3.15,1.41
					c-1.76,0.54-4.01,1.02-6.76,1.44c-2.5,0.4-4.71,0.56-6.62,0.5s-3.11-0.29-3.62-0.65c-0.4-0.34-0.81-1.11-1.25-2.29
					c-0.43-1.19-0.7-2.24-0.81-3.17l-1.4-10.1c-0.05-0.54-0.16-0.86-0.34-0.96c-0.18-0.1-0.57-0.07-1.18,0.1l-11.61,3.25
					c-0.65,0.18-1.04,0.36-1.18,0.52c-0.13,0.16-0.14,0.53-0.03,1.1l1.82,13.22c0.43,3.15,0.32,5.09-0.33,5.83
					c-0.34,0.4-1.39,0.87-3.15,1.41c-1.76,0.54-4.01,1.02-6.76,1.44c-2.5,0.4-4.71,0.56-6.62,0.5c-1.91-0.07-3.11-0.29-3.62-0.65
					c-0.4-0.34-0.81-1.11-1.25-2.29c-0.43-1.19-0.7-2.24-0.81-3.17L2591.58,749.53z M2623.17,715.78c0.61-0.17,0.99-0.37,1.16-0.59
					c0.16-0.22,0.19-0.62,0.08-1.19l-1.71-12.58c-0.12-0.77-0.25-1.22-0.42-1.35c-0.16-0.13-0.55-0.11-1.15,0.06l-11.54,3.24
					c-0.61,0.17-0.99,0.38-1.15,0.62c-0.16,0.25-0.19,0.73-0.08,1.46l1.71,12.58c0.08,0.63,0.21,1,0.38,1.1
					c0.18,0.1,0.57,0.07,1.18-0.1L2623.17,715.78z"/>
			</g>
		</g>
		<rect x="199.1" y="1918.74" style="fill:#24359B;" width="2874.63" height="19.5"/>
	</g>
	<path style="fill:#FFFFFF;" d="M1646.89,672.29l46.49-0.76c0,0-0.78,17.67-21.22,18.6
		C1647.25,691.25,1646.89,672.29,1646.89,672.29z"/>
</g>
</svg>
