<svg viewBox="0 0 167.71 55.64" xmlns="http://www.w3.org/2000/svg"><path d="m157.88 47.44c1.24-.14 2.48-.3 3.67-.5 2-.35 3.55-.8 4.2-1.4 1.5-1.38 1.83-3.4 1.86-6.4 0-2.48.6-4.58-1.5-5.44-.82-.33-1.7-.67-1.7-1.08-.28-4.7-.36-4.23-.87-9.05-.2-2-1.87-3.63-4.5-4.45-11.47-3.58-21.15-4.45-33.55-5-2.45-.1-2.94 1.82-5.4 2.84s-3 .8-3-.6l.06-3.25a.66.66 0 0 0 -.63-.7l-2.5-.17a.76.76 0 0 0 -.74.7l-.5 2.83c-.36 1.92-.7 2.7-2.6 2.93-8.76 1-20.3 2.2-29.1 1.76-2.6-.13-2.1.25-1.5-1.9a10.62 10.62 0 0 0 .44-2.1c.14-2.42-4.28-2.6-7-2.42a132.75 132.75 0 0 1 18.91-11.27c.9-.42 1.42-.45.84-1.37l-.57-.9c-.44-.67-.95-.55-1.67-.3-10.8 4-20.63 9.8-29.63 14.73-12.82.77-36.5 1.5-49.48 5.85-4.1 1.37-5.77 4.23-7.06 6.75-1.36 2.72-2.07 3.35-2.7 4.9-1 .08-1.08.4-1.4 1a13.07 13.07 0 0 0 -.26 3.63c0 1.3.12 3.22.24 4.47.23 2.62.67 4.1 2 5.08a5.9 5.9 0 0 0 3.06 1.13l4.22.14c2.6-.38 3 0 2.74-3.36-.08-.92-.12-1.88-.12-2.83a18.16 18.16 0 0 1 36.32 0 24.94 24.94 0 0 1 -.54 5.56c-.7 3-.25 2.5 2.3 2.66h65c2.3-.46 3.7-1.27 3.38-4.35a36.62 36.62 0 0 1 -.17-3.88 18.16 18.16 0 0 1 36.32 0v3.08c0 2.85 0 3.05 3.15 2.7zm-127.58-19.74a14 14 0 1 1 -14 14 14 14 0 0 1 14-14zm106.26 0a14 14 0 1 1 -14 14 14 14 0 0 1 14-14z" fill="#2e333d" fill-rule="evenodd"/></svg>