<svg viewBox="0 0 173.15 63.88" xmlns="http://www.w3.org/2000/svg"><path d="m172.23 49.74c.87-2.8.94-8.3.92-11.6 0-1.44-.3-2.37-1.7-2.67-.85-.18-1.72-.36-1.74-.72-.25-4.4-.55-7.63-1-12.14-.28-2.78-5.17-5.25-8.1-7.9-2.62-2.36-8-6.37-10.3-8.24-1.93-1.57.94-3.35-.85-4.1-2.86-1.3-8.23-1.83-14-2-14.21-.47-33.46-.63-47.26.39a62.53 62.53 0 0 0 -13.57 2.24c-10.43 3.3-19.36 11.46-29.25 16.13-12 1.27-24 2.37-36.13 5.37-3.92 1-4.77 2.5-6 4.83-1.3 2.54-.8 4.93-1.4 6.37-1 .08-1-.17-1.3.4a6.5 6.5 0 0 0 -.2 2.34c-.35 4.42-1.3 11 2.4 13.75a5.3 5.3 0 0 0 .57.3h5.55c2.78 0 2.6-.53 2.9-3.45a17 17 0 0 1 16.87-15.2 17.24 17.24 0 0 1 16.76 14.46c.57 3.63-.3 4.28 3.4 4.28h72.62c2.6 0 2.42-.25 2.6-2.85a17 17 0 0 1 33.83-.26c.3 3.1 0 3.1 2.86 3.1h7c2.2 0 3.75-.48 4.5-2.83zm-31.3-12a13 13 0 1 1 -13 13 13 13 0 0 1 13-13zm-112.3 0a13 13 0 1 1 -13 13 13 13 0 0 1 13-13zm35-15.84a13.66 13.66 0 0 0 .65-2.9c.14-2.26-4-2.43-6.57-2.26 5-3.7 11.8-8.2 18.4-10.5 2.34-.78 9.22-1.2 13.6-1.3l5.6-.12c1 0 1.16.46.86 1.26-1 2.68-1.4 8.48-2 12.38-.3 1.88-.74 2.33-2.66 2.34-7.6.06-27.93 1.52-27.83 1.16zm60.72-2.3a44.9 44.9 0 0 0 -2.16-12.26c-7.12-3.1-12.44-2.48-19.92-2.57a1.66 1.66 0 0 0 -1.4.66c-.8 2.08-1 4.9-2 13.47-.28 2.34-.12 1.7 2.47 1.68 6.4-.08 15.8-.57 23-1zm1.2-11.48a57.57 57.57 0 0 1 2.35 11.37c2.56-.15 1.8-.26 4.08-.34 3.33-.1 3.22-1.44 1.12-4.32-.72-1-3.8-5-7.57-6.73zm16.64-1.52 4.34.3c4.28 3.5 8.57 6.62 12.85 10 2.27 1.8.06 1.62-1.75 1.28-6.7-1.23-11.33-6.45-15.45-11.6z" fill="#2e333d" fill-rule="evenodd"/></svg>