<svg viewBox="0 0 186.8 72.24" xmlns="http://www.w3.org/2000/svg"><path d="m150.6 44.3a14 14 0 1 1 -14 14 14 14 0 0 1 14-14zm20 20c3.16-.27 7.2-.6 10.23-1.17 2-.38 3.55-.87 4.2-1.55 2.04-2.13 1.8-8.78 1.77-12.2 0-.82-1.9-.82-1.93-1.7a83.7 83.7 0 0 0 -2-15.9c-1-4-3-6.76-4.53-9.9-1.36-2.8-4.64-11.8-9.3-17a3.68 3.68 0 0 1 -.73-2.7c.08-2.27-.27-2-2.4-2.14-2.4-.2-6.45-.06-11.9 0l-64.16.4c-3 0-5.86.3-8.47.5-14.38 1.06-31.58 13.16-43.86 20.52-6.84 2.4-17.36 6.38-26.55 9.74a9.14 9.14 0 0 0 -6 5.5 34.08 34.08 0 0 0 -1.87 6.1 28.77 28.77 0 0 1 -1.42 4.16c-1 .1-1.07-.2-1.4.47a8.67 8.67 0 0 0 -.22 2.8 30.76 30.76 0 0 0 .46 8.43c.57 2.25 1.1 3.35 2.08 4.18a4.5 4.5 0 0 0 2.76 1.16l4.4.16c3-.3 3.1.22 2.6-3.34a18.16 18.16 0 1 1 35.42 2.6c-1 3.45-.5 2.9 2.32 3.18l79.83-.1c2.9-.28 4.2.46 3.12-3.5a17.93 17.93 0 0 1 -.62-4.7 18.16 18.16 0 1 1 36 3.23c-.35 2 .17 3 2.1 2.83zm-74.12-41c1.08-10.24 1.35-14.84 2.2-17.3a1.75 1.75 0 0 1 1.5-.78l24.82-.22c1.58 0 2.54 0 2.6 2.16l.4 14.5c.05 1.83.28 2.75-1.8 2.82-9.92.37-17.2.7-27.12.82-2.78 0-2.94.8-2.64-2zm-40.4 3.48a18 18 0 0 0 .67-3.53c.15-2.7-4.28-2.9-7-2.7 8.5-7.12 23.18-15.24 34.13-15.26h8.68c1.1 0 1.13.5.9 1.5-.74 3.35-1.43 11.28-2.07 15.94-.32 2.25-.8 2.78-2.85 2.8-8.12.07-32.56 1.7-32.46 1.26zm76.45-4.47q-.33-7.08-.66-14.18a6.65 6.65 0 0 1 .3-1.93c.08-.4.8-.8 1.4-.8l8.86-.13c1.5 0 11 1.88 14.1 4.58 4.12 3.6 8.36 8.25 9.33 10.14.82 1.6.46 2.73-1.6 2.8-9.9.37-19 1.4-28.9 1.52-2.76 0-2.72.8-2.85-2zm-102.17 22a14 14 0 1 1 -14 14 14 14 0 0 1 14-14z" fill="#2e333d" fill-rule="evenodd"/></svg>