<svg viewBox="0 0 187.69 48.13" xmlns="http://www.w3.org/2000/svg"><path d="m35.4 20.2a14 14 0 1 1 -14 14 14 14 0 0 1 14-14zm139.83 22.1c5-.68 10.54-2.1 12.14-6.42 1.18-3.22-1.18-5.5-2.84-8.4a6.75 6.75 0 0 1 -.82-2.33c-1-6.38 9.28-7.44-1.3-11.07-18.49-6.32-41.11-13.26-63.16-14.02-11.85-.4-24 1.07-34.2 5.18-6.28 2.53-13.53 5.84-22.3 10-2.3-.93-20.53-2.27-28.88-1.45-10.15 1-24.57 4.48-32.08 12-2.55 2.55-2.13 4.2-.35 7.5 2.82 5.15 7.75 8.83 13.8 9 3.6.1 2.37-1.68 2-5.2a29.7 29.7 0 0 1 -.14-3 18.16 18.16 0 1 1 36.33 0c0 1 0 1.93-.08 2.86-.38 5.78-3 7.5 2.9 7.48l77-.1c3.7 0 3.15-2.37 2.7-6.67a35 35 0 0 1 -.15-3.57 18.16 18.16 0 0 1 36.32 0 31.57 31.57 0 0 1 -.14 3.25c-.36 3.47.42 5.26 3.24 4.88zm-54.83-27.85c.86-3.38 1.83-7.07 3.67-10.07a2.1 2.1 0 0 1 2.46-.7 36 36 0 0 1 7.64 2.5c1.65.88 2.26 1.2.85 3-2.47 3.16-8.65 6.12-12.28 7.32-2.5.83-3 .48-2.33-2.05zm-38.33 2.87a11.37 11.37 0 0 0 .54-2.55c.1-2-3-1.53-5.55-1.2-1.23.16-1-.22-.14-.75a70.85 70.85 0 0 1 11.58-5.5 67.18 67.18 0 0 1 18.34-4.1c3.42-.3 6.87-.44 10.27-.54 1.63 0 2.82.23 2.32 1.52-.9 2.33-2 5.63-3.43 8.48-.93 1.9-1.94 4.62-4.2 5-7.06 1.08-25.63 1.78-29.23.68-.72-.22-.68-.36-.5-1zm72.17 2.86a14 14 0 1 1 -14 14 14 14 0 0 1 14-14z" fill="#2e333d" fill-rule="evenodd"/></svg>