<svg viewBox="0 0 173.45 67.29" xmlns="http://www.w3.org/2000/svg"><path d="m168.93 54.92.38-.1c2.3-.38 3.3-.12 3.66-3.06.44-3.52.28-9 .46-11.22.12-1.5-.1-2.9-1.7-3.24-.9-.2-1.83-.37-1.85-.76a56.4 56.4 0 0 0 -2.3-13.44 107.46 107.46 0 0 0 -7.75-19.3c-2-4-1.28-3.76-6.47-3.76-18.66-.04-38.36-.17-57.36.2-12.67.25-25 .33-30.3 2-6.8 3.76-13.22 13.1-18.02 16.9-12.33 1.3-25.88 2.24-38.37 5.34-4.4 1.1-5.83 1.24-6.68 5.8-.5 2.7-.6 5.67-.9 7.25a6.2 6.2 0 0 1 -.74 0c-.65 0-.8.74-.83 1.5-.1 2.76-.33 8.72.14 12.12.4 2.85 2 3.75 4.53 3.75h4.52c3.55 0 2.92-.33 3.16-3.72a18.46 18.46 0 0 1 36.83 0c.28 3.7-.48 3.76 3.3 3.76h72.7c4.32 0 3.48-.24 3.95-4.45a18.46 18.46 0 0 1 36.71.51c.18 2.12-.4 3.95 1.76 3.95zm-138-17.1a14.73 14.73 0 1 1 -14.73 14.75 14.73 14.73 0 0 1 14.73-14.73zm116.7 0a14.73 14.73 0 1 1 -14.72 14.74 14.73 14.73 0 0 1 14.74-14.73zm-85.38-16.2a9.54 9.54 0 0 0 .75-2.82c.14-2.33-4.12-2.5-6.77-2.33a52.73 52.73 0 0 1 10.67-10.83c2.4-.8 16.3-1.25 20.8-1.34l5.8-.12c1 0 1.2.47.88 1.3-.52 2.88-1.45 8.75-2.07 12.76-.3 1.94-.75 3.06-2.73 3-7.82.42-27.43 1-27.33.36zm65.5-3.1c-.34-3.42-2.1-8.63-3.2-12.1-.4-1.28-.87-2.57-2.34-2.53-7.46.2-14.14.07-21.48.28a1.7 1.7 0 0 0 -1.44.68c-.83 2.14-1 5.06-2.1 13.88-.3 2.4-.14 2.74 2.54 2.7 5.86 0 17 0 25-.17 2.4-.07 3.3.2 3-2.76zm10.25.26c-1.26-2.7-3.25-7.42-5.12-11.66-1.08-2.45-1.12-3.23 1.72-3.27 5.6-.1 16.3 0 20.4.1a2.92 2.92 0 0 1 1.6.9c1.13 2.15 2.23 4.35 5.4 13.15.87 2.4.44 3.3-1.27 3.26-3.85-.07-13.5 0-19.2 0a3.73 3.73 0 0 1 -3.53-2.48z" fill="#2e333d" fill-rule="evenodd"/></svg>