<svg viewBox="0 0 187.5 77.19" xmlns="http://www.w3.org/2000/svg"><path d="m171 69.64c3.16-.28 7.5-.6 10.7-1.2 1.92-.37 3.43-.84 4-1.5 2-2.05 1.76-8.47 1.73-11.76 0-.8-1.9-.8-1.87-1.64-.05-17.1-.27-28.6-1.2-49.83-.2-2.18-2-3.4-4.07-3.57-2.3-.2-4.52-.13-9.77-.13l-105.84.54c-7.43 0-12.6.24-18.9 4.74s-11.15 14.25-13.94 19.71c-6.12 2.15-15.5 4.94-24.07 8-2.13.76-4 1.2-4.4 3.8a70.3 70.3 0 0 0 -.3 8.2c0 3.5.23 6-.17 7.14-.3.86-2.16.2-2.6 1.1a8.36 8.36 0 0 0 -.22 2.7 29.7 29.7 0 0 0 .44 8.14c.55 2.18 1 3.23 2 4a4.36 4.36 0 0 0 2.64 1.12l5.46.2c2.42-.2 1.62-.58 1.26-3.6a17.53 17.53 0 1 1 34.33 2.45c-.83 3.13-.93 3.46 2.62 3.46l84.7-.1c1.36 0 2.1 0 2.4-.4s.08-1.4-.36-3.07a17.53 17.53 0 1 1 34-.23c-.3 1.23.15 1.83 1.43 1.72zm-127.3-40.84a17.36 17.36 0 0 0 .62-3.42c.14-2.62-4-1.18-6.62-1 2.2-4.38 5.3-10.55 9.1-14.55 3.68-3.84 7.75-4.52 13-4.55h8.56c1 0 1.44.5 1.3 1.48-.46 3.24-.95 11.86-1.92 16.36-.46 2.14-1.77 2.67-3.73 3-7.83 1.46-20.42 3.1-20.32 2.68zm-14.4 21.42a13.48 13.48 0 1 1 -13.48 13.48 13.48 13.48 0 0 1 13.48-13.46zm123.16 0a13.48 13.48 0 1 1 -13.46 13.48 13.48 13.48 0 0 1 13.48-13.47z" fill="#2e333d" fill-rule="evenodd"/></svg>