<svg enable-background="new 0 0 512.003 512.003" viewBox="0 0 512.003 512.003" xmlns="http://www.w3.org/2000/svg"><path d="m511.857 93.15c.014-.294.012-.589-.006-.883-.1-.311-.219-.615-.356-.911-.489-1.459-1.33-2.776-2.449-3.833-.418-.345-.869-.649-1.345-.907-.423-.274-.871-.508-1.338-.7-.582-.184-1.183-.305-1.791-.361-.362-.1-.731-.174-1.104-.223-.091 0-.166.049-.256.051-.096.002-.181-.04-.278-.035l-298.27 18.622c-1.124-26.087-17.978-48.878-42.592-57.594 1.158-5.723 3.598-11.108 7.136-15.752 9.11-9.808 22.265-14.82 35.592-13.558 4.713 0 8.533-3.82 8.533-8.533s-3.819-8.533-8.532-8.533c-21.908 0-38.375 6.725-48.942 19.983-5.212 6.734-8.812 14.572-10.527 22.913-1.503-.106-3.002-.23-4.532-.23-31.589.055-58.42 23.135-63.194 54.362-8.447-7.524-19.361-11.685-30.673-11.695-20.99.058-39.381 14.064-45.019 34.282-1.204 1.457-1.879 3.278-1.915 5.168v285.942c.002 55.842 49.765 101.275 110.936 101.275.509-.053 1.012-.155 1.502-.303 1.471.438 3.043.404 4.494-.097l389.121-123.65c.13-.041.216-.143.343-.19.557-.233 1.087-.527 1.579-.877 1.898-1 3.227-2.822 3.598-4.935.18-.568.298-1.153.352-1.746.006-.135.078-.249.078-.386v-285.949c-.001-.255-.123-.469-.145-.717zm-413.505-6.586c7.752-16.417 24.295-26.873 42.45-26.831.912 0 1.804.085 2.703.137-.069 6.324.528 12.638 1.78 18.838.889 3.873 4.334 6.621 8.308 6.625.645.002 1.288-.071 1.917-.217 4.593-1.054 7.462-5.631 6.409-10.224 0 0 0 0 0-.001-.669-3.524-1.08-7.092-1.231-10.675 23.385 11.042 33.39 38.951 22.348 62.336s-38.951 33.39-62.336 22.348-33.391-38.951-22.348-62.336zm4.049 408.028c-47.775-3.883-85.333-40.017-85.333-83.867v-230.525c19.329 28.791 50.762 47.163 85.333 49.875zm7.368-281.316c-48.973-.602-90.236-38.693-92.483-84.59.107-.755.211-1.52.387-2.344 2.82-13.924 15.056-23.935 29.263-23.942 12.844.028 24.24 8.241 28.329 20.417.848 2.478 2.806 4.418 5.292 5.242 11.767 33.28 48.285 50.719 81.564 38.952 20.588-7.28 36.035-24.567 40.961-45.841l233.895-14.603-192.154 62.642c-.122.04-.202.137-.321.182-.549.236-1.071.532-1.557.882-1.9.992-3.225 2.816-3.581 4.93-.184.575-.304 1.169-.357 1.771-.005.124-.071.228-.071.353v44.542c0 4.713-3.82 8.533-8.533 8.533s-8.533-3.82-8.533-8.533v-33.369c0-4.713-3.821-8.533-8.533-8.533-4.713 0-8.533 3.821-8.533 8.533v212.567c0 4.713-3.82 8.533-8.533 8.533s-8.533-3.82-8.533-8.533v-201.475c-.213-.87-.354-1.757-.421-2.65-.039-.119-.134-.198-.178-.315-.233-.541-.523-1.056-.866-1.535-.433-.938-1.151-1.715-2.051-2.22-.756-.735-1.726-1.211-2.769-1.359-.621-.205-1.265-.335-1.917-.387-.116-.005-.213-.067-.331-.067-.444.052-.882.14-1.312.265-.448.016-.895.07-1.334.16zm9.699 150.434v-33.256l51.2-16.706v33.256zm51.2 1.238v33.274l-51.2 16.685v-33.253zm-51.2-52.438v-84.456l51.2-16.706v84.456zm375.467 61.064-375.467 119.311v-60.021l55.293-18.019c7.586 11.902 23.384 15.402 35.286 7.816 7.376-4.701 11.836-12.848 11.821-21.595v-1.57l273.067-89.066zm0-81.105-273.067 89.068v-33.24l273.067-89.066zm0-51.2-273.067 89.068v-33.24l273.067-89.066zm0-51.2-273.067 89.068v-33.243c2.733 1.012 5.62 1.544 8.533 1.573 14.132-.015 25.585-11.468 25.6-25.6v-38.344l238.933-77.896v84.442z"/></svg>