<svg enable-background="new 0 0 190.399 190.4" height="190.4" viewBox="0 0 190.399 190.4" width="190.399" xmlns="http://www.w3.org/2000/svg"><path d="m189.051 69.999c-4.793-2.396-10.221-3.628-15.423-3.096 1.631-4.199 2.11-9.336-1.101-12.223-4.635-4.166-10.576-2.31-15.666.172-1.871-3.545-3.901-7.264-4.593-11.098-.429-2.381-3.671-2.375-4.794-.627-1.971 3.068-4.648 5.351-7.328 7.694-3.236-4.242-8.143-9.281-13.479-6.931-.565.249-1.064.547-1.533.867-6.385-9.105-15.091-8.678-22.95-.431-8.801-12.77-21.632-15.007-30.888-1.415-11.187-7.921-23.561-6.018-21.038 9.471-6.565.306-11.821 6.743-15.005 12.018-3.617-3.888-9.095-8.17-14.089-6.516-5.445 1.803-6.987 7.147-7.058 12.357-3.876-.402-8.019-.389-11.484-1.843-1.276-.535-2.607.784-2.618 1.994-.04 4.356.099 8.899 2.931 12.419 1.523 1.893 4.244 2.434 6.848 2.744-.696.706-1.31 1.497-1.781 2.407-2.321 4.487-.62 9.628 1.957 13.585 1.695 2.602 5.869.199 4.18-2.443-2.848-4.454-3.572-11.329 3.282-12.125 2.558-.297 4.888.628 6.603 2.519 2.567 2.83 2.05 7.253 1.639 10.724-5.058.227-9.866 1.131-14.166 3.153-.197.092-.263.248-.353.392-.5-.793-1.02-1.556-1.507-2.367-1.123-1.873-3.686-.567-3.345 1.41 6.655 38.529 53.031 53.852 86.842 53.906 38.241.062 79.034-19.632 92.26-57.357 1.278-3.645-2.716-5.568-5.463-4.24-.824-.592-1.941-.909-3.339-.715-1.755.244-3.502.518-5.251.784 4.302-8.373 9.43-15.156 17.707-20.409 1.649-1.048 1.946-3.809.003-4.78zm-118.855-21.833c1.163 1.068 2.981.888 3.819-.492 7.045-11.597 19.406-8.797 25.69 2.02 1.025 1.763 3.195 1.422 4.285 0 8.692-5.69 14.707-6.098 18.119-1.372-2.027 4.28-1.178 10.188-.048 14.567.173.667.571 1.027 1.031 1.187-1.112.977-2.196 2.081-3.192 3.447-1.461-2.501-2.914-5.052-3.656-7.777-.451-1.659-2.998-2.652-4.201-1.11-3.518 4.511-7.797 7.632-10.762 12.315-3.744-3.317-9.042-7.324-13.684-5.256-6.121 2.728-4.437 9.828-2.853 14.987.455 1.483 2.518.848 2.277-.628-2.21-5.297-.141-8.519 6.209-9.666 2.645 1.489 5.007 3.33 7.085 5.524.957.894 2.764.86 3.4-.438 2.055-4.189 5.863-7.124 9.193-10.382 1.385 2.943 3.213 5.717 4.754 8.546.863 1.586 3.438 1.647 4.285 0 2.457-4.781 5.617-9.139 11.478-9.441 7.798-.403 7.06 9.789 6.103 14.715-16.307-6.443-42.189 3.895-35.488 26.673-.725.065-1.454.097-2.18.155-4.783-9.401-11.177-21.812-19.871-23.812 1.447-5.217.669-11.301-2.156-15.68-3.719-5.766-10.789-5.166-16.468-3.058-1.923-5.09-4.726-9.524-10.188-10.614.164-9.514 10.516-10.385 17.019-4.41zm-18.426 54.779c-7.052-1.281-14.369-2.526-21.371-2.743.566-3.812.048-7.922-1.575-11.258.027-.033.035-.083.061-.117 6.329-2.991 12.784-4.555 19.758-2.849 4.078.998 7.017 3.415 9.627 6.275-3.273 2.005-5.749 5.142-6.592 9.438-.091.472-.028.88.092 1.254zm-22.302-16.292c2.197-8.401 11.699-8.623 19.072-6.866 6.745 1.607 12 5.203 16.403 10.058-.857.138-1.695.339-2.516.583-7.828-9.925-21.917-9.516-32.959-3.775zm26.765 16.295c.92-3.244 2.71-5.418 5.392-6.71.358.443.716.886 1.077 1.326 1.358 1.653 3.471-.451 2.735-2.109-.047-.105-.107-.194-.155-.298 2.761-.418 5.453.125 8.145.675 2.428 3.426 4.633 7.016 6.939 10.534-3.694-.101-7.4-.278-11.132-.638-4.149-.401-8.674-1.187-13.373-2.041.147-.215.287-.44.372-.739zm21.514-6.443c.052.004.103.014.155.018 2.253.144 2.867-2.995 1.103-4.07-1.594-.972-3.345-1.677-5.156-2.164-.418-.573-.783-1.174-1.237-1.727 1.209-.98 2.364-1.631 3.496-2.132-.101 1.912 2.414 2.083 3.349.836.385-.512.692-1.081 1.008-1.643 3.328.301 6.362 2.694 9.23 6.848 2.944 4.263 5.103 8.995 7.458 13.607-4.814.289-9.655.395-14.52.324-1.639-3.317-3.163-6.666-4.886-9.897zm-60.708-14.306c-.856.082-1.694.274-2.51.526-.011-.003-.017-.011-.028-.014-2.173-.631-4.394-1.084-6.551-1.768-3.276-1.039-3.663-4.737-3.748-7.983 3.762.515 7.552-.044 11.338 1.249 1.274.435 2.255-.685 2.39-1.82.466-3.94.897-11.223 6.632-10.125 4.073.78 7.263 4.781 9.995 7.574 1.843 1.884 4.298-.735 2.958-2.73 6.572-9.886 18.813-16.103 22.096-.065.242 1.184 1.803 2.155 2.969 1.685 5.964-2.405 12.462-3.758 14.78 3.944.931 3.092.202 6.221-.488 9.323-2.492.614-5.146 2.089-7.979 4.689-10.865-12.37-40.489-20.045-41.954-.63-2.253-2.655-5.539-4.273-9.9-3.855zm158.496 20.511c-15.037 30.982-48.81 45.176-82.397 46.057-35.48.932-62.436-14.938-80.989-43.428.068-.002.122.046.193.03 8-1.853 20.189 2.116 27.991 3.342 10.804 1.696 21.592 3.47 32.456 4.741 34.84 4.077 68.57-5.929 102.746-10.742zm-52.416-13.362c7.214-.813 12.568 5.316 14.649 11.524-7.616 1.312-15.228 2.539-22.866 3.51.01-.116.022-.231 0-.364-1.134-6.423.73-13.827 8.217-14.67zm41.934 6.255c-.072.201-.057.385-.077.576-7.757 1.264-15.473 2.651-23.176 4-.017-.136.002-.259-.046-.404-2.735-8.488-10.316-16.332-20.008-14.434-9.543 1.869-12.1 10.945-9.008 19.271.002.007.008.011.01.018-1.854.223-3.706.458-5.564.646-2.828-12.055 4.159-20.846 15.996-23.372 12.055-2.573 20.825 4.051 24.48 15 .746 2.233 4.317 1.952 4.232-.573-.232-6.921-3.344-11.869-7.877-15.035.038-.098.104-.161.131-.27 4.389-16.75-8.175-25.142-18.627-18.756.002-.115.031-.219.014-.341-.467-3.128-.797-6.24-.125-9.245 1.554.171 3.242-1.511 2.347-3.396-.131-.277-.274-.511-.408-.776 3.46-3.198 9.659 6.194 10.304 7.148.926 1.37 2.596 1.564 3.838.495 2.461-2.117 4.898-4.064 7.097-6.291 1.345 3.429 3.284 6.759 4.845 9.895.666 1.338 2.423 1.593 3.637.954 2.323-1.223 10.254-5.98 12.057-1.147.908 2.435-.266 5.729-.905 8.625-1.831.713-3.604 1.654-5.241 2.978-7.619 6.161-11.205 15.964-8.248 25.438.336 1.078 2.1.93 2.029-.274-.895-15.119 10.758-27.43 25.091-23.278-7.634 5.785-13.501 13.337-16.798 22.548z"/></svg>