<svg height="209.341" width="209.34" xmlns="http://www.w3.org/2000/svg"><path d="m189.56 105.8c0-2.07-.07-26.8-.8-51.24-.45-14.96-1.05-26.88-1.8-35.45-.44-5.24-.94-9.16-1.5-11.98-.5-2.5-1.42-7.12-5.23-7.12-.26 0-.53.03-.8.08-2.07.43-4.03 1.8-8.5 14.96-2.7 7.95-5.68 18.37-8.38 29.34-3.2 13.03-10.45 45.17-8.7 62.3 1.06 10.25 5.43 12.4 8.9 12.4.07 0 9.57.04 10.34.05-.24 8.25-1.7 20.25-3.12 31.9-1.92 15.8-3.9 32.12-3.23 41.68.74 10.54 7.78 14.28 13.6 14.28 4.15 0 8.4-1.78 11.35-4.75 2.64-2.66 4.1-6.1 4.07-9.7-.06-11.9-5.83-82.14-6.2-86.73zm-2.65 91.67c-1.68 1.7-4.2 2.75-6.56 2.75-4.06 0-6.5-2.83-6.86-8-.63-8.9 1.32-24.9 3.2-40.38 1.73-14.15 3.36-27.52 3.17-36.12-.03-1.84-1.53-3.3-3.37-3.3-2.56 0-11.68-.14-13.72-.1-.4 0-.8-.68-1.06-1.25-3-6.75-.95-28.28 5.32-56.2 4.32-19.25 9.2-35.26 12.35-43.34.9 6.4 2 19.62 2.75 46.86.65 24.03.7 47.3.7 47.55v.27c.07.74 6.15 74.56 6.2 86.33.02 2.3-1.14 3.95-2.1 4.92zm-45.14-178.27c0-1.87-1.5-3.38-3.38-3.38s-3.39 1.5-3.39 3.38c0 11.4.24 22.26.43 31 .05 2.15.1 4.13.13 5.93l-8.2.12v-35.4c0-1.87-1.5-3.38-3.38-3.38-1.86 0-3.37 1.5-3.37 3.38v35.5l-7.7.12v-35.62c0-1.87-1.52-3.38-3.38-3.38-1.87 0-3.38 1.5-3.38 3.38v35.72l-7.5.1v-38.6c0-1.87-1.5-3.38-3.37-3.38-1.86 0-3.37 1.5-3.37 3.37v44.64c0 11.46 8.8 19.18 22.74 20.32v28.53c-2.44.04-3.77.07-3.8.08-1.63.04-3 1.25-3.23 2.87-2.33 15.54-7.3 56.3-6.9 76.15.26 12.05 8.15 16.32 14.83 16.32 7.77 0 16.4-5.7 16.82-14.92.5-11.55-2.56-52.9-3.87-70.58-.24-3.2-.42-5.6-.5-6.84-.12-1.77-1.6-3.15-3.37-3.15-1.14 0-2.22 0-3.24 0v-28.48c12.52-1.38 21-11 21-19.7 0-3.1-.1-7.58-.22-13.26-.2-8.7-.43-19.52-.43-30.84zm-19.97 102.77c1.3 17.55 4.34 58.63 3.84 69.78-.23 5.07-5.4 8.47-10.07 8.47-5 0-7.95-3.54-8.07-9.7-.36-17.42 3.8-53.9 6.4-72.2 1.77-.04 4.35-.07 7.62-.08.08 1.07.17 2.32.27 3.73zm-3.47-45.55c-9.27 0-19.16-3.43-19.63-13l36.97-.54v.42c0 6.07-7.57 13.12-17.34 13.12zm-73.18-64.48c-17.42 0-31.58 17.3-31.58 38.6 0 10.07 3.24 19.24 9.12 25.8 4.95 5.55 11.48 8.96 18.66 9.86v27.72c-2.44.03-3.77.07-3.8.07-1.63.04-3 1.25-3.23 2.86-2.33 15.55-7.3 56.3-6.9 76.16.26 12.04 8.15 16.32 14.83 16.32 7.77 0 16.4-5.7 16.82-14.93.5-11.53-2.55-52.9-3.86-70.56-.24-3.22-.42-5.6-.5-6.85-.12-1.78-1.6-3.16-3.37-3.16-1.14 0-2.22 0-3.24 0v-27.53c7.5-.73 14.35-4.2 19.5-9.95 5.9-6.57 9.13-15.73 9.13-25.8 0-21.3-14.17-38.6-31.58-38.6zm3.34 112.4c1.28 17.54 4.33 58.63 3.83 69.77-.23 5.08-5.4 8.5-10.07 8.5-5 0-7.95-3.55-8.07-9.72-.37-17.4 3.78-53.9 6.4-72.2 1.77-.03 4.34-.06 7.6-.08.1 1.07.18 2.33.28 3.74zm-3.36-44.64c-14.4 0-24.83-12.27-24.83-29.16 0-17.56 11.13-31.85 24.83-31.85s24.83 14.28 24.83 31.84c0 16.9-10.45 29.15-24.83 29.15z"/></svg>